*
*
G04 PADS 9.5 Build Number: 522968 generated Gerber (RS-274-X) file*
G04 PC Version=2.1*
*
%IN "wifi_testchip_0427.pcb"*%
*
%MOIN*%
*
%FSLAX35Y35*%
*
*
*
*
G04 PC Standard Apertures*
*
*
G04 Thermal Relief Aperture macro.*
%AMTER*
1,1,$1,0,0*
1,0,$1-$2,0,0*
21,0,$3,$4,0,0,45*
21,0,$3,$4,0,0,135*
%
*
*
G04 Annular Aperture macro.*
%AMANN*
1,1,$1,0,0*
1,0,$2,0,0*
%
*
*
G04 Odd Aperture macro.*
%AMODD*
1,1,$1,0,0*
1,0,$1-0.005,0,0*
%
*
*
G04 PC Custom Aperture Macros*
*
*
*
*
*
*
G04 PC Aperture Table*
*
%ADD010C,0.001*%
%ADD012C,0.01*%
%ADD030C,0.01575*%
%ADD031C,0.00394*%
%ADD056C,0.012*%
%ADD070C,0.05906*%
%ADD136R,0.05906X0.17717*%
%ADD137R,0.05905X0.17716*%
%ADD138R,0.17717X0.17323*%
*
*
*
*
G04 PC Circuitry*
G04 Layer Name wifi_testchip_0427.pcb - circuitry*
%LPD*%
*
*
G04 PC Custom Flashes*
G04 Layer Name wifi_testchip_0427.pcb - flashes*
%LPD*%
*
*
G04 PC Circuitry*
G04 Layer Name wifi_testchip_0427.pcb - circuitry*
%LPD*%
*
G54D10*
G54D12*
G01X1981385Y1759876D02*
X1981588Y1761247D01*
X1981385Y1760163*
X1981182Y1761247*
X1981385Y1759876*
X1981248Y1760803D02*
X1981265D01*
X1981505D02*
X1981522D01*
X1981504Y1760678D02*
Y1760797D01*
X2038583Y1703350D02*
X2042754Y1701616D01*
X2041035Y1703350*
X2042754Y1705085*
X2038583Y1703350*
X2042304Y1701803D02*
X2042568D01*
X2039899Y1702803D02*
X2041577D01*
X2039671Y1703803D02*
X2041484D01*
X2042076Y1704803D02*
X2042475D01*
X2039504Y1702967D02*
Y1703734D01*
X2040504Y1702551D02*
Y1704149D01*
X2041504Y1702136D02*
Y1702877D01*
Y1703823D02*
Y1704565D01*
X2042504Y1701720D02*
Y1701868D01*
Y1704833D02*
Y1704981D01*
X2038583Y1713350D02*
X2042754Y1711616D01*
X2041035Y1713350*
X2042754Y1715085*
X2038583Y1713350*
X2042304Y1711803D02*
X2042568D01*
X2039899Y1712803D02*
X2041577D01*
X2039671Y1713803D02*
X2041484D01*
X2042076Y1714803D02*
X2042475D01*
X2039504Y1712967D02*
Y1713734D01*
X2040504Y1712551D02*
Y1714149D01*
X2041504Y1712136D02*
Y1712877D01*
Y1713823D02*
Y1714565D01*
X2042504Y1711720D02*
Y1711868D01*
Y1714833D02*
Y1714981D01*
X2001610Y1732350D02*
X2002982Y1732147D01*
X2001898Y1732350*
X2002982Y1732554*
X2001610Y1732350*
X2002504Y1732218D02*
Y1732237D01*
Y1732464D02*
Y1732483D01*
X1989185Y1726425D02*
X1988982Y1725054D01*
X1989185Y1726138*
X1989388Y1725054*
X1989185Y1726425*
X1989093Y1725803D02*
X1989122D01*
X1989248D02*
X1989277D01*
X1989185Y1729276D02*
X1989388Y1730647D01*
X1989185Y1729563*
X1988982Y1730647*
X1989185Y1729276*
X1989107Y1729803D02*
X1989140D01*
X1989230D02*
X1989263D01*
X2016285Y1715625D02*
X2016082Y1714254D01*
X2016285Y1715338*
X2016488Y1714254*
X2016285Y1715625*
X2016163Y1714803D02*
X2016185D01*
X2016385D02*
X2016407D01*
X2006299Y1728937D02*
X2005472Y1730050D01*
X2006095Y1729140*
X2005185Y1729763*
X2006299Y1728937*
X2005642Y1729803D02*
X2005656D01*
X2005504Y1729526D02*
Y1729545D01*
Y1730004D02*
Y1730008D01*
X1988260Y1735850D02*
X1986888Y1736054D01*
X1987972Y1735850*
X1986888Y1735647*
X1988260Y1735850*
X1987720Y1735803D02*
X1987941D01*
X1987504Y1735738D02*
Y1735763D01*
Y1735938D02*
Y1735962D01*
X1996210Y1735850D02*
X1997582Y1735647D01*
X1996498Y1735850*
X1997582Y1736054*
X1996210Y1735850*
X1996529Y1735803D02*
X1996750D01*
X1996504Y1735807D02*
Y1735849D01*
Y1735852D02*
Y1735894D01*
X1997504Y1735659D02*
Y1735662D01*
Y1736039D02*
Y1736042D01*
X1988260Y1738350D02*
X1986888Y1738554D01*
X1987972Y1738350*
X1986888Y1738147*
X1988260Y1738350*
X1987504Y1738238D02*
Y1738263D01*
Y1738438D02*
Y1738462D01*
X1999110Y1738350D02*
X2000482Y1738147D01*
X1999398Y1738350*
X2000482Y1738554*
X1999110Y1738350*
X1999504Y1738292D02*
Y1738330D01*
Y1738370D02*
Y1738409D01*
X2004760Y1732350D02*
X2003388Y1732554D01*
X2004472Y1732350*
X2003388Y1732147*
X2004760Y1732350*
X2003504Y1732164D02*
Y1732169D01*
Y1732532D02*
Y1732536D01*
X2004504Y1732312D02*
Y1732388D01*
X2013846Y1733411D02*
X2014885Y1734163D01*
X2013975Y1733540*
X2014598Y1734450*
X2013846Y1733411*
X2014129Y1733803D02*
X2014155D01*
X2014359D02*
X2014388D01*
X2014504Y1733887D02*
Y1733902D01*
Y1734313D02*
Y1734321D01*
X1988985Y1757076D02*
X1989188Y1758447D01*
X1988985Y1757363*
X1988782Y1758447*
X1988985Y1757076*
X1988877Y1757803D02*
X1988903D01*
X1989068D02*
X1989093D01*
X2039585Y1753350D02*
X2042745Y1751624D01*
X2041035Y1753350*
X2042745Y1755076*
X2039585Y1753350*
X2042418Y1751803D02*
X2042568D01*
X2040587Y1752803D02*
X2041578D01*
X2040414Y1753803D02*
X2041484D01*
X2042245Y1754803D02*
X2042475D01*
X2040504Y1752849D02*
Y1753852D01*
X2041504Y1752302D02*
Y1752878D01*
Y1753823D02*
Y1754398D01*
X2042504Y1751756D02*
Y1751868D01*
Y1754833D02*
Y1754944D01*
X2026685Y1735150D02*
X2026482Y1733854D01*
X2026685Y1734938*
X2026888Y1733854*
X2026685Y1735150*
X2026631Y1734803D02*
X2026660D01*
X2026710D02*
X2026739D01*
X2026504Y1733972D02*
Y1733995D01*
X2002260Y1738350D02*
X2000888Y1738554D01*
X2001972Y1738350*
X2000888Y1738147*
X2002260Y1738350*
X2001504Y1738238D02*
Y1738263D01*
Y1738438D02*
Y1738462D01*
X2040312Y1759175D02*
X2044488Y1760898D01*
X2042047Y1760909*
X2042035Y1763350*
X2040312Y1759175*
X2040572Y1759803D02*
X2041836D01*
X2040984Y1760803D02*
X2044259D01*
X2041397Y1761803D02*
X2042043D01*
X2041810Y1762803D02*
X2042038D01*
X2040504Y1759254D02*
Y1759639D01*
X2041504Y1759666D02*
Y1762062D01*
X2042504Y1760079D02*
Y1760907D01*
X2043504Y1760492D02*
Y1760902D01*
X1987310Y1772450D02*
X1988682Y1772247D01*
X1987598Y1772450*
X1988682Y1772654*
X1987310Y1772450*
X1987504Y1772422D02*
Y1772479D01*
X1988504Y1772274D02*
Y1772281D01*
Y1772620D02*
Y1772627D01*
X1977224Y1799748D02*
X1976075Y1803350D01*
X1976064Y1800909*
X1973622Y1800898*
X1977224Y1799748*
X1977052Y1799803D02*
X1977207D01*
X1973918Y1800803D02*
X1976888D01*
X1976068Y1801803D02*
X1976569D01*
X1976072Y1802803D02*
X1976249D01*
X1974504Y1800616D02*
Y1800902D01*
X1975504Y1800297D02*
Y1800906D01*
X1976504Y1799978D02*
Y1802006D01*
X2038583Y1803350D02*
X2042754Y1801616D01*
X2041035Y1803350*
X2042754Y1805085*
X2038583Y1803350*
X2042304Y1801803D02*
X2042568D01*
X2039899Y1802803D02*
X2041578D01*
X2039672Y1803803D02*
X2041484D01*
X2042077Y1804803D02*
X2042475D01*
X2039504Y1802967D02*
Y1803733D01*
X2040504Y1802552D02*
Y1804149D01*
X2041504Y1802136D02*
Y1802878D01*
Y1803823D02*
Y1804565D01*
X2042504Y1801720D02*
Y1801868D01*
Y1804833D02*
Y1804981D01*
X1989885Y1701350D02*
X1983685Y1707550D01*
X1981385Y1709850*
Y1761450*
X1989885Y1701350D02*
X2028985D01*
X2030985Y1703350*
X2044488*
X1990685Y1703750D02*
X2024985D01*
X2034585Y1713350*
X2044488*
X1990685Y1703750D02*
X1986185Y1708250D01*
X1984285Y1710150*
X1983585Y1710850*
Y1758050*
X1984285Y1758750*
X1989585Y1713350D02*
X1991285Y1715050D01*
Y1729450*
X1994185Y1732350*
X2003185*
X1989185Y1724850D02*
Y1730850D01*
X2016285Y1714050D02*
Y1718950D01*
X2005185Y1730050*
X1986685Y1735850D02*
X1997785D01*
X1986685Y1738350D02*
X2000685D01*
X2003185Y1732350D02*
X2012785D01*
X2014885Y1734450*
X2021685Y1746350D02*
X2017985Y1750050D01*
X1991485*
X1988985Y1752550*
Y1755250*
Y1758650*
X2021685Y1746350D02*
X2031085D01*
X2038085Y1753350*
X2044488*
X2026685Y1733650D02*
Y1736650D01*
X2024985Y1738350*
X2000685*
X2021885Y1749450D02*
X2018985Y1752350D01*
X2012585*
X2011185Y1753750*
X2021885Y1749450D02*
X2030588D01*
X2044488Y1763350*
X1988885Y1772450D02*
X1983585D01*
X1978285Y1777750*
Y1798650*
Y1798687*
X1973622Y1803350*
X2010785Y1780490D02*
X1999445D01*
X1999385Y1780550*
X2010785Y1780490D02*
X2018585Y1788290D01*
X2033645Y1803350*
X2044488*
Y1773350D02*
X2042224Y1775614D01*
X2000935*
X1996199Y1780350*
X1996185*
G54D30*
X1972785Y1699250D03*
X1993085Y1706150D03*
X1981785Y1705750D03*
X1978985Y1699350D03*
X1975785D03*
X1979585Y1707350D03*
X1980885Y1700450D03*
X1997785Y1706550D03*
X2010485Y1706650D03*
X2006585Y1706950D03*
X2002285Y1706450D03*
X2031985Y1706050D03*
X2036785Y1707450D03*
X1989585Y1713350D03*
X1986485Y1716950D03*
X1976085Y1728050D03*
X1989185Y1724850D03*
X1977585Y1709350D03*
X1978585Y1716950D03*
X1990785Y1708350D03*
X1978585Y1724950D03*
X1988785Y1710650D03*
X2003185Y1713250D03*
X2002985Y1709650D03*
X2006285Y1710750D03*
X1993385Y1717350D03*
X1994585Y1709550D03*
X1999285Y1712850D03*
X1995885Y1713250D03*
X1998985Y1709250D03*
X2028385Y1713950D03*
X2013685Y1725250D03*
X2026285Y1716050D03*
X2026785Y1719650D03*
X2030485Y1721450D03*
X2013985Y1728050D03*
X2032885Y1723650D03*
X2029285Y1717650D03*
X2031585Y1715050D03*
X2016285Y1714050D03*
X2025285Y1713550D03*
Y1708650D03*
X2025885Y1722950D03*
X2030885Y1726850D03*
X2032585Y1719350D03*
X2038785Y1727950D03*
X2038085Y1709850D03*
X2037285Y1720650D03*
X2040085Y1718950D03*
X2035285Y1717050D03*
X2034585Y1727950D03*
X2034485Y1709150D03*
X1989185Y1730850D03*
X1986685Y1735850D03*
X1978985Y1737750D03*
X1985985Y1747650D03*
X1986985Y1745450D03*
X1985985Y1729950D03*
X1978685Y1728550D03*
X1986685Y1738350D03*
X2005185Y1730050D03*
X2000685Y1738350D03*
X2003185Y1732350D03*
X1997785Y1735850D03*
X2014885Y1734450D03*
X2021385Y1735350D03*
X2018285Y1741350D03*
Y1745150D03*
X2026685Y1733650D03*
X2021285Y1742450D03*
X2015185Y1730550D03*
X2030585Y1735450D03*
X2017885Y1735250D03*
X2024385Y1734350D03*
X2031285Y1731150D03*
X2034285Y1736850D03*
X2037985Y1747050D03*
X1981385Y1761450D03*
X1977785Y1765850D03*
X1979385Y1748850D03*
X1988985Y1758650D03*
X1984285Y1758750D03*
X1977785Y1750450D03*
X2011185Y1753750D03*
X2005585Y1759050D03*
X2000385Y1761950D03*
X2002985Y1764350D03*
X2003085Y1759150D03*
X2008085Y1759050D03*
X2010585D03*
X1997785Y1759250D03*
X2010485Y1761750D03*
X2005485Y1764250D03*
X2008085D03*
X2000485Y1759250D03*
X1997685Y1767450D03*
X2007985Y1767150D03*
X2005385Y1767250D03*
X2000385Y1767450D03*
X2002885Y1767350D03*
X2010485Y1767050D03*
X1993385Y1755950D03*
X1997685Y1761950D03*
X2010585Y1764250D03*
X1997685Y1764450D03*
X2005485Y1761850D03*
X2008085D03*
X2000385Y1764450D03*
X2002985Y1761850D03*
X2021985Y1752550D03*
X2021885Y1754850D03*
X2031785Y1753750D03*
X2015585Y1767450D03*
X2037185Y1759550D03*
X2033685Y1764250D03*
X2033485Y1757250D03*
X2033585Y1760650D03*
X2037585Y1749750D03*
X2038385Y1765850D03*
X2037885Y1768050D03*
X1988885Y1772450D03*
X1981885Y1786750D03*
X1987285Y1775550D03*
X1990985Y1787950D03*
X1982085Y1780850D03*
X1982285Y1777950D03*
X1991785Y1768550D03*
X1985685Y1786050D03*
X1984685Y1779350D03*
X1984385Y1775750D03*
X1997685Y1770450D03*
X2000885Y1785750D03*
X2002985Y1782850D03*
X1999385Y1780550D03*
X2006285Y1783450D03*
X2010485Y1770350D03*
X1994185Y1777350D03*
X1998485Y1787850D03*
X2006285Y1785850D03*
X2006185Y1777650D03*
X2000385Y1770450D03*
X2002885Y1770350D03*
X2003485Y1786450D03*
X2012285Y1785250D03*
X2007985Y1770350D03*
X2005485D03*
X1996185Y1780350D03*
X2031585Y1781950D03*
X2032685Y1785550D03*
X2029385Y1771250D03*
Y1773450D03*
X2029685Y1784850D03*
X2015585Y1779350D03*
X2028985Y1782150D03*
X2027385Y1786550D03*
X2031985Y1770450D03*
X2033465Y1783465D03*
X2035485Y1786350D03*
X2034185Y1769450D03*
X2037985Y1771350D03*
X2041285Y1787250D03*
X2038385Y1779950D03*
X2040885Y1779150D03*
X2036585Y1778650D03*
X1987585Y1806350D03*
X1990385Y1804650D03*
X1981585Y1789450D03*
X1980385Y1799350D03*
X1987885Y1791650D03*
X1984785Y1790650D03*
X1985385Y1794250D03*
X1983285Y1796350D03*
X1980385Y1796850D03*
X1987085Y1788150D03*
X1988885Y1799150D03*
X1986185Y1801750D03*
X1991285Y1795150D03*
X1983885Y1806550D03*
X1983858Y1788189D03*
X2012992Y1798031D03*
X2005118Y1805512D03*
Y1801575D03*
X2012285Y1794550D03*
X2001385Y1789350D03*
X2012285Y1788650D03*
X2012485Y1791350D03*
X1996685Y1790950D03*
X2006385Y1788750D03*
X2002685Y1798550D03*
X2005118Y1798819D03*
X1993885Y1793950D03*
X1997085Y1794450D03*
X2005785Y1795150D03*
X2001185Y1794950D03*
X2031385Y1790050D03*
X2013386Y1806299D03*
Y1801575D03*
X2031285Y1804350D03*
Y1807850D03*
X2014785Y1789150D03*
X2015985Y1794350D03*
X2021485Y1795450D03*
X2027685Y1801250D03*
X2031785Y1795750D03*
X2029985Y1788550D03*
X2027785Y1804750D03*
X2018385Y1792850D03*
X2015985Y1791350D03*
X2033485Y1788250D03*
X2035685Y1790250D03*
X2041285Y1798150D03*
X2038585Y1799950D03*
X2034385Y1798350D03*
X2039585Y1806950D03*
X2034985Y1807250D03*
X2038185Y1788150D03*
X2036985Y1796350D03*
X1984485Y1815750D03*
X1982185Y1809350D03*
X1989785Y1815950D03*
X1986285Y1810050D03*
X1979785Y1816050D03*
X2005118Y1814961D03*
Y1809449D03*
X2013386Y1814961D03*
Y1810236D03*
X2031285Y1811450D03*
X2031085Y1816150D03*
X2027585Y1815150D03*
X2027685Y1811750D03*
X2027785Y1808150D03*
X2039385Y1810250D03*
X2034685D03*
X2039885Y1816250D03*
X2034285Y1816150D03*
G54D31*
X1968504Y1818898D02*
Y1696850D01*
X2049606*
Y1818898*
X1968504*
G54D56*
X2018172Y1767450D02*
G75*
G03X2018172I-2587J0D01*
G01X2042791Y1707790D02*
G03Y1708911I-214J560D01*
G01X2041581Y1709590D02*
G03X2042791Y1708911I2907J3760D01*
G01X2041581Y1709590D02*
G03X2041445Y1709669I-367J-475D01*
G01X2038234Y1711004*
G03X2038004Y1711050I-230J-554*
G01X2035786*
G03X2035362Y1710875I0J-600*
G01X2031162Y1706675*
G03X2031586Y1705650I424J-425*
G01X2038004*
G03X2038234Y1705696I-0J600*
G01X2041445Y1707031*
G03X2041581Y1707111I-231J554*
G01X2042791Y1707790D02*
G03X2041581Y1707111I1697J-4440D01*
G01X1988827Y1698050D02*
G03X1989046Y1699209I-0J600D01*
G01X1988259Y1699724D02*
G03X1989046Y1699209I1626J1626D01*
G01X1988259Y1699724D02*
X1982059Y1705924D01*
X1979759Y1708224*
X1979085Y1709850D02*
G03X1979759Y1708224I2300J0D01*
G01X1979085Y1709850D02*
Y1711114D01*
G03X1977940Y1711364I-600J-0*
G01X1970676Y1709621D02*
G03X1977940Y1711364I2946J3729D01*
G01X1970676Y1709621D02*
G03X1969704Y1709150I-372J-471D01*
G01Y1698650*
G03X1970304Y1698050I600J0*
G01X1988827*
X2048406Y1717551D02*
Y1729150D01*
G03X2047434Y1729621I-600J0*
G01X2042791Y1737790D02*
G03X2047434Y1729621I1697J-4440D01*
G01X2042791Y1737790D02*
G03Y1738911I-214J560D01*
G01Y1747790D02*
G03Y1738911I1697J-4440D01*
G01Y1747790D02*
G03Y1748911I-214J560D01*
G01X2041441Y1749703D02*
G03X2042791Y1748911I3047J3647D01*
G01X2041441Y1749703D02*
G03X2041344Y1749769I-385J-460D01*
G01X2039418Y1750821*
G03X2038706Y1750719I-288J-527*
G01X2032711Y1744724*
X2031085Y1744050D02*
G03X2032711Y1744724I0J2300D01*
G01X2031085Y1744050D02*
X2021685D01*
X2020059Y1744724D02*
G03X2021685Y1744050I1626J1626D01*
G01X2020059Y1744724D02*
X2017208Y1747575D01*
G03X2016784Y1747750I-424J-425*
G01X1991485*
X1989859Y1748424D02*
G03X1991485Y1747750I1626J1626D01*
G01X1989859Y1748424D02*
X1987359Y1750924D01*
X1987002Y1751385D02*
G03X1987359Y1750924I1983J1165D01*
G01X1987002Y1751385D02*
G03X1985885Y1751081I-517J-304D01*
G01Y1741532*
G03X1986523Y1740933I600J-0*
G01X1987538Y1740793D02*
G03X1986523Y1740933I-853J-2443D01*
G01X1987538Y1740793D02*
G03X1987647Y1740766I197J567D01*
G01X1988386Y1740657*
G03X1988474Y1740650I88J593*
G01X1998897*
G03X1998984Y1740657I-0J600*
G01X1999723Y1740766*
G03X1999832Y1740793I-88J594*
G01X2001538D02*
G03X1999832I-853J-2443D01*
G01X2001538D02*
G03X2001647Y1740766I197J567D01*
G01X2002386Y1740657*
G03X2002474Y1740650I88J593*
G01X2024985*
X2026611Y1739977D02*
G03X2024985Y1740650I-1626J-1627D01*
G01X2026611Y1739977D02*
X2028311Y1738277D01*
X2028985Y1736650D02*
G03X2028311Y1738277I-2300J0D01*
G01X2028985Y1736650D02*
Y1735376D01*
G03X2028992Y1735283I600J0*
G01X2029095Y1734626*
G03X2029123Y1734518I593J93*
G01X2024247D02*
G03X2029123I2438J-868D01*
G01X2024247D02*
G03X2024275Y1734626I-565J201D01*
G01X2024378Y1735283*
G03X2024385Y1735376I-593J93*
G01Y1735449*
G03X2024209Y1735873I-600J0*
G01X2024208Y1735875*
G03X2023784Y1736050I-424J-425*
G01X2017912*
G03X2017342Y1735262I-0J-600*
G01X2015990Y1732111D02*
G03X2017342Y1735262I-1105J2339D01*
G01X2015990Y1732111D02*
G03X2015894Y1732054I256J-543D01*
G01X2015381Y1731683*
G03X2015309Y1731621I352J-486*
G01X2014411Y1730724*
X2012785Y1730050D02*
G03X2014411Y1730724I0J2300D01*
G01X2012785Y1730050D02*
X2009886D01*
G03X2009462Y1729026I0J-600*
G01X2017911Y1720577*
X2018585Y1718950D02*
G03X2017911Y1720577I-2300J0D01*
G01X2018585Y1718950D02*
Y1715839D01*
G03X2018592Y1715751I600J-0*
G01X2018701Y1715013*
G03X2018728Y1714903I593J88*
G01X2013842D02*
G03X2018728I2443J-853D01*
G01X2013842D02*
G03X2013869Y1715013I-566J198D01*
G01X2013979Y1715751*
G03X2013985Y1715839I-594J88*
G01Y1717749*
G03X2013809Y1718173I-600J0*
G01X2004823Y1727159*
G03X2004757Y1727217I-424J-424*
G01X2004157Y1727662*
G03X2004061Y1727720I-357J-482*
G01X2002661Y1729482D02*
G03X2004061Y1727720I2524J568D01*
G01X2002661Y1729482D02*
G03X2002164Y1729943I-585J-132D01*
G01X2001485Y1730044*
X2001485D02*
G03X2001397Y1730050I-88J-594D01*
G01X1995386*
G03X1994962Y1729875I0J-600*
G01X1993761Y1728673*
G03X1993585Y1728249I424J-424*
G01Y1720436*
G03X1994034Y1719855I600J-0*
G01X1993940Y1714823D02*
G03X1994034Y1719855I-555J2527D01*
G01X1993940Y1714823D02*
G03X1993493Y1714405I129J-586D01*
G01X1992911Y1713424D02*
G03X1993493Y1714405I-1626J1626D01*
G01X1992911Y1713424D02*
X1992147Y1712659D01*
G03X1992009Y1712445I424J-424*
G01X1988199Y1711165D02*
G03X1992009Y1712445I1386J2185D01*
G01X1988199Y1711165D02*
G03X1987454Y1710234I-321J-507D01*
G01X1987811Y1709877*
X1991462Y1706226*
G03X1991886Y1706050I424J424*
G01X2023784*
G03X2024208Y1706226I-0J600*
G01X2032959Y1714977*
X2034585Y1715650D02*
G03X2032959Y1714977I0J-2300D01*
G01X2034585Y1715650D02*
X2038004D01*
G03X2038234Y1715696I-0J600*
G01X2041445Y1717031*
G03X2041581Y1717111I-231J554*
G01X2047434Y1717080D02*
G03X2041581Y1717111I-2946J-3730D01*
G01X2047434Y1717080D02*
G03X2048406Y1717551I372J471D01*
G01X2042791Y1797790D02*
G03Y1798911I-214J560D01*
G01X2041582Y1799590D02*
G03X2042791Y1798911I2906J3760D01*
G01X2041582Y1799590D02*
G03X2041445Y1799669I-367J-475D01*
G01X2038234Y1801004*
G03X2038004Y1801050I-230J-554*
G01X2034846*
G03X2034422Y1800875I0J-600*
G01X2020211Y1786664*
X2016299Y1782752*
G03X2016509Y1781767I424J-424*
G01X2018082Y1778672D02*
G03X2016509Y1781767I-2497J678D01*
G01X2018082Y1778672D02*
G03X2018661Y1777914I579J-158D01*
G01X2042194*
G03X2042451Y1779056I-0J600*
G01X2042791Y1787790D02*
G03X2042451Y1779056I1697J-4440D01*
G01X2042791Y1787790D02*
G03Y1788911I-214J560D01*
G01Y1797790D02*
G03Y1788911I1697J-4440D01*
G01X2048406Y1807551D02*
Y1817098D01*
G03X2047806Y1817698I-600J-0*
G01X1977444*
G03X1977016Y1816678I0J-600*
G01X1975319Y1808911D02*
G03X1977016Y1816678I-1697J4439D01*
G01X1975319Y1808911D02*
G03Y1807790I214J-561D01*
G01X1978351Y1803826D02*
G03X1975319Y1807790I-4729J-476D01*
G01X1978351Y1803826D02*
G03X1978376Y1803704I597J60D01*
G01X1979201Y1801118*
G03X1979349Y1800876I572J183*
G01X1979911Y1800314*
X1980585Y1798687D02*
G03X1979911Y1800314I-2300J0D01*
G01X1980585Y1798687D02*
Y1798650D01*
Y1778952*
G03X1980761Y1778527I600J-0*
G01X1984362Y1774926*
G03X1984786Y1774750I424J424*
G01X1987097*
G03X1987184Y1774757I-0J600*
G01X1987923Y1774866*
G03X1988032Y1774893I-88J594*
G01X1991406Y1771867D02*
G03X1988032Y1774893I-2521J583D01*
G01X1991406Y1771867D02*
G03X1991952Y1771132I584J-136D01*
G01X1989264Y1769134D02*
G03X1991952Y1771132I2521J-584D01*
G01X1989264Y1769134D02*
G03X1988718Y1769868I-584J136D01*
G01X1988032Y1770008D02*
G03X1988718Y1769868I853J2442D01*
G01X1988032Y1770007D02*
G03X1987923Y1770035I-197J-566D01*
G01X1987185Y1770144*
X1987185D02*
G03X1987097Y1770150I-88J-594D01*
G01X1983585*
X1981959Y1770824D02*
G03X1983585Y1770150I1626J1626D01*
G01X1981959Y1770824D02*
X1979386Y1773397D01*
G03X1978363Y1773015I-425J-424*
G01X1975319Y1768911D02*
G03X1978363Y1773015I-1697J4439D01*
G01X1975319Y1768911D02*
G03Y1767790I214J-561D01*
G01X1978372Y1763512D02*
G03X1975319Y1767790I-4750J-162D01*
G01X1978372Y1763512D02*
G03X1979426Y1763141I600J21D01*
G01X1983943Y1761838D02*
G03X1979426Y1763141I-2558J-388D01*
G01X1983943Y1761838D02*
G03X1984489Y1761330I593J90D01*
G01X1986230Y1760457D02*
G03X1984489Y1761330I-1945J-1707D01*
G01X1986230Y1760457D02*
G03X1987115Y1760438I451J396D01*
G01X1991565Y1758848D02*
G03X1987115Y1760438I-2580J-198D01*
G01X1991565Y1758848D02*
G03X1992393Y1758340I598J46D01*
G01X1994259Y1753515D02*
G03X1992393Y1758340I-874J2435D01*
G01X1994259Y1753515D02*
G03X1994462Y1752350I203J-565D01*
G01X2008100*
G03X2008680Y1753101I-0J600*
G01X2013468Y1754968D02*
G03X2008680Y1753101I-2283J-1218D01*
G01X2013468Y1754968D02*
G03X2013997Y1754650I529J282D01*
G01X2018985*
X2020611Y1753977D02*
G03X2018985Y1754650I-1626J-1627D01*
G01X2020611Y1753977D02*
X2022662Y1751926D01*
G03X2023086Y1751750I424J424*
G01X2029387*
G03X2029811Y1751926I-0J600*
G01X2038277Y1760392*
G03X2038407Y1760587I-425J424*
G01X2039733Y1763801*
G03X2039774Y1763954I-554J229*
G01X2042791Y1767790D02*
G03X2039774Y1763954I1697J-4440D01*
G01X2042791Y1767790D02*
G03Y1768911I-214J560D01*
G01X2039769Y1772786D02*
G03X2042791Y1768911I4719J564D01*
G01X2039769Y1772786D02*
G03X2039173Y1773314I-596J-72D01*
G01X2000935*
X1999309Y1773988D02*
G03X2000935Y1773314I1626J1626D01*
G01X1999309Y1773988D02*
X1997273Y1776024D01*
G03X1996347Y1775929I-424J-424*
G01X1993221Y1779752D02*
G03X1996347Y1775929I964J-2402D01*
G01X1993221Y1779752D02*
G03X1993598Y1780316I-223J556D01*
G01X1997344Y1782664D02*
G03X1993598Y1780316I-1159J-2314D01*
G01X1997344Y1782664D02*
G03X1997947Y1782701I269J536D01*
G01X2000560Y1782856D02*
G03X1997947Y1782701I-1175J-2306D01*
G01X2000560Y1782856D02*
G03X2000832Y1782790I272J534D01*
G01X2009584*
G03X2010008Y1782966I-0J600*
G01X2016959Y1789917*
X2032019Y1804977*
X2033645Y1805650D02*
G03X2032019Y1804977I0J-2300D01*
G01X2033645Y1805650D02*
X2038004D01*
G03X2038234Y1805696I-0J600*
G01X2041445Y1807031*
G03X2041582Y1807111I-230J554*
G01X2047434Y1807080D02*
G03X2041582Y1807111I-2946J-3730D01*
G01X2047434Y1807080D02*
G03X2048406Y1807551I372J471D01*
G01X1979085Y1715587D02*
Y1721114D01*
G03X1977940Y1721364I-600J-0*
G01X1975319Y1718911D02*
G03X1977940Y1721364I-1697J4439D01*
G01X1975319Y1718911D02*
G03Y1717790I214J-561D01*
G01X1977940Y1715337D02*
G03X1975319Y1717790I-4318J-1987D01*
G01X1977940Y1715337D02*
G03X1979085Y1715587I545J250D01*
G01Y1725587D02*
Y1731114D01*
G03X1977940Y1731364I-600J-0*
G01X1975319Y1728911D02*
G03X1977940Y1731364I-1697J4439D01*
G01X1975319Y1728911D02*
G03Y1727790I214J-561D01*
G01X1977940Y1725337D02*
G03X1975319Y1727790I-4318J-1987D01*
G01X1977940Y1725337D02*
G03X1979085Y1725587I545J250D01*
G01Y1735587D02*
Y1741114D01*
G03X1977940Y1741364I-600J-0*
G01X1975319Y1738911D02*
G03X1977940Y1741364I-1697J4439D01*
G01X1975319Y1738911D02*
G03Y1737790I214J-561D01*
G01X1977940Y1735337D02*
G03X1975319Y1737790I-4318J-1987D01*
G01X1977940Y1735337D02*
G03X1979085Y1735587I545J250D01*
G01Y1745587D02*
Y1751114D01*
G03X1977940Y1751364I-600J-0*
G01X1975319Y1748911D02*
G03X1977940Y1751364I-1697J4439D01*
G01X1975319Y1748911D02*
G03Y1747790I214J-561D01*
G01X1977940Y1745337D02*
G03X1975319Y1747790I-4318J-1987D01*
G01X1977940Y1745337D02*
G03X1979085Y1745587I545J250D01*
G01X1986469Y1711219D02*
G03X1987400Y1711965I424J425D01*
G01X1987069Y1712748D02*
G03X1987400Y1711965I2516J602D01*
G01X1987069Y1712748D02*
G03X1985885Y1712609I-584J-139D01*
G01Y1712052*
G03X1986061Y1711627I600J-0*
G01X1986469Y1711219*
X1988985Y1716303D02*
Y1721765D01*
G03X1988536Y1722346I-600J0*
G01X1986993Y1723475D02*
G03X1988536Y1722346I2192J1375D01*
G01X1986993Y1723475D02*
G03X1985885Y1723156I-508J-319D01*
G01Y1714092*
G03X1987069Y1713952I600J-0*
G01X1988611Y1715747D02*
G03X1987069Y1713952I974J-2397D01*
G01X1988611Y1715747D02*
G03X1988985Y1716303I-226J556D01*
G01X2018172Y1767450D02*
G03X2018172I-2587J0D01*
G01X2033376Y1708889D02*
X2042841D01*
X2032296Y1707809D02*
X2042836D01*
X2034456Y1709969D02*
X2040724D01*
X2031216Y1706729D02*
X2040718D01*
X2035747Y1711049D02*
X2038043D01*
X1969704Y1699129D02*
X1989188D01*
X1969704Y1700209D02*
X1987774D01*
X1969704Y1701289D02*
X1986694D01*
X1969704Y1702369D02*
X1985614D01*
X1969704Y1703449D02*
X1984534D01*
X1969704Y1704529D02*
X1983454D01*
X1969704Y1705609D02*
X1982374D01*
X1969704Y1706689D02*
X1981294D01*
X1969704Y1707769D02*
X1980214D01*
X1975148Y1708849D02*
X1979314D01*
X1977758Y1711009D02*
X1979085D01*
X1976921Y1709929D02*
X1979085D01*
X1969704Y1708849D02*
X1972097D01*
X2045598Y1728729D02*
X2048406D01*
X2010839Y1727649D02*
X2048406D01*
X2011919Y1726569D02*
X2048406D01*
X2012999Y1725489D02*
X2048406D01*
X2014079Y1724409D02*
X2048406D01*
X2015159Y1723329D02*
X2048406D01*
X2016239Y1722249D02*
X2048406D01*
X2017319Y1721169D02*
X2048406D01*
X2018283Y1720089D02*
X2048406D01*
X2018584Y1719009D02*
X2048406D01*
X2045763Y1717929D02*
X2048406D01*
X2009759Y1728729D02*
X2043378D01*
X2018585Y1717929D02*
X2043214D01*
X2028139Y1738449D02*
X2043169D01*
X2036156Y1748169D02*
X2043149D01*
X2037236Y1749249D02*
X2042086D01*
X2028870Y1737369D02*
X2041951D01*
X2027059Y1739529D02*
X2041662D01*
X2035076Y1747089D02*
X2041554D01*
X2009405Y1729809D02*
X2041318D01*
X2018585Y1716849D02*
X2041006D01*
X2028985Y1736289D02*
X2040753D01*
X2025419Y1740609D02*
X2040606D01*
X2033996Y1746009D02*
X2040549D01*
X2014576Y1730889D02*
X2040422D01*
X2038316Y1750329D02*
X2040319D01*
X2029004Y1735209D02*
X2040114D01*
X1985885Y1741689D02*
X2040035D01*
X2032916Y1744929D02*
X2040005D01*
X2028652Y1731969D02*
X2039941D01*
X2029228Y1734129D02*
X2039800D01*
X1985885Y1742769D02*
X2039771D01*
X1985885Y1743849D02*
X2039762D01*
X2029202Y1733049D02*
X2039745D01*
X2018589Y1715769D02*
X2038409D01*
X2018792Y1714689D02*
X2032671D01*
X2018835Y1713609D02*
X2031591D01*
X2018378Y1712529D02*
X2030511D01*
X1991340Y1711449D02*
X2029431D01*
X1987353Y1710369D02*
X2028351D01*
X1988399Y1709289D02*
X2027271D01*
X1989479Y1708209D02*
X2026191D01*
X1990559Y1707129D02*
X2025111D01*
X2015777Y1731969D02*
X2024718D01*
X2017359Y1735209D02*
X2024366D01*
X2017060Y1733049D02*
X2024168D01*
X2017452Y1734129D02*
X2024142D01*
X1985885Y1744929D02*
X2019854D01*
X1985885Y1746009D02*
X2018774D01*
X1985885Y1747089D02*
X2017694D01*
X1992048Y1712529D02*
X2014192D01*
X1995923Y1716849D02*
X2013985D01*
X1995433Y1715769D02*
X2013981D01*
X1995907Y1717929D02*
X2013957D01*
X1993674Y1714689D02*
X2013778D01*
X1993077Y1713609D02*
X2013736D01*
X1995371Y1719009D02*
X2012974D01*
X1993695Y1720089D02*
X2011894D01*
X1993585Y1721169D02*
X2010814D01*
X1993585Y1722249D02*
X2009734D01*
X1993585Y1723329D02*
X2008654D01*
X1993585Y1724409D02*
X2007574D01*
X1993585Y1725489D02*
X2006494D01*
X1993585Y1726569D02*
X2005414D01*
X1993585Y1727649D02*
X2004174D01*
X1993816Y1728729D02*
X2002960D01*
X1994896Y1729809D02*
X2002462D01*
X1985885Y1748169D02*
X1990162D01*
X1985885Y1749249D02*
X1989034D01*
X1985885Y1750329D02*
X1987954D01*
X1985983Y1751409D02*
X1986987D01*
X2031980Y1798433D02*
X2043171D01*
X2022260Y1788713D02*
X2043055D01*
X2018148Y1778993D02*
X2042555D01*
X2021180Y1787633D02*
X2042427D01*
X2030900Y1797353D02*
X2041926D01*
X2033060Y1799513D02*
X2041684D01*
X2023340Y1789793D02*
X2041336D01*
X2018069Y1780073D02*
X2041046D01*
X2020100Y1786553D02*
X2040977D01*
X2029820Y1796273D02*
X2040740D01*
X2024420Y1790873D02*
X2040432D01*
X2017441Y1781153D02*
X2040274D01*
X2019020Y1785473D02*
X2040236D01*
X2028740Y1795193D02*
X2040107D01*
X2025500Y1791953D02*
X2039945D01*
X2016131Y1782233D02*
X2039869D01*
X2017940Y1784393D02*
X2039851D01*
X2027660Y1794113D02*
X2039797D01*
X2026580Y1793033D02*
X2039746D01*
X2016860Y1783313D02*
X2039736D01*
X2034140Y1800593D02*
X2039223D01*
X1977137Y1816549D02*
X2048406D01*
X1977876Y1815469D02*
X2048406D01*
X1978260Y1814389D02*
X2048406D01*
X1978375Y1813309D02*
X2048406D01*
X1978241Y1812229D02*
X2048406D01*
X1977834Y1811149D02*
X2048406D01*
X1977060Y1810069D02*
X2048406D01*
X1975511Y1808989D02*
X2048406D01*
X2045832Y1807909D02*
X2048406D01*
X1977166Y1817629D02*
X2048085D01*
X1975127Y1807909D02*
X2043144D01*
X2018124Y1767949D02*
X2043023D01*
X2017635Y1769029D02*
X2042509D01*
X2018106Y1766869D02*
X2041293D01*
X1993850Y1770109D02*
X2041012D01*
X1976860Y1806829D02*
X2040958D01*
X2017569Y1765789D02*
X2040409D01*
X1991733Y1771189D02*
X2040255D01*
X1978176Y1764709D02*
X2039934D01*
X1991466Y1772269D02*
X2039860D01*
X1982781Y1763629D02*
X2039662D01*
X1983728Y1762549D02*
X2039217D01*
X1984150Y1761469D02*
X2038771D01*
X1977725Y1805749D02*
X2038361D01*
X1990901Y1760389D02*
X2038274D01*
X1991487Y1759309D02*
X2037194D01*
X1994611Y1758229D02*
X2036114D01*
X1995678Y1757149D02*
X2035034D01*
X2012333Y1756069D02*
X2033954D01*
X2013457Y1754989D02*
X2032874D01*
X2020679Y1753909D02*
X2031794D01*
X1978188Y1804669D02*
X2031711D01*
X2021759Y1752829D02*
X2030714D01*
X1978413Y1803589D02*
X2030631D01*
X1978758Y1802509D02*
X2029551D01*
X1979102Y1801429D02*
X2028471D01*
X1979876Y1800349D02*
X2027391D01*
X1980510Y1799269D02*
X2026311D01*
X1980585Y1798189D02*
X2025231D01*
X1980585Y1797109D02*
X2024151D01*
X1980585Y1796029D02*
X2023071D01*
X1980585Y1794949D02*
X2021991D01*
X1980585Y1793869D02*
X2020911D01*
X1980585Y1792789D02*
X2019831D01*
X1980585Y1791709D02*
X2018751D01*
X1980585Y1790629D02*
X2017671D01*
X1980585Y1789549D02*
X2016591D01*
X1980585Y1788469D02*
X2015511D01*
X1980585Y1787389D02*
X2014431D01*
X1977701Y1765789D02*
X2013601D01*
X1994328Y1769029D02*
X2013535D01*
X1980585Y1786309D02*
X2013351D01*
X1993752Y1766869D02*
X2013064D01*
X1994302Y1767949D02*
X2013046D01*
X1980585Y1785229D02*
X2012271D01*
X1980585Y1784149D02*
X2011191D01*
X1999977Y1783069D02*
X2010111D01*
X1995970Y1756069D02*
X2010037D01*
X1995787Y1754989D02*
X2008913D01*
X1993874Y1752829D02*
X2008687D01*
X1994975Y1753909D02*
X2008602D01*
X1991311Y1773349D02*
X2000537D01*
X1990552Y1774429D02*
X1998868D01*
X1980585Y1783069D02*
X1998793D01*
X1996003Y1775509D02*
X1997788D01*
X1980585Y1781989D02*
X1994183D01*
X1980585Y1780909D02*
X1993659D01*
X1980585Y1779829D02*
X1993359D01*
X1983779Y1775509D02*
X1992367D01*
X1980620Y1778749D02*
X1992008D01*
X1982699Y1776589D02*
X1991712D01*
X1981619Y1777669D02*
X1991617D01*
X1976817Y1766869D02*
X1989818D01*
X1975087Y1767949D02*
X1989268D01*
X1975601Y1769029D02*
X1989242D01*
X1977098Y1770109D02*
X1987419D01*
X1986300Y1760389D02*
X1987062D01*
X1977855Y1771189D02*
X1981594D01*
X1978250Y1772269D02*
X1980514D01*
X1978367Y1763629D02*
X1979989D01*
X1978494Y1773349D02*
X1979434D01*
X1977337Y1720386D02*
X1979085D01*
X1976118Y1719306D02*
X1979085D01*
X1974946Y1718226D02*
X1979085D01*
X1976483Y1717146D02*
X1979085D01*
X1977523Y1716066D02*
X1979085D01*
X1977999Y1721466D02*
X1978971D01*
X1977337Y1730386D02*
X1979085D01*
X1976118Y1729306D02*
X1979085D01*
X1974946Y1728226D02*
X1979085D01*
X1976483Y1727146D02*
X1979085D01*
X1977523Y1726066D02*
X1979085D01*
X1977999Y1731466D02*
X1978971D01*
X1977337Y1740386D02*
X1979085D01*
X1976118Y1739306D02*
X1979085D01*
X1974946Y1738226D02*
X1979085D01*
X1976483Y1737146D02*
X1979085D01*
X1977523Y1736066D02*
X1979085D01*
X1977999Y1741466D02*
X1978971D01*
X1977337Y1750386D02*
X1979085D01*
X1976118Y1749306D02*
X1979085D01*
X1974946Y1748226D02*
X1979085D01*
X1976483Y1747146D02*
X1979085D01*
X1977523Y1746066D02*
X1979085D01*
X1977999Y1751466D02*
X1978971D01*
X1985885Y1712122D02*
X1987308D01*
X1986396Y1713202D02*
X1986574D01*
X1985885Y1721051D02*
X1988985D01*
X1985885Y1719971D02*
X1988985D01*
X1985885Y1718891D02*
X1988985D01*
X1985885Y1717811D02*
X1988985D01*
X1985885Y1716731D02*
X1988985D01*
X1985885Y1722131D02*
X1988861D01*
X1985885Y1715651D02*
X1988400D01*
X1985885Y1714571D02*
X1987303D01*
X1985888Y1723211D02*
X1987184D01*
G54D70*
X1973622Y1813350D03*
X2044488Y1773350D03*
Y1803350D03*
X1973622D03*
Y1793350D03*
Y1783350D03*
Y1773350D03*
X2044488Y1703350D03*
Y1713350D03*
X1973622Y1763350D03*
Y1753350D03*
Y1743350D03*
Y1733350D03*
Y1723350D03*
Y1713350D03*
X2044488Y1733350D03*
Y1743350D03*
Y1783350D03*
Y1793350D03*
Y1723350D03*
X1973622Y1703350D03*
X2044488Y1813350D03*
Y1753350D03*
Y1763350D03*
G54D136*
X1997414Y1806891D03*
G54D137*
X2021036D03*
G54D138*
X2004279Y1765439D03*
G74*
X0Y0D02*
M02*
