*
*
G04 PADS 9.5 Build Number: 522968 generated Gerber (RS-274-X) file*
G04 PC Version=2.1*
*
%IN "wifi_testchip_0427.pcb"*%
*
%MOIN*%
*
%FSLAX35Y35*%
*
*
*
*
G04 PC Standard Apertures*
*
*
G04 Thermal Relief Aperture macro.*
%AMTER*
1,1,$1,0,0*
1,0,$1-$2,0,0*
21,0,$3,$4,0,0,45*
21,0,$3,$4,0,0,135*
%
*
*
G04 Annular Aperture macro.*
%AMANN*
1,1,$1,0,0*
1,0,$2,0,0*
%
*
*
G04 Odd Aperture macro.*
%AMODD*
1,1,$1,0,0*
1,0,$1-0.005,0,0*
%
*
*
G04 PC Custom Aperture Macros*
*
*
*
*
*
*
G04 PC Aperture Table*
*
%ADD010C,0.001*%
%ADD012C,0.01*%
%ADD031C,0.00394*%
*
*
*
*
G04 PC Circuitry*
G04 Layer Name wifi_testchip_0427.pcb - circuitry*
%LPD*%
*
*
G04 PC Custom Flashes*
G04 Layer Name wifi_testchip_0427.pcb - flashes*
%LPD*%
*
*
G04 PC Circuitry*
G04 Layer Name wifi_testchip_0427.pcb - circuitry*
%LPD*%
*
G54D10*
G54D12*
G01X1969622Y1813350D02*
X1977622D01*
X1973622Y1809350D02*
Y1817350D01*
X2040488Y1773350D02*
X2048488D01*
X2044488Y1769350D02*
Y1777350D01*
X2040488Y1803350D02*
X2048488D01*
X2044488Y1799350D02*
Y1807350D01*
X1969622Y1803350D02*
X1977622D01*
X1973622Y1799350D02*
Y1807350D01*
X1969622Y1793350D02*
X1977622D01*
X1973622Y1789350D02*
Y1797350D01*
X1969622Y1783350D02*
X1977622D01*
X1973622Y1779350D02*
Y1787350D01*
X1969622Y1773350D02*
X1977622D01*
X1973622Y1769350D02*
Y1777350D01*
X2040488Y1703350D02*
X2048488D01*
X2044488Y1699350D02*
Y1707350D01*
X2040488Y1713350D02*
X2048488D01*
X2044488Y1709350D02*
Y1717350D01*
X1969622Y1763350D02*
X1977622D01*
X1973622Y1759350D02*
Y1767350D01*
X1969622Y1753350D02*
X1977622D01*
X1973622Y1749350D02*
Y1757350D01*
X1969622Y1743350D02*
X1977622D01*
X1973622Y1739350D02*
Y1747350D01*
X1969622Y1733350D02*
X1977622D01*
X1973622Y1729350D02*
Y1737350D01*
X1969622Y1723350D02*
X1977622D01*
X1973622Y1719350D02*
Y1727350D01*
X1969622Y1713350D02*
X1977622D01*
X1973622Y1709350D02*
Y1717350D01*
X2040488Y1733350D02*
X2048488D01*
X2044488Y1729350D02*
Y1737350D01*
X2040488Y1743350D02*
X2048488D01*
X2044488Y1739350D02*
Y1747350D01*
X2040488Y1783350D02*
X2048488D01*
X2044488Y1779350D02*
Y1787350D01*
X2040488Y1793350D02*
X2048488D01*
X2044488Y1789350D02*
Y1797350D01*
X2040488Y1723350D02*
X2048488D01*
X2044488Y1719350D02*
Y1727350D01*
X1969622Y1703350D02*
X1977622D01*
X1973622Y1699350D02*
Y1707350D01*
X2040488Y1813350D02*
X2048488D01*
X2044488Y1809350D02*
Y1817350D01*
X2040488Y1753350D02*
X2048488D01*
X2044488Y1749350D02*
Y1757350D01*
X2040488Y1763350D02*
X2048488D01*
X2044488Y1759350D02*
Y1767350D01*
X1968785Y1695250D02*
X1976785Y1703250D01*
X1968785D02*
X1976785Y1695250D01*
X1989085Y1702150D02*
X1997085Y1710150D01*
X1989085D02*
X1997085Y1702150D01*
X1977785Y1701750D02*
X1985785Y1709750D01*
X1977785D02*
X1985785Y1701750D01*
X1974985Y1695350D02*
X1982985Y1703350D01*
X1974985D02*
X1982985Y1695350D01*
X1971785D02*
X1979785Y1703350D01*
X1971785D02*
X1979785Y1695350D01*
X1975585Y1703350D02*
X1983585Y1711350D01*
X1975585D02*
X1983585Y1703350D01*
X1976885Y1696450D02*
X1984885Y1704450D01*
X1976885D02*
X1984885Y1696450D01*
X1993785Y1702550D02*
X2001785Y1710550D01*
X1993785D02*
X2001785Y1702550D01*
X2006485Y1702650D02*
X2014485Y1710650D01*
X2006485D02*
X2014485Y1702650D01*
X2002585Y1702950D02*
X2010585Y1710950D01*
X2002585D02*
X2010585Y1702950D01*
X1998285Y1702450D02*
X2006285Y1710450D01*
X1998285D02*
X2006285Y1702450D01*
X2027985Y1702050D02*
X2035985Y1710050D01*
X2027985D02*
X2035985Y1702050D01*
X2032785Y1703450D02*
X2040785Y1711450D01*
X2032785D02*
X2040785Y1703450D01*
X1985585Y1709350D02*
X1993585Y1717350D01*
X1985585D02*
X1993585Y1709350D01*
X1982485Y1712950D02*
X1990485Y1720950D01*
X1982485D02*
X1990485Y1712950D01*
X1972085Y1724050D02*
X1980085Y1732050D01*
X1972085D02*
X1980085Y1724050D01*
X1985185Y1720850D02*
X1993185Y1728850D01*
X1985185D02*
X1993185Y1720850D01*
X1973585Y1705350D02*
X1981585Y1713350D01*
X1973585D02*
X1981585Y1705350D01*
X1974585Y1712950D02*
X1982585Y1720950D01*
X1974585D02*
X1982585Y1712950D01*
X1986785Y1704350D02*
X1994785Y1712350D01*
X1986785D02*
X1994785Y1704350D01*
X1974585Y1720950D02*
X1982585Y1728950D01*
X1974585D02*
X1982585Y1720950D01*
X1984785Y1706650D02*
X1992785Y1714650D01*
X1984785D02*
X1992785Y1706650D01*
X1999185Y1709250D02*
X2007185Y1717250D01*
X1999185D02*
X2007185Y1709250D01*
X1998985Y1705650D02*
X2006985Y1713650D01*
X1998985D02*
X2006985Y1705650D01*
X2002285Y1706750D02*
X2010285Y1714750D01*
X2002285D02*
X2010285Y1706750D01*
X1989385Y1713350D02*
X1997385Y1721350D01*
X1989385D02*
X1997385Y1713350D01*
X1990585Y1705550D02*
X1998585Y1713550D01*
X1990585D02*
X1998585Y1705550D01*
X1995285Y1708850D02*
X2003285Y1716850D01*
X1995285D02*
X2003285Y1708850D01*
X1991885Y1709250D02*
X1999885Y1717250D01*
X1991885D02*
X1999885Y1709250D01*
X1994985Y1705250D02*
X2002985Y1713250D01*
X1994985D02*
X2002985Y1705250D01*
X2024385Y1709950D02*
X2032385Y1717950D01*
X2024385D02*
X2032385Y1709950D01*
X2009685Y1721250D02*
X2017685Y1729250D01*
X2009685D02*
X2017685Y1721250D01*
X2022285Y1712050D02*
X2030285Y1720050D01*
X2022285D02*
X2030285Y1712050D01*
X2022785Y1715650D02*
X2030785Y1723650D01*
X2022785D02*
X2030785Y1715650D01*
X2026485Y1717450D02*
X2034485Y1725450D01*
X2026485D02*
X2034485Y1717450D01*
X2009985Y1724050D02*
X2017985Y1732050D01*
X2009985D02*
X2017985Y1724050D01*
X2028885Y1719650D02*
X2036885Y1727650D01*
X2028885D02*
X2036885Y1719650D01*
X2025285Y1713650D02*
X2033285Y1721650D01*
X2025285D02*
X2033285Y1713650D01*
X2027585Y1711050D02*
X2035585Y1719050D01*
X2027585D02*
X2035585Y1711050D01*
X2012285Y1710050D02*
X2020285Y1718050D01*
X2012285D02*
X2020285Y1710050D01*
X2021285Y1709550D02*
X2029285Y1717550D01*
X2021285D02*
X2029285Y1709550D01*
X2021285Y1704650D02*
X2029285Y1712650D01*
X2021285D02*
X2029285Y1704650D01*
X2021885Y1718950D02*
X2029885Y1726950D01*
X2021885D02*
X2029885Y1718950D01*
X2026885Y1722850D02*
X2034885Y1730850D01*
X2026885D02*
X2034885Y1722850D01*
X2028585Y1715350D02*
X2036585Y1723350D01*
X2028585D02*
X2036585Y1715350D01*
X2034785Y1723950D02*
X2042785Y1731950D01*
X2034785D02*
X2042785Y1723950D01*
X2034085Y1705850D02*
X2042085Y1713850D01*
X2034085D02*
X2042085Y1705850D01*
X2033285Y1716650D02*
X2041285Y1724650D01*
X2033285D02*
X2041285Y1716650D01*
X2036085Y1714950D02*
X2044085Y1722950D01*
X2036085D02*
X2044085Y1714950D01*
X2031285Y1713050D02*
X2039285Y1721050D01*
X2031285D02*
X2039285Y1713050D01*
X2030585Y1723950D02*
X2038585Y1731950D01*
X2030585D02*
X2038585Y1723950D01*
X2030485Y1705150D02*
X2038485Y1713150D01*
X2030485D02*
X2038485Y1705150D01*
X1985185Y1726850D02*
X1993185Y1734850D01*
X1985185D02*
X1993185Y1726850D01*
X1982685Y1731850D02*
X1990685Y1739850D01*
X1982685D02*
X1990685Y1731850D01*
X1974985Y1733750D02*
X1982985Y1741750D01*
X1974985D02*
X1982985Y1733750D01*
X1981985Y1743650D02*
X1989985Y1751650D01*
X1981985D02*
X1989985Y1743650D01*
X1982985Y1741450D02*
X1990985Y1749450D01*
X1982985D02*
X1990985Y1741450D01*
X1981985Y1725950D02*
X1989985Y1733950D01*
X1981985D02*
X1989985Y1725950D01*
X1974685Y1724550D02*
X1982685Y1732550D01*
X1974685D02*
X1982685Y1724550D01*
Y1734350D02*
X1990685Y1742350D01*
X1982685D02*
X1990685Y1734350D01*
X2001185Y1726050D02*
X2009185Y1734050D01*
X2001185D02*
X2009185Y1726050D01*
X1996685Y1734350D02*
X2004685Y1742350D01*
X1996685D02*
X2004685Y1734350D01*
X1999185Y1728350D02*
X2007185Y1736350D01*
X1999185D02*
X2007185Y1728350D01*
X1993785Y1731850D02*
X2001785Y1739850D01*
X1993785D02*
X2001785Y1731850D01*
X2010885Y1730450D02*
X2018885Y1738450D01*
X2010885D02*
X2018885Y1730450D01*
X2017385Y1731350D02*
X2025385Y1739350D01*
X2017385D02*
X2025385Y1731350D01*
X2014285Y1737350D02*
X2022285Y1745350D01*
X2014285D02*
X2022285Y1737350D01*
X2014285Y1741150D02*
X2022285Y1749150D01*
X2014285D02*
X2022285Y1741150D01*
X2022685Y1729650D02*
X2030685Y1737650D01*
X2022685D02*
X2030685Y1729650D01*
X2017285Y1738450D02*
X2025285Y1746450D01*
X2017285D02*
X2025285Y1738450D01*
X2011185Y1726550D02*
X2019185Y1734550D01*
X2011185D02*
X2019185Y1726550D01*
X2026585Y1731450D02*
X2034585Y1739450D01*
X2026585D02*
X2034585Y1731450D01*
X2013885Y1731250D02*
X2021885Y1739250D01*
X2013885D02*
X2021885Y1731250D01*
X2020385Y1730350D02*
X2028385Y1738350D01*
X2020385D02*
X2028385Y1730350D01*
X2027285Y1727150D02*
X2035285Y1735150D01*
X2027285D02*
X2035285Y1727150D01*
X2030285Y1732850D02*
X2038285Y1740850D01*
X2030285D02*
X2038285Y1732850D01*
X2033985Y1743050D02*
X2041985Y1751050D01*
X2033985D02*
X2041985Y1743050D01*
X1977385Y1757450D02*
X1985385Y1765450D01*
X1977385D02*
X1985385Y1757450D01*
X1973785Y1761850D02*
X1981785Y1769850D01*
X1973785D02*
X1981785Y1761850D01*
X1975385Y1744850D02*
X1983385Y1752850D01*
X1975385D02*
X1983385Y1744850D01*
X1984985Y1754650D02*
X1992985Y1762650D01*
X1984985D02*
X1992985Y1754650D01*
X1980285Y1754750D02*
X1988285Y1762750D01*
X1980285D02*
X1988285Y1754750D01*
X1973785Y1746450D02*
X1981785Y1754450D01*
X1973785D02*
X1981785Y1746450D01*
X2007185Y1749750D02*
X2015185Y1757750D01*
X2007185D02*
X2015185Y1749750D01*
X2001585Y1755050D02*
X2009585Y1763050D01*
X2001585D02*
X2009585Y1755050D01*
X1996385Y1757950D02*
X2004385Y1765950D01*
X1996385D02*
X2004385Y1757950D01*
X1998985Y1760350D02*
X2006985Y1768350D01*
X1998985D02*
X2006985Y1760350D01*
X1999085Y1755150D02*
X2007085Y1763150D01*
X1999085D02*
X2007085Y1755150D01*
X2004085Y1755050D02*
X2012085Y1763050D01*
X2004085D02*
X2012085Y1755050D01*
X2006585D02*
X2014585Y1763050D01*
X2006585D02*
X2014585Y1755050D01*
X1993785Y1755250D02*
X2001785Y1763250D01*
X1993785D02*
X2001785Y1755250D01*
X2006485Y1757750D02*
X2014485Y1765750D01*
X2006485D02*
X2014485Y1757750D01*
X2001485Y1760250D02*
X2009485Y1768250D01*
X2001485D02*
X2009485Y1760250D01*
X2004085D02*
X2012085Y1768250D01*
X2004085D02*
X2012085Y1760250D01*
X1996485Y1755250D02*
X2004485Y1763250D01*
X1996485D02*
X2004485Y1755250D01*
X1993685Y1763450D02*
X2001685Y1771450D01*
X1993685D02*
X2001685Y1763450D01*
X2003985Y1763150D02*
X2011985Y1771150D01*
X2003985D02*
X2011985Y1763150D01*
X2001385Y1763250D02*
X2009385Y1771250D01*
X2001385D02*
X2009385Y1763250D01*
X1996385Y1763450D02*
X2004385Y1771450D01*
X1996385D02*
X2004385Y1763450D01*
X1998885Y1763350D02*
X2006885Y1771350D01*
X1998885D02*
X2006885Y1763350D01*
X2006485Y1763050D02*
X2014485Y1771050D01*
X2006485D02*
X2014485Y1763050D01*
X1989385Y1751950D02*
X1997385Y1759950D01*
X1989385D02*
X1997385Y1751950D01*
X1993685Y1757950D02*
X2001685Y1765950D01*
X1993685D02*
X2001685Y1757950D01*
X2006585Y1760250D02*
X2014585Y1768250D01*
X2006585D02*
X2014585Y1760250D01*
X1993685Y1760450D02*
X2001685Y1768450D01*
X1993685D02*
X2001685Y1760450D01*
X2001485Y1757850D02*
X2009485Y1765850D01*
X2001485D02*
X2009485Y1757850D01*
X2004085D02*
X2012085Y1765850D01*
X2004085D02*
X2012085Y1757850D01*
X1996385Y1760450D02*
X2004385Y1768450D01*
X1996385D02*
X2004385Y1760450D01*
X1998985Y1757850D02*
X2006985Y1765850D01*
X1998985D02*
X2006985Y1757850D01*
X2017985Y1748550D02*
X2025985Y1756550D01*
X2017985D02*
X2025985Y1748550D01*
X2017885Y1750850D02*
X2025885Y1758850D01*
X2017885D02*
X2025885Y1750850D01*
X2027785Y1749750D02*
X2035785Y1757750D01*
X2027785D02*
X2035785Y1749750D01*
X2011585Y1763450D02*
X2019585Y1771450D01*
X2011585D02*
X2019585Y1763450D01*
X2033185Y1755550D02*
X2041185Y1763550D01*
X2033185D02*
X2041185Y1755550D01*
X2029685Y1760250D02*
X2037685Y1768250D01*
X2029685D02*
X2037685Y1760250D01*
X2029485Y1753250D02*
X2037485Y1761250D01*
X2029485D02*
X2037485Y1753250D01*
X2029585Y1756650D02*
X2037585Y1764650D01*
X2029585D02*
X2037585Y1756650D01*
X2033585Y1745750D02*
X2041585Y1753750D01*
X2033585D02*
X2041585Y1745750D01*
X2034385Y1761850D02*
X2042385Y1769850D01*
X2034385D02*
X2042385Y1761850D01*
X2033885Y1764050D02*
X2041885Y1772050D01*
X2033885D02*
X2041885Y1764050D01*
X1984885Y1768450D02*
X1992885Y1776450D01*
X1984885D02*
X1992885Y1768450D01*
X1977885Y1782750D02*
X1985885Y1790750D01*
X1977885D02*
X1985885Y1782750D01*
X1983285Y1771550D02*
X1991285Y1779550D01*
X1983285D02*
X1991285Y1771550D01*
X1986985Y1783950D02*
X1994985Y1791950D01*
X1986985D02*
X1994985Y1783950D01*
X1978085Y1776850D02*
X1986085Y1784850D01*
X1978085D02*
X1986085Y1776850D01*
X1978285Y1773950D02*
X1986285Y1781950D01*
X1978285D02*
X1986285Y1773950D01*
X1987785Y1764550D02*
X1995785Y1772550D01*
X1987785D02*
X1995785Y1764550D01*
X1981685Y1782050D02*
X1989685Y1790050D01*
X1981685D02*
X1989685Y1782050D01*
X1980685Y1775350D02*
X1988685Y1783350D01*
X1980685D02*
X1988685Y1775350D01*
X1980385Y1771750D02*
X1988385Y1779750D01*
X1980385D02*
X1988385Y1771750D01*
X1993685Y1766450D02*
X2001685Y1774450D01*
X1993685D02*
X2001685Y1766450D01*
X1996885Y1781750D02*
X2004885Y1789750D01*
X1996885D02*
X2004885Y1781750D01*
X1998985Y1778850D02*
X2006985Y1786850D01*
X1998985D02*
X2006985Y1778850D01*
X1995385Y1776550D02*
X2003385Y1784550D01*
X1995385D02*
X2003385Y1776550D01*
X2002285Y1779450D02*
X2010285Y1787450D01*
X2002285D02*
X2010285Y1779450D01*
X2006485Y1766350D02*
X2014485Y1774350D01*
X2006485D02*
X2014485Y1766350D01*
X1990185Y1773350D02*
X1998185Y1781350D01*
X1990185D02*
X1998185Y1773350D01*
X1994485Y1783850D02*
X2002485Y1791850D01*
X1994485D02*
X2002485Y1783850D01*
X2002285Y1781850D02*
X2010285Y1789850D01*
X2002285D02*
X2010285Y1781850D01*
X2002185Y1773650D02*
X2010185Y1781650D01*
X2002185D02*
X2010185Y1773650D01*
X1996385Y1766450D02*
X2004385Y1774450D01*
X1996385D02*
X2004385Y1766450D01*
X1998885Y1766350D02*
X2006885Y1774350D01*
X1998885D02*
X2006885Y1766350D01*
X1999485Y1782450D02*
X2007485Y1790450D01*
X1999485D02*
X2007485Y1782450D01*
X2008285Y1781250D02*
X2016285Y1789250D01*
X2008285D02*
X2016285Y1781250D01*
X2003985Y1766350D02*
X2011985Y1774350D01*
X2003985D02*
X2011985Y1766350D01*
X2001485D02*
X2009485Y1774350D01*
X2001485D02*
X2009485Y1766350D01*
X1992185Y1776350D02*
X2000185Y1784350D01*
X1992185D02*
X2000185Y1776350D01*
X2027585Y1777950D02*
X2035585Y1785950D01*
X2027585D02*
X2035585Y1777950D01*
X2028685Y1781550D02*
X2036685Y1789550D01*
X2028685D02*
X2036685Y1781550D01*
X2025385Y1767250D02*
X2033385Y1775250D01*
X2025385D02*
X2033385Y1767250D01*
X2025385Y1769450D02*
X2033385Y1777450D01*
X2025385D02*
X2033385Y1769450D01*
X2025685Y1780850D02*
X2033685Y1788850D01*
X2025685D02*
X2033685Y1780850D01*
X2011585Y1775350D02*
X2019585Y1783350D01*
X2011585D02*
X2019585Y1775350D01*
X2024985Y1778150D02*
X2032985Y1786150D01*
X2024985D02*
X2032985Y1778150D01*
X2023385Y1782550D02*
X2031385Y1790550D01*
X2023385D02*
X2031385Y1782550D01*
X2027985Y1766450D02*
X2035985Y1774450D01*
X2027985D02*
X2035985Y1766450D01*
X2029465Y1779465D02*
X2037465Y1787465D01*
X2029465D02*
X2037465Y1779465D01*
X2031485Y1782350D02*
X2039485Y1790350D01*
X2031485D02*
X2039485Y1782350D01*
X2030185Y1765450D02*
X2038185Y1773450D01*
X2030185D02*
X2038185Y1765450D01*
X2033985Y1767350D02*
X2041985Y1775350D01*
X2033985D02*
X2041985Y1767350D01*
X2037285Y1783250D02*
X2045285Y1791250D01*
X2037285D02*
X2045285Y1783250D01*
X2034385Y1775950D02*
X2042385Y1783950D01*
X2034385D02*
X2042385Y1775950D01*
X2036885Y1775150D02*
X2044885Y1783150D01*
X2036885D02*
X2044885Y1775150D01*
X2032585Y1774650D02*
X2040585Y1782650D01*
X2032585D02*
X2040585Y1774650D01*
X1983585Y1802350D02*
X1991585Y1810350D01*
X1983585D02*
X1991585Y1802350D01*
X1986385Y1800650D02*
X1994385Y1808650D01*
X1986385D02*
X1994385Y1800650D01*
X1977585Y1785450D02*
X1985585Y1793450D01*
X1977585D02*
X1985585Y1785450D01*
X1976385Y1795350D02*
X1984385Y1803350D01*
X1976385D02*
X1984385Y1795350D01*
X1983885Y1787650D02*
X1991885Y1795650D01*
X1983885D02*
X1991885Y1787650D01*
X1980785Y1786650D02*
X1988785Y1794650D01*
X1980785D02*
X1988785Y1786650D01*
X1981385Y1790250D02*
X1989385Y1798250D01*
X1981385D02*
X1989385Y1790250D01*
X1979285Y1792350D02*
X1987285Y1800350D01*
X1979285D02*
X1987285Y1792350D01*
X1976385Y1792850D02*
X1984385Y1800850D01*
X1976385D02*
X1984385Y1792850D01*
X1983085Y1784150D02*
X1991085Y1792150D01*
X1983085D02*
X1991085Y1784150D01*
X1984885Y1795150D02*
X1992885Y1803150D01*
X1984885D02*
X1992885Y1795150D01*
X1982185Y1797750D02*
X1990185Y1805750D01*
X1982185D02*
X1990185Y1797750D01*
X1987285Y1791150D02*
X1995285Y1799150D01*
X1987285D02*
X1995285Y1791150D01*
X1979885Y1802550D02*
X1987885Y1810550D01*
X1979885D02*
X1987885Y1802550D01*
X1979858Y1784189D02*
X1987858Y1792189D01*
X1979858D02*
X1987858Y1784189D01*
X2008992Y1794031D02*
X2016992Y1802031D01*
X2008992D02*
X2016992Y1794031D01*
X2001118Y1801512D02*
X2009118Y1809512D01*
X2001118D02*
X2009118Y1801512D01*
X2001118Y1797575D02*
X2009118Y1805575D01*
X2001118D02*
X2009118Y1797575D01*
X2008285Y1790550D02*
X2016285Y1798550D01*
X2008285D02*
X2016285Y1790550D01*
X1997385Y1785350D02*
X2005385Y1793350D01*
X1997385D02*
X2005385Y1785350D01*
X2008285Y1784650D02*
X2016285Y1792650D01*
X2008285D02*
X2016285Y1784650D01*
X2008485Y1787350D02*
X2016485Y1795350D01*
X2008485D02*
X2016485Y1787350D01*
X1992685Y1786950D02*
X2000685Y1794950D01*
X1992685D02*
X2000685Y1786950D01*
X2002385Y1784750D02*
X2010385Y1792750D01*
X2002385D02*
X2010385Y1784750D01*
X1998685Y1794550D02*
X2006685Y1802550D01*
X1998685D02*
X2006685Y1794550D01*
X2001118Y1794819D02*
X2009118Y1802819D01*
X2001118D02*
X2009118Y1794819D01*
X1989885Y1789950D02*
X1997885Y1797950D01*
X1989885D02*
X1997885Y1789950D01*
X1993085Y1790450D02*
X2001085Y1798450D01*
X1993085D02*
X2001085Y1790450D01*
X2001785Y1791150D02*
X2009785Y1799150D01*
X2001785D02*
X2009785Y1791150D01*
X1997185Y1790950D02*
X2005185Y1798950D01*
X1997185D02*
X2005185Y1790950D01*
X2027385Y1786050D02*
X2035385Y1794050D01*
X2027385D02*
X2035385Y1786050D01*
X2009386Y1802299D02*
X2017386Y1810299D01*
X2009386D02*
X2017386Y1802299D01*
X2009386Y1797575D02*
X2017386Y1805575D01*
X2009386D02*
X2017386Y1797575D01*
X2027285Y1800350D02*
X2035285Y1808350D01*
X2027285D02*
X2035285Y1800350D01*
X2027285Y1803850D02*
X2035285Y1811850D01*
X2027285D02*
X2035285Y1803850D01*
X2010785Y1785150D02*
X2018785Y1793150D01*
X2010785D02*
X2018785Y1785150D01*
X2011985Y1790350D02*
X2019985Y1798350D01*
X2011985D02*
X2019985Y1790350D01*
X2017485Y1791450D02*
X2025485Y1799450D01*
X2017485D02*
X2025485Y1791450D01*
X2023685Y1797250D02*
X2031685Y1805250D01*
X2023685D02*
X2031685Y1797250D01*
X2027785Y1791750D02*
X2035785Y1799750D01*
X2027785D02*
X2035785Y1791750D01*
X2025985Y1784550D02*
X2033985Y1792550D01*
X2025985D02*
X2033985Y1784550D01*
X2023785Y1800750D02*
X2031785Y1808750D01*
X2023785D02*
X2031785Y1800750D01*
X2014385Y1788850D02*
X2022385Y1796850D01*
X2014385D02*
X2022385Y1788850D01*
X2011985Y1787350D02*
X2019985Y1795350D01*
X2011985D02*
X2019985Y1787350D01*
X2029485Y1784250D02*
X2037485Y1792250D01*
X2029485D02*
X2037485Y1784250D01*
X2031685Y1786250D02*
X2039685Y1794250D01*
X2031685D02*
X2039685Y1786250D01*
X2037285Y1794150D02*
X2045285Y1802150D01*
X2037285D02*
X2045285Y1794150D01*
X2034585Y1795950D02*
X2042585Y1803950D01*
X2034585D02*
X2042585Y1795950D01*
X2030385Y1794350D02*
X2038385Y1802350D01*
X2030385D02*
X2038385Y1794350D01*
X2035585Y1802950D02*
X2043585Y1810950D01*
X2035585D02*
X2043585Y1802950D01*
X2030985Y1803250D02*
X2038985Y1811250D01*
X2030985D02*
X2038985Y1803250D01*
X2034185Y1784150D02*
X2042185Y1792150D01*
X2034185D02*
X2042185Y1784150D01*
X2032985Y1792350D02*
X2040985Y1800350D01*
X2032985D02*
X2040985Y1792350D01*
X1980485Y1811750D02*
X1988485Y1819750D01*
X1980485D02*
X1988485Y1811750D01*
X1978185Y1805350D02*
X1986185Y1813350D01*
X1978185D02*
X1986185Y1805350D01*
X1985785Y1811950D02*
X1993785Y1819950D01*
X1985785D02*
X1993785Y1811950D01*
X1982285Y1806050D02*
X1990285Y1814050D01*
X1982285D02*
X1990285Y1806050D01*
X1975785Y1812050D02*
X1983785Y1820050D01*
X1975785D02*
X1983785Y1812050D01*
X2001118Y1810961D02*
X2009118Y1818961D01*
X2001118D02*
X2009118Y1810961D01*
X2001118Y1805449D02*
X2009118Y1813449D01*
X2001118D02*
X2009118Y1805449D01*
X2009386Y1810961D02*
X2017386Y1818961D01*
X2009386D02*
X2017386Y1810961D01*
X2009386Y1806236D02*
X2017386Y1814236D01*
X2009386D02*
X2017386Y1806236D01*
X2027285Y1807450D02*
X2035285Y1815450D01*
X2027285D02*
X2035285Y1807450D01*
X2027085Y1812150D02*
X2035085Y1820150D01*
X2027085D02*
X2035085Y1812150D01*
X2023585Y1811150D02*
X2031585Y1819150D01*
X2023585D02*
X2031585Y1811150D01*
X2023685Y1807750D02*
X2031685Y1815750D01*
X2023685D02*
X2031685Y1807750D01*
X2023785Y1804150D02*
X2031785Y1812150D01*
X2023785D02*
X2031785Y1804150D01*
X2035385Y1806250D02*
X2043385Y1814250D01*
X2035385D02*
X2043385Y1806250D01*
X2030685D02*
X2038685Y1814250D01*
X2030685D02*
X2038685Y1806250D01*
X2035885Y1812250D02*
X2043885Y1820250D01*
X2035885D02*
X2043885Y1812250D01*
X2030285Y1812150D02*
X2038285Y1820150D01*
X2030285D02*
X2038285Y1812150D01*
X2468504Y1646803D02*
X2726504D01*
X2468504Y1622803D02*
X2726504D01*
X2468504Y1598803D02*
X2726504D01*
X2468504Y1574803D02*
X2726504D01*
X2468504Y1646803D02*
Y1574803D01*
X2552504Y1646803D02*
Y1574803D01*
X2588504Y1646803D02*
Y1574803D01*
X2624504Y1646803D02*
Y1574803D01*
X2678504Y1646803D02*
Y1574803D01*
X2726504Y1646803D02*
Y1574803D01*
X2504004Y1635553D02*
X2503458Y1636303D01*
X2502640Y1636678*
X2501549*
X2500731Y1636303*
X2500186Y1635553*
Y1634803*
X2500458Y1634053*
X2500731Y1633678*
X2501277Y1633303*
X2502913Y1632553*
X2503458Y1632178*
X2503731Y1631803*
X2504004Y1631053*
Y1629928*
X2503458Y1629178*
X2502640Y1628803*
X2501549*
X2500731Y1629178*
X2500186Y1629928*
X2506458Y1636678D02*
Y1628803D01*
X2512731Y1636678D02*
X2508913Y1628803D01*
Y1636678D02*
X2512731D01*
X2508913Y1628803D02*
X2512731D01*
X2515186Y1636678D02*
Y1628803D01*
Y1636678D02*
X2518731D01*
X2515186Y1632928D02*
X2517368D01*
X2515186Y1628803D02*
X2518731D01*
X2562368Y1636678D02*
X2561822Y1636303D01*
X2561277Y1635553*
X2561004Y1634803*
X2560731Y1633678*
Y1631803*
X2561004Y1630678*
X2561277Y1629928*
X2561822Y1629178*
X2562368Y1628803*
X2563458*
X2564004Y1629178*
X2564549Y1629928*
X2564822Y1630678*
X2565095Y1631803*
Y1633678*
X2564822Y1634803*
X2564549Y1635553*
X2564004Y1636303*
X2563458Y1636678*
X2562368*
X2563186Y1630303D02*
X2564822Y1628053D01*
X2569458Y1636678D02*
Y1628803D01*
X2567549Y1636678D02*
X2571368D01*
X2573822D02*
X2576004Y1632928D01*
Y1628803*
X2578186Y1636678D02*
X2576004Y1632928D01*
X2600549Y1635553D02*
X2600004Y1636303D01*
X2599186Y1636678*
X2598095*
X2597277Y1636303*
X2596731Y1635553*
Y1634803*
X2597004Y1634053*
X2597277Y1633678*
X2597822Y1633303*
X2599458Y1632553*
X2600004Y1632178*
X2600277Y1631803*
X2600549Y1631053*
Y1629928*
X2600004Y1629178*
X2599186Y1628803*
X2598095*
X2597277Y1629178*
X2596731Y1629928*
X2603004Y1636678D02*
X2605186Y1632928D01*
Y1628803*
X2607368Y1636678D02*
X2605186Y1632928D01*
X2609822Y1636678D02*
Y1628803D01*
Y1636678D02*
X2612004Y1628803D01*
X2614186Y1636678D02*
X2612004Y1628803D01*
X2614186Y1636678D02*
Y1628803D01*
X2636004Y1636678D02*
Y1628803D01*
Y1636678D02*
X2638458D01*
X2639277Y1636303*
X2639549Y1635928*
X2639822Y1635178*
Y1634053*
X2639549Y1633303*
X2639277Y1632928*
X2638458Y1632553*
X2636004*
X2642277Y1636678D02*
Y1628803D01*
X2645549*
X2650186Y1636678D02*
X2648004Y1628803D01*
X2650186Y1636678D02*
X2652368Y1628803D01*
X2648822Y1631428D02*
X2651549D01*
X2656731Y1636678D02*
Y1628803D01*
X2654822Y1636678D02*
X2658640D01*
X2661095D02*
Y1628803D01*
Y1636678D02*
X2664640D01*
X2661095Y1632928D02*
X2663277D01*
X2661095Y1628803D02*
X2664640D01*
X2667095Y1636678D02*
Y1628803D01*
Y1636678D02*
X2669004D01*
X2669822Y1636303*
X2670368Y1635553*
X2670640Y1634803*
X2670913Y1633678*
Y1631803*
X2670640Y1630678*
X2670368Y1629928*
X2669822Y1629178*
X2669004Y1628803*
X2667095*
X2695186Y1636678D02*
Y1628803D01*
X2693277Y1636678D02*
X2697095D01*
X2701186D02*
X2700640Y1636303D01*
X2700095Y1635553*
X2699822Y1634803*
X2699549Y1633678*
Y1631803*
X2699822Y1630678*
X2700095Y1629928*
X2700640Y1629178*
X2701186Y1628803*
X2702277*
X2702822Y1629178*
X2703368Y1629928*
X2703640Y1630678*
X2703913Y1631803*
Y1633678*
X2703640Y1634803*
X2703368Y1635553*
X2702822Y1636303*
X2702277Y1636678*
X2701186*
X2706368D02*
Y1628803D01*
X2709640*
X2475049Y1612678D02*
X2478049D01*
X2476413Y1609678*
X2477231*
X2477777Y1609303*
X2478049Y1608928*
X2478322Y1607803*
Y1607053*
X2478049Y1605928*
X2477504Y1605178*
X2476686Y1604803*
X2475868*
X2475049Y1605178*
X2474777Y1605553*
X2474504Y1606303*
X2484322Y1612678D02*
X2481595D01*
X2481322Y1609303*
X2481595Y1609678*
X2482413Y1610053*
X2483231*
X2484049Y1609678*
X2484595Y1608928*
X2484868Y1607803*
X2484595Y1607053*
X2484322Y1605928*
X2483777Y1605178*
X2482958Y1604803*
X2482140*
X2481322Y1605178*
X2481049Y1605553*
X2480777Y1606303*
X2487595Y1605553D02*
X2487322Y1605178D01*
X2487595Y1604803*
X2487868Y1605178*
X2487595Y1605553*
X2493049Y1612678D02*
X2490322Y1607428D01*
X2494413*
X2493049Y1612678D02*
Y1604803D01*
X2497413Y1612678D02*
X2500413D01*
X2498777Y1609678*
X2499595*
X2500140Y1609303*
X2500413Y1608928*
X2500686Y1607803*
Y1607053*
X2500413Y1605928*
X2499868Y1605178*
X2499049Y1604803*
X2498231*
X2497413Y1605178*
X2497140Y1605553*
X2496868Y1606303*
X2564549Y1610803D02*
Y1611178D01*
X2564822Y1611928*
X2565095Y1612303*
X2565640Y1612678*
X2566731*
X2567277Y1612303*
X2567549Y1611928*
X2567822Y1611178*
Y1610428*
X2567549Y1609678*
X2567004Y1608553*
X2564277Y1604803*
X2568095*
X2573277Y1612678D02*
X2570549Y1607428D01*
X2574640*
X2573277Y1612678D02*
Y1604803D01*
X2600504Y1610803D02*
X2612504D01*
X2606504Y1604803D02*
Y1616803D01*
X2633140Y1612678D02*
X2635322Y1608928D01*
Y1604803*
X2637504Y1612678D02*
X2635322Y1608928D01*
X2639958Y1612678D02*
Y1604803D01*
Y1612678D02*
X2643504D01*
X2639958Y1608928D02*
X2642140D01*
X2639958Y1604803D02*
X2643504D01*
X2649777Y1611553D02*
X2649231Y1612303D01*
X2648413Y1612678*
X2647322*
X2646504Y1612303*
X2645958Y1611553*
Y1610803*
X2646231Y1610053*
X2646504Y1609678*
X2647049Y1609303*
X2648686Y1608553*
X2649231Y1608178*
X2649504Y1607803*
X2649777Y1607053*
Y1605928*
X2649231Y1605178*
X2648413Y1604803*
X2647322*
X2646504Y1605178*
X2645958Y1605928*
X2686322Y1611553D02*
Y1604803D01*
X2683868Y1608178D02*
X2688777D01*
X2696140Y1614178D02*
X2691231Y1602178D01*
X2698595Y1608178D02*
X2703504D01*
X2707595Y1612678D02*
X2706777Y1612303D01*
X2706231Y1611178*
X2705958Y1609303*
Y1608178*
X2706231Y1606303*
X2706777Y1605178*
X2707595Y1604803*
X2708140*
X2708958Y1605178*
X2709504Y1606303*
X2709777Y1608178*
Y1609303*
X2709504Y1611178*
X2708958Y1612303*
X2708140Y1612678*
X2707595*
X2712504Y1605553D02*
X2712231Y1605178D01*
X2712504Y1604803*
X2712777Y1605178*
X2712504Y1605553*
X2716868Y1612678D02*
X2716049Y1612303D01*
X2715504Y1611178*
X2715231Y1609303*
Y1608178*
X2715504Y1606303*
X2716049Y1605178*
X2716868Y1604803*
X2717413*
X2718231Y1605178*
X2718777Y1606303*
X2719049Y1608178*
Y1609303*
X2718777Y1611178*
X2718231Y1612303*
X2717413Y1612678*
X2716868*
X2478049Y1586053D02*
X2477777Y1584928D01*
X2477231Y1584178*
X2476413Y1583803*
X2476140*
X2475322Y1584178*
X2474777Y1584928*
X2474504Y1586053*
Y1586428*
X2474777Y1587553*
X2475322Y1588303*
X2476140Y1588678*
X2476413*
X2477231Y1588303*
X2477777Y1587553*
X2478049Y1586053*
Y1584178*
X2477777Y1582303*
X2477231Y1581178*
X2476413Y1580803*
X2475868*
X2475049Y1581178*
X2474777Y1581928*
X2480777Y1581553D02*
X2480504Y1581178D01*
X2480777Y1580803*
X2481049Y1581178*
X2480777Y1581553*
X2484868Y1588678D02*
X2484049Y1588303D01*
X2483777Y1587553*
Y1586803*
X2484049Y1586053*
X2484595Y1585678*
X2485686Y1585303*
X2486504Y1584928*
X2487049Y1584178*
X2487322Y1583428*
Y1582303*
X2487049Y1581553*
X2486777Y1581178*
X2485958Y1580803*
X2484868*
X2484049Y1581178*
X2483777Y1581553*
X2483504Y1582303*
Y1583428*
X2483777Y1584178*
X2484322Y1584928*
X2485140Y1585303*
X2486231Y1585678*
X2486777Y1586053*
X2487049Y1586803*
Y1587553*
X2486777Y1588303*
X2485958Y1588678*
X2484868*
X2492504D02*
X2489777Y1583428D01*
X2493868*
X2492504Y1588678D02*
Y1580803D01*
X2561413Y1586803D02*
Y1587178D01*
X2561686Y1587928*
X2561958Y1588303*
X2562504Y1588678*
X2563595*
X2564140Y1588303*
X2564413Y1587928*
X2564686Y1587178*
Y1586428*
X2564413Y1585678*
X2563868Y1584553*
X2561140Y1580803*
X2564958*
X2567958Y1588678D02*
X2570958D01*
X2569322Y1585678*
X2570140*
X2570686Y1585303*
X2570958Y1584928*
X2571231Y1583803*
Y1583053*
X2570958Y1581928*
X2570413Y1581178*
X2569595Y1580803*
X2568777*
X2567958Y1581178*
X2567686Y1581553*
X2567413Y1582303*
X2577231Y1588678D02*
X2574504D01*
X2574231Y1585303*
X2574504Y1585678*
X2575322Y1586053*
X2576140*
X2576958Y1585678*
X2577504Y1584928*
X2577777Y1583803*
X2577504Y1583053*
X2577231Y1581928*
X2576686Y1581178*
X2575868Y1580803*
X2575049*
X2574231Y1581178*
X2573958Y1581553*
X2573686Y1582303*
X2600504Y1580803D02*
X2612504Y1592803D01*
X2600504D02*
X2612504Y1580803D01*
X2633140Y1588678D02*
X2635322Y1584928D01*
Y1580803*
X2637504Y1588678D02*
X2635322Y1584928D01*
X2639958Y1588678D02*
Y1580803D01*
Y1588678D02*
X2643504D01*
X2639958Y1584928D02*
X2642140D01*
X2639958Y1580803D02*
X2643504D01*
X2649777Y1587553D02*
X2649231Y1588303D01*
X2648413Y1588678*
X2647322*
X2646504Y1588303*
X2645958Y1587553*
Y1586803*
X2646231Y1586053*
X2646504Y1585678*
X2647049Y1585303*
X2648686Y1584553*
X2649231Y1584178*
X2649504Y1583803*
X2649777Y1583053*
Y1581928*
X2649231Y1581178*
X2648413Y1580803*
X2647322*
X2646504Y1581178*
X2645958Y1581928*
X2686322Y1587553D02*
Y1580803D01*
X2683868Y1584178D02*
X2688777D01*
X2696140Y1590178D02*
X2691231Y1578178D01*
X2698595Y1584178D02*
X2703504D01*
X2707595Y1588678D02*
X2706777Y1588303D01*
X2706231Y1587178*
X2705958Y1585303*
Y1584178*
X2706231Y1582303*
X2706777Y1581178*
X2707595Y1580803*
X2708140*
X2708958Y1581178*
X2709504Y1582303*
X2709777Y1584178*
Y1585303*
X2709504Y1587178*
X2708958Y1588303*
X2708140Y1588678*
X2707595*
X2712504Y1581553D02*
X2712231Y1581178D01*
X2712504Y1580803*
X2712777Y1581178*
X2712504Y1581553*
X2716868Y1588678D02*
X2716049Y1588303D01*
X2715504Y1587178*
X2715231Y1585303*
Y1584178*
X2715504Y1582303*
X2716049Y1581178*
X2716868Y1580803*
X2717413*
X2718231Y1581178*
X2718777Y1582303*
X2719049Y1584178*
Y1585303*
X2718777Y1587178*
X2718231Y1588303*
X2717413Y1588678*
X2716868*
G54D31*
X1968504Y1818898D02*
Y1696850D01*
X2049606*
Y1818898*
X1968504*
X0Y0D02*
M02*
