*
*
G04 PADS 9.5 Build Number: 522968 generated Gerber (RS-274-X) file*
G04 PC Version=2.1*
*
%IN "wifi_testchip_0427.pcb"*%
*
%MOIN*%
*
%FSLAX35Y35*%
*
*
*
*
G04 PC Standard Apertures*
*
*
G04 Thermal Relief Aperture macro.*
%AMTER*
1,1,$1,0,0*
1,0,$1-$2,0,0*
21,0,$3,$4,0,0,45*
21,0,$3,$4,0,0,135*
%
*
*
G04 Annular Aperture macro.*
%AMANN*
1,1,$1,0,0*
1,0,$2,0,0*
%
*
*
G04 Odd Aperture macro.*
%AMODD*
1,1,$1,0,0*
1,0,$1-0.005,0,0*
%
*
*
G04 PC Custom Aperture Macros*
*
*
*
*
*
*
G04 PC Aperture Table*
*
%ADD010C,0.001*%
%ADD031C,0.00394*%
%ADD039R,0.02315X0.02315*%
%ADD045R,0.03515X0.03915*%
%ADD094C,0.0622*%
%ADD134R,0.06102X0.02362*%
%ADD139O,0.01417X0.03465*%
%ADD140O,0.03465X0.01417*%
%ADD141R,0.14882X0.14882*%
%ADD142R,0.04252X0.04646*%
%ADD145R,0.0622X0.18031*%
%ADD150R,0.01815X0.19213*%
*
*
*
*
G04 PC Circuitry*
G04 Layer Name wifi_testchip_0427.pcb - circuitry*
%LPD*%
*
*
G04 PC Custom Flashes*
G04 Layer Name wifi_testchip_0427.pcb - flashes*
%LPD*%
*
*
G04 PC Circuitry*
G04 Layer Name wifi_testchip_0427.pcb - circuitry*
%LPD*%
*
G54D10*
G54D31*
G01X1968504Y1818898D02*
Y1696850D01*
X2049606*
Y1818898*
X1968504*
G54D39*
X2028615Y1752850D03*
X2024615D03*
X2022685Y1772550D03*
X2026685D03*
X2009185Y1784715D03*
Y1788715D03*
X2005185Y1781243D03*
X2009185D03*
X2033885Y1776650D03*
X2029885D03*
X2009185Y1792126D03*
X2005185D03*
X1991885Y1785250D03*
X1987885D03*
X1997185Y1746850D03*
Y1742850D03*
X2000685Y1746850D03*
Y1742850D03*
X2004185Y1746850D03*
Y1742850D03*
X2007685Y1746850D03*
Y1742850D03*
X2011285Y1746850D03*
Y1742850D03*
X2014885Y1746850D03*
Y1742850D03*
X2016305Y1707450D03*
X2020305D03*
X1993185Y1722350D03*
X1989185D03*
X2026685Y1731350D03*
Y1727350D03*
X2020305Y1711050D03*
X2016305D03*
G54D45*
X2018935Y1782650D03*
X2025435D03*
X1991935Y1779550D03*
X1985435D03*
G54D94*
X1973622Y1813350D03*
X2044488Y1773350D03*
Y1803350D03*
X1973622D03*
Y1793350D03*
Y1783350D03*
Y1773350D03*
X2044488Y1703350D03*
Y1713350D03*
X1973622Y1763350D03*
Y1753350D03*
Y1743350D03*
Y1733350D03*
Y1723350D03*
Y1713350D03*
X2044488Y1733350D03*
Y1743350D03*
Y1783350D03*
Y1793350D03*
Y1723350D03*
X1973622Y1703350D03*
X2044488Y1813350D03*
Y1753350D03*
Y1763350D03*
G54D134*
X2020315Y1717350D03*
Y1722350D03*
Y1727350D03*
Y1732350D03*
X1999055D03*
Y1727350D03*
Y1722350D03*
Y1717350D03*
G54D139*
X2011165Y1775196D03*
X2009196D03*
X2007228D03*
X2005259D03*
X2003291D03*
X2001322D03*
X1999354D03*
X1997385D03*
Y1755905D03*
X1999354D03*
X2001322D03*
X2003291D03*
X2005259D03*
X2007228D03*
X2009196D03*
X2011165D03*
G54D140*
X1994629Y1772440D03*
Y1770472D03*
Y1768503D03*
Y1766535D03*
Y1764566D03*
Y1762598D03*
Y1760629D03*
Y1758661D03*
X2013921D03*
Y1760629D03*
Y1762598D03*
Y1764566D03*
Y1766535D03*
Y1768503D03*
Y1770472D03*
Y1772440D03*
G54D141*
X2004275Y1765550D03*
G54D142*
X2022685Y1766350D03*
Y1759264D03*
X2028591D03*
Y1766350D03*
G54D145*
X1997414Y1806891D03*
X2021036D03*
G54D150*
X2009225Y1808071D03*
X0Y0D02*
M02*
