*
*
G04 PADS 9.5 Build Number: 522968 generated Gerber (RS-274-X) file*
G04 PC Version=2.1*
*
%IN "WIFI_FLASH_MODULE_UPDAT"*%
*
%MOIN*%
*
%FSLAX35Y35*%
*
*
*
*
G04 PC Standard Apertures*
*
*
G04 Thermal Relief Aperture macro.*
%AMTER*
1,1,$1,0,0*
1,0,$1-$2,0,0*
21,0,$3,$4,0,0,45*
21,0,$3,$4,0,0,135*
%
*
*
G04 Annular Aperture macro.*
%AMANN*
1,1,$1,0,0*
1,0,$2,0,0*
%
*
*
G04 Odd Aperture macro.*
%AMODD*
1,1,$1,0,0*
1,0,$1-0.005,0,0*
%
*
*
G04 PC Custom Aperture Macros*
*
*
*
*
*
*
G04 PC Aperture Table*
*
%ADD010C,0.001*%
%ADD017O,0.04331X0.03937*%
%ADD019O,0.03937X0.01969*%
%ADD022C,0.04724*%
%ADD024C,0.005*%
%ADD025C,0.006*%
%ADD027C,0.01102*%
%ADD030C,0.01575*%
%ADD031C,0.00394*%
%ADD032O,0.04331X0.04724*%
%ADD033O,0.03937X0.04724*%
%ADD034C,0.0315*%
%ADD035C,0.01969*%
*
*
*
*
G04 PC Circuitry*
G04 Layer Name WIFI_FLASH_MODULE_UPDAT - circuitry*
%LPD*%
*
G54D10*
G01X2382519Y1734374D02*
X2382476Y1734675D01*
X2382352Y1734923*
X2382150Y1735044*
X2381856Y1735086*
X2381642Y1735043*
X2381475Y1735001*
X2381312Y1734879*
X2381183Y1734665*
X2381095Y1734668*
X2381010Y1734839*
X2380889Y1734960*
X2380679Y1735044*
X2380472Y1735086*
X2380307Y1735044*
X2380097Y1734960*
X2379836Y1734700*
X2379751Y1734735*
Y1735042*
X2379449*
Y1732821*
X2379751*
Y1734244*
X2379752Y1734256*
X2379797Y1734435*
X2379807Y1734454*
X2380030Y1734722*
X2380055Y1734738*
X2380367Y1734828*
X2380393*
X2380572Y1734783*
X2380588Y1734777*
X2380721Y1734687*
X2380738Y1734668*
X2380828Y1734489*
X2380833Y1734467*
Y1732821*
X2381135*
Y1734110*
Y1734117*
X2381180Y1734430*
X2381189Y1734452*
X2381323Y1734631*
X2381333Y1734641*
X2381512Y1734775*
X2381532Y1734784*
X2381755Y1734829*
X2381775*
X2381998Y1734784*
X2382028Y1734765*
X2382162Y1734586*
X2382170Y1734572*
X2382214Y1734438*
X2382217Y1734422*
Y1732821*
X2382519*
Y1734374*
X2378769D02*
X2378726Y1734675D01*
X2378602Y1734923*
X2378400Y1735044*
X2378106Y1735086*
X2377892Y1735043*
X2377725Y1735001*
X2377562Y1734879*
X2377433Y1734665*
X2377345Y1734668*
X2377260Y1734839*
X2377139Y1734960*
X2376929Y1735044*
X2376722Y1735086*
X2376557Y1735044*
X2376347Y1734960*
X2376086Y1734700*
X2376001Y1734735*
Y1735042*
X2375699*
Y1732821*
X2376001*
Y1734244*
X2376002Y1734256*
X2376047Y1734435*
X2376057Y1734454*
X2376280Y1734722*
X2376305Y1734738*
X2376617Y1734828*
X2376643*
X2376822Y1734783*
X2376838Y1734777*
X2376971Y1734687*
X2376988Y1734668*
X2377078Y1734489*
X2377083Y1734467*
Y1732821*
X2377385*
Y1734110*
Y1734117*
X2377430Y1734430*
X2377439Y1734452*
X2377573Y1734631*
X2377583Y1734641*
X2377762Y1734775*
X2377782Y1734784*
X2378005Y1734829*
X2378025*
X2378248Y1734784*
X2378278Y1734765*
X2378412Y1734586*
X2378420Y1734572*
X2378464Y1734438*
X2378467Y1734422*
Y1732821*
X2378769*
Y1734374*
X2375063Y1733122D02*
X2373551D01*
X2373512Y1733204*
X2373690Y1733427*
X2373699Y1733436*
X2373877Y1733569*
X2374143Y1733791*
X2374497Y1734100*
X2374717Y1734364*
X2374846Y1734536*
X2374932Y1734750*
X2375018Y1735095*
X2374976Y1735428*
X2374768Y1735678*
X2374470Y1735849*
X2374470D02*
X2374084Y1735934D01*
X2373701Y1735892*
X2373407Y1735724*
X2373195Y1735428*
X2373122Y1735135*
X2373422Y1735102*
X2373457Y1735280*
X2373466Y1735301*
X2373600Y1735479*
X2373610Y1735489*
X2373789Y1735623*
X2373810Y1735632*
X2374078Y1735677*
X2374096*
X2374320Y1735632*
X2374340Y1735623*
X2374518Y1735489*
X2374524Y1735485*
X2374658Y1735351*
X2374671Y1735325*
X2374716Y1735102*
Y1735082*
X2374671Y1734859*
X2374665Y1734843*
X2374531Y1734620*
X2374526Y1734613*
X2374258Y1734301*
X2374254Y1734296*
X2373851Y1733938*
X2373542Y1733673*
X2373193Y1733236*
X2373108Y1733025*
X2373074Y1732821*
X2375063*
Y1733122*
X2372385D02*
X2372083D01*
Y1732821*
X2372385*
Y1733122*
X2370778Y1735935D02*
X2370588D01*
X2370469Y1735736*
X2370461Y1735726*
X2370238Y1735503*
X2370230Y1735497*
X2369963Y1735318*
X2369960Y1735317*
X2369672Y1735152*
Y1734860*
X2369672D02*
X2370042Y1735046D01*
X2370396Y1735311*
X2370476Y1735271*
Y1732821*
X2370778*
Y1735935*
X2368857Y1733710D02*
X2368815Y1733962D01*
X2368731Y1734171*
X2368566Y1734337*
X2368305Y1734467*
X2368302Y1734555*
X2368520Y1734685*
X2368644Y1734809*
X2368727Y1734976*
X2368768Y1735140*
X2368726Y1735473*
X2368517Y1735724*
X2368265Y1735892*
X2367881Y1735935*
X2367497Y1735892*
X2367245Y1735724*
X2367036Y1735473*
X2366994Y1735183*
X2367036Y1734975*
X2367119Y1734809*
X2367243Y1734685*
X2367461Y1734555*
X2367451Y1734464*
X2367194Y1734379*
X2367032Y1734217*
X2366948Y1733964*
X2366905Y1733710*
X2366991Y1733325*
X2367159Y1733030*
X2367496Y1732819*
X2367881Y1732776*
X2368266Y1732819*
X2368603Y1733030*
X2368772Y1733325*
X2368857Y1733710*
X2368465Y1735125D02*
X2368421Y1734946D01*
X2368414Y1734930*
X2368325Y1734797*
X2368305Y1734780*
X2368127Y1734690*
X2368114Y1734686*
X2367891Y1734641*
X2367871*
X2367648Y1734686*
X2367636Y1734690*
X2367457Y1734780*
X2367438Y1734797*
X2367349Y1734930*
X2367341Y1734948*
X2367296Y1735172*
X2367297Y1735194*
X2367342Y1735372*
X2367349Y1735388*
X2367438Y1735522*
X2367457Y1735539*
X2367636Y1735628*
X2367648Y1735632*
X2367871Y1735677*
X2367891*
X2368114Y1735632*
X2368127Y1735628*
X2368305Y1735539*
X2368328Y1735516*
X2368417Y1735338*
X2368421Y1735327*
X2368465Y1735149*
Y1735125*
X2368556Y1733708D02*
Y1733700D01*
X2368511Y1733432*
X2368502Y1733410*
X2368368Y1733232*
X2368358Y1733222*
X2368179Y1733088*
X2368157Y1733078*
X2367889Y1733034*
X2367881Y1733033*
X2367703*
X2367675Y1733042*
X2367544Y1733129*
X2367368Y1733217*
X2367349Y1733234*
X2367259Y1733368*
X2367251Y1733389*
X2367207Y1733701*
X2367206Y1733708*
X2367207Y1733718*
X2367252Y1733941*
X2367258Y1733957*
X2367392Y1734180*
X2367405Y1734195*
X2367583Y1734329*
X2367605Y1734338*
X2367873Y1734382*
X2367889*
X2368157Y1734338*
X2368179Y1734329*
X2368358Y1734195*
X2368371Y1734180*
X2368504Y1733957*
X2368511Y1733941*
X2368555Y1733718*
X2368556Y1733708*
X2153871Y1920532D02*
X2153828Y1920833D01*
X2153704Y1921080*
X2153502Y1921202*
X2153208Y1921244*
X2152994Y1921201*
X2152827Y1921159*
X2152664Y1921037*
X2152535Y1920822*
X2152448Y1920825*
X2152362Y1920997*
X2152241Y1921118*
X2152032Y1921201*
X2151824Y1921243*
X2151660Y1921202*
X2151449Y1921118*
X2151188Y1920857*
X2151103Y1920892*
Y1921200*
X2150801*
Y1918978*
X2151103*
Y1920401*
X2151105Y1920413*
X2151149Y1920592*
X2151159Y1920612*
X2151383Y1920880*
X2151407Y1920896*
X2151720Y1920985*
X2151746Y1920986*
X2151924Y1920941*
X2151940Y1920934*
X2152074Y1920845*
X2152091Y1920826*
X2152180Y1920647*
X2152185Y1920625*
Y1918978*
X2152487*
Y1920267*
X2152488Y1920275*
X2152532Y1920587*
X2152542Y1920610*
X2152676Y1920789*
X2152686Y1920799*
X2152864Y1920932*
X2152884Y1920941*
X2153108Y1920986*
X2153127*
X2153350Y1920941*
X2153381Y1920922*
X2153515Y1920744*
X2153522Y1920730*
X2153567Y1920596*
X2153569Y1920580*
Y1918978*
X2153871*
Y1920532*
X2150121D02*
X2150078Y1920833D01*
X2149954Y1921080*
X2149752Y1921202*
X2149458Y1921244*
X2149244Y1921201*
X2149077Y1921159*
X2148914Y1921037*
X2148785Y1920822*
X2148698Y1920825*
X2148612Y1920997*
X2148491Y1921118*
X2148282Y1921201*
X2148074Y1921243*
X2147910Y1921202*
X2147699Y1921118*
X2147438Y1920857*
X2147353Y1920892*
Y1921200*
X2147051*
Y1918978*
X2147353*
Y1920401*
X2147355Y1920413*
X2147399Y1920592*
X2147409Y1920612*
X2147633Y1920880*
X2147657Y1920896*
X2147970Y1920985*
X2147996Y1920986*
X2148174Y1920941*
X2148190Y1920934*
X2148324Y1920845*
X2148341Y1920826*
X2148430Y1920647*
X2148435Y1920625*
Y1918978*
X2148737*
Y1920267*
X2148738Y1920275*
X2148782Y1920587*
X2148792Y1920610*
X2148926Y1920789*
X2148936Y1920799*
X2149114Y1920932*
X2149134Y1920941*
X2149358Y1920986*
X2149377*
X2149600Y1920941*
X2149631Y1920922*
X2149765Y1920744*
X2149772Y1920730*
X2149817Y1920596*
X2149819Y1920580*
Y1918978*
X2150121*
Y1920532*
X2146460Y1920930D02*
X2146373Y1921234D01*
X2146198Y1921717*
X2146073Y1921884*
X2145909Y1922006*
X2145482Y1922092*
X2145186Y1922049*
X2144935Y1921924*
X2144768Y1921715*
X2144638Y1921413*
X2144551Y1921019*
X2144507Y1920489*
Y1920095*
X2144594Y1919745*
X2144682Y1919439*
X2144807Y1919231*
X2145102Y1919019*
X2145485Y1918934*
X2145781Y1918977*
X2145781D02*
X2146032Y1919102D01*
X2146199Y1919311*
X2146329Y1919613*
X2146416Y1920007*
X2146460Y1920493*
Y1920930*
X2146158Y1920848D02*
Y1920134D01*
Y1920125*
X2146113Y1919857*
Y1919856*
X2146068Y1919633*
X2146064Y1919620*
X2145975Y1919442*
X2145961Y1919425*
X2145738Y1919246*
X2145717Y1919236*
X2145493Y1919192*
X2145474*
X2145250Y1919236*
X2145229Y1919246*
X2145006Y1919425*
X2144992Y1919442*
X2144903Y1919620*
X2144899Y1919633*
X2144854Y1919856*
Y1919857*
X2144809Y1920125*
X2144808Y1920134*
Y1920848*
X2144809Y1920855*
X2144854Y1921167*
Y1921170*
X2144899Y1921393*
X2144903Y1921406*
X2144992Y1921584*
X2145006Y1921601*
X2145229Y1921780*
X2145250Y1921790*
X2145474Y1921834*
X2145492Y1921835*
X2145760Y1921790*
X2145790Y1921772*
X2145969Y1921549*
X2145972Y1921545*
X2146061Y1921411*
X2146068Y1921393*
X2146113Y1921170*
Y1921167*
X2146158Y1920855*
Y1920848*
X2143737Y1919280D02*
X2143435D01*
Y1918978*
X2143737*
Y1919280*
X2142710Y1920580D02*
X2142666Y1921107D01*
X2142580Y1921454*
X2142408Y1921755*
X2142240Y1921923*
X2141986Y1922049*
X2141691Y1922092*
X2141308Y1922007*
X2141014Y1921796*
X2140843Y1921456*
X2140758Y1921070*
X2140844Y1920641*
X2141013Y1920303*
X2141307Y1920135*
X2141602Y1920051*
X2141808Y1920092*
X2142020Y1920177*
X2142326Y1920439*
X2142408Y1920401*
Y1920357*
Y1920352*
X2142364Y1919861*
X2142359Y1919843*
X2142272Y1919670*
X2142228Y1919496*
X2142211Y1919469*
X2141988Y1919291*
X2141970Y1919282*
X2141658Y1919193*
X2141632Y1919192*
X2141453Y1919237*
X2141453D02*
X2141438Y1919244D01*
X2141304Y1919333*
X2141290Y1919347*
X2141201Y1919481*
X2141195Y1919493*
X2141118Y1919722*
X2140814Y1919688*
X2140887Y1919395*
X2141055Y1919143*
X2141305Y1918976*
X2141644Y1918934*
X2141942Y1918977*
X2141942D02*
X2142195Y1919103D01*
X2142408Y1919316*
X2142579Y1919616*
X2142666Y1920051*
X2142710Y1920580*
X2142408Y1921071D02*
Y1921064D01*
X2142363Y1920751*
X2142357Y1920733*
X2142223Y1920510*
X2142210Y1920495*
X2142031Y1920361*
X2142010Y1920352*
X2141742Y1920307*
X2141725*
X2141457Y1920352*
X2141436Y1920361*
X2141257Y1920495*
X2141244Y1920510*
X2141110Y1920733*
X2141104Y1920750*
X2141059Y1921018*
X2141058Y1921026*
X2141059Y1921033*
X2141104Y1921346*
X2141110Y1921365*
X2141244Y1921588*
X2141256Y1921601*
X2141479Y1921780*
X2141500Y1921790*
X2141724Y1921834*
X2141742Y1921835*
X2142010Y1921790*
X2142031Y1921781*
X2142210Y1921647*
X2142225Y1921629*
X2142359Y1921361*
X2142363Y1921347*
X2142408Y1921079*
Y1921071*
X2140210Y1920580D02*
X2140166Y1921107D01*
X2140080Y1921454*
X2139908Y1921755*
X2139740Y1921923*
X2139486Y1922049*
X2139191Y1922092*
X2138808Y1922007*
X2138514Y1921796*
X2138343Y1921456*
X2138258Y1921070*
X2138344Y1920641*
X2138513Y1920303*
X2138807Y1920135*
X2139102Y1920051*
X2139308Y1920092*
X2139520Y1920177*
X2139826Y1920439*
X2139908Y1920401*
Y1920357*
Y1920352*
X2139864Y1919861*
X2139859Y1919843*
X2139772Y1919670*
X2139728Y1919496*
X2139711Y1919469*
X2139488Y1919291*
X2139470Y1919282*
X2139158Y1919193*
X2139132Y1919192*
X2138953Y1919237*
X2138953D02*
X2138938Y1919244D01*
X2138804Y1919333*
X2138790Y1919347*
X2138701Y1919481*
X2138695Y1919493*
X2138618Y1919722*
X2138314Y1919688*
X2138387Y1919395*
X2138555Y1919143*
X2138805Y1918976*
X2139144Y1918934*
X2139442Y1918977*
X2139442D02*
X2139695Y1919103D01*
X2139908Y1919316*
X2140079Y1919616*
X2140166Y1920051*
X2140210Y1920580*
X2139908Y1921071D02*
Y1921064D01*
X2139863Y1920751*
X2139857Y1920733*
X2139723Y1920510*
X2139710Y1920495*
X2139531Y1920361*
X2139510Y1920352*
X2139242Y1920307*
X2139225*
X2138957Y1920352*
X2138936Y1920361*
X2138757Y1920495*
X2138744Y1920510*
X2138610Y1920733*
X2138604Y1920750*
X2138559Y1921018*
X2138558Y1921026*
X2138559Y1921033*
X2138604Y1921346*
X2138610Y1921365*
X2138744Y1921588*
X2138756Y1921601*
X2138979Y1921780*
X2139000Y1921790*
X2139224Y1921834*
X2139242Y1921835*
X2139510Y1921790*
X2139531Y1921781*
X2139710Y1921647*
X2139725Y1921629*
X2139859Y1921361*
X2139863Y1921347*
X2139908Y1921079*
Y1921071*
X2138300Y1920859D02*
Y1921260D01*
X2138400Y1919376D02*
Y1919698D01*
Y1920528D02*
Y1921569D01*
X2138500Y1919226D02*
Y1919709D01*
Y1920328D02*
Y1921769D01*
X2138600Y1919113D02*
Y1919720D01*
Y1920253D02*
Y1920773D01*
Y1921321D02*
Y1921858D01*
X2138700Y1919046D02*
Y1919482D01*
Y1920196D02*
Y1920583D01*
Y1921514D02*
Y1921930D01*
X2138800Y1918980D02*
Y1919336D01*
Y1920139D02*
Y1920463D01*
Y1921636D02*
Y1922001D01*
X2138900Y1918964D02*
Y1919269D01*
Y1920109D02*
Y1920388D01*
Y1921716D02*
Y1922027D01*
X2139000Y1918952D02*
Y1919225D01*
Y1920080D02*
Y1920345D01*
Y1921790D02*
Y1922049D01*
X2139100Y1918939D02*
Y1919200D01*
Y1920051D02*
Y1920328D01*
Y1921810D02*
Y1922071D01*
X2139200Y1918942D02*
Y1919205D01*
Y1920071D02*
Y1920312D01*
Y1921830D02*
Y1922090D01*
X2139300Y1918956D02*
Y1919233D01*
Y1920091D02*
Y1920317D01*
Y1921825D02*
Y1922076D01*
X2139400Y1918971D02*
Y1919262D01*
Y1920129D02*
Y1920334D01*
Y1921808D02*
Y1922062D01*
X2139500Y1919006D02*
Y1919301D01*
Y1920169D02*
Y1920350D01*
Y1921792D02*
Y1922043D01*
X2139600Y1919056D02*
Y1919381D01*
Y1920246D02*
Y1920413D01*
Y1921729D02*
Y1921993D01*
X2139700Y1919108D02*
Y1919461D01*
Y1920331D02*
Y1920488D01*
Y1921654D02*
Y1921943D01*
X2139800Y1919208D02*
Y1919726D01*
Y1920417D02*
Y1920638D01*
Y1921478D02*
Y1921862D01*
X2139900Y1919308D02*
Y1920261D01*
Y1920429D02*
Y1921008D01*
Y1921126D02*
Y1921762D01*
X2140000Y1919477D02*
Y1921593D01*
X2140100Y1919721D02*
Y1921372D01*
X2140200Y1920459D02*
Y1920701D01*
X2140800Y1920859D02*
Y1921260D01*
X2140900Y1919376D02*
Y1919698D01*
Y1920528D02*
Y1921569D01*
X2141000Y1919226D02*
Y1919709D01*
Y1920328D02*
Y1921769D01*
X2141100Y1919113D02*
Y1919720D01*
Y1920253D02*
Y1920773D01*
Y1921321D02*
Y1921858D01*
X2141200Y1919046D02*
Y1919482D01*
Y1920196D02*
Y1920583D01*
Y1921514D02*
Y1921930D01*
X2141300Y1918980D02*
Y1919336D01*
Y1920139D02*
Y1920463D01*
Y1921636D02*
Y1922001D01*
X2141400Y1918964D02*
Y1919269D01*
Y1920109D02*
Y1920388D01*
Y1921716D02*
Y1922027D01*
X2141500Y1918952D02*
Y1919225D01*
Y1920080D02*
Y1920345D01*
Y1921790D02*
Y1922049D01*
X2141600Y1918939D02*
Y1919200D01*
Y1920051D02*
Y1920328D01*
Y1921810D02*
Y1922071D01*
X2141700Y1918942D02*
Y1919205D01*
Y1920071D02*
Y1920312D01*
Y1921830D02*
Y1922090D01*
X2141800Y1918956D02*
Y1919233D01*
Y1920091D02*
Y1920317D01*
Y1921825D02*
Y1922076D01*
X2141900Y1918971D02*
Y1919262D01*
Y1920129D02*
Y1920334D01*
Y1921808D02*
Y1922062D01*
X2142000Y1919006D02*
Y1919301D01*
Y1920169D02*
Y1920350D01*
Y1921792D02*
Y1922043D01*
X2142100Y1919056D02*
Y1919381D01*
Y1920246D02*
Y1920413D01*
Y1921729D02*
Y1921993D01*
X2142200Y1919108D02*
Y1919461D01*
Y1920331D02*
Y1920488D01*
Y1921654D02*
Y1921943D01*
X2142300Y1919208D02*
Y1919726D01*
Y1920417D02*
Y1920638D01*
Y1921478D02*
Y1921862D01*
X2142400Y1919308D02*
Y1920261D01*
Y1920429D02*
Y1921008D01*
Y1921126D02*
Y1921762D01*
X2142500Y1919477D02*
Y1921593D01*
X2142600Y1919721D02*
Y1921372D01*
X2142700Y1920459D02*
Y1920701D01*
X2143500Y1918978D02*
Y1919280D01*
X2143600Y1918978D02*
Y1919280D01*
X2143700Y1918978D02*
Y1919280D01*
X2144600Y1919725D02*
Y1921240D01*
X2144700Y1919409D02*
Y1921556D01*
X2144800Y1919242D02*
Y1921755D01*
X2144900Y1919164D02*
Y1919628D01*
Y1921398D02*
Y1921880D01*
X2145000Y1919093D02*
Y1919430D01*
Y1921596D02*
Y1921956D01*
X2145100Y1919021D02*
Y1919349D01*
Y1921676D02*
Y1922006D01*
X2145200Y1918998D02*
Y1919269D01*
Y1921756D02*
Y1922051D01*
X2145300Y1918976D02*
Y1919226D01*
Y1921800D02*
Y1922066D01*
X2145400Y1918953D02*
Y1919206D01*
Y1921820D02*
Y1922080D01*
X2145500Y1918936D02*
Y1919193D01*
Y1921833D02*
Y1922088D01*
X2145600Y1918951D02*
Y1919213D01*
Y1921817D02*
Y1922068D01*
X2145700Y1918965D02*
Y1919233D01*
Y1921800D02*
Y1922048D01*
X2145800Y1918986D02*
Y1919296D01*
Y1921760D02*
Y1922028D01*
X2145900Y1919036D02*
Y1919376D01*
Y1921635D02*
Y1922008D01*
X2146000Y1919086D02*
Y1919492D01*
Y1921502D02*
Y1921938D01*
X2146100Y1919187D02*
Y1919792D01*
Y1921234D02*
Y1921847D01*
X2146200Y1919313D02*
Y1921711D01*
X2146300Y1919547D02*
Y1921436D01*
X2146400Y1919935D02*
Y1921141D01*
X2147100Y1918978D02*
Y1921200D01*
X2147200Y1918978D02*
Y1921200D01*
X2147300Y1918978D02*
Y1921200D01*
X2147400Y1920595D02*
Y1920843D01*
X2147500Y1920721D02*
Y1920919D01*
X2147600Y1920841D02*
Y1921019D01*
X2147700Y1920908D02*
Y1921118D01*
X2147800Y1920937D02*
Y1921158D01*
X2147900Y1920965D02*
Y1921198D01*
X2148000Y1920984D02*
Y1921224D01*
X2148100Y1920959D02*
Y1921238D01*
X2148200Y1920927D02*
Y1921218D01*
X2148300Y1920861D02*
Y1921194D01*
X2148400Y1920707D02*
Y1921154D01*
X2148500Y1918978D02*
Y1921109D01*
X2148600Y1918978D02*
Y1921009D01*
X2148700Y1918978D02*
Y1920821D01*
X2148800Y1920621D02*
Y1920847D01*
X2148900Y1920754D02*
Y1921013D01*
X2149000Y1920847D02*
Y1921101D01*
X2149100Y1920922D02*
Y1921165D01*
X2149200Y1920955D02*
Y1921190D01*
X2149300Y1920975D02*
Y1921212D01*
X2149400Y1920982D02*
Y1921232D01*
X2149500Y1920962D02*
Y1921238D01*
X2149600Y1920942D02*
Y1921223D01*
X2149700Y1920830D02*
Y1921209D01*
X2149800Y1920646D02*
Y1921173D01*
X2149900Y1918978D02*
Y1921113D01*
X2150000Y1918978D02*
Y1920989D01*
X2150100Y1918978D02*
Y1920679D01*
X2150900Y1918978D02*
Y1921200D01*
X2151000Y1918978D02*
Y1921200D01*
X2151100Y1918978D02*
Y1921200D01*
X2151200Y1920661D02*
Y1920869D01*
X2151300Y1920781D02*
Y1920969D01*
X2151400Y1920893D02*
Y1921069D01*
X2151500Y1920922D02*
Y1921138D01*
X2151600Y1920951D02*
Y1921178D01*
X2151700Y1920980D02*
Y1921212D01*
X2151800Y1920972D02*
Y1921237D01*
X2151900Y1920947D02*
Y1921228D01*
X2152000Y1920894D02*
Y1921208D01*
X2152100Y1920807D02*
Y1921174D01*
X2152200Y1918978D02*
Y1921134D01*
X2152300Y1918978D02*
Y1921059D01*
X2152400Y1918978D02*
Y1920921D01*
X2152500Y1920362D02*
Y1920798D01*
X2152600Y1920688D02*
Y1920930D01*
X2152700Y1920809D02*
Y1921064D01*
X2152800Y1920884D02*
Y1921139D01*
X2152900Y1920945D02*
Y1921177D01*
X2153000Y1920965D02*
Y1921202D01*
X2153100Y1920985D02*
Y1921222D01*
X2153200Y1920972D02*
Y1921242D01*
X2153300Y1920952D02*
Y1921230D01*
X2153400Y1920897D02*
Y1921216D01*
X2153500Y1920763D02*
Y1921202D01*
X2153600Y1918978D02*
Y1921143D01*
X2153700Y1918978D02*
Y1921083D01*
X2153800Y1918978D02*
Y1920889D01*
X2367000Y1733309D02*
Y1734121D01*
Y1735155D02*
Y1735222D01*
X2367100Y1733134D02*
Y1734285D01*
Y1734847D02*
Y1735550D01*
X2367200Y1733004D02*
Y1734381D01*
Y1734728D02*
Y1735670D01*
X2367300Y1732942D02*
Y1733307D01*
Y1734027D02*
Y1734414D01*
Y1734651D02*
Y1735154D01*
Y1735206D02*
Y1735761D01*
X2367400Y1732879D02*
Y1733201D01*
Y1734191D02*
Y1734447D01*
Y1734591D02*
Y1734853D01*
Y1735465D02*
Y1735827D01*
X2367500Y1732819D02*
Y1733151D01*
Y1734266D02*
Y1734758D01*
Y1735560D02*
Y1735892D01*
X2367600Y1732808D02*
Y1733092D01*
Y1734337D02*
Y1734708D01*
Y1735610D02*
Y1735903D01*
X2367700Y1732796D02*
Y1733033D01*
Y1734354D02*
Y1734676D01*
Y1735643D02*
Y1735915D01*
X2367800Y1732785D02*
Y1733033D01*
Y1734370D02*
Y1734656D01*
Y1735663D02*
Y1735926D01*
X2367900Y1732778D02*
Y1733036D01*
Y1734381D02*
Y1734643D01*
Y1735675D02*
Y1735933D01*
X2368000Y1732790D02*
Y1733052D01*
Y1734364D02*
Y1734663D01*
Y1735655D02*
Y1735921D01*
X2368100Y1732801D02*
Y1733069D01*
Y1734347D02*
Y1734683D01*
Y1735635D02*
Y1735910D01*
X2368200Y1732812D02*
Y1733104D01*
Y1734313D02*
Y1734727D01*
Y1735591D02*
Y1735899D01*
X2368300Y1732840D02*
Y1733179D01*
Y1734238D02*
Y1734470D01*
Y1734553D02*
Y1734777D01*
Y1735541D02*
Y1735869D01*
X2368400Y1732903D02*
Y1733275D01*
Y1734131D02*
Y1734420D01*
Y1734613D02*
Y1734910D01*
Y1735372D02*
Y1735802D01*
X2368500Y1732965D02*
Y1733408D01*
Y1733965D02*
Y1734370D01*
Y1734673D02*
Y1735736D01*
X2368600Y1733028D02*
Y1734303D01*
Y1734766D02*
Y1735625D01*
X2368700Y1733199D02*
Y1734203D01*
Y1734922D02*
Y1735505D01*
X2368800Y1733453D02*
Y1734000D01*
X2369700Y1734874D02*
Y1735168D01*
X2369800Y1734924D02*
Y1735225D01*
X2369900Y1734974D02*
Y1735282D01*
X2370000Y1735024D02*
Y1735343D01*
X2370100Y1735089D02*
Y1735410D01*
X2370200Y1735164D02*
Y1735477D01*
X2370300Y1735239D02*
Y1735565D01*
X2370400Y1735313D02*
Y1735665D01*
X2370500Y1732821D02*
Y1735788D01*
X2370600Y1732821D02*
Y1735935D01*
X2370700Y1732821D02*
Y1735935D01*
X2372100Y1732821D02*
Y1733122D01*
X2372200Y1732821D02*
Y1733122D01*
X2372300Y1732821D02*
Y1733122D01*
X2373100Y1732821D02*
Y1732976D01*
X2373200Y1732821D02*
Y1733245D01*
Y1735127D02*
Y1735435D01*
X2373300Y1732821D02*
Y1733370D01*
Y1735116D02*
Y1735575D01*
X2373400Y1732821D02*
Y1733495D01*
Y1735105D02*
Y1735715D01*
X2373500Y1732821D02*
Y1733620D01*
Y1735346D02*
Y1735777D01*
X2373600Y1732821D02*
Y1733122D01*
Y1733314D02*
Y1733723D01*
Y1735479D02*
Y1735834D01*
X2373700Y1732821D02*
Y1733122D01*
Y1733436D02*
Y1733808D01*
Y1735557D02*
Y1735891D01*
X2373800Y1732821D02*
Y1733122D01*
Y1733511D02*
Y1733894D01*
Y1735630D02*
Y1735903D01*
X2373900Y1732821D02*
Y1733122D01*
Y1733588D02*
Y1733981D01*
Y1735647D02*
Y1735914D01*
X2374000Y1732821D02*
Y1733122D01*
Y1733671D02*
Y1734070D01*
Y1735664D02*
Y1735925D01*
X2374100Y1732821D02*
Y1733122D01*
Y1733755D02*
Y1734159D01*
Y1735676D02*
Y1735931D01*
X2374200Y1732821D02*
Y1733122D01*
Y1733840D02*
Y1734248D01*
Y1735656D02*
Y1735909D01*
X2374300Y1732821D02*
Y1733122D01*
Y1733928D02*
Y1734349D01*
Y1735636D02*
Y1735886D01*
X2374400Y1732821D02*
Y1733122D01*
Y1734015D02*
Y1734466D01*
Y1735578D02*
Y1735864D01*
X2374500Y1732821D02*
Y1733122D01*
Y1734104D02*
Y1734582D01*
Y1735503D02*
Y1735831D01*
X2374600Y1732821D02*
Y1733122D01*
Y1734224D02*
Y1734735D01*
Y1735408D02*
Y1735774D01*
X2374700Y1732821D02*
Y1733122D01*
Y1734344D02*
Y1735003D01*
Y1735182D02*
Y1735717D01*
X2374800Y1732821D02*
Y1733122D01*
Y1734475D02*
Y1735640D01*
X2374900Y1732821D02*
Y1733122D01*
Y1734671D02*
Y1735520D01*
X2375000Y1732821D02*
Y1733122D01*
Y1735023D02*
Y1735239D01*
X2375700Y1732821D02*
Y1735042D01*
X2375800Y1732821D02*
Y1735042D01*
X2375900Y1732821D02*
Y1735042D01*
X2376000Y1732821D02*
Y1735042D01*
X2376100Y1734506D02*
Y1734713D01*
X2376200Y1734626D02*
Y1734813D01*
X2376300Y1734737D02*
Y1734913D01*
X2376400Y1734766D02*
Y1734981D01*
X2376500Y1734794D02*
Y1735021D01*
X2376600Y1734823D02*
Y1735055D01*
X2376700Y1734814D02*
Y1735080D01*
X2376800Y1734789D02*
Y1735070D01*
X2376900Y1734735D02*
Y1735050D01*
X2377000Y1734645D02*
Y1735016D01*
X2377100Y1732821D02*
Y1734976D01*
X2377200Y1732821D02*
Y1734899D01*
X2377300Y1732821D02*
Y1734759D01*
X2377400Y1734220D02*
Y1734641D01*
X2377500Y1734533D02*
Y1734776D01*
X2377600Y1734654D02*
Y1734908D01*
X2377700Y1734729D02*
Y1734983D01*
X2377800Y1734788D02*
Y1735020D01*
X2377900Y1734808D02*
Y1735045D01*
X2378000Y1734828D02*
Y1735065D01*
X2378100Y1734814D02*
Y1735085D01*
X2378200Y1734794D02*
Y1735073D01*
X2378300Y1734736D02*
Y1735058D01*
X2378400Y1734603D02*
Y1735044D01*
X2378500Y1732821D02*
Y1734984D01*
X2378600Y1732821D02*
Y1734924D01*
X2378700Y1732821D02*
Y1734727D01*
X2379500Y1732821D02*
Y1735042D01*
X2379600Y1732821D02*
Y1735042D01*
X2379700Y1732821D02*
Y1735042D01*
X2379800Y1734443D02*
Y1734685D01*
X2379900Y1734566D02*
Y1734763D01*
X2380000Y1734686D02*
Y1734863D01*
X2380100Y1734751D02*
Y1734961D01*
X2380200Y1734780D02*
Y1735001D01*
X2380300Y1734808D02*
Y1735041D01*
X2380400Y1734826D02*
Y1735068D01*
X2380500Y1734801D02*
Y1735080D01*
X2380600Y1734768D02*
Y1735060D01*
X2380700Y1734702D02*
Y1735036D01*
X2380800Y1734545D02*
Y1734996D01*
X2380900Y1732821D02*
Y1734949D01*
X2381000Y1732821D02*
Y1734849D01*
X2381100Y1732821D02*
Y1734660D01*
X2381200Y1734467D02*
Y1734693D01*
X2381300Y1734600D02*
Y1734860D01*
X2381400Y1734691D02*
Y1734945D01*
X2381500Y1734766D02*
Y1735008D01*
X2381600Y1734798D02*
Y1735033D01*
X2381700Y1734818D02*
Y1735055D01*
X2381800Y1734824D02*
Y1735075D01*
X2381900Y1734804D02*
Y1735080D01*
X2382000Y1734784D02*
Y1735065D01*
X2382100Y1734669D02*
Y1735051D01*
X2382200Y1734481D02*
Y1735014D01*
X2382300Y1732821D02*
Y1734954D01*
X2382400Y1732821D02*
Y1734827D01*
X2382500Y1732821D02*
Y1734505D01*
*
G04 PC Custom Flashes*
G04 Layer Name WIFI_FLASH_MODULE_UPDAT - flashes*
%LPD*%
*
*
G04 PC Circuitry*
G04 Layer Name WIFI_FLASH_MODULE_UPDAT - circuitry*
%LPD*%
*
G54D10*
X1950804Y1894403D02*
X1950807D01*
X2340504Y1893903D02*
X2340507D01*
X2340551Y1574803D02*
X2340554D01*
X2340551Y1894488D02*
X2340554D01*
G54D17*
X2004704Y1645551D03*
X1998404D03*
G54D19*
X2036420Y1644961D03*
G54D22*
X1988192Y1586614D03*
X1996066D03*
X2003940D03*
X2011814D03*
X2019688D03*
X2027562D03*
X2035436D03*
X1972444Y1578740D03*
X1980318D03*
X1988192D03*
X1996066D03*
X2003940D03*
X2011814D03*
X2019688D03*
X2027562D03*
X2035436D03*
G54D24*
X2038520Y1646694D02*
Y1648606D01*
G75*
G03X2038370Y1648756I-150J0D01*
G01X1993704*
G03X1993554Y1648606I-0J-150*
G01Y1642520*
X1992704Y1641670D02*
G03X1993554Y1642520I-0J850D01*
G01X1992704Y1641670D02*
X1969504D01*
G03X1969354Y1641520I-0J-150*
G01Y1587984*
G03X1969643Y1587928I150J-0*
G01X1969991Y1588565D02*
G03X1969643Y1587928I2453J-1754D01*
G01X1969991Y1588565D02*
G03X1970019Y1588652I-122J87D01*
G01Y1590201*
X1972134Y1595333D02*
G03X1970019Y1590201I5169J-5132D01*
G01X1972134Y1595333D02*
X1974563Y1597779D01*
G03X1975579Y1600244I-2483J2465*
G01Y1619479*
X1977650Y1624478D02*
G03X1975579Y1619479I5000J-4999D01*
G01X1977650Y1624478D02*
X1978994Y1625823D01*
X1983835Y1627828D02*
G03X1978994Y1625823I0J-6846D01*
G01X1983835Y1627828D02*
X1986860D01*
G03X1988658Y1628166I-0J4955*
X1988754Y1628306I-54J140*
G01Y1630906*
X1989801Y1631953D02*
G03X1988754Y1630906I-0J-1047D01*
G01X1989801Y1631953D02*
X1997007D01*
X1998052Y1630977D02*
G03X1997007Y1631953I-1045J-71D01*
G01X1998052Y1630977D02*
G03X1998201Y1630837I149J10D01*
G01X2000704*
X2007856Y1627944D02*
G03X2000704Y1630837I-7152J-7393D01*
G01X2007856Y1627944D02*
G03X2007860Y1627940I104J108D01*
X2009704Y1627237I1844J2067*
G01X2019904*
X2019972Y1627236D02*
G03X2019904Y1627237I-68J-1833D01*
G01X2019972Y1627236D02*
G03X2019988I5J150D01*
G01X2020104Y1627241D02*
G03X2019988Y1627236I-0J-1638D01*
G01X2020104Y1627241D02*
X2023204D01*
X2023373Y1623974D02*
G03X2023204Y1627241I-169J1629D01*
G01X2023373Y1623974D02*
G03X2023238Y1623825I15J-149D01*
G01Y1615203*
X2022701Y1613906D02*
G03X2023238Y1615203I-1297J1297D01*
G01X2022701Y1613906D02*
X2022001Y1613206D01*
X2019410Y1613203D02*
G03X2022001Y1613206I1294J1300D01*
G01X2019410Y1613203D02*
G03X2019154Y1613097I-106J-106D01*
G01Y1602603*
X2018817Y1601790D02*
G03X2019154Y1602603I-813J813D01*
G01X2018817Y1601790D02*
X2015468Y1598441D01*
G03X2015635Y1598198I106J-106*
G01X2017916Y1596416D02*
G03X2015635Y1598198I-1612J287D01*
G01X2017916Y1596416D02*
G03X2018067Y1596240I148J-26D01*
G01X2018820Y1596076D02*
G03X2018067Y1596240I-716J-1473D01*
G01X2018820Y1596076D02*
G03X2019030Y1596252I66J135D01*
G01X2022010Y1595863D02*
G03X2019030Y1596252I-1406J840D01*
G01X2022010Y1595863D02*
G03X2021994Y1595827I128J-77D01*
G01X2021760Y1594990*
G03X2021754Y1594950I144J-40*
G01Y1594111*
G03X2021798Y1594005I150J-0*
G01X2024839Y1590964*
G03X2024891Y1590930I106J106*
G01X2027777Y1589826*
G03X2027819Y1589816I53J140*
G01X2024360Y1586358D02*
G03X2027819Y1589816I3202J256D01*
G01X2024360Y1586358D02*
G03X2024351Y1586400I-149J-12D01*
G01X2023247Y1589285*
G03X2023212Y1589338I-141J-54*
G01X2019791Y1592759*
X2019577Y1593055D02*
G03X2019791Y1592759I1027J517D01*
G01X2019577Y1593055D02*
G03X2019298Y1593028I-134J-67D01*
G01X2019260Y1592890*
G03X2019254Y1592850I144J-40*
G01Y1589964*
G03X2019417Y1589815I150J0*
G01X2017124Y1584680D02*
G03X2019417Y1589815I2564J1934D01*
G01X2017124Y1584680D02*
G03X2016854Y1584589I-120J-91D01*
G01Y1583353*
G03X2016897Y1583249I150J0*
G01X2017019Y1583123*
G03X2017071Y1583089I107J105*
G01X2019943Y1581949*
G03X2019984Y1581939I55J139*
G01X2021252Y1575934D02*
G03X2019984Y1581939I-1564J2806D01*
G01X2021252Y1575934D02*
G03X2021325Y1575653I73J-131D01*
G01X2038370*
G03X2038520Y1575803I0J150*
G01Y1643227*
G03X2038297Y1643358I-150J0*
G01X2037405Y1643126D02*
G03X2038297Y1643358I-0J1835D01*
G01X2037405Y1643126D02*
X2035436D01*
Y1646795D02*
G03Y1643126I0J-1834D01*
G01Y1646795D02*
X2037405D01*
X2038297Y1646563D02*
G03X2037405Y1646795I-892J-1602D01*
G01X2038297Y1646563D02*
G03X2038520Y1646694I73J131D01*
G01X2019570Y1623041D02*
Y1623081D01*
G03X2019526Y1623187I-150J0*
G01X2019188Y1623525*
G03X2019082Y1623569I-106J-106*
G01X2009704*
X2006402Y1624480D02*
G03X2009704Y1623569I3302J5527D01*
G01X2006402Y1624480D02*
G03X2006189Y1624414I-77J-129D01*
G01X2005787Y1623875D02*
G03X2006189Y1624414I-1083J1228D01*
G01X2005787Y1623875D02*
G03X2005750Y1623825I99J-112D01*
G01X2005517Y1623490D02*
G03X2005750Y1623825I-813J813D01*
G01X2005517Y1623490D02*
X2004398Y1622371D01*
G03X2004354Y1622265I106J-106*
G01Y1620103*
X2004017Y1619290D02*
G03X2004354Y1620103I-813J813D01*
G01X2004017Y1619290D02*
X2001498Y1616771D01*
G03X2001454Y1616665I106J-106*
G01Y1596142*
G03X2001498Y1596036I150J-0*
G01X2008717Y1588816*
X2008941Y1588501D02*
G03X2008717Y1588816I-1037J-498D01*
G01X2008941Y1588501D02*
G03X2009198Y1588478I135J64D01*
G01X2012523Y1589747D02*
G03X2009198Y1588478I-709J-3133D01*
G01X2012523Y1589747D02*
G03X2012662Y1589788I33J147D01*
G01X2012710Y1589836*
G03X2012754Y1589942I-106J106*
G01Y1598503*
X2013091Y1599316D02*
G03X2012754Y1598503I813J-813D01*
G01X2013091Y1599316D02*
X2016810Y1603036D01*
G03X2016854Y1603142I-106J106*
G01Y1615303*
X2017062Y1615963D02*
G03X2016854Y1615303I942J-660D01*
G01X2017062Y1615963D02*
X2017527Y1616627D01*
G03X2017554Y1616713I-123J86*
G01Y1619650*
G03X2017548Y1619690I-150J-0*
G01X2017314Y1620527*
G03X2017298Y1620563I-145J-41*
G01X2019360Y1622904D02*
G03X2017298Y1620563I-656J-1501D01*
G01X2019360Y1622904D02*
G03X2019570Y1623041I60J137D01*
G01X1998854Y1588699D02*
Y1591365D01*
G03X1998810Y1591471I-150J-0*
G01X1996891Y1593390*
X1996554Y1594203D02*
G03X1996891Y1593390I1150J0D01*
G01X1996554Y1594203D02*
Y1598859D01*
G03X1996328Y1598988I-150J-0*
G01X1994863Y1598897D02*
G03X1996328Y1598988I641J1506D01*
G01X1994863Y1598897D02*
G03X1994654Y1598758I-59J-139D01*
G01Y1589781*
G03X1994805Y1589631I150J0*
G01X1994942Y1589632*
G03X1994991Y1589641I-2J150*
G01X1998586Y1588606D02*
G03X1994991Y1589641I-2520J-1992D01*
G01X1998586Y1588606D02*
G03X1998854Y1588699I118J93D01*
G01X1992340Y1612136D02*
G03X1992206Y1612353I-134J67D01*
G01X1991142*
G03X1991036Y1612309I0J-150*
G01X1984898Y1606171*
G03X1984854Y1606065I106J-106*
G01Y1595203*
X1984519Y1594392D02*
G03X1984854Y1595203I-815J811D01*
G01X1984519Y1594392D02*
X1981512Y1591372D01*
G03X1981468Y1591266I106J-106*
G01Y1591173*
G03X1981481Y1591114I150J0*
G01X1982469Y1588839*
G03X1982491Y1588803I137J60*
G01X1982868Y1588208D02*
G03X1982491Y1588803I-2550J-1200D01*
G01X1982868Y1588208D02*
G03X1983154Y1588272I136J64D01*
G01Y1588403*
X1983491Y1589216D02*
G03X1983154Y1588403I813J-813D01*
G01X1983491Y1589216D02*
X1988310Y1594036D01*
G03X1988354Y1594142I-106J106*
G01Y1597659*
G03X1988128Y1597788I-150J-0*
G01Y1600618D02*
G03Y1597788I-824J-1415D01*
G01Y1600618D02*
G03X1988354Y1600747I76J129D01*
G01Y1607003*
X1988681Y1607807D02*
G03X1988354Y1607003I823J-804D01*
G01X1988681Y1607807D02*
X1991756Y1610953D01*
G03X1991780Y1610986I-107J105*
G01X1992197Y1611748*
G03X1992212Y1611785I-131J72*
G01X1992340Y1612136D02*
G03X1992212Y1611785I1464J-733D01*
G01X2000996Y1626880D02*
G03X2000936Y1627165I-65J135D01*
X2000704Y1627169I-232J-6614*
G01X1998142*
G03X1997999Y1627067I-0J-150*
G01X1997007Y1626353D02*
G03X1997999Y1627067I0J1047D01*
G01X1997007Y1626353D02*
X1995338D01*
G03X1995225Y1626302I-0J-150*
G01X1994535Y1625758D02*
G03X1995225Y1626302I-1131J2145D01*
G01X1994535Y1625758D02*
X1991846Y1624341D01*
G03X1991840Y1624337I70J-133*
G01X1986860Y1622978D02*
G03X1991840Y1624337I-0J9805D01*
G01X1986860Y1622978D02*
X1983835D01*
G03X1982424Y1622394I0J-1996*
G01X1981079Y1621049*
G03X1980429Y1619479I1571J-1570*
G01Y1608916*
G03X1980685Y1608810I150J0*
G01X1992491Y1620616*
X1993304Y1620953D02*
G03X1992491Y1620616I-0J-1150D01*
G01X1993304Y1620953D02*
X1995865D01*
G03X1995972Y1620997I0J150*
G01X1996123Y1621149*
G03X1996167Y1621251I-106J106*
G01X1997928Y1622836D02*
G03X1996167Y1621251I-124J-1633D01*
G01X1997928Y1622836D02*
G03X1998087Y1622962I11J149D01*
G01X2000146Y1624280D02*
G03X1998087Y1622962I-442J-1577D01*
G01X2000146Y1624280D02*
G03X2000331Y1624465I41J144D01*
G01X2000314Y1624527*
G03X2000298Y1624563I-145J-41*
G01X2000996Y1626880D02*
G03X2000298Y1624563I708J-1477D01*
G01X2004900Y1642733D02*
G03Y1648370I0J2818D01*
G01Y1642733D02*
X2004507D01*
Y1648370D02*
G03Y1642733I-0J-2819D01*
G01Y1648370D02*
X2004900D01*
X1984810Y1619263D02*
G03X1981998I-1406J840D01*
G01X1984810D02*
G03X1984794Y1619227I128J-77D01*
G01X1984560Y1618390*
G03X1984554Y1618350I144J-40*
G01Y1616557*
G03X1984560Y1616516I150J-0*
G01X1984794Y1615679*
G03X1984810Y1615643I144J41*
G01X1981998D02*
G03X1984810I1406J-840D01*
G01X1981998D02*
G03X1982014Y1615679I-129J77D01*
G01X1982248Y1616516*
G03X1982254Y1616557I-144J41*
G01Y1618350*
G03X1982248Y1618390I-150J-0*
G01X1982014Y1619227*
G03X1981998Y1619263I-145J-41*
G01X1993554Y1648552D02*
X2038520D01*
X2006100Y1648102D02*
X2038520D01*
X2006780Y1647652D02*
X2038520D01*
X2007185Y1647202D02*
X2038520D01*
X2037800Y1646752D02*
X2038520D01*
X2037710Y1643152D02*
X2038520D01*
X1993554Y1642702D02*
X2038520D01*
X1993511Y1642252D02*
X2038520D01*
X1993159Y1641802D02*
X2038520D01*
X1969354Y1641352D02*
X2038520D01*
X1969354Y1640902D02*
X2038520D01*
X1969354Y1640452D02*
X2038520D01*
X1969354Y1640002D02*
X2038520D01*
X1969354Y1639552D02*
X2038520D01*
X1969354Y1639102D02*
X2038520D01*
X1969354Y1638652D02*
X2038520D01*
X1969354Y1638202D02*
X2038520D01*
X1969354Y1637752D02*
X2038520D01*
X1969354Y1637302D02*
X2038520D01*
X1969354Y1636852D02*
X2038520D01*
X1969354Y1636402D02*
X2038520D01*
X1969354Y1635952D02*
X2038520D01*
X1969354Y1635502D02*
X2038520D01*
X1969354Y1635052D02*
X2038520D01*
X1969354Y1634602D02*
X2038520D01*
X1969354Y1634152D02*
X2038520D01*
X1969354Y1633702D02*
X2038520D01*
X1969354Y1633252D02*
X2038520D01*
X1969354Y1632802D02*
X2038520D01*
X1969354Y1632352D02*
X2038520D01*
X1997331Y1631902D02*
X2038520D01*
X1997901Y1631452D02*
X2038520D01*
X1998050Y1631002D02*
X2038520D01*
X2003111Y1630552D02*
X2038520D01*
X2004524Y1630102D02*
X2038520D01*
X2005498Y1629652D02*
X2038520D01*
X2006269Y1629202D02*
X2038520D01*
X2006913Y1628752D02*
X2038520D01*
X2007467Y1628302D02*
X2038520D01*
X2007964Y1627852D02*
X2038520D01*
X2008764Y1627402D02*
X2038520D01*
X2024132Y1626952D02*
X2038520D01*
X2024573Y1626502D02*
X2038520D01*
X2024779Y1626052D02*
X2038520D01*
X2024841Y1625602D02*
X2038520D01*
X2024778Y1625152D02*
X2038520D01*
X2024571Y1624702D02*
X2038520D01*
X2024129Y1624252D02*
X2038520D01*
X2023238Y1623802D02*
X2038520D01*
X2023238Y1623352D02*
X2038520D01*
X2023238Y1622902D02*
X2038520D01*
X2023238Y1622452D02*
X2038520D01*
X2023238Y1622002D02*
X2038520D01*
X2023238Y1621552D02*
X2038520D01*
X2023238Y1621102D02*
X2038520D01*
X2023238Y1620652D02*
X2038520D01*
X2023238Y1620202D02*
X2038520D01*
X2023238Y1619752D02*
X2038520D01*
X2023238Y1619302D02*
X2038520D01*
X2023238Y1618852D02*
X2038520D01*
X2023238Y1618402D02*
X2038520D01*
X2023238Y1617952D02*
X2038520D01*
X2023238Y1617502D02*
X2038520D01*
X2023238Y1617052D02*
X2038520D01*
X2023238Y1616602D02*
X2038520D01*
X2023238Y1616152D02*
X2038520D01*
X2023238Y1615702D02*
X2038520D01*
X2023238Y1615252D02*
X2038520D01*
X2023194Y1614802D02*
X2038520D01*
X2023029Y1614352D02*
X2038520D01*
X2022697Y1613902D02*
X2038520D01*
X2022247Y1613452D02*
X2038520D01*
X2021758Y1613002D02*
X2038520D01*
X2019154Y1612552D02*
X2038520D01*
X2019154Y1612102D02*
X2038520D01*
X2019154Y1611652D02*
X2038520D01*
X2019154Y1611202D02*
X2038520D01*
X2019154Y1610752D02*
X2038520D01*
X2019154Y1610302D02*
X2038520D01*
X2019154Y1609852D02*
X2038520D01*
X2019154Y1609402D02*
X2038520D01*
X2019154Y1608952D02*
X2038520D01*
X2019154Y1608502D02*
X2038520D01*
X2019154Y1608052D02*
X2038520D01*
X2019154Y1607602D02*
X2038520D01*
X2019154Y1607152D02*
X2038520D01*
X2019154Y1606702D02*
X2038520D01*
X2019154Y1606252D02*
X2038520D01*
X2019154Y1605802D02*
X2038520D01*
X2019154Y1605352D02*
X2038520D01*
X2019154Y1604902D02*
X2038520D01*
X2019154Y1604452D02*
X2038520D01*
X2019154Y1604002D02*
X2038520D01*
X2019154Y1603552D02*
X2038520D01*
X2019154Y1603102D02*
X2038520D01*
X2019154Y1602652D02*
X2038520D01*
X2019082Y1602202D02*
X2038520D01*
X2018779Y1601752D02*
X2038520D01*
X2018329Y1601302D02*
X2038520D01*
X2017879Y1600852D02*
X2038520D01*
X2017429Y1600402D02*
X2038520D01*
X2016979Y1599952D02*
X2038520D01*
X2016529Y1599502D02*
X2038520D01*
X2016079Y1599052D02*
X2038520D01*
X2015629Y1598602D02*
X2038520D01*
X2021367Y1598152D02*
X2038520D01*
X2021902Y1597702D02*
X2038520D01*
X2022147Y1597252D02*
X2038520D01*
X2022238Y1596802D02*
X2038520D01*
X2022203Y1596352D02*
X2038520D01*
X2022032Y1595902D02*
X2038520D01*
X2021889Y1595452D02*
X2038520D01*
X2021763Y1595002D02*
X2038520D01*
X2021754Y1594552D02*
X2038520D01*
X2021754Y1594102D02*
X2038520D01*
X2022151Y1593652D02*
X2038520D01*
X2022601Y1593202D02*
X2038520D01*
X2023051Y1592752D02*
X2038520D01*
X2023501Y1592302D02*
X2038520D01*
X2023951Y1591852D02*
X2038520D01*
X2024401Y1591402D02*
X2038520D01*
X2024852Y1590952D02*
X2038520D01*
X2026010Y1590502D02*
X2038520D01*
X2027186Y1590052D02*
X2038520D01*
X2028742Y1589602D02*
X2038520D01*
X2029532Y1589152D02*
X2038520D01*
X2030004Y1588702D02*
X2038520D01*
X2030326Y1588252D02*
X2038520D01*
X2030547Y1587802D02*
X2038520D01*
X2030689Y1587352D02*
X2038520D01*
X2030762Y1586902D02*
X2038520D01*
X2030770Y1586452D02*
X2038520D01*
X2030716Y1586002D02*
X2038520D01*
X2030594Y1585552D02*
X2038520D01*
X2030396Y1585102D02*
X2038520D01*
X2030105Y1584652D02*
X2038520D01*
X2029683Y1584202D02*
X2038520D01*
X2029020Y1583752D02*
X2038520D01*
X2016863Y1583302D02*
X2038520D01*
X2017667Y1582852D02*
X2038520D01*
X2018801Y1582402D02*
X2038520D01*
X2019935Y1581952D02*
X2038520D01*
X2021329Y1581502D02*
X2038520D01*
X2021919Y1581052D02*
X2038520D01*
X2022306Y1580602D02*
X2038520D01*
X2022574Y1580152D02*
X2038520D01*
X2022753Y1579702D02*
X2038520D01*
X2022859Y1579252D02*
X2038520D01*
X2022900Y1578802D02*
X2038520D01*
X2022877Y1578352D02*
X2038520D01*
X2022789Y1577902D02*
X2038520D01*
X2022631Y1577452D02*
X2038520D01*
X2022389Y1577002D02*
X2038520D01*
X2022040Y1576552D02*
X2038520D01*
X2021521Y1576102D02*
X2038520D01*
X2006379Y1643152D02*
X2035131D01*
X2007450Y1646752D02*
X2035041D01*
X2006936Y1643602D02*
X2034204D01*
X2007617Y1646302D02*
X2034185D01*
X2007287Y1644052D02*
X2033843D01*
X2007703Y1645852D02*
X2033833D01*
X2007516Y1644502D02*
X2033660D01*
X2007715Y1645402D02*
X2033656D01*
X2007654Y1644952D02*
X2033602D01*
X2021146Y1583752D02*
X2026104D01*
X2021809Y1584202D02*
X2025441D01*
X2022231Y1584652D02*
X2025019D01*
X2022522Y1585102D02*
X2024728D01*
X2022720Y1585552D02*
X2024531D01*
X2022842Y1586002D02*
X2024409D01*
X2022896Y1586452D02*
X2024331D01*
X2022888Y1586902D02*
X2024159D01*
X2022815Y1587352D02*
X2023986D01*
X2022673Y1587802D02*
X2023814D01*
X2022452Y1588252D02*
X2023642D01*
X2022129Y1588702D02*
X2023470D01*
X2021658Y1589152D02*
X2023297D01*
X2020868Y1589602D02*
X2022948D01*
X2019254Y1590052D02*
X2022498D01*
X2019254Y1590502D02*
X2022048D01*
X2019254Y1590952D02*
X2021598D01*
X2019254Y1591402D02*
X2021148D01*
X2019254Y1591852D02*
X2020698D01*
X2019254Y1592302D02*
X2020248D01*
X2017067Y1598152D02*
X2019841D01*
X2019254Y1592752D02*
X2019798D01*
X2019154Y1613002D02*
X2019650D01*
X2017602Y1597702D02*
X2019306D01*
X2017847Y1597252D02*
X2019061D01*
X2017919Y1596352D02*
X2019005D01*
X2017938Y1596802D02*
X2018969D01*
X2016854Y1583752D02*
X2018230D01*
X2016854Y1584202D02*
X2017567D01*
X2016868Y1584652D02*
X2017145D01*
X1993554Y1648102D02*
X2003307D01*
X1993554Y1643152D02*
X2003028D01*
X1993554Y1647652D02*
X2002628D01*
X1993554Y1643602D02*
X2002471D01*
X1993554Y1647202D02*
X2002222D01*
X1993554Y1644052D02*
X2002120D01*
X1993554Y1646752D02*
X2001957D01*
X1993554Y1644502D02*
X2001891D01*
X1993554Y1646302D02*
X2001790D01*
X1993554Y1644952D02*
X2001753D01*
X1993554Y1645852D02*
X2001704D01*
X1993554Y1645402D02*
X2001692D01*
X1969354Y1631902D02*
X1989477D01*
X1969354Y1631452D02*
X1988907D01*
X1969354Y1631002D02*
X1988758D01*
X1969354Y1630552D02*
X1988754D01*
X1969354Y1630102D02*
X1988754D01*
X1969354Y1629652D02*
X1988754D01*
X1969354Y1629202D02*
X1988754D01*
X1969354Y1628752D02*
X1988754D01*
X1969354Y1628302D02*
X1988754D01*
X1969354Y1627852D02*
X1987346D01*
X1969354Y1627402D02*
X1981458D01*
X1969354Y1626952D02*
X1980484D01*
X1969354Y1626502D02*
X1979786D01*
X1969354Y1626052D02*
X1979235D01*
X1969354Y1625602D02*
X1978773D01*
X1969354Y1625152D02*
X1978323D01*
X1969354Y1624702D02*
X1977873D01*
X1969354Y1624252D02*
X1977433D01*
X1969354Y1623802D02*
X1977055D01*
X1969354Y1623352D02*
X1976734D01*
X1969354Y1622902D02*
X1976463D01*
X1969354Y1622452D02*
X1976235D01*
X1969354Y1622002D02*
X1976045D01*
X1969354Y1621552D02*
X1975890D01*
X1969354Y1621102D02*
X1975768D01*
X1969354Y1620652D02*
X1975677D01*
X1969354Y1620202D02*
X1975616D01*
X1969354Y1619752D02*
X1975584D01*
X1969354Y1619302D02*
X1975579D01*
X1969354Y1618852D02*
X1975579D01*
X1969354Y1618402D02*
X1975579D01*
X1969354Y1617952D02*
X1975579D01*
X1969354Y1617502D02*
X1975579D01*
X1969354Y1617052D02*
X1975579D01*
X1969354Y1616602D02*
X1975579D01*
X1969354Y1616152D02*
X1975579D01*
X1969354Y1615702D02*
X1975579D01*
X1969354Y1615252D02*
X1975579D01*
X1969354Y1614802D02*
X1975579D01*
X1969354Y1614352D02*
X1975579D01*
X1969354Y1613902D02*
X1975579D01*
X1969354Y1613452D02*
X1975579D01*
X1969354Y1613002D02*
X1975579D01*
X1969354Y1612552D02*
X1975579D01*
X1969354Y1612102D02*
X1975579D01*
X1969354Y1611652D02*
X1975579D01*
X1969354Y1611202D02*
X1975579D01*
X1969354Y1610752D02*
X1975579D01*
X1969354Y1610302D02*
X1975579D01*
X1969354Y1609852D02*
X1975579D01*
X1969354Y1609402D02*
X1975579D01*
X1969354Y1608952D02*
X1975579D01*
X1969354Y1608502D02*
X1975579D01*
X1969354Y1608052D02*
X1975579D01*
X1969354Y1607602D02*
X1975579D01*
X1969354Y1607152D02*
X1975579D01*
X1969354Y1606702D02*
X1975579D01*
X1969354Y1606252D02*
X1975579D01*
X1969354Y1605802D02*
X1975579D01*
X1969354Y1605352D02*
X1975579D01*
X1969354Y1604902D02*
X1975579D01*
X1969354Y1604452D02*
X1975579D01*
X1969354Y1604002D02*
X1975579D01*
X1969354Y1603552D02*
X1975579D01*
X1969354Y1603102D02*
X1975579D01*
X1969354Y1602652D02*
X1975579D01*
X1969354Y1602202D02*
X1975579D01*
X1969354Y1601752D02*
X1975579D01*
X1969354Y1601302D02*
X1975579D01*
X1969354Y1600852D02*
X1975579D01*
X1969354Y1600402D02*
X1975579D01*
X1969354Y1599952D02*
X1975567D01*
X1969354Y1599502D02*
X1975499D01*
X1969354Y1599052D02*
X1975370D01*
X1969354Y1598602D02*
X1975170D01*
X1969354Y1598152D02*
X1974884D01*
X1969354Y1597702D02*
X1974486D01*
X1969354Y1597252D02*
X1974040D01*
X1969354Y1596802D02*
X1973593D01*
X1969354Y1596352D02*
X1973146D01*
X1969354Y1595902D02*
X1972699D01*
X1969354Y1595452D02*
X1972253D01*
X1969354Y1595002D02*
X1971826D01*
X1969354Y1594552D02*
X1971462D01*
X1969354Y1594102D02*
X1971152D01*
X1969354Y1593652D02*
X1970889D01*
X1969354Y1593202D02*
X1970666D01*
X1969354Y1592752D02*
X1970481D01*
X1969354Y1592302D02*
X1970329D01*
X1969354Y1591852D02*
X1970209D01*
X1969354Y1591402D02*
X1970119D01*
X1969354Y1590952D02*
X1970058D01*
X1969354Y1590502D02*
X1970026D01*
X1969354Y1590052D02*
X1970019D01*
X1969354Y1589602D02*
X1970019D01*
X1969354Y1589152D02*
X1970019D01*
X1969354Y1588702D02*
X1970019D01*
X1969354Y1588252D02*
X1969795D01*
X2005091Y1623064D02*
X2019570D01*
X2005541Y1623514D02*
X2019199D01*
X2004641Y1622614D02*
X2017602D01*
X2004160Y1619464D02*
X2017554D01*
X2003741Y1619014D02*
X2017554D01*
X2003291Y1618564D02*
X2017554D01*
X2002841Y1618114D02*
X2017554D01*
X2002391Y1617664D02*
X2017554D01*
X2001941Y1617214D02*
X2017554D01*
X2001492Y1616764D02*
X2017554D01*
X2004338Y1619914D02*
X2017486D01*
X2004354Y1620364D02*
X2017360D01*
X2001454Y1616314D02*
X2017308D01*
X2004354Y1622164D02*
X2017254D01*
X2004354Y1620814D02*
X2017176D01*
X2004354Y1621714D02*
X2017096D01*
X2004354Y1621264D02*
X2017072D01*
X2001454Y1615864D02*
X2017000D01*
X2001454Y1615414D02*
X2016859D01*
X2001454Y1614964D02*
X2016854D01*
X2001454Y1614514D02*
X2016854D01*
X2001454Y1614064D02*
X2016854D01*
X2001454Y1613614D02*
X2016854D01*
X2001454Y1613164D02*
X2016854D01*
X2001454Y1612714D02*
X2016854D01*
X2001454Y1612264D02*
X2016854D01*
X2001454Y1611814D02*
X2016854D01*
X2001454Y1611364D02*
X2016854D01*
X2001454Y1610914D02*
X2016854D01*
X2001454Y1610464D02*
X2016854D01*
X2001454Y1610014D02*
X2016854D01*
X2001454Y1609564D02*
X2016854D01*
X2001454Y1609114D02*
X2016854D01*
X2001454Y1608664D02*
X2016854D01*
X2001454Y1608214D02*
X2016854D01*
X2001454Y1607764D02*
X2016854D01*
X2001454Y1607314D02*
X2016854D01*
X2001454Y1606864D02*
X2016854D01*
X2001454Y1606414D02*
X2016854D01*
X2001454Y1605964D02*
X2016854D01*
X2001454Y1605514D02*
X2016854D01*
X2001454Y1605064D02*
X2016854D01*
X2001454Y1604614D02*
X2016854D01*
X2001454Y1604164D02*
X2016854D01*
X2001454Y1603714D02*
X2016854D01*
X2001454Y1603264D02*
X2016854D01*
X2001454Y1602814D02*
X2016589D01*
X2001454Y1602364D02*
X2016139D01*
X2001454Y1601914D02*
X2015689D01*
X2001454Y1601464D02*
X2015239D01*
X2001454Y1601014D02*
X2014789D01*
X2001454Y1600564D02*
X2014339D01*
X2001454Y1600114D02*
X2013889D01*
X2001454Y1599664D02*
X2013439D01*
X2001454Y1599214D02*
X2013000D01*
X2001454Y1598764D02*
X2012784D01*
X2001454Y1598314D02*
X2012754D01*
X2001454Y1597864D02*
X2012754D01*
X2001454Y1597414D02*
X2012754D01*
X2001454Y1596964D02*
X2012754D01*
X2001454Y1596514D02*
X2012754D01*
X2001476Y1596064D02*
X2012754D01*
X2001919Y1595614D02*
X2012754D01*
X2002369Y1595164D02*
X2012754D01*
X2002819Y1594714D02*
X2012754D01*
X2003269Y1594264D02*
X2012754D01*
X2003719Y1593814D02*
X2012754D01*
X2004169Y1593364D02*
X2012754D01*
X2004619Y1592914D02*
X2012754D01*
X2005069Y1592464D02*
X2012754D01*
X2005519Y1592014D02*
X2012754D01*
X2005969Y1591564D02*
X2012754D01*
X2006419Y1591114D02*
X2012754D01*
X2006869Y1590664D02*
X2012754D01*
X2007319Y1590214D02*
X2012754D01*
X2012444Y1589764D02*
X2012632D01*
X2007769D02*
X2011185D01*
X2008219Y1589314D02*
X2010074D01*
X2008669Y1588864D02*
X2009522D01*
X2005880Y1623964D02*
X2007483D01*
X2006189Y1624414D02*
X2006515D01*
X1994654Y1591248D02*
X1998854D01*
X1994654Y1590798D02*
X1998854D01*
X1994654Y1590348D02*
X1998854D01*
X1994654Y1589898D02*
X1998854D01*
X1997579Y1589448D02*
X1998854D01*
X1998220Y1588998D02*
X1998854D01*
X1994654Y1591698D02*
X1998583D01*
X1994654Y1592148D02*
X1998133D01*
X1994654Y1592598D02*
X1997683D01*
X1994654Y1593048D02*
X1997233D01*
X1994654Y1593498D02*
X1996796D01*
X1994654Y1593948D02*
X1996583D01*
X1994654Y1598448D02*
X1996554D01*
X1994654Y1597998D02*
X1996554D01*
X1994654Y1597548D02*
X1996554D01*
X1994654Y1597098D02*
X1996554D01*
X1994654Y1596648D02*
X1996554D01*
X1994654Y1596198D02*
X1996554D01*
X1994654Y1595748D02*
X1996554D01*
X1994654Y1595298D02*
X1996554D01*
X1994654Y1594848D02*
X1996554D01*
X1994654Y1594398D02*
X1996554D01*
X1996148Y1598898D02*
X1996549D01*
X1994748D02*
X1994860D01*
X1990698Y1611971D02*
X1992268D01*
X1990248Y1611521D02*
X1992073D01*
X1989798Y1611071D02*
X1991827D01*
X1989348Y1610621D02*
X1991431D01*
X1988898Y1610171D02*
X1990992D01*
X1988448Y1609721D02*
X1990552D01*
X1987998Y1609271D02*
X1990112D01*
X1987548Y1608821D02*
X1989672D01*
X1987098Y1608371D02*
X1989233D01*
X1986648Y1607921D02*
X1988793D01*
X1986198Y1607471D02*
X1988453D01*
X1985748Y1607021D02*
X1988354D01*
X1985298Y1606571D02*
X1988354D01*
X1984865Y1606121D02*
X1988354D01*
X1984854Y1605671D02*
X1988354D01*
X1984854Y1605221D02*
X1988354D01*
X1984854Y1604771D02*
X1988354D01*
X1984854Y1604321D02*
X1988354D01*
X1984854Y1603871D02*
X1988354D01*
X1984854Y1603421D02*
X1988354D01*
X1984854Y1602971D02*
X1988354D01*
X1984854Y1602521D02*
X1988354D01*
X1984854Y1602071D02*
X1988354D01*
X1984854Y1601621D02*
X1988354D01*
X1984854Y1601171D02*
X1988354D01*
X1987434Y1597571D02*
X1988354D01*
X1984854Y1597121D02*
X1988354D01*
X1984854Y1596671D02*
X1988354D01*
X1984854Y1596221D02*
X1988354D01*
X1984854Y1595771D02*
X1988354D01*
X1984854Y1595321D02*
X1988354D01*
X1984805Y1594871D02*
X1988354D01*
X1984547Y1594421D02*
X1988354D01*
X1987918Y1600721D02*
X1988352D01*
X1984100Y1593971D02*
X1988245D01*
X1983652Y1593521D02*
X1987795D01*
X1983204Y1593071D02*
X1987345D01*
X1984854Y1597571D02*
X1987174D01*
X1982755Y1592621D02*
X1986895D01*
X1984854Y1600721D02*
X1986689D01*
X1982307Y1592171D02*
X1986445D01*
X1984854Y1598021D02*
X1986171D01*
X1984854Y1600271D02*
X1986063D01*
X1981859Y1591721D02*
X1985995D01*
X1984854Y1598471D02*
X1985839D01*
X1984854Y1599821D02*
X1985788D01*
X1984854Y1598921D02*
X1985691D01*
X1984854Y1599371D02*
X1985675D01*
X1981468Y1591271D02*
X1985545D01*
X1981608Y1590821D02*
X1985095D01*
X1981803Y1590371D02*
X1984645D01*
X1981999Y1589921D02*
X1984195D01*
X1982194Y1589471D02*
X1983745D01*
X1982390Y1589021D02*
X1983334D01*
X1982664Y1588571D02*
X1983166D01*
X1997840Y1626765D02*
X2000795D01*
X1995238Y1626315D02*
X2000344D01*
X1992177Y1624515D02*
X2000317D01*
X1994718Y1625865D02*
X2000133D01*
X1993031Y1624965D02*
X2000126D01*
X1993884Y1625415D02*
X2000067D01*
X1991347Y1624065D02*
X1998795D01*
X1990336Y1623615D02*
X1998344D01*
X1988765Y1623165D02*
X1998133D01*
X1982845Y1622715D02*
X1997175D01*
X1982295Y1622265D02*
X1996558D01*
X1981845Y1621815D02*
X1996285D01*
X1984447Y1621365D02*
X1996175D01*
X1984826Y1620915D02*
X1993011D01*
X1985001Y1620465D02*
X1992340D01*
X1985039Y1620015D02*
X1991890D01*
X1984950Y1619565D02*
X1991440D01*
X1984763Y1619115D02*
X1990990D01*
X1984637Y1618665D02*
X1990540D01*
X1984554Y1618215D02*
X1990090D01*
X1984554Y1617765D02*
X1989640D01*
X1984554Y1617315D02*
X1989190D01*
X1984554Y1616865D02*
X1988740D01*
X1984588Y1616415D02*
X1988290D01*
X1984714Y1615965D02*
X1987840D01*
X1984878Y1615515D02*
X1987390D01*
X1985020Y1615065D02*
X1986940D01*
X1985031Y1614615D02*
X1986490D01*
X1984912Y1614165D02*
X1986040D01*
X1984628Y1613715D02*
X1985590D01*
X1983966Y1613265D02*
X1985140D01*
X1980429Y1612815D02*
X1984690D01*
X1980429Y1612365D02*
X1984240D01*
X1980429Y1611915D02*
X1983790D01*
X1980429Y1611465D02*
X1983340D01*
X1980429Y1611015D02*
X1982890D01*
X1980429Y1613265D02*
X1982842D01*
X1980429Y1610565D02*
X1982440D01*
X1981395Y1621365D02*
X1982361D01*
X1980429Y1618215D02*
X1982254D01*
X1980429Y1617765D02*
X1982254D01*
X1980429Y1617315D02*
X1982254D01*
X1980429Y1616865D02*
X1982254D01*
X1980429Y1616415D02*
X1982220D01*
X1980429Y1613715D02*
X1982180D01*
X1980429Y1618665D02*
X1982171D01*
X1980429Y1615965D02*
X1982094D01*
X1980429Y1619115D02*
X1982045D01*
X1980429Y1610115D02*
X1981990D01*
X1980956Y1620915D02*
X1981982D01*
X1980429Y1615515D02*
X1981929D01*
X1980429Y1614165D02*
X1981896D01*
X1980430Y1619565D02*
X1981857D01*
X1980660Y1620465D02*
X1981807D01*
X1980429Y1615065D02*
X1981788D01*
X1980429Y1614615D02*
X1981777D01*
X1980494Y1620015D02*
X1981769D01*
X1980429Y1609665D02*
X1981540D01*
X1980429Y1609215D02*
X1981090D01*
X1950804Y1920803D02*
X2134983D01*
X1950804D02*
X1955804Y1921803D01*
Y1919803*
X1950804Y1920803*
X2340504D02*
X2156324D01*
X2340504D02*
X2335504Y1919803D01*
Y1921803*
X2340504Y1920803*
X1950804Y1896403D02*
Y1922803D01*
X2340504Y1895903D02*
Y1922803D01*
X2373904Y1574803D02*
Y1729771D01*
Y1574803D02*
X2372904Y1579803D01*
X2374904*
X2373904Y1574803*
Y1894488D02*
Y1739521D01*
Y1894488D02*
X2374904Y1889488D01*
X2372904*
X2373904Y1894488*
X2342551Y1574803D02*
X2375904D01*
X2342551Y1894488D02*
X2375904D01*
G54D25*
X1975078Y1581457D02*
X1972517Y1580801D01*
X1974297Y1580652*
X1974502Y1578877*
X1975078Y1581457*
X1974487Y1579003D02*
X1974530D01*
X1974418Y1579603D02*
X1974664D01*
X1974349Y1580203D02*
X1974798D01*
X1972525Y1580803D02*
X1974932D01*
X1974868Y1581403D02*
X1975066D01*
X1972704Y1580785D02*
Y1580849D01*
X1973304Y1580735D02*
Y1581003D01*
X1973904Y1580685D02*
Y1581156D01*
X1974504Y1578887D02*
Y1581310D01*
X1977915Y1581342D02*
X1978286Y1579091D01*
X1978512Y1580696*
X1980129Y1580794*
X1977915Y1581342*
X1978201Y1579603D02*
X1978358D01*
X1978102Y1580203D02*
X1978442D01*
X1978004Y1580803D02*
X1980091D01*
X1978104Y1580194D02*
Y1581295D01*
X1978704Y1580707D02*
Y1581147D01*
X1979304Y1580744D02*
Y1580998D01*
X1979904Y1580780D02*
Y1580850D01*
X1994229Y1617603D02*
X1995459Y1617259D01*
X1994717Y1617603*
X1995459Y1617948*
X1994229Y1617603*
X1994943Y1617403D02*
X1995148D01*
X1994304Y1617582D02*
Y1617624D01*
X1994904Y1617414D02*
Y1617516D01*
Y1617690D02*
Y1617792D01*
X1984940Y1581992D02*
X1986130Y1578740D01*
X1986310Y1580623*
X1988192Y1580802*
X1984940Y1581992*
X1986034Y1579003D02*
X1986155D01*
X1985814Y1579603D02*
X1986212D01*
X1985595Y1580203D02*
X1986270D01*
X1985375Y1580803D02*
X1988190D01*
X1985156Y1581403D02*
X1986550D01*
X1985304Y1580998D02*
Y1581859D01*
X1985904Y1579358D02*
Y1581639D01*
X1986504Y1580641D02*
Y1581420D01*
X1987104Y1580698D02*
Y1581200D01*
X1987704Y1580756D02*
Y1580981D01*
X1992703Y1610277D02*
X1993810Y1610916D01*
X1993044Y1610625*
X1993317Y1611398*
X1992703Y1610277*
X1992991Y1610803D02*
X1993107D01*
X1993513D02*
X1993615D01*
X1993104Y1610508D02*
Y1610648D01*
Y1610795D02*
Y1611009D01*
X1993704Y1610855D02*
Y1610876D01*
X1980318Y1590903D02*
X1979138Y1588188D01*
X1980318Y1589276*
X1981498Y1588188*
X1980318Y1590903*
X1979319Y1588603D02*
X1979589D01*
X1981048D02*
X1981317D01*
X1979579Y1589203D02*
X1980239D01*
X1980397D02*
X1981057D01*
X1979840Y1589803D02*
X1980796D01*
X1980101Y1590403D02*
X1980535D01*
X1979304Y1588341D02*
Y1588569D01*
X1979904Y1588894D02*
Y1589950D01*
X1980504Y1589105D02*
Y1590475D01*
X1981104Y1588551D02*
Y1589094D01*
X1993429Y1613503D02*
X1994659Y1613159D01*
X1993917Y1613503*
X1994659Y1613848*
X1993429Y1613503*
X1994500Y1613203D02*
X1994563D01*
X1994500Y1613803D02*
X1994563D01*
X1993704Y1613426D02*
Y1613580D01*
X1994304Y1613258D02*
Y1613323D01*
Y1613683D02*
Y1613748D01*
X1990165Y1588570D02*
X1988976Y1588522D01*
X1990083Y1588488*
X1990106Y1587381*
X1990165Y1588570*
X1990106Y1587403D02*
X1990107D01*
X1990093Y1588003D02*
X1990137D01*
X1989504Y1588506D02*
Y1588543D01*
X1990104Y1587496D02*
Y1588567D01*
X2016389Y1582122D02*
X2017626Y1578766D01*
X2017829Y1580646*
X2019714Y1580802*
X2016389Y1582122*
X2017539Y1579003D02*
X2017652D01*
X2017318Y1579603D02*
X2017717D01*
X2017096Y1580203D02*
X2017781D01*
X2016875Y1580803D02*
X2019711D01*
X2016654Y1581403D02*
X2018200D01*
X2016433Y1582003D02*
X2016688D01*
X2016504Y1581811D02*
Y1582076D01*
X2017104Y1580183D02*
Y1581838D01*
X2017704Y1579486D02*
Y1581600D01*
X2018304Y1580685D02*
Y1581362D01*
X2018904Y1580735D02*
Y1581124D01*
X2019504Y1580785D02*
Y1580885D01*
X2016304Y1595128D02*
X2016649Y1596359D01*
X2016304Y1595616*
X2015959Y1596359*
X2016304Y1595128*
X2016283Y1595203D02*
X2016325D01*
X2016115Y1595803D02*
X2016217D01*
X2016391D02*
X2016493D01*
X2016504Y1595842D02*
Y1596047D01*
X2018704Y1619828D02*
X2019049Y1621059D01*
X2018704Y1620316*
X2018359Y1621059*
X2018704Y1619828*
X2018543Y1620403D02*
X2018663D01*
X2018744D02*
X2018865D01*
X2018375Y1621003D02*
X2018385D01*
X2019023D02*
X2019033D01*
X2018904Y1620542D02*
Y1620747D01*
X1994149Y1588476D02*
X1994172Y1587429D01*
X1994157Y1588469*
X1995197Y1588484*
X1994149Y1588476*
X1994159Y1588003D02*
X1994163D01*
X1994304Y1588471D02*
Y1588477D01*
X1994904Y1588480D02*
Y1588482D01*
X1994565Y1603616D02*
X1995693Y1604216D01*
X1994917Y1603952*
X1995217Y1604714*
X1994565Y1603616*
X1994913Y1604203D02*
X1995016D01*
X1995655D02*
X1995669D01*
X1994904Y1603796D02*
Y1604187D01*
X1995504Y1604115D02*
Y1604152D01*
X1992832Y1582058D02*
X1994004Y1578767D01*
X1994208Y1580647*
X1996092Y1580802*
X1996092D02*
X1992832Y1582058D01*
X1993920Y1579003D02*
X1994030D01*
X1993706Y1579603D02*
X1994095D01*
X1993493Y1580203D02*
X1994160D01*
X1993279Y1580803D02*
X1996090D01*
X1993065Y1581403D02*
X1994532D01*
X1992852Y1582003D02*
X1992974D01*
X1993104Y1581295D02*
Y1581953D01*
X1993704Y1579610D02*
Y1581722D01*
X1994304Y1580654D02*
Y1581491D01*
X1994904Y1580704D02*
Y1581260D01*
X1995504Y1580754D02*
Y1581029D01*
X1993390Y1605690D02*
X1994504Y1606316D01*
X1993735Y1606034*
X1994017Y1606803*
X1993390Y1605690*
X1993567Y1606003D02*
X1993948D01*
X1993904Y1606603D02*
X1993943D01*
X1993704Y1605866D02*
Y1606247D01*
X1994304Y1606203D02*
Y1606243D01*
X2018104Y1593028D02*
X2018449Y1594259D01*
X2018104Y1593516*
X2017759Y1594259*
X2018104Y1593028*
X2017999Y1593403D02*
X2018209D01*
X2017831Y1594003D02*
X2017878D01*
X2018330D02*
X2018377D01*
X2018304Y1593742D02*
Y1593947D01*
X2020604Y1595128D02*
X2020949Y1596359D01*
X2020604Y1595616*
X2020259Y1596359*
X2020604Y1595128*
X2020583Y1595203D02*
X2020625D01*
X2020415Y1595803D02*
X2020517D01*
X2020691D02*
X2020793D01*
X2020704Y1595485D02*
Y1595831D01*
X2024222Y1589955D02*
X2025500Y1586614D01*
X2025680Y1588497*
X2027562Y1588676*
X2024222Y1589955*
X2025428Y1586803D02*
X2025518D01*
X2025198Y1587403D02*
X2025575D01*
X2024968Y1588003D02*
X2025633D01*
X2024739Y1588603D02*
X2026795D01*
X2024509Y1589203D02*
X2026186D01*
X2024280Y1589803D02*
X2024618D01*
X2024304Y1589740D02*
Y1589923D01*
X2024904Y1588172D02*
Y1589694D01*
X2025504Y1586655D02*
Y1589464D01*
X2026104Y1588537D02*
Y1589234D01*
X2026704Y1588594D02*
Y1589005D01*
X2027304Y1588652D02*
Y1588775D01*
X1983404Y1616378D02*
X1983059Y1615148D01*
X1983404Y1615891*
X1983749Y1615148*
X1983404Y1616378*
X1983187Y1615603D02*
X1983271D01*
X1983537D02*
X1983621D01*
X1983355Y1616203D02*
X1983453D01*
X1983504Y1615675D02*
Y1616021D01*
X1983404Y1618528D02*
X1983749Y1619759D01*
X1983404Y1619016*
X1983059Y1619759*
X1983404Y1618528*
X1983383Y1618603D02*
X1983425D01*
X1983215Y1619203D02*
X1983317D01*
X1983491D02*
X1983593D01*
X1983504Y1618885D02*
Y1619231D01*
X2001704Y1623828D02*
X2002049Y1625059D01*
X2001704Y1624316*
X2001359Y1625059*
X2001704Y1623828*
X2001655Y1624003D02*
X2001753D01*
X2001487Y1624603D02*
X2001571D01*
X2001837D02*
X2001921D01*
X2001504Y1624542D02*
Y1624747D01*
X1999704Y1621303D02*
X2000049Y1622359D01*
X1999704Y1621616*
X1999359Y1622359*
X1999704Y1621303*
X1999606Y1621603D02*
X1999802D01*
X1999410Y1622203D02*
X1999431D01*
X1999976D02*
X1999998D01*
X1999704Y1621303D02*
Y1621616D01*
X1972444Y1578740D02*
X1975704Y1582103D01*
Y1591003*
X1981104Y1596403*
Y1607603*
X1993304Y1619803*
X1996404*
X1997804Y1621203*
X1977304Y1590703D02*
Y1582003D01*
X1980318Y1578740*
X1977304Y1590703D02*
X1982404Y1595803D01*
Y1607003*
X1993004Y1617603*
X1995804*
X1984304Y1588403D02*
Y1582628D01*
X1988192Y1578740*
X1984304Y1588403D02*
X1989504Y1593603D01*
Y1607003*
X1993804Y1611403*
X1980318Y1586614D02*
Y1591803D01*
X1983704Y1595203*
Y1606603*
X1990604Y1613503*
X1995004*
X1988192Y1586614D02*
X1990804Y1589203D01*
Y1606203*
X1993068Y1608467*
X2015704Y1588703D02*
Y1582824D01*
X2019688Y1578740*
X2015704Y1588703D02*
Y1593103D01*
X2016304Y1593703*
Y1596703*
X2011814Y1586614D02*
Y1587313D01*
X2013904Y1589403*
Y1598503*
X2018004Y1602603*
Y1615303*
X2018704Y1616303*
Y1621403*
X1993504Y1602603D02*
Y1589103D01*
X1996066Y1586614*
X1993504Y1602603D02*
X1995704Y1604703D01*
X1992204Y1602703D02*
Y1582702D01*
X1996066Y1578740*
X1992204Y1602703D02*
Y1604503D01*
X1994504Y1606803*
X2018104Y1594603D02*
Y1588198D01*
X2019688Y1586614*
X2020604Y1596703D02*
Y1593572D01*
X2027562Y1586614*
X1994604Y1609103D02*
G03X1993068Y1608467I-0J-2173D01*
G01X1983404Y1614803D02*
Y1620103D01*
X1999004Y1617803D02*
Y1594839D01*
X2003940Y1589903*
Y1586614*
X1999004Y1617803D02*
X2001704Y1620503D01*
Y1625403*
X1997704Y1618403D02*
Y1594203D01*
X2000004Y1591903*
Y1582603*
X2003804Y1578803*
X2003877*
X2003940Y1578740*
X1997704Y1618403D02*
X1999704Y1620403D01*
Y1622703*
X2000304Y1617203D02*
Y1595603D01*
X2007904Y1588003*
Y1581703*
X2010704Y1578903*
X2011651*
X2011814Y1578740*
X2000304Y1617203D02*
X2003204Y1620103D01*
Y1622803*
X2004704Y1624303*
Y1625103*
G54D27*
X2019904Y1625403D02*
X2020104Y1625603D01*
G54D30*
X2023204D01*
X2023804Y1583003D03*
X2031504Y1582703D03*
X1983604Y1591503D03*
X1996804Y1591203D03*
X2008304Y1591303D03*
X2011704D03*
X2027404Y1591403D03*
X2034304Y1591503D03*
X2030404Y1591403D03*
X1973404Y1598503D03*
X1995504Y1600403D03*
X1987304Y1599203D03*
X2016304Y1596703D03*
X2025204Y1595103D03*
X2018104Y1594603D03*
X2023304Y1602003D03*
X2023704Y1600003D03*
X2020604Y1596703D03*
X2027304Y1597003D03*
X2030704Y1595303D03*
X2034404Y1599203D03*
X2034504Y1595103D03*
X1973404Y1611903D03*
X1973304Y1604803D03*
X1983004Y1612203D03*
X1987604Y1606903D03*
X1994504Y1606803D03*
X1993804Y1611403D03*
X1994604Y1609103D03*
X1995704Y1604703D03*
X2005704Y1612803D03*
X2005904Y1609603D03*
X2002904Y1612703D03*
X2002804Y1609603D03*
Y1606603D03*
X2006004D03*
X2009704Y1612803D03*
Y1609603D03*
X2009604Y1606603D03*
X2013904D03*
Y1609603D03*
Y1612403D03*
X2030604Y1609403D03*
X2034404Y1606203D03*
X2034504Y1612703D03*
X1973404Y1618803D03*
X1986104Y1615303D03*
X1983404Y1620103D03*
Y1614803D03*
X1995804Y1617603D03*
X1995004Y1613503D03*
X2006304Y1615803D03*
X2002904D03*
X2004504Y1617803D03*
X1997804Y1621203D03*
X1999704Y1622703D03*
X2009804Y1615603D03*
X2013904Y1615403D03*
X2010404Y1618403D03*
X2007204D03*
X2014004D03*
X2020704Y1614503D03*
X2018704Y1621403D03*
X2029804Y1620603D03*
X2034504Y1620103D03*
X2031804Y1616003D03*
Y1618103D03*
X1973304Y1632603D03*
Y1626703D03*
X1985004Y1629003D03*
X1977204Y1628503D03*
X1981204Y1631103D03*
X1995804Y1629003D03*
X1993404Y1628903D03*
X1991004D03*
X1998204Y1624903D03*
X1999504Y1631803D03*
X2005004D03*
X2001704Y1625403D03*
X2004704Y1625103D03*
X2009804Y1625303D03*
X2009204Y1628003D03*
X2007304Y1629903D03*
X2012804Y1631903D03*
X2019304Y1630903D03*
X2017704Y1628303D03*
X2023204Y1625603D03*
X2021904Y1632003D03*
X2026204D03*
X2031804Y1624403D03*
X2034504Y1626503D03*
X2034404Y1632903D03*
X2030304Y1632003D03*
X2030204Y1627503D03*
X1973504Y1638603D03*
X1985004Y1636103D03*
X1977004Y1635203D03*
X1981304Y1633403D03*
X1985304Y1639003D03*
X1978904Y1638903D03*
X1992104Y1636203D03*
X1996504Y1638903D03*
X1991604Y1638803D03*
X1994504Y1641103D03*
X1998104Y1641603D03*
X2001604D03*
X2002004Y1636903D03*
X1999804Y1634203D03*
X2001604Y1638903D03*
X2013504Y1636003D03*
X2007604Y1641903D03*
X2007704Y1639103D03*
X2016104Y1639003D03*
X2010804Y1634203D03*
X2012104Y1639003D03*
X2008504Y1636703D03*
X2025904Y1635703D03*
X2017504Y1633403D03*
X2022704Y1639003D03*
X2021904Y1635603D03*
X2034204Y1638603D03*
X2029204Y1638903D03*
X2030204Y1635803D03*
X2011204Y1645803D03*
X2025604Y1645703D03*
X2018904Y1645803D03*
X2031304Y1645703D03*
G54D31*
X1989801Y1630906D02*
X1997007D01*
Y1627400*
X1989801*
Y1630906*
Y1630588D02*
X1997007D01*
X1989801Y1630233D02*
X1997007D01*
X1989801Y1629879D02*
X1997007D01*
X1989801Y1629525D02*
X1997007D01*
X1989801Y1629170D02*
X1997007D01*
X1989801Y1628816D02*
X1997007D01*
X1989801Y1628462D02*
X1997007D01*
X1989801Y1628107D02*
X1997007D01*
X1989801Y1627753D02*
X1997007D01*
X1968504Y1642520D02*
X1992704D01*
Y1649606*
X2039370*
Y1574803*
X1968504*
Y1642520*
G54D32*
X1972444Y1586614D03*
G54D33*
X1980318D03*
G54D34*
X1973855Y1593624D02*
G03X1972444Y1590201I3448J-3423D01*
G01Y1586614D02*
Y1590201D01*
X1973855Y1593624D02*
X1976284Y1596071D01*
G03X1978004Y1600244I-4204J4173*
G01Y1619479*
X1979365Y1622764D02*
X1980709Y1624108D01*
X1979365Y1622764D02*
G03X1978004Y1619479I3285J-3285D01*
G01X1986860Y1625403D02*
G03X1990657Y1626455I-0J7380D01*
G01X1983835Y1625403D02*
G03X1980709Y1624108I0J-4421D01*
G01X1983835Y1625403D02*
X1986860D01*
X1990657Y1626455D02*
X1993404Y1627903D01*
Y1628903*
G54D35*
X2020704Y1614503D02*
X2021404Y1615203D01*
Y1623903*
X1995804Y1629003D02*
X2000704D01*
X2006604Y1626603D02*
G03X2009704Y1625403I3100J3404D01*
G01X2006604Y1626603D02*
G03X2000704Y1629003I-5900J-6052D01*
G01X2009704Y1625403D02*
X2019904D01*
X2021404Y1623903*
G74*
X0Y0D02*
M02*
