*
*
G04 PADS 9.5 Build Number: 522968 generated Gerber (RS-274-X) file*
G04 PC Version=2.1*
*
%IN "WIFI_FLASH_MODULE_UPDAT"*%
*
%MOIN*%
*
%FSLAX35Y35*%
*
*
*
*
G04 PC Standard Apertures*
*
*
G04 Thermal Relief Aperture macro.*
%AMTER*
1,1,$1,0,0*
1,0,$1-$2,0,0*
21,0,$3,$4,0,0,45*
21,0,$3,$4,0,0,135*
%
*
*
G04 Annular Aperture macro.*
%AMANN*
1,1,$1,0,0*
1,0,$2,0,0*
%
*
*
G04 Odd Aperture macro.*
%AMODD*
1,1,$1,0,0*
1,0,$1-0.005,0,0*
%
*
*
G04 PC Custom Aperture Macros*
*
*
*
*
*
*
G04 PC Aperture Table*
*
%ADD010C,0.001*%
%ADD012C,0.01*%
%ADD024C,0.005*%
%ADD031C,0.00394*%
*
*
*
*
G04 PC Circuitry*
G04 Layer Name WIFI_FLASH_MODULE_UPDAT - circuitry*
%LPD*%
*
G54D10*
G01X2382519Y1734374D02*
X2382476Y1734675D01*
X2382352Y1734923*
X2382150Y1735044*
X2381856Y1735086*
X2381642Y1735043*
X2381475Y1735001*
X2381312Y1734879*
X2381183Y1734665*
X2381095Y1734668*
X2381010Y1734839*
X2380889Y1734960*
X2380679Y1735044*
X2380472Y1735086*
X2380307Y1735044*
X2380097Y1734960*
X2379836Y1734700*
X2379751Y1734735*
Y1735042*
X2379449*
Y1732821*
X2379751*
Y1734244*
X2379752Y1734256*
X2379797Y1734435*
X2379807Y1734454*
X2380030Y1734722*
X2380055Y1734738*
X2380367Y1734828*
X2380393*
X2380572Y1734783*
X2380588Y1734777*
X2380721Y1734687*
X2380738Y1734668*
X2380828Y1734489*
X2380833Y1734467*
Y1732821*
X2381135*
Y1734110*
Y1734117*
X2381180Y1734430*
X2381189Y1734452*
X2381323Y1734631*
X2381333Y1734641*
X2381512Y1734775*
X2381532Y1734784*
X2381755Y1734829*
X2381775*
X2381998Y1734784*
X2382028Y1734765*
X2382162Y1734586*
X2382170Y1734572*
X2382214Y1734438*
X2382217Y1734422*
Y1732821*
X2382519*
Y1734374*
X2378769D02*
X2378726Y1734675D01*
X2378602Y1734923*
X2378400Y1735044*
X2378106Y1735086*
X2377892Y1735043*
X2377725Y1735001*
X2377562Y1734879*
X2377433Y1734665*
X2377345Y1734668*
X2377260Y1734839*
X2377139Y1734960*
X2376929Y1735044*
X2376722Y1735086*
X2376557Y1735044*
X2376347Y1734960*
X2376086Y1734700*
X2376001Y1734735*
Y1735042*
X2375699*
Y1732821*
X2376001*
Y1734244*
X2376002Y1734256*
X2376047Y1734435*
X2376057Y1734454*
X2376280Y1734722*
X2376305Y1734738*
X2376617Y1734828*
X2376643*
X2376822Y1734783*
X2376838Y1734777*
X2376971Y1734687*
X2376988Y1734668*
X2377078Y1734489*
X2377083Y1734467*
Y1732821*
X2377385*
Y1734110*
Y1734117*
X2377430Y1734430*
X2377439Y1734452*
X2377573Y1734631*
X2377583Y1734641*
X2377762Y1734775*
X2377782Y1734784*
X2378005Y1734829*
X2378025*
X2378248Y1734784*
X2378278Y1734765*
X2378412Y1734586*
X2378420Y1734572*
X2378464Y1734438*
X2378467Y1734422*
Y1732821*
X2378769*
Y1734374*
X2375063Y1733122D02*
X2373551D01*
X2373512Y1733204*
X2373690Y1733427*
X2373699Y1733436*
X2373877Y1733569*
X2374143Y1733791*
X2374497Y1734100*
X2374717Y1734364*
X2374846Y1734536*
X2374932Y1734750*
X2375018Y1735095*
X2374976Y1735428*
X2374768Y1735678*
X2374470Y1735849*
X2374470D02*
X2374084Y1735934D01*
X2373701Y1735892*
X2373407Y1735724*
X2373195Y1735428*
X2373122Y1735135*
X2373422Y1735102*
X2373457Y1735280*
X2373466Y1735301*
X2373600Y1735479*
X2373610Y1735489*
X2373789Y1735623*
X2373810Y1735632*
X2374078Y1735677*
X2374096*
X2374320Y1735632*
X2374340Y1735623*
X2374518Y1735489*
X2374524Y1735485*
X2374658Y1735351*
X2374671Y1735325*
X2374716Y1735102*
Y1735082*
X2374671Y1734859*
X2374665Y1734843*
X2374531Y1734620*
X2374526Y1734613*
X2374258Y1734301*
X2374254Y1734296*
X2373851Y1733938*
X2373542Y1733673*
X2373193Y1733236*
X2373108Y1733025*
X2373074Y1732821*
X2375063*
Y1733122*
X2372385D02*
X2372083D01*
Y1732821*
X2372385*
Y1733122*
X2370778Y1735935D02*
X2370588D01*
X2370469Y1735736*
X2370461Y1735726*
X2370238Y1735503*
X2370230Y1735497*
X2369963Y1735318*
X2369960Y1735317*
X2369672Y1735152*
Y1734860*
X2369672D02*
X2370042Y1735046D01*
X2370396Y1735311*
X2370476Y1735271*
Y1732821*
X2370778*
Y1735935*
X2368857Y1733710D02*
X2368815Y1733962D01*
X2368731Y1734171*
X2368566Y1734337*
X2368305Y1734467*
X2368302Y1734555*
X2368520Y1734685*
X2368644Y1734809*
X2368727Y1734976*
X2368768Y1735140*
X2368726Y1735473*
X2368517Y1735724*
X2368265Y1735892*
X2367881Y1735935*
X2367497Y1735892*
X2367245Y1735724*
X2367036Y1735473*
X2366994Y1735183*
X2367036Y1734975*
X2367119Y1734809*
X2367243Y1734685*
X2367461Y1734555*
X2367451Y1734464*
X2367194Y1734379*
X2367032Y1734217*
X2366948Y1733964*
X2366905Y1733710*
X2366991Y1733325*
X2367159Y1733030*
X2367496Y1732819*
X2367881Y1732776*
X2368266Y1732819*
X2368603Y1733030*
X2368772Y1733325*
X2368857Y1733710*
X2368465Y1735125D02*
X2368421Y1734946D01*
X2368414Y1734930*
X2368325Y1734797*
X2368305Y1734780*
X2368127Y1734690*
X2368114Y1734686*
X2367891Y1734641*
X2367871*
X2367648Y1734686*
X2367636Y1734690*
X2367457Y1734780*
X2367438Y1734797*
X2367349Y1734930*
X2367341Y1734948*
X2367296Y1735172*
X2367297Y1735194*
X2367342Y1735372*
X2367349Y1735388*
X2367438Y1735522*
X2367457Y1735539*
X2367636Y1735628*
X2367648Y1735632*
X2367871Y1735677*
X2367891*
X2368114Y1735632*
X2368127Y1735628*
X2368305Y1735539*
X2368328Y1735516*
X2368417Y1735338*
X2368421Y1735327*
X2368465Y1735149*
Y1735125*
X2368556Y1733708D02*
Y1733700D01*
X2368511Y1733432*
X2368502Y1733410*
X2368368Y1733232*
X2368358Y1733222*
X2368179Y1733088*
X2368157Y1733078*
X2367889Y1733034*
X2367881Y1733033*
X2367703*
X2367675Y1733042*
X2367544Y1733129*
X2367368Y1733217*
X2367349Y1733234*
X2367259Y1733368*
X2367251Y1733389*
X2367207Y1733701*
X2367206Y1733708*
X2367207Y1733718*
X2367252Y1733941*
X2367258Y1733957*
X2367392Y1734180*
X2367405Y1734195*
X2367583Y1734329*
X2367605Y1734338*
X2367873Y1734382*
X2367889*
X2368157Y1734338*
X2368179Y1734329*
X2368358Y1734195*
X2368371Y1734180*
X2368504Y1733957*
X2368511Y1733941*
X2368555Y1733718*
X2368556Y1733708*
X2153871Y1920532D02*
X2153828Y1920833D01*
X2153704Y1921080*
X2153502Y1921202*
X2153208Y1921244*
X2152994Y1921201*
X2152827Y1921159*
X2152664Y1921037*
X2152535Y1920822*
X2152448Y1920825*
X2152362Y1920997*
X2152241Y1921118*
X2152032Y1921201*
X2151824Y1921243*
X2151660Y1921202*
X2151449Y1921118*
X2151188Y1920857*
X2151103Y1920892*
Y1921200*
X2150801*
Y1918978*
X2151103*
Y1920401*
X2151105Y1920413*
X2151149Y1920592*
X2151159Y1920612*
X2151383Y1920880*
X2151407Y1920896*
X2151720Y1920985*
X2151746Y1920986*
X2151924Y1920941*
X2151940Y1920934*
X2152074Y1920845*
X2152091Y1920826*
X2152180Y1920647*
X2152185Y1920625*
Y1918978*
X2152487*
Y1920267*
X2152488Y1920275*
X2152532Y1920587*
X2152542Y1920610*
X2152676Y1920789*
X2152686Y1920799*
X2152864Y1920932*
X2152884Y1920941*
X2153108Y1920986*
X2153127*
X2153350Y1920941*
X2153381Y1920922*
X2153515Y1920744*
X2153522Y1920730*
X2153567Y1920596*
X2153569Y1920580*
Y1918978*
X2153871*
Y1920532*
X2150121D02*
X2150078Y1920833D01*
X2149954Y1921080*
X2149752Y1921202*
X2149458Y1921244*
X2149244Y1921201*
X2149077Y1921159*
X2148914Y1921037*
X2148785Y1920822*
X2148698Y1920825*
X2148612Y1920997*
X2148491Y1921118*
X2148282Y1921201*
X2148074Y1921243*
X2147910Y1921202*
X2147699Y1921118*
X2147438Y1920857*
X2147353Y1920892*
Y1921200*
X2147051*
Y1918978*
X2147353*
Y1920401*
X2147355Y1920413*
X2147399Y1920592*
X2147409Y1920612*
X2147633Y1920880*
X2147657Y1920896*
X2147970Y1920985*
X2147996Y1920986*
X2148174Y1920941*
X2148190Y1920934*
X2148324Y1920845*
X2148341Y1920826*
X2148430Y1920647*
X2148435Y1920625*
Y1918978*
X2148737*
Y1920267*
X2148738Y1920275*
X2148782Y1920587*
X2148792Y1920610*
X2148926Y1920789*
X2148936Y1920799*
X2149114Y1920932*
X2149134Y1920941*
X2149358Y1920986*
X2149377*
X2149600Y1920941*
X2149631Y1920922*
X2149765Y1920744*
X2149772Y1920730*
X2149817Y1920596*
X2149819Y1920580*
Y1918978*
X2150121*
Y1920532*
X2146460Y1920930D02*
X2146373Y1921234D01*
X2146198Y1921717*
X2146073Y1921884*
X2145909Y1922006*
X2145482Y1922092*
X2145186Y1922049*
X2144935Y1921924*
X2144768Y1921715*
X2144638Y1921413*
X2144551Y1921019*
X2144507Y1920489*
Y1920095*
X2144594Y1919745*
X2144682Y1919439*
X2144807Y1919231*
X2145102Y1919019*
X2145485Y1918934*
X2145781Y1918977*
X2145781D02*
X2146032Y1919102D01*
X2146199Y1919311*
X2146329Y1919613*
X2146416Y1920007*
X2146460Y1920493*
Y1920930*
X2146158Y1920848D02*
Y1920134D01*
Y1920125*
X2146113Y1919857*
Y1919856*
X2146068Y1919633*
X2146064Y1919620*
X2145975Y1919442*
X2145961Y1919425*
X2145738Y1919246*
X2145717Y1919236*
X2145493Y1919192*
X2145474*
X2145250Y1919236*
X2145229Y1919246*
X2145006Y1919425*
X2144992Y1919442*
X2144903Y1919620*
X2144899Y1919633*
X2144854Y1919856*
Y1919857*
X2144809Y1920125*
X2144808Y1920134*
Y1920848*
X2144809Y1920855*
X2144854Y1921167*
Y1921170*
X2144899Y1921393*
X2144903Y1921406*
X2144992Y1921584*
X2145006Y1921601*
X2145229Y1921780*
X2145250Y1921790*
X2145474Y1921834*
X2145492Y1921835*
X2145760Y1921790*
X2145790Y1921772*
X2145969Y1921549*
X2145972Y1921545*
X2146061Y1921411*
X2146068Y1921393*
X2146113Y1921170*
Y1921167*
X2146158Y1920855*
Y1920848*
X2143737Y1919280D02*
X2143435D01*
Y1918978*
X2143737*
Y1919280*
X2142710Y1920580D02*
X2142666Y1921107D01*
X2142580Y1921454*
X2142408Y1921755*
X2142240Y1921923*
X2141986Y1922049*
X2141691Y1922092*
X2141308Y1922007*
X2141014Y1921796*
X2140843Y1921456*
X2140758Y1921070*
X2140844Y1920641*
X2141013Y1920303*
X2141307Y1920135*
X2141602Y1920051*
X2141808Y1920092*
X2142020Y1920177*
X2142326Y1920439*
X2142408Y1920401*
Y1920357*
Y1920352*
X2142364Y1919861*
X2142359Y1919843*
X2142272Y1919670*
X2142228Y1919496*
X2142211Y1919469*
X2141988Y1919291*
X2141970Y1919282*
X2141658Y1919193*
X2141632Y1919192*
X2141453Y1919237*
X2141453D02*
X2141438Y1919244D01*
X2141304Y1919333*
X2141290Y1919347*
X2141201Y1919481*
X2141195Y1919493*
X2141118Y1919722*
X2140814Y1919688*
X2140887Y1919395*
X2141055Y1919143*
X2141305Y1918976*
X2141644Y1918934*
X2141942Y1918977*
X2141942D02*
X2142195Y1919103D01*
X2142408Y1919316*
X2142579Y1919616*
X2142666Y1920051*
X2142710Y1920580*
X2142408Y1921071D02*
Y1921064D01*
X2142363Y1920751*
X2142357Y1920733*
X2142223Y1920510*
X2142210Y1920495*
X2142031Y1920361*
X2142010Y1920352*
X2141742Y1920307*
X2141725*
X2141457Y1920352*
X2141436Y1920361*
X2141257Y1920495*
X2141244Y1920510*
X2141110Y1920733*
X2141104Y1920750*
X2141059Y1921018*
X2141058Y1921026*
X2141059Y1921033*
X2141104Y1921346*
X2141110Y1921365*
X2141244Y1921588*
X2141256Y1921601*
X2141479Y1921780*
X2141500Y1921790*
X2141724Y1921834*
X2141742Y1921835*
X2142010Y1921790*
X2142031Y1921781*
X2142210Y1921647*
X2142225Y1921629*
X2142359Y1921361*
X2142363Y1921347*
X2142408Y1921079*
Y1921071*
X2140210Y1920580D02*
X2140166Y1921107D01*
X2140080Y1921454*
X2139908Y1921755*
X2139740Y1921923*
X2139486Y1922049*
X2139191Y1922092*
X2138808Y1922007*
X2138514Y1921796*
X2138343Y1921456*
X2138258Y1921070*
X2138344Y1920641*
X2138513Y1920303*
X2138807Y1920135*
X2139102Y1920051*
X2139308Y1920092*
X2139520Y1920177*
X2139826Y1920439*
X2139908Y1920401*
Y1920357*
Y1920352*
X2139864Y1919861*
X2139859Y1919843*
X2139772Y1919670*
X2139728Y1919496*
X2139711Y1919469*
X2139488Y1919291*
X2139470Y1919282*
X2139158Y1919193*
X2139132Y1919192*
X2138953Y1919237*
X2138953D02*
X2138938Y1919244D01*
X2138804Y1919333*
X2138790Y1919347*
X2138701Y1919481*
X2138695Y1919493*
X2138618Y1919722*
X2138314Y1919688*
X2138387Y1919395*
X2138555Y1919143*
X2138805Y1918976*
X2139144Y1918934*
X2139442Y1918977*
X2139442D02*
X2139695Y1919103D01*
X2139908Y1919316*
X2140079Y1919616*
X2140166Y1920051*
X2140210Y1920580*
X2139908Y1921071D02*
Y1921064D01*
X2139863Y1920751*
X2139857Y1920733*
X2139723Y1920510*
X2139710Y1920495*
X2139531Y1920361*
X2139510Y1920352*
X2139242Y1920307*
X2139225*
X2138957Y1920352*
X2138936Y1920361*
X2138757Y1920495*
X2138744Y1920510*
X2138610Y1920733*
X2138604Y1920750*
X2138559Y1921018*
X2138558Y1921026*
X2138559Y1921033*
X2138604Y1921346*
X2138610Y1921365*
X2138744Y1921588*
X2138756Y1921601*
X2138979Y1921780*
X2139000Y1921790*
X2139224Y1921834*
X2139242Y1921835*
X2139510Y1921790*
X2139531Y1921781*
X2139710Y1921647*
X2139725Y1921629*
X2139859Y1921361*
X2139863Y1921347*
X2139908Y1921079*
Y1921071*
X2138300Y1920859D02*
Y1921260D01*
X2138400Y1919376D02*
Y1919698D01*
Y1920528D02*
Y1921569D01*
X2138500Y1919226D02*
Y1919709D01*
Y1920328D02*
Y1921769D01*
X2138600Y1919113D02*
Y1919720D01*
Y1920253D02*
Y1920773D01*
Y1921321D02*
Y1921858D01*
X2138700Y1919046D02*
Y1919482D01*
Y1920196D02*
Y1920583D01*
Y1921514D02*
Y1921930D01*
X2138800Y1918980D02*
Y1919336D01*
Y1920139D02*
Y1920463D01*
Y1921636D02*
Y1922001D01*
X2138900Y1918964D02*
Y1919269D01*
Y1920109D02*
Y1920388D01*
Y1921716D02*
Y1922027D01*
X2139000Y1918952D02*
Y1919225D01*
Y1920080D02*
Y1920345D01*
Y1921790D02*
Y1922049D01*
X2139100Y1918939D02*
Y1919200D01*
Y1920051D02*
Y1920328D01*
Y1921810D02*
Y1922071D01*
X2139200Y1918942D02*
Y1919205D01*
Y1920071D02*
Y1920312D01*
Y1921830D02*
Y1922090D01*
X2139300Y1918956D02*
Y1919233D01*
Y1920091D02*
Y1920317D01*
Y1921825D02*
Y1922076D01*
X2139400Y1918971D02*
Y1919262D01*
Y1920129D02*
Y1920334D01*
Y1921808D02*
Y1922062D01*
X2139500Y1919006D02*
Y1919301D01*
Y1920169D02*
Y1920350D01*
Y1921792D02*
Y1922043D01*
X2139600Y1919056D02*
Y1919381D01*
Y1920246D02*
Y1920413D01*
Y1921729D02*
Y1921993D01*
X2139700Y1919108D02*
Y1919461D01*
Y1920331D02*
Y1920488D01*
Y1921654D02*
Y1921943D01*
X2139800Y1919208D02*
Y1919726D01*
Y1920417D02*
Y1920638D01*
Y1921478D02*
Y1921862D01*
X2139900Y1919308D02*
Y1920261D01*
Y1920429D02*
Y1921008D01*
Y1921126D02*
Y1921762D01*
X2140000Y1919477D02*
Y1921593D01*
X2140100Y1919721D02*
Y1921372D01*
X2140200Y1920459D02*
Y1920701D01*
X2140800Y1920859D02*
Y1921260D01*
X2140900Y1919376D02*
Y1919698D01*
Y1920528D02*
Y1921569D01*
X2141000Y1919226D02*
Y1919709D01*
Y1920328D02*
Y1921769D01*
X2141100Y1919113D02*
Y1919720D01*
Y1920253D02*
Y1920773D01*
Y1921321D02*
Y1921858D01*
X2141200Y1919046D02*
Y1919482D01*
Y1920196D02*
Y1920583D01*
Y1921514D02*
Y1921930D01*
X2141300Y1918980D02*
Y1919336D01*
Y1920139D02*
Y1920463D01*
Y1921636D02*
Y1922001D01*
X2141400Y1918964D02*
Y1919269D01*
Y1920109D02*
Y1920388D01*
Y1921716D02*
Y1922027D01*
X2141500Y1918952D02*
Y1919225D01*
Y1920080D02*
Y1920345D01*
Y1921790D02*
Y1922049D01*
X2141600Y1918939D02*
Y1919200D01*
Y1920051D02*
Y1920328D01*
Y1921810D02*
Y1922071D01*
X2141700Y1918942D02*
Y1919205D01*
Y1920071D02*
Y1920312D01*
Y1921830D02*
Y1922090D01*
X2141800Y1918956D02*
Y1919233D01*
Y1920091D02*
Y1920317D01*
Y1921825D02*
Y1922076D01*
X2141900Y1918971D02*
Y1919262D01*
Y1920129D02*
Y1920334D01*
Y1921808D02*
Y1922062D01*
X2142000Y1919006D02*
Y1919301D01*
Y1920169D02*
Y1920350D01*
Y1921792D02*
Y1922043D01*
X2142100Y1919056D02*
Y1919381D01*
Y1920246D02*
Y1920413D01*
Y1921729D02*
Y1921993D01*
X2142200Y1919108D02*
Y1919461D01*
Y1920331D02*
Y1920488D01*
Y1921654D02*
Y1921943D01*
X2142300Y1919208D02*
Y1919726D01*
Y1920417D02*
Y1920638D01*
Y1921478D02*
Y1921862D01*
X2142400Y1919308D02*
Y1920261D01*
Y1920429D02*
Y1921008D01*
Y1921126D02*
Y1921762D01*
X2142500Y1919477D02*
Y1921593D01*
X2142600Y1919721D02*
Y1921372D01*
X2142700Y1920459D02*
Y1920701D01*
X2143500Y1918978D02*
Y1919280D01*
X2143600Y1918978D02*
Y1919280D01*
X2143700Y1918978D02*
Y1919280D01*
X2144600Y1919725D02*
Y1921240D01*
X2144700Y1919409D02*
Y1921556D01*
X2144800Y1919242D02*
Y1921755D01*
X2144900Y1919164D02*
Y1919628D01*
Y1921398D02*
Y1921880D01*
X2145000Y1919093D02*
Y1919430D01*
Y1921596D02*
Y1921956D01*
X2145100Y1919021D02*
Y1919349D01*
Y1921676D02*
Y1922006D01*
X2145200Y1918998D02*
Y1919269D01*
Y1921756D02*
Y1922051D01*
X2145300Y1918976D02*
Y1919226D01*
Y1921800D02*
Y1922066D01*
X2145400Y1918953D02*
Y1919206D01*
Y1921820D02*
Y1922080D01*
X2145500Y1918936D02*
Y1919193D01*
Y1921833D02*
Y1922088D01*
X2145600Y1918951D02*
Y1919213D01*
Y1921817D02*
Y1922068D01*
X2145700Y1918965D02*
Y1919233D01*
Y1921800D02*
Y1922048D01*
X2145800Y1918986D02*
Y1919296D01*
Y1921760D02*
Y1922028D01*
X2145900Y1919036D02*
Y1919376D01*
Y1921635D02*
Y1922008D01*
X2146000Y1919086D02*
Y1919492D01*
Y1921502D02*
Y1921938D01*
X2146100Y1919187D02*
Y1919792D01*
Y1921234D02*
Y1921847D01*
X2146200Y1919313D02*
Y1921711D01*
X2146300Y1919547D02*
Y1921436D01*
X2146400Y1919935D02*
Y1921141D01*
X2147100Y1918978D02*
Y1921200D01*
X2147200Y1918978D02*
Y1921200D01*
X2147300Y1918978D02*
Y1921200D01*
X2147400Y1920595D02*
Y1920843D01*
X2147500Y1920721D02*
Y1920919D01*
X2147600Y1920841D02*
Y1921019D01*
X2147700Y1920908D02*
Y1921118D01*
X2147800Y1920937D02*
Y1921158D01*
X2147900Y1920965D02*
Y1921198D01*
X2148000Y1920984D02*
Y1921224D01*
X2148100Y1920959D02*
Y1921238D01*
X2148200Y1920927D02*
Y1921218D01*
X2148300Y1920861D02*
Y1921194D01*
X2148400Y1920707D02*
Y1921154D01*
X2148500Y1918978D02*
Y1921109D01*
X2148600Y1918978D02*
Y1921009D01*
X2148700Y1918978D02*
Y1920821D01*
X2148800Y1920621D02*
Y1920847D01*
X2148900Y1920754D02*
Y1921013D01*
X2149000Y1920847D02*
Y1921101D01*
X2149100Y1920922D02*
Y1921165D01*
X2149200Y1920955D02*
Y1921190D01*
X2149300Y1920975D02*
Y1921212D01*
X2149400Y1920982D02*
Y1921232D01*
X2149500Y1920962D02*
Y1921238D01*
X2149600Y1920942D02*
Y1921223D01*
X2149700Y1920830D02*
Y1921209D01*
X2149800Y1920646D02*
Y1921173D01*
X2149900Y1918978D02*
Y1921113D01*
X2150000Y1918978D02*
Y1920989D01*
X2150100Y1918978D02*
Y1920679D01*
X2150900Y1918978D02*
Y1921200D01*
X2151000Y1918978D02*
Y1921200D01*
X2151100Y1918978D02*
Y1921200D01*
X2151200Y1920661D02*
Y1920869D01*
X2151300Y1920781D02*
Y1920969D01*
X2151400Y1920893D02*
Y1921069D01*
X2151500Y1920922D02*
Y1921138D01*
X2151600Y1920951D02*
Y1921178D01*
X2151700Y1920980D02*
Y1921212D01*
X2151800Y1920972D02*
Y1921237D01*
X2151900Y1920947D02*
Y1921228D01*
X2152000Y1920894D02*
Y1921208D01*
X2152100Y1920807D02*
Y1921174D01*
X2152200Y1918978D02*
Y1921134D01*
X2152300Y1918978D02*
Y1921059D01*
X2152400Y1918978D02*
Y1920921D01*
X2152500Y1920362D02*
Y1920798D01*
X2152600Y1920688D02*
Y1920930D01*
X2152700Y1920809D02*
Y1921064D01*
X2152800Y1920884D02*
Y1921139D01*
X2152900Y1920945D02*
Y1921177D01*
X2153000Y1920965D02*
Y1921202D01*
X2153100Y1920985D02*
Y1921222D01*
X2153200Y1920972D02*
Y1921242D01*
X2153300Y1920952D02*
Y1921230D01*
X2153400Y1920897D02*
Y1921216D01*
X2153500Y1920763D02*
Y1921202D01*
X2153600Y1918978D02*
Y1921143D01*
X2153700Y1918978D02*
Y1921083D01*
X2153800Y1918978D02*
Y1920889D01*
X2367000Y1733309D02*
Y1734121D01*
Y1735155D02*
Y1735222D01*
X2367100Y1733134D02*
Y1734285D01*
Y1734847D02*
Y1735550D01*
X2367200Y1733004D02*
Y1734381D01*
Y1734728D02*
Y1735670D01*
X2367300Y1732942D02*
Y1733307D01*
Y1734027D02*
Y1734414D01*
Y1734651D02*
Y1735154D01*
Y1735206D02*
Y1735761D01*
X2367400Y1732879D02*
Y1733201D01*
Y1734191D02*
Y1734447D01*
Y1734591D02*
Y1734853D01*
Y1735465D02*
Y1735827D01*
X2367500Y1732819D02*
Y1733151D01*
Y1734266D02*
Y1734758D01*
Y1735560D02*
Y1735892D01*
X2367600Y1732808D02*
Y1733092D01*
Y1734337D02*
Y1734708D01*
Y1735610D02*
Y1735903D01*
X2367700Y1732796D02*
Y1733033D01*
Y1734354D02*
Y1734676D01*
Y1735643D02*
Y1735915D01*
X2367800Y1732785D02*
Y1733033D01*
Y1734370D02*
Y1734656D01*
Y1735663D02*
Y1735926D01*
X2367900Y1732778D02*
Y1733036D01*
Y1734381D02*
Y1734643D01*
Y1735675D02*
Y1735933D01*
X2368000Y1732790D02*
Y1733052D01*
Y1734364D02*
Y1734663D01*
Y1735655D02*
Y1735921D01*
X2368100Y1732801D02*
Y1733069D01*
Y1734347D02*
Y1734683D01*
Y1735635D02*
Y1735910D01*
X2368200Y1732812D02*
Y1733104D01*
Y1734313D02*
Y1734727D01*
Y1735591D02*
Y1735899D01*
X2368300Y1732840D02*
Y1733179D01*
Y1734238D02*
Y1734470D01*
Y1734553D02*
Y1734777D01*
Y1735541D02*
Y1735869D01*
X2368400Y1732903D02*
Y1733275D01*
Y1734131D02*
Y1734420D01*
Y1734613D02*
Y1734910D01*
Y1735372D02*
Y1735802D01*
X2368500Y1732965D02*
Y1733408D01*
Y1733965D02*
Y1734370D01*
Y1734673D02*
Y1735736D01*
X2368600Y1733028D02*
Y1734303D01*
Y1734766D02*
Y1735625D01*
X2368700Y1733199D02*
Y1734203D01*
Y1734922D02*
Y1735505D01*
X2368800Y1733453D02*
Y1734000D01*
X2369700Y1734874D02*
Y1735168D01*
X2369800Y1734924D02*
Y1735225D01*
X2369900Y1734974D02*
Y1735282D01*
X2370000Y1735024D02*
Y1735343D01*
X2370100Y1735089D02*
Y1735410D01*
X2370200Y1735164D02*
Y1735477D01*
X2370300Y1735239D02*
Y1735565D01*
X2370400Y1735313D02*
Y1735665D01*
X2370500Y1732821D02*
Y1735788D01*
X2370600Y1732821D02*
Y1735935D01*
X2370700Y1732821D02*
Y1735935D01*
X2372100Y1732821D02*
Y1733122D01*
X2372200Y1732821D02*
Y1733122D01*
X2372300Y1732821D02*
Y1733122D01*
X2373100Y1732821D02*
Y1732976D01*
X2373200Y1732821D02*
Y1733245D01*
Y1735127D02*
Y1735435D01*
X2373300Y1732821D02*
Y1733370D01*
Y1735116D02*
Y1735575D01*
X2373400Y1732821D02*
Y1733495D01*
Y1735105D02*
Y1735715D01*
X2373500Y1732821D02*
Y1733620D01*
Y1735346D02*
Y1735777D01*
X2373600Y1732821D02*
Y1733122D01*
Y1733314D02*
Y1733723D01*
Y1735479D02*
Y1735834D01*
X2373700Y1732821D02*
Y1733122D01*
Y1733436D02*
Y1733808D01*
Y1735557D02*
Y1735891D01*
X2373800Y1732821D02*
Y1733122D01*
Y1733511D02*
Y1733894D01*
Y1735630D02*
Y1735903D01*
X2373900Y1732821D02*
Y1733122D01*
Y1733588D02*
Y1733981D01*
Y1735647D02*
Y1735914D01*
X2374000Y1732821D02*
Y1733122D01*
Y1733671D02*
Y1734070D01*
Y1735664D02*
Y1735925D01*
X2374100Y1732821D02*
Y1733122D01*
Y1733755D02*
Y1734159D01*
Y1735676D02*
Y1735931D01*
X2374200Y1732821D02*
Y1733122D01*
Y1733840D02*
Y1734248D01*
Y1735656D02*
Y1735909D01*
X2374300Y1732821D02*
Y1733122D01*
Y1733928D02*
Y1734349D01*
Y1735636D02*
Y1735886D01*
X2374400Y1732821D02*
Y1733122D01*
Y1734015D02*
Y1734466D01*
Y1735578D02*
Y1735864D01*
X2374500Y1732821D02*
Y1733122D01*
Y1734104D02*
Y1734582D01*
Y1735503D02*
Y1735831D01*
X2374600Y1732821D02*
Y1733122D01*
Y1734224D02*
Y1734735D01*
Y1735408D02*
Y1735774D01*
X2374700Y1732821D02*
Y1733122D01*
Y1734344D02*
Y1735003D01*
Y1735182D02*
Y1735717D01*
X2374800Y1732821D02*
Y1733122D01*
Y1734475D02*
Y1735640D01*
X2374900Y1732821D02*
Y1733122D01*
Y1734671D02*
Y1735520D01*
X2375000Y1732821D02*
Y1733122D01*
Y1735023D02*
Y1735239D01*
X2375700Y1732821D02*
Y1735042D01*
X2375800Y1732821D02*
Y1735042D01*
X2375900Y1732821D02*
Y1735042D01*
X2376000Y1732821D02*
Y1735042D01*
X2376100Y1734506D02*
Y1734713D01*
X2376200Y1734626D02*
Y1734813D01*
X2376300Y1734737D02*
Y1734913D01*
X2376400Y1734766D02*
Y1734981D01*
X2376500Y1734794D02*
Y1735021D01*
X2376600Y1734823D02*
Y1735055D01*
X2376700Y1734814D02*
Y1735080D01*
X2376800Y1734789D02*
Y1735070D01*
X2376900Y1734735D02*
Y1735050D01*
X2377000Y1734645D02*
Y1735016D01*
X2377100Y1732821D02*
Y1734976D01*
X2377200Y1732821D02*
Y1734899D01*
X2377300Y1732821D02*
Y1734759D01*
X2377400Y1734220D02*
Y1734641D01*
X2377500Y1734533D02*
Y1734776D01*
X2377600Y1734654D02*
Y1734908D01*
X2377700Y1734729D02*
Y1734983D01*
X2377800Y1734788D02*
Y1735020D01*
X2377900Y1734808D02*
Y1735045D01*
X2378000Y1734828D02*
Y1735065D01*
X2378100Y1734814D02*
Y1735085D01*
X2378200Y1734794D02*
Y1735073D01*
X2378300Y1734736D02*
Y1735058D01*
X2378400Y1734603D02*
Y1735044D01*
X2378500Y1732821D02*
Y1734984D01*
X2378600Y1732821D02*
Y1734924D01*
X2378700Y1732821D02*
Y1734727D01*
X2379500Y1732821D02*
Y1735042D01*
X2379600Y1732821D02*
Y1735042D01*
X2379700Y1732821D02*
Y1735042D01*
X2379800Y1734443D02*
Y1734685D01*
X2379900Y1734566D02*
Y1734763D01*
X2380000Y1734686D02*
Y1734863D01*
X2380100Y1734751D02*
Y1734961D01*
X2380200Y1734780D02*
Y1735001D01*
X2380300Y1734808D02*
Y1735041D01*
X2380400Y1734826D02*
Y1735068D01*
X2380500Y1734801D02*
Y1735080D01*
X2380600Y1734768D02*
Y1735060D01*
X2380700Y1734702D02*
Y1735036D01*
X2380800Y1734545D02*
Y1734996D01*
X2380900Y1732821D02*
Y1734949D01*
X2381000Y1732821D02*
Y1734849D01*
X2381100Y1732821D02*
Y1734660D01*
X2381200Y1734467D02*
Y1734693D01*
X2381300Y1734600D02*
Y1734860D01*
X2381400Y1734691D02*
Y1734945D01*
X2381500Y1734766D02*
Y1735008D01*
X2381600Y1734798D02*
Y1735033D01*
X2381700Y1734818D02*
Y1735055D01*
X2381800Y1734824D02*
Y1735075D01*
X2381900Y1734804D02*
Y1735080D01*
X2382000Y1734784D02*
Y1735065D01*
X2382100Y1734669D02*
Y1735051D01*
X2382200Y1734481D02*
Y1735014D01*
X2382300Y1732821D02*
Y1734954D01*
X2382400Y1732821D02*
Y1734827D01*
X2382500Y1732821D02*
Y1734505D01*
*
G04 PC Custom Flashes*
G04 Layer Name WIFI_FLASH_MODULE_UPDAT - flashes*
%LPD*%
*
*
G04 PC Circuitry*
G04 Layer Name WIFI_FLASH_MODULE_UPDAT - circuitry*
%LPD*%
*
G54D10*
X1950804Y1894403D02*
X1950807D01*
X2340504Y1893903D02*
X2340507D01*
X2340551Y1574803D02*
X2340554D01*
X2340551Y1894488D02*
X2340554D01*
G54D12*
X2001294Y1645551D02*
X2009294D01*
X2005294Y1641551D02*
Y1649551D01*
X2000113Y1645551D02*
X2008113D01*
X2004113Y1641551D02*
Y1649551D01*
X2005294Y1644567D02*
G75*
G03Y1646535I0J984D01*
G01X2004113*
G03Y1644567I-0J-984*
G01X2005294*
X1994995Y1645551D02*
X2002995D01*
X1998995Y1641551D02*
Y1649551D01*
X1993814Y1645551D02*
X2001814D01*
X1997814Y1641551D02*
Y1649551D01*
X1998995Y1644567D02*
G03Y1646535I-0J984D01*
G01X1997814*
G03Y1644567I-0J-984*
G01X1998995*
X2033405Y1640961D02*
X2041405Y1648961D01*
X2033405D02*
X2041405Y1640961D01*
X2031436D02*
X2039436Y1648961D01*
X2031436D02*
X2039436Y1640961D01*
X2037405Y1643976D02*
G03Y1645945I-0J985D01*
G01X2035436*
G03Y1643976I0J-984*
G01X2037405*
X1968444Y1582614D02*
X1976444D01*
Y1590614*
X1968444*
Y1582614*
X1972444Y1586614D02*
Y1590614D01*
X1976318Y1582614D02*
X1984318D01*
Y1590614*
X1976318*
Y1582614*
X1980318Y1586614D02*
Y1590614D01*
X1984192Y1582614D02*
X1992192D01*
Y1590614*
X1984192*
Y1582614*
X1988192Y1586614D02*
Y1590614D01*
X1992066Y1582614D02*
X2000066D01*
Y1590614*
X1992066*
Y1582614*
X1996066Y1586614D02*
Y1590614D01*
X1999940Y1582614D02*
X2007940D01*
Y1590614*
X1999940*
Y1582614*
X2003940Y1586614D02*
Y1590614D01*
X2007814Y1582614D02*
X2015814D01*
Y1590614*
X2007814*
Y1582614*
X2011814Y1586614D02*
Y1590614D01*
X2015688Y1582614D02*
X2023688D01*
Y1590614*
X2015688*
Y1582614*
X2019688Y1586614D02*
Y1590614D01*
X2023562Y1582614D02*
X2031562D01*
Y1590614*
X2023562*
Y1582614*
X2027562Y1586614D02*
Y1590614D01*
X2031436Y1582614D02*
X2039436D01*
Y1590614*
X2031436*
Y1582614*
X2035436Y1586614D02*
Y1590614D01*
X1968444Y1574740D02*
X1976444D01*
Y1582740*
X1968444*
Y1574740*
X1972444Y1578740D02*
Y1582740D01*
X1976318Y1574740D02*
X1984318D01*
Y1582740*
X1976318*
Y1574740*
X1980318Y1578740D02*
Y1582740D01*
X1984192Y1574740D02*
X1992192D01*
Y1582740*
X1984192*
Y1574740*
X1988192Y1578740D02*
Y1582740D01*
X1992066Y1574740D02*
X2000066D01*
Y1582740*
X1992066*
Y1574740*
X1996066Y1578740D02*
Y1582740D01*
X1999940Y1574740D02*
X2007940D01*
Y1582740*
X1999940*
Y1574740*
X2003940Y1578740D02*
Y1582740D01*
X2007814Y1574740D02*
X2015814D01*
Y1582740*
X2007814*
Y1574740*
X2011814Y1578740D02*
Y1582740D01*
X2015688Y1574740D02*
X2023688D01*
Y1582740*
X2015688*
Y1574740*
X2019688Y1578740D02*
Y1582740D01*
X2023562Y1574740D02*
X2031562D01*
Y1582740*
X2023562*
Y1574740*
X2027562Y1578740D02*
Y1582740D01*
X2031436Y1574740D02*
X2039436D01*
Y1582740*
X2031436*
Y1574740*
X2035436Y1578740D02*
Y1582740D01*
X2023804Y1579003D02*
X2027804Y1583003D01*
X2023804Y1587003*
X2019804Y1583003*
X2023804Y1579003*
Y1583003D02*
Y1587003D01*
X2031504Y1578703D02*
X2035504Y1582703D01*
X2031504Y1586703*
X2027504Y1582703*
X2031504Y1578703*
Y1582703D02*
Y1586703D01*
X1983604Y1587503D02*
X1987604Y1591503D01*
X1983604Y1595503*
X1979604Y1591503*
X1983604Y1587503*
Y1591503D02*
Y1595503D01*
X1996804Y1587203D02*
X2000804Y1591203D01*
X1996804Y1595203*
X1992804Y1591203*
X1996804Y1587203*
Y1591203D02*
Y1595203D01*
X2008304Y1587303D02*
X2012304Y1591303D01*
X2008304Y1595303*
X2004304Y1591303*
X2008304Y1587303*
Y1591303D02*
Y1595303D01*
X2011704Y1587303D02*
X2015704Y1591303D01*
X2011704Y1595303*
X2007704Y1591303*
X2011704Y1587303*
Y1591303D02*
Y1595303D01*
X2027404Y1587403D02*
X2031404Y1591403D01*
X2027404Y1595403*
X2023404Y1591403*
X2027404Y1587403*
Y1591403D02*
Y1595403D01*
X2034304Y1587503D02*
X2038304Y1591503D01*
X2034304Y1595503*
X2030304Y1591503*
X2034304Y1587503*
Y1591503D02*
Y1595503D01*
X2030404Y1587403D02*
X2034404Y1591403D01*
X2030404Y1595403*
X2026404Y1591403*
X2030404Y1587403*
Y1591403D02*
Y1595403D01*
X1973404Y1594503D02*
X1977404Y1598503D01*
X1973404Y1602503*
X1969404Y1598503*
X1973404Y1594503*
Y1598503D02*
Y1602503D01*
X1995504Y1596403D02*
X1999504Y1600403D01*
X1995504Y1604403*
X1991504Y1600403*
X1995504Y1596403*
Y1600403D02*
Y1604403D01*
X1987304Y1595203D02*
X1991304Y1599203D01*
X1987304Y1603203*
X1983304Y1599203*
X1987304Y1595203*
Y1599203D02*
Y1603203D01*
X2016304Y1592703D02*
X2020304Y1596703D01*
X2016304Y1600703*
X2012304Y1596703*
X2016304Y1592703*
Y1596703D02*
Y1600703D01*
X2025204Y1591103D02*
X2029204Y1595103D01*
X2025204Y1599103*
X2021204Y1595103*
X2025204Y1591103*
Y1595103D02*
Y1599103D01*
X2018104Y1590603D02*
X2022104Y1594603D01*
X2018104Y1598603*
X2014104Y1594603*
X2018104Y1590603*
Y1594603D02*
Y1598603D01*
X2023304Y1598003D02*
X2027304Y1602003D01*
X2023304Y1606003*
X2019304Y1602003*
X2023304Y1598003*
Y1602003D02*
Y1606003D01*
X2023704Y1596003D02*
X2027704Y1600003D01*
X2023704Y1604003*
X2019704Y1600003*
X2023704Y1596003*
Y1600003D02*
Y1604003D01*
X2020604Y1592703D02*
X2024604Y1596703D01*
X2020604Y1600703*
X2016604Y1596703*
X2020604Y1592703*
Y1596703D02*
Y1600703D01*
X2027304Y1593003D02*
X2031304Y1597003D01*
X2027304Y1601003*
X2023304Y1597003*
X2027304Y1593003*
Y1597003D02*
Y1601003D01*
X2030704Y1591303D02*
X2034704Y1595303D01*
X2030704Y1599303*
X2026704Y1595303*
X2030704Y1591303*
Y1595303D02*
Y1599303D01*
X2034404Y1595203D02*
X2038404Y1599203D01*
X2034404Y1603203*
X2030404Y1599203*
X2034404Y1595203*
Y1599203D02*
Y1603203D01*
X2034504Y1591103D02*
X2038504Y1595103D01*
X2034504Y1599103*
X2030504Y1595103*
X2034504Y1591103*
Y1595103D02*
Y1599103D01*
X1973404Y1607903D02*
X1977404Y1611903D01*
X1973404Y1615903*
X1969404Y1611903*
X1973404Y1607903*
Y1611903D02*
Y1615903D01*
X1973304Y1600803D02*
X1977304Y1604803D01*
X1973304Y1608803*
X1969304Y1604803*
X1973304Y1600803*
Y1604803D02*
Y1608803D01*
X1983004Y1608203D02*
X1987004Y1612203D01*
X1983004Y1616203*
X1979004Y1612203*
X1983004Y1608203*
Y1612203D02*
Y1616203D01*
X1987604Y1602903D02*
X1991604Y1606903D01*
X1987604Y1610903*
X1983604Y1606903*
X1987604Y1602903*
Y1606903D02*
Y1610903D01*
X1994504Y1602803D02*
X1998504Y1606803D01*
X1994504Y1610803*
X1990504Y1606803*
X1994504Y1602803*
Y1606803D02*
Y1610803D01*
X1993804Y1607403D02*
X1997804Y1611403D01*
X1993804Y1615403*
X1989804Y1611403*
X1993804Y1607403*
Y1611403D02*
Y1615403D01*
X1994604Y1605103D02*
X1998604Y1609103D01*
X1994604Y1613103*
X1990604Y1609103*
X1994604Y1605103*
Y1609103D02*
Y1613103D01*
X1995704Y1600703D02*
X1999704Y1604703D01*
X1995704Y1608703*
X1991704Y1604703*
X1995704Y1600703*
Y1604703D02*
Y1608703D01*
X2005704Y1608803D02*
X2009704Y1612803D01*
X2005704Y1616803*
X2001704Y1612803*
X2005704Y1608803*
Y1612803D02*
Y1616803D01*
X2005904Y1605603D02*
X2009904Y1609603D01*
X2005904Y1613603*
X2001904Y1609603*
X2005904Y1605603*
Y1609603D02*
Y1613603D01*
X2002904Y1608703D02*
X2006904Y1612703D01*
X2002904Y1616703*
X1998904Y1612703*
X2002904Y1608703*
Y1612703D02*
Y1616703D01*
X2002804Y1605603D02*
X2006804Y1609603D01*
X2002804Y1613603*
X1998804Y1609603*
X2002804Y1605603*
Y1609603D02*
Y1613603D01*
Y1602603D02*
X2006804Y1606603D01*
X2002804Y1610603*
X1998804Y1606603*
X2002804Y1602603*
Y1606603D02*
Y1610603D01*
X2006004Y1602603D02*
X2010004Y1606603D01*
X2006004Y1610603*
X2002004Y1606603*
X2006004Y1602603*
Y1606603D02*
Y1610603D01*
X2009704Y1608803D02*
X2013704Y1612803D01*
X2009704Y1616803*
X2005704Y1612803*
X2009704Y1608803*
Y1612803D02*
Y1616803D01*
Y1605603D02*
X2013704Y1609603D01*
X2009704Y1613603*
X2005704Y1609603*
X2009704Y1605603*
Y1609603D02*
Y1613603D01*
X2009604Y1602603D02*
X2013604Y1606603D01*
X2009604Y1610603*
X2005604Y1606603*
X2009604Y1602603*
Y1606603D02*
Y1610603D01*
X2013904Y1602603D02*
X2017904Y1606603D01*
X2013904Y1610603*
X2009904Y1606603*
X2013904Y1602603*
Y1606603D02*
Y1610603D01*
Y1605603D02*
X2017904Y1609603D01*
X2013904Y1613603*
X2009904Y1609603*
X2013904Y1605603*
Y1609603D02*
Y1613603D01*
Y1608403D02*
X2017904Y1612403D01*
X2013904Y1616403*
X2009904Y1612403*
X2013904Y1608403*
Y1612403D02*
Y1616403D01*
X2030604Y1605403D02*
X2034604Y1609403D01*
X2030604Y1613403*
X2026604Y1609403*
X2030604Y1605403*
Y1609403D02*
Y1613403D01*
X2034404Y1602203D02*
X2038404Y1606203D01*
X2034404Y1610203*
X2030404Y1606203*
X2034404Y1602203*
Y1606203D02*
Y1610203D01*
X2034504Y1608703D02*
X2038504Y1612703D01*
X2034504Y1616703*
X2030504Y1612703*
X2034504Y1608703*
Y1612703D02*
Y1616703D01*
X1973404Y1614803D02*
X1977404Y1618803D01*
X1973404Y1622803*
X1969404Y1618803*
X1973404Y1614803*
Y1618803D02*
Y1622803D01*
X1986104Y1611303D02*
X1990104Y1615303D01*
X1986104Y1619303*
X1982104Y1615303*
X1986104Y1611303*
Y1615303D02*
Y1619303D01*
X1983404Y1616103D02*
X1987404Y1620103D01*
X1983404Y1624103*
X1979404Y1620103*
X1983404Y1616103*
Y1620103D02*
Y1624103D01*
Y1610803D02*
X1987404Y1614803D01*
X1983404Y1618803*
X1979404Y1614803*
X1983404Y1610803*
Y1614803D02*
Y1618803D01*
X1995804Y1613603D02*
X1999804Y1617603D01*
X1995804Y1621603*
X1991804Y1617603*
X1995804Y1613603*
Y1617603D02*
Y1621603D01*
X1995004Y1609503D02*
X1999004Y1613503D01*
X1995004Y1617503*
X1991004Y1613503*
X1995004Y1609503*
Y1613503D02*
Y1617503D01*
X2006304Y1611803D02*
X2010304Y1615803D01*
X2006304Y1619803*
X2002304Y1615803*
X2006304Y1611803*
Y1615803D02*
Y1619803D01*
X2002904Y1611803D02*
X2006904Y1615803D01*
X2002904Y1619803*
X1998904Y1615803*
X2002904Y1611803*
Y1615803D02*
Y1619803D01*
X2004504Y1613803D02*
X2008504Y1617803D01*
X2004504Y1621803*
X2000504Y1617803*
X2004504Y1613803*
Y1617803D02*
Y1621803D01*
X1997804Y1617203D02*
X2001804Y1621203D01*
X1997804Y1625203*
X1993804Y1621203*
X1997804Y1617203*
Y1621203D02*
Y1625203D01*
X1999704Y1618703D02*
X2003704Y1622703D01*
X1999704Y1626703*
X1995704Y1622703*
X1999704Y1618703*
Y1622703D02*
Y1626703D01*
X2009804Y1611603D02*
X2013804Y1615603D01*
X2009804Y1619603*
X2005804Y1615603*
X2009804Y1611603*
Y1615603D02*
Y1619603D01*
X2013904Y1611403D02*
X2017904Y1615403D01*
X2013904Y1619403*
X2009904Y1615403*
X2013904Y1611403*
Y1615403D02*
Y1619403D01*
X2010404Y1614403D02*
X2014404Y1618403D01*
X2010404Y1622403*
X2006404Y1618403*
X2010404Y1614403*
Y1618403D02*
Y1622403D01*
X2007204Y1614403D02*
X2011204Y1618403D01*
X2007204Y1622403*
X2003204Y1618403*
X2007204Y1614403*
Y1618403D02*
Y1622403D01*
X2014004Y1614403D02*
X2018004Y1618403D01*
X2014004Y1622403*
X2010004Y1618403*
X2014004Y1614403*
Y1618403D02*
Y1622403D01*
X2020704Y1610503D02*
X2024704Y1614503D01*
X2020704Y1618503*
X2016704Y1614503*
X2020704Y1610503*
Y1614503D02*
Y1618503D01*
X2018704Y1617403D02*
X2022704Y1621403D01*
X2018704Y1625403*
X2014704Y1621403*
X2018704Y1617403*
Y1621403D02*
Y1625403D01*
X2029804Y1616603D02*
X2033804Y1620603D01*
X2029804Y1624603*
X2025804Y1620603*
X2029804Y1616603*
Y1620603D02*
Y1624603D01*
X2034504Y1616103D02*
X2038504Y1620103D01*
X2034504Y1624103*
X2030504Y1620103*
X2034504Y1616103*
Y1620103D02*
Y1624103D01*
X2031804Y1612003D02*
X2035804Y1616003D01*
X2031804Y1620003*
X2027804Y1616003*
X2031804Y1612003*
Y1616003D02*
Y1620003D01*
Y1614103D02*
X2035804Y1618103D01*
X2031804Y1622103*
X2027804Y1618103*
X2031804Y1614103*
Y1618103D02*
Y1622103D01*
X1973304Y1628603D02*
X1977304Y1632603D01*
X1973304Y1636603*
X1969304Y1632603*
X1973304Y1628603*
Y1632603D02*
Y1636603D01*
Y1622703D02*
X1977304Y1626703D01*
X1973304Y1630703*
X1969304Y1626703*
X1973304Y1622703*
Y1626703D02*
Y1630703D01*
X1985004Y1625003D02*
X1989004Y1629003D01*
X1985004Y1633003*
X1981004Y1629003*
X1985004Y1625003*
Y1629003D02*
Y1633003D01*
X1977204Y1624503D02*
X1981204Y1628503D01*
X1977204Y1632503*
X1973204Y1628503*
X1977204Y1624503*
Y1628503D02*
Y1632503D01*
X1981204Y1627103D02*
X1985204Y1631103D01*
X1981204Y1635103*
X1977204Y1631103*
X1981204Y1627103*
Y1631103D02*
Y1635103D01*
X1995804Y1625003D02*
X1999804Y1629003D01*
X1995804Y1633003*
X1991804Y1629003*
X1995804Y1625003*
Y1629003D02*
Y1633003D01*
X1993404Y1624903D02*
X1997404Y1628903D01*
X1993404Y1632903*
X1989404Y1628903*
X1993404Y1624903*
Y1628903D02*
Y1632903D01*
X1991004Y1624903D02*
X1995004Y1628903D01*
X1991004Y1632903*
X1987004Y1628903*
X1991004Y1624903*
Y1628903D02*
Y1632903D01*
X1998204Y1620903D02*
X2002204Y1624903D01*
X1998204Y1628903*
X1994204Y1624903*
X1998204Y1620903*
Y1624903D02*
Y1628903D01*
X1999504Y1627803D02*
X2003504Y1631803D01*
X1999504Y1635803*
X1995504Y1631803*
X1999504Y1627803*
Y1631803D02*
Y1635803D01*
X2005004Y1627803D02*
X2009004Y1631803D01*
X2005004Y1635803*
X2001004Y1631803*
X2005004Y1627803*
Y1631803D02*
Y1635803D01*
X2001704Y1621403D02*
X2005704Y1625403D01*
X2001704Y1629403*
X1997704Y1625403*
X2001704Y1621403*
Y1625403D02*
Y1629403D01*
X2004704Y1621103D02*
X2008704Y1625103D01*
X2004704Y1629103*
X2000704Y1625103*
X2004704Y1621103*
Y1625103D02*
Y1629103D01*
X2009804Y1621303D02*
X2013804Y1625303D01*
X2009804Y1629303*
X2005804Y1625303*
X2009804Y1621303*
Y1625303D02*
Y1629303D01*
X2009204Y1624003D02*
X2013204Y1628003D01*
X2009204Y1632003*
X2005204Y1628003*
X2009204Y1624003*
Y1628003D02*
Y1632003D01*
X2007304Y1625903D02*
X2011304Y1629903D01*
X2007304Y1633903*
X2003304Y1629903*
X2007304Y1625903*
Y1629903D02*
Y1633903D01*
X2012804Y1627903D02*
X2016804Y1631903D01*
X2012804Y1635903*
X2008804Y1631903*
X2012804Y1627903*
Y1631903D02*
Y1635903D01*
X2019304Y1626903D02*
X2023304Y1630903D01*
X2019304Y1634903*
X2015304Y1630903*
X2019304Y1626903*
Y1630903D02*
Y1634903D01*
X2017704Y1624303D02*
X2021704Y1628303D01*
X2017704Y1632303*
X2013704Y1628303*
X2017704Y1624303*
Y1628303D02*
Y1632303D01*
X2023204Y1621603D02*
X2027204Y1625603D01*
X2023204Y1629603*
X2019204Y1625603*
X2023204Y1621603*
Y1625603D02*
Y1629603D01*
X2021904Y1628003D02*
X2025904Y1632003D01*
X2021904Y1636003*
X2017904Y1632003*
X2021904Y1628003*
Y1632003D02*
Y1636003D01*
X2026204Y1628003D02*
X2030204Y1632003D01*
X2026204Y1636003*
X2022204Y1632003*
X2026204Y1628003*
Y1632003D02*
Y1636003D01*
X2031804Y1620403D02*
X2035804Y1624403D01*
X2031804Y1628403*
X2027804Y1624403*
X2031804Y1620403*
Y1624403D02*
Y1628403D01*
X2034504Y1622503D02*
X2038504Y1626503D01*
X2034504Y1630503*
X2030504Y1626503*
X2034504Y1622503*
Y1626503D02*
Y1630503D01*
X2034404Y1628903D02*
X2038404Y1632903D01*
X2034404Y1636903*
X2030404Y1632903*
X2034404Y1628903*
Y1632903D02*
Y1636903D01*
X2030304Y1628003D02*
X2034304Y1632003D01*
X2030304Y1636003*
X2026304Y1632003*
X2030304Y1628003*
Y1632003D02*
Y1636003D01*
X2030204Y1623503D02*
X2034204Y1627503D01*
X2030204Y1631503*
X2026204Y1627503*
X2030204Y1623503*
Y1627503D02*
Y1631503D01*
X1973504Y1634603D02*
X1977504Y1638603D01*
X1973504Y1642603*
X1969504Y1638603*
X1973504Y1634603*
Y1638603D02*
Y1642603D01*
X1985004Y1632103D02*
X1989004Y1636103D01*
X1985004Y1640103*
X1981004Y1636103*
X1985004Y1632103*
Y1636103D02*
Y1640103D01*
X1977004Y1631203D02*
X1981004Y1635203D01*
X1977004Y1639203*
X1973004Y1635203*
X1977004Y1631203*
Y1635203D02*
Y1639203D01*
X1981304Y1629403D02*
X1985304Y1633403D01*
X1981304Y1637403*
X1977304Y1633403*
X1981304Y1629403*
Y1633403D02*
Y1637403D01*
X1985304Y1635003D02*
X1989304Y1639003D01*
X1985304Y1643003*
X1981304Y1639003*
X1985304Y1635003*
Y1639003D02*
Y1643003D01*
X1978904Y1634903D02*
X1982904Y1638903D01*
X1978904Y1642903*
X1974904Y1638903*
X1978904Y1634903*
Y1638903D02*
Y1642903D01*
X1992104Y1632203D02*
X1996104Y1636203D01*
X1992104Y1640203*
X1988104Y1636203*
X1992104Y1632203*
Y1636203D02*
Y1640203D01*
X1996504Y1634903D02*
X2000504Y1638903D01*
X1996504Y1642903*
X1992504Y1638903*
X1996504Y1634903*
Y1638903D02*
Y1642903D01*
X1991604Y1634803D02*
X1995604Y1638803D01*
X1991604Y1642803*
X1987604Y1638803*
X1991604Y1634803*
Y1638803D02*
Y1642803D01*
X1994504Y1637103D02*
X1998504Y1641103D01*
X1994504Y1645103*
X1990504Y1641103*
X1994504Y1637103*
Y1641103D02*
Y1645103D01*
X1998104Y1637603D02*
X2002104Y1641603D01*
X1998104Y1645603*
X1994104Y1641603*
X1998104Y1637603*
Y1641603D02*
Y1645603D01*
X2001604Y1637603D02*
X2005604Y1641603D01*
X2001604Y1645603*
X1997604Y1641603*
X2001604Y1637603*
Y1641603D02*
Y1645603D01*
X2002004Y1632903D02*
X2006004Y1636903D01*
X2002004Y1640903*
X1998004Y1636903*
X2002004Y1632903*
Y1636903D02*
Y1640903D01*
X1999804Y1630203D02*
X2003804Y1634203D01*
X1999804Y1638203*
X1995804Y1634203*
X1999804Y1630203*
Y1634203D02*
Y1638203D01*
X2001604Y1634903D02*
X2005604Y1638903D01*
X2001604Y1642903*
X1997604Y1638903*
X2001604Y1634903*
Y1638903D02*
Y1642903D01*
X2013504Y1632003D02*
X2017504Y1636003D01*
X2013504Y1640003*
X2009504Y1636003*
X2013504Y1632003*
Y1636003D02*
Y1640003D01*
X2007604Y1637903D02*
X2011604Y1641903D01*
X2007604Y1645903*
X2003604Y1641903*
X2007604Y1637903*
Y1641903D02*
Y1645903D01*
X2007704Y1635103D02*
X2011704Y1639103D01*
X2007704Y1643103*
X2003704Y1639103*
X2007704Y1635103*
Y1639103D02*
Y1643103D01*
X2016104Y1635003D02*
X2020104Y1639003D01*
X2016104Y1643003*
X2012104Y1639003*
X2016104Y1635003*
Y1639003D02*
Y1643003D01*
X2010804Y1630203D02*
X2014804Y1634203D01*
X2010804Y1638203*
X2006804Y1634203*
X2010804Y1630203*
Y1634203D02*
Y1638203D01*
X2012104Y1635003D02*
X2016104Y1639003D01*
X2012104Y1643003*
X2008104Y1639003*
X2012104Y1635003*
Y1639003D02*
Y1643003D01*
X2008504Y1632703D02*
X2012504Y1636703D01*
X2008504Y1640703*
X2004504Y1636703*
X2008504Y1632703*
Y1636703D02*
Y1640703D01*
X2025904Y1631703D02*
X2029904Y1635703D01*
X2025904Y1639703*
X2021904Y1635703*
X2025904Y1631703*
Y1635703D02*
Y1639703D01*
X2017504Y1629403D02*
X2021504Y1633403D01*
X2017504Y1637403*
X2013504Y1633403*
X2017504Y1629403*
Y1633403D02*
Y1637403D01*
X2022704Y1635003D02*
X2026704Y1639003D01*
X2022704Y1643003*
X2018704Y1639003*
X2022704Y1635003*
Y1639003D02*
Y1643003D01*
X2021904Y1631603D02*
X2025904Y1635603D01*
X2021904Y1639603*
X2017904Y1635603*
X2021904Y1631603*
Y1635603D02*
Y1639603D01*
X2034204Y1634603D02*
X2038204Y1638603D01*
X2034204Y1642603*
X2030204Y1638603*
X2034204Y1634603*
Y1638603D02*
Y1642603D01*
X2029204Y1634903D02*
X2033204Y1638903D01*
X2029204Y1642903*
X2025204Y1638903*
X2029204Y1634903*
Y1638903D02*
Y1642903D01*
X2030204Y1631803D02*
X2034204Y1635803D01*
X2030204Y1639803*
X2026204Y1635803*
X2030204Y1631803*
Y1635803D02*
Y1639803D01*
X2011204Y1641803D02*
X2015204Y1645803D01*
X2011204Y1649803*
X2007204Y1645803*
X2011204Y1641803*
Y1645803D02*
Y1649803D01*
X2025604Y1641703D02*
X2029604Y1645703D01*
X2025604Y1649703*
X2021604Y1645703*
X2025604Y1641703*
Y1645703D02*
Y1649703D01*
X2018904Y1641803D02*
X2022904Y1645803D01*
X2018904Y1649803*
X2014904Y1645803*
X2018904Y1641803*
Y1645803D02*
Y1649803D01*
X2031304Y1641703D02*
X2035304Y1645703D01*
X2031304Y1649703*
X2027304Y1645703*
X2031304Y1641703*
Y1645703D02*
Y1649703D01*
X3149606Y1694803D02*
X3407606D01*
X3149606Y1670803D02*
X3407606D01*
X3149606Y1646803D02*
X3407606D01*
X3149606Y1622803D02*
X3407606D01*
X3149606Y1598803D02*
X3407606D01*
X3149606Y1574803D02*
X3407606D01*
X3149606Y1694803D02*
Y1574803D01*
X3233606Y1694803D02*
Y1574803D01*
X3269606Y1694803D02*
Y1574803D01*
X3305606Y1694803D02*
Y1574803D01*
X3359606Y1694803D02*
Y1574803D01*
X3407606Y1694803D02*
Y1574803D01*
X3185106Y1683553D02*
X3184561Y1684303D01*
X3183743Y1684678*
X3182652*
X3181834Y1684303*
X3181288Y1683553*
Y1682803*
X3181561Y1682053*
X3181834Y1681678*
X3182379Y1681303*
X3184015Y1680553*
X3184561Y1680178*
X3184834Y1679803*
X3185106Y1679053*
Y1677928*
X3184561Y1677178*
X3183743Y1676803*
X3182652*
X3181834Y1677178*
X3181288Y1677928*
X3187561Y1684678D02*
Y1676803D01*
X3193834Y1684678D02*
X3190015Y1676803D01*
Y1684678D02*
X3193834D01*
X3190015Y1676803D02*
X3193834D01*
X3196288Y1684678D02*
Y1676803D01*
Y1684678D02*
X3199834D01*
X3196288Y1680928D02*
X3198470D01*
X3196288Y1676803D02*
X3199834D01*
X3243470Y1684678D02*
X3242924Y1684303D01*
X3242379Y1683553*
X3242106Y1682803*
X3241834Y1681678*
Y1679803*
X3242106Y1678678*
X3242379Y1677928*
X3242924Y1677178*
X3243470Y1676803*
X3244561*
X3245106Y1677178*
X3245652Y1677928*
X3245924Y1678678*
X3246197Y1679803*
Y1681678*
X3245924Y1682803*
X3245652Y1683553*
X3245106Y1684303*
X3244561Y1684678*
X3243470*
X3244288Y1678303D02*
X3245924Y1676053D01*
X3250561Y1684678D02*
Y1676803D01*
X3248652Y1684678D02*
X3252470D01*
X3254924D02*
X3257106Y1680928D01*
Y1676803*
X3259288Y1684678D02*
X3257106Y1680928D01*
X3281652Y1683553D02*
X3281106Y1684303D01*
X3280288Y1684678*
X3279197*
X3278379Y1684303*
X3277834Y1683553*
Y1682803*
X3278106Y1682053*
X3278379Y1681678*
X3278924Y1681303*
X3280561Y1680553*
X3281106Y1680178*
X3281379Y1679803*
X3281652Y1679053*
Y1677928*
X3281106Y1677178*
X3280288Y1676803*
X3279197*
X3278379Y1677178*
X3277834Y1677928*
X3284106Y1684678D02*
X3286288Y1680928D01*
Y1676803*
X3288470Y1684678D02*
X3286288Y1680928D01*
X3290924Y1684678D02*
Y1676803D01*
Y1684678D02*
X3293106Y1676803D01*
X3295288Y1684678D02*
X3293106Y1676803D01*
X3295288Y1684678D02*
Y1676803D01*
X3317106Y1684678D02*
Y1676803D01*
Y1684678D02*
X3319561D01*
X3320379Y1684303*
X3320652Y1683928*
X3320924Y1683178*
Y1682053*
X3320652Y1681303*
X3320379Y1680928*
X3319561Y1680553*
X3317106*
X3323379Y1684678D02*
Y1676803D01*
X3326652*
X3331288Y1684678D02*
X3329106Y1676803D01*
X3331288Y1684678D02*
X3333470Y1676803D01*
X3329924Y1679428D02*
X3332652D01*
X3337834Y1684678D02*
Y1676803D01*
X3335924Y1684678D02*
X3339743D01*
X3342197D02*
Y1676803D01*
Y1684678D02*
X3345743D01*
X3342197Y1680928D02*
X3344379D01*
X3342197Y1676803D02*
X3345743D01*
X3348197Y1684678D02*
Y1676803D01*
Y1684678D02*
X3350106D01*
X3350924Y1684303*
X3351470Y1683553*
X3351743Y1682803*
X3352015Y1681678*
Y1679803*
X3351743Y1678678*
X3351470Y1677928*
X3350924Y1677178*
X3350106Y1676803*
X3348197*
X3376288Y1684678D02*
Y1676803D01*
X3374379Y1684678D02*
X3378197D01*
X3382288D02*
X3381743Y1684303D01*
X3381197Y1683553*
X3380924Y1682803*
X3380652Y1681678*
Y1679803*
X3380924Y1678678*
X3381197Y1677928*
X3381743Y1677178*
X3382288Y1676803*
X3383379*
X3383924Y1677178*
X3384470Y1677928*
X3384743Y1678678*
X3385015Y1679803*
Y1681678*
X3384743Y1682803*
X3384470Y1683553*
X3383924Y1684303*
X3383379Y1684678*
X3382288*
X3387470D02*
Y1676803D01*
X3390743*
X3157243Y1660678D02*
X3156424Y1660303D01*
X3155879Y1659178*
X3155606Y1657303*
Y1656178*
X3155879Y1654303*
X3156424Y1653178*
X3157243Y1652803*
X3157788*
X3158606Y1653178*
X3159152Y1654303*
X3159424Y1656178*
Y1657303*
X3159152Y1659178*
X3158606Y1660303*
X3157788Y1660678*
X3157243*
X3162152Y1653553D02*
X3161879Y1653178D01*
X3162152Y1652803*
X3162424Y1653178*
X3162152Y1653553*
X3168424Y1660678D02*
X3165697D01*
X3165424Y1657303*
X3165697Y1657678*
X3166515Y1658053*
X3167334*
X3168152Y1657678*
X3168697Y1656928*
X3168970Y1655803*
X3168697Y1655053*
X3168424Y1653928*
X3167879Y1653178*
X3167061Y1652803*
X3166243*
X3165424Y1653178*
X3165152Y1653553*
X3164879Y1654303*
X3177697Y1658053D02*
X3180697Y1652803D01*
Y1658053D02*
X3177697Y1652803D01*
X3191061Y1660678D02*
X3190243Y1660303D01*
X3189697Y1659178*
X3189424Y1657303*
Y1656178*
X3189697Y1654303*
X3190243Y1653178*
X3191061Y1652803*
X3191606*
X3192424Y1653178*
X3192970Y1654303*
X3193243Y1656178*
Y1657303*
X3192970Y1659178*
X3192424Y1660303*
X3191606Y1660678*
X3191061*
X3195970Y1653553D02*
X3195697Y1653178D01*
X3195970Y1652803*
X3196243Y1653178*
X3195970Y1653553*
X3200061Y1660678D02*
X3199243Y1660303D01*
X3198970Y1659553*
Y1658803*
X3199243Y1658053*
X3199788Y1657678*
X3200879Y1657303*
X3201697Y1656928*
X3202243Y1656178*
X3202515Y1655428*
Y1654303*
X3202243Y1653553*
X3201970Y1653178*
X3201152Y1652803*
X3200061*
X3199243Y1653178*
X3198970Y1653553*
X3198697Y1654303*
Y1655428*
X3198970Y1656178*
X3199515Y1656928*
X3200334Y1657303*
X3201424Y1657678*
X3201970Y1658053*
X3202243Y1658803*
Y1659553*
X3201970Y1660303*
X3201152Y1660678*
X3200061*
X3248924Y1658803D02*
Y1659178D01*
X3249197Y1659928*
X3249470Y1660303*
X3250015Y1660678*
X3251106*
X3251652Y1660303*
X3251924Y1659928*
X3252197Y1659178*
Y1658428*
X3251924Y1657678*
X3251379Y1656553*
X3248652Y1652803*
X3252470*
X3281606Y1658803D02*
X3293606D01*
X3287606Y1652803D02*
Y1664803D01*
X3314243Y1660678D02*
X3316424Y1656928D01*
Y1652803*
X3318606Y1660678D02*
X3316424Y1656928D01*
X3321061Y1660678D02*
Y1652803D01*
Y1660678D02*
X3324606D01*
X3321061Y1656928D02*
X3323243D01*
X3321061Y1652803D02*
X3324606D01*
X3330879Y1659553D02*
X3330334Y1660303D01*
X3329515Y1660678*
X3328424*
X3327606Y1660303*
X3327061Y1659553*
Y1658803*
X3327334Y1658053*
X3327606Y1657678*
X3328152Y1657303*
X3329788Y1656553*
X3330334Y1656178*
X3330606Y1655803*
X3330879Y1655053*
Y1653928*
X3330334Y1653178*
X3329515Y1652803*
X3328424*
X3327606Y1653178*
X3327061Y1653928*
X3367424Y1659553D02*
Y1652803D01*
X3364970Y1656178D02*
X3369879D01*
X3377243Y1662178D02*
X3372334Y1650178D01*
X3379697Y1656178D02*
X3384606D01*
X3388697Y1660678D02*
X3387879Y1660303D01*
X3387334Y1659178*
X3387061Y1657303*
Y1656178*
X3387334Y1654303*
X3387879Y1653178*
X3388697Y1652803*
X3389243*
X3390061Y1653178*
X3390606Y1654303*
X3390879Y1656178*
Y1657303*
X3390606Y1659178*
X3390061Y1660303*
X3389243Y1660678*
X3388697*
X3393606Y1653553D02*
X3393334Y1653178D01*
X3393606Y1652803*
X3393879Y1653178*
X3393606Y1653553*
X3397970Y1660678D02*
X3397152Y1660303D01*
X3396606Y1659178*
X3396334Y1657303*
Y1656178*
X3396606Y1654303*
X3397152Y1653178*
X3397970Y1652803*
X3398515*
X3399334Y1653178*
X3399879Y1654303*
X3400152Y1656178*
Y1657303*
X3399879Y1659178*
X3399334Y1660303*
X3398515Y1660678*
X3397970*
X3157243Y1636678D02*
X3156424Y1636303D01*
X3155879Y1635178*
X3155606Y1633303*
Y1632178*
X3155879Y1630303*
X3156424Y1629178*
X3157243Y1628803*
X3157788*
X3158606Y1629178*
X3159152Y1630303*
X3159424Y1632178*
Y1633303*
X3159152Y1635178*
X3158606Y1636303*
X3157788Y1636678*
X3157243*
X3162152Y1629553D02*
X3161879Y1629178D01*
X3162152Y1628803*
X3162424Y1629178*
X3162152Y1629553*
X3168424Y1636678D02*
X3165697D01*
X3165424Y1633303*
X3165697Y1633678*
X3166515Y1634053*
X3167334*
X3168152Y1633678*
X3168697Y1632928*
X3168970Y1631803*
X3168697Y1631053*
X3168424Y1629928*
X3167879Y1629178*
X3167061Y1628803*
X3166243*
X3165424Y1629178*
X3165152Y1629553*
X3164879Y1630303*
X3177697Y1634053D02*
X3180697Y1628803D01*
Y1634053D02*
X3177697Y1628803D01*
X3189424Y1635178D02*
X3189970Y1635553D01*
X3190788Y1636678*
Y1628803*
X3249879Y1635178D02*
X3250424Y1635553D01*
X3251243Y1636678*
Y1628803*
X3281606D02*
X3293606Y1640803D01*
X3281606D02*
X3293606Y1628803D01*
X3317243Y1636678D02*
Y1628803D01*
Y1636678D02*
X3321061Y1628803D01*
Y1636678D02*
Y1628803D01*
X3325152Y1636678D02*
X3324606Y1636303D01*
X3324061Y1635553*
X3323788Y1634803*
X3323515Y1633678*
Y1631803*
X3323788Y1630678*
X3324061Y1629928*
X3324606Y1629178*
X3325152Y1628803*
X3326243*
X3326788Y1629178*
X3327334Y1629928*
X3327606Y1630678*
X3327879Y1631803*
Y1633678*
X3327606Y1634803*
X3327334Y1635553*
X3326788Y1636303*
X3326243Y1636678*
X3325152*
X3367424Y1635553D02*
Y1628803D01*
X3364970Y1632178D02*
X3369879D01*
X3377243Y1638178D02*
X3372334Y1626178D01*
X3379697Y1632178D02*
X3384606D01*
X3388697Y1636678D02*
X3387879Y1636303D01*
X3387334Y1635178*
X3387061Y1633303*
Y1632178*
X3387334Y1630303*
X3387879Y1629178*
X3388697Y1628803*
X3389243*
X3390061Y1629178*
X3390606Y1630303*
X3390879Y1632178*
Y1633303*
X3390606Y1635178*
X3390061Y1636303*
X3389243Y1636678*
X3388697*
X3393606Y1629553D02*
X3393334Y1629178D01*
X3393606Y1628803*
X3393879Y1629178*
X3393606Y1629553*
X3397970Y1636678D02*
X3397152Y1636303D01*
X3396606Y1635178*
X3396334Y1633303*
Y1632178*
X3396606Y1630303*
X3397152Y1629178*
X3397970Y1628803*
X3398515*
X3399334Y1629178*
X3399879Y1630303*
X3400152Y1632178*
Y1633303*
X3399879Y1635178*
X3399334Y1636303*
X3398515Y1636678*
X3397970*
X3157243Y1612678D02*
X3156424Y1612303D01*
X3155879Y1611178*
X3155606Y1609303*
Y1608178*
X3155879Y1606303*
X3156424Y1605178*
X3157243Y1604803*
X3157788*
X3158606Y1605178*
X3159152Y1606303*
X3159424Y1608178*
Y1609303*
X3159152Y1611178*
X3158606Y1612303*
X3157788Y1612678*
X3157243*
X3162152Y1605553D02*
X3161879Y1605178D01*
X3162152Y1604803*
X3162424Y1605178*
X3162152Y1605553*
X3168697Y1612678D02*
X3165970Y1604803D01*
X3164879Y1612678D02*
X3168697D01*
X3246743Y1611178D02*
X3247288Y1611553D01*
X3248106Y1612678*
Y1604803*
X3251924Y1612678D02*
X3251106Y1612303D01*
X3250834Y1611553*
Y1610803*
X3251106Y1610053*
X3251652Y1609678*
X3252743Y1609303*
X3253561Y1608928*
X3254106Y1608178*
X3254379Y1607428*
Y1606303*
X3254106Y1605553*
X3253834Y1605178*
X3253015Y1604803*
X3251924*
X3251106Y1605178*
X3250834Y1605553*
X3250561Y1606303*
Y1607428*
X3250834Y1608178*
X3251379Y1608928*
X3252197Y1609303*
X3253288Y1609678*
X3253834Y1610053*
X3254106Y1610803*
Y1611553*
X3253834Y1612303*
X3253015Y1612678*
X3251924*
X3281606Y1604803D02*
X3293606D01*
Y1616803*
X3281606*
Y1604803*
X3287606Y1610803D02*
Y1616803D01*
X3314243Y1612678D02*
X3316424Y1608928D01*
Y1604803*
X3318606Y1612678D02*
X3316424Y1608928D01*
X3321061Y1612678D02*
Y1604803D01*
Y1612678D02*
X3324606D01*
X3321061Y1608928D02*
X3323243D01*
X3321061Y1604803D02*
X3324606D01*
X3330879Y1611553D02*
X3330334Y1612303D01*
X3329515Y1612678*
X3328424*
X3327606Y1612303*
X3327061Y1611553*
Y1610803*
X3327334Y1610053*
X3327606Y1609678*
X3328152Y1609303*
X3329788Y1608553*
X3330334Y1608178*
X3330606Y1607803*
X3330879Y1607053*
Y1605928*
X3330334Y1605178*
X3329515Y1604803*
X3328424*
X3327606Y1605178*
X3327061Y1605928*
X3367424Y1611553D02*
Y1604803D01*
X3364970Y1608178D02*
X3369879D01*
X3377243Y1614178D02*
X3372334Y1602178D01*
X3379697Y1608178D02*
X3384606D01*
X3388697Y1612678D02*
X3387879Y1612303D01*
X3387334Y1611178*
X3387061Y1609303*
Y1608178*
X3387334Y1606303*
X3387879Y1605178*
X3388697Y1604803*
X3389243*
X3390061Y1605178*
X3390606Y1606303*
X3390879Y1608178*
Y1609303*
X3390606Y1611178*
X3390061Y1612303*
X3389243Y1612678*
X3388697*
X3393606Y1605553D02*
X3393334Y1605178D01*
X3393606Y1604803*
X3393879Y1605178*
X3393606Y1605553*
X3397970Y1612678D02*
X3397152Y1612303D01*
X3396606Y1611178*
X3396334Y1609303*
Y1608178*
X3396606Y1606303*
X3397152Y1605178*
X3397970Y1604803*
X3398515*
X3399334Y1605178*
X3399879Y1606303*
X3400152Y1608178*
Y1609303*
X3399879Y1611178*
X3399334Y1612303*
X3398515Y1612678*
X3397970*
X3157243Y1588678D02*
X3156424Y1588303D01*
X3155879Y1587178*
X3155606Y1585303*
Y1584178*
X3155879Y1582303*
X3156424Y1581178*
X3157243Y1580803*
X3157788*
X3158606Y1581178*
X3159152Y1582303*
X3159424Y1584178*
Y1585303*
X3159152Y1587178*
X3158606Y1588303*
X3157788Y1588678*
X3157243*
X3162152Y1581553D02*
X3161879Y1581178D01*
X3162152Y1580803*
X3162424Y1581178*
X3162152Y1581553*
X3165152Y1586803D02*
Y1587178D01*
X3165424Y1587928*
X3165697Y1588303*
X3166243Y1588678*
X3167334*
X3167879Y1588303*
X3168152Y1587928*
X3168424Y1587178*
Y1586428*
X3168152Y1585678*
X3167606Y1584553*
X3164879Y1580803*
X3168697*
X3174697Y1588678D02*
X3171970D01*
X3171697Y1585303*
X3171970Y1585678*
X3172788Y1586053*
X3173606*
X3174424Y1585678*
X3174970Y1584928*
X3175243Y1583803*
X3174970Y1583053*
X3174697Y1581928*
X3174152Y1581178*
X3173334Y1580803*
X3172515*
X3171697Y1581178*
X3171424Y1581553*
X3171152Y1582303*
X3243606Y1587178D02*
X3244152Y1587553D01*
X3244970Y1588678*
Y1580803*
X3247697Y1586803D02*
Y1587178D01*
X3247970Y1587928*
X3248243Y1588303*
X3248788Y1588678*
X3249879*
X3250424Y1588303*
X3250697Y1587928*
X3250970Y1587178*
Y1586428*
X3250697Y1585678*
X3250152Y1584553*
X3247424Y1580803*
X3251243*
X3257515Y1588678D02*
X3254788Y1580803D01*
X3253697Y1588678D02*
X3257515D01*
X3287606Y1580803D02*
X3293606Y1586803D01*
X3287606Y1592803*
X3281606Y1586803*
X3287606Y1580803*
Y1586803D02*
Y1592803D01*
X3314243Y1588678D02*
X3316424Y1584928D01*
Y1580803*
X3318606Y1588678D02*
X3316424Y1584928D01*
X3321061Y1588678D02*
Y1580803D01*
Y1588678D02*
X3324606D01*
X3321061Y1584928D02*
X3323243D01*
X3321061Y1580803D02*
X3324606D01*
X3330879Y1587553D02*
X3330334Y1588303D01*
X3329515Y1588678*
X3328424*
X3327606Y1588303*
X3327061Y1587553*
Y1586803*
X3327334Y1586053*
X3327606Y1585678*
X3328152Y1585303*
X3329788Y1584553*
X3330334Y1584178*
X3330606Y1583803*
X3330879Y1583053*
Y1581928*
X3330334Y1581178*
X3329515Y1580803*
X3328424*
X3327606Y1581178*
X3327061Y1581928*
X3367424Y1587553D02*
Y1580803D01*
X3364970Y1584178D02*
X3369879D01*
X3377243Y1590178D02*
X3372334Y1578178D01*
X3379697Y1584178D02*
X3384606D01*
X3388697Y1588678D02*
X3387879Y1588303D01*
X3387334Y1587178*
X3387061Y1585303*
Y1584178*
X3387334Y1582303*
X3387879Y1581178*
X3388697Y1580803*
X3389243*
X3390061Y1581178*
X3390606Y1582303*
X3390879Y1584178*
Y1585303*
X3390606Y1587178*
X3390061Y1588303*
X3389243Y1588678*
X3388697*
X3393606Y1581553D02*
X3393334Y1581178D01*
X3393606Y1580803*
X3393879Y1581178*
X3393606Y1581553*
X3397970Y1588678D02*
X3397152Y1588303D01*
X3396606Y1587178*
X3396334Y1585303*
Y1584178*
X3396606Y1582303*
X3397152Y1581178*
X3397970Y1580803*
X3398515*
X3399334Y1581178*
X3399879Y1582303*
X3400152Y1584178*
Y1585303*
X3399879Y1587178*
X3399334Y1588303*
X3398515Y1588678*
X3397970*
G54D24*
X1950804Y1920803D02*
X2134983D01*
X1950804D02*
X1955804Y1921803D01*
Y1919803*
X1950804Y1920803*
X2340504D02*
X2156324D01*
X2340504D02*
X2335504Y1919803D01*
Y1921803*
X2340504Y1920803*
X1950804Y1896403D02*
Y1922803D01*
X2340504Y1895903D02*
Y1922803D01*
X2373904Y1574803D02*
Y1729771D01*
Y1574803D02*
X2372904Y1579803D01*
X2374904*
X2373904Y1574803*
Y1894488D02*
Y1739521D01*
Y1894488D02*
X2374904Y1889488D01*
X2372904*
X2373904Y1894488*
X2342551Y1574803D02*
X2375904D01*
X2342551Y1894488D02*
X2375904D01*
G54D31*
X1968504Y1642520D02*
X1992704D01*
Y1649606*
X2039370*
Y1574803*
X1968504*
Y1642520*
G74*
X0Y0D02*
M02*
