%
T1C.008F0S0
X20932Y167755
T2C.00984F0S0
X19697Y158165
X19697Y158475
X197Y158935
X19703Y157635
X19704Y15973
X19707Y15929
X19736Y15949
X19738Y157635
X19782Y159915
X19853Y158035
X1987Y159975
X19898Y157765
X19938Y158105
X19939Y158635
X19943Y159195
X19943Y159735
X19948Y157715
X19955Y158885
X20096Y158275
X20098Y159165
X20098Y159635
X20101Y15763
X20101Y15801
X20128Y15762
X20151Y15762
X20167Y15799
X20209Y158005
X20239Y157995
X2025Y15762
X20275Y159765
X20277Y160095
X20361Y159475
X20439Y159645
X20464Y159485
X20512Y158135
X20554Y158145
X20563Y159921
X20567Y159655
X20568Y159405
X20579Y158365
X20582Y157785
X205866Y159882
X20588Y158725
X205945Y159646
X205945Y15937
X206181Y159606
X20707Y158745
X20718Y158305
X2072Y157805
X20753Y158745
X20864Y158615
X20866Y158165
X20867Y157735
X20894Y158655
X21005Y159535
X21019Y157695
X21038Y158555
X21041Y157675
X21042Y159375
X21071Y157655
X21086Y159805
X21108Y159535
X21124Y159775
X21155Y157725
X21238Y159275
X21244Y159015
X21247Y157735
X2133Y158895
X21348Y157755
X21357Y158655
X2136Y159745
X21369Y159015
X21449Y157785
X21454Y158695
X21533Y159425
X21551Y157775
X2161Y158745
X21613Y159315
X2166Y159325
X21667Y158755
X21714Y159385
X21733Y157725
X21736Y158725
X21738Y158195
X21749Y159285
X21749Y159695
X21782Y158685
X2179Y159725
X21793Y160085
X21795Y159295
X21828Y159645
X21837Y158705
X21842Y159305
X21863Y159525
X21872Y158685
X2188Y158405
X21882Y157705
X21902Y159555
X21904Y157875
X21908Y158135
X2191Y158665
X21933Y158245
X2194Y157935
X21944Y157665
X21949Y158685
X22038Y15901
X22049Y158205
X22062Y159425
X22063Y159985
X22067Y15771
X22071Y15809
X22071Y15873
X22073Y15848
X22079Y159635
X22094Y160045
X22097Y159785
X22101Y15767
X22109Y15875
X22138Y157675
X2215Y160095
X22185Y157665
X22191Y15871
X2223Y157675
X22238Y15872
X22269Y158725
X22273Y157675
X2231Y15873
X22313Y157675
X22352Y157675
X22432Y15942
X22433Y15901
X22435Y157615
X22437Y158705
X2245Y15967
X22473Y157995
X22474Y158645
X22511Y159035
X22513Y159545
X22515Y158375
X22516Y157735
X22557Y157755
X22564Y159635
X22629Y159955
X227Y159865
X22722Y157615
X22756Y157995
X22756Y159475
X22757Y160165
X22756Y16072
X22712Y160245
X22712Y160715
X22663Y160255
X22658Y160725
X22428Y160315
X22383Y160665
X22371Y160185
X22349Y161005
X22329Y161315
X22293Y161715
X22219Y160305
X22213Y160845
X22209Y161175
X22194Y160135
X22165Y160895
X22164Y160375
X2215Y161245
X22125Y162255
X22121Y160135
X2203Y161465
X21952Y162315
X21952Y162555
X21926Y161485
X21916Y162065
X21903Y161735
X2189Y161515
X21887Y162015
X21859Y161505
X21857Y162285
X21847Y162095
X21844Y162465
X21841Y161795
X21806Y162195
X21805Y161825
X21804Y161505
X21736Y160595
X21733Y162485
X21635Y160725
X21543Y162475
X21542Y160695
X2145Y160695
X21437Y162065
X21352Y162375
X21333Y160715
X21311Y160385
X21262Y160625
X21217Y160515
X21215Y162455
X21193Y160415
X21177Y160615
X21143Y160415
X2113Y160605
X21115Y162315
X21061Y160575
X21043Y162455
X20964Y161775
X20963Y161305
X20957Y162115
X20863Y162075
X20804Y162165
X20733Y162115
X20732Y162365
X20659Y162455
X20624Y161625
X20618Y161885
X20589Y162425
X205787Y161732
X205787Y162008
X20578Y160985
X205591Y162362
X205512Y161654
X205472Y160866
X205472Y161299
X205236Y16122
X205197Y161614
X2051Y160855
X20508Y161995
X205039Y161417
X20479Y160215
X20474Y161465
X20468Y161755
X20465Y162245
X20454Y160495
X20447Y161945
X20422Y162055
X20408Y162295
X20382Y161545
X20368Y162095
X20339Y162105
X20304Y162125
X2027Y162135
X20269Y161155
X20268Y161745
X20263Y161495
X20237Y161205
X20229Y162065
X202Y162155
X20186Y162585
X20184Y161775
X20169Y162125
X2013Y162265
X20093Y160755
X20083Y161645
X20075Y161355
X19979Y161565
X1994Y161465
X19939Y161165
X19933Y16043
X19932Y160925
X19916Y161325
X19909Y160155
X19878Y16122
X19833Y16026
X197511Y161477
X19706Y16243
X19705Y16125
X19705Y16202
X19704Y16165
X19705Y16291
X19731Y16476
X19752Y16441
X19758Y16286
X19761Y164705
X19767Y16395
X19771Y164915
X19784Y164495
X19804Y16394
X19812Y16484
X19827Y16421
X19829Y16449
X19833Y16383
X19842Y165055
X19847Y164775
X19852Y16408
X19865Y164525
X19872Y164215
X1988Y164835
X19895Y164005
X19904Y163025
X19906Y164515
X1991Y164795
X19914Y164205
X20009Y16301
X2001Y16262
X20153Y164725
X20155Y165065
X20371Y163135
X20445Y163725
X20588Y164925
X20613Y164695
X20618Y164235
X2062Y164895
X20647Y164975
X20648Y164575
X20649Y164215
X20698Y162795
X20755Y163885
X20756Y163615
X20757Y163305
X20758Y162965
X20785Y163965
X2102Y164865
X21044Y163605
X21055Y16296
X21071Y163275
X21072Y162675
X21072Y163865
X21153Y165035
X21339Y164245
X21347Y164985
X21358Y164295
X2136Y163025
X2136Y163965
X21361Y163375
X21428Y163065
X21429Y163935
X2143Y164275
X21432Y163495
X21432Y165075
X21526Y164105
X21526Y165075
X21526Y164615
X21528Y163635
X21528Y163085
X21724Y163075
X21733Y163675
X21758Y163245
X218Y163205
X2184Y164215
X21885Y162775
X2191Y163175
X22097Y163785
X22105Y164285
X22125Y162785
X2235Y164535
X22629Y166295
X22434Y166185
X22433Y166545
X22423Y166955
X22402Y166795
X22377Y166705
X2235Y166255
X22343Y166695
X22333Y166885
X22317Y166645
X22196Y166465
X2215Y166035
X22145Y166325
X22131Y166465
X22122Y166255
X22121Y167315
X22119Y165995
X22107Y166455
X22095Y165995
X22093Y166265
X22093Y167295
X21767Y165745
X21717Y167365
X21627Y165935
X21616Y166935
X21607Y166275
X21602Y167415
X21574Y166565
X21546Y166975
X21525Y165515
X21522Y166035
X21522Y167265
X21485Y167335
X21451Y165295
X21433Y166085
X21418Y167115
X21365Y165305
X21335Y165225
X21334Y165955
X2132Y165435
X21315Y166175
X21127Y166375
X21076Y167025
X21014Y166995
X2101Y165815
X20886Y166915
X20659Y165775
X20655Y166305
X20654Y166735
X20651Y167205
X20627Y165965
X20624Y166355
X20618Y165185
X20615Y166735
X2061Y167185
X20592Y165495
X20571Y165185
X20559Y167075
X20554Y167425
X2055Y165665
X20543Y165995
X20513Y165715
X20506Y166845
X20505Y165985
X20502Y166395
X20497Y167355
X20472Y165705
X20471Y166155
X2046Y167365
X20439Y166415
X20434Y167145
X20433Y165705
X20431Y166015
X20399Y167415
X20395Y166015
X20394Y165705
X20389Y166415
X20384Y167155
X20357Y165685
X20356Y166005
X20353Y167235
X20339Y166395
X2032Y165685
X20315Y166015
X20292Y167365
X20281Y165675
X20267Y167085
X20261Y166595
X20252Y165945
X20241Y167385
X20223Y166295
X20223Y165815
X20213Y166725
X20194Y165735
X20189Y166045
X20186Y166435
X20182Y166785
X2014Y165355
X20123Y166935
X20101Y167095
X19921Y16745
X19917Y16719
X19895Y165215
X19887Y16634
X19869Y16524
X19858Y16626
X19831Y16613
X1983Y16582
X19826Y16528
X19805Y16551
X19773Y166495
X19766Y166785
X19759Y16535
X19753Y16721
X19736Y16638
X19721Y166825
X19701Y166165
X19699Y166615
X19698Y166955
X19696Y167645
X19697Y168095
X19775Y167615
X19783Y16881
X19809Y168625
X19831Y16825
X19867Y16808
X19894Y16907
X1992Y168085
X19928Y169855
X19942Y16845
X19947Y168835
X20086Y169075
X20121Y169425
X20127Y168575
X20157Y169625
X20164Y168415
X20263Y169225
X20319Y168485
X20432Y168335
X20534Y169225
X20534Y168355
X20607Y168085
X20607Y169435
X20608Y168565
X20608Y168985
X20608Y167635
X20608Y169915
X20646Y169435
X20647Y168985
X20647Y169915
X20648Y168075
X20649Y167625
X20649Y168555
X20732Y168515
X20736Y169365
X2074Y169065
X20752Y168795
X20789Y168875
X20796Y16935
X20829Y168475
X20866Y168605
X20883Y168845
X20897Y16906
X20909Y168585
X2096Y16928
X21351Y169125
X21426Y167985
X21518Y168125
X21561Y167625
X21566Y167985
X21577Y169655
X21624Y169275
X21666Y168885
X21673Y169805
X21799Y169935
X21837Y169935
X21839Y169265
X21866Y170045
X21875Y169165
X22228Y167945
X22312Y167805
X22366Y167815
X22426Y168245
X22426Y169605
X22426Y169995
X22427Y168725
X22428Y169195
X22461Y169985
X22462Y169585
X22463Y168735
X22463Y169175
X22609Y169355
X2261Y169005
X22613Y169835
X22663Y169525
X22668Y170015
X22673Y16829
X22708Y168185
X22713Y169785
X22718Y169315
X22723Y1689
X22736Y168165
X22748Y169175
X2273Y171995
X22728Y172465
X22716Y171305
X22713Y170255
X22712Y170725
X22665Y170855
X22616Y171265
X22616Y170695
X22616Y170285
X22612Y172095
X22611Y172505
X22564Y172085
X22561Y172495
X22543Y171805
X22532Y172115
X22496Y171345
X22493Y170975
X22465Y170885
X22464Y170435
X22464Y171195
X22451Y171435
X22433Y170895
X22428Y170425
X22422Y171405
X22408Y170745
X22303Y171555
X22202Y171435
X2217Y171425
X2213Y171415
X22103Y171725
X22085Y172195
X22063Y171145
X21883Y171975
X21873Y171035
X21872Y170305
X21856Y171975
X21848Y172325
X21817Y171675
X21793Y171685
X21781Y171995
X2178Y170235
X21778Y172265
X21754Y170305
X21723Y172075
X21708Y171025
X21705Y171755
X21691Y172155
X2168Y171625
X21671Y171075
X21659Y172485
X21653Y171625
X21652Y172085
X21606Y170425
X21594Y171815
X21592Y172205
X2157Y172575
X21546Y171005
X21538Y172235
X21529Y170135
X21496Y170485
X21489Y171575
X21441Y171045
X21428Y172305
X21412Y171275
X21373Y170385
X2135Y170355
X21348Y172085
X21324Y170985
X2132Y170375
X21301Y171985
X2106Y17105
X20936Y17079
X20932Y170325
X20854Y17128
X20786Y17079
X20772Y1703
X2076Y17053
X20741Y17031
X20616Y171025
X20615Y171345
X20607Y171755
X20588Y172375
X20506Y172355
X20485Y171745
X20481Y171415
X2048Y172405
X20336Y170355
X20106Y1713
X20084Y170635
X20055Y17248
X19994Y17115
X1998Y17056
X19978Y17093
X19974Y17195
X19966Y171465
X19952Y170845
X19947Y17222
X19928Y17123
X19927Y171635
X19913Y172045
X19903Y170795
X1988Y171515
X19871Y172055
X19867Y170465
X19864Y170715
X19838Y171495
X19838Y172085
X19783Y172215
X19778Y17128
X19767Y170505
X19714Y17185
X19704Y172505
X19704Y174245
X19706Y173465
X19708Y174925
X19712Y172835
X19719Y173145
X19769Y173145
X19805Y172935
X19896Y173055
X19912Y173325
X19944Y173985
X19945Y174935
X19952Y173055
X19954Y173635
X1996Y173365
X19976Y173935
X19998Y173065
X20016Y173335
X20051Y172875
X20053Y173285
X20475Y173255
X20533Y173245
X20557Y173175
X20576Y173375
X20609Y172885
X20627Y173895
X20653Y174885
X20654Y174525
X20672Y174085
X20674Y1744
X20674Y1747
X20698Y172775
X20847Y17414
X20876Y17334
X20896Y174715
X20902Y174995
X21045Y17454
X21182Y174695
X21309Y172905
X2132Y174485
X21324Y173185
X21325Y175035
X21363Y174995
X21385Y175035
X21389Y174455
X21419Y175015
X2148Y174955
X2151Y173955
X21513Y174455
X21516Y173245
X21528Y174685
X21541Y172755
X21549Y174875
X215511Y174477
X21577Y173955
X21582Y173475
X21585Y172915
X21605Y174905
X21621Y172665
X21628Y173155
X21634Y173975
X216511Y174477
X21664Y172945
X21676Y174875
X21687Y173315
X21691Y172705
X21713Y174485
X21732Y174875
X21748Y172975
X21752Y173385
X21756Y174495
X21762Y173955
X21781Y173385
X21785Y174875
X21802Y174525
X21849Y173955
X21905Y174995
X22043Y173185
X22043Y173585
X2205Y174855
X220511Y174477
X22078Y175075
X22079Y174825
X22079Y174515
X22107Y173945
X2218Y173085
X2218Y173955
X22305Y173165
X22524Y174235
X22526Y173855
X22531Y173415
X22563Y173065
X22629Y173055
X227Y173055
X22752Y175435
X22704Y175345
X22562Y175285
X22479Y175365
X22396Y175355
X22296Y175325
X22186Y175345
X22079Y175325
X22046Y175335
X21994Y175375
X21947Y175375
X20129Y175185
X20036Y175185
T3C.015F0S0
X20087Y16289
X22063Y161885
T4C.02165F0S0
X22125Y172435
X221743Y172435
X222235Y172435
X222727Y172435
X22355Y172435
X224043Y172435
X224535Y172435
X225027Y172435
T5C.02362F0S0
X198213Y161363
X198213Y162938
X22185Y162035
X22185Y164535
X22185Y165035
X22185Y163035
X22185Y163535
X22185Y162535
X22185Y164035
X22235Y163035
X22235Y163535
X22235Y164035
X22235Y164535
X22235Y165035
X22235Y162535
X22235Y162035
X22235Y165535
X22235Y166035
X22185Y166035
X22185Y165535
X198213Y166403
X198213Y167978
X197205Y168568G85X19752Y168568
X197205Y165812G85X19752Y165812
X198661Y168568G85X198976Y168568
X198661Y165812G85X198976Y165812
X197205Y163528G85X19752Y163528
X197205Y160772G85X19752Y160772
X198661Y163528G85X198976Y163528
X198661Y160772G85X198976Y160772
T6C.02559F0S0
X197244Y160182
X197244Y164119
X197244Y165222
X197244Y169159
T7C.02756F0S0
X208031Y172353
X208031Y173928
X208031Y17314
X209882Y172353
X209882Y17314
X209882Y173928
T8C.0315F0S0
X224863Y160535
X224863Y161323
X224863Y16211
X224863Y162898
X224863Y163685
X224863Y164472
X22565Y160535
X22565Y161323
X22565Y16211
X22565Y162898
X22565Y163685
X22565Y164472
X22565Y16526
X22565Y166047
X22565Y166835
X224863Y16526
X224863Y166047
X224863Y166835
T9C.035F0S0
X2019Y158801
X2019Y159785
X2019Y16077
T10C.03543F0S0
X20321Y158225
X20923Y164285
X20923Y163285
X217916Y158115
X219885Y158115
X221426Y15817
X22241Y15817
X223395Y15817
X22519Y169355
X22366Y168495
X22366Y169395
X22366Y170295
X22366Y171145
X20923Y165285
X20923Y166285
X2214Y174655
X2224Y174655
X2234Y174655
X2244Y174655
T11C.04F0S0
X20805Y160085
X20805Y161085
X21085Y161215
X211Y158189
X21185Y161215
X212Y158189
X21285Y161215
X213Y158189
X21385Y161215
X214Y158189
X21485Y161215
X215Y158189
X21585Y161215
X216Y158189
X21685Y161215
X22697Y161825
X22697Y162825
X219663Y164725
X219663Y163725
X219663Y166725
X219663Y165725
X212498Y164725
X212498Y163725
X212498Y166725
X212498Y165725
X20235Y17173
X20385Y17173
X210433Y169805
X210433Y168805
X210433Y167805
X212498Y169725
X212498Y168725
X212498Y167725
X212498Y171725
X212498Y170725
X219663Y168725
X219663Y169725
X219663Y170725
X219663Y171725
X219663Y167725
X219663Y174725
X219663Y173725
X219663Y172725
X212498Y173725
X212498Y172725
X212498Y174725
X205787Y174409
X204787Y174409
X20385Y17273
X203787Y174409
X202787Y174409
X20235Y17273
X201787Y174409
X200787Y174409
T12C.05118F0S0
X208028Y171538
X208028Y174766
X209878Y171538
X209878Y174766
T13C.06299F0S0
X20035Y158335
X2004Y159835
X20656Y158085
X20807Y158085
X20938Y158355
X22684Y164855
X21113Y175075
X20551Y171415
T14C.11811F0S0
X19817Y15873
X19817Y174242
X226477Y174241
X226477Y15873
M30
