*
*
G04 PADS 9.5 Build Number: 522968 generated Gerber (RS-274-X) file*
G04 PC Version=2.1*
*
%IN "HUMIDITY & TEMPERATURE "*%
*
%MOIN*%
*
%FSLAX35Y35*%
*
*
*
*
G04 PC Standard Apertures*
*
*
G04 Thermal Relief Aperture macro.*
%AMTER*
1,1,$1,0,0*
1,0,$1-$2,0,0*
21,0,$3,$4,0,0,45*
21,0,$3,$4,0,0,135*
%
*
*
G04 Annular Aperture macro.*
%AMANN*
1,1,$1,0,0*
1,0,$2,0,0*
%
*
*
G04 Odd Aperture macro.*
%AMODD*
1,1,$1,0,0*
1,0,$1-0.005,0,0*
%
*
*
G04 PC Custom Aperture Macros*
*
*
*
*
*
*
G04 PC Aperture Table*
*
%ADD010C,0.001*%
%ADD029C,0.03543*%
%ADD046C,0.005*%
%ADD048C,0.00394*%
%ADD011R,0.06299X0.06299*%
%ADD012C,0.06299*%
%ADD013C,0.07394*%
%ADD014R,0.07394X0.07394*%
%ADD015C,0.06394*%
%ADD016C,0.05512*%
%ADD017C,0.08268*%
%ADD018C,0.20079*%
%ADD019R,0.06299X0.06299*%
%ADD020C,0.03937*%
%ADD012O,0.06394X0.04331*%
%ADD013O,0.08268X0.06693*%
%ADD011O,0.0748X0.06299*%
%ADD012C,0.04331*%
*
*
*
*
G04 PC Circuitry*
G04 Layer Name HUMIDITY & TEMPERATURE  - circuitry*
%LPD*%
*
*
G04 PC Custom Flashes*
G04 Layer Name HUMIDITY & TEMPERATURE  - flashes*
%LPD*%
*
*
G04 PC Circuitry*
G04 Layer Name HUMIDITY & TEMPERATURE  - circuitry*
%LPD*%
*
G54D10*
G54D29*
G01X2218504Y1620354D03*
Y1625354D03*
Y1630354D03*
Y1635354D03*
Y1640354D03*
Y1645354D03*
Y1650354D03*
Y1655354D03*
Y1660354D03*
X2223504Y1620354D03*
Y1625354D03*
Y1630354D03*
Y1635354D03*
Y1640354D03*
Y1645354D03*
Y1650354D03*
Y1655354D03*
Y1660354D03*
G54D46*
X1968504Y1574803D02*
X2277559D01*
Y1755906*
X1968504*
Y1574803*
Y1694094D02*
X1962598D01*
Y1600394*
X1968504*
Y1755906D02*
X2277559D01*
Y1937008*
X1968504*
Y1755906*
Y1875197D02*
X1962598D01*
Y1781496*
X1968504*
Y1937008D02*
X2277559D01*
Y2118110*
X1968504*
Y1937008*
Y2056299D02*
X1962598D01*
Y1962598*
X1968504*
X2277559Y2118110D02*
X2295276D01*
Y1574803*
X2277559*
X1963583Y1594488D02*
G75*
G03X1963583I-3937J0D01*
G01X2290354D02*
G03X2290354I-3937J0D01*
G01X1963583Y2098425D02*
G03X1963583I-3937J0D01*
G01X2290354D02*
G03X2290354I-3937J0D01*
G54D48*
G01X1968504Y1755906D02*
X2277559D01*
Y1574803*
X1968504*
Y1755906*
G54D11*
X2198846Y1581154D03*
X2179161D03*
X1973622Y1685683D03*
Y1658124D03*
X1988189Y1685683D03*
Y1658124D03*
X1973622Y1635283D03*
Y1607724D03*
X1988189Y1635283D03*
Y1607724D03*
G54D12*
X2092304Y1662854D03*
Y1652854D03*
Y1642854D03*
Y1632854D03*
X2214004Y1746554D03*
X2224004D03*
X2234004D03*
X2244004D03*
X2251904Y1693554D03*
X2236604Y1684954D03*
Y1693954D03*
Y1702954D03*
Y1711454D03*
X2032104Y1582254D03*
X2080315Y1723529D03*
Y1731403D03*
Y1739277D03*
X2098819Y1723529D03*
Y1731403D03*
Y1739277D03*
X1972441Y1691588D03*
Y1652218D03*
Y1641188D03*
Y1601818D03*
G54D13*
X2023504Y1717303D03*
Y1727303D03*
X2104331Y1698054D03*
Y1688054D03*
Y1678054D03*
X2118504Y1612154D03*
X2128504D03*
X2138504D03*
X2148504D03*
X2158504D03*
X2168504D03*
X2038504Y1717303D03*
Y1727303D03*
X2017874Y1744094D03*
X2027874D03*
X2037874D03*
X2047874D03*
X2057874D03*
X2269704Y1618254D03*
Y1628254D03*
X2120004Y1581889D03*
X2130004D03*
X2140004D03*
X2150004D03*
X2160004D03*
X2080504Y1600854D03*
Y1610854D03*
X2196629Y1737254D03*
Y1727254D03*
Y1717254D03*
Y1707254D03*
Y1697254D03*
Y1687254D03*
Y1677254D03*
Y1667254D03*
Y1657254D03*
Y1647254D03*
Y1637254D03*
X2124976Y1737254D03*
Y1727254D03*
Y1717254D03*
Y1707254D03*
Y1697254D03*
Y1687254D03*
Y1677254D03*
Y1667254D03*
Y1657254D03*
Y1647254D03*
Y1637254D03*
X2080276Y1715380D03*
Y1747663D03*
X2098780Y1715380D03*
Y1747663D03*
G54D14*
X2108504Y1612154D03*
X2007874Y1744094D03*
X2110004Y1581889D03*
X2196629Y1747254D03*
X2124976D03*
G54D15*
X2019004Y1588012D03*
Y1597854D03*
Y1607697D03*
G54D16*
X2248630Y1605354D03*
Y1613228D03*
Y1621102D03*
Y1628976D03*
Y1636850D03*
Y1644724D03*
Y1652598D03*
Y1660472D03*
Y1668346D03*
X2256504Y1605354D03*
Y1613228D03*
Y1621102D03*
Y1628976D03*
Y1636850D03*
Y1644724D03*
Y1652598D03*
Y1660472D03*
Y1668346D03*
G54D17*
X2268404Y1648554D03*
X2003504Y1583354D03*
X2004004Y1598354D03*
X2080704Y1580854D03*
X2065604D03*
X2093804Y1583554D03*
X2111304Y1750754D03*
X2055104Y1714154D03*
G54D18*
X1981705Y1742417D03*
X1981696Y1587295D03*
X2264767Y1742413D03*
Y1587295D03*
G54D19*
X2233946Y1581703D03*
X2224104D03*
X2214261D03*
G54D20*
X2212504Y1724354D03*
X2217425D03*
X2222346D03*
X2227268D03*
X2235504D03*
X2240425D03*
X2245346D03*
X2250268D03*
G54D12*
X2092304Y1662854D03*
Y1652854D03*
Y1642854D03*
Y1632854D03*
X2214004Y1746554D03*
X2224004D03*
X2234004D03*
X2244004D03*
X2251904Y1693554D03*
X2236604Y1684954D03*
Y1693954D03*
Y1702954D03*
Y1711454D03*
X2032104Y1582254D03*
X2080315Y1723529D03*
Y1731403D03*
Y1739277D03*
X2098819Y1723529D03*
Y1731403D03*
Y1739277D03*
X1972441Y1691588D03*
Y1652218D03*
Y1641188D03*
Y1601818D03*
G54D13*
X2023504Y1717303D03*
Y1727303D03*
X2104331Y1698054D03*
Y1688054D03*
Y1678054D03*
X2118504Y1612154D03*
X2128504D03*
X2138504D03*
X2148504D03*
X2158504D03*
X2168504D03*
X2038504Y1717303D03*
Y1727303D03*
X2017874Y1744094D03*
X2027874D03*
X2037874D03*
X2047874D03*
X2057874D03*
X2269704Y1618254D03*
Y1628254D03*
X2120004Y1581889D03*
X2130004D03*
X2140004D03*
X2150004D03*
X2160004D03*
X2080504Y1600854D03*
Y1610854D03*
X2196629Y1737254D03*
Y1727254D03*
Y1717254D03*
Y1707254D03*
Y1697254D03*
Y1687254D03*
Y1677254D03*
Y1667254D03*
Y1657254D03*
Y1647254D03*
Y1637254D03*
X2124976Y1737254D03*
Y1727254D03*
Y1717254D03*
Y1707254D03*
Y1697254D03*
Y1687254D03*
Y1677254D03*
Y1667254D03*
Y1657254D03*
Y1647254D03*
Y1637254D03*
X2080276Y1715380D03*
Y1747663D03*
X2098780Y1715380D03*
Y1747663D03*
G54D11*
X2198846Y1581154D03*
X2179161D03*
X1973622Y1685683D03*
Y1658124D03*
X1988189Y1685683D03*
Y1658124D03*
X1973622Y1635283D03*
Y1607724D03*
X1988189Y1635283D03*
Y1607724D03*
G54D12*
X2092304Y1662854D03*
Y1652854D03*
Y1642854D03*
Y1632854D03*
X2214004Y1746554D03*
X2224004D03*
X2234004D03*
X2244004D03*
X2251904Y1693554D03*
X2236604Y1684954D03*
Y1693954D03*
Y1702954D03*
Y1711454D03*
X2032104Y1582254D03*
X2080315Y1723529D03*
Y1731403D03*
Y1739277D03*
X2098819Y1723529D03*
Y1731403D03*
Y1739277D03*
X1972441Y1691588D03*
Y1652218D03*
Y1641188D03*
Y1601818D03*
G74*
X0Y0D02*
M02*
