*
*
G04 PADS 9.5 Build Number: 522968 generated Gerber (RS-274-X) file*
G04 PC Version=2.1*
*
%IN "HUMIDITY & TEMPERATURE "*%
*
%MOIN*%
*
%FSLAX35Y35*%
*
*
*
*
G04 PC Standard Apertures*
*
*
G04 Thermal Relief Aperture macro.*
%AMTER*
1,1,$1,0,0*
1,0,$1-$2,0,0*
21,0,$3,$4,0,0,45*
21,0,$3,$4,0,0,135*
%
*
*
G04 Annular Aperture macro.*
%AMANN*
1,1,$1,0,0*
1,0,$2,0,0*
%
*
*
G04 Odd Aperture macro.*
%AMODD*
1,1,$1,0,0*
1,0,$1-0.005,0,0*
%
*
*
G04 PC Custom Aperture Macros*
*
*
*
*
*
*
G04 PC Aperture Table*
*
%ADD010C,0.001*%
%ADD046C,0.005*%
%ADD048C,0.00394*%
%ADD021C,0.004*%
*
*
*
*
G04 PC Circuitry*
G04 Layer Name HUMIDITY & TEMPERATURE  - circuitry*
%LPD*%
*
*
G04 PC Custom Flashes*
G04 Layer Name HUMIDITY & TEMPERATURE  - flashes*
%LPD*%
*
*
G04 PC Circuitry*
G04 Layer Name HUMIDITY & TEMPERATURE  - circuitry*
%LPD*%
*
G54D10*
G54D46*
G01X1970801Y1644504D02*
X1973754D01*
X1970801D02*
Y1645982D01*
X1972207Y1644504D02*
Y1645413D01*
X1973754Y1644504D02*
Y1645982D01*
X1971223Y1648595D02*
X1970941Y1648368D01*
X1970801Y1648027*
Y1647573*
X1970941Y1647232*
X1971223Y1647004*
X1971504*
X1971785Y1647118*
X1971926Y1647232*
X1972066Y1647459*
X1972348Y1648141*
X1972488Y1648368*
X1972629Y1648482*
X1972910Y1648595*
X1973332*
X1973613Y1648368*
X1973754Y1648027*
Y1647573*
X1973613Y1647232*
X1973332Y1647004*
X1970801Y1649618D02*
X1973754D01*
X1970801D02*
Y1650641D01*
X1970941Y1650982*
X1971082Y1651095*
X1971363Y1651209*
X1971785*
X1972066Y1651095*
X1972207Y1650982*
X1972348Y1650641*
Y1649618*
X1970801Y1652800D02*
X1970941Y1652459D01*
X1971223Y1652345*
X1971504*
X1971785Y1652459*
X1971926Y1652686*
X1972066Y1653141*
X1972207Y1653482*
X1972488Y1653709*
X1972770Y1653823*
X1973191*
X1973473Y1653709*
X1973613Y1653595*
X1973754Y1653254*
Y1652800*
X1973613Y1652459*
X1973473Y1652345*
X1973191Y1652232*
X1972770*
X1972488Y1652345*
X1972207Y1652573*
X1972066Y1652913*
X1971926Y1653368*
X1971785Y1653595*
X1971504Y1653709*
X1971223*
X1970941Y1653595*
X1970801Y1653254*
Y1652800*
X1971504Y1654959D02*
X1971363D01*
X1971082Y1655073*
X1970941Y1655186*
X1970801Y1655413*
Y1655868*
X1970941Y1656095*
X1971082Y1656209*
X1971363Y1656323*
X1971645*
X1971926Y1656209*
X1972348Y1655982*
X1973754Y1654845*
Y1656436*
X1971223Y1658823D02*
X1970941Y1658709D01*
X1970801Y1658368*
Y1658141*
X1970941Y1657800*
X1971363Y1657573*
X1972066Y1657459*
X1972770*
X1973332Y1657573*
X1973613Y1657800*
X1973754Y1658141*
Y1658254*
X1973613Y1658595*
X1973332Y1658823*
X1972910Y1658936*
X1972770*
X1972348Y1658823*
X1972066Y1658595*
X1971926Y1658254*
Y1658141*
X1972066Y1657800*
X1972348Y1657573*
X1972770Y1657459*
X1971223Y1661323D02*
X1970941Y1661209D01*
X1970801Y1660868*
Y1660641*
X1970941Y1660300*
X1971363Y1660073*
X1972066Y1659959*
X1972770*
X1973332Y1660073*
X1973613Y1660300*
X1973754Y1660641*
Y1660754*
X1973613Y1661095*
X1973332Y1661323*
X1972910Y1661436*
X1972770*
X1972348Y1661323*
X1972066Y1661095*
X1971926Y1660754*
Y1660641*
X1972066Y1660300*
X1972348Y1660073*
X1972770Y1659959*
X1970801Y1662459D02*
X1973754D01*
X1970801D02*
Y1663936D01*
X1972207Y1662459D02*
Y1663368D01*
X1973754Y1662459D02*
Y1663936D01*
X1970801Y1664959D02*
X1973754Y1666550D01*
X1970801D02*
X1973754Y1664959D01*
X1974316Y1667573D02*
Y1669959D01*
X1970801Y1670641D02*
X1973754D01*
X1970801D02*
Y1671436D01*
X1970941Y1671777*
X1971223Y1672004*
X1971504Y1672118*
X1971926Y1672232*
X1972629*
X1973051Y1672118*
X1973332Y1672004*
X1973613Y1671777*
X1973754Y1671436*
Y1670641*
X1972629Y1673254D02*
Y1674618D01*
X1972348*
X1972066Y1674504*
X1971926Y1674391*
X1971785Y1674163*
Y1673823*
X1971926Y1673595*
X1972207Y1673368*
X1972629Y1673254*
X1972910*
X1973332Y1673368*
X1973613Y1673595*
X1973754Y1673823*
Y1674163*
X1973613Y1674391*
X1973332Y1674618*
X1971785Y1675641D02*
X1973754D01*
X1972348D02*
X1971926Y1675982D01*
X1971785Y1676209*
Y1676550*
X1971926Y1676777*
X1972348Y1676891*
X1973754*
X1972348D02*
X1971926Y1677232D01*
X1971785Y1677459*
Y1677800*
X1971926Y1678027*
X1972348Y1678141*
X1973754*
X1971785Y1679732D02*
X1971926Y1679504D01*
X1972207Y1679277*
X1972629Y1679163*
X1972910*
X1973332Y1679277*
X1973613Y1679504*
X1973754Y1679732*
Y1680073*
X1973613Y1680300*
X1973332Y1680527*
X1972910Y1680641*
X1972629*
X1972207Y1680527*
X1971926Y1680300*
X1971785Y1680073*
Y1679732*
X1970801Y1684277D02*
X1973754D01*
X1970801D02*
Y1685300D01*
X1970941Y1685641*
X1971082Y1685754*
X1971363Y1685868*
X1971645*
X1971926Y1685754*
X1972066Y1685641*
X1972207Y1685300*
Y1684277D02*
Y1685300D01*
X1972348Y1685641*
X1972488Y1685754*
X1972770Y1685868*
X1973191*
X1973473Y1685754*
X1973613Y1685641*
X1973754Y1685300*
Y1684277*
X1971785Y1687459D02*
X1971926Y1687232D01*
X1972207Y1687004*
X1972629Y1686891*
X1972910*
X1973332Y1687004*
X1973613Y1687232*
X1973754Y1687459*
Y1687800*
X1973613Y1688027*
X1973332Y1688254*
X1972910Y1688368*
X1972629*
X1972207Y1688254*
X1971926Y1688027*
X1971785Y1687800*
Y1687459*
Y1690754D02*
X1973754D01*
X1972207D02*
X1971926Y1690527D01*
X1971785Y1690300*
Y1689959*
X1971926Y1689732*
X1972207Y1689504*
X1972629Y1689391*
X1972910*
X1973332Y1689504*
X1973613Y1689732*
X1973754Y1689959*
Y1690300*
X1973613Y1690527*
X1973332Y1690754*
X1971785Y1691777D02*
X1973754D01*
X1972629D02*
X1972207Y1691891D01*
X1971926Y1692118*
X1971785Y1692345*
Y1692686*
X1970801Y1695073D02*
X1973754D01*
X1972207D02*
X1971926Y1694845D01*
X1971785Y1694618*
Y1694277*
X1971926Y1694050*
X1972207Y1693823*
X1972629Y1693709*
X1972910*
X1973332Y1693823*
X1973613Y1694050*
X1973754Y1694277*
Y1694618*
X1973613Y1694845*
X1973332Y1695073*
G54D48*
X1968504Y1755906D02*
X2277559D01*
Y1574803*
X1968504*
Y1755906*
G54D21*
X2171704Y1667917D02*
Y1666229D01*
X2171795Y1665892*
X2171977Y1665667*
X2172249Y1665554*
X2172431*
X2172704Y1665667*
X2172886Y1665892*
X2172977Y1666229*
Y1667917*
X2174340D02*
X2174068Y1667804D01*
X2173886Y1667467*
X2173795Y1666904*
Y1666567*
X2173886Y1666004*
X2174068Y1665667*
X2174340Y1665554*
X2174522*
X2174795Y1665667*
X2174977Y1666004*
X2175068Y1666567*
Y1666904*
X2174977Y1667467*
X2174795Y1667804*
X2174522Y1667917*
X2174340*
X2175886D02*
Y1665554D01*
Y1667917D02*
X2176704D01*
X2176977Y1667804*
X2177068Y1667692*
X2177158Y1667467*
Y1667242*
X2177068Y1667017*
X2176977Y1666904*
X2176704Y1666792*
X2175886*
X2176522D02*
X2177158Y1665554D01*
X2177977Y1667917D02*
X2179249Y1665554D01*
Y1667917D02*
X2177977Y1665554D01*
X2180068Y1667917D02*
Y1665554D01*
Y1667917D02*
X2180704D01*
X2180977Y1667804*
X2181158Y1667579*
X2181249Y1667354*
X2181340Y1667017*
Y1666454*
X2181249Y1666117*
X2181158Y1665892*
X2180977Y1665667*
X2180704Y1665554*
X2180068*
X2182795Y1668367D02*
X2182613Y1668142D01*
X2182431Y1667804*
X2182249Y1667354*
X2182158Y1666792*
Y1666342*
X2182249Y1665779*
X2182431Y1665329*
X2182613Y1664992*
X2182795Y1664767*
X2183613Y1667917D02*
Y1665554D01*
X2184977Y1667917D02*
X2184795Y1667804D01*
X2184613Y1667579*
X2184522Y1667354*
X2184431Y1667017*
Y1666454*
X2184522Y1666117*
X2184613Y1665892*
X2184795Y1665667*
X2184977Y1665554*
X2185340*
X2185522Y1665667*
X2185704Y1665892*
X2185795Y1666117*
X2185886Y1666454*
Y1667017*
X2185795Y1667354*
X2185704Y1667579*
X2185522Y1667804*
X2185340Y1667917*
X2184977*
X2186886D02*
X2187886D01*
X2187340Y1667017*
X2187613*
X2187795Y1666904*
X2187886Y1666792*
X2187977Y1666454*
Y1666229*
X2187886Y1665892*
X2187704Y1665667*
X2187431Y1665554*
X2187158*
X2186886Y1665667*
X2186795Y1665779*
X2186704Y1666004*
X2188795Y1668367D02*
X2188977Y1668142D01*
X2189158Y1667804*
X2189340Y1667354*
X2189431Y1666792*
Y1666342*
X2189340Y1665779*
X2189158Y1665329*
X2188977Y1664992*
X2188795Y1664767*
X2171704Y1677917D02*
Y1676229D01*
X2171795Y1675892*
X2171977Y1675667*
X2172249Y1675554*
X2172431*
X2172704Y1675667*
X2172886Y1675892*
X2172977Y1676229*
Y1677917*
X2174340D02*
X2174068Y1677804D01*
X2173886Y1677467*
X2173795Y1676904*
Y1676567*
X2173886Y1676004*
X2174068Y1675667*
X2174340Y1675554*
X2174522*
X2174795Y1675667*
X2174977Y1676004*
X2175068Y1676567*
Y1676904*
X2174977Y1677467*
X2174795Y1677804*
X2174522Y1677917*
X2174340*
X2176522D02*
Y1675554D01*
X2175886Y1677917D02*
X2177158D01*
X2177977D02*
X2179249Y1675554D01*
Y1677917D02*
X2177977Y1675554D01*
X2180068Y1677917D02*
Y1675554D01*
Y1677917D02*
X2180704D01*
X2180977Y1677804*
X2181158Y1677579*
X2181249Y1677354*
X2181340Y1677017*
Y1676454*
X2181249Y1676117*
X2181158Y1675892*
X2180977Y1675667*
X2180704Y1675554*
X2180068*
X2182795Y1678367D02*
X2182613Y1678142D01*
X2182431Y1677804*
X2182249Y1677354*
X2182158Y1676792*
Y1676342*
X2182249Y1675779*
X2182431Y1675329*
X2182613Y1674992*
X2182795Y1674767*
X2183613Y1677917D02*
Y1675554D01*
X2184977Y1677917D02*
X2184795Y1677804D01*
X2184613Y1677579*
X2184522Y1677354*
X2184431Y1677017*
Y1676454*
X2184522Y1676117*
X2184613Y1675892*
X2184795Y1675667*
X2184977Y1675554*
X2185340*
X2185522Y1675667*
X2185704Y1675892*
X2185795Y1676117*
X2185886Y1676454*
Y1677017*
X2185795Y1677354*
X2185704Y1677579*
X2185522Y1677804*
X2185340Y1677917*
X2184977*
X2186704Y1677467D02*
X2186886Y1677579D01*
X2187158Y1677917*
Y1675554*
X2187977Y1678367D02*
X2188158Y1678142D01*
X2188340Y1677804*
X2188522Y1677354*
X2188613Y1676792*
Y1676342*
X2188522Y1675779*
X2188340Y1675329*
X2188158Y1674992*
X2187977Y1674767*
X2181068Y1697354D02*
X2180977Y1697579D01*
X2180795Y1697804*
X2180613Y1697917*
X2180249*
X2180068Y1697804*
X2179886Y1697579*
X2179795Y1697354*
X2179704Y1697017*
Y1696454*
X2179795Y1696117*
X2179886Y1695892*
X2180068Y1695667*
X2180249Y1695554*
X2180613*
X2180795Y1695667*
X2180977Y1695892*
X2181068Y1696117*
Y1696454*
X2180613D02*
X2181068D01*
X2181886Y1697917D02*
Y1695554D01*
Y1697917D02*
X2182704D01*
X2182977Y1697804*
X2183068Y1697692*
X2183158Y1697467*
Y1697129*
X2183068Y1696904*
X2182977Y1696792*
X2182704Y1696679*
X2181886*
X2183977Y1697917D02*
Y1695554D01*
X2185340Y1697917D02*
X2185158Y1697804D01*
X2184977Y1697579*
X2184886Y1697354*
X2184795Y1697017*
Y1696454*
X2184886Y1696117*
X2184977Y1695892*
X2185158Y1695667*
X2185340Y1695554*
X2185704*
X2185886Y1695667*
X2186068Y1695892*
X2186158Y1696117*
X2186249Y1696454*
Y1697017*
X2186158Y1697354*
X2186068Y1697579*
X2185886Y1697804*
X2185704Y1697917*
X2185340*
X2188249D02*
X2187340D01*
X2187249Y1696904*
X2187340Y1697017*
X2187613Y1697129*
X2187886*
X2188158Y1697017*
X2188340Y1696792*
X2188431Y1696454*
X2188340Y1696229*
X2188249Y1695892*
X2188068Y1695667*
X2187795Y1695554*
X2187522*
X2187249Y1695667*
X2187158Y1695779*
X2187068Y1696004*
X2163586Y1707917D02*
X2164859Y1705554D01*
Y1707917D02*
X2163586Y1705554D01*
X2165677Y1707917D02*
Y1705554D01*
Y1707917D02*
X2166495D01*
X2166768Y1707804*
X2166859Y1707692*
X2166950Y1707467*
Y1707129*
X2166859Y1706904*
X2166768Y1706792*
X2166495Y1706679*
X2165677*
X2167768Y1707917D02*
Y1705554D01*
Y1707917D02*
X2168404D01*
X2168677Y1707804*
X2168859Y1707579*
X2168950Y1707354*
X2169040Y1707017*
Y1706454*
X2168950Y1706117*
X2168859Y1705892*
X2168677Y1705667*
X2168404Y1705554*
X2167768*
X2169859Y1705104D02*
X2171768D01*
X2172313Y1707917D02*
Y1705554D01*
Y1707917D02*
X2172950D01*
X2173222Y1707804*
X2173404Y1707579*
X2173495Y1707354*
X2173586Y1707017*
Y1706454*
X2173495Y1706117*
X2173404Y1705892*
X2173222Y1705667*
X2172950Y1705554*
X2172313*
X2175768Y1707354D02*
X2175677Y1707579D01*
X2175495Y1707804*
X2175313Y1707917*
X2174950*
X2174768Y1707804*
X2174586Y1707579*
X2174495Y1707354*
X2174404Y1707017*
Y1706454*
X2174495Y1706117*
X2174586Y1705892*
X2174768Y1705667*
X2174950Y1705554*
X2175313*
X2175495Y1705667*
X2175677Y1705892*
X2175768Y1706117*
X2176586Y1707917D02*
Y1705554D01*
Y1707917D02*
X2177222D01*
X2177495Y1707804*
X2177677Y1707579*
X2177768Y1707354*
X2177859Y1707017*
Y1706454*
X2177768Y1706117*
X2177677Y1705892*
X2177495Y1705667*
X2177222Y1705554*
X2176586*
X2180040Y1707354D02*
X2179950Y1707579D01*
X2179768Y1707804*
X2179586Y1707917*
X2179222*
X2179040Y1707804*
X2178859Y1707579*
X2178768Y1707354*
X2178677Y1707017*
Y1706454*
X2178768Y1706117*
X2178859Y1705892*
X2179040Y1705667*
X2179222Y1705554*
X2179586*
X2179768Y1705667*
X2179950Y1705892*
X2180040Y1706117*
X2181495Y1708367D02*
X2181313Y1708142D01*
X2181131Y1707804*
X2180950Y1707354*
X2180859Y1706792*
Y1706342*
X2180950Y1705779*
X2181131Y1705329*
X2181313Y1704992*
X2181495Y1704767*
X2182313Y1707917D02*
Y1705554D01*
X2183677Y1707917D02*
X2183495Y1707804D01*
X2183313Y1707579*
X2183222Y1707354*
X2183131Y1707017*
Y1706454*
X2183222Y1706117*
X2183313Y1705892*
X2183495Y1705667*
X2183677Y1705554*
X2184040*
X2184222Y1705667*
X2184404Y1705892*
X2184495Y1706117*
X2184586Y1706454*
Y1707017*
X2184495Y1707354*
X2184404Y1707579*
X2184222Y1707804*
X2184040Y1707917*
X2183677*
X2185404Y1707467D02*
X2185586Y1707579D01*
X2185859Y1707917*
Y1705554*
X2187768Y1707579D02*
X2187677Y1707804D01*
X2187404Y1707917*
X2187222*
X2186950Y1707804*
X2186768Y1707467*
X2186677Y1706904*
Y1706342*
X2186768Y1705892*
X2186950Y1705667*
X2187222Y1705554*
X2187313*
X2187586Y1705667*
X2187768Y1705892*
X2187859Y1706229*
Y1706342*
X2187768Y1706679*
X2187586Y1706904*
X2187313Y1707017*
X2187222*
X2186950Y1706904*
X2186768Y1706679*
X2186677Y1706342*
X2188677Y1708367D02*
X2188859Y1708142D01*
X2189040Y1707804*
X2189222Y1707354*
X2189313Y1706792*
Y1706342*
X2189222Y1705779*
X2189040Y1705329*
X2188859Y1704992*
X2188677Y1704767*
X2133977Y1697579D02*
X2133795Y1697804D01*
X2133522Y1697917*
X2133158*
X2132886Y1697804*
X2132704Y1697579*
Y1697354*
X2132795Y1697129*
X2132886Y1697017*
X2133068Y1696904*
X2133613Y1696679*
X2133795Y1696567*
X2133886Y1696454*
X2133977Y1696229*
Y1695892*
X2133795Y1695667*
X2133522Y1695554*
X2133158*
X2132886Y1695667*
X2132704Y1695892*
X2134795Y1697917D02*
Y1695554D01*
Y1697917D02*
X2135431D01*
X2135704Y1697804*
X2135886Y1697579*
X2135977Y1697354*
X2136068Y1697017*
Y1696454*
X2135977Y1696117*
X2135886Y1695892*
X2135704Y1695667*
X2135431Y1695554*
X2134795*
X2136886Y1695104D02*
X2138795D01*
X2139340Y1697917D02*
Y1695554D01*
Y1697917D02*
X2139977D01*
X2140249Y1697804*
X2140431Y1697579*
X2140522Y1697354*
X2140613Y1697017*
Y1696454*
X2140522Y1696117*
X2140431Y1695892*
X2140249Y1695667*
X2139977Y1695554*
X2139340*
X2141522Y1697354D02*
Y1697467D01*
X2141613Y1697692*
X2141704Y1697804*
X2141886Y1697917*
X2142249*
X2142431Y1697804*
X2142522Y1697692*
X2142613Y1697467*
Y1697242*
X2142522Y1697017*
X2142340Y1696679*
X2141431Y1695554*
X2142704*
X2144158Y1698367D02*
X2143977Y1698142D01*
X2143795Y1697804*
X2143613Y1697354*
X2143522Y1696792*
Y1696342*
X2143613Y1695779*
X2143795Y1695329*
X2143977Y1694992*
X2144158Y1694767*
X2144977Y1697917D02*
Y1695554D01*
X2146340Y1697917D02*
X2146158Y1697804D01*
X2145977Y1697579*
X2145886Y1697354*
X2145795Y1697017*
Y1696454*
X2145886Y1696117*
X2145977Y1695892*
X2146158Y1695667*
X2146340Y1695554*
X2146704*
X2146886Y1695667*
X2147068Y1695892*
X2147158Y1696117*
X2147249Y1696454*
Y1697017*
X2147158Y1697354*
X2147068Y1697579*
X2146886Y1697804*
X2146704Y1697917*
X2146340*
X2149249Y1697129D02*
X2149158Y1696792D01*
X2148977Y1696567*
X2148704Y1696454*
X2148613*
X2148340Y1696567*
X2148158Y1696792*
X2148068Y1697129*
Y1697242*
X2148158Y1697579*
X2148340Y1697804*
X2148613Y1697917*
X2148704*
X2148977Y1697804*
X2149158Y1697579*
X2149249Y1697129*
Y1696567*
X2149158Y1696004*
X2148977Y1695667*
X2148704Y1695554*
X2148522*
X2148249Y1695667*
X2148158Y1695892*
X2150068Y1698367D02*
X2150249Y1698142D01*
X2150431Y1697804*
X2150613Y1697354*
X2150704Y1696792*
Y1696342*
X2150613Y1695779*
X2150431Y1695329*
X2150249Y1694992*
X2150068Y1694767*
X2181068Y1687354D02*
X2180977Y1687579D01*
X2180795Y1687804*
X2180613Y1687917*
X2180249*
X2180068Y1687804*
X2179886Y1687579*
X2179795Y1687354*
X2179704Y1687017*
Y1686454*
X2179795Y1686117*
X2179886Y1685892*
X2180068Y1685667*
X2180249Y1685554*
X2180613*
X2180795Y1685667*
X2180977Y1685892*
X2181068Y1686117*
Y1686454*
X2180613D02*
X2181068D01*
X2181886Y1687917D02*
Y1685554D01*
Y1687917D02*
X2182704D01*
X2182977Y1687804*
X2183068Y1687692*
X2183158Y1687467*
Y1687129*
X2183068Y1686904*
X2182977Y1686792*
X2182704Y1686679*
X2181886*
X2183977Y1687917D02*
Y1685554D01*
X2185340Y1687917D02*
X2185158Y1687804D01*
X2184977Y1687579*
X2184886Y1687354*
X2184795Y1687017*
Y1686454*
X2184886Y1686117*
X2184977Y1685892*
X2185158Y1685667*
X2185340Y1685554*
X2185704*
X2185886Y1685667*
X2186068Y1685892*
X2186158Y1686117*
X2186249Y1686454*
Y1687017*
X2186158Y1687354*
X2186068Y1687579*
X2185886Y1687804*
X2185704Y1687917*
X2185340*
X2187977D02*
X2187068Y1686342D01*
X2188431*
X2187977Y1687917D02*
Y1685554D01*
X2133977Y1687579D02*
X2133795Y1687804D01*
X2133522Y1687917*
X2133158*
X2132886Y1687804*
X2132704Y1687579*
Y1687354*
X2132795Y1687129*
X2132886Y1687017*
X2133068Y1686904*
X2133613Y1686679*
X2133795Y1686567*
X2133886Y1686454*
X2133977Y1686229*
Y1685892*
X2133795Y1685667*
X2133522Y1685554*
X2133158*
X2132886Y1685667*
X2132704Y1685892*
X2134795Y1687917D02*
Y1685554D01*
Y1687917D02*
X2135431D01*
X2135704Y1687804*
X2135886Y1687579*
X2135977Y1687354*
X2136068Y1687017*
Y1686454*
X2135977Y1686117*
X2135886Y1685892*
X2135704Y1685667*
X2135431Y1685554*
X2134795*
X2136886Y1685104D02*
X2138795D01*
X2139340Y1687917D02*
Y1685554D01*
Y1687917D02*
X2139977D01*
X2140249Y1687804*
X2140431Y1687579*
X2140522Y1687354*
X2140613Y1687017*
Y1686454*
X2140522Y1686117*
X2140431Y1685892*
X2140249Y1685667*
X2139977Y1685554*
X2139340*
X2141613Y1687917D02*
X2142613D01*
X2142068Y1687017*
X2142340*
X2142522Y1686904*
X2142613Y1686792*
X2142704Y1686454*
Y1686229*
X2142613Y1685892*
X2142431Y1685667*
X2142158Y1685554*
X2141886*
X2141613Y1685667*
X2141522Y1685779*
X2141431Y1686004*
X2144158Y1688367D02*
X2143977Y1688142D01*
X2143795Y1687804*
X2143613Y1687354*
X2143522Y1686792*
Y1686342*
X2143613Y1685779*
X2143795Y1685329*
X2143977Y1684992*
X2144158Y1684767*
X2144977Y1687917D02*
Y1685554D01*
X2146340Y1687917D02*
X2146158Y1687804D01*
X2145977Y1687579*
X2145886Y1687354*
X2145795Y1687017*
Y1686454*
X2145886Y1686117*
X2145977Y1685892*
X2146158Y1685667*
X2146340Y1685554*
X2146704*
X2146886Y1685667*
X2147068Y1685892*
X2147158Y1686117*
X2147249Y1686454*
Y1687017*
X2147158Y1687354*
X2147068Y1687579*
X2146886Y1687804*
X2146704Y1687917*
X2146340*
X2148068Y1687467D02*
X2148249Y1687579D01*
X2148522Y1687917*
Y1685554*
X2149886Y1687917D02*
X2149613Y1687804D01*
X2149431Y1687467*
X2149340Y1686904*
Y1686567*
X2149431Y1686004*
X2149613Y1685667*
X2149886Y1685554*
X2150068*
X2150340Y1685667*
X2150522Y1686004*
X2150613Y1686567*
Y1686904*
X2150522Y1687467*
X2150340Y1687804*
X2150068Y1687917*
X2149886*
X2151431Y1688367D02*
X2151613Y1688142D01*
X2151795Y1687804*
X2151977Y1687354*
X2152068Y1686792*
Y1686342*
X2151977Y1685779*
X2151795Y1685329*
X2151613Y1684992*
X2151431Y1684767*
X2133977Y1677579D02*
X2133795Y1677804D01*
X2133522Y1677917*
X2133158*
X2132886Y1677804*
X2132704Y1677579*
Y1677354*
X2132795Y1677129*
X2132886Y1677017*
X2133068Y1676904*
X2133613Y1676679*
X2133795Y1676567*
X2133886Y1676454*
X2133977Y1676229*
Y1675892*
X2133795Y1675667*
X2133522Y1675554*
X2133158*
X2132886Y1675667*
X2132704Y1675892*
X2134795Y1677917D02*
Y1675554D01*
Y1677917D02*
X2135431D01*
X2135704Y1677804*
X2135886Y1677579*
X2135977Y1677354*
X2136068Y1677017*
Y1676454*
X2135977Y1676117*
X2135886Y1675892*
X2135704Y1675667*
X2135431Y1675554*
X2134795*
X2136886Y1675104D02*
X2138795D01*
X2140704Y1677354D02*
X2140613Y1677579D01*
X2140431Y1677804*
X2140249Y1677917*
X2139886*
X2139704Y1677804*
X2139522Y1677579*
X2139431Y1677354*
X2139340Y1677017*
Y1676454*
X2139431Y1676117*
X2139522Y1675892*
X2139704Y1675667*
X2139886Y1675554*
X2140249*
X2140431Y1675667*
X2140613Y1675892*
X2140704Y1676117*
X2141522Y1677917D02*
Y1675554D01*
Y1677917D02*
X2142249Y1675554D01*
X2142977Y1677917D02*
X2142249Y1675554D01*
X2142977Y1677917D02*
Y1675554D01*
X2143795Y1677917D02*
Y1675554D01*
Y1677917D02*
X2144431D01*
X2144704Y1677804*
X2144886Y1677579*
X2144977Y1677354*
X2145068Y1677017*
Y1676454*
X2144977Y1676117*
X2144886Y1675892*
X2144704Y1675667*
X2144431Y1675554*
X2143795*
X2146522Y1678367D02*
X2146340Y1678142D01*
X2146158Y1677804*
X2145977Y1677354*
X2145886Y1676792*
Y1676342*
X2145977Y1675779*
X2146158Y1675329*
X2146340Y1674992*
X2146522Y1674767*
X2147340Y1677917D02*
Y1675554D01*
X2148704Y1677917D02*
X2148522Y1677804D01*
X2148340Y1677579*
X2148249Y1677354*
X2148158Y1677017*
Y1676454*
X2148249Y1676117*
X2148340Y1675892*
X2148522Y1675667*
X2148704Y1675554*
X2149068*
X2149249Y1675667*
X2149431Y1675892*
X2149522Y1676117*
X2149613Y1676454*
Y1677017*
X2149522Y1677354*
X2149431Y1677579*
X2149249Y1677804*
X2149068Y1677917*
X2148704*
X2150431Y1677467D02*
X2150613Y1677579D01*
X2150886Y1677917*
Y1675554*
X2151704Y1677467D02*
X2151886Y1677579D01*
X2152158Y1677917*
Y1675554*
X2152977Y1678367D02*
X2153158Y1678142D01*
X2153340Y1677804*
X2153522Y1677354*
X2153613Y1676792*
Y1676342*
X2153522Y1675779*
X2153340Y1675329*
X2153158Y1674992*
X2152977Y1674767*
X2133977Y1667579D02*
X2133795Y1667804D01*
X2133522Y1667917*
X2133158*
X2132886Y1667804*
X2132704Y1667579*
Y1667354*
X2132795Y1667129*
X2132886Y1667017*
X2133068Y1666904*
X2133613Y1666679*
X2133795Y1666567*
X2133886Y1666454*
X2133977Y1666229*
Y1665892*
X2133795Y1665667*
X2133522Y1665554*
X2133158*
X2132886Y1665667*
X2132704Y1665892*
X2134795Y1667917D02*
Y1665554D01*
Y1667917D02*
X2135431D01*
X2135704Y1667804*
X2135886Y1667579*
X2135977Y1667354*
X2136068Y1667017*
Y1666454*
X2135977Y1666117*
X2135886Y1665892*
X2135704Y1665667*
X2135431Y1665554*
X2134795*
X2136886Y1665104D02*
X2138795D01*
X2140704Y1667354D02*
X2140613Y1667579D01*
X2140431Y1667804*
X2140249Y1667917*
X2139886*
X2139704Y1667804*
X2139522Y1667579*
X2139431Y1667354*
X2139340Y1667017*
Y1666454*
X2139431Y1666117*
X2139522Y1665892*
X2139704Y1665667*
X2139886Y1665554*
X2140249*
X2140431Y1665667*
X2140613Y1665892*
X2140704Y1666117*
X2141522Y1667917D02*
Y1665554D01*
X2142613*
X2143431Y1667917D02*
Y1665554D01*
X2144704Y1667917D02*
X2143431Y1666342D01*
X2143886Y1666904D02*
X2144704Y1665554D01*
X2146158Y1668367D02*
X2145977Y1668142D01*
X2145795Y1667804*
X2145613Y1667354*
X2145522Y1666792*
Y1666342*
X2145613Y1665779*
X2145795Y1665329*
X2145977Y1664992*
X2146158Y1664767*
X2146977Y1667917D02*
Y1665554D01*
X2148340Y1667917D02*
X2148158Y1667804D01*
X2147977Y1667579*
X2147886Y1667354*
X2147795Y1667017*
Y1666454*
X2147886Y1666117*
X2147977Y1665892*
X2148158Y1665667*
X2148340Y1665554*
X2148704*
X2148886Y1665667*
X2149068Y1665892*
X2149158Y1666117*
X2149249Y1666454*
Y1667017*
X2149158Y1667354*
X2149068Y1667579*
X2148886Y1667804*
X2148704Y1667917*
X2148340*
X2151158Y1667579D02*
X2151068Y1667804D01*
X2150795Y1667917*
X2150613*
X2150340Y1667804*
X2150158Y1667467*
X2150068Y1666904*
Y1666342*
X2150158Y1665892*
X2150340Y1665667*
X2150613Y1665554*
X2150704*
X2150977Y1665667*
X2151158Y1665892*
X2151249Y1666229*
Y1666342*
X2151158Y1666679*
X2150977Y1666904*
X2150704Y1667017*
X2150613*
X2150340Y1666904*
X2150158Y1666679*
X2150068Y1666342*
X2152068Y1668367D02*
X2152249Y1668142D01*
X2152431Y1667804*
X2152613Y1667354*
X2152704Y1666792*
Y1666342*
X2152613Y1665779*
X2152431Y1665329*
X2152249Y1664992*
X2152068Y1664767*
X2133977Y1657579D02*
X2133795Y1657804D01*
X2133522Y1657917*
X2133158*
X2132886Y1657804*
X2132704Y1657579*
Y1657354*
X2132795Y1657129*
X2132886Y1657017*
X2133068Y1656904*
X2133613Y1656679*
X2133795Y1656567*
X2133886Y1656454*
X2133977Y1656229*
Y1655892*
X2133795Y1655667*
X2133522Y1655554*
X2133158*
X2132886Y1655667*
X2132704Y1655892*
X2134795Y1657917D02*
Y1655554D01*
Y1657917D02*
X2135431D01*
X2135704Y1657804*
X2135886Y1657579*
X2135977Y1657354*
X2136068Y1657017*
Y1656454*
X2135977Y1656117*
X2135886Y1655892*
X2135704Y1655667*
X2135431Y1655554*
X2134795*
X2136886Y1655104D02*
X2138795D01*
X2139340Y1657917D02*
Y1655554D01*
Y1657917D02*
X2139977D01*
X2140249Y1657804*
X2140431Y1657579*
X2140522Y1657354*
X2140613Y1657017*
Y1656454*
X2140522Y1656117*
X2140431Y1655892*
X2140249Y1655667*
X2139977Y1655554*
X2139340*
X2141977Y1657917D02*
X2141704Y1657804D01*
X2141522Y1657467*
X2141431Y1656904*
Y1656567*
X2141522Y1656004*
X2141704Y1655667*
X2141977Y1655554*
X2142158*
X2142431Y1655667*
X2142613Y1656004*
X2142704Y1656567*
Y1656904*
X2142613Y1657467*
X2142431Y1657804*
X2142158Y1657917*
X2141977*
X2144158Y1658367D02*
X2143977Y1658142D01*
X2143795Y1657804*
X2143613Y1657354*
X2143522Y1656792*
Y1656342*
X2143613Y1655779*
X2143795Y1655329*
X2143977Y1654992*
X2144158Y1654767*
X2144977Y1657917D02*
Y1655554D01*
X2146340Y1657917D02*
X2146158Y1657804D01*
X2145977Y1657579*
X2145886Y1657354*
X2145795Y1657017*
Y1656454*
X2145886Y1656117*
X2145977Y1655892*
X2146158Y1655667*
X2146340Y1655554*
X2146704*
X2146886Y1655667*
X2147068Y1655892*
X2147158Y1656117*
X2147249Y1656454*
Y1657017*
X2147158Y1657354*
X2147068Y1657579*
X2146886Y1657804*
X2146704Y1657917*
X2146340*
X2149340D02*
X2148431Y1655554D01*
X2148068Y1657917D02*
X2149340D01*
X2150158Y1658367D02*
X2150340Y1658142D01*
X2150522Y1657804*
X2150704Y1657354*
X2150795Y1656792*
Y1656342*
X2150704Y1655779*
X2150522Y1655329*
X2150340Y1654992*
X2150158Y1654767*
X2133977Y1647579D02*
X2133795Y1647804D01*
X2133522Y1647917*
X2133158*
X2132886Y1647804*
X2132704Y1647579*
Y1647354*
X2132795Y1647129*
X2132886Y1647017*
X2133068Y1646904*
X2133613Y1646679*
X2133795Y1646567*
X2133886Y1646454*
X2133977Y1646229*
Y1645892*
X2133795Y1645667*
X2133522Y1645554*
X2133158*
X2132886Y1645667*
X2132704Y1645892*
X2134795Y1647917D02*
Y1645554D01*
Y1647917D02*
X2135431D01*
X2135704Y1647804*
X2135886Y1647579*
X2135977Y1647354*
X2136068Y1647017*
Y1646454*
X2135977Y1646117*
X2135886Y1645892*
X2135704Y1645667*
X2135431Y1645554*
X2134795*
X2136886Y1645104D02*
X2138795D01*
X2139340Y1647917D02*
Y1645554D01*
Y1647917D02*
X2139977D01*
X2140249Y1647804*
X2140431Y1647579*
X2140522Y1647354*
X2140613Y1647017*
Y1646454*
X2140522Y1646117*
X2140431Y1645892*
X2140249Y1645667*
X2139977Y1645554*
X2139340*
X2141431Y1647467D02*
X2141613Y1647579D01*
X2141886Y1647917*
Y1645554*
X2143340Y1648367D02*
X2143158Y1648142D01*
X2142977Y1647804*
X2142795Y1647354*
X2142704Y1646792*
Y1646342*
X2142795Y1645779*
X2142977Y1645329*
X2143158Y1644992*
X2143340Y1644767*
X2144158Y1647917D02*
Y1645554D01*
X2145522Y1647917D02*
X2145340Y1647804D01*
X2145158Y1647579*
X2145068Y1647354*
X2144977Y1647017*
Y1646454*
X2145068Y1646117*
X2145158Y1645892*
X2145340Y1645667*
X2145522Y1645554*
X2145886*
X2146068Y1645667*
X2146249Y1645892*
X2146340Y1646117*
X2146431Y1646454*
Y1647017*
X2146340Y1647354*
X2146249Y1647579*
X2146068Y1647804*
X2145886Y1647917*
X2145522*
X2147704D02*
X2147431Y1647804D01*
X2147340Y1647579*
Y1647354*
X2147431Y1647129*
X2147613Y1647017*
X2147977Y1646904*
X2148249Y1646792*
X2148431Y1646567*
X2148522Y1646342*
Y1646004*
X2148431Y1645779*
X2148340Y1645667*
X2148068Y1645554*
X2147704*
X2147431Y1645667*
X2147340Y1645779*
X2147249Y1646004*
Y1646342*
X2147340Y1646567*
X2147522Y1646792*
X2147795Y1646904*
X2148158Y1647017*
X2148340Y1647129*
X2148431Y1647354*
Y1647579*
X2148340Y1647804*
X2148068Y1647917*
X2147704*
X2149340Y1648367D02*
X2149522Y1648142D01*
X2149704Y1647804*
X2149886Y1647354*
X2149977Y1646792*
Y1646342*
X2149886Y1645779*
X2149704Y1645329*
X2149522Y1644992*
X2149340Y1644767*
X2133340Y1737917D02*
Y1735554D01*
X2132704Y1737917D02*
X2133977D01*
X2134795D02*
Y1735554D01*
Y1737917D02*
X2135522Y1735554D01*
X2136249Y1737917D02*
X2135522Y1735554D01*
X2136249Y1737917D02*
Y1735554D01*
X2138340Y1737579D02*
X2138158Y1737804D01*
X2137886Y1737917*
X2137522*
X2137249Y1737804*
X2137068Y1737579*
Y1737354*
X2137158Y1737129*
X2137249Y1737017*
X2137431Y1736904*
X2137977Y1736679*
X2138158Y1736567*
X2138249Y1736454*
X2138340Y1736229*
Y1735892*
X2138158Y1735667*
X2137886Y1735554*
X2137522*
X2137249Y1735667*
X2137068Y1735892*
X2139795Y1738367D02*
X2139613Y1738142D01*
X2139431Y1737804*
X2139249Y1737354*
X2139158Y1736792*
Y1736342*
X2139249Y1735779*
X2139431Y1735329*
X2139613Y1734992*
X2139795Y1734767*
X2140613Y1737917D02*
Y1735554D01*
X2141977Y1737917D02*
X2141795Y1737804D01*
X2141613Y1737579*
X2141522Y1737354*
X2141431Y1737017*
Y1736454*
X2141522Y1736117*
X2141613Y1735892*
X2141795Y1735667*
X2141977Y1735554*
X2142340*
X2142522Y1735667*
X2142704Y1735892*
X2142795Y1736117*
X2142886Y1736454*
Y1737017*
X2142795Y1737354*
X2142704Y1737579*
X2142522Y1737804*
X2142340Y1737917*
X2141977*
X2143704Y1737467D02*
X2143886Y1737579D01*
X2144158Y1737917*
Y1735554*
X2145886Y1737917D02*
X2144977Y1736342D01*
X2146340*
X2145886Y1737917D02*
Y1735554D01*
X2147158Y1738367D02*
X2147340Y1738142D01*
X2147522Y1737804*
X2147704Y1737354*
X2147795Y1736792*
Y1736342*
X2147704Y1735779*
X2147522Y1735329*
X2147340Y1734992*
X2147158Y1734767*
X2133140Y1727979D02*
Y1725354D01*
X2132504Y1727979D02*
X2133777D01*
X2134595D02*
Y1725354D01*
Y1727979D02*
X2135231D01*
X2135504Y1727854*
X2135686Y1727604*
X2135777Y1727354*
X2135868Y1726979*
Y1726354*
X2135777Y1725979*
X2135686Y1725729*
X2135504Y1725479*
X2135231Y1725354*
X2134595*
X2136686Y1727979D02*
Y1725354D01*
X2138140Y1728479D02*
X2137958Y1728229D01*
X2137777Y1727854*
X2137595Y1727354*
X2137504Y1726729*
Y1726229*
X2137595Y1725604*
X2137777Y1725104*
X2137958Y1724729*
X2138140Y1724479*
X2138958Y1727979D02*
Y1725354D01*
X2140322Y1727979D02*
X2140140Y1727854D01*
X2139958Y1727604*
X2139868Y1727354*
X2139777Y1726979*
Y1726354*
X2139868Y1725979*
X2139958Y1725729*
X2140140Y1725479*
X2140322Y1725354*
X2140686*
X2140868Y1725479*
X2141049Y1725729*
X2141140Y1725979*
X2141231Y1726354*
Y1726979*
X2141140Y1727354*
X2141049Y1727604*
X2140868Y1727854*
X2140686Y1727979*
X2140322*
X2142049Y1727479D02*
X2142231Y1727604D01*
X2142504Y1727979*
Y1725354*
X2143413Y1727354D02*
Y1727479D01*
X2143504Y1727729*
X2143595Y1727854*
X2143777Y1727979*
X2144140*
X2144322Y1727854*
X2144413Y1727729*
X2144504Y1727479*
Y1727229*
X2144413Y1726979*
X2144231Y1726604*
X2143322Y1725354*
X2144595*
X2145413Y1728479D02*
X2145595Y1728229D01*
X2145777Y1727854*
X2145958Y1727354*
X2146049Y1726729*
Y1726229*
X2145958Y1725604*
X2145777Y1725104*
X2145595Y1724729*
X2145413Y1724479*
X2133140Y1717979D02*
Y1715354D01*
X2132504Y1717979D02*
X2133777D01*
X2135958Y1717354D02*
X2135868Y1717604D01*
X2135686Y1717854*
X2135504Y1717979*
X2135140*
X2134958Y1717854*
X2134777Y1717604*
X2134686Y1717354*
X2134595Y1716979*
Y1716354*
X2134686Y1715979*
X2134777Y1715729*
X2134958Y1715479*
X2135140Y1715354*
X2135504*
X2135686Y1715479*
X2135868Y1715729*
X2135958Y1715979*
X2136777Y1717979D02*
Y1715354D01*
X2138049Y1717979D02*
X2136777Y1716229D01*
X2137231Y1716854D02*
X2138049Y1715354D01*
X2139504Y1718479D02*
X2139322Y1718229D01*
X2139140Y1717854*
X2138958Y1717354*
X2138868Y1716729*
Y1716229*
X2138958Y1715604*
X2139140Y1715104*
X2139322Y1714729*
X2139504Y1714479*
X2140322Y1717979D02*
Y1715354D01*
X2141686Y1717979D02*
X2141504Y1717854D01*
X2141322Y1717604*
X2141231Y1717354*
X2141140Y1716979*
Y1716354*
X2141231Y1715979*
X2141322Y1715729*
X2141504Y1715479*
X2141686Y1715354*
X2142049*
X2142231Y1715479*
X2142413Y1715729*
X2142504Y1715979*
X2142595Y1716354*
Y1716979*
X2142504Y1717354*
X2142413Y1717604*
X2142231Y1717854*
X2142049Y1717979*
X2141686*
X2143413Y1717479D02*
X2143595Y1717604D01*
X2143868Y1717979*
Y1715354*
X2144868Y1717979D02*
X2145868D01*
X2145322Y1716979*
X2145595*
X2145777Y1716854*
X2145868Y1716729*
X2145958Y1716354*
Y1716104*
X2145868Y1715729*
X2145686Y1715479*
X2145413Y1715354*
X2145140*
X2144868Y1715479*
X2144777Y1715604*
X2144686Y1715854*
X2146777Y1718479D02*
X2146958Y1718229D01*
X2147140Y1717854*
X2147322Y1717354*
X2147413Y1716729*
Y1716229*
X2147322Y1715604*
X2147140Y1715104*
X2146958Y1714729*
X2146777Y1714479*
X2133140Y1707979D02*
Y1705354D01*
X2132504Y1707979D02*
X2133777D01*
X2134595D02*
Y1705354D01*
Y1707979D02*
X2135231D01*
X2135504Y1707854*
X2135686Y1707604*
X2135777Y1707354*
X2135868Y1706979*
Y1706354*
X2135777Y1705979*
X2135686Y1705729*
X2135504Y1705479*
X2135231Y1705354*
X2134595*
X2137231Y1707979D02*
X2137049Y1707854D01*
X2136868Y1707604*
X2136777Y1707354*
X2136686Y1706979*
Y1706354*
X2136777Y1705979*
X2136868Y1705729*
X2137049Y1705479*
X2137231Y1705354*
X2137595*
X2137777Y1705479*
X2137958Y1705729*
X2138049Y1705979*
X2138140Y1706354*
Y1706979*
X2138049Y1707354*
X2137958Y1707604*
X2137777Y1707854*
X2137595Y1707979*
X2137231*
X2139595Y1708479D02*
X2139413Y1708229D01*
X2139231Y1707854*
X2139049Y1707354*
X2138958Y1706729*
Y1706229*
X2139049Y1705604*
X2139231Y1705104*
X2139413Y1704729*
X2139595Y1704479*
X2140413Y1707979D02*
Y1705354D01*
X2141777Y1707979D02*
X2141595Y1707854D01*
X2141413Y1707604*
X2141322Y1707354*
X2141231Y1706979*
Y1706354*
X2141322Y1705979*
X2141413Y1705729*
X2141595Y1705479*
X2141777Y1705354*
X2142140*
X2142322Y1705479*
X2142504Y1705729*
X2142595Y1705979*
X2142686Y1706354*
Y1706979*
X2142595Y1707354*
X2142504Y1707604*
X2142322Y1707854*
X2142140Y1707979*
X2141777*
X2143504Y1707479D02*
X2143686Y1707604D01*
X2143958Y1707979*
Y1705354*
X2145958Y1707979D02*
X2145049D01*
X2144958Y1706854*
X2145049Y1706979*
X2145322Y1707104*
X2145595*
X2145868Y1706979*
X2146049Y1706729*
X2146140Y1706354*
X2146049Y1706104*
X2145958Y1705729*
X2145777Y1705479*
X2145504Y1705354*
X2145231*
X2144958Y1705479*
X2144868Y1705604*
X2144777Y1705854*
X2146958Y1708479D02*
X2147140Y1708229D01*
X2147322Y1707854*
X2147504Y1707354*
X2147595Y1706729*
Y1706229*
X2147504Y1705604*
X2147322Y1705104*
X2147140Y1704729*
X2146958Y1704479*
X2183704Y1637917D02*
Y1635554D01*
X2185068Y1637917D02*
X2184886Y1637804D01*
X2184704Y1637579*
X2184613Y1637354*
X2184522Y1637017*
Y1636454*
X2184613Y1636117*
X2184704Y1635892*
X2184886Y1635667*
X2185068Y1635554*
X2185431*
X2185613Y1635667*
X2185795Y1635892*
X2185886Y1636117*
X2185977Y1636454*
Y1637017*
X2185886Y1637354*
X2185795Y1637579*
X2185613Y1637804*
X2185431Y1637917*
X2185068*
X2186886Y1637354D02*
Y1637467D01*
X2186977Y1637692*
X2187068Y1637804*
X2187249Y1637917*
X2187613*
X2187795Y1637804*
X2187886Y1637692*
X2187977Y1637467*
Y1637242*
X2187886Y1637017*
X2187704Y1636679*
X2186795Y1635554*
X2188068*
X2183704Y1647917D02*
Y1645554D01*
X2185068Y1647917D02*
X2184886Y1647804D01*
X2184704Y1647579*
X2184613Y1647354*
X2184522Y1647017*
Y1646454*
X2184613Y1646117*
X2184704Y1645892*
X2184886Y1645667*
X2185068Y1645554*
X2185431*
X2185613Y1645667*
X2185795Y1645892*
X2185886Y1646117*
X2185977Y1646454*
Y1647017*
X2185886Y1647354*
X2185795Y1647579*
X2185613Y1647804*
X2185431Y1647917*
X2185068*
X2187340D02*
X2187068Y1647804D01*
X2186886Y1647467*
X2186795Y1646904*
Y1646567*
X2186886Y1646004*
X2187068Y1645667*
X2187340Y1645554*
X2187522*
X2187795Y1645667*
X2187977Y1646004*
X2188068Y1646567*
Y1646904*
X2187977Y1647467*
X2187795Y1647804*
X2187522Y1647917*
X2187340*
X2134068Y1637354D02*
X2133977Y1637579D01*
X2133795Y1637804*
X2133613Y1637917*
X2133249*
X2133068Y1637804*
X2132886Y1637579*
X2132795Y1637354*
X2132704Y1637017*
Y1636454*
X2132795Y1636117*
X2132886Y1635892*
X2133068Y1635667*
X2133249Y1635554*
X2133613*
X2133795Y1635667*
X2133977Y1635892*
X2134068Y1636117*
Y1636454*
X2133613D02*
X2134068D01*
X2134886Y1637917D02*
Y1635554D01*
Y1637917D02*
X2136158Y1635554D01*
Y1637917D02*
Y1635554D01*
X2136977Y1637917D02*
Y1635554D01*
Y1637917D02*
X2137613D01*
X2137886Y1637804*
X2138068Y1637579*
X2138158Y1637354*
X2138249Y1637017*
Y1636454*
X2138158Y1636117*
X2138068Y1635892*
X2137886Y1635667*
X2137613Y1635554*
X2136977*
X2185068Y1657354D02*
X2184977Y1657579D01*
X2184795Y1657804*
X2184613Y1657917*
X2184249*
X2184068Y1657804*
X2183886Y1657579*
X2183795Y1657354*
X2183704Y1657017*
Y1656454*
X2183795Y1656117*
X2183886Y1655892*
X2184068Y1655667*
X2184249Y1655554*
X2184613*
X2184795Y1655667*
X2184977Y1655892*
X2185068Y1656117*
Y1656454*
X2184613D02*
X2185068D01*
X2185886Y1657917D02*
Y1655554D01*
Y1657917D02*
X2187158Y1655554D01*
Y1657917D02*
Y1655554D01*
X2187977Y1657917D02*
Y1655554D01*
Y1657917D02*
X2188613D01*
X2188886Y1657804*
X2189068Y1657579*
X2189158Y1657354*
X2189249Y1657017*
Y1656454*
X2189158Y1656117*
X2189068Y1655892*
X2188886Y1655667*
X2188613Y1655554*
X2187977*
X2185068Y1747354D02*
X2184977Y1747579D01*
X2184795Y1747804*
X2184613Y1747917*
X2184249*
X2184068Y1747804*
X2183886Y1747579*
X2183795Y1747354*
X2183704Y1747017*
Y1746454*
X2183795Y1746117*
X2183886Y1745892*
X2184068Y1745667*
X2184249Y1745554*
X2184613*
X2184795Y1745667*
X2184977Y1745892*
X2185068Y1746117*
Y1746454*
X2184613D02*
X2185068D01*
X2185886Y1747917D02*
Y1745554D01*
Y1747917D02*
X2187158Y1745554D01*
Y1747917D02*
Y1745554D01*
X2187977Y1747917D02*
Y1745554D01*
Y1747917D02*
X2188613D01*
X2188886Y1747804*
X2189068Y1747579*
X2189158Y1747354*
X2189249Y1747017*
Y1746454*
X2189158Y1746117*
X2189068Y1745892*
X2188886Y1745667*
X2188613Y1745554*
X2187977*
X2180068Y1737354D02*
X2179977Y1737579D01*
X2179795Y1737804*
X2179613Y1737917*
X2179249*
X2179068Y1737804*
X2178886Y1737579*
X2178795Y1737354*
X2178704Y1737017*
Y1736454*
X2178795Y1736117*
X2178886Y1735892*
X2179068Y1735667*
X2179249Y1735554*
X2179613*
X2179795Y1735667*
X2179977Y1735892*
X2180068Y1736117*
X2180886Y1737917D02*
Y1735554D01*
X2182158Y1737917D02*
Y1735554D01*
X2180886Y1736792D02*
X2182158D01*
X2182977Y1735104D02*
X2184886D01*
X2185431Y1737917D02*
Y1735554D01*
Y1737917D02*
X2186613D01*
X2185431Y1736792D02*
X2186158D01*
X2185431Y1735554D02*
X2186613D01*
X2187431Y1737917D02*
Y1735554D01*
Y1737917D02*
X2188704Y1735554D01*
Y1737917D02*
Y1735554D01*
X2183386Y1727917D02*
X2184386D01*
X2183840Y1727017*
X2184113*
X2184295Y1726904*
X2184386Y1726792*
X2184477Y1726454*
Y1726229*
X2184386Y1725892*
X2184204Y1725667*
X2183931Y1725554*
X2183658*
X2183386Y1725667*
X2183295Y1725779*
X2183204Y1726004*
X2185295Y1727917D02*
X2186022Y1725554D01*
X2186749Y1727917D02*
X2186022Y1725554D01*
X2187749Y1727917D02*
X2188749D01*
X2188204Y1727017*
X2188477*
X2188658Y1726904*
X2188749Y1726792*
X2188840Y1726454*
Y1726229*
X2188749Y1725892*
X2188568Y1725667*
X2188295Y1725554*
X2188022*
X2187749Y1725667*
X2187658Y1725779*
X2187568Y1726004*
X2183704Y1717917D02*
Y1715554D01*
Y1717917D02*
X2184522D01*
X2184795Y1717804*
X2184886Y1717692*
X2184977Y1717467*
Y1717242*
X2184886Y1717017*
X2184795Y1716904*
X2184522Y1716792*
X2183704*
X2184340D02*
X2184977Y1715554D01*
X2187068Y1717579D02*
X2186886Y1717804D01*
X2186613Y1717917*
X2186249*
X2185977Y1717804*
X2185795Y1717579*
Y1717354*
X2185886Y1717129*
X2185977Y1717017*
X2186158Y1716904*
X2186704Y1716679*
X2186886Y1716567*
X2186977Y1716454*
X2187068Y1716229*
Y1715892*
X2186886Y1715667*
X2186613Y1715554*
X2186249*
X2185977Y1715667*
X2185795Y1715892*
X2188522Y1717917D02*
Y1715554D01*
X2187886Y1717917D02*
X2189158D01*
X2133340Y1747917D02*
Y1745554D01*
X2132704Y1747917D02*
X2133977D01*
X2135340D02*
X2135158Y1747804D01*
X2134977Y1747579*
X2134886Y1747354*
X2134795Y1747017*
Y1746454*
X2134886Y1746117*
X2134977Y1745892*
X2135158Y1745667*
X2135340Y1745554*
X2135704*
X2135886Y1745667*
X2136068Y1745892*
X2136158Y1746117*
X2136249Y1746454*
Y1747017*
X2136158Y1747354*
X2136068Y1747579*
X2135886Y1747804*
X2135704Y1747917*
X2135340*
X2137068D02*
Y1746229D01*
X2137158Y1745892*
X2137340Y1745667*
X2137613Y1745554*
X2137795*
X2138068Y1745667*
X2138249Y1745892*
X2138340Y1746229*
Y1747917*
X2139795D02*
Y1745554D01*
X2139158Y1747917D02*
X2140431D01*
X2141886Y1748367D02*
X2141704Y1748142D01*
X2141522Y1747804*
X2141340Y1747354*
X2141249Y1746792*
Y1746342*
X2141340Y1745779*
X2141522Y1745329*
X2141704Y1744992*
X2141886Y1744767*
X2143431Y1747917D02*
X2142704Y1745554D01*
X2143431Y1747917D02*
X2144158Y1745554D01*
X2142977Y1746342D02*
X2143886D01*
X2144977Y1747917D02*
Y1745554D01*
Y1747917D02*
X2145613D01*
X2145886Y1747804*
X2146068Y1747579*
X2146158Y1747354*
X2146249Y1747017*
Y1746454*
X2146158Y1746117*
X2146068Y1745892*
X2145886Y1745667*
X2145613Y1745554*
X2144977*
X2148431Y1747354D02*
X2148340Y1747579D01*
X2148158Y1747804*
X2147977Y1747917*
X2147613*
X2147431Y1747804*
X2147249Y1747579*
X2147158Y1747354*
X2147068Y1747017*
Y1746454*
X2147158Y1746117*
X2147249Y1745892*
X2147431Y1745667*
X2147613Y1745554*
X2147977*
X2148158Y1745667*
X2148340Y1745892*
X2148431Y1746117*
X2149249Y1748367D02*
X2149431Y1748142D01*
X2149613Y1747804*
X2149795Y1747354*
X2149886Y1746792*
Y1746342*
X2149795Y1745779*
X2149613Y1745329*
X2149431Y1744992*
X2149249Y1744767*
X0Y0D02*
M02*
