*
*
G04 PADS 9.5 Build Number: 522968 generated Gerber (RS-274-X) file*
G04 PC Version=2.1*
*
%IN "wifi_testchip_0427.pcb"*%
*
%MOIN*%
*
%FSLAX35Y35*%
*
*
*
*
G04 PC Standard Apertures*
*
*
G04 Thermal Relief Aperture macro.*
%AMTER*
1,1,$1,0,0*
1,0,$1-$2,0,0*
21,0,$3,$4,0,0,45*
21,0,$3,$4,0,0,135*
%
*
*
G04 Annular Aperture macro.*
%AMANN*
1,1,$1,0,0*
1,0,$2,0,0*
%
*
*
G04 Odd Aperture macro.*
%AMODD*
1,1,$1,0,0*
1,0,$1-0.005,0,0*
%
*
*
G04 PC Custom Aperture Macros*
*
*
*
*
*
*
G04 PC Aperture Table*
*
%ADD010C,0.001*%
%ADD011R,0.02X0.02*%
%ADD012C,0.01*%
%ADD018R,0.032X0.036*%
%ADD030C,0.01575*%
%ADD031C,0.00394*%
%ADD035C,0.01969*%
%ADD056C,0.012*%
%ADD060C,0.015*%
%ADD070C,0.05906*%
%ADD089C,0.02*%
%ADD130O,0.01102X0.0315*%
%ADD131O,0.0315X0.01102*%
%ADD132R,0.14567X0.14567*%
%ADD133R,0.03937X0.04331*%
%ADD134R,0.06102X0.02362*%
%ADD136R,0.05906X0.17717*%
%ADD149R,0.015X0.18898*%
*
*
*
*
G04 PC Circuitry*
G04 Layer Name wifi_testchip_0427.pcb - circuitry*
%LPD*%
*
*
G04 PC Custom Flashes*
G04 Layer Name wifi_testchip_0427.pcb - flashes*
%LPD*%
*
*
G04 PC Circuitry*
G04 Layer Name wifi_testchip_0427.pcb - circuitry*
%LPD*%
*
G54D10*
G54D11*
G01X2028615Y1752850D03*
X2024615D03*
X2022685Y1772550D03*
X2026685D03*
X2009185Y1784715D03*
Y1788715D03*
X2005185Y1781243D03*
X2009185D03*
X2033885Y1776650D03*
X2029885D03*
X2009185Y1792126D03*
X2005185D03*
X1991885Y1785250D03*
X1987885D03*
X1997185Y1746850D03*
Y1742850D03*
X2000685Y1746850D03*
Y1742850D03*
X2004185Y1746850D03*
Y1742850D03*
X2007685Y1746850D03*
Y1742850D03*
X2011285Y1746850D03*
Y1742850D03*
X2014885Y1746850D03*
Y1742850D03*
X2016305Y1707450D03*
X2020305D03*
X1993185Y1722350D03*
X1989185D03*
X2026685Y1731350D03*
Y1727350D03*
X2020305Y1711050D03*
X2016305D03*
G54D12*
X1979528Y1713350D02*
X1975356Y1715085D01*
X1977075Y1713350*
X1975356Y1711616*
X1979528Y1713350*
X1975542Y1711803D02*
X1975806D01*
X1976533Y1712803D02*
X1978211D01*
X1976626Y1713803D02*
X1978439D01*
X1975635Y1714803D02*
X1976034D01*
X1975504Y1711677D02*
Y1711765D01*
Y1714936D02*
Y1715023D01*
X1976504Y1712093D02*
Y1712774D01*
Y1713927D02*
Y1714608D01*
X1977504Y1712509D02*
Y1714192D01*
X1978504Y1712925D02*
Y1713776D01*
X1979504Y1713341D02*
Y1713360D01*
X1988010Y1713350D02*
X1989382Y1713147D01*
X1988298Y1713350*
X1989382Y1713554*
X1988010Y1713350*
X1988504Y1713277D02*
Y1713312D01*
Y1713389D02*
Y1713424D01*
X2016285Y1712570D02*
X2016488Y1713847D01*
X2016285Y1712763*
X2016082Y1713847*
X2016285Y1712570*
X2016248Y1712803D02*
X2016278D01*
X2016293D02*
X2016322D01*
X2016089Y1713803D02*
X2016090D01*
X2016480D02*
X2016481D01*
X1989185Y1732425D02*
X1988982Y1731054D01*
X1989185Y1732138*
X1989388Y1731054*
X1989185Y1732425*
X1989093Y1731803D02*
X1989122D01*
X1989248D02*
X1989277D01*
X2005185Y1731625D02*
X2004982Y1730254D01*
X2005185Y1731338*
X2005388Y1730254*
X2005185Y1731625*
X2005063Y1730803D02*
X2005085D01*
X2005285D02*
X2005307D01*
X2000685Y1739925D02*
X2000482Y1738554D01*
X2000685Y1739638*
X2000888Y1738554*
X2000685Y1739925*
X2000519Y1738803D02*
X2000529D01*
X2000841D02*
X2000851D01*
X2000667Y1739803D02*
X2000703D01*
X2000504Y1738672D02*
Y1738703D01*
X2001610Y1732350D02*
X2002982Y1732147D01*
X2001898Y1732350*
X2002982Y1732554*
X2001610Y1732350*
X2002504Y1732218D02*
Y1732237D01*
Y1732464D02*
Y1732483D01*
X1999360Y1735850D02*
X1997988Y1736054D01*
X1999072Y1735850*
X1997988Y1735647*
X1999360Y1735850*
X1998820Y1735803D02*
X1999041D01*
X1998504Y1735724D02*
Y1735744D01*
Y1735957D02*
Y1735977D01*
X2014885Y1736025D02*
X2014682Y1734654D01*
X2014885Y1735738*
X2015088Y1734654*
X2014885Y1736025*
X2014704Y1734803D02*
X2014710D01*
X2015060D02*
X2015066D01*
X2014852Y1735803D02*
X2014918D01*
X1985571Y1739464D02*
X1986398Y1738350D01*
X1985775Y1739261*
X1986685Y1738638*
X1985571Y1739464*
X1986062Y1738803D02*
X1986088D01*
X1986443D02*
X1986462D01*
X1986504Y1738762D02*
Y1738772D01*
X1977798Y1759175D02*
X1976075Y1763350D01*
X1976064Y1760909*
X1973622Y1760898*
X1977798Y1759175*
X1976275Y1759803D02*
X1977538D01*
X1973851Y1760803D02*
X1977126D01*
X1976068Y1761803D02*
X1976713D01*
X1976072Y1762803D02*
X1976301D01*
X1974504Y1760534D02*
Y1760902D01*
X1975504Y1760121D02*
Y1760906D01*
X1976504Y1759708D02*
Y1762310D01*
X1977504Y1759296D02*
Y1759887D01*
X2038583Y1743350D02*
X2042754Y1741616D01*
X2041035Y1743350*
X2042754Y1745085*
X2038583Y1743350*
X2042304Y1741803D02*
X2042568D01*
X2039899Y1742803D02*
X2041578D01*
X2039672Y1743803D02*
X2041484D01*
X2042077Y1744803D02*
X2042475D01*
X2039504Y1742967D02*
Y1743733D01*
X2040504Y1742552D02*
Y1744149D01*
X2041504Y1742136D02*
Y1742878D01*
Y1743823D02*
Y1744565D01*
X2042504Y1741720D02*
Y1741868D01*
Y1744833D02*
Y1744981D01*
X2040312Y1737526D02*
X2042035Y1733350D01*
X2042047Y1735792*
X2044488Y1735803*
X2040312Y1737526*
X2041849Y1733803D02*
X2042038D01*
X2041436Y1734803D02*
X2042042D01*
X2041023Y1735803D02*
X2044488D01*
X2040611Y1736803D02*
X2042065D01*
X2040504Y1737062D02*
Y1737447D01*
X2041504Y1734638D02*
Y1737035D01*
X2042504Y1735794D02*
Y1736622D01*
X2043504Y1735799D02*
Y1736209D01*
X1990460Y1772450D02*
X1989088Y1772654D01*
X1990172Y1772450*
X1989088Y1772247*
X1990460Y1772450*
X1989504Y1772309D02*
Y1772325D01*
Y1772576D02*
Y1772592D01*
X1977798Y1769175D02*
X1976075Y1773350D01*
X1976064Y1770909*
X1973622Y1770898*
X1977798Y1769175*
X1976275Y1769803D02*
X1977538D01*
X1973851Y1770803D02*
X1977126D01*
X1976068Y1771803D02*
X1976713D01*
X1976072Y1772803D02*
X1976301D01*
X1974504Y1770534D02*
Y1770902D01*
X1975504Y1770121D02*
Y1770906D01*
X1976504Y1769708D02*
Y1772310D01*
X1977504Y1769296D02*
Y1769887D01*
X1976285Y1780687D02*
X1975960Y1782609D01*
X1976064Y1780909*
X1974364Y1781013*
X1976285Y1780687*
X1975601Y1780803D02*
X1976265D01*
X1976009Y1781803D02*
X1976096D01*
X1974504Y1780989D02*
Y1781004D01*
X1975504Y1780820D02*
Y1780943D01*
X2038583Y1783350D02*
X2042754Y1781616D01*
X2041035Y1783350*
X2042754Y1785085*
X2038583Y1783350*
X2042304Y1781803D02*
X2042568D01*
X2039899Y1782803D02*
X2041578D01*
X2039672Y1783803D02*
X2041484D01*
X2042077Y1784803D02*
X2042475D01*
X2039504Y1782967D02*
Y1783733D01*
X2040504Y1782552D02*
Y1784149D01*
X2041504Y1782136D02*
Y1782878D01*
Y1783823D02*
Y1784565D01*
X2042504Y1781720D02*
Y1781868D01*
Y1784833D02*
Y1784981D01*
X1977798Y1789175D02*
X1976075Y1793350D01*
X1976064Y1790909*
X1973622Y1790898*
X1977798Y1789175*
X1976275Y1789803D02*
X1977538D01*
X1973851Y1790803D02*
X1977126D01*
X1976068Y1791803D02*
X1976713D01*
X1976072Y1792803D02*
X1976301D01*
X1974504Y1790534D02*
Y1790902D01*
X1975504Y1790121D02*
Y1790906D01*
X1976504Y1789708D02*
Y1792310D01*
X1977504Y1789296D02*
Y1789887D01*
X1977798Y1809175D02*
X1976075Y1813350D01*
X1976064Y1810909*
X1973622Y1810898*
X1977798Y1809175*
X1976275Y1809803D02*
X1977538D01*
X1973851Y1810803D02*
X1977126D01*
X1976068Y1811803D02*
X1976713D01*
X1976072Y1812803D02*
X1976301D01*
X1974504Y1810534D02*
Y1810902D01*
X1975504Y1810121D02*
Y1810906D01*
X1976504Y1809708D02*
Y1812310D01*
X1977504Y1809296D02*
Y1809887D01*
X2020305Y1707450D02*
Y1711050D01*
X1989185Y1722350D02*
Y1724850D01*
X1973622Y1713350D02*
X1989585D01*
X1973622Y1723350D02*
X1977022Y1719950D01*
X2008985*
X2013485*
X2014585*
X2016985Y1722350*
X2018585*
X2020315*
X2008985Y1719950D02*
X2011285Y1722250D01*
Y1742850*
X1993185Y1722350D02*
X1999055D01*
Y1727350D02*
X2005985D01*
X2007685Y1729050*
Y1742850*
X2016285Y1714050D02*
Y1711070D01*
X2016305Y1711050*
X2020305D02*
X2020315D01*
Y1717350*
Y1727350D02*
X2026685D01*
X1989054Y1747919D02*
X1994122Y1742850D01*
X1997185*
X1989054Y1747919D02*
X1989185Y1747787D01*
Y1730850*
X1973622Y1733350D02*
X1978385D01*
X1984385Y1727350*
X1999055*
X1973622Y1743350D02*
X1978285D01*
X1985785Y1735850*
X1986685*
X2005185Y1736850D02*
Y1730050D01*
X2000685Y1738350D02*
Y1742850D01*
X2004185D02*
X2005185Y1741850D01*
Y1736850*
X2000685Y1746850D02*
Y1751513D01*
X2001322Y1752150*
Y1755905*
X1997185Y1746850D02*
Y1750482D01*
X1999354Y1752650*
Y1755905*
X1999055Y1732350D02*
X2003185D01*
X1997785Y1735850D02*
X2003785D01*
X2004785Y1736850*
X2005185*
X2014885Y1734450D02*
Y1742850D01*
X2026685Y1731350D02*
Y1733650D01*
X1981385Y1761450D02*
X1982485Y1762550D01*
X1983685*
X1983732Y1762598*
X1994629*
X1988985Y1758650D02*
X1988995Y1758661D01*
X1994629*
X1984285Y1758750D02*
X1986185Y1760650D01*
X1994608*
X1994629Y1760629*
X1973622Y1753350D02*
Y1751413D01*
X1986685Y1738350*
X1973622Y1763350D02*
X1989054Y1747919D01*
X2011285Y1746850D02*
X2007185Y1750950D01*
Y1755862*
X2007228Y1755905*
X2011165D02*
X2011185Y1755884D01*
Y1753750*
X2009196Y1755905D02*
Y1752539D01*
X2014885Y1746850*
X2005259Y1755905D02*
Y1750350D01*
X2007685Y1747925*
Y1746850*
X2003291Y1755905D02*
Y1747745D01*
X2004185Y1746850*
X2015585Y1767450D02*
Y1766850D01*
X2015785Y1767050*
Y1768103*
X2028591Y1759264D02*
Y1752875D01*
X2028615Y1752850*
X2013921Y1766535D02*
X2013936Y1766550D01*
X2015285*
X2015585Y1766850*
Y1767450*
X2013921Y1764566D02*
X2020901D01*
X2022685Y1766350*
X2013921Y1762598D02*
X2025285D01*
Y1762569*
X2028591Y1759264*
X2013921Y1760629D02*
X2015985D01*
X2017364Y1759250*
Y1752950*
X2026964Y1743350*
X2044488*
X2013921Y1758661D02*
X2015085D01*
X2015685Y1758061*
Y1751450*
X2026185Y1740950*
X2036888*
X2044488Y1733350*
X1988885Y1772450D02*
X1994619D01*
X1994629Y1772440*
X1973622Y1773350D02*
X1982406Y1764566D01*
X1994629*
X1973622Y1783350D02*
X1977346Y1779627D01*
Y1776374*
X1987185Y1766535*
X1994629*
X2006185Y1777650D02*
X2006885D01*
X2007285Y1777250*
X1999354Y1775196D02*
Y1780550D01*
X1999385*
X2007228Y1775196D02*
X2007285Y1775253D01*
Y1777250*
X2011165Y1775196D02*
Y1776950D01*
X2011865Y1777650*
X2013885*
X2015585Y1779350*
X1996185Y1780350D02*
X1997385Y1779150D01*
X1997385*
Y1775196*
X2005185Y1777250D02*
Y1775270D01*
X2005259Y1775196*
X2005185Y1777250D02*
X2005585Y1777650D01*
X2006185*
X2015585Y1779350D02*
X2015635D01*
X2018935Y1782650*
X2013921Y1772440D02*
X2015585D01*
X2022395Y1779250*
X2032785*
X2036885Y1783350*
X2044488*
X2013921Y1770472D02*
X2016185D01*
X2022364Y1776650*
X2029885*
X2013921Y1768503D02*
X2015385D01*
X2015785Y1768103*
X2022685Y1772550D02*
Y1766350D01*
X1973622Y1793350D02*
X1979496Y1787477D01*
Y1777261*
X1986285Y1770472*
X1994629*
X1973622Y1813350D02*
X1980385Y1806587D01*
Y1802488*
X2001322Y1781550*
Y1775196*
G54D18*
X2018935Y1782650D03*
X2025435D03*
X1991935Y1779550D03*
X1985435D03*
G54D30*
X1972785Y1699250D03*
X1993085Y1706150D03*
X1981785Y1705750D03*
X1978985Y1699350D03*
X1975785D03*
X1979585Y1707350D03*
X1980885Y1700450D03*
X1997785Y1706550D03*
X2010485Y1706650D03*
X2006585Y1706950D03*
X2002285Y1706450D03*
X2031985Y1706050D03*
X2036785Y1707450D03*
X1989585Y1713350D03*
X1986485Y1716950D03*
X1976085Y1728050D03*
X1989185Y1724850D03*
X1977585Y1709350D03*
X1978585Y1716950D03*
X1990785Y1708350D03*
X1978585Y1724950D03*
X1988785Y1710650D03*
X2003185Y1713250D03*
X2002985Y1709650D03*
X2006285Y1710750D03*
X1993385Y1717350D03*
X1994585Y1709550D03*
X1999285Y1712850D03*
X1995885Y1713250D03*
X1998985Y1709250D03*
X2028385Y1713950D03*
X2013685Y1725250D03*
X2026285Y1716050D03*
X2026785Y1719650D03*
X2030485Y1721450D03*
X2013985Y1728050D03*
X2032885Y1723650D03*
X2029285Y1717650D03*
X2031585Y1715050D03*
X2016285Y1714050D03*
X2025285Y1713550D03*
Y1708650D03*
X2025885Y1722950D03*
X2030885Y1726850D03*
X2032585Y1719350D03*
X2038785Y1727950D03*
X2038085Y1709850D03*
X2037285Y1720650D03*
X2040085Y1718950D03*
X2035285Y1717050D03*
X2034585Y1727950D03*
X2034485Y1709150D03*
X1989185Y1730850D03*
X1986685Y1735850D03*
X1978985Y1737750D03*
X1985985Y1747650D03*
X1986985Y1745450D03*
X1985985Y1729950D03*
X1978685Y1728550D03*
X1986685Y1738350D03*
X2005185Y1730050D03*
X2000685Y1738350D03*
X2003185Y1732350D03*
X1997785Y1735850D03*
X2014885Y1734450D03*
X2021385Y1735350D03*
X2018285Y1741350D03*
Y1745150D03*
X2026685Y1733650D03*
X2021285Y1742450D03*
X2015185Y1730550D03*
X2030585Y1735450D03*
X2017885Y1735250D03*
X2024385Y1734350D03*
X2031285Y1731150D03*
X2034285Y1736850D03*
X2037985Y1747050D03*
X1981385Y1761450D03*
X1977785Y1765850D03*
X1979385Y1748850D03*
X1988985Y1758650D03*
X1984285Y1758750D03*
X1977785Y1750450D03*
X2011185Y1753750D03*
X2005585Y1759050D03*
X2000385Y1761950D03*
X2002985Y1764350D03*
X2003085Y1759150D03*
X2008085Y1759050D03*
X2010585D03*
X1997785Y1759250D03*
X2010485Y1761750D03*
X2005485Y1764250D03*
X2008085D03*
X2000485Y1759250D03*
X1997685Y1767450D03*
X2007985Y1767150D03*
X2005385Y1767250D03*
X2000385Y1767450D03*
X2002885Y1767350D03*
X2010485Y1767050D03*
X1993385Y1755950D03*
X1997685Y1761950D03*
X2010585Y1764250D03*
X1997685Y1764450D03*
X2005485Y1761850D03*
X2008085D03*
X2000385Y1764450D03*
X2002985Y1761850D03*
X2021985Y1752550D03*
X2021885Y1754850D03*
X2031785Y1753750D03*
X2015585Y1767450D03*
X2037185Y1759550D03*
X2033685Y1764250D03*
X2033485Y1757250D03*
X2033585Y1760650D03*
X2037585Y1749750D03*
X2038385Y1765850D03*
X2037885Y1768050D03*
X1988885Y1772450D03*
X1981885Y1786750D03*
X1987285Y1775550D03*
X1990985Y1787950D03*
X1982085Y1780850D03*
X1982285Y1777950D03*
X1991785Y1768550D03*
X1985685Y1786050D03*
X1984685Y1779350D03*
X1984385Y1775750D03*
X1997685Y1770450D03*
X2000885Y1785750D03*
X2002985Y1782850D03*
X1999385Y1780550D03*
X2006285Y1783450D03*
X2010485Y1770350D03*
X1994185Y1777350D03*
X1998485Y1787850D03*
X2006285Y1785850D03*
X2006185Y1777650D03*
X2000385Y1770450D03*
X2002885Y1770350D03*
X2003485Y1786450D03*
X2012285Y1785250D03*
X2007985Y1770350D03*
X2005485D03*
X1996185Y1780350D03*
X2031585Y1781950D03*
X2032685Y1785550D03*
X2029385Y1771250D03*
Y1773450D03*
X2029685Y1784850D03*
X2015585Y1779350D03*
X2028985Y1782150D03*
X2027385Y1786550D03*
X2031985Y1770450D03*
X2033465Y1783465D03*
X2035485Y1786350D03*
X2034185Y1769450D03*
X2037985Y1771350D03*
X2041285Y1787250D03*
X2038385Y1779950D03*
X2040885Y1779150D03*
X2036585Y1778650D03*
X1987585Y1806350D03*
X1990385Y1804650D03*
X1981585Y1789450D03*
X1980385Y1799350D03*
X1987885Y1791650D03*
X1984785Y1790650D03*
X1985385Y1794250D03*
X1983285Y1796350D03*
X1980385Y1796850D03*
X1987085Y1788150D03*
X1988885Y1799150D03*
X1986185Y1801750D03*
X1991285Y1795150D03*
X1983885Y1806550D03*
X1983858Y1788189D03*
X2012992Y1798031D03*
X2005118Y1805512D03*
Y1801575D03*
X2012285Y1794550D03*
X2001385Y1789350D03*
X2012285Y1788650D03*
X2012485Y1791350D03*
X1996685Y1790950D03*
X2006385Y1788750D03*
X2002685Y1798550D03*
X2005118Y1798819D03*
X1993885Y1793950D03*
X1997085Y1794450D03*
X2005785Y1795150D03*
X2001185Y1794950D03*
X2031385Y1790050D03*
X2013386Y1806299D03*
Y1801575D03*
X2031285Y1804350D03*
Y1807850D03*
X2014785Y1789150D03*
X2015985Y1794350D03*
X2021485Y1795450D03*
X2027685Y1801250D03*
X2031785Y1795750D03*
X2029985Y1788550D03*
X2027785Y1804750D03*
X2018385Y1792850D03*
X2015985Y1791350D03*
X2033485Y1788250D03*
X2035685Y1790250D03*
X2041285Y1798150D03*
X2038585Y1799950D03*
X2034385Y1798350D03*
X2039585Y1806950D03*
X2034985Y1807250D03*
X2038185Y1788150D03*
X2036985Y1796350D03*
X1984485Y1815750D03*
X1982185Y1809350D03*
X1989785Y1815950D03*
X1986285Y1810050D03*
X1979785Y1816050D03*
X2005118Y1814961D03*
Y1809449D03*
X2013386Y1814961D03*
Y1810236D03*
X2031285Y1811450D03*
X2031085Y1816150D03*
X2027585Y1815150D03*
X2027685Y1811750D03*
X2027785Y1808150D03*
X2039385Y1810250D03*
X2034685D03*
X2039885Y1816250D03*
X2034285Y1816150D03*
G54D31*
X1968504Y1818898D02*
Y1696850D01*
X2049606*
Y1818898*
X1968504*
Y1696850D02*
X2049606D01*
Y1818898*
X1968504*
Y1696850*
X2049606D02*
X2130709D01*
Y1818898*
X2049606*
Y1696850*
X2130709D02*
X2211811D01*
Y1818898*
X2130709*
Y1696850*
X2211811D02*
X2292913D01*
Y1818898*
X2211811*
Y1696850*
X2292913D02*
X2374016D01*
Y1818898*
X2292913*
Y1696850*
X2049606D02*
X1968504D01*
Y1574803*
X2049606*
Y1696850*
Y1574803D02*
X2130709D01*
Y1696850*
X2049606*
Y1574803*
X2211811Y1696850D02*
X2130709D01*
Y1574803*
X2211811*
Y1696850*
X2292913D02*
X2211811D01*
Y1574803*
X2292913*
Y1696850*
X2374016D02*
X2292913D01*
Y1574803*
X2374016*
Y1696850*
X1968504Y1818898D02*
X1952756D01*
Y1574803*
X1968504*
X2374016Y1818898D02*
X2389764D01*
Y1574803*
X2374016*
X1964567Y1594488D02*
G75*
G03X1964567I-3937J0D01*
G01Y1799213D02*
G03X1964567I-3937J0D01*
G01X2385827D02*
G03X2385827I-3937J0D01*
G01Y1594488D02*
G03X2385827I-3937J0D01*
G54D35*
G01X2092555Y1767249D02*
X2088976Y1754331D01*
X2092555Y1767249D02*
X2096135Y1754331D01*
X2090319Y1758637D02*
X2094792D01*
X2177201Y1766462D02*
X2173622Y1753543D01*
X2177201Y1766462D02*
X2180780Y1753543D01*
X2174964Y1757849D02*
X2179438D01*
X2254760Y1766462D02*
X2251181Y1753543D01*
X2254760Y1766462D02*
X2258339Y1753543D01*
X2252523Y1757849D02*
X2256997D01*
X2333500Y1765674D02*
X2329921Y1752756D01*
X2333500Y1765674D02*
X2337079Y1752756D01*
X2331263Y1757062D02*
X2335737D01*
X2012956Y1631176D02*
X2016535Y1644094D01*
X2012956Y1631176D02*
X2009377Y1644094D01*
X2015193Y1639788D02*
X2010719D01*
X2091303Y1631176D02*
X2094882Y1644094D01*
X2091303Y1631176D02*
X2087724Y1644094D01*
X2093540Y1639788D02*
X2089066D01*
X2173586Y1631570D02*
X2177165Y1644488D01*
X2173586Y1631570D02*
X2170007Y1644488D01*
X2175823Y1640182D02*
X2171349D01*
X2253114Y1631964D02*
X2256693Y1644882D01*
X2253114Y1631964D02*
X2249535Y1644882D01*
X2255351Y1640576D02*
X2250877D01*
X2333429Y1632357D02*
X2337008Y1645276D01*
X2333429Y1632357D02*
X2329850Y1645276D01*
X2335666Y1640969D02*
X2331192D01*
G54D56*
X1993385Y1755950D02*
X1997340D01*
X1997385Y1755905*
X1991785Y1768550D02*
X1991932Y1768503D01*
X1994629*
X2009185Y1781243D02*
X2009196Y1781232D01*
Y1775196*
X2009185Y1784715D02*
Y1781243D01*
Y1792250D02*
Y1808031D01*
X2009225Y1808071*
X2009185Y1788715D02*
Y1792250D01*
Y1792126*
X2048406Y1717551D02*
Y1729150D01*
G03X2047434Y1729621I-600J0*
G01X2039774Y1732747D02*
G03X2047434Y1729621I4714J603D01*
G01X2039774Y1732747D02*
G03X2039733Y1732899I-595J-76D01*
G01X2038407Y1736114*
G03X2038277Y1736309I-555J-229*
G01X2036111Y1738475*
G03X2035687Y1738650I-424J-425*
G01X2026185*
X2024559Y1739324D02*
G03X2026185Y1738650I1626J1626D01*
G01X2024559Y1739324D02*
X2018527Y1745356D01*
G03X2017548Y1745161I-425J-424*
G01X2017521Y1745100D02*
G03X2017548Y1745161I-1636J750D01*
G01X2017521Y1745100D02*
G03Y1744600I546J-250D01*
G01X2017685Y1743850D02*
G03X2017521Y1744600I-1800J0D01*
G01X2017685Y1743850D02*
Y1741850D01*
X2017310Y1740751D02*
G03X2017685Y1741850I-1425J1099D01*
G01X2017310Y1740751D02*
G03X2017185Y1740384I475J-367D01*
G01Y1736239*
G03X2017192Y1736151I600J-0*
G01X2017301Y1735413*
G03X2017328Y1735303I593J88*
G01X2014317Y1731926D02*
G03X2017328Y1735303I568J2524D01*
G01X2014317Y1731926D02*
G03X2013585Y1731341I-132J-585D01*
G01Y1723652*
G03X2014609Y1723227I600J-0*
G01X2015359Y1723977*
X2015480Y1724090D02*
G03X2015359Y1723977I1505J-1740D01*
G01X2015480Y1724090D02*
G03X2015632Y1724290I-392J453D01*
G01X2015760Y1724521D02*
G03X2015632Y1724290I1504J-990D01*
G01X2015760Y1724521D02*
G03Y1725180I-501J329D01*
G01X2015464Y1726169D02*
G03X2015760Y1725180I1800J0D01*
G01X2015464Y1726169D02*
Y1728531D01*
X2017264Y1730332D02*
G03X2015464Y1728531I-0J-1801D01*
G01X2017264Y1730332D02*
X2023285D01*
G03X2023885Y1730932I0J600*
G01Y1732350*
X2024054Y1733112D02*
G03X2023885Y1732350I1631J-762D01*
G01X2024054Y1733112D02*
G03X2024108Y1733419I-544J254D01*
G01X2029262D02*
G03X2024108I-2577J231D01*
G01X2029262D02*
G03X2029316Y1733112I598J-53D01*
G01X2029485Y1732350D02*
G03X2029316Y1733112I-1800J0D01*
G01X2029485Y1732350D02*
Y1730350D01*
X2029321Y1729600D02*
G03X2029485Y1730350I-1636J750D01*
G01X2029321Y1729600D02*
G03Y1729100I546J-250D01*
G01X2029485Y1728350D02*
G03X2029321Y1729100I-1800J0D01*
G01X2029485Y1728350D02*
Y1726350D01*
X2027685Y1724550D02*
G03X2029485Y1726350I0J1800D01*
G01X2027685Y1724550D02*
X2025729D01*
G03X2025139Y1723846I0J-600*
G01X2025166Y1723531D02*
G03X2025139Y1723846I-1800J0D01*
G01X2025166Y1723531D02*
Y1721169D01*
X2024870Y1720180D02*
G03X2025166Y1721169I-1504J989D01*
G01X2024870Y1720180D02*
G03Y1719521I501J-330D01*
G01X2025166Y1718531D02*
G03X2024870Y1719521I-1800J0D01*
G01X2025166Y1718531D02*
Y1716169D01*
X2023366Y1714369D02*
G03X2025166Y1716169I0J1800D01*
G01X2023366Y1714369D02*
X2023215D01*
G03X2022615Y1713769I-0J-600*
G01Y1713504*
G03X2022738Y1713140I600J-0*
G01X2023105Y1712050D02*
G03X2022737Y1713140I-1800J0D01*
G01X2023105Y1712050D02*
Y1710050D01*
X2023002Y1709450D02*
G03X2023105Y1710050I-1697J600D01*
G01X2023002Y1709450D02*
G03Y1709050I566J-200D01*
G01X2023105Y1708450D02*
G03X2023002Y1709050I-1800J0D01*
G01X2023105Y1708450D02*
Y1706450D01*
X2021305Y1704650D02*
G03X2023105Y1706450I0J1800D01*
G01X2021305Y1704650D02*
X2019305D01*
X2018555Y1704814D02*
G03X2019305Y1704650I750J1636D01*
G01X2018555Y1704814D02*
G03X2018055I-250J-545D01*
G01X2017305Y1704650D02*
G03X2018055Y1704814I0J1800D01*
G01X2017305Y1704650D02*
X2015305D01*
X2014505Y1704838D02*
G03X2015305Y1704650I800J1612D01*
G01X2014505Y1704838D02*
G03X2014238Y1704900I-267J-538D01*
G01X2014238D02*
X2013885D01*
X2012082Y1705647D02*
G03X2013885Y1704900I1803J1803D01*
G01X2012082Y1705647D02*
X2003380Y1714349D01*
G03X2002744Y1714486I-424J-424*
G01X2002106Y1714369D02*
G03X2002744Y1714486I0J1800D01*
G01X2002106Y1714369D02*
X1996004D01*
X1994975Y1714693D02*
G03X1996004Y1714369I1029J1476D01*
G01X1994975Y1714693D02*
G03X1994632Y1714800I-343J-493D01*
G01X1993872*
G03X1993780Y1714793I-0J-600*
G01X1992782Y1714834D02*
G03X1993780Y1714793I603J2516D01*
G01X1992782Y1714834D02*
G03X1992067Y1714081I-139J-583D01*
G01X1988732Y1710908D02*
G03X1992067Y1714081I853J2442D01*
G01X1988732Y1710907D02*
G03X1988623Y1710935I-197J-566D01*
G01X1987885Y1711044*
X1987885D02*
G03X1987797Y1711050I-88J-594D01*
G01X1980106*
G03X1979876Y1711004I0J-600*
G01X1976665Y1709669*
G03X1976529Y1709590I231J-554*
G01X1970676Y1709621D02*
G03X1976529Y1709590I2946J3729D01*
G01X1970676Y1709621D02*
G03X1969704Y1709150I-372J-471D01*
G01Y1698650*
G03X1970304Y1698050I600J0*
G01X2041926*
G03X2042213Y1699177I0J600*
G01X2042791Y1707790D02*
G03X2042213Y1699177I1697J-4440D01*
G01X2042791Y1707790D02*
G03Y1708911I-214J560D01*
G01X2047434Y1717080D02*
G03X2042791Y1708911I-2946J-3730D01*
G01X2047434Y1717080D02*
G03X2048406Y1717551I372J471D01*
G01X2042791Y1777790D02*
G03Y1778911I-214J560D01*
G01X2041582Y1779590D02*
G03X2042791Y1778911I2906J3760D01*
G01X2041582Y1779590D02*
G03X2041445Y1779669I-367J-475D01*
G01X2038292Y1780980*
G03X2037638Y1780850I-230J-554*
G01X2034411Y1777624*
X2033182Y1776985D02*
G03X2034411Y1777624I-397J2265D01*
G01X2033182Y1776985D02*
G03X2032685Y1776394I103J-591D01*
G01Y1775650*
X2030885Y1773850D02*
G03X2032685Y1775650I0J1800D01*
G01X2030885Y1773850D02*
X2028885D01*
X2027785Y1774225D02*
G03X2028885Y1773850I1100J1425D01*
G01X2027785Y1774225D02*
G03X2027419Y1774350I-366J-475D01*
G01X2026077*
G03X2025479Y1773700I-0J-600*
G01X2025485Y1773550D02*
G03X2025479Y1773700I-1800J0D01*
G01X2025485Y1773550D02*
Y1771550D01*
X2025331Y1770822D02*
G03X2025485Y1771550I-1646J728D01*
G01X2025331Y1770822D02*
G03X2025573Y1770063I549J-243D01*
G01X2026454Y1768516D02*
G03X2025573Y1770063I-1800J-0D01*
G01X2026454Y1768516D02*
Y1764896D01*
G03X2026688Y1764420I600J-0*
G01X2027091Y1764022D02*
G03X2026688Y1764420I-1806J-1424D01*
G01X2027091Y1764022D02*
G03X2027138Y1763969I471J371D01*
G01X2027702Y1763405*
G03X2028126Y1763229I424J424*
G01X2030559*
X2032359Y1761429D02*
G03X2030559Y1763229I-1800J0D01*
G01X2032359Y1761429D02*
Y1757098D01*
X2031431Y1755524D02*
G03X2032359Y1757098I-872J1574D01*
G01X2031431Y1755524D02*
G03X2031195Y1754712I291J-525D01*
G01X2031415Y1753850D02*
G03X2031195Y1754712I-1800J0D01*
G01X2031415Y1753850D02*
Y1751850D01*
X2029615Y1750050D02*
G03X2031415Y1751850I0J1800D01*
G01X2029615Y1750050D02*
X2027615D01*
X2025815Y1751850D02*
G03X2027615Y1750050I1800J0D01*
G01X2025815Y1751850D02*
Y1753850D01*
X2026026Y1754697D02*
G03X2025815Y1753850I1589J-847D01*
G01X2026026Y1754697D02*
G03X2025778Y1755509I-529J282D01*
G01X2024822Y1757098D02*
G03X2025778Y1755509I1800J0D01*
G01X2024822Y1757098D02*
Y1759531D01*
G03X2024646Y1759955I-600J0*
G01X2024480Y1760122*
G03X2024055Y1760298I-425J-424*
G01X2020229*
G03X2019636Y1759605I0J-600*
G01X2019664Y1759250D02*
G03X2019636Y1759605I-2300J0D01*
G01X2019664Y1759250D02*
Y1754152D01*
G03X2019840Y1753727I600J-0*
G01X2027741Y1745826*
G03X2028165Y1745650I424J424*
G01X2038004*
G03X2038234Y1745696I-0J600*
G01X2041445Y1747031*
G03X2041582Y1747111I-230J554*
G01X2042791Y1747790D02*
G03X2041582Y1747111I1697J-4440D01*
G01X2042791Y1747790D02*
G03Y1748911I-214J560D01*
G01Y1757790D02*
G03Y1748911I1697J-4440D01*
G01Y1757790D02*
G03Y1758911I-214J560D01*
G01Y1767790D02*
G03Y1758911I1697J-4440D01*
G01Y1767790D02*
G03Y1768911I-214J560D01*
G01Y1777790D02*
G03Y1768911I1697J-4440D01*
G01X2048406Y1807551D02*
Y1817098D01*
G03X2047806Y1817698I-600J-0*
G01X2012375*
G03X2011775Y1817098I0J-600*
G01Y1798623*
X2011633Y1797921D02*
G03X2011775Y1798623I-1658J702D01*
G01X2011633Y1797921D02*
G03X2011585Y1797687I552J-234D01*
G01Y1794453*
G03X2011685Y1794121I600J0*
G01X2011985Y1793126D02*
G03X2011685Y1794121I-1800J0D01*
G01X2011985Y1793126D02*
Y1791126D01*
X2011906Y1790597D02*
G03X2011985Y1791126I-1721J529D01*
G01X2011906Y1790597D02*
G03Y1790245I573J-176D01*
G01X2011985Y1789715D02*
G03X2011906Y1790245I-1800J0D01*
G01X2011985Y1789715D02*
Y1787715D01*
X2011821Y1786965D02*
G03X2011985Y1787715I-1636J750D01*
G01X2011821Y1786965D02*
G03Y1786465I546J-250D01*
G01X2011985Y1785715D02*
G03X2011821Y1786465I-1800J0D01*
G01X2011985Y1785715D02*
Y1783715D01*
X2011898Y1783163D02*
G03X2011985Y1783715I-1713J552D01*
G01X2011898Y1783163D02*
G03Y1782795I571J-184D01*
G01X2011985Y1782243D02*
G03X2011898Y1782795I-1800J0D01*
G01X2011985Y1782243D02*
Y1780550D01*
G03X2012585Y1779950I600J0*
G01X2012632*
G03X2013188Y1780325I0J600*
G01X2014743Y1781797D02*
G03X2013188Y1780325I842J-2447D01*
G01X2014743Y1781797D02*
G03X2014972Y1781940I-195J567D01*
G01X2015359Y1782327*
G03X2015535Y1782752I-424J425*
G01Y1784450*
X2017335Y1786250D02*
G03X2015535Y1784450I0J-1800D01*
G01X2017335Y1786250D02*
X2020535D01*
X2022335Y1784450D02*
G03X2020535Y1786250I-1800J0D01*
G01X2022335Y1784450D02*
Y1782150D01*
G03X2022935Y1781550I600J0*
G01X2031584*
G03X2032008Y1781726I-0J600*
G01X2035259Y1784977*
X2036885Y1785650D02*
G03X2035259Y1784977I0J-2300D01*
G01X2036885Y1785650D02*
X2038004D01*
G03X2038234Y1785696I-0J600*
G01X2041445Y1787031*
G03X2041582Y1787111I-230J554*
G01X2042791Y1787790D02*
G03X2041582Y1787111I1697J-4440D01*
G01X2042791Y1787790D02*
G03Y1788911I-214J560D01*
G01Y1797790D02*
G03Y1788911I1697J-4440D01*
G01Y1797790D02*
G03Y1798911I-214J560D01*
G01X2047434Y1807080D02*
G03X2042791Y1798911I-2946J-3730D01*
G01X2047434Y1807080D02*
G03X2048406Y1807551I372J471D01*
G01X2010680Y1769287D02*
G03Y1769688I-565J200D01*
G01X2010654Y1771177D02*
G03X2010681Y1769688I2243J-705D01*
G01X2010654Y1771177D02*
G03X2009902Y1771930I-572J180D01*
G01X2008412Y1771956D02*
G03X2009902Y1771930I784J2216D01*
G01X2008412Y1771956D02*
G03X2008012I-200J-566D01*
G01X2006444D02*
G03X2008012I784J2216D01*
G01X2006444D02*
G03X2006043I-200J-566D01*
G01X2004475D02*
G03X2006043I784J2216D01*
G01X2004475D02*
G03X2004075I-200J-566D01*
G01X2002507D02*
G03X2004075I784J2216D01*
G01X2002507D02*
G03X2002106I-200J-566D01*
G01X2000538D02*
G03X2002106I784J2216D01*
G01X2000538D02*
G03X2000138I-200J-566D01*
G01X1998648Y1771930D02*
G03X2000138Y1771956I706J2242D01*
G01X1998648Y1771930D02*
G03X1997896Y1771177I-180J-573D01*
G01X1997870Y1769688D02*
G03X1997896Y1771177I-2217J784D01*
G01X1997870Y1769688D02*
G03Y1769287I565J-201D01*
G01Y1767719D02*
G03Y1769287I-2217J784D01*
G01Y1767719D02*
G03Y1767319I565J-200D01*
G01Y1765751D02*
G03Y1767319I-2217J784D01*
G01Y1765750D02*
G03Y1765350I565J-200D01*
G01Y1763782D02*
G03Y1765350I-2217J784D01*
G01Y1763782D02*
G03Y1763382I565J-200D01*
G01Y1761813D02*
G03Y1763382I-2217J785D01*
G01Y1761813D02*
G03Y1761413I565J-200D01*
G01X1997896Y1759924D02*
G03X1997870Y1761413I-2243J705D01*
G01X1997896Y1759924D02*
G03X1998648Y1759171I572J-180D01*
G01X2000138Y1759145D02*
G03X1998648Y1759171I-784J-2217D01*
G01X2000138Y1759145D02*
G03X2000538I200J566D01*
G01X2002106D02*
G03X2000538I-784J-2217D01*
G01X2002106D02*
G03X2002507I201J566D01*
G01X2004075D02*
G03X2002507I-784J-2217D01*
G01X2004075D02*
G03X2004475I200J566D01*
G01X2006043D02*
G03X2004475I-784J-2217D01*
G01X2006043D02*
G03X2006444I201J566D01*
G01X2008012D02*
G03X2006444I-784J-2217D01*
G01X2008012D02*
G03X2008412I200J566D01*
G01X2009902Y1759171D02*
G03X2008412Y1759145I-706J-2243D01*
G01X2009902Y1759171D02*
G03X2010654Y1759924I180J573D01*
G01X2010681Y1761413D02*
G03X2010654Y1759924I2216J-784D01*
G01X2010680Y1761413D02*
G03Y1761813I-565J200D01*
G01X2010681Y1763382D02*
G03Y1761813I2216J-784D01*
G01X2010680Y1763382D02*
G03Y1763782I-565J200D01*
G01X2010681Y1765350D02*
G03Y1763782I2216J-784D01*
G01X2010680Y1765350D02*
G03Y1765750I-565J200D01*
G01X2010681Y1767319D02*
G03Y1765751I2216J-784D01*
G01X2010680Y1767319D02*
G03Y1767719I-565J200D01*
G01X2010681Y1769287D02*
G03Y1767719I2216J-784D01*
G01X2006785Y1794453D02*
Y1797904D01*
G03X2006758Y1798084I-600J0*
G01X2006675Y1798623D02*
G03X2006758Y1798084I1800J-0D01*
G01X2006675Y1798623D02*
Y1817098D01*
G03X2006075Y1817698I-600J-0*
G01X1977444*
G03X1977016Y1816678I0J-600*
G01X1978336Y1813954D02*
G03X1977016Y1816678I-4714J-604D01*
G01X1978336Y1813954D02*
G03X1978377Y1813801I595J76D01*
G01X1979703Y1810587*
G03X1979834Y1810392I555J229*
G01X1982011Y1808214*
X1982685Y1806587D02*
G03X1982011Y1808214I-2300J0D01*
G01X1982685Y1806587D02*
Y1803689D01*
G03X1982861Y1803265I600J-0*
G01X2002949Y1783177*
X2003622Y1781550D02*
G03X2002949Y1783177I-2300J0D01*
G01X2003622Y1781550D02*
Y1780210D01*
G03X2004504Y1779681I600J0*
G01X2004667Y1779759D02*
G03X2004504Y1779681I918J-2109D01*
G01X2004667Y1779759D02*
G03X2004758Y1779809I-240J550D01*
G01X2005860Y1780217D02*
G03X2004758Y1779809I325J-2567D01*
G01X2005860Y1780217D02*
G03X2006385Y1780813I-75J596D01*
G01Y1782243*
X2006472Y1782795D02*
G03X2006385Y1782243I1713J-552D01*
G01X2006472Y1782795D02*
G03Y1783163I-571J184D01*
G01X2006385Y1783715D02*
G03X2006472Y1783163I1800J0D01*
G01X2006385Y1783715D02*
Y1785715D01*
X2006549Y1786465D02*
G03X2006385Y1785715I1636J-750D01*
G01X2006549Y1786465D02*
G03Y1786965I-546J250D01*
G01X2006385Y1787715D02*
G03X2006549Y1786965I1800J0D01*
G01X2006385Y1787715D02*
Y1789715D01*
X2006465Y1790245D02*
G03X2006385Y1789715I1720J-530D01*
G01X2006465Y1790245D02*
G03Y1790597I-574J176D01*
G01X2006385Y1791126D02*
G03X2006465Y1790597I1800J0D01*
G01X2006385Y1791126D02*
Y1793126D01*
X2006685Y1794121D02*
G03X2006385Y1793126I1500J-995D01*
G01X2006685Y1794121D02*
G03X2006785Y1794453I-500J332D01*
G01X1990188Y1715867D02*
G03X1990903Y1716620I139J583D01*
G01X1990809Y1717107D02*
G03X1990903Y1716620I2576J243D01*
G01X1990809Y1717107D02*
G03X1990212Y1717650I-597J-57D01*
G01X1978183*
G03X1977952Y1716496I-0J-600*
G01X1979876Y1715696*
G03X1980106Y1715650I230J554*
G01X1987797*
G03X1987884Y1715657I-0J600*
G01X1988623Y1715766*
G03X1988732Y1715793I-88J594*
G01X1990188Y1715867D02*
G03X1988732Y1715793I-603J-2517D01*
G01X1986568Y1724141D02*
G03X1986623Y1724489I-539J264D01*
G01X1986618Y1724526D02*
G03X1986623Y1724489I2567J324D01*
G01X1986618Y1724526D02*
G03X1986023Y1725050I-595J-76D01*
G01X1984385*
X1982759Y1725724D02*
G03X1984385Y1725050I1626J1626D01*
G01X1982759Y1725724D02*
X1978148Y1730335D01*
G03X1977264Y1730296I-425J-424*
G01X1975319Y1728911D02*
G03X1977264Y1730296I-1697J4439D01*
G01X1975319Y1728911D02*
G03Y1727790I214J-561D01*
G01X1978354Y1722906D02*
G03X1975319Y1727790I-4732J444D01*
G01X1978354Y1722906D02*
G03X1978951Y1722250I597J-56D01*
G01X1985785*
G03X1986385Y1722850I0J600*
G01Y1723350*
X1986568Y1724141D02*
G03X1986385Y1723350I1617J-791D01*
G01X1986885Y1732639D02*
Y1732688D01*
G03X1986360Y1733283I-600J0*
G01X1985531Y1733535D02*
G03X1986360Y1733283I1154J2315D01*
G01X1985531Y1733535D02*
G03X1985371Y1733588I-268J-537D01*
G01X1984159Y1734224D02*
G03X1985371Y1733588I1626J1626D01*
G01X1984159Y1734224D02*
X1978102Y1740281D01*
G03X1977223Y1740248I-425J-424*
G01X1975319Y1738911D02*
G03X1977223Y1740248I-1697J4439D01*
G01X1975319Y1738911D02*
G03Y1737790I214J-561D01*
G01X1977617Y1735925D02*
G03X1975319Y1737790I-3995J-2575D01*
G01X1977617Y1735925D02*
G03X1978121Y1735650I504J325D01*
G01X1978385*
X1980011Y1734977D02*
G03X1978385Y1735650I-1626J-1627D01*
G01X1980011Y1734977D02*
X1985162Y1729826D01*
G03X1985586Y1729650I424J424*
G01X1986055*
G03X1986644Y1730363I-0J600*
G01X1986742Y1731703D02*
G03X1986644Y1730363I2443J-853D01*
G01X1986742Y1731703D02*
G03X1986769Y1731813I-566J198D01*
G01X1986879Y1732551*
G03X1986885Y1732639I-594J88*
G01Y1742852D02*
Y1746586D01*
G03X1986709Y1747010I-600J0*
G01X1979368Y1754352*
G03X1978347Y1753863I-424J-424*
G01X1977803Y1751091D02*
G03X1978347Y1753863I-4181J2259D01*
G01X1977803Y1751091D02*
G03X1977907Y1750381I528J-285D01*
G01X1985861Y1742427*
G03X1986885Y1742852I424J425*
G01X1990383Y1787979D02*
G03X1990640Y1788980I-167J576D01*
G01X1978759Y1800861*
X1978653Y1800974D02*
G03X1978759Y1800861I1732J1514D01*
G01X1978653Y1800974D02*
G03X1977688Y1800890I-451J-395D01*
G01X1975319Y1798911D02*
G03X1977688Y1800890I-1697J4439D01*
G01X1975319Y1798911D02*
G03Y1797790I214J-561D01*
G01X1978336Y1793954D02*
G03X1975319Y1797790I-4714J-604D01*
G01X1978336Y1793954D02*
G03X1978377Y1793801I595J76D01*
G01X1979703Y1790587*
G03X1979834Y1790392I555J229*
G01X1981122Y1789103*
X1981796Y1787477D02*
G03X1981122Y1789103I-2300J-0D01*
G01X1981796Y1787477D02*
Y1778462D01*
G03X1981971Y1778038I600J0*
G01X1985981Y1774029*
G03X1986872Y1774076I424J424*
G01X1989167Y1775022D02*
G03X1986872Y1774076I-282J-2572D01*
G01X1989167Y1775022D02*
G03X1989508Y1776152I65J597D01*
G01X1988535Y1777750D02*
G03X1989508Y1776152I1800J0D01*
G01X1988535Y1777750D02*
Y1781350D01*
X1988948Y1782497D02*
G03X1988535Y1781350I1387J-1147D01*
G01X1988948Y1782497D02*
G03X1989085Y1782879I-463J382D01*
G01Y1784250*
Y1786250*
X1990383Y1787979D02*
G03X1989085Y1786250I502J-1729D01*
G01X2029485Y1728289D02*
X2048406D01*
X2029485Y1727209D02*
X2048406D01*
X2029471Y1726129D02*
X2048406D01*
X2028929Y1725049D02*
X2048406D01*
X2025130Y1723969D02*
X2048406D01*
X2025166Y1722889D02*
X2048406D01*
X2025166Y1721809D02*
X2048406D01*
X2025112Y1720729D02*
X2048406D01*
X2024806Y1719649D02*
X2048406D01*
X2025166Y1718569D02*
X2048406D01*
X2046825Y1717489D02*
X2048403D01*
X2047084Y1729369D02*
X2048365D01*
X2023060Y1708849D02*
X2042911D01*
X2023105Y1707769D02*
X2042738D01*
X1969704Y1699129D02*
X2042288D01*
X2025166Y1717489D02*
X2042151D01*
X2029267Y1729369D02*
X2041892D01*
X2023101Y1709929D02*
X2041189D01*
X2023105Y1706689D02*
X2041105D01*
X1969704Y1700209D02*
X2040921D01*
X2025166Y1716409D02*
X2040850D01*
X2029485Y1730449D02*
X2040724D01*
X2023105Y1711009D02*
X2040352D01*
X2022896Y1705609D02*
X2040306D01*
X1969704Y1701289D02*
X2040206D01*
X2024958Y1715329D02*
X2040167D01*
X2029485Y1731529D02*
X2040098D01*
X2023105Y1712089D02*
X2039906D01*
X1969704Y1704529D02*
X2039884D01*
X1969704Y1702369D02*
X2039838D01*
X2022855Y1714249D02*
X2039821D01*
X2029466Y1732609D02*
X2039794D01*
X2022717Y1713169D02*
X2039739D01*
X1969704Y1703449D02*
X2039736D01*
X2029272Y1733689D02*
X2039408D01*
X2029018Y1734769D02*
X2038962D01*
X2028049Y1735849D02*
X2038516D01*
X2017185Y1736929D02*
X2037657D01*
X2017185Y1738009D02*
X2036577D01*
X2017236Y1735849D02*
X2025321D01*
X2017185Y1739089D02*
X2024834D01*
X2017453Y1734769D02*
X2024352D01*
X2017358Y1733689D02*
X2024098D01*
X2016703Y1732609D02*
X2023904D01*
X2013615Y1731529D02*
X2023885D01*
X2017185Y1740169D02*
X2023714D01*
X2013585Y1730449D02*
X2023642D01*
X2017582Y1741249D02*
X2022634D01*
X2017685Y1742329D02*
X2021554D01*
X2017685Y1743409D02*
X2020474D01*
X2017568Y1744489D02*
X2019394D01*
X2013585Y1725049D02*
X2015825D01*
X2013585Y1729369D02*
X2015671D01*
X2013585Y1726129D02*
X2015464D01*
X2013585Y1728289D02*
X2015464D01*
X2013585Y1727209D02*
X2015464D01*
X2013585Y1723969D02*
X2015351D01*
X1969704Y1705609D02*
X2012121D01*
X1969704Y1706689D02*
X2011040D01*
X1969704Y1707769D02*
X2009960D01*
X1975148Y1708849D02*
X2008880D01*
X1977290Y1709929D02*
X2007800D01*
X1990686Y1711009D02*
X2006720D01*
X1991844Y1712089D02*
X2005640D01*
X1992166Y1713169D02*
X2004560D01*
X1992043Y1714249D02*
X2003480D01*
X1979888Y1711009D02*
X1988119D01*
X1969704Y1708849D02*
X1972097D01*
X2026454Y1768329D02*
X2043177D01*
X2032359Y1758609D02*
X2043118D01*
X2034836Y1778049D02*
X2043096D01*
X2024678Y1748889D02*
X2042841D01*
X2025758Y1747809D02*
X2042836D01*
X2035916Y1779129D02*
X2042304D01*
X2032359Y1757529D02*
X2042224D01*
X2026216Y1769409D02*
X2041832D01*
X2026454Y1767249D02*
X2041770D01*
X2032359Y1759689D02*
X2041458D01*
X2033115Y1776969D02*
X2041407D01*
X2023598Y1749969D02*
X2041148D01*
X2032238Y1756449D02*
X2040884D01*
X2026838Y1746729D02*
X2040718D01*
X2025286Y1770489D02*
X2040693D01*
X2026454Y1766169D02*
X2040661D01*
X2032359Y1760769D02*
X2040497D01*
X2032685Y1775889D02*
X2040470D01*
X2031227Y1751049D02*
X2040330D01*
X2031250Y1755369D02*
X2040185D01*
X2036996Y1780209D02*
X2040147D01*
X2025485Y1771569D02*
X2040082D01*
X2026454Y1765089D02*
X2040065D01*
X2032309Y1761849D02*
X2039979D01*
X2032476Y1774809D02*
X2039965D01*
X2031415Y1752129D02*
X2039895D01*
X2031361Y1754289D02*
X2039829D01*
X2025485Y1772649D02*
X2039787D01*
X2027101Y1764009D02*
X2039781D01*
X2031554Y1762929D02*
X2039754D01*
X2025477Y1773729D02*
X2039751D01*
X2031415Y1753209D02*
X2039738D01*
X2022518Y1751049D02*
X2026003D01*
X2019664Y1755369D02*
X2025952D01*
X2019664Y1754289D02*
X2025869D01*
X2020358Y1753209D02*
X2025815D01*
X2021438Y1752129D02*
X2025815D01*
X2019664Y1756449D02*
X2024943D01*
X2019664Y1758609D02*
X2024822D01*
X2019664Y1757529D02*
X2024822D01*
X2019629Y1759689D02*
X2024801D01*
X2011775Y1816669D02*
X2048406D01*
X2011775Y1815589D02*
X2048406D01*
X2011775Y1814509D02*
X2048406D01*
X2011775Y1813429D02*
X2048406D01*
X2011775Y1812349D02*
X2048406D01*
X2011775Y1811269D02*
X2048406D01*
X2011775Y1810189D02*
X2048406D01*
X2011775Y1809109D02*
X2048406D01*
X2045324Y1808029D02*
X2048406D01*
X2011775D02*
X2043652D01*
X2011748Y1798309D02*
X2043176D01*
X2011985Y1788589D02*
X2043128D01*
X2011973Y1787509D02*
X2042187D01*
X2011775Y1799389D02*
X2041862D01*
X2011585Y1797229D02*
X2041741D01*
X2011985Y1789669D02*
X2041482D01*
X2011775Y1806949D02*
X2041384D01*
X2011775Y1800469D02*
X2040708D01*
X2011585Y1796149D02*
X2040647D01*
X2011945Y1790749D02*
X2040510D01*
X2011775Y1805869D02*
X2040458D01*
X2011775Y1801549D02*
X2040090D01*
X2011585Y1795069D02*
X2040057D01*
X2011838Y1786429D02*
X2039996D01*
X2011985Y1791829D02*
X2039985D01*
X2011775Y1804789D02*
X2039958D01*
X2011775Y1802629D02*
X2039790D01*
X2011765Y1793989D02*
X2039779D01*
X2011985Y1792909D02*
X2039756D01*
X2011775Y1803709D02*
X2039749D01*
X2022095Y1785349D02*
X2035747D01*
X2022335Y1784269D02*
X2034551D01*
X2022335Y1783189D02*
X2033471D01*
X2022336Y1782109D02*
X2032391D01*
X2011985Y1785349D02*
X2015775D01*
X2011985Y1784269D02*
X2015535D01*
X2011906Y1783189D02*
X2015535D01*
X2011985Y1782109D02*
X2015141D01*
X2011985Y1781029D02*
X2013616D01*
X1997836Y1765589D02*
X2010714D01*
X1997855Y1763429D02*
X2010695D01*
X1997880Y1767749D02*
X2010670D01*
X1997915Y1761269D02*
X2010635D01*
X1997936Y1769909D02*
X2010614D01*
X1997947Y1770989D02*
X2010604D01*
X1997963Y1760189D02*
X2010587D01*
X1997981Y1768829D02*
X2010569D01*
X1997991Y1762349D02*
X2010559D01*
X1998000Y1766669D02*
X2010550D01*
X1998004Y1764509D02*
X2010547D01*
X1989236Y1796889D02*
X2006785D01*
X1990316Y1795809D02*
X2006785D01*
X1991396Y1794729D02*
X2006785D01*
X1988156Y1797969D02*
X2006782D01*
X1977326Y1816329D02*
X2006675D01*
X1977979Y1815249D02*
X2006675D01*
X1978304Y1814169D02*
X2006675D01*
X1978671Y1813089D02*
X2006675D01*
X1979116Y1812009D02*
X2006675D01*
X1979562Y1810929D02*
X2006675D01*
X1980376Y1809849D02*
X2006675D01*
X1981456Y1808769D02*
X2006675D01*
X1982404Y1807689D02*
X2006675D01*
X1982685Y1806609D02*
X2006675D01*
X1982685Y1805529D02*
X2006675D01*
X1982685Y1804449D02*
X2006675D01*
X1982777Y1803369D02*
X2006675D01*
X1983836Y1802289D02*
X2006675D01*
X1984916Y1801209D02*
X2006675D01*
X1985996Y1800129D02*
X2006675D01*
X1987076Y1799049D02*
X2006675D01*
X1976932Y1817409D02*
X2006588D01*
X1995716Y1790409D02*
X2006491D01*
X2003221Y1782849D02*
X2006486D01*
X1998956Y1787169D02*
X2006470D01*
X1992476Y1793649D02*
X2006463D01*
X2000036Y1786089D02*
X2006424D01*
X1993556Y1792569D02*
X2006385D01*
X1994636Y1791489D02*
X2006385D01*
X1996796Y1789329D02*
X2006385D01*
X1997876Y1788249D02*
X2006385D01*
X2001116Y1785009D02*
X2006385D01*
X2002196Y1783929D02*
X2006385D01*
X2003612Y1781769D02*
X2006385D01*
X2003622Y1780689D02*
X2006372D01*
X1977676Y1716729D02*
X1990873D01*
X1978255Y1724409D02*
X1986629D01*
X1978375Y1723329D02*
X1986385D01*
X1977866Y1725489D02*
X1983034D01*
X1977119Y1726569D02*
X1981914D01*
X1975649Y1727649D02*
X1980834D01*
X1975068Y1728729D02*
X1979754D01*
X1976792Y1729809D02*
X1978674D01*
X1982099Y1732889D02*
X1986850D01*
X1983179Y1731809D02*
X1986769D01*
X1984259Y1730729D02*
X1986600D01*
X1981019Y1733969D02*
X1984462D01*
X1979936Y1735049D02*
X1983334D01*
X1977478Y1736129D02*
X1982254D01*
X1976397Y1737209D02*
X1981174D01*
X1974936Y1738289D02*
X1980094D01*
X1976218Y1739369D02*
X1979014D01*
X1977582Y1740449D02*
X1977773D01*
X1981718Y1746570D02*
X1986885D01*
X1982798Y1745490D02*
X1986885D01*
X1983878Y1744410D02*
X1986885D01*
X1984958Y1743330D02*
X1986885D01*
X1980638Y1747650D02*
X1986069D01*
X1979558Y1748730D02*
X1984989D01*
X1978478Y1749810D02*
X1983909D01*
X1977737Y1750890D02*
X1982829D01*
X1978170Y1751970D02*
X1981749D01*
X1978365Y1753050D02*
X1980669D01*
X1978379Y1754130D02*
X1979589D01*
X1981244Y1788972D02*
X1990648D01*
X1981758Y1787892D02*
X1990146D01*
X1983998Y1776012D02*
X1989686D01*
X1980174Y1790052D02*
X1989568D01*
X1981796Y1786812D02*
X1989175D01*
X1981796Y1785732D02*
X1989085D01*
X1981796Y1784652D02*
X1989085D01*
X1981796Y1783572D02*
X1989085D01*
X1981796Y1782492D02*
X1988943D01*
X1982918Y1777092D02*
X1988660D01*
X1981796Y1781412D02*
X1988536D01*
X1981796Y1780332D02*
X1988535D01*
X1981796Y1779252D02*
X1988535D01*
X1981871Y1778172D02*
X1988535D01*
X1979479Y1791132D02*
X1988488D01*
X1985078Y1774932D02*
X1988151D01*
X1979033Y1792212D02*
X1987408D01*
X1978587Y1793292D02*
X1986328D01*
X1978264Y1794372D02*
X1985248D01*
X1977885Y1795452D02*
X1984168D01*
X1977153Y1796532D02*
X1983088D01*
X1975727Y1797612D02*
X1982008D01*
X1975040Y1798692D02*
X1980928D01*
X1976749Y1799772D02*
X1979848D01*
X1977665Y1800852D02*
X1978768D01*
G54D60*
X1993385Y1717350D02*
X1999055D01*
X2003985*
X2013885Y1707450*
X2016305*
G54D70*
X1973622Y1813350D03*
X2044488Y1773350D03*
Y1803350D03*
X1973622D03*
Y1793350D03*
Y1783350D03*
Y1773350D03*
X2044488Y1703350D03*
Y1713350D03*
X1973622Y1763350D03*
Y1753350D03*
Y1743350D03*
Y1733350D03*
Y1723350D03*
Y1713350D03*
X2044488Y1733350D03*
Y1743350D03*
Y1783350D03*
Y1793350D03*
Y1723350D03*
X1973622Y1703350D03*
X2044488Y1813350D03*
Y1753350D03*
Y1763350D03*
G54D89*
X1991935Y1779550D02*
X1991985D01*
X1994185Y1777350*
X1991885Y1785250D02*
Y1779600D01*
X1991935Y1779550*
G54D130*
X2011165Y1775196D03*
X2009196D03*
X2007228D03*
X2005259D03*
X2003291D03*
X2001322D03*
X1999354D03*
X1997385D03*
Y1755905D03*
X1999354D03*
X2001322D03*
X2003291D03*
X2005259D03*
X2007228D03*
X2009196D03*
X2011165D03*
G54D131*
X1994629Y1772440D03*
Y1770472D03*
Y1768503D03*
Y1766535D03*
Y1764566D03*
Y1762598D03*
Y1760629D03*
Y1758661D03*
X2013921D03*
Y1760629D03*
Y1762598D03*
Y1764566D03*
Y1766535D03*
Y1768503D03*
Y1770472D03*
Y1772440D03*
G54D132*
X2004275Y1765550D03*
G54D133*
X2022685Y1766350D03*
Y1759264D03*
X2028591D03*
Y1766350D03*
G54D134*
X2020315Y1717350D03*
Y1722350D03*
Y1727350D03*
Y1732350D03*
X1999055D03*
Y1727350D03*
Y1722350D03*
Y1717350D03*
G54D136*
X1997414Y1806891D03*
X2021036D03*
G54D149*
X2009225Y1808071D03*
G74*
X0Y0D02*
M02*
