%
T1C.00984F0S0
X197279Y169925
X197579Y169935
X197759Y170935
X197859Y171695
X197899Y169935
X197959Y170735
X198089Y170045
X198179Y170575
X198649Y171695
X198879Y171065
X198959Y171335
X199079Y170835
X199309Y170615
X199339Y171735
X199459Y170955
X199589Y171325
X199779Y170655
X199899Y170925
X199929Y171285
X200229Y170645
X200299Y170965
X200319Y171325
X200629Y171075
X200659Y170695
X201049Y170665
X201629Y171405
X202529Y171355
X202529Y170865
X202589Y172295
X202629Y171605
X202679Y171965
X202839Y171395
X202929Y171765
X203049Y172145
X203159Y171505
X203199Y170605
X203259Y171935
X203289Y172365
X203449Y170915
X203529Y171705
X203679Y170745
X203729Y172065
X203809Y170985
X204009Y171895
X203879Y172795
X203799Y174705
X203459Y172795
X203429Y173685
X203129Y173115
X203089Y172685
X203059Y173545
X202669Y173365
X202439Y173435
X202139Y173535
X202129Y174245
X201829Y174135
X201829Y174515
X201789Y173525
X201519Y173055
X201489Y173445
X201399Y172805
X201369Y172525
X200519Y173005
X200319Y173235
X200069Y173835
X199779Y173585
X198919Y172485
X198919Y173085
X198699Y174545
X198669Y173835
X198669Y173585
X198599Y174765
X198599Y172995
X197939Y174885
X197899Y173775
X197869Y172855
X197859Y172495
X197609Y172805
X197779Y176585
X197779Y175045
X198139Y176145
X198429Y175875
X198889Y177245
X198899Y175865
X199179Y176855
X199339Y175595
X199769Y176745
X199769Y176195
X199769Y176445
X199769Y177045
X199779Y175925
X200039Y176745
X200039Y176195
X200039Y176445
X200039Y177045
X200049Y175925
X200289Y176735
X200289Y177035
X200299Y176185
X200299Y176435
X200309Y175915
X200539Y176725
X200549Y176185
X200549Y176425
X200549Y177035
X200559Y175905
X200799Y176715
X200799Y177035
X200809Y176185
X200809Y176425
X200809Y175905
X201049Y176705
X201049Y177035
X201049Y176175
X201059Y175905
X201059Y176425
X201119Y175375
X201559Y176745
X202189Y175485
X202199Y175255
X202939Y177125
X202939Y177345
X203179Y175375
X203199Y177045
X203349Y175725
X203359Y176065
X203369Y176425
X203419Y176945
X203719Y175955
X203759Y174975
X203789Y176805
X203799Y177135
X203839Y176585
X204129Y178725
X204129Y179815
X204089Y177915
X203839Y177995
X203819Y178815
X203699Y179635
X203659Y177865
X203569Y179025
X203549Y178635
X203439Y179835
X203349Y178825
X203346Y178346
X203269Y178555
X203179Y179575
X203159Y178195
X203139Y179005
X202999Y178855
X202969Y178485
X202899Y178215
X202739Y178655
X202149Y179545
X201839Y179285
X201599Y179435
X201599Y179135
X201559Y177935
X201479Y178915
X201299Y179803
X201249Y179135
X201229Y179455
X201229Y178865
X201229Y178525
X200639Y178875
X200629Y178345
X200629Y178585
X200619Y177765
X200579Y179515
X200512Y179882
X200349Y178645
X200299Y178285
X200269Y179855
X200139Y178935
X200119Y179495
X200089Y178575
X199939Y178055
X199849Y178785
X199709Y179445
X199669Y179095
X199619Y178035
X199419Y177735
X199389Y179395
X199129Y179515
X199099Y178795
X198889Y179915
X198789Y179165
X198729Y177555
X198709Y178815
X198569Y178605
X198539Y179425
X198479Y179065
X198469Y177935
X198439Y177575
X198386Y178819
X198329Y179635
X198229Y177795
X198209Y178085
X198189Y178675
X198159Y178945
X198039Y179685
X197979Y181605
X198039Y179935
X198219Y180935
X198389Y180655
X198449Y181575
X198619Y180175
X198629Y181005
X198759Y180635
X198979Y181595
X199039Y180465
X200512Y180157
X200512Y180551
X200512Y181496
X200512Y180945
X201339Y180157
X201339Y18063
X201339Y181496
X201339Y181024
X202759Y181515
X202769Y180125
X202769Y181175
X202779Y180475
X202779Y180815
X203109Y181615
X203129Y180785
X203129Y181145
X203129Y180435
X203429Y181615
X203469Y181025
X203499Y180725
X203859Y179995
X203939Y181025
X203959Y180695
X203989Y181625
T2C.03543F0S0
X197362Y172335
X197362Y171335
X197362Y170335
X204449Y171335
X204449Y170335
X204449Y172335
X204449Y173335
X204449Y174335
X197362Y174335
X197362Y173335
X197362Y175335
X197362Y177335
X197362Y176335
X204449Y177335
X204449Y175335
X204449Y176335
X204449Y178335
X204449Y179335
X197362Y179335
X197362Y178335
X197362Y180335
X197362Y181335
X204449Y180335
X204449Y181335
M30
