*
*
G04 PADS 9.5 Build Number: 522968 generated Gerber (RS-274-X) file*
G04 PC Version=2.1*
*
%IN "ESP_WROOM_02_1213.pcb"*%
*
%MOIN*%
*
%FSLAX35Y35*%
*
*
*
*
G04 PC Standard Apertures*
*
*
G04 Thermal Relief Aperture macro.*
%AMTER*
1,1,$1,0,0*
1,0,$1-$2,0,0*
21,0,$3,$4,0,0,45*
21,0,$3,$4,0,0,135*
%
*
*
G04 Annular Aperture macro.*
%AMANN*
1,1,$1,0,0*
1,0,$2,0,0*
%
*
*
G04 Odd Aperture macro.*
%AMODD*
1,1,$1,0,0*
1,0,$1-0.005,0,0*
%
*
*
G04 PC Custom Aperture Macros*
*
*
*
*
*
*
G04 PC Aperture Table*
*
%ADD010C,0.001*%
%ADD012C,0.01*%
%ADD031C,0.00394*%
*
*
*
*
G04 PC Circuitry*
G04 Layer Name ESP_WROOM_02_1213.pcb - circuitry*
%LPD*%
*
*
G04 PC Custom Flashes*
G04 Layer Name ESP_WROOM_02_1213.pcb - flashes*
%LPD*%
*
*
G04 PC Circuitry*
G04 Layer Name ESP_WROOM_02_1213.pcb - circuitry*
%LPD*%
*
G54D10*
G54D12*
G01X1964504Y1613780D02*
X1972504D01*
X1968504Y1609780D02*
Y1617780D01*
X1964504Y1607874D02*
X1972504D01*
X1968504Y1603874D02*
Y1611874D01*
X1964504Y1596063D02*
X1972504D01*
X1968504Y1592063D02*
Y1600063D01*
X1964504Y1584252D02*
X1972504D01*
X1968504Y1580252D02*
Y1588252D01*
X2035370Y1619685D02*
X2043370D01*
X2039370Y1615685D02*
Y1623685D01*
X2035370Y1613780D02*
X2043370D01*
X2039370Y1609780D02*
Y1617780D01*
X2035370Y1601969D02*
X2043370D01*
X2039370Y1597969D02*
Y1605969D01*
X2035370Y1625591D02*
X2043370D01*
X2039370Y1621591D02*
Y1629591D01*
X1964504Y1578346D02*
X1972504D01*
X1968504Y1574346D02*
Y1582346D01*
X1964504Y1625591D02*
X1972504D01*
X1968504Y1621591D02*
Y1629591D01*
X1964504Y1601969D02*
X1972504D01*
X1968504Y1597969D02*
Y1605969D01*
X1964504Y1590157D02*
X1972504D01*
X1968504Y1586157D02*
Y1594157D01*
X2035370Y1578346D02*
X2043370D01*
X2039370Y1574346D02*
Y1582346D01*
X1964504Y1619685D02*
X1972504D01*
X1968504Y1615685D02*
Y1623685D01*
X2035370Y1607874D02*
X2043370D01*
X2039370Y1603874D02*
Y1611874D01*
X2035370Y1584252D02*
X2043370D01*
X2039370Y1580252D02*
Y1588252D01*
X2035370Y1590157D02*
X2043370D01*
X2039370Y1586157D02*
Y1594157D01*
X2035370Y1596063D02*
X2043370D01*
X2039370Y1592063D02*
Y1600063D01*
X1970004Y1574411D02*
X1978004Y1582411D01*
X1970004D02*
X1978004Y1574411D01*
X1976704Y1574211D02*
X1984704Y1582211D01*
X1976704D02*
X1984704Y1574211D01*
X1992804Y1574411D02*
X2000804Y1582411D01*
X1992804D02*
X2000804Y1574411D01*
X1984704Y1574211D02*
X1992704Y1582211D01*
X1984704D02*
X1992704Y1574211D01*
X2012304Y1574411D02*
X2020304Y1582411D01*
X2012304D02*
X2020304Y1574411D01*
X2003304Y1574211D02*
X2011304Y1582211D01*
X2003304D02*
X2011304Y1574211D01*
X2020804Y1574411D02*
X2028804Y1582411D01*
X2020804D02*
X2028804Y1574411D01*
X2029304Y1574311D02*
X2037304Y1582311D01*
X2029304D02*
X2037304Y1574311D01*
X1969904Y1579111D02*
X1977904Y1587111D01*
X1969904D02*
X1977904Y1579111D01*
X1973304Y1577811D02*
X1981304Y1585811D01*
X1973304D02*
X1981304Y1577811D01*
X1991504Y1583411D02*
X1999504Y1591411D01*
X1991504D02*
X1999504Y1583411D01*
X1983304Y1582211D02*
X1991304Y1590211D01*
X1983304D02*
X1991304Y1582211D01*
X2011665Y1583440D02*
X2019665Y1591440D01*
X2011665D02*
X2019665Y1583440D01*
X2020004Y1579211D02*
X2028004Y1587211D01*
X2020004D02*
X2028004Y1579211D01*
X2013004Y1579311D02*
X2021004Y1587311D01*
X2013004D02*
X2021004Y1579311D01*
X2019304Y1585403D02*
X2027304Y1593403D01*
X2019304D02*
X2027304Y1585403D01*
X2020204Y1583403D02*
X2028204Y1591403D01*
X2020204D02*
X2028204Y1583403D01*
X2016304Y1579411D02*
X2024304Y1587411D01*
X2016304D02*
X2024304Y1579411D01*
X1969804Y1589211D02*
X1977804Y1597211D01*
X1969804D02*
X1977804Y1589211D01*
X1973104Y1590811D02*
X1981104Y1598811D01*
X1973104D02*
X1981104Y1590811D01*
X1981904Y1591911D02*
X1989904Y1599911D01*
X1981904D02*
X1989904Y1591911D01*
X1990504Y1589811D02*
X1998504Y1597811D01*
X1990504D02*
X1998504Y1589811D01*
X1989804Y1594411D02*
X1997804Y1602411D01*
X1989804D02*
X1997804Y1594411D01*
X1990604Y1592111D02*
X1998604Y1600111D01*
X1990604D02*
X1998604Y1592111D01*
X1991704Y1587711D02*
X1999704Y1595711D01*
X1991704D02*
X1999704Y1587711D01*
X2002004Y1595811D02*
X2010004Y1603811D01*
X2002004D02*
X2010004Y1595811D01*
X2002004Y1592811D02*
X2010004Y1600811D01*
X2002004D02*
X2010004Y1592811D01*
X1998904Y1595711D02*
X2006904Y1603711D01*
X1998904D02*
X2006904Y1595711D01*
X1998804Y1592611D02*
X2006804Y1600611D01*
X1998804D02*
X2006804Y1592611D01*
X1998804Y1589611D02*
X2006804Y1597611D01*
X1998804D02*
X2006804Y1589611D01*
X2002004D02*
X2010004Y1597611D01*
X2002004D02*
X2010004Y1589611D01*
X2005904Y1595811D02*
X2013904Y1603811D01*
X2005904D02*
X2013904Y1595811D01*
X2005904Y1592711D02*
X2013904Y1600711D01*
X2005904D02*
X2013904Y1592711D01*
X2005804Y1589611D02*
X2013804Y1597611D01*
X2005804D02*
X2013804Y1589611D01*
X2009904D02*
X2017904Y1597611D01*
X2009904D02*
X2017904Y1589611D01*
X2009904Y1592611D02*
X2017904Y1600611D01*
X2009904D02*
X2017904Y1592611D01*
X2009904Y1595411D02*
X2017904Y1603411D01*
X2009904D02*
X2017904Y1595411D01*
X2016504Y1590711D02*
X2024504Y1598711D01*
X2016504D02*
X2024504Y1590711D01*
X2030304Y1588711D02*
X2038304Y1596711D01*
X2030304D02*
X2038304Y1588711D01*
X2030304Y1593511D02*
X2038304Y1601511D01*
X2030304D02*
X2038304Y1593511D01*
X1969804Y1600911D02*
X1977804Y1608911D01*
X1969804D02*
X1977804Y1600911D01*
X1973204Y1602511D02*
X1981204Y1610511D01*
X1973204D02*
X1981204Y1602511D01*
X1979404Y1603111D02*
X1987404Y1611111D01*
X1979404D02*
X1987404Y1603111D01*
X1973104Y1598511D02*
X1981104Y1606511D01*
X1973104D02*
X1981104Y1598511D01*
X1979404Y1597811D02*
X1987404Y1605811D01*
X1979404D02*
X1987404Y1597811D01*
X1984504Y1598811D02*
X1992504Y1606811D01*
X1984504D02*
X1992504Y1598811D01*
X1991804Y1600611D02*
X1999804Y1608611D01*
X1991804D02*
X1999804Y1600611D01*
X1991004Y1596511D02*
X1999004Y1604511D01*
X1991004D02*
X1999004Y1596511D01*
X2002004Y1598811D02*
X2010004Y1606811D01*
X2002004D02*
X2010004Y1598811D01*
X1998904D02*
X2006904Y1606811D01*
X1998904D02*
X2006904Y1598811D01*
X2002004Y1601311D02*
X2010004Y1609311D01*
X2002004D02*
X2010004Y1601311D01*
X1999004D02*
X2007004Y1609311D01*
X1999004D02*
X2007004Y1601311D01*
X1993804Y1604211D02*
X2001804Y1612211D01*
X1993804D02*
X2001804Y1604211D01*
X1995704Y1605711D02*
X2003704Y1613711D01*
X1995704D02*
X2003704Y1605711D01*
X2005904Y1598611D02*
X2013904Y1606611D01*
X2005904D02*
X2013904Y1598611D01*
X2009904Y1598411D02*
X2017904Y1606411D01*
X2009904D02*
X2017904Y1598411D01*
X2006004Y1601411D02*
X2014004Y1609411D01*
X2006004D02*
X2014004Y1601411D01*
X2010004D02*
X2018004Y1609411D01*
X2010004D02*
X2018004Y1601411D01*
X2013804Y1604411D02*
X2021804Y1612411D01*
X2013804D02*
X2021804Y1604411D01*
X2016704Y1597511D02*
X2024704Y1605511D01*
X2016704D02*
X2024704Y1597511D01*
X2026704Y1603403D02*
X2034704Y1611403D01*
X2026704D02*
X2034704Y1603403D01*
X2030404Y1598311D02*
X2038404Y1606311D01*
X2030404D02*
X2038404Y1598311D01*
X2027804Y1599103D02*
X2035804Y1607103D01*
X2027804D02*
X2035804Y1599103D01*
X2027604Y1601003D02*
X2035604Y1609003D01*
X2027604D02*
X2035604Y1601003D01*
X2030404Y1602011D02*
X2038404Y1610011D01*
X2030404D02*
X2038404Y1602011D01*
X1977104Y1615311D02*
X1985104Y1623311D01*
X1977104D02*
X1985104Y1615311D01*
X1991804Y1612011D02*
X1999804Y1620011D01*
X1991804D02*
X1999804Y1612011D01*
X1989404Y1611911D02*
X1997404Y1619911D01*
X1989404D02*
X1997404Y1611911D01*
X1987004D02*
X1995004Y1619911D01*
X1987004D02*
X1995004Y1611911D01*
Y1615511D02*
X2003004Y1623511D01*
X1995004D02*
X2003004Y1615511D01*
X2001404Y1607611D02*
X2009404Y1615611D01*
X2001404D02*
X2009404Y1607611D01*
X2001004Y1614411D02*
X2009004Y1622411D01*
X2001004D02*
X2009004Y1614411D01*
X1997404Y1608911D02*
X2005404Y1616911D01*
X1997404D02*
X2005404Y1608911D01*
X2003804Y1612211D02*
X2011804Y1620211D01*
X2003804D02*
X2011804Y1612211D01*
X2005804Y1608303D02*
X2013804Y1616303D01*
X2005804D02*
X2013804Y1608303D01*
X2008004Y1616111D02*
X2016004Y1624111D01*
X2008004D02*
X2016004Y1616111D01*
X2009704Y1614811D02*
X2017704Y1622811D01*
X2009704D02*
X2017704Y1614811D01*
X2015704Y1615211D02*
X2023704Y1623211D01*
X2015704D02*
X2023704Y1615211D01*
X2021704Y1615011D02*
X2029704Y1623011D01*
X2021704D02*
X2029704Y1615011D01*
X2019104Y1615503D02*
X2027104Y1623503D01*
X2019104D02*
X2027104Y1615503D01*
X2019204Y1608403D02*
X2027204Y1616403D01*
X2019204D02*
X2027204Y1608403D01*
X2015104Y1612711D02*
X2023104Y1620711D01*
X2015104D02*
X2023104Y1612711D01*
X2024804Y1615411D02*
X2032804Y1623411D01*
X2024804D02*
X2032804Y1615411D01*
X2030204Y1608011D02*
X2038204Y1616011D01*
X2030204D02*
X2038204Y1608011D01*
X2030204Y1613011D02*
X2038204Y1621011D01*
X2030204D02*
X2038204Y1613011D01*
X2027504Y1612311D02*
X2035504Y1620311D01*
X2027504D02*
X2035504Y1612311D01*
X1972304Y1619411D02*
X1980304Y1627411D01*
X1972304D02*
X1980304Y1619411D01*
X1970304Y1621911D02*
X1978304Y1629911D01*
X1970304D02*
X1978304Y1621911D01*
X1969404Y1625111D02*
X1977404Y1633111D01*
X1969404D02*
X1977404Y1625111D01*
X1974404Y1617411D02*
X1982404Y1625411D01*
X1974404D02*
X1982404Y1617411D01*
X1977104Y1619011D02*
X1985104Y1627011D01*
X1977104D02*
X1985104Y1619011D01*
X1981604Y1621911D02*
X1989604Y1629911D01*
X1981604D02*
X1989604Y1621911D01*
X1980204Y1619111D02*
X1988204Y1627111D01*
X1980204D02*
X1988204Y1619111D01*
X1977104Y1624711D02*
X1985104Y1632711D01*
X1977104D02*
X1985104Y1624711D01*
X1973004Y1624811D02*
X1981004Y1632811D01*
X1973004D02*
X1981004Y1624811D01*
X1983104D02*
X1991104Y1632811D01*
X1983104D02*
X1991104Y1624811D01*
X1983604Y1616311D02*
X1991604Y1624311D01*
X1983604D02*
X1991604Y1616311D01*
X1992204Y1621911D02*
X2000204Y1629911D01*
X1992204D02*
X2000204Y1621911D01*
X1984804Y1619211D02*
X1992804Y1627211D01*
X1984804D02*
X1992804Y1619211D01*
X1989304Y1624811D02*
X1997304Y1632811D01*
X1989304D02*
X1997304Y1624811D01*
X1997404Y1618811D02*
X2005404Y1626811D01*
X1997404D02*
X2005404Y1618811D01*
X1994904Y1618311D02*
X2002904Y1626311D01*
X1994904D02*
X2002904Y1618311D01*
X1994504Y1624811D02*
X2002504Y1632811D01*
X1994504D02*
X2002504Y1624811D01*
X1997604Y1621911D02*
X2005604Y1629911D01*
X1997604D02*
X2005604Y1621911D01*
X1998604Y1624711D02*
X2006604Y1632711D01*
X1998604D02*
X2006604Y1624711D01*
X2007304Y1619811D02*
X2015304Y1627811D01*
X2007304D02*
X2015304Y1619811D01*
X2004004Y1622111D02*
X2012004Y1630111D01*
X2004004D02*
X2012004Y1622111D01*
X2011604Y1619711D02*
X2019604Y1627711D01*
X2011604D02*
X2019604Y1619711D01*
X2009004Y1621911D02*
X2017004Y1629911D01*
X2009004D02*
X2017004Y1621911D01*
X2003904Y1620011D02*
X2011904Y1628011D01*
X2003904D02*
X2011904Y1620011D01*
X2020604Y1624711D02*
X2028604Y1632711D01*
X2020604D02*
X2028604Y1624711D01*
X2022404Y1622011D02*
X2030404Y1630011D01*
X2022404D02*
X2030404Y1622011D01*
X2013504Y1621911D02*
X2021504Y1629911D01*
X2013504D02*
X2021504Y1621911D01*
X2018704Y1622011D02*
X2026704Y1630011D01*
X2018704D02*
X2026704Y1622011D01*
X2016204Y1619811D02*
X2024204Y1627811D01*
X2016204D02*
X2024204Y1619811D01*
X2029904Y1624611D02*
X2037904Y1632611D01*
X2029904D02*
X2037904Y1624611D01*
X2025804D02*
X2033804Y1632611D01*
X2025804D02*
X2033804Y1624611D01*
X2023304Y1624711D02*
X2031304Y1632711D01*
X2023304D02*
X2031304Y1624711D01*
X2024704Y1619811D02*
X2032704Y1627811D01*
X2024704D02*
X2032704Y1619811D01*
X2030304Y1618611D02*
X2038304Y1626611D01*
X2030304D02*
X2038304Y1618611D01*
X2030104Y1621911D02*
X2038104Y1629911D01*
X2030104D02*
X2038104Y1621911D01*
X2026704Y1621811D02*
X2034704Y1629811D01*
X2026704D02*
X2034704Y1621811D01*
X3149606Y1646803D02*
X3407606D01*
X3149606Y1622803D02*
X3407606D01*
X3149606Y1598803D02*
X3407606D01*
X3149606Y1574803D02*
X3407606D01*
X3149606Y1646803D02*
Y1574803D01*
X3233606Y1646803D02*
Y1574803D01*
X3269606Y1646803D02*
Y1574803D01*
X3305606Y1646803D02*
Y1574803D01*
X3359606Y1646803D02*
Y1574803D01*
X3407606Y1646803D02*
Y1574803D01*
X3185106Y1635553D02*
X3184561Y1636303D01*
X3183743Y1636678*
X3182652*
X3181834Y1636303*
X3181288Y1635553*
Y1634803*
X3181561Y1634053*
X3181834Y1633678*
X3182379Y1633303*
X3184015Y1632553*
X3184561Y1632178*
X3184834Y1631803*
X3185106Y1631053*
Y1629928*
X3184561Y1629178*
X3183743Y1628803*
X3182652*
X3181834Y1629178*
X3181288Y1629928*
X3187561Y1636678D02*
Y1628803D01*
X3193834Y1636678D02*
X3190015Y1628803D01*
Y1636678D02*
X3193834D01*
X3190015Y1628803D02*
X3193834D01*
X3196288Y1636678D02*
Y1628803D01*
Y1636678D02*
X3199834D01*
X3196288Y1632928D02*
X3198470D01*
X3196288Y1628803D02*
X3199834D01*
X3243470Y1636678D02*
X3242924Y1636303D01*
X3242379Y1635553*
X3242106Y1634803*
X3241834Y1633678*
Y1631803*
X3242106Y1630678*
X3242379Y1629928*
X3242924Y1629178*
X3243470Y1628803*
X3244561*
X3245106Y1629178*
X3245652Y1629928*
X3245924Y1630678*
X3246197Y1631803*
Y1633678*
X3245924Y1634803*
X3245652Y1635553*
X3245106Y1636303*
X3244561Y1636678*
X3243470*
X3244288Y1630303D02*
X3245924Y1628053D01*
X3250561Y1636678D02*
Y1628803D01*
X3248652Y1636678D02*
X3252470D01*
X3254924D02*
X3257106Y1632928D01*
Y1628803*
X3259288Y1636678D02*
X3257106Y1632928D01*
X3281652Y1635553D02*
X3281106Y1636303D01*
X3280288Y1636678*
X3279197*
X3278379Y1636303*
X3277834Y1635553*
Y1634803*
X3278106Y1634053*
X3278379Y1633678*
X3278924Y1633303*
X3280561Y1632553*
X3281106Y1632178*
X3281379Y1631803*
X3281652Y1631053*
Y1629928*
X3281106Y1629178*
X3280288Y1628803*
X3279197*
X3278379Y1629178*
X3277834Y1629928*
X3284106Y1636678D02*
X3286288Y1632928D01*
Y1628803*
X3288470Y1636678D02*
X3286288Y1632928D01*
X3290924Y1636678D02*
Y1628803D01*
Y1636678D02*
X3293106Y1628803D01*
X3295288Y1636678D02*
X3293106Y1628803D01*
X3295288Y1636678D02*
Y1628803D01*
X3317106Y1636678D02*
Y1628803D01*
Y1636678D02*
X3319561D01*
X3320379Y1636303*
X3320652Y1635928*
X3320924Y1635178*
Y1634053*
X3320652Y1633303*
X3320379Y1632928*
X3319561Y1632553*
X3317106*
X3323379Y1636678D02*
Y1628803D01*
X3326652*
X3331288Y1636678D02*
X3329106Y1628803D01*
X3331288Y1636678D02*
X3333470Y1628803D01*
X3329924Y1631428D02*
X3332652D01*
X3337834Y1636678D02*
Y1628803D01*
X3335924Y1636678D02*
X3339743D01*
X3342197D02*
Y1628803D01*
Y1636678D02*
X3345743D01*
X3342197Y1632928D02*
X3344379D01*
X3342197Y1628803D02*
X3345743D01*
X3348197Y1636678D02*
Y1628803D01*
Y1636678D02*
X3350106D01*
X3350924Y1636303*
X3351470Y1635553*
X3351743Y1634803*
X3352015Y1633678*
Y1631803*
X3351743Y1630678*
X3351470Y1629928*
X3350924Y1629178*
X3350106Y1628803*
X3348197*
X3376288Y1636678D02*
Y1628803D01*
X3374379Y1636678D02*
X3378197D01*
X3382288D02*
X3381743Y1636303D01*
X3381197Y1635553*
X3380924Y1634803*
X3380652Y1633678*
Y1631803*
X3380924Y1630678*
X3381197Y1629928*
X3381743Y1629178*
X3382288Y1628803*
X3383379*
X3383924Y1629178*
X3384470Y1629928*
X3384743Y1630678*
X3385015Y1631803*
Y1633678*
X3384743Y1634803*
X3384470Y1635553*
X3383924Y1636303*
X3383379Y1636678*
X3382288*
X3387470D02*
Y1628803D01*
X3390743*
X3157243Y1612678D02*
X3156424Y1612303D01*
X3155879Y1611178*
X3155606Y1609303*
Y1608178*
X3155879Y1606303*
X3156424Y1605178*
X3157243Y1604803*
X3157788*
X3158606Y1605178*
X3159152Y1606303*
X3159424Y1608178*
Y1609303*
X3159152Y1611178*
X3158606Y1612303*
X3157788Y1612678*
X3157243*
X3162152Y1605553D02*
X3161879Y1605178D01*
X3162152Y1604803*
X3162424Y1605178*
X3162152Y1605553*
X3168424Y1612678D02*
X3165697D01*
X3165424Y1609303*
X3165697Y1609678*
X3166515Y1610053*
X3167334*
X3168152Y1609678*
X3168697Y1608928*
X3168970Y1607803*
X3168697Y1607053*
X3168424Y1605928*
X3167879Y1605178*
X3167061Y1604803*
X3166243*
X3165424Y1605178*
X3165152Y1605553*
X3164879Y1606303*
X3174970Y1612678D02*
X3172243D01*
X3171970Y1609303*
X3172243Y1609678*
X3173061Y1610053*
X3173879*
X3174697Y1609678*
X3175243Y1608928*
X3175515Y1607803*
X3175243Y1607053*
X3174970Y1605928*
X3174424Y1605178*
X3173606Y1604803*
X3172788*
X3171970Y1605178*
X3171697Y1605553*
X3171424Y1606303*
X3246743Y1611178D02*
X3247288Y1611553D01*
X3248106Y1612678*
Y1604803*
X3251924Y1612678D02*
X3251106Y1612303D01*
X3250834Y1611553*
Y1610803*
X3251106Y1610053*
X3251652Y1609678*
X3252743Y1609303*
X3253561Y1608928*
X3254106Y1608178*
X3254379Y1607428*
Y1606303*
X3254106Y1605553*
X3253834Y1605178*
X3253015Y1604803*
X3251924*
X3251106Y1605178*
X3250834Y1605553*
X3250561Y1606303*
Y1607428*
X3250834Y1608178*
X3251379Y1608928*
X3252197Y1609303*
X3253288Y1609678*
X3253834Y1610053*
X3254106Y1610803*
Y1611553*
X3253834Y1612303*
X3253015Y1612678*
X3251924*
X3281606Y1610803D02*
X3293606D01*
X3287606Y1604803D02*
Y1616803D01*
X3314243Y1612678D02*
X3316424Y1608928D01*
Y1604803*
X3318606Y1612678D02*
X3316424Y1608928D01*
X3321061Y1612678D02*
Y1604803D01*
Y1612678D02*
X3324606D01*
X3321061Y1608928D02*
X3323243D01*
X3321061Y1604803D02*
X3324606D01*
X3330879Y1611553D02*
X3330334Y1612303D01*
X3329515Y1612678*
X3328424*
X3327606Y1612303*
X3327061Y1611553*
Y1610803*
X3327334Y1610053*
X3327606Y1609678*
X3328152Y1609303*
X3329788Y1608553*
X3330334Y1608178*
X3330606Y1607803*
X3330879Y1607053*
Y1605928*
X3330334Y1605178*
X3329515Y1604803*
X3328424*
X3327606Y1605178*
X3327061Y1605928*
X3367424Y1611553D02*
Y1604803D01*
X3364970Y1608178D02*
X3369879D01*
X3377243Y1614178D02*
X3372334Y1602178D01*
X3379697Y1608178D02*
X3384606D01*
X3388697Y1612678D02*
X3387879Y1612303D01*
X3387334Y1611178*
X3387061Y1609303*
Y1608178*
X3387334Y1606303*
X3387879Y1605178*
X3388697Y1604803*
X3389243*
X3390061Y1605178*
X3390606Y1606303*
X3390879Y1608178*
Y1609303*
X3390606Y1611178*
X3390061Y1612303*
X3389243Y1612678*
X3388697*
X3393606Y1605553D02*
X3393334Y1605178D01*
X3393606Y1604803*
X3393879Y1605178*
X3393606Y1605553*
X3397970Y1612678D02*
X3397152Y1612303D01*
X3396606Y1611178*
X3396334Y1609303*
Y1608178*
X3396606Y1606303*
X3397152Y1605178*
X3397970Y1604803*
X3398515*
X3399334Y1605178*
X3399879Y1606303*
X3400152Y1608178*
Y1609303*
X3399879Y1611178*
X3399334Y1612303*
X3398515Y1612678*
X3397970*
X3157243Y1588678D02*
X3156424Y1588303D01*
X3155879Y1587178*
X3155606Y1585303*
Y1584178*
X3155879Y1582303*
X3156424Y1581178*
X3157243Y1580803*
X3157788*
X3158606Y1581178*
X3159152Y1582303*
X3159424Y1584178*
Y1585303*
X3159152Y1587178*
X3158606Y1588303*
X3157788Y1588678*
X3157243*
X3162152Y1581553D02*
X3161879Y1581178D01*
X3162152Y1580803*
X3162424Y1581178*
X3162152Y1581553*
X3165152Y1586803D02*
Y1587178D01*
X3165424Y1587928*
X3165697Y1588303*
X3166243Y1588678*
X3167334*
X3167879Y1588303*
X3168152Y1587928*
X3168424Y1587178*
Y1586428*
X3168152Y1585678*
X3167606Y1584553*
X3164879Y1580803*
X3168697*
X3174697Y1588678D02*
X3171970D01*
X3171697Y1585303*
X3171970Y1585678*
X3172788Y1586053*
X3173606*
X3174424Y1585678*
X3174970Y1584928*
X3175243Y1583803*
X3174970Y1583053*
X3174697Y1581928*
X3174152Y1581178*
X3173334Y1580803*
X3172515*
X3171697Y1581178*
X3171424Y1581553*
X3171152Y1582303*
X3243606Y1587178D02*
X3244152Y1587553D01*
X3244970Y1588678*
Y1580803*
X3247697Y1586803D02*
Y1587178D01*
X3247970Y1587928*
X3248243Y1588303*
X3248788Y1588678*
X3249879*
X3250424Y1588303*
X3250697Y1587928*
X3250970Y1587178*
Y1586428*
X3250697Y1585678*
X3250152Y1584553*
X3247424Y1580803*
X3251243*
X3253970Y1586803D02*
Y1587178D01*
X3254243Y1587928*
X3254515Y1588303*
X3255061Y1588678*
X3256152*
X3256697Y1588303*
X3256970Y1587928*
X3257243Y1587178*
Y1586428*
X3256970Y1585678*
X3256424Y1584553*
X3253697Y1580803*
X3257515*
X3281606D02*
X3293606Y1592803D01*
X3281606D02*
X3293606Y1580803D01*
X3314243Y1588678D02*
X3316424Y1584928D01*
Y1580803*
X3318606Y1588678D02*
X3316424Y1584928D01*
X3321061Y1588678D02*
Y1580803D01*
Y1588678D02*
X3324606D01*
X3321061Y1584928D02*
X3323243D01*
X3321061Y1580803D02*
X3324606D01*
X3330879Y1587553D02*
X3330334Y1588303D01*
X3329515Y1588678*
X3328424*
X3327606Y1588303*
X3327061Y1587553*
Y1586803*
X3327334Y1586053*
X3327606Y1585678*
X3328152Y1585303*
X3329788Y1584553*
X3330334Y1584178*
X3330606Y1583803*
X3330879Y1583053*
Y1581928*
X3330334Y1581178*
X3329515Y1580803*
X3328424*
X3327606Y1581178*
X3327061Y1581928*
X3367424Y1587553D02*
Y1580803D01*
X3364970Y1584178D02*
X3369879D01*
X3377243Y1590178D02*
X3372334Y1578178D01*
X3379697Y1584178D02*
X3384606D01*
X3388697Y1588678D02*
X3387879Y1588303D01*
X3387334Y1587178*
X3387061Y1585303*
Y1584178*
X3387334Y1582303*
X3387879Y1581178*
X3388697Y1580803*
X3389243*
X3390061Y1581178*
X3390606Y1582303*
X3390879Y1584178*
Y1585303*
X3390606Y1587178*
X3390061Y1588303*
X3389243Y1588678*
X3388697*
X3393606Y1581553D02*
X3393334Y1581178D01*
X3393606Y1580803*
X3393879Y1581178*
X3393606Y1581553*
X3397970Y1588678D02*
X3397152Y1588303D01*
X3396606Y1587178*
X3396334Y1585303*
Y1584178*
X3396606Y1582303*
X3397152Y1581178*
X3397970Y1580803*
X3398515*
X3399334Y1581178*
X3399879Y1582303*
X3400152Y1584178*
Y1585303*
X3399879Y1587178*
X3399334Y1588303*
X3398515Y1588678*
X3397970*
G54D31*
X1968504Y1653543D02*
X2039370D01*
Y1574803*
X1968504*
Y1653543*
X0Y0D02*
M02*
