%
T1C.00984F0S0
X19738Y159321
X19739Y158311
X1974Y157841
X19771Y159481
X19771Y160251
X19773Y158181
X19807Y157821
X19834Y160181
X19859Y159591
X19873Y158621
X19885Y160281
X19887Y157821
X19938Y159841
X19945Y159381
X19946Y159611
X1995Y160051
X19955Y158741
X19957Y159171
X19968Y157841
X20028Y159661
X20028Y159361
X20029Y159971
X20029Y160281
X2006Y159981
X2006Y159681
X2006Y159361
X2006Y160281
X20073Y157821
X20098Y159361
X20099Y159981
X20099Y159671
X20099Y160261
X20139Y159361
X20139Y159661
X20139Y159941
X20139Y160241
X201566Y158744
X20163Y157841
X2017Y158331
X20203Y158341
X20205Y159471
X20207Y160151
X20233Y15894
X2024Y158321
X20242Y15874
X20248Y157841
X20318Y16031
X20333Y157831
X20343Y159751
X20343Y159271
X20344Y160231
X20344Y160601
X20343Y162261
X20342Y161201
X20342Y161701
X20341Y162591
X20316Y1605
X20315Y161631
X20307Y16074
X20307Y162581
X20288Y161941
X20287Y162381
X20264Y162601
X20257Y161901
X20232Y16124
X20231Y16195
X20227Y162601
X20202Y162381
X20197Y161921
X20191Y161671
X20178Y160841
X20175Y162591
X20156Y162371
X2014Y160541
X20137Y161881
X2013Y162591
X2012Y162011
X20113Y162381
X201Y160541
X20098Y16123
X2008Y162611
X20079Y162401
X20078Y161621
X2006Y160531
X20054Y161161
X2005Y161841
X2003Y160531
X20016Y162591
X20014Y162281
X20014Y161291
X19997Y160971
X1999Y161951
X19989Y162231
X19978Y160821
X19962Y162591
X19958Y160461
X19958Y161601
X19934Y161591
X1991Y161591
X19888Y162321
X19876Y162031
X19856Y162591
X19842Y162311
X19834Y160711
X19811Y162301
X19811Y161931
X19784Y162141
X19772Y160651
X19763Y162341
X19743Y162591
X19738Y160491
X19734Y162911
X1977Y162881
X19811Y162871
X19871Y162881
X19933Y162881
X19985Y162881
X20026Y162871
X20246Y162871
X20273Y162871
X20298Y162861
X20339Y162861
T2C.02165F0S0
X19685Y159606
X19685Y158425
X19685Y157835
X19685Y160197
X19685Y159016
X203937Y160197
X203937Y157835
X203937Y158425
X203937Y159016
X203937Y159606
X203937Y161969
X203937Y161378
X203937Y160787
X203937Y162559
X19685Y161378
X19685Y161969
X19685Y160787
X19685Y162559
M30
