*
*
G04 PADS 9.5 Build Number: 522968 generated Gerber (RS-274-X) file*
G04 PC Version=2.1*
*
%IN "ESP_WROOM_02_1213.pcb"*%
*
%MOIN*%
*
%FSLAX35Y35*%
*
*
*
*
G04 PC Standard Apertures*
*
*
G04 Thermal Relief Aperture macro.*
%AMTER*
1,1,$1,0,0*
1,0,$1-$2,0,0*
21,0,$3,$4,0,0,45*
21,0,$3,$4,0,0,135*
%
*
*
G04 Annular Aperture macro.*
%AMANN*
1,1,$1,0,0*
1,0,$2,0,0*
%
*
*
G04 Odd Aperture macro.*
%AMODD*
1,1,$1,0,0*
1,0,$1-0.005,0,0*
%
*
*
G04 PC Custom Aperture Macros*
*
*
*
*
*
*
G04 PC Aperture Table*
*
%ADD010C,0.001*%
%ADD024C,0.005*%
%ADD031C,0.00394*%
*
*
*
*
G04 PC Circuitry*
G04 Layer Name ESP_WROOM_02_1213.pcb - circuitry*
%LPD*%
*
G54D10*
G01X2385269Y1732067D02*
X2385226Y1732367D01*
X2385102Y1732615*
X2384900Y1732736*
X2384606Y1732778*
X2384392Y1732736*
X2384225Y1732694*
X2384062Y1732572*
X2383933Y1732357*
X2383845Y1732360*
X2383760Y1732532*
X2383639Y1732652*
X2383429Y1732736*
X2383222Y1732778*
X2383057Y1732737*
X2382847Y1732652*
X2382586Y1732392*
X2382501Y1732427*
Y1732734*
X2382199*
Y1730513*
X2382501*
Y1731936*
X2382502Y1731948*
X2382547Y1732127*
X2382557Y1732147*
X2382780Y1732415*
X2382805Y1732431*
X2383118Y1732520*
X2383143*
X2383322Y1732476*
X2383338Y1732469*
X2383472Y1732380*
X2383472D02*
X2383488Y1732360D01*
X2383578Y1732182*
X2383583Y1732159*
Y1730513*
X2383885*
Y1731802*
Y1731809*
X2383930Y1732122*
X2383939Y1732145*
X2384073Y1732323*
X2384083Y1732333*
X2384262Y1732467*
X2384282Y1732476*
X2384505Y1732521*
X2384525*
X2384748Y1732476*
X2384778Y1732457*
X2384912Y1732279*
X2384920Y1732264*
X2384964Y1732131*
X2384967Y1732115*
Y1730513*
X2385269*
Y1732067*
X2381519D02*
X2381476Y1732367D01*
X2381352Y1732615*
X2381150Y1732736*
X2380856Y1732778*
X2380642Y1732736*
X2380475Y1732694*
X2380312Y1732572*
X2380183Y1732357*
X2380095Y1732360*
X2380010Y1732532*
X2379889Y1732652*
X2379679Y1732736*
X2379472Y1732778*
X2379307Y1732737*
X2379097Y1732652*
X2378836Y1732392*
X2378751Y1732427*
Y1732734*
X2378449*
Y1730513*
X2378751*
Y1731936*
X2378752Y1731948*
X2378797Y1732127*
X2378807Y1732147*
X2379030Y1732415*
X2379055Y1732431*
X2379368Y1732520*
X2379393*
X2379572Y1732476*
X2379588Y1732469*
X2379722Y1732380*
X2379722D02*
X2379738Y1732360D01*
X2379828Y1732182*
X2379833Y1732159*
Y1730513*
X2380135*
Y1731802*
Y1731809*
X2380180Y1732122*
X2380189Y1732145*
X2380323Y1732323*
X2380333Y1732333*
X2380512Y1732467*
X2380532Y1732476*
X2380755Y1732521*
X2380775*
X2380998Y1732476*
X2381028Y1732457*
X2381162Y1732279*
X2381170Y1732264*
X2381214Y1732131*
X2381217Y1732115*
Y1730513*
X2381519*
Y1732067*
X2377858Y1732465D02*
X2377771Y1732769D01*
X2377596Y1733251*
X2377471Y1733418*
X2377307Y1733541*
X2376880Y1733627*
X2376584Y1733584*
X2376333Y1733459*
X2376166Y1733250*
X2376036Y1732948*
X2375949Y1732554*
X2375904Y1732023*
Y1731630*
X2375992Y1731279*
X2376079Y1730974*
X2376204Y1730765*
X2376204D02*
X2376500Y1730554D01*
X2376883Y1730469*
X2377179Y1730511*
X2377429Y1730637*
X2377597Y1730846*
X2377726Y1731148*
X2377814Y1731542*
X2377858Y1732028*
Y1732465*
X2377556Y1732383D02*
Y1731668D01*
Y1731660*
X2377511Y1731392*
Y1731391*
X2377466Y1731167*
X2377462Y1731155*
X2377372Y1730976*
X2377359Y1730960*
X2377136Y1730781*
X2377114Y1730771*
X2376891Y1730726*
X2376871*
X2376648Y1730771*
X2376627Y1730781*
X2376404Y1730960*
X2376390Y1730976*
X2376301Y1731155*
X2376297Y1731167*
X2376252Y1731391*
Y1731392*
X2376207Y1731660*
X2376206Y1731668*
Y1732383*
X2376207Y1732390*
X2376251Y1732702*
X2376252Y1732705*
X2376297Y1732928*
X2376301Y1732941*
X2376390Y1733119*
X2376404Y1733136*
X2376627Y1733314*
X2376648Y1733324*
X2376871Y1733369*
X2376889*
X2377157Y1733325*
X2377188Y1733307*
X2377367Y1733083*
X2377369Y1733080*
X2377459Y1732946*
X2377466Y1732928*
X2377511Y1732705*
Y1732702*
X2377556Y1732390*
Y1732383*
X2375135Y1730815D02*
X2374833D01*
Y1730513*
X2375135*
Y1730815*
X2374107Y1731402D02*
X2374065Y1731655D01*
X2373982Y1731863*
X2373816Y1732029*
X2373555Y1732159*
X2373552Y1732247*
X2373770Y1732378*
X2373894Y1732501*
X2373977Y1732668*
X2374018Y1732832*
X2373976Y1733165*
X2373767Y1733416*
X2373515Y1733584*
X2373131Y1733627*
X2372747Y1733584*
X2372495Y1733416*
X2372286Y1733165*
X2372244Y1732875*
X2372286Y1732667*
X2372369Y1732501*
X2372493Y1732378*
X2372711Y1732247*
X2372701Y1732157*
X2372444Y1732071*
X2372282Y1731909*
X2372198Y1731656*
X2372155Y1731402*
X2372241Y1731017*
X2372410Y1730722*
X2372746Y1730511*
X2373131Y1730469*
X2373516Y1730511*
X2373853Y1730722*
X2374022Y1731017*
X2374107Y1731402*
X2373715Y1732817D02*
X2373671Y1732638D01*
X2373664Y1732623*
X2373575Y1732489*
X2373555Y1732472*
X2373377Y1732382*
X2373377D02*
X2373364Y1732378D01*
X2373141Y1732334*
X2373121*
X2372898Y1732378*
X2372886Y1732382*
X2372886D02*
X2372707Y1732472D01*
X2372688Y1732489*
X2372599Y1732623*
X2372591Y1732641*
X2372547Y1732864*
Y1732886*
X2372592Y1733064*
X2372599Y1733080*
X2372688Y1733214*
X2372707Y1733231*
X2372886Y1733320*
X2372898Y1733324*
X2373121Y1733369*
X2373141*
X2373364Y1733324*
X2373377Y1733320*
X2373555Y1733231*
X2373578Y1733209*
X2373667Y1733030*
X2373671Y1733020*
X2373715Y1732841*
Y1732817*
X2373806Y1731400D02*
Y1731392D01*
X2373761Y1731124*
X2373752Y1731103*
X2373618Y1730924*
X2373608Y1730914*
X2373429Y1730780*
X2373407Y1730771*
X2373139Y1730726*
X2373131Y1730725*
X2372953*
X2372925Y1730734*
X2372794Y1730821*
X2372618Y1730909*
X2372599Y1730926*
X2372509Y1731060*
X2372501Y1731081*
X2372457Y1731393*
X2372456Y1731400*
X2372457Y1731410*
X2372502Y1731633*
X2372508Y1731649*
X2372642Y1731873*
X2372655Y1731887*
X2372833Y1732021*
X2372855Y1732030*
X2373123Y1732075*
X2373139*
X2373407Y1732030*
X2373429Y1732021*
X2373608Y1731887*
X2373621Y1731873*
X2373754Y1731649*
X2373761Y1731633*
X2373805Y1731410*
X2373806Y1731400*
X2371607Y1731402D02*
X2371565Y1731655D01*
X2371482Y1731863*
X2371316Y1732029*
X2371055Y1732159*
X2371052Y1732247*
X2371270Y1732378*
X2371394Y1732501*
X2371477Y1732668*
X2371518Y1732832*
X2371476Y1733165*
X2371267Y1733416*
X2371015Y1733584*
X2370631Y1733627*
X2370247Y1733584*
X2369995Y1733416*
X2369786Y1733165*
X2369744Y1732875*
X2369786Y1732667*
X2369869Y1732501*
X2369993Y1732378*
X2370211Y1732247*
X2370201Y1732157*
X2369944Y1732071*
X2369782Y1731909*
X2369698Y1731656*
X2369655Y1731402*
X2369741Y1731017*
X2369910Y1730722*
X2370246Y1730511*
X2370631Y1730469*
X2371016Y1730511*
X2371353Y1730722*
X2371522Y1731017*
X2371607Y1731402*
X2371215Y1732817D02*
X2371171Y1732638D01*
X2371164Y1732623*
X2371075Y1732489*
X2371055Y1732472*
X2370877Y1732382*
X2370877D02*
X2370864Y1732378D01*
X2370641Y1732334*
X2370621*
X2370398Y1732378*
X2370386Y1732382*
X2370386D02*
X2370207Y1732472D01*
X2370188Y1732489*
X2370099Y1732623*
X2370091Y1732641*
X2370047Y1732864*
Y1732886*
X2370092Y1733064*
X2370099Y1733080*
X2370188Y1733214*
X2370207Y1733231*
X2370386Y1733320*
X2370398Y1733324*
X2370621Y1733369*
X2370641*
X2370864Y1733324*
X2370877Y1733320*
X2371055Y1733231*
X2371078Y1733209*
X2371167Y1733030*
X2371171Y1733020*
X2371215Y1732841*
Y1732817*
X2371306Y1731400D02*
Y1731392D01*
X2371261Y1731124*
X2371252Y1731103*
X2371118Y1730924*
X2371108Y1730914*
X2370929Y1730780*
X2370907Y1730771*
X2370639Y1730726*
X2370631Y1730725*
X2370453*
X2370425Y1730734*
X2370294Y1730821*
X2370118Y1730909*
X2370099Y1730926*
X2370009Y1731060*
X2370001Y1731081*
X2369957Y1731393*
X2369956Y1731400*
X2369957Y1731410*
X2370002Y1731633*
X2370008Y1731649*
X2370142Y1731873*
X2370155Y1731887*
X2370333Y1732021*
X2370355Y1732030*
X2370623Y1732075*
X2370639*
X2370907Y1732030*
X2370929Y1732021*
X2371108Y1731887*
X2371121Y1731873*
X2371254Y1731649*
X2371261Y1731633*
X2371305Y1731410*
X2371306Y1731400*
X2165697Y1550516D02*
X2165654Y1550817D01*
X2165531Y1551065*
X2165329Y1551186*
X2165034Y1551228*
X2164821Y1551185*
X2164653Y1551143*
X2164491Y1551021*
X2164362Y1550806*
X2164274Y1550810*
X2164188Y1550981*
X2164067Y1551102*
X2163858Y1551186*
X2163650Y1551227*
X2163486Y1551186*
X2163275Y1551102*
X2163015Y1550841*
X2162930Y1550877*
Y1551184*
X2162628*
Y1548962*
X2162930*
Y1550386*
X2162931Y1550398*
X2162976Y1550576*
X2162986Y1550596*
X2163209Y1550864*
X2163234Y1550880*
X2163546Y1550969*
X2163572Y1550970*
X2163751Y1550925*
X2163766Y1550918*
X2163900Y1550829*
X2163917Y1550810*
X2164006Y1550631*
X2164012Y1550609*
Y1548962*
X2164313*
Y1550252*
X2164314Y1550259*
X2164359Y1550571*
X2164368Y1550594*
X2164502Y1550773*
X2164512Y1550783*
X2164691Y1550917*
X2164711Y1550926*
X2164934Y1550970*
X2164954*
X2165177Y1550926*
X2165207Y1550907*
X2165341Y1550728*
X2165348Y1550714*
X2165393Y1550580*
X2165396Y1550564*
Y1548962*
X2165697*
Y1550516*
X2161947D02*
X2161904Y1550817D01*
X2161781Y1551065*
X2161579Y1551186*
X2161284Y1551228*
X2161071Y1551185*
X2160903Y1551143*
X2160741Y1551021*
X2160612Y1550806*
X2160524Y1550810*
X2160438Y1550981*
X2160317Y1551102*
X2160108Y1551186*
X2159900Y1551227*
X2159736Y1551186*
X2159525Y1551102*
X2159265Y1550841*
X2159180Y1550877*
Y1551184*
X2158878*
Y1548962*
X2159180*
Y1550386*
X2159181Y1550398*
X2159226Y1550576*
X2159236Y1550596*
X2159459Y1550864*
X2159484Y1550880*
X2159796Y1550969*
X2159822Y1550970*
X2160001Y1550925*
X2160016Y1550918*
X2160150Y1550829*
X2160167Y1550810*
X2160256Y1550631*
X2160262Y1550609*
Y1548962*
X2160563*
Y1550252*
X2160564Y1550259*
X2160609Y1550571*
X2160618Y1550594*
X2160752Y1550773*
X2160762Y1550783*
X2160941Y1550917*
X2160961Y1550926*
X2161184Y1550970*
X2161204*
X2161427Y1550926*
X2161457Y1550907*
X2161591Y1550728*
X2161598Y1550714*
X2161643Y1550580*
X2161646Y1550564*
Y1548962*
X2161947*
Y1550516*
X2158287Y1550914D02*
X2158200Y1551218D01*
X2158024Y1551701*
X2157899Y1551868*
X2157735Y1551991*
X2157308Y1552076*
X2157012Y1552034*
X2156762Y1551908*
X2156594Y1551699*
X2156465Y1551397*
X2156377Y1551003*
X2156333Y1550473*
Y1550079*
X2156421Y1549729*
X2156508Y1549424*
X2156633Y1549215*
X2156929Y1549004*
X2157312Y1548919*
X2157607Y1548961*
X2157858Y1549086*
X2158026Y1549295*
X2158155Y1549597*
X2158242Y1549992*
X2158287Y1550477*
Y1550914*
X2157985Y1550832D02*
Y1550118D01*
X2157984Y1550110*
X2157940Y1549842*
X2157939Y1549840*
X2157895Y1549617*
X2157890Y1549604*
X2157801Y1549426*
X2157788Y1549409*
X2157564Y1549231*
X2157564D02*
X2157543Y1549221D01*
X2157320Y1549176*
X2157300*
X2157077Y1549221*
X2157055Y1549231*
X2157055D02*
X2156832Y1549409D01*
X2156819Y1549426*
X2156729Y1549604*
X2156725Y1549617*
X2156680Y1549840*
Y1549842*
X2156636Y1550110*
X2156635Y1550118*
Y1550832*
Y1550839*
X2156680Y1551152*
Y1551154*
X2156725Y1551378*
X2156729Y1551390*
X2156819Y1551569*
X2156832Y1551585*
X2157055Y1551764*
X2157077Y1551774*
X2157300Y1551819*
X2157318*
X2157586Y1551774*
X2157617Y1551756*
X2157795Y1551533*
X2157798Y1551529*
X2157887Y1551395*
X2157895Y1551378*
X2157939Y1551154*
X2157940Y1551152*
X2157984Y1550839*
X2157985Y1550832*
X2155563Y1549264D02*
X2155262D01*
Y1548962*
X2155563*
Y1549264*
X2154536Y1549982D02*
X2154450Y1550367D01*
X2154281Y1550664*
X2153985Y1550875*
X2153648Y1550959*
X2153224Y1550875*
X2153059Y1550751*
X2152885Y1550533*
X2152796Y1550564*
Y1550569*
X2152840Y1551016*
X2152843Y1551026*
X2152932Y1551294*
X2152933Y1551297*
X2153022Y1551520*
X2153033Y1551537*
X2153212Y1551716*
X2153235Y1551729*
X2153592Y1551818*
X2153614Y1551819*
X2153838Y1551774*
X2153858Y1551765*
X2154036Y1551631*
X2154048Y1551619*
X2154137Y1551485*
X2154145Y1551467*
X2154180Y1551289*
X2154480Y1551322*
X2154407Y1551612*
X2154196Y1551866*
X2153944Y1552034*
X2153606Y1552076*
X2153179Y1551991*
X2152838Y1551735*
X2152668Y1551480*
X2152582Y1551179*
X2152538Y1550826*
X2152494Y1550428*
X2152494D02*
Y1550035D01*
X2152581Y1549731*
X2152668Y1549469*
X2152796Y1549256*
X2152964Y1549087*
X2153134Y1549003*
X2153346Y1548918*
X2153556*
X2153816Y1548961*
X2154071Y1549046*
X2154281Y1549214*
X2154407Y1549424*
X2154493Y1549683*
X2154536Y1549982*
X2154234Y1549932D02*
X2154190Y1549620D01*
X2154183Y1549601*
X2154049Y1549378*
X2154032Y1549361*
X2153809Y1549227*
X2153793Y1549221*
X2153570Y1549176*
X2153560Y1549175*
X2153337*
X2153309Y1549183*
X2153175Y1549273*
X2153173Y1549274*
X2152994Y1549408*
X2152983Y1549420*
X2152893Y1549554*
X2152886Y1549570*
X2152842Y1549748*
X2152841Y1549751*
X2152797Y1549974*
X2152796Y1549984*
Y1549992*
X2152841Y1550260*
X2152847Y1550277*
X2152981Y1550501*
X2152998Y1550518*
X2153222Y1550652*
X2153239Y1550658*
X2153507Y1550703*
X2153523*
X2153791Y1550658*
X2153809Y1550652*
X2154032Y1550518*
X2154049Y1550501*
X2154183Y1550277*
X2154190Y1550259*
X2154234Y1549946*
Y1549932*
X2152036Y1550564D02*
X2151993Y1551092D01*
X2151906Y1551438*
X2151734Y1551739*
X2151566Y1551907*
X2151313Y1552034*
X2151017Y1552076*
X2150634Y1551991*
X2150340Y1551781*
X2150170Y1551440*
X2150084Y1551055*
X2150170Y1550625*
X2150339Y1550288*
X2150633Y1550120*
X2150928Y1550035*
X2151135Y1550077*
X2151346Y1550161*
X2151652Y1550424*
X2151735Y1550386*
Y1550341*
Y1550336*
X2151690Y1549845*
X2151685Y1549828*
X2151598Y1549654*
X2151555Y1549481*
X2151538Y1549454*
X2151314Y1549275*
X2151297Y1549266*
X2150984Y1549177*
X2150958Y1549176*
X2150780Y1549221*
X2150764Y1549228*
X2150630Y1549317*
X2150616Y1549331*
X2150527Y1549465*
X2150521Y1549477*
X2150445Y1549706*
X2150140Y1549673*
X2150213Y1549379*
X2150382Y1549127*
X2150631Y1548961*
X2150970Y1548918*
X2151268Y1548961*
X2151521Y1549087*
X2151734Y1549300*
X2151905Y1549600*
X2151992Y1550035*
X2152036Y1550564*
X2151735Y1551055D02*
X2151734Y1551048D01*
X2151690Y1550736*
X2151683Y1550717*
X2151549Y1550494*
X2151536Y1550480*
X2151358Y1550346*
X2151336Y1550336*
X2151068Y1550292*
X2151052*
X2150784Y1550336*
X2150762Y1550346*
X2150583Y1550480*
X2150571Y1550494*
X2150437Y1550717*
X2150430Y1550735*
X2150386Y1551002*
X2150385Y1551011*
Y1551018*
X2150430Y1551330*
X2150437Y1551349*
X2150571Y1551572*
X2150582Y1551585*
X2150805Y1551764*
X2150827Y1551774*
X2151050Y1551819*
X2151068*
X2151336Y1551774*
X2151358Y1551765*
X2151536Y1551631*
X2151551Y1551613*
X2151685Y1551345*
X2151690Y1551331*
X2151734Y1551063*
X2151735Y1551055*
X2150100Y1550976D02*
Y1551126D01*
X2150200Y1549433D02*
Y1549679D01*
Y1550565D02*
Y1551501D01*
X2150300Y1549249D02*
Y1549690D01*
Y1550365D02*
Y1551701D01*
X2150400Y1549115D02*
Y1549701D01*
Y1550253D02*
Y1550916D01*
Y1551120D02*
Y1551824D01*
X2150500Y1549048D02*
Y1549541D01*
Y1550196D02*
Y1550611D01*
Y1551454D02*
Y1551895D01*
X2150600Y1548981D02*
Y1549356D01*
Y1550138D02*
Y1550467D01*
Y1551600D02*
Y1551966D01*
X2150700Y1548952D02*
Y1549271D01*
Y1550100D02*
Y1550392D01*
Y1551680D02*
Y1552005D01*
X2150800Y1548939D02*
Y1549216D01*
Y1550072D02*
Y1550334D01*
Y1551760D02*
Y1552028D01*
X2150900Y1548927D02*
Y1549191D01*
Y1550043D02*
Y1550317D01*
Y1551789D02*
Y1552050D01*
X2151000Y1548922D02*
Y1549181D01*
Y1550050D02*
Y1550300D01*
Y1551809D02*
Y1552072D01*
X2151100Y1548937D02*
Y1549210D01*
Y1550070D02*
Y1550297D01*
Y1551814D02*
Y1552064D01*
X2151200Y1548951D02*
Y1549238D01*
Y1550103D02*
Y1550314D01*
Y1551797D02*
Y1552050D01*
X2151300Y1548977D02*
Y1549267D01*
Y1550143D02*
Y1550330D01*
Y1551780D02*
Y1552035D01*
X2151400Y1549027D02*
Y1549344D01*
Y1550207D02*
Y1550377D01*
Y1551733D02*
Y1551990D01*
X2151500Y1549077D02*
Y1549424D01*
Y1550293D02*
Y1550452D01*
Y1551658D02*
Y1551940D01*
X2151600Y1549166D02*
Y1549658D01*
Y1550379D02*
Y1550579D01*
Y1551515D02*
Y1551873D01*
X2151700Y1549266D02*
Y1549955D01*
Y1550433D02*
Y1550808D01*
Y1551269D02*
Y1551773D01*
X2151800Y1549416D02*
Y1551624D01*
X2151900Y1549591D02*
Y1551449D01*
X2152000Y1550127D02*
Y1551002D01*
X2152500Y1550014D02*
Y1550483D01*
X2152600Y1549673D02*
Y1551241D01*
X2152700Y1549416D02*
Y1551528D01*
X2152800Y1549252D02*
Y1549957D01*
Y1550015D02*
Y1550544D01*
Y1550611D02*
Y1551678D01*
X2152900Y1549152D02*
Y1549544D01*
Y1550365D02*
Y1550552D01*
Y1551198D02*
Y1551781D01*
X2153000Y1549070D02*
Y1549404D01*
Y1550519D02*
Y1550677D01*
Y1551464D02*
Y1551856D01*
X2153100Y1549020D02*
Y1549329D01*
Y1550579D02*
Y1550782D01*
Y1551604D02*
Y1551931D01*
X2153200Y1548976D02*
Y1549256D01*
Y1550639D02*
Y1550857D01*
Y1551704D02*
Y1551995D01*
X2153300Y1548936D02*
Y1549189D01*
Y1550668D02*
Y1550890D01*
Y1551745D02*
Y1552015D01*
X2153400Y1548918D02*
Y1549175D01*
Y1550685D02*
Y1550910D01*
Y1551770D02*
Y1552035D01*
X2153500Y1548918D02*
Y1549175D01*
Y1550702D02*
Y1550930D01*
Y1551795D02*
Y1552055D01*
X2153600Y1548925D02*
Y1549182D01*
Y1550690D02*
Y1550950D01*
Y1551819D02*
Y1552075D01*
X2153700Y1548942D02*
Y1549202D01*
Y1550673D02*
Y1550946D01*
Y1551801D02*
Y1552064D01*
X2153800Y1548958D02*
Y1549222D01*
Y1550656D02*
Y1550921D01*
Y1551781D02*
Y1552052D01*
X2153900Y1548989D02*
Y1549281D01*
Y1550597D02*
Y1550896D01*
Y1551733D02*
Y1552039D01*
X2154000Y1549023D02*
Y1549341D01*
Y1550537D02*
Y1550864D01*
Y1551658D02*
Y1551996D01*
X2154100Y1549069D02*
Y1549462D01*
Y1550416D02*
Y1550793D01*
Y1551541D02*
Y1551930D01*
X2154200Y1549149D02*
Y1549692D01*
Y1550187D02*
Y1550722D01*
Y1551291D02*
Y1551861D01*
X2154300Y1549246D02*
Y1550630D01*
Y1551302D02*
Y1551741D01*
X2154400Y1549413D02*
Y1550455D01*
Y1551313D02*
Y1551621D01*
X2154500Y1549731D02*
Y1550143D01*
X2155300Y1548962D02*
Y1549264D01*
X2155400Y1548962D02*
Y1549264D01*
X2155500Y1548962D02*
Y1549264D01*
X2156400Y1549812D02*
Y1551105D01*
X2156500Y1549451D02*
Y1551479D01*
X2156600Y1549270D02*
Y1551706D01*
X2156700Y1549167D02*
Y1549742D01*
Y1551252D02*
Y1551831D01*
X2156800Y1549096D02*
Y1549463D01*
Y1551531D02*
Y1551927D01*
X2156900Y1549024D02*
Y1549355D01*
Y1551640D02*
Y1551977D01*
X2157000Y1548988D02*
Y1549275D01*
Y1551720D02*
Y1552027D01*
X2157100Y1548966D02*
Y1549216D01*
Y1551779D02*
Y1552046D01*
X2157200Y1548943D02*
Y1549196D01*
Y1551799D02*
Y1552060D01*
X2157300Y1548921D02*
Y1549176D01*
Y1551819D02*
Y1552075D01*
X2157400Y1548931D02*
Y1549192D01*
Y1551805D02*
Y1552058D01*
X2157500Y1548945D02*
Y1549212D01*
Y1551789D02*
Y1552038D01*
X2157600Y1548960D02*
Y1549259D01*
Y1551770D02*
Y1552018D01*
X2157700Y1549007D02*
Y1549339D01*
Y1551652D02*
Y1551998D01*
X2157800Y1549057D02*
Y1549424D01*
Y1551526D02*
Y1551942D01*
X2157900Y1549139D02*
Y1549644D01*
Y1551351D02*
Y1551867D01*
X2158000Y1549264D02*
Y1551733D01*
X2158100Y1549469D02*
Y1551493D01*
X2158200Y1549800D02*
Y1551218D01*
X2158900Y1548962D02*
Y1551184D01*
X2159000Y1548962D02*
Y1551184D01*
X2159100Y1548962D02*
Y1551184D01*
X2159200Y1550474D02*
Y1550836D01*
X2159300Y1550673D02*
Y1550876D01*
X2159400Y1550793D02*
Y1550976D01*
X2159500Y1550885D02*
Y1551076D01*
X2159600Y1550913D02*
Y1551132D01*
X2159700Y1550942D02*
Y1551172D01*
X2159800Y1550970D02*
Y1551202D01*
X2159900Y1550950D02*
Y1551227D01*
X2160000Y1550925D02*
Y1551207D01*
X2160100Y1550862D02*
Y1551187D01*
X2160200Y1550744D02*
Y1551149D01*
X2160300Y1548962D02*
Y1551109D01*
X2160400Y1548962D02*
Y1551019D01*
X2160500Y1548962D02*
Y1550858D01*
X2160600Y1550511D02*
Y1550793D01*
X2160700Y1550703D02*
Y1550954D01*
X2160800Y1550811D02*
Y1551066D01*
X2160900Y1550886D02*
Y1551141D01*
X2161000Y1550934D02*
Y1551167D01*
X2161100Y1550954D02*
Y1551191D01*
X2161200Y1550971D02*
Y1551211D01*
X2161300Y1550951D02*
Y1551226D01*
X2161400Y1550931D02*
Y1551211D01*
X2161500Y1550849D02*
Y1551197D01*
X2161600Y1550709D02*
Y1551173D01*
X2161700Y1548962D02*
Y1551113D01*
X2161800Y1548962D02*
Y1551026D01*
X2161900Y1548962D02*
Y1550826D01*
X2162700Y1548962D02*
Y1551184D01*
X2162800Y1548962D02*
Y1551184D01*
X2162900Y1548962D02*
Y1551184D01*
X2163000Y1550613D02*
Y1550831D01*
X2163100Y1550733D02*
Y1550926D01*
X2163200Y1550853D02*
Y1551026D01*
X2163300Y1550899D02*
Y1551112D01*
X2163400Y1550928D02*
Y1551152D01*
X2163500Y1550956D02*
Y1551190D01*
X2163600Y1550963D02*
Y1551215D01*
X2163700Y1550938D02*
Y1551217D01*
X2163800Y1550896D02*
Y1551197D01*
X2163900Y1550829D02*
Y1551169D01*
X2164000Y1550644D02*
Y1551129D01*
X2164100Y1548962D02*
Y1551069D01*
X2164200Y1548962D02*
Y1550958D01*
X2164300Y1548962D02*
Y1550786D01*
X2164400Y1550637D02*
Y1550870D01*
X2164500Y1550770D02*
Y1551028D01*
X2164600Y1550849D02*
Y1551103D01*
X2164700Y1550922D02*
Y1551155D01*
X2164800Y1550944D02*
Y1551180D01*
X2164900Y1550964D02*
Y1551201D01*
X2165000Y1550961D02*
Y1551221D01*
X2165100Y1550941D02*
Y1551218D01*
X2165200Y1550914D02*
Y1551204D01*
X2165300Y1550783D02*
Y1551190D01*
X2165400Y1548962D02*
Y1551143D01*
X2165500Y1548962D02*
Y1551083D01*
X2165600Y1548962D02*
Y1550926D01*
X2369700Y1731201D02*
Y1731663D01*
X2369800Y1730914D02*
Y1731927D01*
Y1732639D02*
Y1733182D01*
X2369900Y1730739D02*
Y1732027D01*
Y1732470D02*
Y1733302D01*
X2370000Y1730665D02*
Y1731091D01*
Y1731624D02*
Y1732090D01*
Y1732373D02*
Y1733419D01*
X2370100Y1730603D02*
Y1730924D01*
Y1731803D02*
Y1732123D01*
Y1732313D02*
Y1732621D01*
Y1733082D02*
Y1733486D01*
X2370200Y1730540D02*
Y1730868D01*
Y1731921D02*
Y1732156D01*
Y1732253D02*
Y1732476D01*
Y1733227D02*
Y1733553D01*
X2370300Y1730505D02*
Y1730817D01*
Y1731996D02*
Y1732425D01*
Y1733277D02*
Y1733590D01*
X2370400Y1730494D02*
Y1730750D01*
Y1732038D02*
Y1732378D01*
Y1733325D02*
Y1733601D01*
X2370500Y1730483D02*
Y1730725D01*
Y1732054D02*
Y1732358D01*
Y1733345D02*
Y1733612D01*
X2370600Y1730472D02*
Y1730725D01*
Y1732071D02*
Y1732338D01*
Y1733365D02*
Y1733623D01*
X2370700Y1730476D02*
Y1730736D01*
Y1732065D02*
Y1732345D01*
Y1733357D02*
Y1733619D01*
X2370800Y1730487D02*
Y1730753D01*
Y1732048D02*
Y1732365D01*
Y1733337D02*
Y1733608D01*
X2370900Y1730498D02*
Y1730770D01*
Y1732031D02*
Y1732394D01*
Y1733309D02*
Y1733597D01*
X2371000Y1730510D02*
Y1730833D01*
Y1731968D02*
Y1732444D01*
Y1733259D02*
Y1733586D01*
X2371100Y1730564D02*
Y1730908D01*
Y1731893D02*
Y1732137D01*
Y1732276D02*
Y1732527D01*
Y1733164D02*
Y1733528D01*
X2371200Y1730626D02*
Y1731034D01*
Y1731740D02*
Y1732087D01*
Y1732336D02*
Y1732755D01*
Y1732903D02*
Y1733461D01*
X2371300Y1730689D02*
Y1731359D01*
Y1731437D02*
Y1732037D01*
Y1732408D02*
Y1733377D01*
X2371400Y1730804D02*
Y1731945D01*
Y1732514D02*
Y1733257D01*
X2371500Y1730979D02*
Y1731817D01*
Y1732760D02*
Y1732976D01*
X2371600Y1731370D02*
Y1731445D01*
X2372200Y1731201D02*
Y1731663D01*
X2372300Y1730914D02*
Y1731927D01*
Y1732639D02*
Y1733182D01*
X2372400Y1730739D02*
Y1732027D01*
Y1732470D02*
Y1733302D01*
X2372500Y1730665D02*
Y1731091D01*
Y1731624D02*
Y1732090D01*
Y1732373D02*
Y1733419D01*
X2372600Y1730603D02*
Y1730924D01*
Y1731803D02*
Y1732123D01*
Y1732313D02*
Y1732621D01*
Y1733082D02*
Y1733486D01*
X2372700Y1730540D02*
Y1730868D01*
Y1731921D02*
Y1732156D01*
Y1732253D02*
Y1732476D01*
Y1733227D02*
Y1733553D01*
X2372800Y1730505D02*
Y1730817D01*
Y1731996D02*
Y1732425D01*
Y1733277D02*
Y1733590D01*
X2372900Y1730494D02*
Y1730750D01*
Y1732038D02*
Y1732378D01*
Y1733325D02*
Y1733601D01*
X2373000Y1730483D02*
Y1730725D01*
Y1732054D02*
Y1732358D01*
Y1733345D02*
Y1733612D01*
X2373100Y1730472D02*
Y1730725D01*
Y1732071D02*
Y1732338D01*
Y1733365D02*
Y1733623D01*
X2373200Y1730476D02*
Y1730736D01*
Y1732065D02*
Y1732345D01*
Y1733357D02*
Y1733619D01*
X2373300Y1730487D02*
Y1730753D01*
Y1732048D02*
Y1732365D01*
Y1733337D02*
Y1733608D01*
X2373400Y1730498D02*
Y1730770D01*
Y1732031D02*
Y1732394D01*
Y1733309D02*
Y1733597D01*
X2373500Y1730510D02*
Y1730833D01*
Y1731968D02*
Y1732444D01*
Y1733259D02*
Y1733586D01*
X2373600Y1730564D02*
Y1730908D01*
Y1731893D02*
Y1732137D01*
Y1732276D02*
Y1732527D01*
Y1733164D02*
Y1733528D01*
X2373700Y1730626D02*
Y1731034D01*
Y1731740D02*
Y1732087D01*
Y1732336D02*
Y1732755D01*
Y1732903D02*
Y1733461D01*
X2373800Y1730689D02*
Y1731359D01*
Y1731437D02*
Y1732037D01*
Y1732408D02*
Y1733377D01*
X2373900Y1730804D02*
Y1731945D01*
Y1732514D02*
Y1733257D01*
X2374000Y1730979D02*
Y1731817D01*
Y1732760D02*
Y1732976D01*
X2374100Y1731370D02*
Y1731445D01*
X2374900Y1730513D02*
Y1730815D01*
X2375000Y1730513D02*
Y1730815D01*
X2375100Y1730513D02*
Y1730815D01*
X2376000Y1731252D02*
Y1732785D01*
X2376100Y1730940D02*
Y1733096D01*
X2376200Y1730773D02*
Y1733292D01*
X2376300Y1730697D02*
Y1731157D01*
Y1732939D02*
Y1733417D01*
X2376400Y1730626D02*
Y1730963D01*
Y1733133D02*
Y1733492D01*
X2376500Y1730554D02*
Y1730882D01*
Y1733213D02*
Y1733542D01*
X2376600Y1730532D02*
Y1730802D01*
Y1733293D02*
Y1733587D01*
X2376700Y1730510D02*
Y1730761D01*
Y1733335D02*
Y1733601D01*
X2376800Y1730488D02*
Y1730741D01*
Y1733355D02*
Y1733615D01*
X2376900Y1730471D02*
Y1730728D01*
Y1733368D02*
Y1733622D01*
X2377000Y1730486D02*
Y1730748D01*
Y1733351D02*
Y1733602D01*
X2377100Y1730500D02*
Y1730768D01*
Y1733334D02*
Y1733582D01*
X2377200Y1730522D02*
Y1730832D01*
Y1733292D02*
Y1733562D01*
X2377300Y1730572D02*
Y1730912D01*
Y1733167D02*
Y1733542D01*
X2377400Y1730622D02*
Y1731031D01*
Y1733034D02*
Y1733471D01*
X2377500Y1730725D02*
Y1731337D01*
Y1732758D02*
Y1733379D01*
X2377600Y1730853D02*
Y1733240D01*
X2377700Y1731087D02*
Y1732965D01*
X2377800Y1731480D02*
Y1732668D01*
X2378500Y1730513D02*
Y1732734D01*
X2378600Y1730513D02*
Y1732734D01*
X2378700Y1730513D02*
Y1732734D01*
X2378800Y1732135D02*
Y1732377D01*
X2378900Y1732258D02*
Y1732456D01*
X2379000Y1732378D02*
Y1732556D01*
X2379100Y1732444D02*
Y1732654D01*
X2379200Y1732472D02*
Y1732694D01*
X2379300Y1732501D02*
Y1732734D01*
X2379400Y1732519D02*
Y1732760D01*
X2379500Y1732494D02*
Y1732772D01*
X2379600Y1732461D02*
Y1732752D01*
X2379700Y1732394D02*
Y1732728D01*
X2379800Y1732237D02*
Y1732688D01*
X2379900Y1730513D02*
Y1732641D01*
X2380000Y1730513D02*
Y1732541D01*
X2380100Y1730513D02*
Y1732353D01*
X2380200Y1732159D02*
Y1732385D01*
X2380300Y1732292D02*
Y1732552D01*
X2380400Y1732383D02*
Y1732638D01*
X2380500Y1732458D02*
Y1732700D01*
X2380600Y1732490D02*
Y1732725D01*
X2380700Y1732510D02*
Y1732747D01*
X2380800Y1732516D02*
Y1732767D01*
X2380900Y1732496D02*
Y1732772D01*
X2381000Y1732476D02*
Y1732758D01*
X2381100Y1732362D02*
Y1732743D01*
X2381200Y1732174D02*
Y1732706D01*
X2381300Y1730513D02*
Y1732646D01*
X2381400Y1730513D02*
Y1732519D01*
X2381500Y1730513D02*
Y1732198D01*
X2382200Y1730513D02*
Y1732734D01*
X2382300Y1730513D02*
Y1732734D01*
X2382400Y1730513D02*
Y1732734D01*
X2382500Y1730513D02*
Y1732734D01*
X2382600Y1732198D02*
Y1732406D01*
X2382700Y1732318D02*
Y1732506D01*
X2382800Y1732429D02*
Y1732606D01*
X2382900Y1732458D02*
Y1732674D01*
X2383000Y1732486D02*
Y1732714D01*
X2383100Y1732515D02*
Y1732747D01*
X2383200Y1732506D02*
Y1732772D01*
X2383300Y1732481D02*
Y1732762D01*
X2383400Y1732427D02*
Y1732742D01*
X2383500Y1732337D02*
Y1732708D01*
X2383600Y1730513D02*
Y1732668D01*
X2383700Y1730513D02*
Y1732591D01*
X2383800Y1730513D02*
Y1732451D01*
X2383900Y1731912D02*
Y1732334D01*
X2384000Y1732225D02*
Y1732468D01*
X2384100Y1732346D02*
Y1732600D01*
X2384200Y1732421D02*
Y1732675D01*
X2384300Y1732480D02*
Y1732713D01*
X2384400Y1732500D02*
Y1732737D01*
X2384500Y1732520D02*
Y1732757D01*
X2384600Y1732506D02*
Y1732777D01*
X2384700Y1732486D02*
Y1732765D01*
X2384800Y1732428D02*
Y1732751D01*
X2384900Y1732295D02*
Y1732736D01*
X2385000Y1730513D02*
Y1732676D01*
X2385100Y1730513D02*
Y1732616D01*
X2385200Y1730513D02*
Y1732419D01*
*
G04 PC Custom Flashes*
G04 Layer Name ESP_WROOM_02_1213.pcb - flashes*
%LPD*%
*
*
G04 PC Circuitry*
G04 Layer Name ESP_WROOM_02_1213.pcb - circuitry*
%LPD*%
*
G54D10*
X1968504Y1559055D02*
X1968507D01*
X2346457Y1559449D02*
X2346459D01*
X2345669Y1559055D02*
X2345672D01*
X2341641Y1905621D02*
X2341644D01*
G54D24*
X1968504Y1653543D02*
X2039370D01*
Y1574803*
X1968504*
Y1653543*
Y1732283D02*
X2039370D01*
Y1653543*
X1968504*
Y1732283*
Y1811024D02*
X2039370D01*
Y1732283*
X1968504*
Y1811024*
X2045276Y1653543D02*
X2116142D01*
Y1574803*
X2045276*
Y1653543*
Y1732283D02*
X2116142D01*
Y1653543*
X2045276*
Y1732283*
Y1811024D02*
X2116142D01*
Y1732283*
X2045276*
Y1811024*
X2122047Y1653543D02*
X2192913D01*
Y1574803*
X2122047*
Y1653543*
Y1732283D02*
X2192913D01*
Y1653543*
X2122047*
Y1732283*
Y1811024D02*
X2192913D01*
Y1732283*
X2122047*
Y1811024*
X2198819Y1653543D02*
X2269685D01*
Y1574803*
X2198819*
Y1653543*
Y1732283D02*
X2269685D01*
Y1653543*
X2198819*
Y1732283*
Y1811024D02*
X2269685D01*
Y1732283*
X2198819*
Y1811024*
X2275591Y1653543D02*
X2346457D01*
Y1574803*
X2275591*
Y1653543*
Y1732283D02*
X2346457D01*
Y1653543*
X2275591*
Y1732283*
Y1811024D02*
X2346457D01*
Y1732283*
X2275591*
Y1811024*
X1968504Y1550787D02*
X2146810D01*
X1968504D02*
X1973504Y1551787D01*
Y1549787*
X1968504Y1550787*
X2346457D02*
X2168151D01*
X2346457D02*
X2341457Y1549787D01*
Y1551787*
X2346457Y1550787*
X1968504Y1557055D02*
Y1548787D01*
X2346457Y1557449D02*
Y1548787D01*
X2377165Y1559055D02*
Y1727463D01*
Y1559055D02*
X2376165Y1564055D01*
X2378165*
X2377165Y1559055*
Y1905621D02*
Y1737213D01*
Y1905621D02*
X2378165Y1900621D01*
X2376165*
X2377165Y1905621*
X2347669Y1559055D02*
X2379165D01*
X2343641Y1905621D02*
X2379165D01*
X1968504Y1889764D02*
X2039370D01*
Y1811024*
X1968504*
Y1889764*
X2045276D02*
X2116142D01*
Y1811024*
X2045276*
Y1889764*
X2122047D02*
X2192913D01*
Y1811024*
X2122047*
Y1889764*
X2198819D02*
X2269685D01*
Y1811024*
X2198819*
Y1889764*
X2275591D02*
X2346457D01*
Y1811024*
X2275591*
Y1889764*
G54D31*
X1968504Y1574803D02*
X2346457D01*
X2045276D02*
Y1811024D01*
X2122047Y1574803D02*
Y1811024D01*
X2198819Y1574803D02*
Y1811024D01*
X2275591Y1574803D02*
Y1811024D01*
X1968504Y1889764D02*
X2346457D01*
X1968504Y1811024D02*
Y1905512D01*
X2346457*
Y1811024*
X1968504Y1574803D02*
Y1559055D01*
X2346457*
Y1574803*
X1992126Y1566929D02*
G75*
G03X1992126I-3937J0D01*
G01X2330709D02*
G03X2330709I-3937J0D01*
G01Y1897638D02*
G03X2330709I-3937J0D01*
G01X1992126D02*
G03X1992126I-3937J0D01*
G74*
G01X0Y0D02*
M02*
