*
*
G04 PADS 9.5 Build Number: 522968 generated Gerber (RS-274-X) file*
G04 PC Version=2.1*
*
%IN "ESP_WROOM_02_1213.pcb"*%
*
%MOIN*%
*
%FSLAX35Y35*%
*
*
*
*
G04 PC Standard Apertures*
*
*
G04 Thermal Relief Aperture macro.*
%AMTER*
1,1,$1,0,0*
1,0,$1-$2,0,0*
21,0,$3,$4,0,0,45*
21,0,$3,$4,0,0,135*
%
*
*
G04 Annular Aperture macro.*
%AMANN*
1,1,$1,0,0*
1,0,$2,0,0*
%
*
*
G04 Odd Aperture macro.*
%AMODD*
1,1,$1,0,0*
1,0,$1-0.005,0,0*
%
*
*
G04 PC Custom Aperture Macros*
*
*
*
*
*
*
G04 PC Aperture Table*
*
%ADD010C,0.001*%
%ADD012C,0.01*%
%ADD031C,0.00394*%
%ADD036C,0.02362*%
%ADD039R,0.02315X0.02315*%
%ADD040R,0.03858X0.04646*%
%ADD041R,0.01417X0.03071*%
%ADD042R,0.03071X0.01417*%
%ADD043R,0.13701X0.13701*%
%ADD045R,0.03515X0.03915*%
%ADD047R,0.02677X0.05827*%
%ADD048C,0.04252*%
%ADD057C,0.02559*%
%ADD061O,0.02283X0.02283*%
%ADD062R,0.03858X0.03858*%
*
*
*
*
G04 PC Circuitry*
G04 Layer Name ESP_WROOM_02_1213.pcb - circuitry*
%LPD*%
*
*
G04 PC Custom Flashes*
G04 Layer Name ESP_WROOM_02_1213.pcb - flashes*
%LPD*%
*
*
G04 PC Circuitry*
G04 Layer Name ESP_WROOM_02_1213.pcb - circuitry*
%LPD*%
*
G54D10*
G54D12*
G01X2007690Y1620855D02*
X2006760Y1619925D01*
X2007690Y1618995*
X2008620Y1619925*
X2007690Y1620855*
X2006882Y1619803D02*
X2008497D01*
X2007638Y1620803D02*
X2007742D01*
X2007504Y1619181D02*
Y1620669D01*
X2008504Y1619810D02*
Y1620041D01*
X2010518Y1618027D02*
X2009588Y1617097D01*
X2010518Y1616167*
X2011448Y1617097*
X2010518Y1618027*
X2009882Y1616803D02*
X2011154D01*
X2010295Y1617803D02*
X2010742D01*
X2010504Y1616181D02*
Y1618012D01*
X2002290Y1620527D02*
X2001360Y1619597D01*
X2002290Y1618667*
X2003220Y1619597*
X2002290Y1620527*
X2002154Y1618803D02*
X2002426D01*
X2001566Y1619803D02*
X2003013D01*
X2001504Y1619453D02*
Y1619741D01*
X2002504Y1618881D02*
Y1620312D01*
X2005118Y1623355D02*
X2004188Y1622425D01*
X2005118Y1621495*
X2006048Y1622425*
X2005118Y1623355*
X2004810Y1621803D02*
X2005426D01*
X2004566Y1622803D02*
X2005670D01*
X2004504Y1622110D02*
Y1622741D01*
X2005504Y1621881D02*
Y1622969D01*
X2016018Y1618255D02*
X2015088Y1617325D01*
X2016018Y1616395*
X2016948Y1617325*
X2016018Y1618255*
X2015610Y1616803D02*
X2016426D01*
X2015566Y1617803D02*
X2016470D01*
X2015504Y1616910D02*
Y1617741D01*
X2016504Y1616881D02*
Y1617769D01*
X2013190Y1615427D02*
X2012260Y1614497D01*
X2013190Y1613567*
X2014120Y1614497*
X2013190Y1615427*
X2012954Y1613803D02*
X2013426D01*
X2012566Y1614803D02*
X2013813D01*
X2012504Y1614253D02*
Y1614741D01*
X2013504Y1613881D02*
Y1615112D01*
X2026414Y1650547D02*
Y1630946D01*
X2028196*
Y1650547*
X2026414*
X2026504Y1630946D02*
Y1650547D01*
X2027004Y1630946D02*
Y1650547D01*
X2027504Y1630946D02*
Y1650547D01*
X2028004Y1630946D02*
Y1650547D01*
X1971795Y1651520D02*
Y1633807D01*
X1973079*
Y1649963*
X1973131Y1650088*
X1973227Y1650185*
X1973353Y1650237*
X1980182*
X1980308Y1650185*
X1980405Y1650088*
X1980457Y1649963*
Y1639607*
X1991583*
Y1649963*
X1991635Y1650088*
X1991731Y1650185*
X1991857Y1650237*
X1999080*
X1999206Y1650185*
X1999302Y1650088*
X1999354Y1649963*
Y1639607*
X2010480*
Y1649963*
X2010532Y1650088*
X2010629Y1650185*
X2010755Y1650237*
X2017584*
X2017710Y1650185*
X2017806Y1650088*
X2017858Y1649963*
Y1630946*
X2019142*
Y1649963*
X2019194Y1650088*
X2019290Y1650185*
X2019416Y1650237*
X2028197*
Y1651520*
X2009197*
Y1641165*
X2009145Y1641039*
X2009048Y1640943*
X2008922Y1640891*
X2000912*
X2000786Y1640943*
X2000690Y1641039*
X2000638Y1641165*
Y1651520*
X1990299*
Y1641165*
X1990247Y1641039*
X1990151Y1640943*
X1990025Y1640891*
X1982015*
X1981889Y1640943*
X1981792Y1641039*
X1981740Y1641165*
Y1651520*
X1971795*
X1972004Y1633807D02*
Y1651520D01*
X1972504Y1633807D02*
Y1651520D01*
X1973004Y1633807D02*
Y1651520D01*
X1973504Y1650237D02*
Y1651520D01*
X1974004Y1650237D02*
Y1651520D01*
X1974504Y1650237D02*
Y1651520D01*
X1975004Y1650237D02*
Y1651520D01*
X1975504Y1650237D02*
Y1651520D01*
X1976004Y1650237D02*
Y1651520D01*
X1976504Y1650237D02*
Y1651520D01*
X1977004Y1650237D02*
Y1651520D01*
X1977504Y1650237D02*
Y1651520D01*
X1978004Y1650237D02*
Y1651520D01*
X1978504Y1650237D02*
Y1651520D01*
X1979004Y1650237D02*
Y1651520D01*
X1979504Y1650237D02*
Y1651520D01*
X1980004Y1650237D02*
Y1651520D01*
X1980504Y1639607D02*
Y1651520D01*
X1981004Y1639607D02*
Y1651520D01*
X1981504Y1639607D02*
Y1651520D01*
X1982004Y1639607D02*
Y1640895D01*
X1982504Y1639607D02*
Y1640891D01*
X1983004Y1639607D02*
Y1640891D01*
X1983504Y1639607D02*
Y1640891D01*
X1984004Y1639607D02*
Y1640891D01*
X1984504Y1639607D02*
Y1640891D01*
X1985004Y1639607D02*
Y1640891D01*
X1985504Y1639607D02*
Y1640891D01*
X1986004Y1639607D02*
Y1640891D01*
X1986504Y1639607D02*
Y1640891D01*
X1987004Y1639607D02*
Y1640891D01*
X1987504Y1639607D02*
Y1640891D01*
X1988004Y1639607D02*
Y1640891D01*
X1988504Y1639607D02*
Y1640891D01*
X1989004Y1639607D02*
Y1640891D01*
X1989504Y1639607D02*
Y1640891D01*
X1990004Y1639607D02*
Y1640891D01*
X1990504Y1639607D02*
Y1651520D01*
X1991004Y1639607D02*
Y1651520D01*
X1991504Y1639607D02*
Y1651520D01*
X1992004Y1650237D02*
Y1651520D01*
X1992504Y1650237D02*
Y1651520D01*
X1993004Y1650237D02*
Y1651520D01*
X1993504Y1650237D02*
Y1651520D01*
X1994004Y1650237D02*
Y1651520D01*
X1994504Y1650237D02*
Y1651520D01*
X1995004Y1650237D02*
Y1651520D01*
X1995504Y1650237D02*
Y1651520D01*
X1996004Y1650237D02*
Y1651520D01*
X1996504Y1650237D02*
Y1651520D01*
X1997004Y1650237D02*
Y1651520D01*
X1997504Y1650237D02*
Y1651520D01*
X1998004Y1650237D02*
Y1651520D01*
X1998504Y1650237D02*
Y1651520D01*
X1999004Y1650237D02*
Y1651520D01*
X1999504Y1639607D02*
Y1651520D01*
X2000004Y1639607D02*
Y1651520D01*
X2000504Y1639607D02*
Y1651520D01*
X2001004Y1639607D02*
Y1640891D01*
X2001504Y1639607D02*
Y1640891D01*
X2002004Y1639607D02*
Y1640891D01*
X2002504Y1639607D02*
Y1640891D01*
X2003004Y1639607D02*
Y1640891D01*
X2003504Y1639607D02*
Y1640891D01*
X2004004Y1639607D02*
Y1640891D01*
X2004504Y1639607D02*
Y1640891D01*
X2005004Y1639607D02*
Y1640891D01*
X2005504Y1639607D02*
Y1640891D01*
X2006004Y1639607D02*
Y1640891D01*
X2006504Y1639607D02*
Y1640891D01*
X2007004Y1639607D02*
Y1640891D01*
X2007504Y1639607D02*
Y1640891D01*
X2008004Y1639607D02*
Y1640891D01*
X2008504Y1639607D02*
Y1640891D01*
X2009004Y1639607D02*
Y1640924D01*
X2009504Y1639607D02*
Y1651520D01*
X2010004Y1639607D02*
Y1651520D01*
X2010504Y1650020D02*
Y1651520D01*
X2011004Y1650237D02*
Y1651520D01*
X2011504Y1650237D02*
Y1651520D01*
X2012004Y1650237D02*
Y1651520D01*
X2012504Y1650237D02*
Y1651520D01*
X2013004Y1650237D02*
Y1651520D01*
X2013504Y1650237D02*
Y1651520D01*
X2014004Y1650237D02*
Y1651520D01*
X2014504Y1650237D02*
Y1651520D01*
X2015004Y1650237D02*
Y1651520D01*
X2015504Y1650237D02*
Y1651520D01*
X2016004Y1650237D02*
Y1651520D01*
X2016504Y1650237D02*
Y1651520D01*
X2017004Y1650237D02*
Y1651520D01*
X2017504Y1650237D02*
Y1651520D01*
X2018004Y1630946D02*
Y1651520D01*
X2018504Y1630946D02*
Y1651520D01*
X2019004Y1630946D02*
Y1651520D01*
X2019504Y1650237D02*
Y1651520D01*
X2020004Y1650237D02*
Y1651520D01*
X2020504Y1650237D02*
Y1651520D01*
X2021004Y1650237D02*
Y1651520D01*
X2021504Y1650237D02*
Y1651520D01*
X2022004Y1650237D02*
Y1651520D01*
X2022504Y1650237D02*
Y1651520D01*
X2023004Y1650237D02*
Y1651520D01*
X2023504Y1650237D02*
Y1651520D01*
X2024004Y1650237D02*
Y1651520D01*
X2024504Y1650237D02*
Y1651520D01*
X2025004Y1650237D02*
Y1651520D01*
X2025504Y1650237D02*
Y1651520D01*
X2026004Y1650237D02*
Y1651520D01*
X2026504Y1650237D02*
Y1651520D01*
X2027004Y1650237D02*
Y1651520D01*
X2027504Y1650237D02*
Y1651520D01*
X2028004Y1650237D02*
Y1651520D01*
G54D31*
X1968504Y1653543D02*
X2039370D01*
Y1574803*
X1968504*
Y1653543*
G54D36*
X2034452Y1625984D02*
X2008074D01*
X2001381D02*
X1973428D01*
X2025304Y1578248D02*
X2034452D01*
X2027759D02*
X1973428D01*
G54D39*
X2025404Y1604411D03*
X2029404D03*
X2030404Y1587511D03*
X2026404D03*
X2028704Y1609611D03*
X2024704D03*
X2010804Y1584011D03*
X2006804D03*
X1996404Y1618011D03*
Y1622011D03*
G54D40*
X2024413Y1599751D03*
Y1592271D03*
X2030318D03*
Y1599751D03*
G54D41*
X2015194Y1609449D03*
X2013225D03*
X2011257D03*
X2009288D03*
X2007320D03*
X2005351D03*
X2003383D03*
X2001414D03*
Y1589764D03*
X2003383D03*
X2005351D03*
X2007320D03*
X2009288D03*
X2011257D03*
X2013225D03*
X2015194D03*
G54D42*
X1998461Y1606496D03*
Y1604528D03*
Y1602559D03*
Y1600591D03*
Y1598622D03*
Y1596654D03*
Y1594685D03*
Y1592717D03*
X2018146D03*
Y1594685D03*
Y1596654D03*
Y1598622D03*
Y1600591D03*
Y1602559D03*
Y1604528D03*
Y1606496D03*
G54D43*
X2008304Y1599606D03*
G54D45*
X1991554Y1619311D03*
X1985054D03*
X2023154Y1615211D03*
X2029654D03*
G54D47*
X1992346Y1610827D03*
X1987346D03*
X1982346D03*
X1977346D03*
Y1589567D03*
X1982346D03*
X1987346D03*
X1992346D03*
G54D48*
X2007874Y1566929D03*
X2307087D03*
Y1897638D03*
X2015748D03*
G54D57*
X1973425Y1625984D02*
Y1578642D01*
X2034646Y1625984D02*
Y1578642D01*
G54D61*
X2018504Y1631405D03*
X2027307D03*
G54D62*
X1968504Y1613780D03*
Y1607874D03*
Y1596063D03*
Y1584252D03*
X2039370Y1619685D03*
Y1613780D03*
Y1601969D03*
Y1625591D03*
X1968504Y1578346D03*
Y1625591D03*
Y1601969D03*
Y1590157D03*
X2039370Y1578346D03*
X1968504Y1619685D03*
X2039370Y1607874D03*
Y1584252D03*
Y1590157D03*
Y1596063D03*
X0Y0D02*
M02*
