*
*
G04 PADS 9.5 Build Number: 522968 generated Gerber (RS-274-X) file*
G04 PC Version=2.1*
*
%IN "ESP_WROOM_02_1213.pcb"*%
*
%MOIN*%
*
%FSLAX35Y35*%
*
*
*
*
G04 PC Standard Apertures*
*
*
G04 Thermal Relief Aperture macro.*
%AMTER*
1,1,$1,0,0*
1,0,$1-$2,0,0*
21,0,$3,$4,0,0,45*
21,0,$3,$4,0,0,135*
%
*
*
G04 Annular Aperture macro.*
%AMANN*
1,1,$1,0,0*
1,0,$2,0,0*
%
*
*
G04 Odd Aperture macro.*
%AMODD*
1,1,$1,0,0*
1,0,$1-0.005,0,0*
%
*
*
G04 PC Custom Aperture Macros*
*
*
*
*
*
*
G04 PC Aperture Table*
*
%ADD010C,0.001*%
%ADD011R,0.02X0.02*%
%ADD012C,0.01*%
%ADD013R,0.03543X0.04331*%
%ADD014R,0.01102X0.02756*%
%ADD015R,0.02756X0.01102*%
%ADD016R,0.13386X0.13386*%
%ADD018R,0.032X0.036*%
%ADD020R,0.02362X0.05512*%
%ADD021C,0.03937*%
%ADD024C,0.005*%
%ADD025C,0.006*%
%ADD026C,0.01181*%
%ADD027C,0.01102*%
%ADD028C,0.00984*%
%ADD029C,0.00787*%
%ADD030C,0.01575*%
%ADD031C,0.00394*%
%ADD056C,0.012*%
%ADD057C,0.02559*%
%ADD058O,0.01969X0.01969*%
%ADD059R,0.03543X0.03543*%
%ADD060C,0.015*%
*
*
*
*
G04 PC Circuitry*
G04 Layer Name ESP_WROOM_02_1213.pcb - circuitry*
%LPD*%
*
*
G04 PC Custom Flashes*
G04 Layer Name ESP_WROOM_02_1213.pcb - flashes*
%LPD*%
*
*
G04 PC Circuitry*
G04 Layer Name ESP_WROOM_02_1213.pcb - circuitry*
%LPD*%
*
G54D10*
G54D11*
G01X2025404Y1604411D03*
X2029404D03*
X2030404Y1587511D03*
X2026404D03*
X2028704Y1609611D03*
X2024704D03*
X2010804Y1584011D03*
X2006804D03*
X1996404Y1618011D03*
Y1622011D03*
G54D12*
X2007690Y1620632D02*
X2006983Y1619925D01*
X2007690Y1619218*
X2008397Y1619925*
X2007690Y1620632*
X2007105Y1619803D02*
X2008275D01*
X2007504Y1619404D02*
Y1620447D01*
X2010518Y1617804D02*
X2009811Y1617097D01*
X2010518Y1616390*
X2011225Y1617097*
X2010518Y1617804*
X2010105Y1616803D02*
X2010932D01*
X2010517Y1617803D02*
X2010519D01*
X2010504Y1616404D02*
Y1617790D01*
X2002290Y1620304D02*
X2001583Y1619597D01*
X2002290Y1618890*
X2002997Y1619597*
X2002290Y1620304*
X2001789Y1619803D02*
X2002790D01*
X2002504Y1619104D02*
Y1620090D01*
X2005118Y1623132D02*
X2004411Y1622425D01*
X2005118Y1621718*
X2005825Y1622425*
X2005118Y1623132*
X2005033Y1621803D02*
X2005203D01*
X2004789Y1622803D02*
X2005447D01*
X2004504Y1622332D02*
Y1622518D01*
X2005504Y1622104D02*
Y1622747D01*
X2016018Y1618032D02*
X2015311Y1617325D01*
X2016018Y1616618*
X2016725Y1617325*
X2016018Y1618032*
X2015833Y1616803D02*
X2016203D01*
X2015789Y1617803D02*
X2016247D01*
X2015504Y1617132D02*
Y1617518D01*
X2016504Y1617104D02*
Y1617547D01*
X2013190Y1615204D02*
X2012483Y1614497D01*
X2013190Y1613790*
X2013897Y1614497*
X2013190Y1615204*
X2013176Y1613803D02*
X2013203D01*
X2012789Y1614803D02*
X2013590D01*
X2012504Y1614475D02*
Y1614518D01*
X2013504Y1614104D02*
Y1614890D01*
X2026572Y1650390D02*
Y1631103D01*
X2028039*
Y1650390*
X2026572*
X2027004Y1631103D02*
Y1650390D01*
X2027504Y1631103D02*
Y1650390D01*
X2028004Y1631103D02*
Y1650390D01*
X1971953Y1651363D02*
Y1633965D01*
X1972921*
Y1649974*
X1972970Y1650124*
X1973063Y1650252*
X1973191Y1650346*
X1973342Y1650394*
X1980193*
X1980344Y1650346*
X1980472Y1650252*
X1980565Y1650124*
X1980614Y1649974*
Y1639765*
X1991425*
Y1649974*
X1991474Y1650124*
X1991567Y1650252*
X1991695Y1650346*
X1991846Y1650394*
X1999091*
X1999242Y1650346*
X1999370Y1650252*
X1999463Y1650124*
X1999512Y1649974*
Y1639765*
X2010323*
Y1649974*
X2010372Y1650124*
X2010465Y1650252*
X2010593Y1650346*
X2010744Y1650394*
X2017595*
X2017746Y1650346*
X2017874Y1650252*
X2017967Y1650124*
X2018016Y1649974*
Y1631103*
X2018984*
Y1649974*
X2019033Y1650124*
X2019126Y1650252*
X2019254Y1650346*
X2019405Y1650394*
X2028039*
Y1651363*
X2009354*
Y1641154*
X2009305Y1641003*
X2009212Y1640875*
X2009084Y1640782*
X2008934Y1640733*
X2000901*
X2000750Y1640782*
X2000622Y1640875*
X2000529Y1641003*
X2000480Y1641154*
Y1651363*
X1990457*
Y1641154*
X1990408Y1641003*
X1990315Y1640875*
X1990187Y1640782*
X1990036Y1640733*
X1982003*
X1981853Y1640782*
X1981725Y1640875*
X1981632Y1641003*
X1981583Y1641154*
Y1651363*
X1971953*
X1972004Y1633965D02*
Y1651363D01*
X1972504Y1633965D02*
Y1651363D01*
X1973004Y1650171D02*
Y1651363D01*
X1973504Y1650394D02*
Y1651363D01*
X1974004Y1650394D02*
Y1651363D01*
X1974504Y1650394D02*
Y1651363D01*
X1975004Y1650394D02*
Y1651363D01*
X1975504Y1650394D02*
Y1651363D01*
X1976004Y1650394D02*
Y1651363D01*
X1976504Y1650394D02*
Y1651363D01*
X1977004Y1650394D02*
Y1651363D01*
X1977504Y1650394D02*
Y1651363D01*
X1978004Y1650394D02*
Y1651363D01*
X1978504Y1650394D02*
Y1651363D01*
X1979004Y1650394D02*
Y1651363D01*
X1979504Y1650394D02*
Y1651363D01*
X1980004Y1650394D02*
Y1651363D01*
X1980504Y1650209D02*
Y1651363D01*
X1981004Y1639765D02*
Y1651363D01*
X1981504Y1639765D02*
Y1651363D01*
X1982004Y1639765D02*
Y1640733D01*
X1982504Y1639765D02*
Y1640733D01*
X1983004Y1639765D02*
Y1640733D01*
X1983504Y1639765D02*
Y1640733D01*
X1984004Y1639765D02*
Y1640733D01*
X1984504Y1639765D02*
Y1640733D01*
X1985004Y1639765D02*
Y1640733D01*
X1985504Y1639765D02*
Y1640733D01*
X1986004Y1639765D02*
Y1640733D01*
X1986504Y1639765D02*
Y1640733D01*
X1987004Y1639765D02*
Y1640733D01*
X1987504Y1639765D02*
Y1640733D01*
X1988004Y1639765D02*
Y1640733D01*
X1988504Y1639765D02*
Y1640733D01*
X1989004Y1639765D02*
Y1640733D01*
X1989504Y1639765D02*
Y1640733D01*
X1990004Y1639765D02*
Y1640733D01*
X1990504Y1639765D02*
Y1651363D01*
X1991004Y1639765D02*
Y1651363D01*
X1991504Y1650165D02*
Y1651363D01*
X1992004Y1650394D02*
Y1651363D01*
X1992504Y1650394D02*
Y1651363D01*
X1993004Y1650394D02*
Y1651363D01*
X1993504Y1650394D02*
Y1651363D01*
X1994004Y1650394D02*
Y1651363D01*
X1994504Y1650394D02*
Y1651363D01*
X1995004Y1650394D02*
Y1651363D01*
X1995504Y1650394D02*
Y1651363D01*
X1996004Y1650394D02*
Y1651363D01*
X1996504Y1650394D02*
Y1651363D01*
X1997004Y1650394D02*
Y1651363D01*
X1997504Y1650394D02*
Y1651363D01*
X1998004Y1650394D02*
Y1651363D01*
X1998504Y1650394D02*
Y1651363D01*
X1999004Y1650394D02*
Y1651363D01*
X1999504Y1649998D02*
Y1651363D01*
X2000004Y1639765D02*
Y1651363D01*
X2000504Y1639765D02*
Y1641081D01*
X2001004Y1639765D02*
Y1640733D01*
X2001504Y1639765D02*
Y1640733D01*
X2002004Y1639765D02*
Y1640733D01*
X2002504Y1639765D02*
Y1640733D01*
X2003004Y1639765D02*
Y1640733D01*
X2003504Y1639765D02*
Y1640733D01*
X2004004Y1639765D02*
Y1640733D01*
X2004504Y1639765D02*
Y1640733D01*
X2005004Y1639765D02*
Y1640733D01*
X2005504Y1639765D02*
Y1640733D01*
X2006004Y1639765D02*
Y1640733D01*
X2006504Y1639765D02*
Y1640733D01*
X2007004Y1639765D02*
Y1640733D01*
X2007504Y1639765D02*
Y1640733D01*
X2008004Y1639765D02*
Y1640733D01*
X2008504Y1639765D02*
Y1640733D01*
X2009004Y1639765D02*
Y1640756D01*
X2009504Y1639765D02*
Y1651363D01*
X2010004Y1639765D02*
Y1651363D01*
X2010504Y1650281D02*
Y1651363D01*
X2011004Y1650394D02*
Y1651363D01*
X2011504Y1650394D02*
Y1651363D01*
X2012004Y1650394D02*
Y1651363D01*
X2012504Y1650394D02*
Y1651363D01*
X2013004Y1650394D02*
Y1651363D01*
X2013504Y1650394D02*
Y1651363D01*
X2014004Y1650394D02*
Y1651363D01*
X2014504Y1650394D02*
Y1651363D01*
X2015004Y1650394D02*
Y1651363D01*
X2015504Y1650394D02*
Y1651363D01*
X2016004Y1650394D02*
Y1651363D01*
X2016504Y1650394D02*
Y1651363D01*
X2017004Y1650394D02*
Y1651363D01*
X2017504Y1650394D02*
Y1651363D01*
X2018004Y1650010D02*
Y1651363D01*
X2018504Y1631103D02*
Y1651363D01*
X2019004Y1650034D02*
Y1651363D01*
X2019504Y1650394D02*
Y1651363D01*
X2020004Y1650394D02*
Y1651363D01*
X2020504Y1650394D02*
Y1651363D01*
X2021004Y1650394D02*
Y1651363D01*
X2021504Y1650394D02*
Y1651363D01*
X2022004Y1650394D02*
Y1651363D01*
X2022504Y1650394D02*
Y1651363D01*
X2023004Y1650394D02*
Y1651363D01*
X2023504Y1650394D02*
Y1651363D01*
X2024004Y1650394D02*
Y1651363D01*
X2024504Y1650394D02*
Y1651363D01*
X2025004Y1650394D02*
Y1651363D01*
X2025504Y1650394D02*
Y1651363D01*
X2026004Y1650394D02*
Y1651363D01*
X2026504Y1650394D02*
Y1651363D01*
X2027004Y1650394D02*
Y1651363D01*
X2027504Y1650394D02*
Y1651363D01*
X2028004Y1650394D02*
Y1651363D01*
X2018146Y1598622D02*
X2018157Y1598611D01*
X2018146Y1594685D02*
X2018172Y1594711D01*
X2020504*
X2005351Y1609449D02*
Y1611664D01*
X2005404Y1611611*
X2017804Y1608411D02*
Y1606539D01*
X2018146Y1606496*
X2029404Y1604411D02*
X2029418Y1604811D01*
X2030318Y1603911*
Y1599751*
X2002524Y1612470D02*
G75*
G03X2001510Y1612890I-1014J-1014D01*
G01X2003383Y1610397D02*
G03X2002524Y1612470I-2932J-0D01*
G01X2003383Y1610397D02*
Y1609449D01*
X2001404Y1612911D02*
X2001425Y1612890D01*
X2001510*
G54D13*
X2024413Y1599751D03*
Y1592271D03*
X2030318D03*
Y1599751D03*
G54D14*
X2015194Y1609449D03*
X2013225D03*
X2011257D03*
X2009288D03*
X2007320D03*
X2005351D03*
X2003383D03*
X2001414D03*
Y1589764D03*
X2003383D03*
X2005351D03*
X2007320D03*
X2009288D03*
X2011257D03*
X2013225D03*
X2015194D03*
G54D15*
X1998461Y1606496D03*
Y1604528D03*
Y1602559D03*
Y1600591D03*
Y1598622D03*
Y1596654D03*
Y1594685D03*
Y1592717D03*
X2018146D03*
Y1594685D03*
Y1596654D03*
Y1598622D03*
Y1600591D03*
Y1602559D03*
Y1604528D03*
Y1606496D03*
G54D16*
X2008304Y1599606D03*
G54D18*
X1991554Y1619311D03*
X1985054D03*
X2023154Y1615211D03*
X2029654D03*
G54D20*
X1992346Y1610827D03*
X1987346D03*
X1982346D03*
X1977346D03*
Y1589567D03*
X1982346D03*
X1987346D03*
X1992346D03*
G54D21*
X2007874Y1566929D03*
X2307087D03*
Y1897638D03*
X2015748D03*
G54D24*
X2038520Y1624211D02*
Y1629111D01*
G03X2038370Y1629261I-150J0*
G01X2020220*
G03X2020114Y1629217I-0J-150*
G01X2017831Y1626934*
X2017654Y1626861D02*
G03X2017831Y1626934I-0J250D01*
G01X2017654Y1626861D02*
X2006945D01*
G03X2006795Y1626711I-0J-150*
G01Y1623518*
G03X2006839Y1623412I150J0*
G01X2015570Y1614771*
X2015578Y1614424D02*
G03X2015570Y1614771I-184J169D01*
G01X2015578Y1614424D02*
X2015439Y1614272D01*
G03X2015407Y1614219I110J-102*
G01X2015205Y1613896D02*
G03X2015407Y1614219I-601J601D01*
G01X2015205Y1613896D02*
X2014719Y1613410D01*
G03X2014675Y1613304I106J-106*
G01Y1613126*
G03X2014931Y1613020I150J0*
G01X2015213Y1613302*
X2016204Y1613712D02*
G03X2015213Y1613302I-0J-1401D01*
G01X2016204Y1613712D02*
X2017161D01*
G03X2017267Y1613756I0J150*
G01X2019713Y1616202*
X2020568Y1616606D02*
G03X2019713Y1616202I136J-1395D01*
G01X2020568Y1616606D02*
G03X2020704Y1616755I-14J149D01*
G01Y1617011*
X2021554Y1617861D02*
G03X2020704Y1617011I-0J-850D01*
G01X2021554Y1617861D02*
X2024754D01*
X2025604Y1617011D02*
G03X2024754Y1617861I-850J0D01*
G01X2025604Y1617011D02*
Y1613411D01*
X2024955Y1612585D02*
G03X2025604Y1613411I-201J826D01*
G01X2024955Y1612585D02*
G03X2024841Y1612437I36J-145D01*
G01Y1612432*
X2024841*
X2024672Y1611678D02*
G03X2024841Y1612432I-1468J725D01*
G01X2024672Y1611678D02*
G03X2024806Y1611461I134J-67D01*
G01X2025704*
X2026554Y1610611D02*
G03X2025704Y1611461I-850J0D01*
G01X2026554Y1610611D02*
Y1608611D01*
X2025704Y1607761D02*
G03X2026554Y1608611I-0J850D01*
G01X2025704Y1607761D02*
X2023704D01*
X2023588Y1607769D02*
G03X2023704Y1607761I116J842D01*
G01X2023588Y1607769D02*
G03X2023462Y1607726I-20J-149D01*
G01X2022967Y1607232*
G03X2022923Y1607126I106J-106*
G01Y1605803*
X2022559Y1604924D02*
G03X2022923Y1605803I-879J879D01*
G01X2022559Y1604924D02*
X2021283Y1603648D01*
X2021237Y1603604D02*
G03X2021283Y1603648I-833J924D01*
G01X2021237Y1603604D02*
G03X2021241Y1603378I101J-111D01*
G01X2021751Y1602780D02*
G03X2021241Y1603378I-2095J-1269D01*
G01X2021751Y1602780D02*
G03X2021780Y1602745I128J78D01*
G01X2021919Y1602608D02*
G03X2021780Y1602745I-1215J-1097D01*
G01X2021919Y1602608D02*
G03X2022122Y1602590I112J101D01*
G01X2022641Y1602767D02*
G03X2022122Y1602590I-0J-850D01*
G01X2022641Y1602767D02*
X2023535D01*
G03X2023665Y1602991I-0J150*
G01X2023554Y1603411D02*
G03X2023665Y1602991I850J0D01*
G01X2023554Y1603411D02*
Y1605411D01*
X2024404Y1606261D02*
G03X2023554Y1605411I-0J-850D01*
G01X2024404Y1606261D02*
X2026404D01*
X2027254Y1605411D02*
G03X2026404Y1606261I-850J0D01*
G01X2027254Y1605411D02*
Y1603411D01*
X2026862Y1602695D02*
G03X2027254Y1603411I-458J716D01*
G01X2026862Y1602695D02*
G03X2026829Y1602471I81J-127D01*
G01X2027034Y1601917D02*
G03X2026829Y1602471I-850J-0D01*
G01X2027034Y1601917D02*
Y1597586D01*
X2026996Y1597334D02*
G03X2027034Y1597586I-812J252D01*
G01X2026996Y1597334D02*
G03X2027082Y1597151I143J-44D01*
G01X2027594Y1596756D02*
G03X2027082Y1597151I-990J-753D01*
G01X2027594Y1596756D02*
G03X2027608Y1596740I120J90D01*
G01X2029018Y1595330*
G03X2029124Y1595286I106J106*
G01X2032090*
X2032940Y1594436D02*
G03X2032090Y1595286I-850J0D01*
G01X2032940Y1594436D02*
Y1590106D01*
X2032186Y1589261D02*
G03X2032940Y1590106I-96J845D01*
G01X2032186Y1589261D02*
G03X2032083Y1589022I17J-149D01*
G01X2032254Y1588511D02*
G03X2032083Y1589022I-850J0D01*
G01X2032254Y1588511D02*
Y1586511D01*
X2031404Y1585661D02*
G03X2032254Y1586511I-0J850D01*
G01X2031404Y1585661D02*
X2029404D01*
X2028554Y1586511D02*
G03X2029404Y1585661I850J0D01*
G01X2028554Y1586511D02*
Y1588511D01*
X2028720Y1589016D02*
G03X2028554Y1588511I684J-505D01*
G01X2028720Y1589016D02*
G03X2028600Y1589255I-120J89D01*
G01X2028546*
X2027696Y1590106D02*
G03X2028546Y1589255I850J-0D01*
G01X2027696Y1590106D02*
Y1593072D01*
G03X2027653Y1593178I-150J-0*
G01X2027653D02*
X2026115Y1594715D01*
G03X2026009Y1594759I-106J-106*
G01X2022454*
X2022307Y1594768D02*
G03X2022454Y1594759I147J1235D01*
G01X2022307Y1594768D02*
G03X2022139Y1594627I-18J-149D01*
G01X2020523Y1593074D02*
G03X2022139Y1594627I-19J1637D01*
G01X2020523Y1593074D02*
G03X2020374Y1592924I1J-150D01*
G01Y1592165*
X2019524Y1591315D02*
G03X2020374Y1592165I0J850D01*
G01X2019524Y1591315D02*
X2019498D01*
G03X2019348Y1591165I-0J-150*
G01Y1591050*
X2019348D02*
G03X2020354Y1588620I3436J-0D01*
G01X2023665Y1585309*
G03X2023690Y1585289I106J106*
G01X2024463Y1584789*
G03X2024499Y1584772I82J126*
G01X2022443Y1582716D02*
G03X2024499Y1584772I1561J495D01*
G01X2022443Y1582716D02*
G03X2022426Y1582752I-143J-46D01*
G01X2021926Y1583525*
G03X2021906Y1583550I-126J-81*
G01X2018595Y1586861*
X2016894Y1590417D02*
G03X2018595Y1586861I5890J633D01*
G01X2016894Y1590417D02*
G03X2016595Y1590401I-149J-16D01*
G01Y1588864*
G03X2016654Y1588745I150J0*
G01X2015801Y1585808D02*
G03X2016654Y1588745I-136J1632D01*
G01X2015801Y1585808D02*
G03X2015667Y1585628I13J-149D01*
G01X2015754Y1584782D02*
G03X2015667Y1585628I-4149J0D01*
G01X2015754Y1584782D02*
Y1583111D01*
X2011904Y1579261D02*
G03X2015754Y1583111I-0J3850D01*
G01X2011904Y1579261D02*
X1986018D01*
X1979889Y1581800D02*
G03X1986018Y1579261I6129J6129D01*
G01X1979889Y1581800D02*
X1978083Y1583605D01*
X1976639Y1585863D02*
G03X1978083Y1583605I5861J2159D01*
G01X1976639Y1585863D02*
G03X1976498Y1585961I-141J-52D01*
G01X1976165*
X1975315Y1586811D02*
G03X1976165Y1585961I850J0D01*
G01X1975315Y1586811D02*
Y1592323D01*
X1976165Y1593173D02*
G03X1975315Y1592323I-0J-850D01*
G01X1976165Y1593173D02*
X1978359D01*
G03X1978509Y1593323I-0J150*
G01Y1602950*
X1981729Y1606362D02*
G03X1978509Y1602950I198J-3412D01*
G01X1981729Y1606362D02*
G03X1981861Y1606562I-9J150D01*
G01X1981767Y1607074D02*
G03X1981861Y1606562I1637J37D01*
G01X1981767Y1607074D02*
G03X1981617Y1607221I-150J-3D01*
G01X1981165*
X1980315Y1608071D02*
G03X1981165Y1607221I850J-0D01*
G01X1980315Y1608071D02*
Y1613583D01*
X1981165Y1614433D02*
G03X1980315Y1613583I-0J-850D01*
G01X1981165Y1614433D02*
X1983527D01*
X1984377Y1613583D02*
G03X1983527Y1614433I-850J-0D01*
G01X1984377Y1613583D02*
Y1608502D01*
G03X1984433Y1608385I150J-0*
G01X1985029Y1606909D02*
G03X1984433Y1608385I-1625J202D01*
G01X1985029Y1606909D02*
G03X1985274Y1606775I149J-19D01*
X1985386Y1606878I-1136J1351*
G01X1985396Y1606887*
G03X1985663Y1607199I-1932J1932*
X1985636Y1607405I-120J89*
G01X1985315Y1608071D02*
G03X1985636Y1607405I850J-0D01*
G01X1985315Y1608071D02*
Y1613583D01*
X1986165Y1614433D02*
G03X1985315Y1613583I-0J-850D01*
G01X1986165Y1614433D02*
X1988527D01*
X1989377Y1613583D02*
G03X1988527Y1614433I-850J-0D01*
G01X1989377Y1613583D02*
Y1608102D01*
G03X1989538Y1607953I150J0*
G01X1989770Y1607961D02*
G03X1989538Y1607953I-0J-3240D01*
G01X1989770Y1607961D02*
X1989980D01*
G03X1990191Y1607980I-0J1182*
X1990315Y1608128I-26J148*
G01Y1613583*
X1990362Y1613862D02*
G03X1990315Y1613583I803J-279D01*
G01X1990362Y1613862D02*
G03X1990220Y1614061I-142J49D01*
G01X1990201*
X1989154Y1615108D02*
G03X1990201Y1614061I1047J-0D01*
G01X1989154Y1615108D02*
Y1617199D01*
G03X1989146Y1617246I-150J-0*
G01X1989104Y1617511D02*
G03X1989146Y1617246I850J0D01*
G01X1989104Y1617511D02*
Y1621111D01*
X1989954Y1621961D02*
G03X1989104Y1621111I-0J-850D01*
G01X1989954Y1621961D02*
X1993154D01*
X1994004Y1621111D02*
G03X1993154Y1621961I-850J0D01*
G01X1994004Y1621111D02*
Y1619798D01*
G03X1994154Y1619648I150J0*
G01X1994787*
G03X1994880Y1619680I0J150*
G01X1995404Y1619861D02*
G03X1994880Y1619680I-0J-850D01*
G01X1995404Y1619861D02*
X1997404D01*
X1998254Y1619011D02*
G03X1997404Y1619861I-850J0D01*
G01X1998254Y1619011D02*
Y1617011D01*
X1997914Y1616331D02*
G03X1998254Y1617011I-510J680D01*
G01X1997914Y1616331D02*
G03X1997854Y1616211I90J-120D01*
G01Y1615108*
X1996971Y1614074D02*
G03X1997854Y1615108I-164J1034D01*
G01X1996971Y1614074D02*
G03X1996845Y1613926I24J-148D01*
G01Y1609805*
G03X1997062Y1609671I150J-0*
G01X1997928Y1609844D02*
G03X1997062Y1609671I-124J-1633D01*
G01X1997928Y1609844D02*
G03X1998087Y1609970I11J149D01*
G01X2000054Y1611310D02*
G03X1998087Y1609970I-350J-1599D01*
G01X2000054Y1611310D02*
G03X2000203Y1611362I33J147D01*
G01X2000306Y1611469D02*
G03X2000203Y1611362I557J-642D01*
G01X2000306Y1611469D02*
G03X2000308Y1611694I-98J114D01*
G01X2002598Y1614032D02*
G03X2000308Y1611694I-1194J-1121D01*
G01X2002598Y1614032D02*
G03X2002646Y1613998I109J102D01*
G01X2003479Y1613424D02*
G03X2002646Y1613998I-1969J-1968D01*
G01X2004007Y1612782D02*
G03X2003479Y1613424I-3556J-2385D01*
G01X2004007Y1612782D02*
G03X2004238Y1612761I124J84D01*
G01X2007029Y1611809D02*
G03X2004238Y1612761I-1625J-198D01*
G01X2007029Y1611809D02*
G03X2007178Y1611677I149J18D01*
G01X2007737*
G03X2007887Y1611827I-0J150*
G01Y1611887*
X2008236Y1612813D02*
G03X2007887Y1611887I1052J-926D01*
G01X2008236Y1612813D02*
G03X2008264Y1612861I-113J99D01*
G01X2010448Y1613808D02*
G03X2008264Y1612861I-644J-1505D01*
G01X2010448Y1613808D02*
G03X2010523Y1613797I59J138D01*
G01X2010841Y1613793D02*
G03X2010523Y1613797I-176J-1390D01*
G01X2010841Y1613793D02*
G03X2010965Y1614049I19J149D01*
G01X2009980Y1615024*
G03X2009971Y1615032I-106J-107*
G01X2009917Y1615082D02*
G03X2009971Y1615032I601J601D01*
G01X2009917Y1615082D02*
X2009466Y1615532D01*
Y1615533D02*
X2004654Y1620296D01*
G03X2004634Y1620312I-106J-107*
G01X2004517Y1620410D02*
G03X2004634Y1620312I601J601D01*
G01X2004517Y1620410D02*
X2003103Y1621824D01*
X2003049Y1621883D02*
G03X2003103Y1621824I655J542D01*
G01X2003049Y1621883D02*
G03X2003039Y1621894I-115J-96D01*
G01X2002971Y1621961*
X2002897Y1622136D02*
G03X2002971Y1621961I250J3D01*
G01X2002897Y1622136D02*
G03X2002891Y1622178I-150J-1D01*
G01X2002989Y1622885D02*
G03X2002891Y1622178I715J-460D01*
G01X2002989Y1622885D02*
G03X2003013Y1622966I-126J81D01*
G01Y1629111*
G03X2002863Y1629261I-150J0*
G01X1969504*
G03X1969354Y1629111I-0J-150*
G01Y1628611*
G03X1969504Y1628461I150J0*
G01X1971004*
X1971254Y1628211D02*
G03X1971004Y1628461I-250J0D01*
G01X1971254Y1628211D02*
Y1580111D01*
X1971004Y1579861D02*
G03X1971254Y1580111I-0J250D01*
G01X1971004Y1579861D02*
X1969504D01*
G03X1969354Y1579711I-0J-150*
G01Y1575803*
G03X1969504Y1575653I150J0*
G01X2036504*
G03X2036654Y1575803I-0J150*
G01Y1594211*
X2036904Y1594461D02*
G03X2036654Y1594211I-0J-250D01*
G01X2036904Y1594461D02*
X2038370D01*
G03X2038520Y1594611I0J150*
G01Y1597511*
G03X2038370Y1597661I-150J0*
G01X2036904*
X2036654Y1597911D02*
G03X2036904Y1597661I250J0D01*
G01X2036654Y1597911D02*
Y1623811D01*
X2036904Y1624061D02*
G03X2036654Y1623811I-0J-250D01*
G01X2036904Y1624061D02*
X2038370D01*
G03X2038520Y1624211I0J150*
G01X1988367Y1593173D02*
G03X1988514Y1593352I0J150D01*
X1986535Y1597053I-7094J-1414*
G01X1983831Y1599758*
G03X1983798Y1599783I-106J-106*
G01X1983041Y1600209*
G03X1983004Y1600223I-74J-131*
G01X1982579Y1600396D02*
G03X1983004Y1600223I825J1415D01*
G01X1982579Y1600396D02*
G03X1982354Y1600267I-75J-129D01*
G01Y1598277*
G03X1982983Y1596759I2147J-0*
G01X1984710Y1595031*
X1985775Y1593249D02*
G03X1984710Y1595031I-4068J-1221D01*
G01X1985775Y1593249D02*
G03X1985955Y1593147I143J43D01*
G01X1986165Y1593173D02*
G03X1985955Y1593147I-0J-850D01*
G01X1986165Y1593173D02*
X1988367D01*
X1991795Y1605834D02*
G03X1991615Y1606069I-110J102D01*
G01X1989980Y1605661D02*
G03X1991615Y1606069I-0J3482D01*
G01X1989980Y1605661D02*
X1989770D01*
G03X1989105Y1605386I-0J-940*
G01X1988024Y1604305*
X1984987Y1602739D02*
G03X1988024Y1604305I-932J5535D01*
G01X1984987Y1602739D02*
G03X1984877Y1602526I25J-148D01*
G01X1984992Y1602211D02*
G03X1984877Y1602526I-1588J-400D01*
G01X1984992Y1602211D02*
G03X1985006Y1602174I145J37D01*
G01X1985432Y1601417*
G03X1985457Y1601384I131J73*
G01X1988161Y1598680*
X1989785Y1596513D02*
G03X1988161Y1598680I-8365J-4575D01*
G01X1989785Y1596513D02*
G03X1990066Y1596587I131J72D01*
G01X1990063Y1597041D02*
G03X1990066Y1596587I36078J-0D01*
G01X1990063Y1597041D02*
Y1601857D01*
X1991511Y1605530D02*
G03X1990063Y1601857I3934J-3673D01*
G01X1991511Y1605530D02*
X1991795Y1605834D01*
X2016002Y1605447D02*
G03Y1605577I-135J65D01*
G01X2015918Y1605945D02*
G03X2016002Y1605577I851J-0D01*
G01X2015918Y1605945D02*
Y1607047D01*
X2015919Y1607068D02*
G03X2015918Y1607047I850J-21D01*
G01X2015919Y1607068D02*
G03X2015765Y1607221I-150J3D01*
G01X2015745D02*
G03X2015765I-0J850D01*
G01X2015745D02*
X2014643D01*
X2014274Y1607305D02*
G03X2014643Y1607221I369J766D01*
G01X2014274Y1607305D02*
G03X2014144I-65J-136D01*
G01X2013776Y1607221D02*
G03X2014144Y1607305I0J850D01*
G01X2013776Y1607221D02*
X2012674D01*
X2012306Y1607305D02*
G03X2012674Y1607221I368J766D01*
G01X2012306Y1607305D02*
G03X2012176I-65J-136D01*
G01X2011808Y1607221D02*
G03X2012176Y1607305I-0J850D01*
G01X2011808Y1607221D02*
X2010706D01*
X2010337Y1607305D02*
G03X2010706Y1607221I369J766D01*
G01X2010337Y1607305D02*
G03X2010207I-65J-136D01*
G01X2009839Y1607221D02*
G03X2010207Y1607305I0J850D01*
G01X2009839Y1607221D02*
X2008737D01*
X2008369Y1607305D02*
G03X2008737Y1607221I368J766D01*
G01X2008369Y1607305D02*
G03X2008239I-65J-136D01*
G01X2007871Y1607221D02*
G03X2008239Y1607305I-0J850D01*
G01X2007871Y1607221D02*
X2006769D01*
X2006400Y1607305D02*
G03X2006769Y1607221I369J766D01*
G01X2006400Y1607305D02*
G03X2006270I-65J-136D01*
G01X2005902Y1607221D02*
G03X2006270Y1607305I0J850D01*
G01X2005902Y1607221D02*
X2004800D01*
X2004432Y1607305D02*
G03X2004800Y1607221I368J766D01*
G01X2004432Y1607305D02*
G03X2004302I-65J-136D01*
G01X2003934Y1607221D02*
G03X2004302Y1607305I-0J850D01*
G01X2003934Y1607221D02*
X2002831D01*
X2002463Y1607305D02*
G03X2002831Y1607221I368J766D01*
G01X2002463Y1607305D02*
G03X2002333I-65J-136D01*
G01X2001965Y1607221D02*
G03X2002333Y1607305I0J850D01*
G01X2001965Y1607221D02*
X2000863D01*
X2000843D02*
G03X2000863I20J850D01*
G01X2000843D02*
G03X2000689Y1607068I-4J-150D01*
G01Y1607047D02*
G03Y1607068I-850J0D01*
G01Y1607047D02*
Y1605945D01*
X2000606Y1605577D02*
G03X2000689Y1605945I-767J368D01*
G01X2000606Y1605577D02*
G03Y1605447I135J-65D01*
G01X2000689Y1605079D02*
G03X2000606Y1605447I-850J-0D01*
G01X2000689Y1605079D02*
Y1603976D01*
X2000606Y1603608D02*
G03X2000689Y1603976I-767J368D01*
G01X2000606Y1603608D02*
G03Y1603478I135J-65D01*
G01X2000689Y1603110D02*
G03X2000606Y1603478I-850J0D01*
G01X2000689Y1603110D02*
Y1602008D01*
X2000606Y1601640D02*
G03X2000689Y1602008I-767J368D01*
G01X2000606Y1601640D02*
G03Y1601510I135J-65D01*
G01X2000689Y1601142D02*
G03X2000606Y1601510I-850J-0D01*
G01X2000689Y1601142D02*
Y1600039D01*
X2000606Y1599671D02*
G03X2000689Y1600039I-767J368D01*
G01X2000606Y1599671D02*
G03Y1599541I135J-65D01*
G01X2000689Y1599173D02*
G03X2000606Y1599541I-850J0D01*
G01X2000689Y1599173D02*
Y1598071D01*
X2000606Y1597703D02*
G03X2000689Y1598071I-767J368D01*
G01X2000606Y1597703D02*
G03Y1597573I135J-65D01*
G01X2000689Y1597205D02*
G03X2000606Y1597573I-850J-0D01*
G01X2000689Y1597205D02*
Y1596102D01*
X2000606Y1595734D02*
G03X2000689Y1596102I-767J368D01*
G01X2000606Y1595734D02*
G03Y1595604I135J-65D01*
G01X2000689Y1595236D02*
G03X2000606Y1595604I-850J0D01*
G01X2000689Y1595236D02*
Y1594134D01*
X2000606Y1593766D02*
G03X2000689Y1594134I-767J368D01*
G01X2000606Y1593766D02*
G03Y1593636I135J-65D01*
G01X2000689Y1593268D02*
G03X2000606Y1593636I-850J-0D01*
G01X2000689Y1593268D02*
Y1592165D01*
Y1592145D02*
G03Y1592165I-850J20D01*
G01Y1592145D02*
G03X2000843Y1591992I150J-4D01*
G01X2000863D02*
G03X2000843I-0J-850D01*
G01X2000863D02*
X2001965D01*
X2002333Y1591908D02*
G03X2001965Y1591992I-368J-766D01*
G01X2002333Y1591908D02*
G03X2002463I65J135D01*
G01X2002831Y1591992D02*
G03X2002463Y1591908I0J-850D01*
G01X2002831Y1591992D02*
X2003934D01*
X2004302Y1591908D02*
G03X2003934Y1591992I-368J-766D01*
G01X2004302Y1591908D02*
G03X2004432I65J135D01*
G01X2004800Y1591992D02*
G03X2004432Y1591908I0J-850D01*
G01X2004800Y1591992D02*
X2005902D01*
X2006270Y1591908D02*
G03X2005902Y1591992I-368J-766D01*
G01X2006270Y1591908D02*
G03X2006400I65J135D01*
G01X2006769Y1591992D02*
G03X2006400Y1591908I-0J-850D01*
G01X2006769Y1591992D02*
X2007871D01*
X2008239Y1591908D02*
G03X2007871Y1591992I-368J-766D01*
G01X2008239Y1591908D02*
G03X2008369I65J135D01*
G01X2008737Y1591992D02*
G03X2008369Y1591908I0J-850D01*
G01X2008737Y1591992D02*
X2009839D01*
X2010207Y1591908D02*
G03X2009839Y1591992I-368J-766D01*
G01X2010207Y1591908D02*
G03X2010337I65J135D01*
G01X2010706Y1591992D02*
G03X2010337Y1591908I-0J-850D01*
G01X2010706Y1591992D02*
X2011808D01*
X2012176Y1591908D02*
G03X2011808Y1591992I-368J-766D01*
G01X2012176Y1591908D02*
G03X2012306I65J135D01*
G01X2012674Y1591992D02*
G03X2012306Y1591908I0J-850D01*
G01X2012674Y1591992D02*
X2013776D01*
X2014144Y1591908D02*
G03X2013776Y1591992I-368J-766D01*
G01X2014144Y1591908D02*
G03X2014274I65J135D01*
G01X2014643Y1591992D02*
G03X2014274Y1591908I-0J-850D01*
G01X2014643Y1591992D02*
X2015745D01*
X2015765D02*
G03X2015745I-20J-850D01*
G01X2015765D02*
G03X2015919Y1592145I4J149D01*
G01X2015918Y1592165D02*
G03X2015919Y1592145I851J0D01*
G01X2015918Y1592165D02*
Y1593268D01*
X2016002Y1593636D02*
G03X2015918Y1593268I767J-368D01*
G01X2016002Y1593636D02*
G03Y1593766I-135J65D01*
G01X2015918Y1594134D02*
G03X2016002Y1593766I851J-0D01*
G01X2015918Y1594134D02*
Y1595236D01*
X2016002Y1595604D02*
G03X2015918Y1595236I767J-368D01*
G01X2016002Y1595604D02*
G03Y1595734I-135J65D01*
G01X2015918Y1596102D02*
G03X2016002Y1595734I851J0D01*
G01X2015918Y1596102D02*
Y1597205D01*
X2016002Y1597573D02*
G03X2015918Y1597205I767J-368D01*
G01X2016002Y1597573D02*
G03Y1597703I-135J65D01*
G01X2015918Y1598071D02*
G03X2016002Y1597703I851J-0D01*
G01X2015918Y1598071D02*
Y1599173D01*
X2016002Y1599541D02*
G03X2015918Y1599173I767J-368D01*
G01X2016002Y1599541D02*
G03Y1599671I-135J65D01*
G01X2015918Y1600039D02*
G03X2016002Y1599671I851J0D01*
G01X2015918Y1600039D02*
Y1601142D01*
X2016002Y1601510D02*
G03X2015918Y1601142I767J-368D01*
G01X2016002Y1601510D02*
G03Y1601640I-135J65D01*
G01X2015918Y1602008D02*
G03X2016002Y1601640I851J-0D01*
G01X2015918Y1602008D02*
Y1603110D01*
X2016002Y1603478D02*
G03X2015918Y1603110I767J-368D01*
G01X2016002Y1603478D02*
G03Y1603608I-135J65D01*
G01X2015918Y1603976D02*
G03X2016002Y1603608I851J0D01*
G01X2015918Y1603976D02*
Y1605079D01*
X2016002Y1605447D02*
G03X2015918Y1605079I767J-368D01*
G01X2019648Y1628752D02*
X2038520D01*
X2019198Y1628302D02*
X2038520D01*
X2018748Y1627852D02*
X2038520D01*
X2018298Y1627402D02*
X2038520D01*
X2017848Y1626952D02*
X2038520D01*
X2006795Y1626502D02*
X2038520D01*
X2006795Y1626052D02*
X2038520D01*
X2006795Y1625602D02*
X2038520D01*
X2006795Y1625152D02*
X2038520D01*
X2006795Y1624702D02*
X2038520D01*
X2006795Y1624252D02*
X2038520D01*
X2026994Y1597252D02*
X2038520D01*
X2027557Y1596802D02*
X2038520D01*
X2027996Y1596352D02*
X2038520D01*
X2028446Y1595902D02*
X2038520D01*
X2028896Y1595452D02*
X2038520D01*
X2032724Y1595002D02*
X2038520D01*
X2032932Y1594552D02*
X2038508D01*
X2020098Y1629202D02*
X2038489D01*
X2027034Y1597702D02*
X2036767D01*
X2006795Y1623802D02*
X2036654D01*
X2006900Y1623352D02*
X2036654D01*
X2007354Y1622902D02*
X2036654D01*
X2007809Y1622452D02*
X2036654D01*
X2008264Y1622002D02*
X2036654D01*
X2008718Y1621552D02*
X2036654D01*
X2009173Y1621102D02*
X2036654D01*
X2009628Y1620652D02*
X2036654D01*
X2010082Y1620202D02*
X2036654D01*
X2010537Y1619752D02*
X2036654D01*
X2010992Y1619302D02*
X2036654D01*
X2011446Y1618852D02*
X2036654D01*
X2011901Y1618402D02*
X2036654D01*
X2012356Y1617952D02*
X2036654D01*
X2025448Y1617502D02*
X2036654D01*
X2025603Y1617052D02*
X2036654D01*
X2025604Y1616602D02*
X2036654D01*
X2025604Y1616152D02*
X2036654D01*
X2025604Y1615702D02*
X2036654D01*
X2025604Y1615252D02*
X2036654D01*
X2025604Y1614802D02*
X2036654D01*
X2025604Y1614352D02*
X2036654D01*
X2025604Y1613902D02*
X2036654D01*
X2025604Y1613452D02*
X2036654D01*
X2025499Y1613002D02*
X2036654D01*
X2024892Y1612552D02*
X2036654D01*
X2024813Y1612102D02*
X2036654D01*
X2024662Y1611652D02*
X2036654D01*
X2026315Y1611202D02*
X2036654D01*
X2026542Y1610752D02*
X2036654D01*
X2026554Y1610302D02*
X2036654D01*
X2026554Y1609852D02*
X2036654D01*
X2026554Y1609402D02*
X2036654D01*
X2026554Y1608952D02*
X2036654D01*
X2026547Y1608502D02*
X2036654D01*
X2026344Y1608052D02*
X2036654D01*
X2023337Y1607602D02*
X2036654D01*
X2022926Y1607152D02*
X2036654D01*
X2022923Y1606702D02*
X2036654D01*
X2026529Y1606252D02*
X2036654D01*
X2027159Y1605802D02*
X2036654D01*
X2027254Y1605352D02*
X2036654D01*
X2027254Y1604902D02*
X2036654D01*
X2027254Y1604452D02*
X2036654D01*
X2027254Y1604002D02*
X2036654D01*
X2027254Y1603552D02*
X2036654D01*
X2027196Y1603102D02*
X2036654D01*
X2026818Y1602652D02*
X2036654D01*
X2026985Y1602202D02*
X2036654D01*
X2027034Y1601752D02*
X2036654D01*
X2027034Y1601302D02*
X2036654D01*
X2027034Y1600852D02*
X2036654D01*
X2027034Y1600402D02*
X2036654D01*
X2027034Y1599952D02*
X2036654D01*
X2027034Y1599502D02*
X2036654D01*
X2027034Y1599052D02*
X2036654D01*
X2027034Y1598602D02*
X2036654D01*
X2027034Y1598152D02*
X2036654D01*
X2032940Y1594102D02*
X2036654D01*
X2032940Y1593652D02*
X2036654D01*
X2032940Y1593202D02*
X2036654D01*
X2032940Y1592752D02*
X2036654D01*
X2032940Y1592302D02*
X2036654D01*
X2032940Y1591852D02*
X2036654D01*
X2032940Y1591402D02*
X2036654D01*
X2032940Y1590952D02*
X2036654D01*
X2032940Y1590502D02*
X2036654D01*
X2032938Y1590052D02*
X2036654D01*
X2032775Y1589602D02*
X2036654D01*
X2032059Y1589152D02*
X2036654D01*
X2032232Y1588702D02*
X2036654D01*
X2032254Y1588252D02*
X2036654D01*
X2032254Y1587802D02*
X2036654D01*
X2032254Y1587352D02*
X2036654D01*
X2032254Y1586902D02*
X2036654D01*
X2032252Y1586452D02*
X2036654D01*
X2032085Y1586002D02*
X2036654D01*
X2023422Y1585552D02*
X2036654D01*
X2023979Y1585102D02*
X2036654D01*
X2024782Y1584652D02*
X2036654D01*
X2025308Y1584202D02*
X2036654D01*
X2025549Y1583752D02*
X2036654D01*
X2025639Y1583302D02*
X2036654D01*
X2025601Y1582852D02*
X2036654D01*
X2025427Y1582402D02*
X2036654D01*
X2025051Y1581952D02*
X2036654D01*
X2015402Y1581502D02*
X2036654D01*
X2015157Y1581052D02*
X2036654D01*
X2014824Y1580602D02*
X2036654D01*
X2014367Y1580152D02*
X2036654D01*
X2013693Y1579702D02*
X2036654D01*
X1969354Y1579252D02*
X2036654D01*
X1969354Y1578802D02*
X2036654D01*
X1969354Y1578352D02*
X2036654D01*
X1969354Y1577902D02*
X2036654D01*
X1969354Y1577452D02*
X2036654D01*
X1969354Y1577002D02*
X2036654D01*
X1969354Y1576552D02*
X2036654D01*
X1969354Y1576102D02*
X2036654D01*
X2019919Y1589152D02*
X2028742D01*
X2022972Y1586002D02*
X2028723D01*
X2020275Y1588702D02*
X2028576D01*
X2022522Y1586452D02*
X2028556D01*
X2020722Y1588252D02*
X2028554D01*
X2021172Y1587802D02*
X2028554D01*
X2021622Y1587352D02*
X2028554D01*
X2022072Y1586902D02*
X2028554D01*
X2019667Y1589602D02*
X2027862D01*
X2019496Y1590052D02*
X2027698D01*
X2020374Y1592752D02*
X2027696D01*
X2020374Y1592302D02*
X2027696D01*
X2020315Y1591852D02*
X2027696D01*
X2019898Y1591402D02*
X2027696D01*
X2019349Y1590952D02*
X2027696D01*
X2019392Y1590502D02*
X2027696D01*
X2021139Y1593202D02*
X2027628D01*
X2021753Y1593652D02*
X2027178D01*
X2022024Y1594102D02*
X2026728D01*
X2022134Y1594552D02*
X2026278D01*
X2022923Y1606252D02*
X2024279D01*
X2022923Y1605802D02*
X2023649D01*
X2021518Y1603102D02*
X2023612D01*
X2022838Y1605352D02*
X2023554D01*
X2022537Y1604902D02*
X2023554D01*
X2022087Y1604452D02*
X2023554D01*
X2021637Y1604002D02*
X2023554D01*
X2021200Y1603552D02*
X2023554D01*
X2015575Y1581952D02*
X2022957D01*
X2015688Y1582402D02*
X2022580D01*
X2015745Y1582852D02*
X2022361D01*
X2021879Y1602652D02*
X2022215D01*
X2015754Y1583302D02*
X2022071D01*
X2015754Y1583752D02*
X2021704D01*
X2015754Y1584202D02*
X2021254D01*
X2012810Y1617502D02*
X2020860D01*
X2015754Y1584652D02*
X2020804D01*
X2013265Y1617052D02*
X2020705D01*
X2013720Y1616602D02*
X2020534D01*
X2015742Y1585102D02*
X2020354D01*
X2015682Y1585552D02*
X2019904D01*
X2014174Y1616152D02*
X2019663D01*
X2016448Y1586002D02*
X2019454D01*
X2014629Y1615702D02*
X2019213D01*
X2016970Y1586452D02*
X2019004D01*
X2015084Y1615252D02*
X2018763D01*
X2017211Y1586902D02*
X2018555D01*
X2015538Y1614802D02*
X2018313D01*
X2017300Y1587352D02*
X2018156D01*
X2015512Y1614352D02*
X2017863D01*
X2017262Y1587802D02*
X2017830D01*
X2017087Y1588252D02*
X2017562D01*
X2015211Y1613902D02*
X2017413D01*
X2016708Y1588702D02*
X2017345D01*
X2016595Y1589152D02*
X2017172D01*
X2016595Y1589602D02*
X2017040D01*
X2016595Y1590052D02*
X2016945D01*
X2016634Y1590502D02*
X2016856D01*
X2014761Y1613452D02*
X2015390D01*
X2014741Y1613002D02*
X2014909D01*
X2010158Y1613902D02*
X2011004D01*
X2002182Y1614352D02*
X2010659D01*
X1997808Y1614802D02*
X2010204D01*
X1997854Y1615252D02*
X2009747D01*
X2002839Y1613902D02*
X2009450D01*
X1997854Y1615702D02*
X2009295D01*
X1997854Y1616152D02*
X2008840D01*
X2003451Y1613452D02*
X2008637D01*
X1998149Y1616602D02*
X2008386D01*
X2006268Y1613002D02*
X2008323D01*
X2006744Y1612552D02*
X2008055D01*
X1998254Y1617052D02*
X2007931D01*
X2006966Y1612102D02*
X2007903D01*
X1998254Y1617502D02*
X2007477D01*
X1998254Y1617952D02*
X2007022D01*
X1998254Y1618402D02*
X2006567D01*
X1998254Y1618852D02*
X2006113D01*
X1998203Y1619302D02*
X2005658D01*
X1997821Y1619752D02*
X2005203D01*
X1994004Y1620202D02*
X2004749D01*
X2003849Y1613002D02*
X2004540D01*
X1994004Y1620652D02*
X2004275D01*
X1994004Y1621102D02*
X2003825D01*
X1993881Y1621552D02*
X2003375D01*
X1969354Y1628752D02*
X2003013D01*
X1971237Y1628302D02*
X2003013D01*
X1971254Y1627852D02*
X2003013D01*
X1971254Y1627402D02*
X2003013D01*
X1971254Y1626952D02*
X2003013D01*
X1971254Y1626502D02*
X2003013D01*
X1971254Y1626052D02*
X2003013D01*
X1971254Y1625602D02*
X2003013D01*
X1971254Y1625152D02*
X2003013D01*
X1971254Y1624702D02*
X2003013D01*
X1971254Y1624252D02*
X2003013D01*
X1971254Y1623802D02*
X2003013D01*
X1971254Y1623352D02*
X2003013D01*
X1971254Y1622902D02*
X2002998D01*
X1969385Y1629202D02*
X2002982D01*
X1971254Y1622002D02*
X2002938D01*
X1971254Y1622452D02*
X2002854D01*
X1997531Y1614352D02*
X2000626D01*
X1996845Y1611652D02*
X2000341D01*
X1996845Y1613902D02*
X2000100D01*
X1996845Y1612102D02*
X1999980D01*
X1996845Y1613452D02*
X1999858D01*
X1996845Y1612552D02*
X1999806D01*
X1996845Y1613002D02*
X1999769D01*
X1996845Y1611202D02*
X1999027D01*
X1996845Y1610752D02*
X1998440D01*
X1996845Y1610302D02*
X1998177D01*
X1996845Y1609852D02*
X1997989D01*
X1994011Y1619752D02*
X1994987D01*
X1989315Y1613902D02*
X1990370D01*
X1989377Y1613452D02*
X1990315D01*
X1989377Y1613002D02*
X1990315D01*
X1989377Y1612552D02*
X1990315D01*
X1989377Y1612102D02*
X1990315D01*
X1989377Y1611652D02*
X1990315D01*
X1989377Y1611202D02*
X1990315D01*
X1989377Y1610752D02*
X1990315D01*
X1989377Y1610302D02*
X1990315D01*
X1989377Y1609852D02*
X1990315D01*
X1989377Y1609402D02*
X1990315D01*
X1989377Y1608952D02*
X1990315D01*
X1989377Y1608502D02*
X1990315D01*
X1989386Y1608052D02*
X1990294D01*
X1988889Y1614352D02*
X1989477D01*
X1971254Y1621552D02*
X1989227D01*
X1971254Y1614802D02*
X1989200D01*
X1971254Y1617052D02*
X1989154D01*
X1971254Y1616602D02*
X1989154D01*
X1971254Y1616152D02*
X1989154D01*
X1971254Y1615702D02*
X1989154D01*
X1971254Y1615252D02*
X1989154D01*
X1971254Y1617502D02*
X1989104D01*
X1971254Y1621102D02*
X1989104D01*
X1971254Y1620652D02*
X1989104D01*
X1971254Y1620202D02*
X1989104D01*
X1971254Y1619752D02*
X1989104D01*
X1971254Y1619302D02*
X1989104D01*
X1971254Y1618852D02*
X1989104D01*
X1971254Y1618402D02*
X1989104D01*
X1971254Y1617952D02*
X1989104D01*
X1983889Y1614352D02*
X1985803D01*
X1985041Y1607152D02*
X1985628D01*
X1984966Y1607602D02*
X1985456D01*
X1984315Y1613902D02*
X1985377D01*
X1984744Y1608052D02*
X1985315D01*
X1984377Y1613452D02*
X1985315D01*
X1984377Y1613002D02*
X1985315D01*
X1984377Y1612552D02*
X1985315D01*
X1984377Y1612102D02*
X1985315D01*
X1984377Y1611652D02*
X1985315D01*
X1984377Y1611202D02*
X1985315D01*
X1984377Y1610752D02*
X1985315D01*
X1984377Y1610302D02*
X1985315D01*
X1984377Y1609852D02*
X1985315D01*
X1984377Y1609402D02*
X1985315D01*
X1984377Y1608952D02*
X1985315D01*
X1984377Y1608502D02*
X1985315D01*
X1969354Y1579702D02*
X1983289D01*
X1971254Y1580152D02*
X1982190D01*
X1971254Y1606702D02*
X1981818D01*
X1971254Y1607152D02*
X1981743D01*
X1971254Y1580602D02*
X1981387D01*
X1971254Y1606252D02*
X1981044D01*
X1971254Y1614352D02*
X1980803D01*
X1971254Y1581052D02*
X1980742D01*
X1971254Y1607602D02*
X1980456D01*
X1971254Y1613902D02*
X1980377D01*
X1971254Y1608052D02*
X1980315D01*
X1971254Y1613452D02*
X1980315D01*
X1971254Y1613002D02*
X1980315D01*
X1971254Y1612552D02*
X1980315D01*
X1971254Y1612102D02*
X1980315D01*
X1971254Y1611652D02*
X1980315D01*
X1971254Y1611202D02*
X1980315D01*
X1971254Y1610752D02*
X1980315D01*
X1971254Y1610302D02*
X1980315D01*
X1971254Y1609852D02*
X1980315D01*
X1971254Y1609402D02*
X1980315D01*
X1971254Y1608952D02*
X1980315D01*
X1971254Y1608502D02*
X1980315D01*
X1971254Y1581502D02*
X1980202D01*
X1971254Y1605802D02*
X1980043D01*
X1971254Y1581952D02*
X1979737D01*
X1971254Y1605352D02*
X1979495D01*
X1971254Y1582402D02*
X1979287D01*
X1971254Y1604902D02*
X1979121D01*
X1971254Y1604452D02*
X1978857D01*
X1971254Y1582852D02*
X1978837D01*
X1971254Y1604002D02*
X1978675D01*
X1971254Y1603552D02*
X1978562D01*
X1971254Y1603102D02*
X1978512D01*
X1971254Y1602652D02*
X1978509D01*
X1971254Y1602202D02*
X1978509D01*
X1971254Y1601752D02*
X1978509D01*
X1971254Y1601302D02*
X1978509D01*
X1971254Y1600852D02*
X1978509D01*
X1971254Y1600402D02*
X1978509D01*
X1971254Y1599952D02*
X1978509D01*
X1971254Y1599502D02*
X1978509D01*
X1971254Y1599052D02*
X1978509D01*
X1971254Y1598602D02*
X1978509D01*
X1971254Y1598152D02*
X1978509D01*
X1971254Y1597702D02*
X1978509D01*
X1971254Y1597252D02*
X1978509D01*
X1971254Y1596802D02*
X1978509D01*
X1971254Y1596352D02*
X1978509D01*
X1971254Y1595902D02*
X1978509D01*
X1971254Y1595452D02*
X1978509D01*
X1971254Y1595002D02*
X1978509D01*
X1971254Y1594552D02*
X1978509D01*
X1971254Y1594102D02*
X1978509D01*
X1971254Y1593652D02*
X1978509D01*
X1971254Y1593202D02*
X1978448D01*
X1971254Y1583302D02*
X1978387D01*
X1971254Y1583752D02*
X1977941D01*
X1971254Y1584202D02*
X1977558D01*
X1971254Y1584652D02*
X1977241D01*
X1971254Y1585102D02*
X1976979D01*
X1971254Y1585552D02*
X1976763D01*
X1971254Y1586002D02*
X1975904D01*
X1971254Y1592752D02*
X1975431D01*
X1971254Y1586452D02*
X1975394D01*
X1971254Y1592302D02*
X1975315D01*
X1971254Y1591852D02*
X1975315D01*
X1971254Y1591402D02*
X1975315D01*
X1971254Y1590952D02*
X1975315D01*
X1971254Y1590502D02*
X1975315D01*
X1971254Y1590052D02*
X1975315D01*
X1971254Y1589602D02*
X1975315D01*
X1971254Y1589152D02*
X1975315D01*
X1971254Y1588702D02*
X1975315D01*
X1971254Y1588252D02*
X1975315D01*
X1971254Y1587802D02*
X1975315D01*
X1971254Y1587352D02*
X1975315D01*
X1971254Y1586902D02*
X1975315D01*
X1985656Y1593591D02*
X1988463D01*
X1985447Y1594041D02*
X1988342D01*
X1985167Y1594491D02*
X1988189D01*
X1984798Y1594941D02*
X1988001D01*
X1984351Y1595391D02*
X1987777D01*
X1983901Y1595841D02*
X1987511D01*
X1983451Y1596291D02*
X1987198D01*
X1983001Y1596741D02*
X1986830D01*
X1982649Y1597191D02*
X1986398D01*
X1982450Y1597641D02*
X1985948D01*
X1982362Y1598091D02*
X1985498D01*
X1982354Y1598541D02*
X1985048D01*
X1982354Y1598991D02*
X1984598D01*
X1982354Y1599441D02*
X1984148D01*
X1982354Y1599891D02*
X1983606D01*
X1982374Y1600341D02*
X1982683D01*
X1991205Y1605884D02*
X1991826D01*
X1989157Y1605434D02*
X1991424D01*
X1988703Y1604984D02*
X1991065D01*
X1988253Y1604534D02*
X1990776D01*
X1987790Y1604084D02*
X1990545D01*
X1987214Y1603634D02*
X1990365D01*
X1986421Y1603184D02*
X1990229D01*
X1984966Y1602734D02*
X1990135D01*
X1984972Y1602284D02*
X1990080D01*
X1989571Y1596884D02*
X1990064D01*
X1985198Y1601834D02*
X1990063D01*
X1985458Y1601384D02*
X1990063D01*
X1985908Y1600934D02*
X1990063D01*
X1986358Y1600484D02*
X1990063D01*
X1986808Y1600034D02*
X1990063D01*
X1987258Y1599584D02*
X1990063D01*
X1987708Y1599134D02*
X1990063D01*
X1988158Y1598684D02*
X1990063D01*
X1988580Y1598234D02*
X1990063D01*
X1988952Y1597784D02*
X1990063D01*
X1989280Y1597334D02*
X1990063D01*
X2000591Y1593692D02*
X2016017D01*
X2000599Y1603592D02*
X2016009D01*
X2000605Y1599542D02*
X2016003D01*
X2000623Y1597742D02*
X2015985D01*
X2000630Y1605392D02*
X2015978D01*
X2000650Y1595492D02*
X2015958D01*
X2000661Y1601792D02*
X2015946D01*
X2000666Y1601342D02*
X2015942D01*
X2000674Y1595942D02*
X2015934D01*
X2000683Y1605842D02*
X2015925D01*
X2000685Y1597292D02*
X2015923D01*
X2000688Y1599992D02*
X2015920D01*
X2000689Y1603142D02*
X2015919D01*
X2000689Y1606742D02*
X2015918D01*
X2000689Y1606292D02*
X2015918D01*
X2000689Y1604942D02*
X2015918D01*
X2000689Y1604492D02*
X2015918D01*
X2000689Y1604042D02*
X2015918D01*
X2000689Y1602692D02*
X2015918D01*
X2000689Y1602242D02*
X2015918D01*
X2000689Y1600892D02*
X2015918D01*
X2000689Y1600442D02*
X2015918D01*
X2000689Y1599092D02*
X2015918D01*
X2000689Y1598642D02*
X2015918D01*
X2000689Y1598192D02*
X2015918D01*
X2000689Y1596842D02*
X2015918D01*
X2000689Y1596392D02*
X2015918D01*
X2000689Y1595042D02*
X2015918D01*
X2000689Y1594592D02*
X2015918D01*
X2000689Y1594142D02*
X2015918D01*
X2000689Y1593242D02*
X2015918D01*
X2000689Y1592792D02*
X2015918D01*
X2000689Y1592342D02*
X2015918D01*
X2000750Y1607192D02*
X2015858D01*
G54D25*
X1987304Y1587786D02*
X1986959Y1586556D01*
X1987304Y1587298*
X1987649Y1586556*
X1987304Y1587786*
X1987029Y1586803D02*
X1987074D01*
X1987534D02*
X1987579D01*
X1987197Y1587403D02*
X1987411D01*
X1987104Y1586867D02*
Y1587072D01*
X1984517Y1600697D02*
X1983891Y1601811D01*
X1984173Y1601042*
X1983404Y1601324*
X1984517Y1600697*
X1983618Y1601203D02*
X1983733D01*
X1984114D02*
X1984233D01*
X1983894Y1601803D02*
X1983896D01*
X1983504Y1601267D02*
Y1601287D01*
X1984104Y1600930D02*
Y1601067D01*
Y1601230D02*
Y1601433D01*
X1982755Y1608232D02*
X1982935Y1607245D01*
X1982859Y1608052*
X1983522Y1607584*
X1982755Y1608232*
X1982833Y1607803D02*
X1982883D01*
X1983211D02*
X1983262D01*
X1982904Y1607416D02*
Y1607576D01*
Y1608020D02*
Y1608106D01*
X1983504Y1607596D02*
Y1607599D01*
X1982920Y1582950D02*
G03X1986152Y1581611I3232J3232D01*
G01X1977346Y1589567D02*
X1977190Y1588236D01*
X1977404Y1588022*
X1986152Y1581611D02*
X2011704D01*
X1985721Y1584794D02*
G03X1987370Y1584111I1649J1648D01*
G01X1984804Y1587008D02*
G03X1985721Y1584794I3131J0D01*
G01X1980702Y1582613D02*
G03X1986018Y1580411I5316J5316D01*
G01X1978897Y1584418D02*
X1980702Y1582613D01*
X1986952Y1582811D02*
X2000904D01*
X1979659Y1587727D02*
Y1602950D01*
Y1587727D02*
G03X1980731Y1585139I3659J-0D01*
G01X1986018Y1580411D02*
X2011904D01*
X1983690Y1584425D02*
X1984138Y1583977D01*
X1977404Y1588022D02*
G03X1978897Y1584418I5096J-0D01*
G01X1982245Y1587915D02*
G03X1983690Y1584425I4935J-0D01*
G01X1982245Y1587915D02*
X1982346Y1589567D01*
X1984138Y1583977D02*
G03X1986952Y1582811I2814J2814D01*
G01X1980731Y1585139D02*
X1982920Y1582950D01*
X1987370Y1584111D02*
X2000073D01*
X1995504Y1587411D02*
X1995642Y1587334D01*
X1987304Y1586211D02*
Y1589228D01*
X1987346Y1589567*
X1989804Y1586711D02*
G03X1990590Y1585517I1300J0D01*
G01X1995642Y1587334D02*
G03X1997276Y1586911I1634J2942D01*
G01X1990590Y1585517D02*
X2000156D01*
X2000356*
X2000904Y1582811D02*
G03X2006804Y1583811I-0J17905D01*
G01X2000356Y1585517D02*
G03X2004204Y1587111I-0J5442D01*
G01X2001063Y1587011D02*
G03X2002804Y1587711I50J2391D01*
X2003280Y1588860I-1149J1149*
G01X2005760Y1586467D02*
X2006833Y1587740D01*
X2000073Y1584111D02*
G03X2005760Y1586467I-0J8043D01*
G01X2006833Y1587740D02*
G03X2007320Y1588915I-1174J1175D01*
G01X2005351Y1588708D02*
Y1589764D01*
X2005000Y1587860D02*
G03X2005351Y1588708I-848J848D01*
G01X2006804Y1583811D02*
Y1584011D01*
X2001367Y1589811D02*
X2001414Y1589764D01*
X2003280Y1588860D02*
X2003383Y1589764D01*
X1997276Y1586911D02*
X2001063Y1587011D01*
X2004204Y1587111D02*
X2005000Y1587860D01*
X2013225Y1588147D02*
G03X2013742Y1586886I1797J0D01*
G01X2014604Y1584782D02*
G03X2013742Y1586886I-2999J0D01*
G01X2014604Y1583111D02*
Y1584782D01*
X2009286Y1587676D02*
G03X2010804Y1584011I5183J0D01*
G01X2009304Y1588111D02*
G03X2009286Y1587676I5165J-435D01*
G01X2011904Y1580411D02*
G03X2014604Y1583111I-0J2700D01*
G01X2007320Y1588915D02*
Y1589764D01*
X2011257Y1588208D02*
G03X2011820Y1586848I1924J-0D01*
G01X2012542Y1586125*
X2013204Y1584528D02*
G03X2012542Y1586125I-2259J0D01*
G01X2011704Y1581611D02*
G03X2013204Y1583111I-0J1500D01*
G01Y1584528*
X2013225Y1589764D02*
Y1588147D01*
X2011257Y1589764D02*
Y1588208D01*
X2009288Y1589764D02*
X2009304Y1589748D01*
Y1588111*
X1982170Y1595945D02*
X1983897Y1594218D01*
X1981204Y1598277D02*
Y1602170D01*
Y1598277D02*
G03X1982170Y1595945I3297J-0D01*
G01X1984804Y1592028D02*
G03X1983897Y1594218I-3097J0D01*
G01X1984804Y1592028D02*
Y1587008D01*
X1996709Y1592717D02*
X1998461D01*
X1989804Y1591938D02*
G03X1987348Y1597867I-8384J0D01*
G01X1996709Y1592717D02*
G03X1995704Y1591711I0J-1006D01*
G01X1989804Y1591938D02*
Y1586711D01*
X1986199Y1606065D02*
X1986209Y1606074D01*
G03X1987346Y1608819I-2745J2745*
G01X1982928Y1603811D02*
X1984055D01*
G03X1987211Y1605118I0J4463*
G01X1984138Y1605211D02*
G03X1986199Y1606065I0J2915D01*
G01X1982104Y1605211D02*
X1984138D01*
X1982104D02*
G03X1979659Y1602950I-177J-2261D01*
G01X1982928Y1603811D02*
G03X1981863Y1603370I0J-1507D01*
G01X1983404Y1601811D02*
X1987348Y1597867D01*
X1981587Y1603094D02*
G03X1981204Y1602170I924J-924D01*
G01X1981587Y1603094D02*
X1981863Y1603370D01*
X1982346Y1610827D02*
X1982304Y1609011D01*
X1983404Y1607111*
X1992346Y1609136D02*
Y1610827D01*
X1991692Y1607557D02*
G03X1992346Y1609136I-1580J1579D01*
G01X1991629Y1607494D02*
X1991692Y1607557D01*
X1989980Y1606811D02*
G03X1991629Y1607494I-0J2332D01*
G01X1987346Y1608819D02*
Y1610827D01*
X1987211Y1605118D02*
X1988292Y1606199D01*
X1989770Y1606811D02*
X1989980D01*
X1989770D02*
G03X1988292Y1606199I-0J-2090D01*
G01X1997804Y1606616D02*
X1997856Y1606563D01*
X1998394*
X1998461Y1606496*
X2001414Y1609711D02*
Y1609449D01*
X1995804Y1617811D02*
X1996404Y1618011D01*
X1993404Y1615911D02*
X1993504Y1616011D01*
G54D26*
X1992177Y1590248D02*
X1992304Y1589611D01*
X1991504Y1597041D02*
Y1601857D01*
Y1597041D02*
G03X1992177Y1590248I34637J-0D01*
G01X1993676Y1605737D02*
X1994309Y1606416D01*
X1992564Y1604547D02*
G03X1991504Y1601857I2881J-2690D01*
G01X1994309Y1606416D02*
G03X1995404Y1609060I-2644J2644D01*
G01Y1614048*
X1992564Y1604547D02*
X1993676Y1605737D01*
X1991004Y1617914D02*
Y1615911D01*
X1995523Y1614958D02*
X1995804Y1616011D01*
X1995523Y1614958D02*
G03X1995404Y1614048I3415J-910D01*
G01X1995804Y1617811D02*
Y1616011D01*
X1993504*
X1991004Y1615911D02*
X1993404D01*
G54D27*
X1992304Y1589611D02*
X2001204D01*
X2009288Y1609449D02*
Y1611887D01*
X2009804Y1612303*
X2015194Y1609449D02*
X2015196Y1609451D01*
Y1611303*
X2016204Y1612311*
X2017804*
X2020704Y1615211*
X2023154*
X2019783Y1600591D02*
G03X2020704Y1601511I0J920D01*
X2019656Y1602559I-1048J0*
G01X2018146D02*
X2019656D01*
X2018146Y1600591D02*
X2019783D01*
X2009804Y1612303D02*
X2010665Y1612403D01*
X2011257Y1611811*
Y1609449*
G54D28*
X1992304Y1589611D02*
X1992346Y1589567D01*
X1993676Y1605737D02*
Y1604145D01*
G03X1994141Y1603022I1588J0*
G01X1994203Y1602960D02*
G03X1995171Y1602559I968J968D01*
G01X1998461*
X1994141Y1603022D02*
X1994203Y1602960D01*
G54D29*
X2022890Y1584325D02*
X2023610Y1583211D01*
X2023169Y1584046*
X2024004Y1583605*
X2022890Y1584325*
X2023446Y1583465D02*
X2023476D01*
X2022937Y1584252D02*
X2023003D01*
X2023622Y1583807D02*
Y1583852D01*
X1996579Y1600511D02*
X1995282Y1600789D01*
X1996185Y1600511*
X1995282Y1600233*
X1996579Y1600511*
X1995289Y1600787D02*
X1995292D01*
X1996063Y1600400D02*
Y1600473D01*
Y1600549D02*
Y1600622D01*
X2015194Y1588577D02*
G03X2015665Y1587440I1608J0D01*
G01X2015194Y1589764D02*
Y1588577D01*
X2019475Y1587740D02*
X2024004Y1583211D01*
X1996640Y1594685D02*
G03X1994530Y1593811I-0J-2984D01*
G01X1994504D02*
X1994530D01*
X1996640Y1594685D02*
X1998461D01*
X1993804Y1598411D02*
X1993904Y1598622D01*
X1998461*
X1995914Y1596654D02*
G03X1994604Y1596111I-0J-1853D01*
G01X1995914Y1596654D02*
X1998461D01*
X2018157Y1598611D02*
X2021072D01*
X2023304*
Y1598643*
X2024413Y1599751*
X2018104Y1591050D02*
Y1592674D01*
X2018146Y1592717*
X2018104Y1591050D02*
G03X2019475Y1587740I4680J-0D01*
G01X2018146Y1596654D02*
X2021804D01*
X2022454Y1596003*
X2026604*
Y1595985*
X2030318Y1592271*
X2024413Y1599751D02*
X2025404Y1600743D01*
Y1604411*
X2030318Y1592271D02*
Y1587597D01*
X2030404Y1587511*
X1995804Y1604611D02*
X1995887Y1604528D01*
X1998461*
X1995004Y1600511D02*
X1998441D01*
X1998461Y1600591*
X1997804Y1608211D02*
Y1606616D01*
X1999704Y1609711D02*
X2001414D01*
X2018146Y1604528D02*
X2020404D01*
X2021680Y1605803*
Y1607703*
X2023604Y1609628*
X2024687*
X2024704Y1609611*
G54D30*
X1996404Y1618011D02*
X1992904D01*
X1991854*
X1991554Y1619311D02*
X1992854Y1618011D01*
X1992904*
X2023154Y1615211D02*
X2023204Y1612403D01*
X1974004Y1578411D03*
X1980704Y1578211D03*
X1996804Y1578411D03*
X1988704Y1578211D03*
X2016304Y1578411D03*
X2007304Y1578211D03*
X2024804Y1578411D03*
X2033304Y1578311D03*
X1973904Y1583111D03*
X1977304Y1581811D03*
X1995504Y1587411D03*
X1987304Y1586211D03*
X2015665Y1587440D03*
X2024004Y1583211D03*
X2017004Y1583311D03*
X2023304Y1589403D03*
X2024204Y1587403D03*
X2020304Y1583411D03*
X1973804Y1593211D03*
X1977104Y1594811D03*
X1985904Y1595911D03*
X1994504Y1593811D03*
X1993804Y1598411D03*
X1994604Y1596111D03*
X1995704Y1591711D03*
X2006004Y1599811D03*
Y1596811D03*
X2002904Y1599711D03*
X2002804Y1596611D03*
Y1593611D03*
X2006004D03*
X2009904Y1599811D03*
Y1596711D03*
X2009804Y1593611D03*
X2013904D03*
Y1596611D03*
Y1599411D03*
X2020504Y1594711D03*
X2034304Y1592711D03*
Y1597511D03*
X1973804Y1604911D03*
X1977204Y1606511D03*
X1983404Y1607111D03*
X1977104Y1602511D03*
X1983404Y1601811D03*
X1988504Y1602811D03*
X1995804Y1604611D03*
X1995004Y1600511D03*
X2006004Y1602811D03*
X2002904D03*
X2006004Y1605311D03*
X2003004D03*
X1997804Y1608211D03*
X1999704Y1609711D03*
X2009904Y1602611D03*
X2013904Y1602411D03*
X2010004Y1605411D03*
X2014004D03*
X2017804Y1608411D03*
X2020704Y1601511D03*
X2030704Y1607403D03*
X2034404Y1602311D03*
X2031804Y1603103D03*
X2031604Y1605003D03*
X2034404Y1606011D03*
X1981104Y1619311D03*
X1995804Y1616011D03*
X1993404Y1615911D03*
X1991004D03*
X1999004Y1619511D03*
X2005404Y1611611D03*
X2005004Y1618411D03*
X2001404Y1612911D03*
X2007804Y1616211D03*
X2009804Y1612303D03*
X2012004Y1620111D03*
X2013704Y1618811D03*
X2019704Y1619211D03*
X2025704Y1619011D03*
X2023104Y1619503D03*
X2023204Y1612403D03*
X2019104Y1616711D03*
X2028804Y1619411D03*
X2034204Y1612011D03*
Y1617011D03*
X2031504Y1616311D03*
X1976304Y1623411D03*
X1974304Y1625911D03*
X1973404Y1629111D03*
X1978404Y1621411D03*
X1981104Y1623011D03*
X1985604Y1625911D03*
X1984204Y1623111D03*
X1981104Y1628711D03*
X1977004Y1628811D03*
X1987104D03*
X1987604Y1620311D03*
X1996204Y1625911D03*
X1988804Y1623211D03*
X1993304Y1628811D03*
X2001404Y1622811D03*
X1998904Y1622311D03*
X1998504Y1628811D03*
X2001604Y1625911D03*
X2002604Y1628711D03*
X2011304Y1623811D03*
X2008004Y1626111D03*
X2015604Y1623711D03*
X2013004Y1625911D03*
X2007904Y1624011D03*
X2024604Y1628711D03*
X2026404Y1626011D03*
X2017504Y1625911D03*
X2022704Y1626011D03*
X2020204Y1623811D03*
X2033904Y1628611D03*
X2029804D03*
X2027304Y1628711D03*
X2028704Y1623811D03*
X2034304Y1622611D03*
X2034104Y1625911D03*
X2030704Y1625811D03*
G54D31*
X1990201Y1615108D02*
X1996807D01*
Y1617914*
X1990201*
Y1615108*
X2022801Y1590314D02*
X2026007D01*
Y1586408*
X2022801*
Y1590314*
X2028701Y1605714D02*
X2032307D01*
Y1601808*
X2028701*
Y1605714*
X1990201Y1617587D02*
X1996807D01*
X1990201Y1617233D02*
X1996807D01*
X1990201Y1616878D02*
X1996807D01*
X1990201Y1616524D02*
X1996807D01*
X1990201Y1616170D02*
X1996807D01*
X1990201Y1615815D02*
X1996807D01*
X1990201Y1615461D02*
X1996807D01*
X2022801Y1590304D02*
X2026007D01*
X2022801Y1589950D02*
X2026007D01*
X2022801Y1589596D02*
X2026007D01*
X2022801Y1589241D02*
X2026007D01*
X2022801Y1588887D02*
X2026007D01*
X2022801Y1588533D02*
X2026007D01*
X2022801Y1588178D02*
X2026007D01*
X2022801Y1587824D02*
X2026007D01*
X2022801Y1587470D02*
X2026007D01*
X2022801Y1587115D02*
X2026007D01*
X2022801Y1586761D02*
X2026007D01*
X2028701Y1605704D02*
X2032307D01*
X2028701Y1605350D02*
X2032307D01*
X2028701Y1604996D02*
X2032307D01*
X2028701Y1604641D02*
X2032307D01*
X2028701Y1604287D02*
X2032307D01*
X2028701Y1603933D02*
X2032307D01*
X2028701Y1603578D02*
X2032307D01*
X2028701Y1603224D02*
X2032307D01*
X2028701Y1602870D02*
X2032307D01*
X2028701Y1602515D02*
X2032307D01*
X2028701Y1602161D02*
X2032307D01*
X1968504Y1653543D02*
X2039370D01*
Y1574803*
X1968504*
Y1653543*
G54D56*
X2013190Y1614497D02*
X2013225Y1614461D01*
Y1609449*
X2010518Y1617097D02*
X2013118Y1614497D01*
X2013190*
X2005811Y1628218D02*
X2006063Y1628470D01*
X2005811Y1628218D02*
G03X2005104Y1626511I1707J-1707D01*
G01Y1622439*
X2005118Y1622425*
X2007128Y1628911D02*
G03X2006063Y1628470I0J-1507D01*
G01X2005118Y1622425D02*
X2007618Y1619925D01*
X2007690*
X2007128Y1628911D02*
X2015563D01*
G03X2017511Y1629718I-0J2756*
G01X2018504Y1631405*
G54D57*
X2027304Y1628711D02*
Y1631795D01*
G54D58*
X2018504Y1631405D03*
X2027307D03*
G54D59*
X1968504Y1613780D03*
Y1607874D03*
Y1596063D03*
Y1584252D03*
X2039370Y1619685D03*
Y1613780D03*
Y1601969D03*
Y1625591D03*
X1968504Y1578346D03*
Y1625591D03*
Y1601969D03*
Y1590157D03*
X2039370Y1578346D03*
X1968504Y1619685D03*
X2039370Y1607874D03*
Y1584252D03*
Y1590157D03*
Y1596063D03*
G54D60*
X2024604Y1628711D02*
X2027304D01*
X2029804Y1628611*
X2027304Y1631795D02*
X2027307Y1631405D01*
G74*
X0Y0D02*
M02*
