*
*
G04 PADS 9.5 Build Number: 522968 generated Gerber (RS-274-X) file*
G04 PC Version=2.1*
*
%IN "ESP_WROOM_02_1213.pcb"*%
*
%MOIN*%
*
%FSLAX35Y35*%
*
*
*
*
G04 PC Standard Apertures*
*
*
G04 Thermal Relief Aperture macro.*
%AMTER*
1,1,$1,0,0*
1,0,$1-$2,0,0*
21,0,$3,$4,0,0,45*
21,0,$3,$4,0,0,135*
%
*
*
G04 Annular Aperture macro.*
%AMANN*
1,1,$1,0,0*
1,0,$2,0,0*
%
*
*
G04 Odd Aperture macro.*
%AMODD*
1,1,$1,0,0*
1,0,$1-0.005,0,0*
%
*
*
G04 PC Custom Aperture Macros*
*
*
*
*
*
*
G04 PC Aperture Table*
*
%ADD010C,0.001*%
%ADD012C,0.01*%
%ADD024C,0.005*%
%ADD025C,0.006*%
%ADD029C,0.00787*%
%ADD030C,0.01575*%
%ADD031C,0.00394*%
%ADD066R,0.06693X0.03543*%
*
*
*
*
G04 PC Circuitry*
G04 Layer Name ESP_WROOM_02_1213.pcb - circuitry*
%LPD*%
*
*
G04 PC Custom Flashes*
G04 Layer Name ESP_WROOM_02_1213.pcb - flashes*
%LPD*%
*
*
G04 PC Circuitry*
G04 Layer Name ESP_WROOM_02_1213.pcb - circuitry*
%LPD*%
*
G54D10*
G54D12*
G01X2025579Y1583211D02*
X2024207Y1583414D01*
X2025291Y1583211*
X2024207Y1583008*
X2025579Y1583211*
X2024504Y1583052D02*
Y1583063D01*
Y1583359D02*
Y1583370D01*
X2025504Y1583200D02*
Y1583222D01*
X2020504Y1593136D02*
X2020707Y1594508D01*
X2020504Y1593424*
X2020301Y1594508*
X2020504Y1593136*
X2020405Y1593803D02*
X2020433D01*
X2020575D02*
X2020603D01*
X2020504Y1593136D02*
Y1593424D01*
X2024004Y1583211D02*
X2038428D01*
X2039370Y1584252*
X2020504Y1594711D02*
Y1587611D01*
X2022604Y1585511*
X2031904*
X2036504Y1590157*
X2039370*
X2036804Y1607874D02*
X2039370D01*
X2005404Y1611611D02*
X2006110Y1612372D01*
X2010707Y1614378D02*
G75*
G03X2006110Y1612372I-0J-6271D01*
G01X2010707Y1614378D02*
X2038870D01*
G54D24*
X2022341Y1601511D02*
G03X2022341I-1637J0D01*
G01X2017302Y1587440D02*
G03X2017302I-1637J0D01*
G01X2034954Y1575803D02*
Y1578275D01*
G03X2034910Y1578382I-150J0*
G01X2033468Y1579823*
G03X2033362Y1579867I-106J-106*
G01X2008104*
X2007224Y1580232D02*
G03X2008104Y1579867I880J879D01*
G01X2007224Y1580232D02*
X1997033Y1590423D01*
G03X1996927Y1590467I-106J-106*
G01X1996823*
G03X1996729Y1590434I0J-150*
G01X1994107Y1592075D02*
G03X1996729Y1590434I1597J-364D01*
G01X1994107Y1592075D02*
G03X1994007Y1592251I-146J33D01*
G01X1993712Y1592378D02*
G03X1994007Y1592251I792J1433D01*
G01X1993712Y1592378D02*
G03X1993534Y1592352I-72J-132D01*
G01X1989998Y1588816*
G03X1990106Y1588560I106J-106*
G01X1990201Y1588561D02*
G03X1990106Y1588560I-0J-5247D01*
G01X1990201Y1588561D02*
X1993750D01*
G03X1993791Y1588567I0J150*
G01X1994628Y1588801*
G03X1994664Y1588817I-41J144*
G01Y1586005D02*
G03Y1588817I840J1406D01*
G01Y1586005D02*
G03X1994628Y1586021I-77J-128D01*
G01X1993791Y1586255*
G03X1993750Y1586261I-41J-144*
G01X1990201*
G03X1989336Y1586131I-0J-2947*
X1989265Y1586085I44J-143*
G01X1988807Y1585547*
G03X1988785Y1585513I114J-98*
G01X1985933Y1587106D02*
G03X1988785Y1585513I1371J-895D01*
G01X1985933Y1587106D02*
G03X1985807Y1587338I-126J82D01*
G01X1976311*
G03X1976205Y1587294I-0J-150*
G01X1973198Y1584287*
G03X1973154Y1584181I106J-106*
G01Y1580011*
X1972904Y1579761D02*
G03X1973154Y1580011I-0J250D01*
G01X1972904Y1579761D02*
X1969504D01*
G03X1969354Y1579611I-0J-150*
G01Y1575803*
G03X1969504Y1575653I150J0*
G01X2034804*
G03X2034954Y1575803I-0J150*
G01X2038520Y1594711D02*
Y1597411D01*
G03X2038370Y1597561I-150J0*
G01X2035204*
X2034954Y1597811D02*
G03X2035204Y1597561I250J0D01*
G01X2034954Y1597811D02*
Y1607903D01*
G03X2034910Y1608009I-150J0*
G01X2034596Y1608323*
G03X2034490Y1608367I-106J-106*
G01X2019581*
G03X2019475Y1608323I0J-150*
G01X2019475*
G03X2019432Y1608233I106J-106*
G01X2017626Y1610039D02*
G03X2019432Y1608233I178J-1628D01*
G01X2017626Y1610039D02*
G03X2017716Y1610082I-16J149D01*
G01X2018124Y1610490*
X2019004Y1610855D02*
G03X2018124Y1610490I-0J-1244D01*
G01X2019004Y1610855D02*
X2022091D01*
G03X2022184Y1611122I-0J150*
G01X2021625Y1612838D02*
G03X2022184Y1611122I1579J-435D01*
G01X2021625Y1612838D02*
G03X2021481Y1613028I-144J40D01*
G01X2011497*
G03X2011355Y1612829I-0J-150*
G01X2008182Y1612079D02*
G03X2011355Y1612829I1622J224D01*
G01X2008182Y1612079D02*
G03X2007949Y1612182I-149J-21D01*
X2007099Y1611454I2758J-4075*
G01X2007055Y1611405*
G03X2007017Y1611329I110J-102*
G01X2005002Y1613198D02*
G03X2007017Y1611329I402J-1587D01*
G01X2005002Y1613198D02*
G03X2005075Y1613242I-37J146D01*
G01X2005120Y1613290*
X2010707Y1615728D02*
G03X2005120Y1613290I-0J-7621D01*
G01X2010707Y1615728D02*
X2034804D01*
G03X2034954Y1615878I-0J150*
G01Y1618291*
G03X2034804Y1618441I-150J0*
G01X2034104*
X2033224Y1618806D02*
G03X2034104Y1618441I880J879D01*
G01X2033224Y1618806D02*
X2031407Y1620623D01*
G03X2031301Y1620667I-106J-106*
G01X2005481*
G03X2005375Y1620623I0J-150*
G01X2000392Y1615640*
G03X2000348Y1615534I106J-106*
G01Y1614452*
G03X2000574Y1614322I150J-0*
G01Y1611500D02*
G03Y1614322I830J1411D01*
G01Y1611500D02*
G03X2000348Y1611370I-76J-130D01*
G01Y1611313*
G03X2000431Y1611178I150J-0*
G01X1999580Y1608078D02*
G03X2000431Y1611178I124J1633D01*
G01X1999580Y1608078D02*
G03X1999421Y1607952I-11J-149D01*
G01X1996674Y1607026D02*
G03X1999421Y1607952I1130J1185D01*
G01X1996674Y1607026D02*
G03X1996571Y1607067I-103J-109D01*
G01X1995469*
G03X1995363Y1606811I-0J-150*
G01X1995465Y1606709*
G03X1995490Y1606689I106J106*
G01X1996263Y1606189*
G03X1996299Y1606172I82J126*
G01X1994243Y1604116D02*
G03X1996299Y1606172I1561J495D01*
G01X1994243Y1604116D02*
G03X1994226Y1604152I-143J-46D01*
G01X1993726Y1604925*
G03X1993706Y1604950I-126J-81*
G01X1990433Y1608223*
G03X1990327Y1608267I-106J-106*
G01X1984881*
G03X1984757Y1608033I0J-150*
G01X1982051D02*
G03X1984757I1353J-922D01*
G01X1982051D02*
G03X1981927Y1608267I-124J84D01*
G01X1973591*
G03X1973483Y1608222I-0J-150*
G01X1973197Y1607929*
G03X1973154Y1607824I107J-105*
G01Y1602340*
X1973154D02*
G03X1973198Y1602233I150J-0D01*
G01X1974233Y1601199*
G03X1974339Y1601155I106J106*
G01X1981690*
G03X1981834Y1601347I-0J150*
G01X1984974D02*
G03X1981834I-1570J464D01*
G01X1984974D02*
G03X1985118Y1601155I144J-42D01*
G01X1990632*
G03X1990669Y1601159I0J150*
G01X1992902Y1601718*
X1993204Y1601755D02*
G03X1992902Y1601718I-0J-1244D01*
G01X1993204Y1601755D02*
X1993885D01*
G03X1993979Y1601788I-0J150*
G01X1995501Y1598951D02*
G03X1993979Y1601788I-497J1560D01*
G01X1995501Y1598951D02*
G03X1995400Y1598775I46J-143D01*
G01X1995303Y1597751D02*
G03X1995400Y1598775I-1499J660D01*
G01X1995303Y1597751D02*
G03X1995370Y1597558I137J-60D01*
G01X1995810Y1595003D02*
G03X1995370Y1597558I-1206J1108D01*
G01X1995810Y1595003D02*
G03X1995801Y1594810I110J-101D01*
G01X1996100Y1593447D02*
G03X1995801Y1594810I-1596J364D01*
G01X1996100Y1593447D02*
G03X1996201Y1593271I147J-33D01*
G01X1996729Y1592988D02*
G03X1996201Y1593271I-1025J-1277D01*
G01X1996729Y1592988D02*
G03X1996823Y1592955I94J117D01*
G01X1997504*
X1998383Y1592590D02*
G03X1997504Y1592955I-879J-879D01*
G01X1998383Y1592590D02*
X2008575Y1582399D01*
G03X2008681Y1582355I106J106*
G01X2022362*
G03X2022500Y1582564I-0J150*
G01X2022545Y1583955D02*
G03X2022500Y1582564I1459J-744D01*
G01X2022545Y1583955D02*
G03X2022431Y1584172I-133J68D01*
G01X2021649Y1584556D02*
G03X2022431Y1584172I955J955D01*
G01X2021649Y1584556D02*
X2019549Y1586656D01*
X2019154Y1587611D02*
G03X2019549Y1586656I1350J0D01*
G01X2019154Y1587611D02*
Y1593026D01*
G03X2019152Y1593048I-150J-0*
G01X2019006Y1594038*
G03X2018995Y1594074I-149J-22*
G01X2022012D02*
G03X2018995I-1508J637D01*
G01X2022012D02*
G03X2022002Y1594038I139J-58D01*
G01X2021856Y1593048*
G03X2021854Y1593026I148J-22*
G01Y1588232*
G03X2021898Y1588126I150J0*
G01X2023119Y1586905*
G03X2023225Y1586861I106J106*
G01X2031278*
G03X2031385Y1586906I0J150*
G01X2034911Y1590467*
G03X2034954Y1590572I-107J105*
G01Y1594311*
X2035204Y1594561D02*
G03X2034954Y1594311I-0J-250D01*
G01X2035204Y1594561D02*
X2038370D01*
G03X2038520Y1594711I0J150*
G01X2034954Y1611005D02*
Y1612878D01*
G03X2034804Y1613028I-150J-0*
G01X2024927*
G03X2024783Y1612838I0J-150*
G01X2024224Y1611122D02*
G03X2024783Y1612838I-1020J1281D01*
G01X2024224Y1611122D02*
G03X2024317Y1610855I93J-117D01*
G01X2034804*
G03X2034954Y1611005I-0J150*
G01X2038520Y1624211D02*
Y1629954D01*
G03X2038370Y1630104I-150J0*
G01X1969504*
G03X1969354Y1629954I-0J-150*
G01Y1628711*
G03X1969504Y1628561I150J0*
G01X1972904*
X1973154Y1628311D02*
G03X1972904Y1628561I-250J0D01*
G01X1973154Y1628311D02*
Y1613862D01*
G03X1973199Y1613755I150J-0*
G01X1974471Y1612498*
G03X1974576Y1612455I105J107*
G01X1992304*
X1993183Y1612090D02*
G03X1992304Y1612455I-879J-879D01*
G01X1993183Y1612090D02*
X1995675Y1609599D01*
G03X1995781Y1609555I106J106*
G01X1996822*
G03X1996905Y1609579I0J150*
G01X1997775Y1609848D02*
G03X1996905Y1609579I29J-1637D01*
G01X1997775Y1609848D02*
G03X1997916Y1610043I-2J150D01*
G01X1997860Y1610411D02*
G03X1997916Y1610043I1244J0D01*
G01X1997860Y1610411D02*
Y1616111D01*
X1998224Y1616990D02*
G03X1997860Y1616111I880J-879D01*
G01X1998224Y1616990D02*
X2004024Y1622790D01*
X2004904Y1623155D02*
G03X2004024Y1622790I-0J-1244D01*
G01X2004904Y1623155D02*
X2031878D01*
X2032757Y1622790D02*
G03X2031878Y1623155I-879J-879D01*
G01X2032757Y1622790D02*
X2034575Y1620973D01*
G03X2034681Y1620929I106J106*
G01X2034804*
G03X2034954Y1621079I-0J150*
G01Y1623811*
X2035204Y1624061D02*
G03X2034954Y1623811I-0J-250D01*
G01X2035204Y1624061D02*
X2038370D01*
G03X2038520Y1624211I0J150*
G01X1992316Y1596883D02*
G03X1992242Y1597136I-105J107D01*
G01X1992113Y1597164*
G03X1992081Y1597167I-32J-147*
G01X1974190*
G03X1974083Y1597122I-0J-150*
G01X1973197Y1596218*
G03X1973154Y1596113I107J-105*
G01Y1591551*
G03X1973304Y1591401I150J0*
G01X1986730*
G03X1986835Y1591445I-0J150*
G01X1992316Y1596883*
X2022341Y1601511D02*
G03X2022341I-1637J0D01*
G01X2017302Y1587440D02*
G03X2017302I-1637J0D01*
G01X1994755Y1614754D02*
G03X1994654Y1617177I1049J1257D01*
G01X1994755Y1614754D02*
G03X1994554Y1614745I-96J-116D01*
G01X1992305Y1614697D02*
G03X1994554Y1614745I1099J1214D01*
G01X1992305Y1614697D02*
G03X1992103I-101J-111D01*
G01Y1617125D02*
G03Y1614697I-1099J-1214D01*
G01Y1617125D02*
G03X1992305I101J111D01*
G01X1994453Y1617168D02*
G03X1992305Y1617125I-1049J-1257D01*
G01X1994453Y1617168D02*
G03X1994654Y1617177I96J116D01*
G01X1969354Y1577902D02*
X2034954D01*
X1969354Y1577452D02*
X2034954D01*
X1969354Y1577002D02*
X2034954D01*
X1969354Y1576552D02*
X2034954D01*
X1969354Y1576102D02*
X2034954D01*
X1969354Y1578352D02*
X2034933D01*
X1969354Y1578802D02*
X2034490D01*
X1969354Y1579252D02*
X2034040D01*
X1969385Y1579702D02*
X2033590D01*
X1973154Y1580152D02*
X2007312D01*
X1973154Y1580602D02*
X2006854D01*
X1973154Y1581052D02*
X2006404D01*
X1973154Y1581502D02*
X2005954D01*
X1973154Y1581952D02*
X2005504D01*
X1973154Y1582402D02*
X2005054D01*
X1973154Y1582852D02*
X2004604D01*
X1973154Y1583302D02*
X2004154D01*
X1973154Y1583752D02*
X2003704D01*
X1973155Y1584202D02*
X2003254D01*
X1987804Y1584652D02*
X2002804D01*
X1988508Y1585102D02*
X2002354D01*
X1988811Y1585552D02*
X2001904D01*
X1996338Y1586002D02*
X2001454D01*
X1996831Y1586452D02*
X2001004D01*
X1997060Y1586902D02*
X2000554D01*
X1997140Y1587352D02*
X2000104D01*
X1997094Y1587802D02*
X1999654D01*
X1996909Y1588252D02*
X1999204D01*
X1996511Y1588702D02*
X1998754D01*
X1990333Y1589152D02*
X1998304D01*
X1990783Y1589602D02*
X1997854D01*
X1991233Y1590052D02*
X1997404D01*
X1989195Y1586002D02*
X1994670D01*
X1991683Y1590502D02*
X1994600D01*
X1989954Y1588702D02*
X1994274D01*
X1992133Y1590952D02*
X1994253D01*
X1992583Y1591402D02*
X1994096D01*
X1993033Y1591852D02*
X1994073D01*
X1993483Y1592302D02*
X1993869D01*
X1973563Y1584652D02*
X1986804D01*
X1974013Y1585102D02*
X1986099D01*
X1975813Y1586902D02*
X1985819D01*
X1974463Y1585552D02*
X1985805D01*
X1975363Y1586452D02*
X1985684D01*
X1974913Y1586002D02*
X1985680D01*
X1995824Y1597203D02*
X2038520D01*
X1996110Y1596753D02*
X2038520D01*
X2020885Y1596303D02*
X2038520D01*
X2021677Y1595853D02*
X2038520D01*
X2021988Y1595403D02*
X2038520D01*
X2022123Y1594953D02*
X2038520D01*
X2022128Y1594503D02*
X2035044D01*
X1995295Y1597653D02*
X2035010D01*
X2002655Y1617903D02*
X2034954D01*
X2002205Y1617453D02*
X2034954D01*
X2001755Y1617003D02*
X2034954D01*
X2001305Y1616553D02*
X2034954D01*
X2000855Y1616103D02*
X2034954D01*
X2019199Y1607553D02*
X2034954D01*
X2018790Y1607103D02*
X2034954D01*
X1998309Y1606653D02*
X2034954D01*
X1996241Y1606203D02*
X2034954D01*
X1996977Y1605753D02*
X2034954D01*
X1997288Y1605303D02*
X2034954D01*
X1997423Y1604853D02*
X2034954D01*
X1997428Y1604403D02*
X2034954D01*
X1997304Y1603953D02*
X2034954D01*
X1997010Y1603503D02*
X2034954D01*
X2021254Y1603053D02*
X2034954D01*
X2021924Y1602603D02*
X2034954D01*
X2022210Y1602153D02*
X2034954D01*
X2022330Y1601703D02*
X2034954D01*
X2022321Y1601253D02*
X2034954D01*
X2022181Y1600803D02*
X2034954D01*
X2021862Y1600353D02*
X2034954D01*
X2021015Y1599903D02*
X2034954D01*
X1996254Y1599453D02*
X2034954D01*
X1995643Y1599003D02*
X2034954D01*
X1995435Y1598553D02*
X2034954D01*
X1995412Y1598103D02*
X2034954D01*
X2022005Y1594053D02*
X2034954D01*
X2021938Y1593603D02*
X2034954D01*
X2021871Y1593153D02*
X2034954D01*
X2021854Y1592703D02*
X2034954D01*
X2021854Y1592253D02*
X2034954D01*
X2021854Y1591803D02*
X2034954D01*
X2021854Y1591353D02*
X2034954D01*
X2021854Y1590903D02*
X2034954D01*
X2003105Y1618353D02*
X2034940D01*
X2019390Y1608003D02*
X2034915D01*
X2021854Y1590453D02*
X2034897D01*
X2021854Y1590003D02*
X2034452D01*
X2021854Y1589553D02*
X2034006D01*
X2021854Y1589103D02*
X2033561D01*
X2003555Y1618803D02*
X2033227D01*
X2021854Y1588653D02*
X2033115D01*
X2004005Y1619253D02*
X2032777D01*
X2021857Y1588203D02*
X2032670D01*
X2004455Y1619703D02*
X2032327D01*
X2022271Y1587753D02*
X2032224D01*
X2004905Y1620153D02*
X2031877D01*
X2022721Y1587303D02*
X2031779D01*
X2005355Y1620603D02*
X2031427D01*
X2006820Y1584153D02*
X2022486D01*
X2007270Y1583703D02*
X2022442D01*
X2008170Y1582803D02*
X2022418D01*
X2007720Y1583253D02*
X2022367D01*
X2010970Y1611153D02*
X2022146D01*
X2011284Y1611603D02*
X2021775D01*
X2011367Y1612953D02*
X2021610D01*
X2011422Y1612053D02*
X2021604D01*
X2006370Y1584603D02*
X2021602D01*
X2011429Y1612503D02*
X2021570D01*
X2005920Y1585053D02*
X2021152D01*
X2005470Y1585503D02*
X2020702D01*
X1996524Y1599903D02*
X2020393D01*
X2016351Y1585953D02*
X2020252D01*
X1996309Y1603053D02*
X2020154D01*
X1996230Y1596303D02*
X2020123D01*
X2016932Y1586403D02*
X2019802D01*
X1996634Y1600353D02*
X2019546D01*
X1984837Y1602603D02*
X2019484D01*
X2017193Y1586853D02*
X2019387D01*
X1996221Y1595853D02*
X2019331D01*
X1996615Y1600803D02*
X2019227D01*
X1985005Y1602153D02*
X2019198D01*
X2017296Y1587303D02*
X2019189D01*
X1998254Y1592703D02*
X2019154D01*
X1998720Y1592253D02*
X2019154D01*
X1999170Y1591803D02*
X2019154D01*
X1999620Y1591353D02*
X2019154D01*
X2000070Y1590903D02*
X2019154D01*
X2000520Y1590453D02*
X2019154D01*
X2000970Y1590003D02*
X2019154D01*
X2001420Y1589553D02*
X2019154D01*
X2001870Y1589103D02*
X2019154D01*
X2016764Y1588653D02*
X2019154D01*
X2017113Y1588203D02*
X2019154D01*
X2017272Y1587753D02*
X2019154D01*
X1996479Y1593153D02*
X2019137D01*
X1996463Y1601253D02*
X2019087D01*
X1996126Y1601703D02*
X2019078D01*
X1996128Y1593603D02*
X2019070D01*
X1996081Y1595403D02*
X2019020D01*
X1996123Y1594053D02*
X2019002D01*
X1995779Y1594953D02*
X2018885D01*
X1995988Y1594503D02*
X2018880D01*
X2010153Y1610703D02*
X2018409D01*
X2006319Y1610253D02*
X2017887D01*
X2001339Y1609803D02*
X2016942D01*
X1999010Y1607103D02*
X2016818D01*
X2001302Y1609353D02*
X2016465D01*
X1999304Y1607553D02*
X2016409D01*
X2001128Y1608903D02*
X2016242D01*
X1999439Y1608003D02*
X2016218D01*
X2000753Y1608453D02*
X2016167D01*
X2005020Y1585953D02*
X2014978D01*
X2002320Y1588653D02*
X2014565D01*
X2004570Y1586403D02*
X2014397D01*
X2002770Y1588203D02*
X2014216D01*
X2004120Y1586853D02*
X2014136D01*
X2003220Y1587753D02*
X2014058D01*
X2003670Y1587303D02*
X2014033D01*
X2000405Y1615653D02*
X2009646D01*
X2006767Y1610703D02*
X2009455D01*
X2006976Y1611153D02*
X2008638D01*
X2007244Y1611603D02*
X2008324D01*
X2007768Y1612053D02*
X2008186D01*
X2000348Y1615203D02*
X2007929D01*
X2000348Y1614753D02*
X2006979D01*
X2002266Y1614303D02*
X2006271D01*
X2002743Y1613853D02*
X2005701D01*
X2002966Y1613403D02*
X2005227D01*
X2001249Y1610253D02*
X2004488D01*
X2003041Y1612953D02*
X2004466D01*
X2001006Y1610703D02*
X2004041D01*
X2002990Y1612503D02*
X2004031D01*
X2000479Y1611153D02*
X2003832D01*
X2002799Y1612053D02*
X2003827D01*
X2002390Y1611603D02*
X2003767D01*
X2000475Y1614303D02*
X2000521D01*
X1995544Y1606653D02*
X1997299D01*
X1984471Y1603053D02*
X1995299D01*
X1973154Y1603503D02*
X1994598D01*
X1973154Y1603953D02*
X1994304D01*
X1973154Y1604403D02*
X1994063D01*
X1973154Y1604853D02*
X1993773D01*
X1973154Y1605303D02*
X1993353D01*
X1984319Y1605753D02*
X1992903D01*
X1985038Y1601703D02*
X1992846D01*
X1984767Y1606203D02*
X1992453D01*
X1984976Y1606653D02*
X1992003D01*
X1985041Y1607103D02*
X1991553D01*
X1984980Y1607553D02*
X1991103D01*
X1984977Y1601253D02*
X1991046D01*
X1984777Y1608003D02*
X1990653D01*
X1973154Y1605753D02*
X1982488D01*
X1973154Y1603053D02*
X1982337D01*
X1973154Y1606203D02*
X1982041D01*
X1973270Y1608003D02*
X1982031D01*
X1973154Y1602603D02*
X1981971D01*
X1973154Y1606653D02*
X1981832D01*
X1974178Y1601253D02*
X1981831D01*
X1973154Y1607553D02*
X1981827D01*
X1973278Y1602153D02*
X1981803D01*
X1973728Y1601703D02*
X1981770D01*
X1973154Y1607103D02*
X1981767D01*
X2024822Y1612653D02*
X2034954D01*
X2024829Y1612203D02*
X2034954D01*
X2024707Y1611753D02*
X2034954D01*
X2024417Y1611303D02*
X2034954D01*
X1969354Y1629803D02*
X2038520D01*
X1969354Y1629353D02*
X2038520D01*
X1969354Y1628903D02*
X2038520D01*
X1973109Y1628453D02*
X2038520D01*
X1973154Y1628003D02*
X2038520D01*
X1973154Y1627553D02*
X2038520D01*
X1973154Y1627103D02*
X2038520D01*
X1973154Y1626653D02*
X2038520D01*
X1973154Y1626203D02*
X2038520D01*
X1973154Y1625753D02*
X2038520D01*
X1973154Y1625303D02*
X2038520D01*
X1973154Y1624853D02*
X2038520D01*
X1973154Y1624403D02*
X2038520D01*
X1973154Y1623953D02*
X2034998D01*
X1973154Y1623503D02*
X2034954D01*
X2032370Y1623053D02*
X2034954D01*
X2032944Y1622603D02*
X2034954D01*
X2033394Y1622153D02*
X2034954D01*
X2033844Y1621703D02*
X2034954D01*
X2034294Y1621253D02*
X2034954D01*
X1973154Y1623053D02*
X2004412D01*
X1973154Y1622603D02*
X2003837D01*
X1973154Y1622153D02*
X2003387D01*
X1973154Y1621703D02*
X2002937D01*
X1973154Y1621253D02*
X2002487D01*
X1973154Y1620803D02*
X2002037D01*
X1973154Y1620353D02*
X2001587D01*
X1973154Y1619903D02*
X2001137D01*
X1973154Y1619453D02*
X2000687D01*
X1973154Y1619003D02*
X2000237D01*
X1973154Y1618553D02*
X1999787D01*
X1973154Y1618103D02*
X1999337D01*
X1973154Y1617653D02*
X1998887D01*
X1996926Y1617203D02*
X1998437D01*
X1997263Y1616753D02*
X1998039D01*
X1995270Y1610003D02*
X1997923D01*
X1997415Y1616303D02*
X1997875D01*
X1997434Y1615853D02*
X1997860D01*
X1997324Y1615403D02*
X1997860D01*
X1997054Y1614953D02*
X1997860D01*
X1996443Y1614503D02*
X1997860D01*
X1973154Y1614053D02*
X1997860D01*
X1973352Y1613603D02*
X1997860D01*
X1973807Y1613153D02*
X1997860D01*
X1974263Y1612703D02*
X1997860D01*
X1992982Y1612253D02*
X1997860D01*
X1993470Y1611803D02*
X1997860D01*
X1993920Y1611353D02*
X1997860D01*
X1994370Y1610903D02*
X1997860D01*
X1994820Y1610453D02*
X1997860D01*
X1994241Y1614503D02*
X1995165D01*
X1994409Y1617203D02*
X1994682D01*
X1991841Y1614503D02*
X1992567D01*
X1992009Y1617203D02*
X1992399D01*
X1973154Y1614503D02*
X1990167D01*
X1973154Y1617203D02*
X1989999D01*
X1973154Y1614953D02*
X1989676D01*
X1973154Y1616753D02*
X1989600D01*
X1973154Y1615403D02*
X1989447D01*
X1973154Y1616303D02*
X1989414D01*
X1973154Y1615853D02*
X1989368D01*
X1973767Y1596800D02*
X1992232D01*
X1973326Y1596350D02*
X1991779D01*
X1973154Y1595900D02*
X1991325D01*
X1973154Y1595450D02*
X1990872D01*
X1973154Y1595000D02*
X1990418D01*
X1973154Y1594550D02*
X1989965D01*
X1973154Y1594100D02*
X1989511D01*
X1973154Y1593650D02*
X1989058D01*
X1973154Y1593200D02*
X1988604D01*
X1973154Y1592750D02*
X1988151D01*
X1973154Y1592300D02*
X1987697D01*
X1973154Y1591850D02*
X1987244D01*
G54D25*
X1993929Y1587411D02*
X1995159Y1587066D01*
X1994417Y1587411*
X1995159Y1587756*
X1993929Y1587411*
X1993957Y1587403D02*
X1994434D01*
X1994304Y1587306D02*
Y1587516D01*
X1994904Y1587138D02*
Y1587185D01*
Y1587637D02*
Y1587684D01*
X1988611Y1587090D02*
X1987398Y1586689D01*
X1988206Y1586818*
X1987782Y1586117*
X1988611Y1587090*
X1987834Y1586203D02*
X1987855D01*
X1987742Y1586803D02*
X1988114D01*
X1988197D02*
X1988367D01*
X1987704Y1586738D02*
Y1586790D01*
X1988304Y1586730D02*
Y1586989D01*
X1990201Y1587411D02*
X1995504D01*
X1990201D02*
G03X1987304Y1586211I-0J-4097D01*
G54D29*
G01X1992229Y1598411D02*
X1993526Y1598133D01*
X1992623Y1598411*
X1993526Y1598689*
X1992229Y1598411*
X1992295Y1598425D02*
X1992669D01*
X1992913Y1598264D02*
Y1598321D01*
Y1598501D02*
Y1598558D01*
X1994690Y1605725D02*
X1995410Y1604611D01*
X1994969Y1605446*
X1995804Y1605005*
X1994690Y1605725*
X1995337Y1604724D02*
X1995350D01*
X1994828Y1605512D02*
X1995020D01*
X1995276Y1604819D02*
Y1604866D01*
Y1605284D02*
Y1605346D01*
X1968504Y1590157D02*
X1987304D01*
X1993304Y1596111*
X1994604*
X1968504Y1584252D02*
X1971404D01*
X1975733Y1588581*
X1988004*
X1993233Y1593811*
X1994504*
X1968504Y1596063D02*
X1971304D01*
X1973604Y1598411*
X1993804*
X1995704Y1591711D02*
X1997504D01*
X2008104Y1581111*
X2033939*
X2036704Y1578346*
X2039370*
X1968504Y1601969D02*
X1971704D01*
X1973761Y1599911*
X1990804*
X1993204Y1600511*
X1995004*
X1968504Y1607874D02*
X1971404D01*
X1973004Y1609511*
X1990904*
X1995804Y1604611*
X2017804Y1608411D02*
X2019004Y1609611D01*
X2035067*
X2036804Y1607874*
X1968504Y1613780D02*
X1971404D01*
X1974004Y1611211*
X1992304*
X1995204Y1608311*
X1997704*
X1997804Y1608211*
X1999104Y1616111D02*
Y1610411D01*
X1999704Y1609711*
X1999104Y1616111D02*
X2004904Y1621911D01*
X2031878*
X2034104Y1619685*
X2039370*
X2038870Y1614378D02*
X2039370Y1613780D01*
G54D30*
X1974004Y1578411D03*
X1980704Y1578211D03*
X1996804Y1578411D03*
X1988704Y1578211D03*
X2016304Y1578411D03*
X2007304Y1578211D03*
X2024804Y1578411D03*
X2033304Y1578311D03*
X1973904Y1583111D03*
X1977304Y1581811D03*
X1995504Y1587411D03*
X1987304Y1586211D03*
X2015665Y1587440D03*
X2024004Y1583211D03*
X2017004Y1583311D03*
X2023304Y1589403D03*
X2024204Y1587403D03*
X2020304Y1583411D03*
X1973804Y1593211D03*
X1977104Y1594811D03*
X1985904Y1595911D03*
X1994504Y1593811D03*
X1993804Y1598411D03*
X1994604Y1596111D03*
X1995704Y1591711D03*
X2006004Y1599811D03*
Y1596811D03*
X2002904Y1599711D03*
X2002804Y1596611D03*
Y1593611D03*
X2006004D03*
X2009904Y1599811D03*
Y1596711D03*
X2009804Y1593611D03*
X2013904D03*
Y1596611D03*
Y1599411D03*
X2020504Y1594711D03*
X2034304Y1592711D03*
Y1597511D03*
X1973804Y1604911D03*
X1977204Y1606511D03*
X1983404Y1607111D03*
X1977104Y1602511D03*
X1983404Y1601811D03*
X1988504Y1602811D03*
X1995804Y1604611D03*
X1995004Y1600511D03*
X2006004Y1602811D03*
X2002904D03*
X2006004Y1605311D03*
X2003004D03*
X1997804Y1608211D03*
X1999704Y1609711D03*
X2009904Y1602611D03*
X2013904Y1602411D03*
X2010004Y1605411D03*
X2014004D03*
X2017804Y1608411D03*
X2020704Y1601511D03*
X2030704Y1607403D03*
X2034404Y1602311D03*
X2031804Y1603103D03*
X2031604Y1605003D03*
X2034404Y1606011D03*
X1981104Y1619311D03*
X1995804Y1616011D03*
X1993404Y1615911D03*
X1991004D03*
X1999004Y1619511D03*
X2005404Y1611611D03*
X2005004Y1618411D03*
X2001404Y1612911D03*
X2007804Y1616211D03*
X2009804Y1612303D03*
X2012004Y1620111D03*
X2013704Y1618811D03*
X2019704Y1619211D03*
X2025704Y1619011D03*
X2023104Y1619503D03*
X2023204Y1612403D03*
X2019104Y1616711D03*
X2028804Y1619411D03*
X2034204Y1612011D03*
Y1617011D03*
X2031504Y1616311D03*
X1976304Y1623411D03*
X1974304Y1625911D03*
X1973404Y1629111D03*
X1978404Y1621411D03*
X1981104Y1623011D03*
X1985604Y1625911D03*
X1984204Y1623111D03*
X1981104Y1628711D03*
X1977004Y1628811D03*
X1987104D03*
X1987604Y1620311D03*
X1996204Y1625911D03*
X1988804Y1623211D03*
X1993304Y1628811D03*
X2001404Y1622811D03*
X1998904Y1622311D03*
X1998504Y1628811D03*
X2001604Y1625911D03*
X2002604Y1628711D03*
X2011304Y1623811D03*
X2008004Y1626111D03*
X2015604Y1623711D03*
X2013004Y1625911D03*
X2007904Y1624011D03*
X2024604Y1628711D03*
X2026404Y1626011D03*
X2017504Y1625911D03*
X2022704Y1626011D03*
X2020204Y1623811D03*
X2033904Y1628611D03*
X2029804D03*
X2027304Y1628711D03*
X2028704Y1623811D03*
X2034304Y1622611D03*
X2034104Y1625911D03*
X2030704Y1625811D03*
G54D31*
X1968504Y1653543D02*
X2039370D01*
Y1574803*
X1968504*
Y1653543*
G54D66*
Y1613780D03*
Y1607874D03*
Y1596063D03*
Y1584252D03*
X2039370Y1619685D03*
Y1613780D03*
Y1601969D03*
Y1625591D03*
X1968504Y1578346D03*
Y1625591D03*
Y1601969D03*
Y1590157D03*
X2039370Y1578346D03*
X1968504Y1619685D03*
X2039370Y1607874D03*
Y1584252D03*
Y1590157D03*
Y1596063D03*
G74*
X0Y0D02*
M02*
