*
*
G04 PADS 9.5 Build Number: 522968 generated Gerber (RS-274-X) file*
G04 PC Version=2.1*
*
%IN "ESP_WROOM_02_1213.pcb"*%
*
%MOIN*%
*
%FSLAX35Y35*%
*
*
*
*
G04 PC Standard Apertures*
*
*
G04 Thermal Relief Aperture macro.*
%AMTER*
1,1,$1,0,0*
1,0,$1-$2,0,0*
21,0,$3,$4,0,0,45*
21,0,$3,$4,0,0,135*
%
*
*
G04 Annular Aperture macro.*
%AMANN*
1,1,$1,0,0*
1,0,$2,0,0*
%
*
*
G04 Odd Aperture macro.*
%AMODD*
1,1,$1,0,0*
1,0,$1-0.005,0,0*
%
*
*
G04 PC Custom Aperture Macros*
*
*
*
*
*
*
G04 PC Aperture Table*
*
%ADD010C,0.001*%
%ADD011R,0.02X0.02*%
%ADD012C,0.01*%
%ADD013R,0.03543X0.04331*%
%ADD014R,0.01102X0.02756*%
%ADD015R,0.02756X0.01102*%
%ADD016R,0.13386X0.13386*%
%ADD018R,0.032X0.036*%
%ADD020R,0.02362X0.05512*%
%ADD021C,0.03937*%
%ADD031C,0.00394*%
%ADD036C,0.02362*%
%ADD057C,0.02559*%
%ADD058O,0.01969X0.01969*%
*
*
*
*
G04 PC Circuitry*
G04 Layer Name ESP_WROOM_02_1213.pcb - circuitry*
%LPD*%
*
*
G04 PC Custom Flashes*
G04 Layer Name ESP_WROOM_02_1213.pcb - flashes*
%LPD*%
*
*
G04 PC Circuitry*
G04 Layer Name ESP_WROOM_02_1213.pcb - circuitry*
%LPD*%
*
G54D10*
G54D11*
G01X2025404Y1604411D03*
X2029404D03*
X2030404Y1587511D03*
X2026404D03*
X2028704Y1609611D03*
X2024704D03*
X2010804Y1584011D03*
X2006804D03*
X1996404Y1618011D03*
Y1622011D03*
G54D12*
X2007690Y1620632D02*
X2006983Y1619925D01*
X2007690Y1619218*
X2008397Y1619925*
X2007690Y1620632*
X2007105Y1619803D02*
X2008275D01*
X2007504Y1619404D02*
Y1620447D01*
X2010518Y1617804D02*
X2009811Y1617097D01*
X2010518Y1616390*
X2011225Y1617097*
X2010518Y1617804*
X2010105Y1616803D02*
X2010932D01*
X2010517Y1617803D02*
X2010519D01*
X2010504Y1616404D02*
Y1617790D01*
X2002290Y1620304D02*
X2001583Y1619597D01*
X2002290Y1618890*
X2002997Y1619597*
X2002290Y1620304*
X2001789Y1619803D02*
X2002790D01*
X2002504Y1619104D02*
Y1620090D01*
X2005118Y1623132D02*
X2004411Y1622425D01*
X2005118Y1621718*
X2005825Y1622425*
X2005118Y1623132*
X2005033Y1621803D02*
X2005203D01*
X2004789Y1622803D02*
X2005447D01*
X2004504Y1622332D02*
Y1622518D01*
X2005504Y1622104D02*
Y1622747D01*
X2016018Y1618032D02*
X2015311Y1617325D01*
X2016018Y1616618*
X2016725Y1617325*
X2016018Y1618032*
X2015833Y1616803D02*
X2016203D01*
X2015789Y1617803D02*
X2016247D01*
X2015504Y1617132D02*
Y1617518D01*
X2016504Y1617104D02*
Y1617547D01*
X2013190Y1615204D02*
X2012483Y1614497D01*
X2013190Y1613790*
X2013897Y1614497*
X2013190Y1615204*
X2013176Y1613803D02*
X2013203D01*
X2012789Y1614803D02*
X2013590D01*
X2012504Y1614475D02*
Y1614518D01*
X2013504Y1614104D02*
Y1614890D01*
X2026572Y1650390D02*
Y1631103D01*
X2028039*
Y1650390*
X2026572*
X2027004Y1631103D02*
Y1650390D01*
X2027504Y1631103D02*
Y1650390D01*
X2028004Y1631103D02*
Y1650390D01*
X1971953Y1651363D02*
Y1633965D01*
X1972921*
Y1649974*
X1972970Y1650124*
X1973063Y1650252*
X1973191Y1650346*
X1973342Y1650394*
X1980193*
X1980344Y1650346*
X1980472Y1650252*
X1980565Y1650124*
X1980614Y1649974*
Y1639765*
X1991425*
Y1649974*
X1991474Y1650124*
X1991567Y1650252*
X1991695Y1650346*
X1991846Y1650394*
X1999091*
X1999242Y1650346*
X1999370Y1650252*
X1999463Y1650124*
X1999512Y1649974*
Y1639765*
X2010323*
Y1649974*
X2010372Y1650124*
X2010465Y1650252*
X2010593Y1650346*
X2010744Y1650394*
X2017595*
X2017746Y1650346*
X2017874Y1650252*
X2017967Y1650124*
X2018016Y1649974*
Y1631103*
X2018984*
Y1649974*
X2019033Y1650124*
X2019126Y1650252*
X2019254Y1650346*
X2019405Y1650394*
X2028039*
Y1651363*
X2009354*
Y1641154*
X2009305Y1641003*
X2009212Y1640875*
X2009084Y1640782*
X2008934Y1640733*
X2000901*
X2000750Y1640782*
X2000622Y1640875*
X2000529Y1641003*
X2000480Y1641154*
Y1651363*
X1990457*
Y1641154*
X1990408Y1641003*
X1990315Y1640875*
X1990187Y1640782*
X1990036Y1640733*
X1982003*
X1981853Y1640782*
X1981725Y1640875*
X1981632Y1641003*
X1981583Y1641154*
Y1651363*
X1971953*
X1972004Y1633965D02*
Y1651363D01*
X1972504Y1633965D02*
Y1651363D01*
X1973004Y1650171D02*
Y1651363D01*
X1973504Y1650394D02*
Y1651363D01*
X1974004Y1650394D02*
Y1651363D01*
X1974504Y1650394D02*
Y1651363D01*
X1975004Y1650394D02*
Y1651363D01*
X1975504Y1650394D02*
Y1651363D01*
X1976004Y1650394D02*
Y1651363D01*
X1976504Y1650394D02*
Y1651363D01*
X1977004Y1650394D02*
Y1651363D01*
X1977504Y1650394D02*
Y1651363D01*
X1978004Y1650394D02*
Y1651363D01*
X1978504Y1650394D02*
Y1651363D01*
X1979004Y1650394D02*
Y1651363D01*
X1979504Y1650394D02*
Y1651363D01*
X1980004Y1650394D02*
Y1651363D01*
X1980504Y1650209D02*
Y1651363D01*
X1981004Y1639765D02*
Y1651363D01*
X1981504Y1639765D02*
Y1651363D01*
X1982004Y1639765D02*
Y1640733D01*
X1982504Y1639765D02*
Y1640733D01*
X1983004Y1639765D02*
Y1640733D01*
X1983504Y1639765D02*
Y1640733D01*
X1984004Y1639765D02*
Y1640733D01*
X1984504Y1639765D02*
Y1640733D01*
X1985004Y1639765D02*
Y1640733D01*
X1985504Y1639765D02*
Y1640733D01*
X1986004Y1639765D02*
Y1640733D01*
X1986504Y1639765D02*
Y1640733D01*
X1987004Y1639765D02*
Y1640733D01*
X1987504Y1639765D02*
Y1640733D01*
X1988004Y1639765D02*
Y1640733D01*
X1988504Y1639765D02*
Y1640733D01*
X1989004Y1639765D02*
Y1640733D01*
X1989504Y1639765D02*
Y1640733D01*
X1990004Y1639765D02*
Y1640733D01*
X1990504Y1639765D02*
Y1651363D01*
X1991004Y1639765D02*
Y1651363D01*
X1991504Y1650165D02*
Y1651363D01*
X1992004Y1650394D02*
Y1651363D01*
X1992504Y1650394D02*
Y1651363D01*
X1993004Y1650394D02*
Y1651363D01*
X1993504Y1650394D02*
Y1651363D01*
X1994004Y1650394D02*
Y1651363D01*
X1994504Y1650394D02*
Y1651363D01*
X1995004Y1650394D02*
Y1651363D01*
X1995504Y1650394D02*
Y1651363D01*
X1996004Y1650394D02*
Y1651363D01*
X1996504Y1650394D02*
Y1651363D01*
X1997004Y1650394D02*
Y1651363D01*
X1997504Y1650394D02*
Y1651363D01*
X1998004Y1650394D02*
Y1651363D01*
X1998504Y1650394D02*
Y1651363D01*
X1999004Y1650394D02*
Y1651363D01*
X1999504Y1649998D02*
Y1651363D01*
X2000004Y1639765D02*
Y1651363D01*
X2000504Y1639765D02*
Y1641081D01*
X2001004Y1639765D02*
Y1640733D01*
X2001504Y1639765D02*
Y1640733D01*
X2002004Y1639765D02*
Y1640733D01*
X2002504Y1639765D02*
Y1640733D01*
X2003004Y1639765D02*
Y1640733D01*
X2003504Y1639765D02*
Y1640733D01*
X2004004Y1639765D02*
Y1640733D01*
X2004504Y1639765D02*
Y1640733D01*
X2005004Y1639765D02*
Y1640733D01*
X2005504Y1639765D02*
Y1640733D01*
X2006004Y1639765D02*
Y1640733D01*
X2006504Y1639765D02*
Y1640733D01*
X2007004Y1639765D02*
Y1640733D01*
X2007504Y1639765D02*
Y1640733D01*
X2008004Y1639765D02*
Y1640733D01*
X2008504Y1639765D02*
Y1640733D01*
X2009004Y1639765D02*
Y1640756D01*
X2009504Y1639765D02*
Y1651363D01*
X2010004Y1639765D02*
Y1651363D01*
X2010504Y1650281D02*
Y1651363D01*
X2011004Y1650394D02*
Y1651363D01*
X2011504Y1650394D02*
Y1651363D01*
X2012004Y1650394D02*
Y1651363D01*
X2012504Y1650394D02*
Y1651363D01*
X2013004Y1650394D02*
Y1651363D01*
X2013504Y1650394D02*
Y1651363D01*
X2014004Y1650394D02*
Y1651363D01*
X2014504Y1650394D02*
Y1651363D01*
X2015004Y1650394D02*
Y1651363D01*
X2015504Y1650394D02*
Y1651363D01*
X2016004Y1650394D02*
Y1651363D01*
X2016504Y1650394D02*
Y1651363D01*
X2017004Y1650394D02*
Y1651363D01*
X2017504Y1650394D02*
Y1651363D01*
X2018004Y1650010D02*
Y1651363D01*
X2018504Y1631103D02*
Y1651363D01*
X2019004Y1650034D02*
Y1651363D01*
X2019504Y1650394D02*
Y1651363D01*
X2020004Y1650394D02*
Y1651363D01*
X2020504Y1650394D02*
Y1651363D01*
X2021004Y1650394D02*
Y1651363D01*
X2021504Y1650394D02*
Y1651363D01*
X2022004Y1650394D02*
Y1651363D01*
X2022504Y1650394D02*
Y1651363D01*
X2023004Y1650394D02*
Y1651363D01*
X2023504Y1650394D02*
Y1651363D01*
X2024004Y1650394D02*
Y1651363D01*
X2024504Y1650394D02*
Y1651363D01*
X2025004Y1650394D02*
Y1651363D01*
X2025504Y1650394D02*
Y1651363D01*
X2026004Y1650394D02*
Y1651363D01*
X2026504Y1650394D02*
Y1651363D01*
X2027004Y1650394D02*
Y1651363D01*
X2027504Y1650394D02*
Y1651363D01*
X2028004Y1650394D02*
Y1651363D01*
G54D13*
X2024413Y1599751D03*
Y1592271D03*
X2030318D03*
Y1599751D03*
G54D14*
X2015194Y1609449D03*
X2013225D03*
X2011257D03*
X2009288D03*
X2007320D03*
X2005351D03*
X2003383D03*
X2001414D03*
Y1589764D03*
X2003383D03*
X2005351D03*
X2007320D03*
X2009288D03*
X2011257D03*
X2013225D03*
X2015194D03*
G54D15*
X1998461Y1606496D03*
Y1604528D03*
Y1602559D03*
Y1600591D03*
Y1598622D03*
Y1596654D03*
Y1594685D03*
Y1592717D03*
X2018146D03*
Y1594685D03*
Y1596654D03*
Y1598622D03*
Y1600591D03*
Y1602559D03*
Y1604528D03*
Y1606496D03*
G54D16*
X2008304Y1599606D03*
G54D18*
X1991554Y1619311D03*
X1985054D03*
X2023154Y1615211D03*
X2029654D03*
G54D20*
X1992346Y1610827D03*
X1987346D03*
X1982346D03*
X1977346D03*
Y1589567D03*
X1982346D03*
X1987346D03*
X1992346D03*
G54D21*
X2007874Y1566929D03*
X2307087D03*
Y1897638D03*
X2015748D03*
G54D31*
X1968504Y1653543D02*
X2039370D01*
Y1574803*
X1968504*
Y1653543*
G54D36*
X2034452Y1625984D02*
X2008074D01*
X2001381D02*
X1973428D01*
X2025304Y1578248D02*
X2034452D01*
X2027759D02*
X1973428D01*
G54D57*
X1973425Y1625984D02*
Y1578642D01*
X2034646Y1625984D02*
Y1578642D01*
G54D58*
X2018504Y1631405D03*
X2027307D03*
X0Y0D02*
M02*
