*
*
G04 PADS 9.5 Build Number: 522968 generated Gerber (RS-274-X) file*
G04 PC Version=2.1*
*
%IN "ESP_WROOM_02_1213.pcb"*%
*
%MOIN*%
*
%FSLAX35Y35*%
*
*
*
*
G04 PC Standard Apertures*
*
*
G04 Thermal Relief Aperture macro.*
%AMTER*
1,1,$1,0,0*
1,0,$1-$2,0,0*
21,0,$3,$4,0,0,45*
21,0,$3,$4,0,0,135*
%
*
*
G04 Annular Aperture macro.*
%AMANN*
1,1,$1,0,0*
1,0,$2,0,0*
%
*
*
G04 Odd Aperture macro.*
%AMODD*
1,1,$1,0,0*
1,0,$1-0.005,0,0*
%
*
*
G04 PC Custom Aperture Macros*
*
*
*
*
*
*
G04 PC Aperture Table*
*
%ADD010C,0.001*%
%ADD024C,0.005*%
%ADD031C,0.00394*%
*
*
*
*
G04 PC Circuitry*
G04 Layer Name ESP_WROOM_02_1213.pcb - circuitry*
%LPD*%
*
G54D10*
G01X2036861Y1577847D02*
X2036590D01*
X2036540Y1577897*
Y1579454*
X2036365*
X2035175Y1577880*
Y1577626*
X2036268*
X2036318Y1577576*
Y1577019*
X2036540*
Y1577576*
X2036590Y1577626*
X2036861*
Y1577847*
X2036318Y1578897D02*
Y1577897D01*
X2036268Y1577847*
X2035518*
X2035478Y1577927*
X2036228Y1578927*
X2036318Y1578897*
X2037193Y1584157D02*
X2037158Y1584472D01*
X2037088Y1584751*
X2036985Y1584990*
X2036817Y1585193*
X2036650Y1585293*
X2036444Y1585361*
X2036273Y1585395*
X2035186*
Y1582924*
X2036062*
X2036444Y1582959*
X2036750Y1583095*
X2036953Y1583298*
X2037054Y1583466*
X2037123Y1583674*
X2037193Y1583917*
Y1584157*
X2036936Y1584160D02*
Y1583910D01*
X2036934Y1583896*
X2036862Y1583646*
X2036861Y1583641*
X2036789Y1583463*
X2036783Y1583451*
X2036676Y1583308*
X2036663Y1583297*
X2036449Y1583154*
X2036431Y1583146*
X2036252Y1583111*
X2036243Y1583110*
X2035493*
X2035443Y1583160*
Y1585160*
X2035493Y1585210*
X2036278*
X2036297Y1585206*
X2036476Y1585135*
X2036487Y1585128*
X2036630Y1585021*
X2036639Y1585012*
X2036782Y1584834*
X2036789Y1584822*
X2036896Y1584572*
X2036900Y1584557*
X2036935Y1584164*
X2036936Y1584160*
X2034861Y1578254D02*
X2034826Y1578601D01*
X2034723Y1578910*
X2034552Y1579149*
X2034313Y1579354*
X2034005Y1579491*
X2033698Y1579525*
X2033457Y1579491*
X2033217Y1579422*
X2033047Y1579320*
X2032875Y1579183*
X2032703Y1578977*
X2032602Y1578775*
X2032533Y1578218*
X2032567Y1577908*
X2032670Y1577599*
X2032841Y1577360*
X2033081Y1577154*
X2033389Y1577017*
X2033697Y1576983*
X2034007Y1577018*
X2034007D02*
X2034278Y1577119D01*
X2034518Y1577325*
X2034724Y1577565*
X2034826Y1577872*
X2034861Y1578254*
X2034603Y1578246D02*
X2034532Y1577817D01*
X2034527Y1577803*
X2034349Y1577446*
X2034333Y1577428*
X2034083Y1577249*
X2034064Y1577241*
X2033707Y1577169*
X2033686Y1577170*
X2033365Y1577241*
X2033349Y1577248*
X2033063Y1577426*
X2033046Y1577444*
X2032867Y1577766*
X2032862Y1577782*
X2032790Y1578210*
Y1578219*
Y1578469*
X2032792Y1578482*
X2032863Y1578732*
X2032865Y1578737*
X2032936Y1578916*
X2032943Y1578927*
X2033050Y1579070*
X2033063Y1579082*
X2033349Y1579261*
X2033365Y1579267*
X2033686Y1579339*
X2033704*
X2033954Y1579304*
X2033969Y1579299*
X2034183Y1579192*
X2034192Y1579186*
X2034371Y1579043*
X2034384Y1579027*
X2034492Y1578812*
X2034495Y1578804*
X2034566Y1578554*
X2034568Y1578546*
X2034604Y1578260*
X2034603Y1578246*
X2036836Y1590062D02*
X2036801Y1590378D01*
X2036731Y1590656*
X2036628Y1590896*
X2036460Y1591098*
X2036293Y1591198*
X2036087Y1591267*
X2035916Y1591301*
X2034828*
Y1588830*
X2035705*
X2036087Y1588864*
X2036392Y1589000*
X2036596Y1589203*
X2036697Y1589372*
X2036766Y1589580*
X2036836Y1589822*
Y1590062*
X2036578Y1590065D02*
Y1589815D01*
X2036576Y1589802*
X2036505Y1589552*
X2036503Y1589547*
X2036432Y1589368*
X2036426Y1589357*
X2036318Y1589214*
X2036306Y1589202*
X2036092Y1589059*
X2036074Y1589052*
X2035895Y1589016*
X2035886Y1589015*
X2035136*
X2035086Y1589065*
Y1591065*
X2035136Y1591115*
X2035921*
X2035940Y1591112*
X2036118Y1591040*
X2036130Y1591034*
X2036273Y1590927*
X2036282Y1590918*
X2036425Y1590739*
X2036432Y1590728*
X2036539Y1590478*
X2036542Y1590463*
X2036578Y1590070*
Y1590065*
X2037004Y1595968D02*
X2036969Y1596283D01*
X2036899Y1596562*
X2036797Y1596801*
X2036628Y1597004*
X2036461Y1597104*
X2036255Y1597172*
X2036085Y1597206*
X2034997*
Y1594735*
X2035873*
X2036255Y1594770*
X2036561Y1594906*
X2036764Y1595109*
X2036865Y1595277*
X2036935Y1595486*
X2037004Y1595728*
Y1595968*
X2036747Y1595971D02*
Y1595721D01*
X2036745Y1595707*
X2036673Y1595457*
X2036672Y1595452*
X2036600Y1595274*
X2036594Y1595262*
X2036487Y1595119*
X2036475Y1595108*
X2036260Y1594965*
X2036242Y1594957*
X2036064Y1594922*
X2036054Y1594921*
X2035304*
X2035254Y1594971*
Y1596971*
X2035304Y1597021*
X2036090*
X2036108Y1597017*
X2036287Y1596946*
X2036298Y1596939*
X2036441Y1596832*
X2036450Y1596823*
X2036593Y1596645*
X2036600Y1596633*
X2036707Y1596383*
X2036711Y1596368*
X2036747Y1595975*
Y1595971*
X2036561Y1601483D02*
X2036527Y1601786D01*
X2036361Y1602019*
X2036125Y1602187*
X2035858Y1602254*
X2035629Y1602221*
X2035425Y1602085*
X2035347Y1602126*
Y1602134*
X2035455Y1602813*
X2035504Y1602855*
X2036418*
Y1603076*
X2035295*
X2035063Y1601849*
X2035307Y1601821*
X2035469Y1601983*
X2035490Y1601996*
X2035740Y1602067*
X2035761Y1602069*
X2036011Y1602033*
X2036034Y1602023*
X2036177Y1601916*
X2036190Y1601902*
X2036297Y1601723*
X2036303Y1601705*
X2036339Y1601455*
Y1601441*
X2036303Y1601191*
X2036297Y1601172*
X2036190Y1600993*
X2036182Y1600984*
X2036039Y1600841*
X2036011Y1600827*
X2035761Y1600791*
X2035744Y1600792*
X2035566Y1600827*
X2035553Y1600832*
X2035410Y1600903*
X2035388Y1600925*
X2035316Y1601068*
X2035314Y1601075*
X2035255Y1601251*
X2035031Y1601226*
X2035086Y1601005*
X2035253Y1600771*
X2035484Y1600639*
X2035753Y1600605*
X2035959Y1600640*
X2036126Y1600673*
X2036257Y1600771*
X2036392Y1600907*
X2036527Y1601142*
X2036561Y1601483*
Y1609017D02*
X2034590D01*
Y1608832*
X2035397*
X2035447Y1608782*
Y1606546*
X2035704*
Y1608782*
X2035754Y1608832*
X2036561*
Y1609017*
X2036568Y1614923D02*
X2034597D01*
Y1614737*
X2035404*
X2035454Y1614687*
Y1612452*
X2035711*
Y1614687*
X2035761Y1614737*
X2036568*
Y1614923*
X2034721Y1582924D02*
X2033844Y1584239D01*
Y1584295*
X2034578Y1585395*
X2034269*
X2033856Y1584775*
X2033855Y1584774*
X2033676Y1584524*
X2033591Y1584530*
X2033555Y1584602*
X2033553Y1584605*
X2033484Y1584778*
X2033039Y1585395*
X2032729*
X2033463Y1584295*
Y1584239*
X2032586Y1582924*
X2032895*
X2033487Y1583795*
X2033493Y1583802*
X2033561Y1583870*
X2033630Y1583973*
X2033714Y1583971*
X2033821Y1583794*
X2034412Y1582924*
X2034721*
X2036560Y1619162D02*
X2036492Y1619467D01*
X2036359Y1619701*
X2036125Y1619868*
X2035860Y1619934*
X2035525Y1619867*
X2035396Y1619771*
X2035257Y1619597*
X2035168Y1619629*
Y1619633*
X2035204Y1619991*
X2035207Y1620001*
X2035278Y1620216*
X2035279Y1620219*
X2035350Y1620397*
X2035361Y1620414*
X2035504Y1620557*
X2035528Y1620570*
X2035813Y1620641*
X2035835Y1620642*
X2036014Y1620606*
X2036034Y1620597*
X2036177Y1620490*
X2036188Y1620478*
X2036260Y1620371*
X2036267Y1620353*
X2036294Y1620219*
X2036513Y1620243*
X2036458Y1620462*
X2036292Y1620662*
X2036093Y1620795*
X2035827Y1620828*
X2035489Y1620760*
X2035219Y1620558*
X2035086Y1620357*
X2035017Y1620118*
X2034982Y1619837*
X2034947Y1619519*
Y1619207*
X2035016Y1618965*
X2035085Y1618757*
X2035187Y1618588*
X2035187D02*
X2035319Y1618455D01*
X2035453Y1618388*
X2035621Y1618321*
X2035786*
X2035992Y1618356*
X2036194Y1618423*
X2036359Y1618555*
X2036458Y1618721*
X2036527Y1618926*
X2036527D02*
X2036560Y1619162D01*
X2036339Y1619121D02*
X2036303Y1618871D01*
X2036297Y1618853*
X2036190Y1618674*
X2036173Y1618657*
X2035994Y1618550*
X2035978Y1618544*
X2035799Y1618508*
X2035790Y1618507*
X2035611*
X2035583Y1618515*
X2035476Y1618587*
X2035474Y1618589*
X2035331Y1618696*
X2035319Y1618708*
X2035248Y1618815*
X2035241Y1618831*
X2035205Y1618974*
Y1618976*
X2035169Y1619154*
X2035168Y1619164*
X2035169Y1619172*
X2035205Y1619387*
X2035211Y1619404*
X2035318Y1619583*
X2035335Y1619600*
X2035514Y1619707*
X2035531Y1619714*
X2035746Y1619749*
X2035762*
X2035976Y1619714*
X2035994Y1619707*
X2036173Y1619600*
X2036190Y1619583*
X2036297Y1619404*
X2036303Y1619386*
X2036339Y1619136*
Y1619121*
X2036604Y1625496D02*
X2036569Y1625811D01*
X2036499Y1626089*
X2036397Y1626329*
X2036228Y1626531*
X2036061Y1626631*
X2035855Y1626700*
X2035685Y1626734*
X2034597*
Y1624263*
X2035473*
X2035855Y1624297*
X2036161Y1624433*
X2036364Y1624636*
X2036465Y1624805*
X2036535Y1625013*
X2036604Y1625255*
Y1625496*
X2036347Y1625498D02*
Y1625248D01*
X2036345Y1625235*
X2036273Y1624985*
X2036272Y1624980*
X2036200Y1624801*
X2036194Y1624790*
X2036087Y1624647*
X2036075Y1624635*
X2035860Y1624492*
X2035842Y1624485*
X2035664Y1624449*
X2035654Y1624448*
X2034904*
X2034854Y1624498*
Y1626498*
X2034904Y1626548*
X2035690*
X2035708Y1626545*
X2035887Y1626473*
X2035898Y1626467*
X2036041Y1626360*
X2036050Y1626351*
X2036193Y1626172*
X2036200Y1626161*
X2036307Y1625911*
X2036311Y1625896*
X2036347Y1625503*
Y1625498*
X2031933Y1579490D02*
X2031675D01*
Y1577019*
X2031933*
Y1579490*
X2032333Y1582924D02*
X2031952Y1583560D01*
X2031813Y1583733*
X2031674Y1583872*
X2031497Y1584014*
X2031516Y1584101*
X2031791Y1584170*
X2031993Y1584338*
X2032124Y1584502*
X2032156Y1584731*
X2032123Y1584932*
X2032056Y1585099*
X2031959Y1585229*
X2031796Y1585327*
X2031628Y1585360*
X2031311Y1585395*
X2030257*
Y1582924*
X2030514*
Y1584017*
X2030564Y1584067*
X2031136*
X2031158Y1584062*
X2031301Y1583990*
X2031314Y1583981*
X2031385Y1583909*
X2031391Y1583902*
X2031462Y1583796*
X2031568Y1583654*
X2031570Y1583652*
X2031713Y1583437*
X2031714Y1583435*
X2032021Y1582924*
X2032333*
X2031897Y1584715D02*
X2031826Y1584501D01*
X2031814Y1584482*
X2031635Y1584303*
X2031612Y1584290*
X2031469Y1584254*
X2031457Y1584253*
X2030564*
X2030514Y1584303*
Y1585160*
X2030564Y1585210*
X2031350*
X2031358Y1585209*
X2031572Y1585173*
X2031583Y1585170*
X2031761Y1585099*
X2031787Y1585075*
X2031859Y1584932*
X2031863Y1584920*
X2031899Y1584741*
X2031897Y1584715*
X2034364Y1588830D02*
X2033487Y1590145D01*
Y1590200*
X2034221Y1591301*
X2033912*
X2033499Y1590680*
X2033498Y1590679*
X2033319Y1590429*
X2033234Y1590436*
X2033198Y1590507*
X2033196Y1590511*
X2033127Y1590684*
X2032681Y1591301*
X2032372*
X2033106Y1590200*
Y1590145*
X2032229Y1588830*
X2032538*
X2033130Y1589701*
X2033130D02*
X2033136Y1589708D01*
X2033204Y1589776*
X2033273Y1589879*
X2033357Y1589877*
X2033463Y1589699*
X2034055Y1588830*
X2034364*
X2034325Y1597206D02*
X2034068D01*
Y1595328*
X2033976Y1595301*
X2032741Y1597206*
X2032425*
Y1594735*
X2032683*
Y1596614*
X2032774Y1596641*
X2034010Y1594735*
X2034325*
Y1597206*
X2034561Y1601876D02*
X2034526Y1602223D01*
X2034423Y1602532*
X2034252Y1602771*
X2034013Y1602976*
X2033705Y1603113*
X2033398Y1603147*
X2033157Y1603113*
X2032917Y1603044*
X2032747Y1602942*
X2032575Y1602805*
X2032403Y1602599*
X2032302Y1602397*
X2032233Y1601840*
X2032267Y1601530*
X2032370Y1601221*
X2032541Y1600982*
X2032781Y1600776*
X2033089Y1600639*
X2033397Y1600605*
X2033707Y1600640*
X2033707D02*
X2033978Y1600741D01*
X2034218Y1600947*
X2034424Y1601187*
X2034526Y1601494*
X2034561Y1601876*
X2034303Y1601868D02*
X2034232Y1601439D01*
X2034227Y1601425*
X2034049Y1601068*
X2034033Y1601050*
X2033783Y1600871*
X2033764Y1600863*
X2033407Y1600792*
X2033386*
X2033065Y1600863*
X2033049Y1600870*
X2032763Y1601048*
X2032746Y1601066*
X2032567Y1601388*
X2032562Y1601404*
X2032490Y1601832*
Y1601841*
Y1602091*
X2032492Y1602104*
X2032563Y1602354*
X2032565Y1602359*
X2032636Y1602538*
X2032643Y1602549*
X2032750Y1602692*
X2032763Y1602704*
X2033049Y1602883*
X2033065Y1602889*
X2033386Y1602961*
X2033404*
X2033654Y1602926*
X2033669Y1602921*
X2033883Y1602814*
X2033892Y1602808*
X2034071Y1602665*
X2034084Y1602649*
X2034192Y1602434*
X2034195Y1602426*
X2034266Y1602176*
X2034268Y1602168*
X2034304Y1601882*
X2034303Y1601868*
X2034239Y1607211D02*
X2034206Y1607411D01*
X2034140Y1607575*
X2034010Y1607705*
X2033806Y1607807*
X2033598Y1607876*
X2033279Y1607947*
X2033271Y1607950*
X2033096Y1608020*
X2032956Y1608055*
X2032952Y1608056*
X2032845Y1608091*
X2032816Y1608117*
X2032784Y1608181*
X2032719Y1608246*
X2032705Y1608270*
X2032670Y1608413*
Y1608437*
X2032705Y1608580*
X2032714Y1608597*
X2032821Y1608740*
X2032843Y1608757*
X2033021Y1608828*
X2033033Y1608831*
X2033283Y1608867*
X2033298*
X2033512Y1608831*
X2033523Y1608828*
X2033701Y1608757*
X2033718Y1608746*
X2033861Y1608603*
X2033875Y1608576*
X2033903Y1608403*
X2034159*
X2034134Y1608554*
X2034068Y1608718*
X2033939Y1608848*
X2033735Y1608950*
X2033529Y1609018*
X2033254Y1609053*
X2033015Y1609019*
X2032811Y1608950*
X2032642Y1608849*
X2032511Y1608718*
X2032445Y1608553*
X2032412Y1608389*
X2032445Y1608227*
X2032509Y1608097*
X2032606Y1608000*
X2032952Y1607793*
X2033659Y1607616*
X2033669Y1607612*
X2033812Y1607541*
X2033831Y1607524*
X2033903Y1607417*
X2033908Y1607407*
X2033908D02*
X2033979Y1607229D01*
X2033983Y1607210*
Y1607103*
X2033977Y1607081*
X2033906Y1606938*
X2033896Y1606925*
X2033825Y1606854*
X2033812Y1606844*
X2033669Y1606773*
X2033658Y1606769*
X2033336Y1606697*
X2033325Y1606696*
X2033147*
X2033128Y1606700*
X2032950Y1606771*
X2032938Y1606777*
X2032795Y1606885*
X2032790Y1606889*
X2032683Y1606996*
X2032672Y1607013*
X2032600Y1607192*
X2032598Y1607201*
X2032570Y1607339*
X2032312*
X2032338Y1607153*
X2032440Y1606915*
X2032574Y1606748*
X2032774Y1606614*
X2033049Y1606545*
X2033360Y1606511*
X2033600Y1606545*
X2033806Y1606614*
X2034007Y1606714*
X2034139Y1606879*
X2034206Y1607046*
X2034239Y1607211*
X2034140Y1614923D02*
X2033883D01*
Y1613294*
X2033882Y1613285*
X2033846Y1613106*
X2033845Y1613104*
X2033810Y1612961*
X2033803Y1612945*
X2033731Y1612838*
X2033717Y1612824*
X2033503Y1612681*
X2033481Y1612673*
X2033159Y1612638*
X2033154Y1612637*
X2032975*
X2032957Y1612641*
X2032778Y1612712*
X2032761Y1612723*
X2032654Y1612831*
X2032645Y1612844*
X2032645D02*
X2032574Y1612986D01*
X2032574D02*
X2032571Y1612993D01*
X2032499Y1613207*
X2032497Y1613223*
Y1614923*
X2032240*
Y1613475*
X2032275Y1613124*
X2032343Y1612849*
X2032442Y1612685*
X2032642Y1612518*
X2032878Y1612451*
X2033190Y1612416*
X2033499Y1612451*
X2033772Y1612553*
X2033938Y1612686*
X2034070Y1612884*
X2034104Y1613158*
X2034140Y1613476*
Y1614923*
X2034097Y1620829D02*
X2033961D01*
X2033868Y1620674*
X2033861Y1620665*
X2033682Y1620486*
X2033675Y1620480*
X2033460Y1620337*
X2033457Y1620335*
X2033233Y1620207*
Y1619995*
X2033513Y1620136*
X2033795Y1620347*
X2033875Y1620307*
Y1618357*
X2034097*
Y1620829*
X2032014Y1591301D02*
X2030043D01*
Y1591115*
X2030850*
X2030900Y1591065*
Y1588830*
X2031157*
Y1591065*
X2031207Y1591115*
X2032014*
Y1591301*
X2031825Y1595956D02*
X2030818D01*
Y1595771*
X2031518*
X2031568Y1595721*
Y1595221*
X2031548Y1595181*
X2031405Y1595074*
X2031401Y1595071*
X2031223Y1594964*
X2031205Y1594957*
X2030776Y1594886*
X2030761*
X2030511Y1594921*
X2030502Y1594923*
X2030288Y1594995*
X2030276Y1595001*
X2030062Y1595143*
X2030048Y1595157*
X2029905Y1595372*
X2029899Y1595386*
X2029827Y1595636*
X2029826Y1595644*
X2029790Y1595965*
Y1595971*
Y1595977*
X2029826Y1596263*
X2029827Y1596270*
X2029899Y1596520*
X2029903Y1596531*
X2030046Y1596781*
X2030063Y1596799*
X2030349Y1596977*
X2030366Y1596984*
X2030759Y1597056*
X2030778Y1597055*
X2031135Y1596984*
X2031148Y1596980*
X2031291Y1596908*
X2031304Y1596899*
X2031411Y1596792*
X2031420Y1596779*
X2031545Y1596528*
X2031775Y1596579*
X2031724Y1596732*
X2031588Y1596902*
X2031453Y1597037*
X2031249Y1597139*
X2031043Y1597207*
X2030768Y1597242*
X2030422Y1597207*
X2030115Y1597105*
X2029876Y1596901*
X2029670Y1596626*
X2029567Y1596317*
X2029533Y1595971*
X2029567Y1595588*
X2029670Y1595282*
X2029874Y1595043*
X2030149Y1594837*
X2030457Y1594734*
X2030803Y1594700*
X2031080Y1594734*
X2031324Y1594804*
X2031602Y1594908*
X2031825Y1595068*
Y1595956*
X2031633Y1603112D02*
X2031375D01*
Y1600641*
X2031633*
Y1603112*
X2031916Y1606546D02*
X2031534Y1607182D01*
X2031395Y1607356*
X2031256Y1607494*
X2031080Y1607636*
X2031099Y1607723*
X2031374Y1607792*
X2031575Y1607960*
X2031706Y1608124*
X2031739Y1608353*
X2031706Y1608554*
X2031639Y1608721*
X2031541Y1608851*
X2031378Y1608949*
X2031378D02*
X2031211Y1608982D01*
X2030894Y1609017*
X2029840*
Y1606546*
X2030097*
Y1607639*
X2030147Y1607689*
X2030718*
X2030741Y1607684*
X2030883Y1607612*
X2030896Y1607603*
X2030968Y1607531*
X2030974Y1607524*
X2031045Y1607418*
X2031151Y1607276*
X2031153Y1607274*
X2031296Y1607060*
X2031297Y1607058*
X2031297D02*
X2031604Y1606546D01*
X2031916*
X2031480Y1608337D02*
X2031409Y1608123D01*
X2031396Y1608104*
X2031218Y1607925*
X2031195Y1607912*
X2031052Y1607876*
X2031040Y1607875*
X2030147*
X2030097Y1607925*
Y1608782*
X2030147Y1608832*
X2030933*
X2030941Y1608831*
X2031155Y1608795*
X2031165Y1608792*
X2031344Y1608721*
X2031370Y1608697*
X2031442Y1608554*
X2031446Y1608542*
X2031482Y1608363*
X2031480Y1608337*
X2031675Y1613687D02*
X2031640Y1614034D01*
X2031537Y1614343*
X2031367Y1614582*
X2031127Y1614787*
X2030819Y1614924*
X2030512Y1614958*
X2030272Y1614924*
X2030031Y1614855*
X2029861Y1614753*
X2029689Y1614616*
X2029517Y1614410*
X2029417Y1614208*
X2029347Y1613651*
X2029382Y1613341*
X2029485Y1613032*
X2029655Y1612793*
X2029895Y1612587*
X2030203Y1612450*
X2030511Y1612416*
X2030821Y1612451*
X2031092Y1612552*
X2031333Y1612758*
X2031538Y1612998*
X2031640Y1613305*
X2031675Y1613687*
X2031418Y1613679D02*
X2031346Y1613250D01*
X2031342Y1613236*
X2031163Y1612879*
X2031147Y1612861*
X2030897Y1612682*
X2030878Y1612674*
X2030521Y1612603*
X2030500*
X2030179Y1612674*
X2030163Y1612681*
X2029877Y1612859*
X2029860Y1612877*
X2029682Y1613199*
X2029676Y1613215*
X2029605Y1613643*
X2029604Y1613652*
Y1613902*
X2029606Y1613915*
X2029677Y1614165*
X2029679Y1614170*
X2029750Y1614349*
X2029757Y1614360*
X2029864Y1614503*
X2029877Y1614515*
X2030163Y1614694*
X2030179Y1614700*
X2030500Y1614772*
X2030518Y1614773*
X2030518D02*
X2030768Y1614737D01*
X2030783Y1614732*
X2030998Y1614625*
X2031007Y1614619*
X2031185Y1614476*
X2031199Y1614460*
X2031306Y1614245*
X2031309Y1614237*
X2031381Y1613987*
X2031382Y1613979*
X2031418Y1613693*
Y1613679*
X2032561Y1619593D02*
X2032526Y1619939D01*
X2032423Y1620248*
X2032252Y1620487*
X2032013Y1620693*
X2031705Y1620830*
X2031398Y1620864*
X2031157Y1620829*
X2030917Y1620761*
X2030747Y1620659*
X2030575Y1620521*
X2030403Y1620315*
X2030302Y1620114*
X2030233Y1619557*
X2030267Y1619246*
X2030370Y1618937*
X2030541Y1618698*
X2030781Y1618493*
X2031089Y1618356*
X2031397Y1618322*
X2031707Y1618356*
X2031707D02*
X2031978Y1618458D01*
X2032218Y1618664*
X2032424Y1618904*
X2032526Y1619210*
X2032561Y1619593*
X2032303Y1619585D02*
X2032232Y1619156D01*
X2032227Y1619142*
X2032049Y1618785*
X2032033Y1618766*
X2031783Y1618588*
X2031764Y1618579*
X2031407Y1618508*
X2031386*
X2031065Y1618580*
X2031049Y1618586*
X2030763Y1618765*
X2030746Y1618783*
X2030567Y1619104*
X2030562Y1619120*
X2030490Y1619549*
Y1619557*
Y1619807*
X2030492Y1619821*
X2030563Y1620071*
X2030565Y1620076*
X2030636Y1620254*
X2030643Y1620266*
X2030750Y1620409*
X2030763Y1620421*
X2031049Y1620599*
X2031065Y1620606*
X2031386Y1620677*
X2031404Y1620678*
X2031654Y1620642*
X2031669Y1620638*
X2031883Y1620530*
X2031892Y1620525*
X2032071Y1620382*
X2032084Y1620365*
X2032192Y1620151*
X2032195Y1620142*
X2032266Y1619892*
X2032268Y1619885*
X2032304Y1619599*
X2032303Y1619585*
X2033925Y1626734D02*
X2033668D01*
Y1624855*
X2033576Y1624828*
X2032341Y1626734*
X2032025*
Y1624263*
X2032283*
Y1626141*
X2032374Y1626168*
X2033610Y1624263*
X2033925*
Y1626734*
X2029633Y1620829D02*
X2029375D01*
Y1618357*
X2029633*
Y1620829*
X2031425Y1625484D02*
X2030418D01*
Y1625298*
X2031118*
X2031168Y1625248*
Y1624748*
X2031148Y1624708*
X2031005Y1624601*
X2031001Y1624598*
X2030823Y1624491*
X2030805Y1624485*
X2030376Y1624413*
X2030361*
X2030111Y1624449*
X2030102Y1624451*
X2029888Y1624522*
X2029876Y1624528*
X2029662Y1624671*
X2029648Y1624685*
X2029505Y1624899*
X2029499Y1624913*
X2029427Y1625163*
X2029426Y1625171*
X2029390Y1625493*
Y1625498*
Y1625505*
X2029426Y1625790*
X2029427Y1625798*
X2029499Y1626048*
X2029503Y1626059*
X2029646Y1626309*
X2029663Y1626326*
X2029949Y1626505*
X2029966Y1626512*
X2030359Y1626583*
X2030378*
X2030735Y1626512*
X2030748Y1626507*
X2030891Y1626436*
X2030904Y1626427*
X2031011Y1626319*
X2031020Y1626306*
X2031145Y1626056*
X2031375Y1626107*
X2031324Y1626260*
X2031188Y1626429*
X2031053Y1626564*
X2030849Y1626666*
X2030643Y1626735*
X2030368Y1626769*
X2030022Y1626735*
X2029715Y1626633*
X2029476Y1626428*
X2029270Y1626153*
X2029167Y1625845*
X2029133Y1625498*
X2029167Y1625116*
X2029270Y1624809*
X2029474Y1624571*
X2029749Y1624365*
X2030057Y1624262*
X2030403Y1624227*
X2030680Y1624262*
X2030924Y1624332*
X2031202Y1624436*
X2031425Y1624595*
Y1625484*
X2028997Y1614923D02*
X2027025D01*
Y1614737*
X2027833*
X2027883Y1614687*
Y1612452*
X2028140*
Y1614687*
X2028190Y1614737*
X2028997*
Y1614923*
X1978665Y1578251D02*
X1978630Y1578567D01*
X1978560Y1578845*
X1978457Y1579085*
X1978289Y1579287*
X1978122Y1579387*
X1977916Y1579456*
X1977745Y1579490*
X1976657*
Y1577019*
X1977534*
X1977916Y1577053*
X1978221Y1577189*
X1978425Y1577392*
X1978526Y1577561*
X1978595Y1577769*
X1978665Y1578011*
Y1578251*
X1978407Y1578254D02*
Y1578004D01*
X1978406Y1577990*
X1978406D02*
X1978334Y1577740D01*
X1978332Y1577736*
X1978261Y1577557*
X1978255Y1577546*
X1978147Y1577403*
X1978135Y1577391*
X1977921Y1577248*
X1977903Y1577241*
X1977724Y1577205*
X1977715Y1577204*
X1976965*
X1976915Y1577254*
Y1579254*
X1976965Y1579304*
X1977750*
X1977769Y1579301*
X1977947Y1579229*
X1977959Y1579223*
X1978102Y1579116*
X1978111Y1579107*
X1978254Y1578928*
X1978261Y1578917*
X1978368Y1578667*
X1978372Y1578652*
X1978407Y1578259*
Y1578254*
X1978521Y1595578D02*
X1978488Y1595881D01*
X1978322Y1596113*
X1978086Y1596282*
X1977819Y1596348*
X1977590Y1596316*
X1977385Y1596179*
X1977307Y1596221*
X1977308Y1596229*
X1977415Y1596907*
X1977465Y1596949*
X1978379*
Y1597171*
X1977256*
X1977024Y1595943*
X1977268Y1595916*
X1977429Y1596078*
X1977451Y1596090*
X1977701Y1596162*
X1977722Y1596163*
X1977972Y1596127*
X1977995Y1596118*
X1978137Y1596011*
X1978150Y1595996*
X1978257Y1595818*
X1978264Y1595799*
X1978300Y1595549*
Y1595535*
X1978264Y1595285*
X1978257Y1595266*
X1978150Y1595088*
X1978143Y1595078*
X1978000Y1594935*
X1977972Y1594921*
X1977722Y1594886*
X1977705*
X1977526Y1594922*
X1977514Y1594926*
X1977371Y1594997*
X1977348Y1595020*
X1977277Y1595163*
X1977274Y1595169*
X1977216Y1595345*
X1976991Y1595320*
X1977046Y1595099*
X1977213Y1594866*
X1977445Y1594733*
X1977714Y1594700*
X1977920Y1594734*
X1978086Y1594768*
X1978086D02*
X1978217Y1594866D01*
X1978353Y1595001*
X1978487Y1595236*
X1978521Y1595578*
Y1601343D02*
X1978488Y1601573D01*
X1978389Y1601738*
X1978259Y1601868*
X1978056Y1601936*
X1978042Y1602023*
X1978313Y1602227*
X1978378Y1602485*
X1978312Y1602812*
X1978047Y1603011*
X1977879Y1603078*
X1977713Y1603111*
X1977447Y1603078*
X1977251Y1602947*
X1977117Y1602746*
X1977117D02*
X1977034Y1602526D01*
X1977254Y1602502*
X1977311Y1602645*
X1977313Y1602649*
X1977384Y1602791*
X1977406Y1602814*
X1977549Y1602885*
X1977560Y1602889*
X1977702Y1602925*
X1977724*
X1977903Y1602890*
X1977921Y1602882*
X1978028Y1602811*
X1978045Y1602791*
X1978116Y1602649*
X1978120Y1602638*
X1978156Y1602496*
Y1602474*
X1978121Y1602295*
X1978107Y1602269*
X1978000Y1602162*
X1977995Y1602158*
X1977852Y1602051*
X1977822Y1602041*
X1977616*
X1977594Y1601865*
X1977742Y1601890*
X1977759*
X1977759D02*
X1977973Y1601854D01*
X1977995Y1601845*
X1978137Y1601738*
X1978147Y1601728*
X1978255Y1601585*
X1978264Y1601563*
X1978300Y1601349*
Y1601341*
X1978299Y1601331*
X1978264Y1601152*
X1978257Y1601136*
X1978150Y1600958*
X1978137Y1600943*
X1977995Y1600836*
X1977973Y1600827*
X1977759Y1600791*
X1977759D02*
X1977740Y1600792D01*
X1977562Y1600827*
X1977549Y1600832*
X1977406Y1600903*
X1977389Y1600918*
X1977282Y1601061*
X1977274Y1601075*
X1977216Y1601251*
X1976991Y1601226*
X1977046Y1601005*
X1977213Y1600771*
X1977445Y1600639*
X1977713Y1600605*
X1978054Y1600674*
X1978286Y1600806*
X1978454Y1601075*
X1978521Y1601343*
X1978486Y1606767D02*
X1977286D01*
X1977247Y1606849*
X1977390Y1607027*
X1977399Y1607036*
X1977541Y1607142*
X1977754Y1607320*
X1978036Y1607567*
X1978211Y1607777*
X1978313Y1607914*
X1978381Y1608083*
X1978450Y1608356*
X1978417Y1608618*
X1978253Y1608814*
X1978018Y1608949*
X1977712Y1609017*
X1977409Y1608983*
X1977177Y1608851*
X1977011Y1608618*
X1976956Y1608397*
X1977175Y1608372*
X1977201Y1608506*
X1977210Y1608526*
X1977317Y1608669*
X1977327Y1608679*
X1977470Y1608786*
X1977492Y1608795*
X1977706Y1608831*
X1977724*
X1977903Y1608795*
X1977923Y1608786*
X1978066Y1608679*
X1978071Y1608674*
X1978178Y1608567*
X1978192Y1608542*
X1978228Y1608363*
Y1608343*
X1978192Y1608165*
X1978186Y1608149*
X1978079Y1607970*
X1978074Y1607964*
X1977860Y1607714*
X1977855Y1607709*
X1977533Y1607422*
X1977286Y1607211*
X1977008Y1606863*
X1976942Y1606697*
X1976916Y1606546*
X1978486*
Y1606767*
X1978522Y1613280D02*
X1978250D01*
X1978200Y1613330*
Y1614887*
X1978025*
X1976836Y1613313*
Y1613059*
X1977929*
X1977979Y1613009*
Y1612452*
X1978200*
Y1613009*
X1978250Y1613059*
X1978522*
Y1613280*
X1977979Y1614330D02*
Y1613330D01*
X1977929Y1613280*
X1977179*
X1977139Y1613360*
X1977889Y1614360*
X1977979Y1614330*
X1975986Y1579490D02*
X1975729D01*
Y1577611*
X1975637Y1577584*
X1974402Y1579490*
X1974086*
Y1577019*
X1974343*
Y1578897*
X1974435Y1578924*
X1975670Y1577019*
X1975986*
Y1579490*
X1976522Y1584474D02*
X1976453Y1584716D01*
X1976313Y1585100*
X1976215Y1585231*
X1976086Y1585327*
X1976086D02*
X1975749Y1585395D01*
X1975515Y1585361*
X1975318Y1585263*
X1975186Y1585098*
X1975084Y1584859*
X1975014Y1584545*
X1974979Y1584122*
Y1583809*
X1975049Y1583530*
X1975118Y1583287*
X1975216Y1583123*
X1975450Y1582956*
X1975752Y1582889*
X1975985Y1582922*
X1976182Y1583021*
X1976314Y1583186*
X1976417Y1583425*
X1976486Y1583739*
X1976522Y1584126*
Y1584474*
X1976300Y1584410D02*
Y1583838D01*
Y1583830*
X1976264Y1583616*
Y1583614*
X1976228Y1583436*
X1976224Y1583423*
X1976152Y1583280*
X1976139Y1583264*
X1975960Y1583121*
X1975939Y1583111*
X1975760Y1583075*
X1975740*
X1975562Y1583111*
X1975540Y1583121*
X1975362Y1583264*
X1975348Y1583280*
X1975277Y1583423*
X1975273Y1583436*
X1975237Y1583614*
Y1583616*
X1975201Y1583830*
X1975200Y1583838*
Y1584410*
X1975201Y1584417*
X1975236Y1584667*
X1975237Y1584670*
X1975273Y1584848*
X1975277Y1584861*
X1975348Y1585004*
X1975362Y1585020*
X1975540Y1585163*
X1975562Y1585173*
X1975740Y1585209*
X1975759*
X1975759D02*
X1975973Y1585173D01*
X1976004Y1585155*
X1976146Y1584977*
X1976149Y1584973*
X1976220Y1584866*
X1976228Y1584848*
X1976264Y1584670*
Y1584667*
X1976300Y1584417*
Y1584410*
X1976486Y1589051D02*
X1975286D01*
X1975247Y1589132*
X1975390Y1589311*
X1975399Y1589320*
X1975541Y1589426*
X1975754Y1589603*
X1976036Y1589850*
X1976211Y1590061*
X1976313Y1590197*
X1976381Y1590366*
X1976450Y1590640*
X1976417Y1590902*
X1976253Y1591098*
X1976018Y1591232*
X1975712Y1591300*
X1975409Y1591267*
X1975177Y1591134*
X1975011Y1590901*
X1974956Y1590680*
X1975175Y1590656*
X1975201Y1590789*
X1975210Y1590810*
X1975317Y1590952*
X1975327Y1590962*
X1975470Y1591070*
X1975492Y1591079*
X1975706Y1591115*
X1975724Y1591114*
X1975903Y1591079*
X1975923Y1591070*
X1976066Y1590962*
X1976071Y1590958*
X1976178Y1590851*
X1976192Y1590825*
X1976228Y1590646*
Y1590627*
X1976192Y1590448*
X1976186Y1590432*
X1976079Y1590254*
X1976074Y1590247*
X1975860Y1589997*
X1975855Y1589992*
X1975533Y1589706*
X1975286Y1589495*
X1975008Y1589147*
X1974942Y1588980*
X1974916Y1588830*
X1976486*
Y1589051*
X1976057Y1597206D02*
X1975921D01*
X1975829Y1597052*
X1975821Y1597043*
X1975643Y1596864*
X1975635Y1596858*
X1975421Y1596715*
X1975418Y1596713*
X1975193Y1596585*
Y1596373*
X1975474Y1596513*
X1975756Y1596725*
X1975836Y1596685*
Y1594735*
X1976057*
Y1597206*
Y1603112D02*
X1975921D01*
X1975829Y1602958*
X1975821Y1602948*
X1975643Y1602769*
X1975635Y1602763*
X1975421Y1602620*
X1975418Y1602619*
X1975193Y1602490*
Y1602279*
X1975474Y1602419*
X1975756Y1602631*
X1975836Y1602591*
Y1600641*
X1976057*
Y1603112*
Y1609017D02*
X1975921D01*
X1975829Y1608863*
X1975821Y1608854*
X1975643Y1608675*
X1975635Y1608669*
X1975421Y1608526*
X1975418Y1608524*
X1975193Y1608396*
Y1608184*
X1975474Y1608324*
X1975756Y1608536*
X1975836Y1608496*
Y1606546*
X1976057*
Y1609017*
Y1614923D02*
X1975921D01*
X1975829Y1614769*
X1975821Y1614759*
X1975643Y1614581*
X1975635Y1614574*
X1975421Y1614431*
X1975418Y1614430*
X1975193Y1614301*
Y1614090*
X1975474Y1614230*
X1975756Y1614442*
X1975836Y1614402*
Y1612452*
X1976057*
Y1614923*
X1977128Y1624965D02*
X1977095Y1625196D01*
X1976996Y1625360*
X1976866Y1625490*
X1976663Y1625558*
X1976649Y1625645*
X1976920Y1625849*
X1976985Y1626107*
X1976919Y1626434*
X1976654Y1626633*
X1976486Y1626700*
X1976320Y1626733*
X1976054Y1626700*
X1975858Y1626569*
X1975724Y1626368*
X1975641Y1626148*
X1975861Y1626124*
X1975918Y1626267*
X1975920Y1626271*
X1975991Y1626414*
X1976014Y1626436*
X1976156Y1626507*
X1976167Y1626511*
X1976310Y1626547*
X1976332*
X1976510Y1626512*
X1976528Y1626504*
X1976635Y1626433*
X1976652Y1626414*
X1976724Y1626271*
X1976727Y1626260*
X1976763Y1626118*
X1976764Y1626096*
X1976728Y1625917*
X1976714Y1625892*
X1976607Y1625784*
X1976602Y1625780*
X1976459Y1625673*
X1976429Y1625663*
X1976223*
X1976201Y1625487*
X1976349Y1625512*
X1976366*
X1976580Y1625476*
X1976602Y1625467*
X1976745Y1625360*
X1976755Y1625350*
X1976862Y1625207*
X1976871Y1625185*
X1976907Y1624971*
Y1624963*
X1976906Y1624953*
X1976871Y1624774*
X1976865Y1624758*
X1976757Y1624580*
X1976745Y1624565*
X1976602Y1624458*
X1976580Y1624449*
X1976366Y1624413*
X1976348Y1624414*
X1976169Y1624449*
X1976156Y1624454*
X1976014Y1624525*
X1975996Y1624540*
X1975889Y1624683*
X1975881Y1624697*
X1975823Y1624873*
X1975598Y1624848*
X1975654Y1624627*
X1975820Y1624393*
X1976052Y1624261*
X1976320Y1624228*
X1976661Y1624296*
X1976893Y1624428*
X1977061Y1624697*
X1977128Y1624965*
X1973486Y1578240D02*
X1972479D01*
Y1578054*
X1973179*
X1973229Y1578004*
Y1577504*
X1973209Y1577464*
X1973066Y1577357*
X1973062Y1577354*
X1972883Y1577247*
X1972866Y1577241*
X1972437Y1577169*
X1972422*
X1972172Y1577205*
X1972163Y1577207*
X1971949Y1577278*
X1971937Y1577284*
X1971723Y1577427*
X1971709Y1577441*
X1971566Y1577655*
X1971559Y1577669*
X1971488Y1577919*
X1971486Y1577927*
X1971451Y1578249*
X1971450Y1578254*
X1971451Y1578260*
X1971486Y1578546*
X1971488Y1578554*
X1971559Y1578804*
X1971564Y1578815*
X1971707Y1579065*
X1971724Y1579082*
X1972009Y1579261*
X1972027Y1579268*
X1972420Y1579339*
X1972439*
X1972796Y1579268*
X1972808Y1579263*
X1972951Y1579192*
X1972964Y1579182*
X1973071Y1579075*
X1973081Y1579062*
X1973206Y1578811*
X1973435Y1578862*
X1973384Y1579016*
X1973249Y1579185*
X1973114Y1579320*
X1972910Y1579422*
X1972703Y1579491*
X1972428Y1579525*
X1972082Y1579491*
X1971775Y1579388*
X1971537Y1579184*
X1971331Y1578909*
X1971228Y1578601*
X1971193Y1578254*
X1971228Y1577872*
X1971330Y1577565*
X1971535Y1577327*
X1971810Y1577121*
X1972118Y1577018*
X1972464Y1576983*
X1972740Y1577018*
X1972985Y1577087*
X1973262Y1577192*
X1973486Y1577351*
Y1578240*
X1974521Y1584160D02*
X1974487Y1584506D01*
X1974384Y1584815*
X1974213Y1585054*
X1973973Y1585260*
X1973666Y1585397*
X1973358Y1585431*
X1973118Y1585396*
X1972877Y1585328*
X1972707Y1585226*
X1972535Y1585088*
X1972364Y1584882*
X1972263Y1584681*
X1972193Y1584124*
X1972228Y1583813*
X1972331Y1583504*
X1972502Y1583265*
X1972742Y1583060*
X1973049Y1582923*
X1973357Y1582889*
X1973667Y1582923*
X1973939Y1583025*
X1974179Y1583231*
X1974385Y1583471*
X1974487Y1583777*
X1974521Y1584160*
X1974264Y1584152D02*
X1974192Y1583723D01*
X1974188Y1583709*
X1974009Y1583352*
X1973994Y1583333*
X1973744Y1583155*
X1973724Y1583146*
X1973367Y1583075*
X1973347*
X1973025Y1583147*
X1973009Y1583153*
X1972724Y1583332*
X1972707Y1583350*
X1972528Y1583671*
X1972522Y1583687*
X1972451Y1584116*
X1972450Y1584124*
Y1584374*
X1972452Y1584388*
X1972524Y1584638*
X1972525Y1584643*
X1972597Y1584821*
X1972603Y1584833*
X1972710Y1584975*
X1972724Y1584988*
X1973009Y1585166*
X1973025Y1585173*
X1973347Y1585244*
X1973364Y1585245*
X1973614Y1585209*
X1973630Y1585204*
X1973844Y1585097*
X1973853Y1585092*
X1974032Y1584949*
X1974045Y1584932*
X1974152Y1584718*
X1974156Y1584709*
X1974156D02*
X1974227Y1584459D01*
X1974228Y1584452*
X1974264Y1584166*
Y1584152*
X1974521Y1590065D02*
X1974487Y1590412D01*
X1974384Y1590721*
X1974213Y1590960*
X1973973Y1591165*
X1973666Y1591302*
X1973358Y1591336*
X1973118Y1591302*
X1972877Y1591233*
X1972707Y1591131*
X1972535Y1590994*
X1972364Y1590788*
X1972263Y1590586*
X1972193Y1590029*
X1972228Y1589719*
X1972331Y1589410*
X1972502Y1589171*
X1972742Y1588965*
X1973049Y1588828*
X1973357Y1588794*
X1973667Y1588829*
X1973939Y1588930*
X1974179Y1589136*
X1974385Y1589376*
X1974487Y1589683*
X1974521Y1590065*
X1974264Y1590057D02*
X1974192Y1589628D01*
X1974188Y1589614*
X1974009Y1589257*
X1973994Y1589239*
X1973744Y1589060*
X1973724Y1589052*
X1973367Y1588980*
X1973367D02*
X1973347Y1588981D01*
X1973025Y1589052*
X1973009Y1589059*
X1972724Y1589237*
X1972707Y1589255*
X1972528Y1589577*
X1972522Y1589593*
X1972451Y1590021*
X1972450Y1590030*
Y1590280*
X1972452Y1590293*
X1972524Y1590543*
X1972525Y1590548*
X1972597Y1590727*
X1972603Y1590738*
X1972710Y1590881*
X1972724Y1590893*
X1973009Y1591072*
X1973025Y1591078*
X1973347Y1591150*
X1973364*
X1973614Y1591115*
X1973630Y1591110*
X1973844Y1591003*
X1973853Y1590997*
X1974032Y1590854*
X1974045Y1590838*
X1974152Y1590623*
X1974156Y1590615*
X1974156D02*
X1974227Y1590365D01*
X1974228Y1590357*
X1974264Y1590071*
Y1590057*
X1974521Y1595971D02*
X1974487Y1596317D01*
X1974384Y1596626*
X1974213Y1596865*
X1973973Y1597071*
X1973666Y1597208*
X1973358Y1597242*
X1973118Y1597207*
X1972877Y1597139*
X1972707Y1597037*
X1972535Y1596899*
X1972364Y1596693*
X1972263Y1596492*
X1972193Y1595935*
X1972228Y1595624*
X1972331Y1595315*
X1972502Y1595076*
X1972742Y1594871*
X1973049Y1594734*
X1973357Y1594700*
X1973667Y1594734*
X1973939Y1594836*
X1974179Y1595042*
X1974385Y1595282*
X1974487Y1595588*
X1974521Y1595971*
X1974264Y1595963D02*
X1974192Y1595534D01*
X1974188Y1595520*
X1974009Y1595163*
X1973994Y1595144*
X1973744Y1594966*
X1973724Y1594957*
X1973367Y1594886*
X1973347*
X1973025Y1594958*
X1973009Y1594964*
X1972724Y1595143*
X1972707Y1595161*
X1972528Y1595482*
X1972522Y1595498*
X1972451Y1595927*
X1972450Y1595935*
Y1596185*
X1972452Y1596199*
X1972524Y1596449*
X1972525Y1596454*
X1972597Y1596632*
X1972603Y1596644*
X1972710Y1596786*
X1972724Y1596799*
X1973009Y1596977*
X1973025Y1596984*
X1973347Y1597055*
X1973364Y1597056*
X1973614Y1597020*
X1973630Y1597015*
X1973844Y1596908*
X1973853Y1596903*
X1974032Y1596760*
X1974045Y1596743*
X1974152Y1596529*
X1974156Y1596520*
X1974156D02*
X1974227Y1596270D01*
X1974228Y1596263*
X1974264Y1595977*
Y1595963*
X1974521Y1601876D02*
X1974487Y1602223D01*
X1974384Y1602532*
X1974213Y1602771*
X1973973Y1602976*
X1973666Y1603113*
X1973358Y1603147*
X1973118Y1603113*
X1972877Y1603044*
X1972707Y1602942*
X1972535Y1602805*
X1972364Y1602599*
X1972263Y1602397*
X1972193Y1601840*
X1972228Y1601530*
X1972331Y1601221*
X1972502Y1600982*
X1972742Y1600776*
X1973049Y1600639*
X1973357Y1600605*
X1973667Y1600640*
X1973939Y1600741*
X1974179Y1600947*
X1974385Y1601187*
X1974487Y1601494*
X1974521Y1601876*
X1974264Y1601868D02*
X1974192Y1601439D01*
X1974188Y1601425*
X1974009Y1601068*
X1973994Y1601050*
X1973744Y1600871*
X1973724Y1600863*
X1973367Y1600792*
X1973347*
X1973025Y1600863*
X1973009Y1600870*
X1972724Y1601048*
X1972707Y1601066*
X1972528Y1601388*
X1972522Y1601404*
X1972451Y1601832*
X1972450Y1601841*
Y1602091*
X1972452Y1602104*
X1972524Y1602354*
X1972525Y1602359*
X1972597Y1602538*
X1972603Y1602549*
X1972710Y1602692*
X1972724Y1602704*
X1973009Y1602883*
X1973025Y1602889*
X1973347Y1602961*
X1973364*
X1973614Y1602926*
X1973630Y1602921*
X1973844Y1602814*
X1973853Y1602808*
X1974032Y1602665*
X1974045Y1602649*
X1974152Y1602434*
X1974156Y1602426*
X1974156D02*
X1974227Y1602176D01*
X1974228Y1602168*
X1974264Y1601882*
Y1601868*
X1974521Y1607782D02*
X1974487Y1608128D01*
X1974384Y1608437*
X1974213Y1608676*
X1973973Y1608882*
X1973666Y1609019*
X1973358Y1609053*
X1973118Y1609018*
X1972877Y1608950*
X1972707Y1608848*
X1972535Y1608710*
X1972364Y1608504*
X1972263Y1608303*
X1972193Y1607746*
X1972228Y1607435*
X1972331Y1607126*
X1972502Y1606887*
X1972742Y1606682*
X1973049Y1606545*
X1973357Y1606511*
X1973667Y1606545*
X1973939Y1606647*
X1974179Y1606853*
X1974385Y1607093*
X1974487Y1607399*
X1974521Y1607782*
X1974264Y1607774D02*
X1974192Y1607345D01*
X1974188Y1607331*
X1974009Y1606974*
X1973994Y1606955*
X1973744Y1606777*
X1973724Y1606768*
X1973367Y1606697*
X1973347*
X1973025Y1606769*
X1973009Y1606775*
X1972724Y1606954*
X1972707Y1606972*
X1972528Y1607293*
X1972522Y1607309*
X1972451Y1607738*
X1972450Y1607746*
Y1607996*
X1972452Y1608010*
X1972524Y1608260*
X1972525Y1608265*
X1972597Y1608443*
X1972603Y1608455*
X1972710Y1608597*
X1972724Y1608610*
X1973009Y1608788*
X1973025Y1608795*
X1973347Y1608866*
X1973364Y1608867*
X1973614Y1608831*
X1973630Y1608826*
X1973630D02*
X1973844Y1608719D01*
X1973853Y1608714*
X1974032Y1608571*
X1974045Y1608554*
X1974152Y1608340*
X1974156Y1608331*
X1974156D02*
X1974227Y1608081D01*
X1974228Y1608074*
X1974264Y1607788*
Y1607774*
X1974521Y1613687D02*
X1974487Y1614034D01*
X1974384Y1614343*
X1974213Y1614582*
X1973973Y1614787*
X1973666Y1614924*
X1973358Y1614958*
X1973118Y1614924*
X1972877Y1614855*
X1972707Y1614753*
X1972535Y1614616*
X1972364Y1614410*
X1972263Y1614208*
X1972193Y1613651*
X1972228Y1613341*
X1972331Y1613032*
X1972502Y1612793*
X1972742Y1612587*
X1973049Y1612450*
X1973357Y1612416*
X1973667Y1612451*
X1973939Y1612552*
X1974179Y1612758*
X1974385Y1612998*
X1974487Y1613305*
X1974521Y1613687*
X1974264Y1613679D02*
X1974192Y1613250D01*
X1974188Y1613236*
X1974009Y1612879*
X1973994Y1612861*
X1973744Y1612682*
X1973724Y1612674*
X1973367Y1612603*
X1973347*
X1973025Y1612674*
X1973009Y1612681*
X1972724Y1612859*
X1972707Y1612877*
X1972528Y1613199*
X1972522Y1613215*
X1972451Y1613643*
X1972450Y1613652*
Y1613902*
X1972452Y1613915*
X1972524Y1614165*
X1972525Y1614170*
X1972597Y1614349*
X1972603Y1614360*
X1972710Y1614503*
X1972724Y1614515*
X1973009Y1614694*
X1973025Y1614700*
X1973347Y1614772*
X1973364Y1614773*
X1973364D02*
X1973614Y1614737D01*
X1973630Y1614732*
X1973844Y1614625*
X1973853Y1614619*
X1974032Y1614476*
X1974045Y1614460*
X1974152Y1614245*
X1974156Y1614237*
X1974156D02*
X1974227Y1613987D01*
X1974228Y1613979*
X1974264Y1613693*
Y1613679*
X1975593Y1620829D02*
X1975336D01*
Y1618950*
X1975244Y1618923*
X1974009Y1620829*
X1973693*
Y1618357*
X1973950*
Y1620236*
X1974042Y1620263*
X1975277Y1618357*
X1975593*
Y1620829*
X1971593Y1585395D02*
X1971336D01*
Y1582924*
X1971593*
Y1585395*
Y1591301D02*
X1971336D01*
Y1588830*
X1971593*
Y1591301*
Y1597206D02*
X1971336D01*
Y1594735*
X1971593*
Y1597206*
Y1603112D02*
X1971336D01*
Y1600641*
X1971593*
Y1603112*
Y1609017D02*
X1971336D01*
Y1606546*
X1971593*
Y1609017*
Y1614923D02*
X1971336D01*
Y1612452*
X1971593*
Y1614923*
X1973129Y1618543D02*
X1971607D01*
X1971557Y1618593*
Y1619486*
X1971607Y1619536*
X1972950*
Y1619721*
X1971607*
X1971557Y1619771*
Y1620593*
X1971607Y1620643*
X1973057*
Y1620829*
X1971300*
Y1618357*
X1973129*
Y1618543*
X1975320Y1626734D02*
X1975035D01*
X1974334Y1624912*
X1974227Y1624486*
X1974131Y1624483*
X1974131D02*
X1973989Y1624910D01*
X1973287Y1626734*
X1973003*
X1973998Y1624263*
X1974359*
X1975320Y1626734*
X1972735Y1624965D02*
X1972702Y1625196D01*
X1972603Y1625360*
X1972473Y1625490*
X1972270Y1625558*
X1972256Y1625645*
X1972528Y1625849*
X1972592Y1626107*
X1972526Y1626434*
X1972261Y1626633*
X1972093Y1626700*
X1971927Y1626733*
X1971661Y1626700*
X1971465Y1626569*
X1971331Y1626368*
X1971248Y1626148*
X1971468Y1626124*
X1971525Y1626267*
X1971527Y1626271*
X1971598Y1626414*
X1971621Y1626436*
X1971764Y1626507*
X1971774Y1626511*
X1971917Y1626547*
X1971939*
X1972117Y1626512*
X1972135Y1626504*
X1972242Y1626433*
X1972259Y1626414*
X1972331Y1626271*
X1972335Y1626260*
X1972335D02*
X1972370Y1626118D01*
X1972371Y1626096*
X1972335Y1625917*
X1972321Y1625892*
X1972214Y1625784*
X1972209Y1625780*
X1972066Y1625673*
X1972036Y1625663*
X1971830*
X1971808Y1625487*
X1971956Y1625512*
X1971973*
X1972187Y1625476*
X1972209Y1625467*
X1972352Y1625360*
X1972362Y1625350*
X1972469Y1625207*
X1972478Y1625185*
X1972514Y1624971*
X1972515Y1624963*
X1972514Y1624953*
X1972478Y1624774*
X1972472Y1624758*
X1972365Y1624580*
X1972352Y1624565*
X1972209Y1624458*
X1972187Y1624449*
X1971973Y1624413*
X1971955Y1624414*
X1971776Y1624449*
X1971764Y1624454*
X1971621Y1624525*
X1971603Y1624540*
X1971496Y1624683*
X1971489Y1624697*
X1971430Y1624873*
X1971206Y1624848*
X1971261Y1624627*
X1971427Y1624393*
X1971659Y1624261*
X1971927Y1624228*
X1972268Y1624296*
X1972500Y1624428*
X1972668Y1624697*
X1972735Y1624965*
X1971200Y1578181D02*
Y1578320D01*
X1971300Y1577656D02*
Y1578817D01*
Y1624572D02*
Y1624858D01*
Y1626142D02*
Y1626286D01*
X1971400Y1577484D02*
Y1579001D01*
Y1582924D02*
Y1585395D01*
Y1588830D02*
Y1591301D01*
Y1594735D02*
Y1597206D01*
Y1600641D02*
Y1603112D01*
Y1606546D02*
Y1609017D01*
Y1612452D02*
Y1614923D01*
Y1618357D02*
Y1620829D01*
Y1624432D02*
Y1624869D01*
Y1626131D02*
Y1626472D01*
X1971500Y1577367D02*
Y1577877D01*
Y1578596D02*
Y1579135D01*
Y1582924D02*
Y1585395D01*
Y1588830D02*
Y1591301D01*
Y1594735D02*
Y1597206D01*
Y1600641D02*
Y1603112D01*
Y1606546D02*
Y1609017D01*
Y1612452D02*
Y1614923D01*
Y1618357D02*
Y1620829D01*
Y1624352D02*
Y1624677D01*
Y1626204D02*
Y1626593D01*
X1971600Y1577278D02*
Y1577604D01*
Y1578878D02*
Y1579238D01*
Y1618357D02*
Y1618543D01*
Y1619535D02*
Y1619722D01*
Y1620642D02*
Y1620829D01*
Y1624295D02*
Y1624544D01*
Y1626416D02*
Y1626659D01*
X1971700Y1577203D02*
Y1577454D01*
Y1579053D02*
Y1579324D01*
Y1618357D02*
Y1618543D01*
Y1619536D02*
Y1619721D01*
Y1620643D02*
Y1620829D01*
Y1624256D02*
Y1624485D01*
Y1626476D02*
Y1626705D01*
X1971800Y1577128D02*
Y1577375D01*
Y1579130D02*
Y1579397D01*
Y1618357D02*
Y1618543D01*
Y1619536D02*
Y1619721D01*
Y1620643D02*
Y1620829D01*
Y1624243D02*
Y1624445D01*
Y1626518D02*
Y1626718D01*
X1971900Y1577090D02*
Y1577309D01*
Y1579192D02*
Y1579430D01*
Y1618357D02*
Y1618543D01*
Y1619536D02*
Y1619721D01*
Y1620643D02*
Y1620829D01*
Y1624231D02*
Y1624425D01*
Y1625503D02*
Y1625663D01*
Y1626543D02*
Y1626730D01*
X1972000Y1577057D02*
Y1577261D01*
Y1579255D02*
Y1579463D01*
Y1618357D02*
Y1618543D01*
Y1619536D02*
Y1619721D01*
Y1620643D02*
Y1620829D01*
Y1624242D02*
Y1624418D01*
Y1625507D02*
Y1625663D01*
Y1626535D02*
Y1626719D01*
X1972100Y1577024D02*
Y1577228D01*
Y1579281D02*
Y1579493D01*
Y1618357D02*
Y1618543D01*
Y1619536D02*
Y1619721D01*
Y1620643D02*
Y1620829D01*
Y1624262D02*
Y1624434D01*
Y1625491D02*
Y1625698D01*
Y1626515D02*
Y1626697D01*
X1972200Y1577009D02*
Y1577201D01*
Y1579299D02*
Y1579503D01*
Y1584065D02*
Y1584176D01*
Y1589971D02*
Y1590081D01*
Y1595876D02*
Y1595987D01*
Y1601782D02*
Y1601892D01*
Y1607687D02*
Y1607798D01*
Y1613593D02*
Y1613703D01*
Y1618357D02*
Y1618543D01*
Y1619536D02*
Y1619721D01*
Y1620643D02*
Y1620829D01*
Y1624282D02*
Y1624453D01*
Y1625472D02*
Y1625773D01*
Y1626461D02*
Y1626657D01*
X1972300Y1576999D02*
Y1577186D01*
Y1579317D02*
Y1579513D01*
Y1583597D02*
Y1584755D01*
Y1589503D02*
Y1590660D01*
Y1595408D02*
Y1596566D01*
Y1601314D02*
Y1602471D01*
Y1607219D02*
Y1608377D01*
Y1613125D02*
Y1614282D01*
Y1618357D02*
Y1618543D01*
Y1619536D02*
Y1619721D01*
Y1620643D02*
Y1620829D01*
Y1624314D02*
Y1624527D01*
Y1625399D02*
Y1625548D01*
Y1625678D02*
Y1625870D01*
Y1626332D02*
Y1626604D01*
X1972400Y1576989D02*
Y1577172D01*
Y1579336D02*
Y1579523D01*
Y1583408D02*
Y1584926D01*
Y1589313D02*
Y1590831D01*
Y1595219D02*
Y1596737D01*
Y1601124D02*
Y1602642D01*
Y1607030D02*
Y1608548D01*
Y1612935D02*
Y1614453D01*
Y1618357D02*
Y1618543D01*
Y1619536D02*
Y1619721D01*
Y1620643D02*
Y1620829D01*
Y1624371D02*
Y1624639D01*
Y1625299D02*
Y1625515D01*
Y1625753D02*
Y1626529D01*
X1972500Y1576988D02*
Y1577180D01*
Y1578054D02*
Y1578240D01*
Y1579327D02*
Y1579516D01*
Y1583268D02*
Y1583822D01*
Y1584555D02*
Y1585046D01*
Y1589173D02*
Y1589727D01*
Y1590461D02*
Y1590951D01*
Y1595079D02*
Y1595633D01*
Y1596366D02*
Y1596857D01*
Y1600984D02*
Y1601538D01*
Y1602272D02*
Y1602762D01*
Y1606890D02*
Y1607444D01*
Y1608177D02*
Y1608668D01*
Y1612795D02*
Y1613349D01*
Y1614083D02*
Y1614573D01*
Y1618357D02*
Y1618543D01*
Y1619536D02*
Y1619721D01*
Y1620643D02*
Y1620829D01*
Y1624428D02*
Y1624885D01*
Y1625054D02*
Y1625464D01*
Y1625828D02*
Y1626454D01*
X1972600Y1577000D02*
Y1577196D01*
Y1578054D02*
Y1578240D01*
Y1579307D02*
Y1579504D01*
Y1583181D02*
Y1583542D01*
Y1584828D02*
Y1585140D01*
Y1589086D02*
Y1589447D01*
Y1590733D02*
Y1591045D01*
Y1594992D02*
Y1595353D01*
Y1596639D02*
Y1596951D01*
Y1600897D02*
Y1601258D01*
Y1602544D02*
Y1602856D01*
Y1606803D02*
Y1607164D01*
Y1608450D02*
Y1608762D01*
Y1612708D02*
Y1613069D01*
Y1614355D02*
Y1614667D01*
Y1618357D02*
Y1618543D01*
Y1619536D02*
Y1619721D01*
Y1620643D02*
Y1620829D01*
Y1624588D02*
Y1625364D01*
X1972700Y1577013D02*
Y1577213D01*
Y1578054D02*
Y1578240D01*
Y1579287D02*
Y1579491D01*
Y1583095D02*
Y1583362D01*
Y1584962D02*
Y1585220D01*
Y1589001D02*
Y1589267D01*
Y1590867D02*
Y1591125D01*
Y1594906D02*
Y1595173D01*
Y1596773D02*
Y1597031D01*
Y1600812D02*
Y1601078D01*
Y1602678D02*
Y1602936D01*
Y1606717D02*
Y1606984D01*
Y1608584D02*
Y1608842D01*
Y1612623D02*
Y1612889D01*
Y1614489D02*
Y1614747D01*
Y1618357D02*
Y1618543D01*
Y1619536D02*
Y1619721D01*
Y1620643D02*
Y1620829D01*
Y1624825D02*
Y1625199D01*
X1972800Y1577035D02*
Y1577230D01*
Y1578054D02*
Y1578240D01*
Y1579266D02*
Y1579459D01*
Y1583034D02*
Y1583284D01*
Y1585035D02*
Y1585281D01*
Y1588939D02*
Y1589189D01*
Y1590941D02*
Y1591187D01*
Y1594845D02*
Y1595095D01*
Y1596847D02*
Y1597092D01*
Y1600750D02*
Y1601001D01*
Y1602752D02*
Y1602998D01*
Y1606656D02*
Y1606906D01*
Y1608658D02*
Y1608903D01*
Y1612561D02*
Y1612812D01*
Y1614563D02*
Y1614809D01*
Y1618357D02*
Y1618543D01*
Y1619536D02*
Y1619721D01*
Y1620643D02*
Y1620829D01*
X1972900Y1577063D02*
Y1577257D01*
Y1578054D02*
Y1578240D01*
Y1579217D02*
Y1579425D01*
Y1582989D02*
Y1583221D01*
Y1585098D02*
Y1585334D01*
Y1588895D02*
Y1589127D01*
Y1591003D02*
Y1591240D01*
Y1594800D02*
Y1595033D01*
Y1596909D02*
Y1597145D01*
Y1600706D02*
Y1600938D01*
Y1602815D02*
Y1603051D01*
Y1606611D02*
Y1606844D01*
Y1608720D02*
Y1608956D01*
Y1612517D02*
Y1612749D01*
Y1614626D02*
Y1614862D01*
Y1618357D02*
Y1618543D01*
Y1619536D02*
Y1619721D01*
Y1620643D02*
Y1620829D01*
X1973000Y1577093D02*
Y1577317D01*
Y1578054D02*
Y1578240D01*
Y1579147D02*
Y1579377D01*
Y1582945D02*
Y1583159D01*
Y1585160D02*
Y1585363D01*
Y1588850D02*
Y1589064D01*
Y1591066D02*
Y1591268D01*
Y1594756D02*
Y1594970D01*
Y1596972D02*
Y1597174D01*
Y1600661D02*
Y1600876D01*
Y1602877D02*
Y1603079D01*
Y1606567D02*
Y1606781D01*
Y1608783D02*
Y1608985D01*
Y1612472D02*
Y1612687D01*
Y1614688D02*
Y1614890D01*
Y1618357D02*
Y1618543D01*
Y1620643D02*
Y1620829D01*
X1973100Y1577131D02*
Y1577383D01*
Y1578054D02*
Y1578240D01*
Y1579024D02*
Y1579327D01*
Y1582917D02*
Y1583130D01*
Y1585189D02*
Y1585391D01*
Y1588823D02*
Y1589036D01*
Y1591095D02*
Y1591297D01*
Y1594728D02*
Y1594941D01*
Y1597000D02*
Y1597202D01*
Y1600634D02*
Y1600847D01*
Y1602906D02*
Y1603108D01*
Y1606539D02*
Y1606752D01*
Y1608812D02*
Y1609013D01*
Y1612445D02*
Y1612658D01*
Y1614717D02*
Y1614919D01*
Y1618357D02*
Y1618543D01*
Y1626493D02*
Y1626734D01*
X1973200Y1577168D02*
Y1577458D01*
Y1578050D02*
Y1578240D01*
Y1578824D02*
Y1579234D01*
Y1582906D02*
Y1583108D01*
Y1585212D02*
Y1585408D01*
Y1588812D02*
Y1589013D01*
Y1591117D02*
Y1591314D01*
Y1594717D02*
Y1594919D01*
Y1597023D02*
Y1597219D01*
Y1600623D02*
Y1600824D01*
Y1602928D02*
Y1603125D01*
Y1606528D02*
Y1606730D01*
Y1608834D02*
Y1609030D01*
Y1612434D02*
Y1612635D01*
Y1614739D02*
Y1614936D01*
Y1626245D02*
Y1626734D01*
X1973300Y1577219D02*
Y1578240D01*
Y1578832D02*
Y1579121D01*
Y1582895D02*
Y1583086D01*
Y1585234D02*
Y1585422D01*
Y1588801D02*
Y1588991D01*
Y1591139D02*
Y1591328D01*
Y1594706D02*
Y1594897D01*
Y1597045D02*
Y1597233D01*
Y1600612D02*
Y1600802D01*
Y1602950D02*
Y1603139D01*
Y1606517D02*
Y1606708D01*
Y1608856D02*
Y1609044D01*
Y1612423D02*
Y1612613D01*
Y1614761D02*
Y1614950D01*
Y1625996D02*
Y1626701D01*
X1973400Y1577290D02*
Y1578240D01*
Y1578855D02*
Y1578968D01*
Y1582893D02*
Y1583082D01*
Y1585240D02*
Y1585426D01*
Y1588799D02*
Y1588987D01*
Y1591145D02*
Y1591332D01*
Y1594704D02*
Y1594893D01*
Y1597051D02*
Y1597237D01*
Y1600610D02*
Y1600798D01*
Y1602956D02*
Y1603143D01*
Y1606515D02*
Y1606704D01*
Y1608862D02*
Y1609048D01*
Y1612421D02*
Y1612609D01*
Y1614767D02*
Y1614954D01*
Y1625748D02*
Y1626441D01*
X1973500Y1582904D02*
Y1583102D01*
Y1585226D02*
Y1585415D01*
Y1588810D02*
Y1589007D01*
Y1591131D02*
Y1591321D01*
Y1594715D02*
Y1594913D01*
Y1597037D02*
Y1597226D01*
Y1600621D02*
Y1600818D01*
Y1602942D02*
Y1603132D01*
Y1606526D02*
Y1606724D01*
Y1608848D02*
Y1609037D01*
Y1612432D02*
Y1612629D01*
Y1614753D02*
Y1614943D01*
Y1625500D02*
Y1626181D01*
X1973600Y1582916D02*
Y1583122D01*
Y1585211D02*
Y1585404D01*
Y1588821D02*
Y1589027D01*
Y1591117D02*
Y1591309D01*
Y1594727D02*
Y1594933D01*
Y1597022D02*
Y1597215D01*
Y1600632D02*
Y1600838D01*
Y1602928D02*
Y1603120D01*
Y1606538D02*
Y1606744D01*
Y1608833D02*
Y1609026D01*
Y1612443D02*
Y1612649D01*
Y1614739D02*
Y1614931D01*
Y1625252D02*
Y1625921D01*
X1973700Y1582935D02*
Y1583142D01*
Y1585169D02*
Y1585381D01*
Y1588841D02*
Y1589047D01*
Y1591075D02*
Y1591287D01*
Y1594746D02*
Y1594953D01*
Y1596980D02*
Y1597192D01*
Y1600652D02*
Y1600858D01*
Y1602886D02*
Y1603098D01*
Y1606557D02*
Y1606764D01*
Y1608791D02*
Y1609003D01*
Y1612463D02*
Y1612669D01*
Y1614697D02*
Y1614909D01*
Y1618357D02*
Y1620829D01*
Y1625003D02*
Y1625661D01*
X1973800Y1582973D02*
Y1583195D01*
Y1585119D02*
Y1585337D01*
Y1588878D02*
Y1589101D01*
Y1591025D02*
Y1591242D01*
Y1594784D02*
Y1595006D01*
Y1596930D02*
Y1597148D01*
Y1600689D02*
Y1600912D01*
Y1602836D02*
Y1603053D01*
Y1606595D02*
Y1606817D01*
Y1608741D02*
Y1608959D01*
Y1612500D02*
Y1612723D01*
Y1614647D02*
Y1614864D01*
Y1618357D02*
Y1620829D01*
Y1624755D02*
Y1625401D01*
X1973900Y1583010D02*
Y1583266D01*
Y1585054D02*
Y1585292D01*
Y1588916D02*
Y1589172D01*
Y1590959D02*
Y1591198D01*
Y1594821D02*
Y1595077D01*
Y1596865D02*
Y1597103D01*
Y1600727D02*
Y1600983D01*
Y1602771D02*
Y1603009D01*
Y1606632D02*
Y1606888D01*
Y1608676D02*
Y1608914D01*
Y1612538D02*
Y1612794D01*
Y1614582D02*
Y1614820D01*
Y1618357D02*
Y1620829D01*
Y1624507D02*
Y1625141D01*
X1974000Y1583077D02*
Y1583339D01*
Y1584974D02*
Y1585237D01*
Y1588983D02*
Y1589244D01*
Y1590879D02*
Y1591142D01*
Y1594888D02*
Y1595150D01*
Y1596785D02*
Y1597048D01*
Y1600794D02*
Y1601055D01*
Y1602691D02*
Y1602954D01*
Y1606699D02*
Y1606961D01*
Y1608596D02*
Y1608859D01*
Y1612605D02*
Y1612866D01*
Y1614502D02*
Y1614765D01*
Y1620286D02*
Y1620829D01*
Y1624263D02*
Y1624877D01*
X1974100Y1577019D02*
Y1579490D01*
Y1583163D02*
Y1583533D01*
Y1584822D02*
Y1585151D01*
Y1589069D02*
Y1589439D01*
Y1590728D02*
Y1591057D01*
Y1594974D02*
Y1595344D01*
Y1596633D02*
Y1596962D01*
Y1600880D02*
Y1601250D01*
Y1602539D02*
Y1602868D01*
Y1606785D02*
Y1607155D01*
Y1608444D02*
Y1608773D01*
Y1612691D02*
Y1613061D01*
Y1614350D02*
Y1614679D01*
Y1620174D02*
Y1620688D01*
Y1624263D02*
Y1624577D01*
X1974200Y1577019D02*
Y1579490D01*
Y1583255D02*
Y1583768D01*
Y1584553D02*
Y1585066D01*
Y1589161D02*
Y1589674D01*
Y1590459D02*
Y1590971D01*
Y1595066D02*
Y1595579D01*
Y1596364D02*
Y1596877D01*
Y1600972D02*
Y1601485D01*
Y1602270D02*
Y1602782D01*
Y1606877D02*
Y1607390D01*
Y1608175D02*
Y1608688D01*
Y1612783D02*
Y1613296D01*
Y1614081D02*
Y1614593D01*
Y1620019D02*
Y1620534D01*
Y1624263D02*
Y1624453D01*
X1974300Y1577019D02*
Y1579490D01*
Y1583372D02*
Y1584933D01*
Y1589277D02*
Y1590838D01*
Y1595183D02*
Y1596744D01*
Y1601088D02*
Y1602649D01*
Y1606994D02*
Y1608555D01*
Y1612900D02*
Y1614460D01*
Y1619865D02*
Y1620379D01*
Y1624263D02*
Y1624777D01*
X1974400Y1578947D02*
Y1579490D01*
Y1583517D02*
Y1584767D01*
Y1589423D02*
Y1590672D01*
Y1595328D02*
Y1596578D01*
Y1601234D02*
Y1602483D01*
Y1607139D02*
Y1608389D01*
Y1613045D02*
Y1614294D01*
Y1619711D02*
Y1620225D01*
Y1624368D02*
Y1625084D01*
X1974500Y1578824D02*
Y1579338D01*
Y1583923D02*
Y1584374D01*
Y1589829D02*
Y1590280D01*
Y1595734D02*
Y1596185D01*
Y1601640D02*
Y1602091D01*
Y1607545D02*
Y1607996D01*
Y1613451D02*
Y1613902D01*
Y1619557D02*
Y1620071D01*
Y1624625D02*
Y1625344D01*
X1974600Y1578670D02*
Y1579184D01*
Y1619402D02*
Y1619916D01*
Y1624882D02*
Y1625604D01*
X1974700Y1578516D02*
Y1579030D01*
Y1619248D02*
Y1619762D01*
Y1625140D02*
Y1625864D01*
X1974800Y1578361D02*
Y1578875D01*
Y1619094D02*
Y1619608D01*
Y1625397D02*
Y1626124D01*
X1974900Y1578207D02*
Y1578721D01*
Y1618939D02*
Y1619454D01*
Y1625654D02*
Y1626384D01*
X1975000Y1578053D02*
Y1578567D01*
Y1583724D02*
Y1584376D01*
Y1588830D02*
Y1589126D01*
Y1590675D02*
Y1590858D01*
Y1618785D02*
Y1619299D01*
Y1625911D02*
Y1626644D01*
X1975100Y1577898D02*
Y1578413D01*
Y1583350D02*
Y1584896D01*
Y1588830D02*
Y1589262D01*
Y1590664D02*
Y1591026D01*
Y1618631D02*
Y1619145D01*
Y1626168D02*
Y1626734D01*
X1975200Y1577744D02*
Y1578258D01*
Y1583150D02*
Y1585115D01*
Y1588830D02*
Y1589387D01*
Y1590783D02*
Y1591147D01*
Y1596377D02*
Y1596589D01*
Y1602282D02*
Y1602494D01*
Y1608188D02*
Y1608400D01*
Y1614093D02*
Y1614305D01*
Y1618477D02*
Y1618991D01*
Y1626425D02*
Y1626734D01*
X1975300Y1577590D02*
Y1578104D01*
Y1583063D02*
Y1583377D01*
Y1584907D02*
Y1585240D01*
Y1588830D02*
Y1589051D01*
Y1589199D02*
Y1589506D01*
Y1590929D02*
Y1591204D01*
Y1596427D02*
Y1596646D01*
Y1602332D02*
Y1602551D01*
Y1608238D02*
Y1608457D01*
Y1614143D02*
Y1614362D01*
Y1618357D02*
Y1618902D01*
Y1626682D02*
Y1626734D01*
X1975400Y1577436D02*
Y1577950D01*
Y1582992D02*
Y1583233D01*
Y1585051D02*
Y1585304D01*
Y1588830D02*
Y1589051D01*
Y1589320D02*
Y1589592D01*
Y1591017D02*
Y1591262D01*
Y1596477D02*
Y1596703D01*
Y1602382D02*
Y1602608D01*
Y1608288D02*
Y1608514D01*
Y1614193D02*
Y1614419D01*
Y1618357D02*
Y1620829D01*
X1975500Y1577281D02*
Y1577795D01*
Y1582945D02*
Y1583153D01*
Y1585131D02*
Y1585354D01*
Y1588830D02*
Y1589051D01*
Y1589395D02*
Y1589678D01*
Y1591080D02*
Y1591277D01*
Y1596533D02*
Y1596768D01*
Y1602439D02*
Y1602673D01*
Y1608344D02*
Y1608579D01*
Y1614250D02*
Y1614484D01*
Y1618357D02*
Y1620829D01*
X1975600Y1577127D02*
Y1577641D01*
Y1582923D02*
Y1583103D01*
Y1585181D02*
Y1585373D01*
Y1588830D02*
Y1589051D01*
Y1589475D02*
Y1589766D01*
Y1591097D02*
Y1591288D01*
Y1596608D02*
Y1596834D01*
Y1602514D02*
Y1602740D01*
Y1608419D02*
Y1608645D01*
Y1614325D02*
Y1614551D01*
Y1624841D02*
Y1624848D01*
X1975700Y1577019D02*
Y1577566D01*
Y1582901D02*
Y1583083D01*
Y1585201D02*
Y1585388D01*
Y1588830D02*
Y1589051D01*
Y1589559D02*
Y1589854D01*
Y1591114D02*
Y1591299D01*
Y1596683D02*
Y1596921D01*
Y1602589D02*
Y1602827D01*
Y1608494D02*
Y1608732D01*
Y1614400D02*
Y1614638D01*
Y1624562D02*
Y1624859D01*
Y1626142D02*
Y1626305D01*
X1975800Y1577019D02*
Y1579490D01*
Y1582896D02*
Y1583083D01*
Y1585202D02*
Y1585385D01*
Y1588830D02*
Y1589051D01*
Y1589644D02*
Y1589943D01*
Y1591099D02*
Y1591281D01*
Y1596733D02*
Y1597021D01*
Y1602639D02*
Y1602927D01*
Y1608544D02*
Y1608832D01*
Y1614450D02*
Y1614738D01*
Y1624422D02*
Y1624870D01*
Y1626130D02*
Y1626483D01*
X1975900Y1577019D02*
Y1579490D01*
Y1582910D02*
Y1583103D01*
Y1585185D02*
Y1585365D01*
Y1588830D02*
Y1589051D01*
Y1589731D02*
Y1590044D01*
Y1591079D02*
Y1591259D01*
Y1594735D02*
Y1597171D01*
Y1600641D02*
Y1603076D01*
Y1606546D02*
Y1608982D01*
Y1612452D02*
Y1614887D01*
Y1624348D02*
Y1624668D01*
Y1626222D02*
Y1626598D01*
X1976000Y1582930D02*
Y1583153D01*
Y1585159D02*
Y1585345D01*
Y1588830D02*
Y1589051D01*
Y1589819D02*
Y1590161D01*
Y1591012D02*
Y1591236D01*
Y1594735D02*
Y1597206D01*
Y1600641D02*
Y1603112D01*
Y1606546D02*
Y1609017D01*
Y1612452D02*
Y1614923D01*
Y1624291D02*
Y1624535D01*
Y1626426D02*
Y1626664D01*
X1976100Y1582980D02*
Y1583233D01*
Y1585035D02*
Y1585317D01*
Y1588830D02*
Y1589051D01*
Y1589927D02*
Y1590289D01*
Y1590929D02*
Y1591185D01*
Y1624255D02*
Y1624482D01*
Y1626479D02*
Y1626706D01*
X1976200Y1583043D02*
Y1583376D01*
Y1584897D02*
Y1585242D01*
Y1588830D02*
Y1589051D01*
Y1590047D02*
Y1590487D01*
Y1590786D02*
Y1591128D01*
Y1624242D02*
Y1624443D01*
Y1626519D02*
Y1626718D01*
X1976300Y1583168D02*
Y1583833D01*
Y1584415D02*
Y1585117D01*
Y1588830D02*
Y1589051D01*
Y1590179D02*
Y1591042D01*
Y1624230D02*
Y1624423D01*
Y1625504D02*
Y1625663D01*
Y1626544D02*
Y1626731D01*
X1976400Y1583386D02*
Y1584861D01*
Y1588830D02*
Y1589051D01*
Y1590442D02*
Y1590922D01*
Y1624244D02*
Y1624419D01*
Y1625506D02*
Y1625663D01*
Y1626534D02*
Y1626717D01*
X1976500Y1583887D02*
Y1584550D01*
Y1624264D02*
Y1624436D01*
Y1625490D02*
Y1625703D01*
Y1626514D02*
Y1626695D01*
X1976600Y1624284D02*
Y1624457D01*
Y1625468D02*
Y1625778D01*
Y1626456D02*
Y1626655D01*
X1976700Y1577019D02*
Y1579490D01*
Y1624318D02*
Y1624532D01*
Y1625393D02*
Y1625546D01*
Y1625684D02*
Y1625877D01*
Y1626318D02*
Y1626599D01*
X1976800Y1577019D02*
Y1579490D01*
Y1624375D02*
Y1624651D01*
Y1625289D02*
Y1625512D01*
Y1625759D02*
Y1626524D01*
X1976900Y1577019D02*
Y1579490D01*
Y1613059D02*
Y1613398D01*
Y1624439D02*
Y1624921D01*
Y1625011D02*
Y1625456D01*
Y1625834D02*
Y1626449D01*
X1977000Y1577019D02*
Y1577204D01*
Y1579304D02*
Y1579490D01*
Y1595285D02*
Y1595321D01*
Y1601191D02*
Y1601227D01*
Y1606546D02*
Y1606843D01*
Y1608392D02*
Y1608575D01*
Y1613059D02*
Y1613530D01*
Y1624599D02*
Y1625354D01*
X1977100Y1577019D02*
Y1577204D01*
Y1579304D02*
Y1579490D01*
Y1595024D02*
Y1595332D01*
Y1595935D02*
Y1596346D01*
Y1600930D02*
Y1601238D01*
Y1602519D02*
Y1602702D01*
Y1606546D02*
Y1606978D01*
Y1608381D02*
Y1608743D01*
Y1613059D02*
Y1613663D01*
Y1624853D02*
Y1625161D01*
X1977200Y1577019D02*
Y1577204D01*
Y1579304D02*
Y1579490D01*
Y1594884D02*
Y1595343D01*
Y1595923D02*
Y1596875D01*
Y1600790D02*
Y1601249D01*
Y1602508D02*
Y1602871D01*
Y1606546D02*
Y1607103D01*
Y1608500D02*
Y1608864D01*
Y1613059D02*
Y1613280D01*
Y1613442D02*
Y1613795D01*
X1977300Y1577019D02*
Y1577204D01*
Y1579304D02*
Y1579490D01*
Y1594816D02*
Y1595117D01*
Y1595948D02*
Y1597171D01*
Y1600722D02*
Y1601036D01*
Y1602617D02*
Y1602980D01*
Y1606546D02*
Y1606767D01*
Y1606915D02*
Y1607223D01*
Y1608646D02*
Y1608921D01*
Y1613059D02*
Y1613280D01*
Y1613575D02*
Y1613928D01*
X1977400Y1577019D02*
Y1577204D01*
Y1579304D02*
Y1579490D01*
Y1594759D02*
Y1594983D01*
Y1596048D02*
Y1596189D01*
Y1596811D02*
Y1597171D01*
Y1600665D02*
Y1600907D01*
Y1602810D02*
Y1603047D01*
Y1606546D02*
Y1606767D01*
Y1607037D02*
Y1607309D01*
Y1608733D02*
Y1608978D01*
Y1613059D02*
Y1613280D01*
Y1613708D02*
Y1614060D01*
X1977500Y1577019D02*
Y1577204D01*
Y1579304D02*
Y1579490D01*
Y1594727D02*
Y1594933D01*
Y1596104D02*
Y1596256D01*
Y1596949D02*
Y1597171D01*
Y1600632D02*
Y1600856D01*
Y1602861D02*
Y1603085D01*
Y1606546D02*
Y1606767D01*
Y1607112D02*
Y1607394D01*
Y1608797D02*
Y1608993D01*
Y1613059D02*
Y1613280D01*
Y1613842D02*
Y1614192D01*
X1977600Y1577025D02*
Y1577204D01*
Y1579304D02*
Y1579490D01*
Y1594714D02*
Y1594907D01*
Y1596133D02*
Y1596317D01*
Y1596949D02*
Y1597171D01*
Y1600620D02*
Y1600820D01*
Y1601866D02*
Y1601914D01*
Y1602899D02*
Y1603097D01*
Y1606546D02*
Y1606767D01*
Y1607192D02*
Y1607482D01*
Y1608813D02*
Y1609004D01*
Y1613059D02*
Y1613280D01*
Y1613975D02*
Y1614325D01*
X1977700Y1577034D02*
Y1577204D01*
Y1579304D02*
Y1579490D01*
Y1594702D02*
Y1594887D01*
Y1596161D02*
Y1596331D01*
Y1596949D02*
Y1597171D01*
Y1600607D02*
Y1600800D01*
Y1601883D02*
Y1602041D01*
Y1602924D02*
Y1603110D01*
Y1606546D02*
Y1606767D01*
Y1607275D02*
Y1607571D01*
Y1608830D02*
Y1609016D01*
Y1613059D02*
Y1613280D01*
Y1614108D02*
Y1614457D01*
X1977800Y1577043D02*
Y1577220D01*
Y1579288D02*
Y1579479D01*
Y1594714D02*
Y1594897D01*
Y1596152D02*
Y1596346D01*
Y1596949D02*
Y1597171D01*
Y1600623D02*
Y1600798D01*
Y1601883D02*
Y1602041D01*
Y1602910D02*
Y1603094D01*
Y1606546D02*
Y1606767D01*
Y1607360D02*
Y1607660D01*
Y1608816D02*
Y1608997D01*
Y1613059D02*
Y1613280D01*
Y1614242D02*
Y1614589D01*
X1977900Y1577052D02*
Y1577240D01*
Y1579248D02*
Y1579459D01*
Y1594731D02*
Y1594911D01*
Y1596138D02*
Y1596328D01*
Y1596949D02*
Y1597171D01*
Y1600643D02*
Y1600815D01*
Y1601866D02*
Y1602087D01*
Y1602890D02*
Y1603070D01*
Y1606546D02*
Y1606767D01*
Y1607448D02*
Y1607761D01*
Y1608796D02*
Y1608975D01*
Y1613059D02*
Y1613280D01*
Y1614371D02*
Y1614722D01*
X1978000Y1577091D02*
Y1577301D01*
Y1579192D02*
Y1579428D01*
Y1594750D02*
Y1594935D01*
Y1596114D02*
Y1596303D01*
Y1596949D02*
Y1597171D01*
Y1600663D02*
Y1600840D01*
Y1601841D02*
Y1602162D01*
Y1602829D02*
Y1603030D01*
Y1606546D02*
Y1606767D01*
Y1607535D02*
Y1607877D01*
Y1608728D02*
Y1608953D01*
Y1612452D02*
Y1614854D01*
X1978100Y1577135D02*
Y1577368D01*
Y1579117D02*
Y1579394D01*
Y1594778D02*
Y1595035D01*
Y1596039D02*
Y1596272D01*
Y1596949D02*
Y1597171D01*
Y1600700D02*
Y1600915D01*
Y1601766D02*
Y1601921D01*
Y1602067D02*
Y1602262D01*
Y1602681D02*
Y1602971D01*
Y1606546D02*
Y1606767D01*
Y1607644D02*
Y1608006D01*
Y1608646D02*
Y1608902D01*
Y1612452D02*
Y1614887D01*
X1978200Y1577179D02*
Y1577473D01*
Y1578995D02*
Y1579340D01*
Y1594853D02*
Y1595171D01*
Y1595914D02*
Y1596200D01*
Y1596949D02*
Y1597171D01*
Y1600757D02*
Y1601041D01*
Y1601658D02*
Y1601888D01*
Y1602142D02*
Y1602896D01*
Y1606546D02*
Y1606767D01*
Y1607764D02*
Y1608204D01*
Y1608502D02*
Y1608845D01*
Y1612452D02*
Y1614887D01*
X1978300Y1577268D02*
Y1577655D01*
Y1578825D02*
Y1579274D01*
Y1594948D02*
Y1595537D01*
Y1595547D02*
Y1596129D01*
Y1596949D02*
Y1597171D01*
Y1600829D02*
Y1601335D01*
Y1601346D02*
Y1601827D01*
Y1602217D02*
Y1602821D01*
Y1606546D02*
Y1606767D01*
Y1607896D02*
Y1608758D01*
Y1613059D02*
Y1613280D01*
X1978400Y1577368D02*
Y1577971D01*
Y1578338D02*
Y1579154D01*
Y1595084D02*
Y1596004D01*
Y1600989D02*
Y1601720D01*
Y1606546D02*
Y1606767D01*
Y1608158D02*
Y1608638D01*
Y1613059D02*
Y1613280D01*
X1978500Y1577518D02*
Y1578985D01*
Y1595363D02*
Y1595771D01*
Y1601260D02*
Y1601489D01*
Y1613059D02*
Y1613280D01*
X1978600Y1577785D02*
Y1578685D01*
X2027100Y1614737D02*
Y1614923D01*
X2027200Y1614737D02*
Y1614923D01*
X2027300Y1614737D02*
Y1614923D01*
X2027400Y1614737D02*
Y1614923D01*
X2027500Y1614737D02*
Y1614923D01*
X2027600Y1614737D02*
Y1614923D01*
X2027700Y1614737D02*
Y1614923D01*
X2027800Y1614737D02*
Y1614923D01*
X2027900Y1612452D02*
Y1614923D01*
X2028000Y1612452D02*
Y1614923D01*
X2028100Y1612452D02*
Y1614923D01*
X2028200Y1614737D02*
Y1614923D01*
X2028300Y1614737D02*
Y1614923D01*
X2028400Y1614737D02*
Y1614923D01*
X2028500Y1614737D02*
Y1614923D01*
X2028600Y1614737D02*
Y1614923D01*
X2028700Y1614737D02*
Y1614923D01*
X2028800Y1614737D02*
Y1614923D01*
X2028900Y1614737D02*
Y1614923D01*
X2029200Y1625018D02*
Y1625943D01*
X2029300Y1624774D02*
Y1626193D01*
X2029400Y1613286D02*
Y1614074D01*
Y1618357D02*
Y1620829D01*
Y1624657D02*
Y1625402D01*
Y1625584D02*
Y1626326D01*
X2029500Y1613010D02*
Y1614375D01*
Y1618357D02*
Y1620829D01*
Y1624551D02*
Y1624909D01*
Y1626052D02*
Y1626448D01*
X2029600Y1595491D02*
Y1596415D01*
Y1612870D02*
Y1614509D01*
Y1618357D02*
Y1620829D01*
Y1624476D02*
Y1624757D01*
Y1626228D02*
Y1626534D01*
X2029700Y1595246D02*
Y1596666D01*
Y1612754D02*
Y1613166D01*
Y1614223D02*
Y1614624D01*
Y1624401D02*
Y1624646D01*
Y1626349D02*
Y1626620D01*
X2029800Y1595130D02*
Y1595875D01*
Y1596057D02*
Y1596799D01*
Y1612669D02*
Y1612986D01*
Y1614418D02*
Y1614704D01*
Y1624348D02*
Y1624579D01*
Y1626412D02*
Y1626661D01*
X2029900Y1595024D02*
Y1595382D01*
Y1596524D02*
Y1596921D01*
Y1606546D02*
Y1609017D01*
Y1612585D02*
Y1612845D01*
Y1614530D02*
Y1614777D01*
Y1624314D02*
Y1624518D01*
Y1626474D02*
Y1626694D01*
X2030000Y1594949D02*
Y1595229D01*
Y1596700D02*
Y1597007D01*
Y1606546D02*
Y1609017D01*
Y1612541D02*
Y1612783D01*
Y1614592D02*
Y1614837D01*
Y1624281D02*
Y1624485D01*
Y1626518D02*
Y1626728D01*
X2030100Y1591115D02*
Y1591301D01*
Y1594874D02*
Y1595118D01*
Y1596822D02*
Y1597092D01*
Y1607657D02*
Y1607907D01*
Y1608799D02*
Y1609017D01*
Y1612496D02*
Y1612720D01*
Y1614655D02*
Y1614875D01*
Y1624258D02*
Y1624452D01*
Y1626536D02*
Y1626743D01*
X2030200Y1591115D02*
Y1591301D01*
Y1594820D02*
Y1595051D01*
Y1596884D02*
Y1597133D01*
Y1607689D02*
Y1607875D01*
Y1608832D02*
Y1609017D01*
Y1612452D02*
Y1612669D01*
Y1614705D02*
Y1614904D01*
Y1624248D02*
Y1624436D01*
Y1626554D02*
Y1626753D01*
X2030300Y1582924D02*
Y1585395D01*
Y1591115D02*
Y1591301D01*
Y1594787D02*
Y1594991D01*
Y1596947D02*
Y1597167D01*
Y1607689D02*
Y1607875D01*
Y1608832D02*
Y1609017D01*
Y1612440D02*
Y1612647D01*
Y1614727D02*
Y1614928D01*
Y1619148D02*
Y1620094D01*
Y1624238D02*
Y1624422D01*
Y1626572D02*
Y1626763D01*
X2030400Y1582924D02*
Y1585395D01*
Y1591115D02*
Y1591301D01*
Y1594753D02*
Y1594957D01*
Y1596990D02*
Y1597200D01*
Y1607689D02*
Y1607875D01*
Y1608832D02*
Y1609017D01*
Y1612429D02*
Y1612625D01*
Y1614750D02*
Y1614942D01*
Y1618896D02*
Y1620309D01*
Y1624228D02*
Y1624417D01*
Y1626579D02*
Y1626765D01*
X2030500Y1582924D02*
Y1585395D01*
Y1591115D02*
Y1591301D01*
Y1594730D02*
Y1594924D01*
Y1597009D02*
Y1597215D01*
Y1607689D02*
Y1607875D01*
Y1608832D02*
Y1609017D01*
Y1612417D02*
Y1612603D01*
Y1614772D02*
Y1614957D01*
Y1618756D02*
Y1619491D01*
Y1619850D02*
Y1620431D01*
Y1624239D02*
Y1624434D01*
Y1625298D02*
Y1625484D01*
Y1626559D02*
Y1626753D01*
X2030600Y1584067D02*
Y1584253D01*
Y1585210D02*
Y1585395D01*
Y1591115D02*
Y1591301D01*
Y1594720D02*
Y1594909D01*
Y1597027D02*
Y1597225D01*
Y1607689D02*
Y1607875D01*
Y1608832D02*
Y1609017D01*
Y1612426D02*
Y1612618D01*
Y1614761D02*
Y1614949D01*
Y1618648D02*
Y1619045D01*
Y1620164D02*
Y1620541D01*
Y1624252D02*
Y1624451D01*
Y1625298D02*
Y1625484D01*
Y1626539D02*
Y1626740D01*
X2030700Y1584067D02*
Y1584253D01*
Y1585210D02*
Y1585395D01*
Y1591115D02*
Y1591301D01*
Y1594710D02*
Y1594894D01*
Y1597045D02*
Y1597235D01*
Y1607689D02*
Y1607875D01*
Y1608832D02*
Y1609017D01*
Y1612437D02*
Y1612638D01*
Y1614747D02*
Y1614937D01*
Y1618562D02*
Y1618865D01*
Y1620342D02*
Y1620621D01*
Y1624268D02*
Y1624467D01*
Y1625298D02*
Y1625484D01*
Y1626519D02*
Y1626716D01*
X2030800Y1584067D02*
Y1584253D01*
Y1585210D02*
Y1585395D01*
Y1591115D02*
Y1591301D01*
Y1594700D02*
Y1594890D01*
Y1597051D02*
Y1597238D01*
Y1607654D02*
Y1607875D01*
Y1608832D02*
Y1609017D01*
Y1612448D02*
Y1612658D01*
Y1614724D02*
Y1614926D01*
Y1618484D02*
Y1618742D01*
Y1620444D02*
Y1620691D01*
Y1624296D02*
Y1624484D01*
Y1625298D02*
Y1625484D01*
Y1626481D02*
Y1626683D01*
X2030900Y1584067D02*
Y1584253D01*
Y1585210D02*
Y1585395D01*
Y1588830D02*
Y1591301D01*
Y1594712D02*
Y1594906D01*
Y1595771D02*
Y1595956D01*
Y1597031D02*
Y1597225D01*
Y1607599D02*
Y1607875D01*
Y1608832D02*
Y1609017D01*
Y1612480D02*
Y1612684D01*
Y1614674D02*
Y1614888D01*
Y1618440D02*
Y1618679D01*
Y1620506D02*
Y1620751D01*
Y1624325D02*
Y1624538D01*
Y1625298D02*
Y1625484D01*
Y1626430D02*
Y1626641D01*
X2031000Y1584067D02*
Y1584253D01*
Y1585210D02*
Y1585395D01*
Y1588830D02*
Y1591301D01*
Y1594724D02*
Y1594923D01*
Y1595771D02*
Y1595956D01*
Y1597011D02*
Y1597213D01*
Y1607485D02*
Y1607875D01*
Y1608821D02*
Y1609006D01*
Y1612518D02*
Y1612756D01*
Y1614624D02*
Y1614844D01*
Y1618395D02*
Y1618617D01*
Y1620569D02*
Y1620785D01*
Y1624360D02*
Y1624598D01*
Y1625298D02*
Y1625484D01*
Y1626330D02*
Y1626591D01*
X2031100Y1584067D02*
Y1584253D01*
Y1585210D02*
Y1585395D01*
Y1588830D02*
Y1591301D01*
Y1594740D02*
Y1594940D01*
Y1595771D02*
Y1595956D01*
Y1596991D02*
Y1597188D01*
Y1607344D02*
Y1607619D01*
Y1607723D02*
Y1607888D01*
Y1608805D02*
Y1608995D01*
Y1612559D02*
Y1612827D01*
Y1614544D02*
Y1614799D01*
Y1618355D02*
Y1618572D01*
Y1620614D02*
Y1620813D01*
Y1624398D02*
Y1624672D01*
Y1625298D02*
Y1625484D01*
Y1626147D02*
Y1626517D01*
X2031200Y1584041D02*
Y1584253D01*
Y1585210D02*
Y1585395D01*
Y1591115D02*
Y1591301D01*
Y1594769D02*
Y1594956D01*
Y1595771D02*
Y1595956D01*
Y1596954D02*
Y1597155D01*
Y1607203D02*
Y1607539D01*
Y1607748D02*
Y1607914D01*
Y1608779D02*
Y1608983D01*
Y1612645D02*
Y1612953D01*
Y1614457D02*
Y1614725D01*
Y1618344D02*
Y1618550D01*
Y1620636D02*
Y1620836D01*
Y1624435D02*
Y1625484D01*
Y1626068D02*
Y1626414D01*
X2031300Y1583991D02*
Y1584253D01*
Y1585210D02*
Y1585395D01*
Y1591115D02*
Y1591301D01*
Y1594797D02*
Y1595010D01*
Y1595771D02*
Y1595956D01*
Y1596902D02*
Y1597113D01*
Y1607052D02*
Y1607451D01*
Y1607773D02*
Y1608007D01*
Y1608739D02*
Y1608964D01*
Y1612730D02*
Y1613153D01*
Y1614257D02*
Y1614639D01*
Y1618332D02*
Y1618527D01*
Y1620658D02*
Y1620850D01*
Y1624506D02*
Y1625484D01*
Y1626090D02*
Y1626289D01*
X2031400Y1583889D02*
Y1584253D01*
Y1585202D02*
Y1585386D01*
Y1591115D02*
Y1591301D01*
Y1594832D02*
Y1595070D01*
Y1595771D02*
Y1595956D01*
Y1596803D02*
Y1597063D01*
Y1600641D02*
Y1603112D01*
Y1606886D02*
Y1607350D01*
Y1607814D02*
Y1608108D01*
Y1608637D02*
Y1608936D01*
Y1612837D02*
Y1613574D01*
Y1613836D02*
Y1614535D01*
Y1618322D02*
Y1618507D01*
Y1620678D02*
Y1620864D01*
Y1624577D02*
Y1625484D01*
X2031500Y1583745D02*
Y1584011D01*
Y1584094D02*
Y1584262D01*
Y1585185D02*
Y1585374D01*
Y1591115D02*
Y1591301D01*
Y1594870D02*
Y1595145D01*
Y1595771D02*
Y1595956D01*
Y1596619D02*
Y1596990D01*
Y1600641D02*
Y1603112D01*
Y1606719D02*
Y1607225D01*
Y1607897D02*
Y1608876D01*
Y1612954D02*
Y1614395D01*
Y1618333D02*
Y1618527D01*
Y1620664D02*
Y1620852D01*
X2031600Y1583607D02*
Y1583931D01*
Y1584122D02*
Y1584287D01*
Y1585164D02*
Y1585363D01*
Y1591115D02*
Y1591301D01*
Y1594907D02*
Y1595956D01*
Y1596540D02*
Y1596887D01*
Y1600641D02*
Y1603112D01*
Y1606552D02*
Y1607072D01*
Y1607991D02*
Y1608773D01*
Y1613184D02*
Y1614155D01*
Y1618344D02*
Y1618547D01*
Y1620650D02*
Y1620841D01*
X2031700Y1577019D02*
Y1579490D01*
Y1583457D02*
Y1583846D01*
Y1584147D02*
Y1584368D01*
Y1585124D02*
Y1585346D01*
Y1591115D02*
Y1591301D01*
Y1594978D02*
Y1595956D01*
Y1596562D02*
Y1596762D01*
Y1606546D02*
Y1606905D01*
Y1608116D02*
Y1608568D01*
Y1618355D02*
Y1618567D01*
Y1620622D02*
Y1620830D01*
X2031800Y1577019D02*
Y1579490D01*
Y1583292D02*
Y1583746D01*
Y1584177D02*
Y1584468D01*
Y1585050D02*
Y1585324D01*
Y1591115D02*
Y1591301D01*
Y1595050D02*
Y1595956D01*
Y1606546D02*
Y1606739D01*
Y1618391D02*
Y1618600D01*
Y1620572D02*
Y1620787D01*
X2031900Y1577019D02*
Y1579490D01*
Y1583126D02*
Y1583624D01*
Y1584261D02*
Y1585264D01*
Y1591115D02*
Y1591301D01*
Y1606546D02*
Y1606572D01*
Y1618429D02*
Y1618671D01*
Y1620519D02*
Y1620743D01*
X2032000Y1582959D02*
Y1583479D01*
Y1584347D02*
Y1585174D01*
Y1591115D02*
Y1591301D01*
Y1618477D02*
Y1618743D01*
Y1620439D02*
Y1620699D01*
X2032100Y1582924D02*
Y1583312D01*
Y1584472D02*
Y1584989D01*
Y1618562D02*
Y1618887D01*
Y1620334D02*
Y1620618D01*
Y1624263D02*
Y1626734D01*
X2032200Y1582924D02*
Y1583146D01*
Y1618648D02*
Y1619087D01*
Y1620124D02*
Y1620532D01*
Y1624263D02*
Y1626734D01*
X2032300Y1582924D02*
Y1582979D01*
Y1588830D02*
Y1588936D01*
Y1601432D02*
Y1602377D01*
Y1613023D02*
Y1614923D01*
Y1618759D02*
Y1619565D01*
Y1619627D02*
Y1620421D01*
Y1626179D02*
Y1626734D01*
X2032400Y1588830D02*
Y1589086D01*
Y1591259D02*
Y1591301D01*
Y1601179D02*
Y1602592D01*
Y1607008D02*
Y1607339D01*
Y1612755D02*
Y1614923D01*
Y1618876D02*
Y1620281D01*
Y1626129D02*
Y1626643D01*
X2032500Y1588830D02*
Y1589236D01*
Y1591109D02*
Y1591301D01*
Y1594735D02*
Y1597206D01*
Y1601039D02*
Y1601774D01*
Y1602134D02*
Y1602715D01*
Y1606840D02*
Y1607339D01*
Y1608116D02*
Y1608691D01*
Y1612637D02*
Y1613205D01*
Y1619132D02*
Y1620018D01*
Y1625975D02*
Y1626489D01*
X2032600Y1577810D02*
Y1578755D01*
Y1582924D02*
Y1582945D01*
Y1588921D02*
Y1589386D01*
Y1590959D02*
Y1591301D01*
Y1594735D02*
Y1597206D01*
Y1600931D02*
Y1601329D01*
Y1602447D02*
Y1602825D01*
Y1606730D02*
Y1607193D01*
Y1608006D02*
Y1608807D01*
Y1612553D02*
Y1612933D01*
Y1625820D02*
Y1626334D01*
X2032700Y1577557D02*
Y1578970D01*
Y1582924D02*
Y1583095D01*
Y1589068D02*
Y1589536D01*
Y1590809D02*
Y1591275D01*
Y1596652D02*
Y1597206D01*
Y1600845D02*
Y1601149D01*
Y1602626D02*
Y1602905D01*
Y1606664D02*
Y1606979D01*
Y1607944D02*
Y1608291D01*
Y1608558D02*
Y1608884D01*
Y1612502D02*
Y1612785D01*
Y1625666D02*
Y1626180D01*
X2032800Y1577417D02*
Y1578152D01*
Y1578512D02*
Y1579093D01*
Y1582924D02*
Y1583245D01*
Y1585289D02*
Y1585395D01*
Y1589215D02*
Y1589686D01*
Y1590659D02*
Y1591137D01*
Y1596601D02*
Y1597116D01*
Y1600768D02*
Y1601025D01*
Y1602727D02*
Y1602974D01*
Y1606608D02*
Y1606881D01*
Y1607884D02*
Y1608149D01*
Y1608712D02*
Y1608944D01*
Y1612473D02*
Y1612704D01*
Y1625512D02*
Y1626026D01*
X2032900Y1577309D02*
Y1577707D01*
Y1578825D02*
Y1579203D01*
Y1582932D02*
Y1583395D01*
Y1585139D02*
Y1585395D01*
Y1589362D02*
Y1589836D01*
Y1590509D02*
Y1590998D01*
Y1596447D02*
Y1596961D01*
Y1600723D02*
Y1600963D01*
Y1602790D02*
Y1603034D01*
Y1606583D02*
Y1606806D01*
Y1607824D02*
Y1608073D01*
Y1608780D02*
Y1608980D01*
Y1612448D02*
Y1612664D01*
Y1625358D02*
Y1625872D01*
X2033000Y1577223D02*
Y1577527D01*
Y1579004D02*
Y1579283D01*
Y1583079D02*
Y1583545D01*
Y1584989D02*
Y1585395D01*
Y1589509D02*
Y1589986D01*
Y1590359D02*
Y1590860D01*
Y1596293D02*
Y1596807D01*
Y1600679D02*
Y1600900D01*
Y1602852D02*
Y1603068D01*
Y1606558D02*
Y1606751D01*
Y1607781D02*
Y1608044D01*
Y1608820D02*
Y1609013D01*
Y1612437D02*
Y1612637D01*
Y1625203D02*
Y1625717D01*
X2033100Y1577146D02*
Y1577403D01*
Y1579105D02*
Y1579352D01*
Y1583226D02*
Y1583695D01*
Y1584839D02*
Y1585310D01*
Y1589657D02*
Y1590136D01*
Y1590209D02*
Y1590721D01*
Y1596139D02*
Y1596653D01*
Y1600638D02*
Y1600855D01*
Y1602897D02*
Y1603097D01*
Y1606540D02*
Y1606711D01*
Y1607756D02*
Y1608018D01*
Y1608841D02*
Y1609031D01*
Y1612426D02*
Y1612637D01*
Y1625049D02*
Y1625563D01*
X2033200Y1577101D02*
Y1577341D01*
Y1579168D02*
Y1579412D01*
Y1583373D02*
Y1583845D01*
Y1584689D02*
Y1585172D01*
Y1589772D02*
Y1590503D01*
Y1595984D02*
Y1596498D01*
Y1600627D02*
Y1600833D01*
Y1602919D02*
Y1603119D01*
Y1606529D02*
Y1606696D01*
Y1607731D02*
Y1607978D01*
Y1608855D02*
Y1609045D01*
Y1612417D02*
Y1612642D01*
Y1624895D02*
Y1625409D01*
X2033300Y1577057D02*
Y1577278D01*
Y1579230D02*
Y1579446D01*
Y1583520D02*
Y1583995D01*
Y1584539D02*
Y1585033D01*
Y1589899D02*
Y1590413D01*
Y1595830D02*
Y1596344D01*
Y1600616D02*
Y1600811D01*
Y1602942D02*
Y1603133D01*
Y1606517D02*
Y1606696D01*
Y1607706D02*
Y1607943D01*
Y1608866D02*
Y1609047D01*
Y1612428D02*
Y1612653D01*
Y1620029D02*
Y1620245D01*
Y1624740D02*
Y1625254D01*
X2033400Y1577016D02*
Y1577233D01*
Y1579275D02*
Y1579475D01*
Y1583667D02*
Y1584145D01*
Y1584389D02*
Y1584895D01*
Y1589805D02*
Y1590542D01*
Y1595676D02*
Y1596190D01*
Y1600606D02*
Y1600791D01*
Y1602962D02*
Y1603147D01*
Y1606516D02*
Y1606711D01*
Y1607681D02*
Y1607920D01*
Y1608850D02*
Y1609035D01*
Y1612440D02*
Y1612664D01*
Y1620079D02*
Y1620302D01*
Y1624586D02*
Y1625100D01*
X2033500Y1577005D02*
Y1577211D01*
Y1579297D02*
Y1579497D01*
Y1583809D02*
Y1584739D01*
Y1589646D02*
Y1590125D01*
Y1590220D02*
Y1590682D01*
Y1595521D02*
Y1596036D01*
Y1600617D02*
Y1600810D01*
Y1602948D02*
Y1603136D01*
Y1606531D02*
Y1606734D01*
Y1607656D02*
Y1607898D01*
Y1608833D02*
Y1609022D01*
Y1612451D02*
Y1612679D01*
Y1620129D02*
Y1620363D01*
Y1624432D02*
Y1624946D01*
X2033600Y1576994D02*
Y1577189D01*
Y1579320D02*
Y1579511D01*
Y1583929D02*
Y1584517D01*
Y1589498D02*
Y1589975D01*
Y1590370D02*
Y1590832D01*
Y1595367D02*
Y1595881D01*
Y1600628D02*
Y1600830D01*
Y1602933D02*
Y1603125D01*
Y1606545D02*
Y1606756D01*
Y1607631D02*
Y1607876D01*
Y1608797D02*
Y1608995D01*
Y1612488D02*
Y1612746D01*
Y1620201D02*
Y1620430D01*
Y1624278D02*
Y1624809D01*
X2033700Y1576983D02*
Y1577169D01*
Y1579340D02*
Y1579525D01*
Y1583986D02*
Y1584557D01*
Y1589351D02*
Y1589825D01*
Y1590520D02*
Y1590982D01*
Y1595213D02*
Y1595727D01*
Y1600639D02*
Y1600850D01*
Y1602906D02*
Y1603114D01*
Y1606578D02*
Y1606788D01*
Y1607597D02*
Y1607842D01*
Y1608757D02*
Y1608961D01*
Y1612526D02*
Y1612813D01*
Y1620276D02*
Y1620504D01*
Y1624263D02*
Y1626734D01*
X2033800Y1576995D02*
Y1577188D01*
Y1579326D02*
Y1579514D01*
Y1583828D02*
Y1584697D01*
Y1589204D02*
Y1589675D01*
Y1590670D02*
Y1591132D01*
Y1595059D02*
Y1595573D01*
Y1600675D02*
Y1600883D01*
Y1602856D02*
Y1603071D01*
Y1606612D02*
Y1606838D01*
Y1607547D02*
Y1607809D01*
Y1608664D02*
Y1608917D01*
Y1612575D02*
Y1612941D01*
Y1620350D02*
Y1620604D01*
Y1624263D02*
Y1626734D01*
X2033900Y1577006D02*
Y1577208D01*
Y1579311D02*
Y1579503D01*
Y1583677D02*
Y1584155D01*
Y1584379D02*
Y1584841D01*
Y1589057D02*
Y1589525D01*
Y1590820D02*
Y1591282D01*
Y1594904D02*
Y1595418D01*
Y1600712D02*
Y1600955D01*
Y1602802D02*
Y1603026D01*
Y1606661D02*
Y1606929D01*
Y1607421D02*
Y1607760D01*
Y1608424D02*
Y1608867D01*
Y1612655D02*
Y1614923D01*
Y1618357D02*
Y1620727D01*
Y1624263D02*
Y1626734D01*
X2034000Y1577017D02*
Y1577228D01*
Y1579284D02*
Y1579492D01*
Y1583530D02*
Y1584005D01*
Y1584529D02*
Y1584991D01*
Y1588910D02*
Y1589375D01*
Y1590970D02*
Y1591301D01*
Y1594750D02*
Y1595281D01*
Y1600760D02*
Y1601026D01*
Y1602722D02*
Y1602982D01*
Y1606711D02*
Y1607710D01*
Y1608403D02*
Y1608786D01*
Y1612779D02*
Y1614923D01*
Y1618357D02*
Y1620829D01*
X2034100Y1577053D02*
Y1577261D01*
Y1579234D02*
Y1579449D01*
Y1583383D02*
Y1583855D01*
Y1584679D02*
Y1585141D01*
Y1588830D02*
Y1589225D01*
Y1591120D02*
Y1591301D01*
Y1594735D02*
Y1597206D01*
Y1600846D02*
Y1601171D01*
Y1602617D02*
Y1602902D01*
Y1606830D02*
Y1607615D01*
Y1608403D02*
Y1608639D01*
Y1613123D02*
Y1614923D01*
X2034200Y1577090D02*
Y1577333D01*
Y1579180D02*
Y1579404D01*
Y1583236D02*
Y1583705D01*
Y1584829D02*
Y1585291D01*
Y1588830D02*
Y1589075D01*
Y1591270D02*
Y1591301D01*
Y1594735D02*
Y1597206D01*
Y1600932D02*
Y1601371D01*
Y1602408D02*
Y1602816D01*
Y1607032D02*
Y1607425D01*
X2034300Y1577138D02*
Y1577404D01*
Y1579100D02*
Y1579360D01*
Y1583089D02*
Y1583555D01*
Y1584979D02*
Y1585395D01*
Y1588830D02*
Y1588925D01*
Y1594735D02*
Y1597206D01*
Y1601043D02*
Y1601849D01*
Y1601911D02*
Y1602704D01*
X2034400Y1577224D02*
Y1577549D01*
Y1578995D02*
Y1579279D01*
Y1582942D02*
Y1583405D01*
Y1585129D02*
Y1585395D01*
Y1601159D02*
Y1602564D01*
X2034500Y1577310D02*
Y1577749D01*
Y1578786D02*
Y1579194D01*
Y1582924D02*
Y1583255D01*
Y1585279D02*
Y1585395D01*
Y1601415D02*
Y1602301D01*
X2034600Y1577421D02*
Y1578226D01*
Y1578289D02*
Y1579082D01*
Y1582924D02*
Y1583105D01*
Y1608832D02*
Y1609017D01*
Y1614737D02*
Y1614923D01*
Y1624263D02*
Y1626734D01*
X2034700Y1577537D02*
Y1578942D01*
Y1582924D02*
Y1582955D01*
Y1608832D02*
Y1609017D01*
Y1614737D02*
Y1614923D01*
Y1624263D02*
Y1626734D01*
X2034800Y1577793D02*
Y1578679D01*
Y1608832D02*
Y1609017D01*
Y1614737D02*
Y1614923D01*
Y1624263D02*
Y1626734D01*
X2034900Y1588830D02*
Y1591301D01*
Y1608832D02*
Y1609017D01*
Y1614737D02*
Y1614923D01*
Y1624263D02*
Y1624448D01*
Y1626548D02*
Y1626734D01*
X2035000Y1588830D02*
Y1591301D01*
Y1594735D02*
Y1597206D01*
Y1608832D02*
Y1609017D01*
Y1614737D02*
Y1614923D01*
Y1619021D02*
Y1619980D01*
Y1624263D02*
Y1624448D01*
Y1626548D02*
Y1626734D01*
X2035100Y1588830D02*
Y1589030D01*
Y1591100D02*
Y1591301D01*
Y1594735D02*
Y1597206D01*
Y1600985D02*
Y1601233D01*
Y1601844D02*
Y1602044D01*
Y1608832D02*
Y1609017D01*
Y1614737D02*
Y1614923D01*
Y1618732D02*
Y1620379D01*
Y1624263D02*
Y1624448D01*
Y1626548D02*
Y1626734D01*
X2035200Y1577626D02*
Y1577913D01*
Y1582924D02*
Y1585395D01*
Y1588830D02*
Y1589015D01*
Y1591115D02*
Y1591301D01*
Y1594735D02*
Y1597206D01*
Y1600845D02*
Y1601245D01*
Y1601833D02*
Y1602572D01*
Y1608832D02*
Y1609017D01*
Y1614737D02*
Y1614923D01*
Y1618575D02*
Y1619000D01*
Y1619359D02*
Y1619582D01*
Y1619949D02*
Y1620529D01*
Y1624263D02*
Y1624448D01*
Y1626548D02*
Y1626734D01*
X2035300Y1577626D02*
Y1578045D01*
Y1582924D02*
Y1585395D01*
Y1588830D02*
Y1589015D01*
Y1591115D02*
Y1591301D01*
Y1594735D02*
Y1594921D01*
Y1597021D02*
Y1597206D01*
Y1600744D02*
Y1601116D01*
Y1601822D02*
Y1603076D01*
Y1608832D02*
Y1609017D01*
Y1614737D02*
Y1614923D01*
Y1618475D02*
Y1618737D01*
Y1619552D02*
Y1619651D01*
Y1620271D02*
Y1620618D01*
Y1624263D02*
Y1624448D01*
Y1626548D02*
Y1626734D01*
X2035400Y1577626D02*
Y1578178D01*
Y1582924D02*
Y1585395D01*
Y1588830D02*
Y1589015D01*
Y1591115D02*
Y1591301D01*
Y1594735D02*
Y1594921D01*
Y1597021D02*
Y1597206D01*
Y1600687D02*
Y1600910D01*
Y1601914D02*
Y1602076D01*
Y1602467D02*
Y1603076D01*
Y1608832D02*
Y1609017D01*
Y1614737D02*
Y1614923D01*
Y1618415D02*
Y1618644D01*
Y1619639D02*
Y1619774D01*
Y1620452D02*
Y1620693D01*
Y1624263D02*
Y1624448D01*
Y1626548D02*
Y1626734D01*
X2035500Y1577626D02*
Y1577851D01*
Y1577956D02*
Y1578310D01*
Y1582924D02*
Y1583110D01*
Y1585210D02*
Y1585395D01*
Y1588830D02*
Y1589015D01*
Y1591115D02*
Y1591301D01*
Y1594735D02*
Y1594921D01*
Y1597021D02*
Y1597206D01*
Y1600637D02*
Y1600858D01*
Y1601999D02*
Y1602135D01*
Y1602855D02*
Y1603076D01*
Y1606546D02*
Y1609017D01*
Y1612452D02*
Y1614923D01*
Y1618370D02*
Y1618571D01*
Y1619699D02*
Y1619849D01*
Y1620552D02*
Y1620762D01*
Y1624265D02*
Y1624448D01*
Y1626548D02*
Y1626734D01*
X2035600Y1577626D02*
Y1577847D01*
Y1578089D02*
Y1578442D01*
Y1582924D02*
Y1583110D01*
Y1585210D02*
Y1585395D01*
Y1588830D02*
Y1589015D01*
Y1591115D02*
Y1591301D01*
Y1594735D02*
Y1594921D01*
Y1597021D02*
Y1597206D01*
Y1600624D02*
Y1600820D01*
Y1602027D02*
Y1602202D01*
Y1602855D02*
Y1603076D01*
Y1606546D02*
Y1609017D01*
Y1612452D02*
Y1614923D01*
Y1618330D02*
Y1618508D01*
Y1619725D02*
Y1619882D01*
Y1620588D02*
Y1620782D01*
Y1624274D02*
Y1624448D01*
Y1626548D02*
Y1626734D01*
X2035700Y1577626D02*
Y1577847D01*
Y1578223D02*
Y1578575D01*
Y1582924D02*
Y1583110D01*
Y1585210D02*
Y1585395D01*
Y1588830D02*
Y1589015D01*
Y1591115D02*
Y1591301D01*
Y1594735D02*
Y1594921D01*
Y1597021D02*
Y1597206D01*
Y1600612D02*
Y1600800D01*
Y1602056D02*
Y1602231D01*
Y1602855D02*
Y1603076D01*
Y1606546D02*
Y1609017D01*
Y1612452D02*
Y1614923D01*
Y1618321D02*
Y1618507D01*
Y1619742D02*
Y1619902D01*
Y1620613D02*
Y1620802D01*
Y1624283D02*
Y1624457D01*
Y1626547D02*
Y1626731D01*
X2035800Y1577626D02*
Y1577847D01*
Y1578356D02*
Y1578707D01*
Y1582924D02*
Y1583110D01*
Y1585210D02*
Y1585395D01*
Y1588838D02*
Y1589015D01*
Y1591115D02*
Y1591301D01*
Y1594735D02*
Y1594921D01*
Y1597021D02*
Y1597206D01*
Y1600613D02*
Y1600797D01*
Y1602063D02*
Y1602246D01*
Y1602855D02*
Y1603076D01*
Y1608832D02*
Y1609017D01*
Y1614737D02*
Y1614923D01*
Y1618324D02*
Y1618508D01*
Y1619743D02*
Y1619922D01*
Y1620638D02*
Y1620822D01*
Y1624292D02*
Y1624477D01*
Y1626508D02*
Y1626711D01*
X2035900Y1577626D02*
Y1577847D01*
Y1578489D02*
Y1578839D01*
Y1582924D02*
Y1583110D01*
Y1585210D02*
Y1585395D01*
Y1588847D02*
Y1589017D01*
Y1591115D02*
Y1591301D01*
Y1594737D02*
Y1594921D01*
Y1597021D02*
Y1597206D01*
Y1600630D02*
Y1600811D01*
Y1602049D02*
Y1602244D01*
Y1602855D02*
Y1603076D01*
Y1608832D02*
Y1609017D01*
Y1614737D02*
Y1614923D01*
Y1618340D02*
Y1618528D01*
Y1619726D02*
Y1619924D01*
Y1620629D02*
Y1620819D01*
Y1624317D02*
Y1624519D01*
Y1626466D02*
Y1626685D01*
X2036000Y1577626D02*
Y1577847D01*
Y1578623D02*
Y1578972D01*
Y1582924D02*
Y1583110D01*
Y1585210D02*
Y1585395D01*
Y1588856D02*
Y1589037D01*
Y1591088D02*
Y1591284D01*
Y1594747D02*
Y1594921D01*
Y1597021D02*
Y1597206D01*
Y1600648D02*
Y1600825D01*
Y1602034D02*
Y1602219D01*
Y1602855D02*
Y1603076D01*
Y1608832D02*
Y1609017D01*
Y1614737D02*
Y1614923D01*
Y1618358D02*
Y1618554D01*
Y1619703D02*
Y1619899D01*
Y1620609D02*
Y1620806D01*
Y1624362D02*
Y1624586D01*
Y1626391D02*
Y1626652D01*
X2036100Y1577626D02*
Y1577847D01*
Y1578756D02*
Y1579104D01*
Y1582927D02*
Y1583110D01*
Y1585210D02*
Y1585395D01*
Y1588870D02*
Y1589065D01*
Y1591048D02*
Y1591262D01*
Y1594756D02*
Y1594929D01*
Y1597020D02*
Y1597203D01*
Y1600668D02*
Y1600902D01*
Y1601974D02*
Y1602194D01*
Y1602855D02*
Y1603076D01*
Y1608832D02*
Y1609017D01*
Y1614737D02*
Y1614923D01*
Y1618392D02*
Y1618614D01*
Y1619643D02*
Y1619874D01*
Y1620548D02*
Y1620790D01*
Y1624406D02*
Y1624664D01*
Y1626289D02*
Y1626608D01*
X2036200Y1577626D02*
Y1577847D01*
Y1578889D02*
Y1579236D01*
Y1582937D02*
Y1583110D01*
Y1585210D02*
Y1585395D01*
Y1588914D02*
Y1589131D01*
Y1590981D02*
Y1591229D01*
Y1594765D02*
Y1594949D01*
Y1596980D02*
Y1597183D01*
Y1600729D02*
Y1601011D01*
Y1601885D02*
Y1602134D01*
Y1602855D02*
Y1603076D01*
Y1608832D02*
Y1609017D01*
Y1614737D02*
Y1614923D01*
Y1618428D02*
Y1618691D01*
Y1619566D02*
Y1619815D01*
Y1620460D02*
Y1620723D01*
Y1624472D02*
Y1624800D01*
Y1626161D02*
Y1626548D01*
X2036300Y1577614D02*
Y1577858D01*
Y1578936D02*
Y1579369D01*
Y1582946D02*
Y1583120D01*
Y1585205D02*
Y1585390D01*
Y1588959D02*
Y1589198D01*
Y1590895D02*
Y1591194D01*
Y1594790D02*
Y1594991D01*
Y1596938D02*
Y1597157D01*
Y1600814D02*
Y1601178D01*
Y1601717D02*
Y1602063D01*
Y1602855D02*
Y1603076D01*
Y1608832D02*
Y1609017D01*
Y1614737D02*
Y1614923D01*
Y1618508D02*
Y1618859D01*
Y1619398D02*
Y1619743D01*
Y1620220D02*
Y1620652D01*
Y1624572D02*
Y1625078D01*
Y1625927D02*
Y1626445D01*
X2036400Y1577019D02*
Y1579454D01*
Y1582955D02*
Y1583140D01*
Y1585165D02*
Y1585370D01*
Y1589008D02*
Y1589323D01*
Y1590770D02*
Y1591134D01*
Y1594834D02*
Y1595058D01*
Y1596863D02*
Y1597124D01*
Y1600920D02*
Y1601964D01*
Y1602855D02*
Y1603076D01*
Y1608832D02*
Y1609017D01*
Y1614737D02*
Y1614923D01*
Y1618624D02*
Y1619629D01*
Y1620231D02*
Y1620532D01*
Y1624696D02*
Y1626321D01*
X2036500Y1577019D02*
Y1579454D01*
Y1582984D02*
Y1583188D01*
Y1585119D02*
Y1585343D01*
Y1589108D02*
Y1589538D01*
Y1590568D02*
Y1591050D01*
Y1594878D02*
Y1595137D01*
Y1596761D02*
Y1597081D01*
Y1601095D02*
Y1601824D01*
Y1608832D02*
Y1609017D01*
Y1614737D02*
Y1614923D01*
Y1618846D02*
Y1619434D01*
Y1620242D02*
Y1620295D01*
Y1624909D02*
Y1626086D01*
X2036600Y1577626D02*
Y1577847D01*
Y1583028D02*
Y1583255D01*
Y1585044D02*
Y1585309D01*
Y1589210D02*
Y1590930D01*
Y1594945D02*
Y1595273D01*
Y1596633D02*
Y1597021D01*
Y1625242D02*
Y1625531D01*
X2036700Y1577626D02*
Y1577847D01*
Y1583072D02*
Y1583341D01*
Y1584936D02*
Y1585263D01*
Y1589381D02*
Y1590728D01*
Y1595045D02*
Y1595550D01*
Y1596400D02*
Y1596917D01*
X2036800Y1577626D02*
Y1577847D01*
Y1583145D02*
Y1583490D01*
Y1584796D02*
Y1585203D01*
Y1589698D02*
Y1590380D01*
Y1595169D02*
Y1596793D01*
X2036900Y1583245D02*
Y1583778D01*
Y1584553D02*
Y1585093D01*
Y1595381D02*
Y1596559D01*
X2037000Y1583376D02*
Y1584956D01*
Y1595714D02*
Y1596003D01*
X2037100Y1583604D02*
Y1584703D01*
*
G04 PC Custom Flashes*
G04 Layer Name ESP_WROOM_02_1213.pcb - flashes*
%LPD*%
*
*
G04 PC Circuitry*
G04 Layer Name ESP_WROOM_02_1213.pcb - circuitry*
%LPD*%
*
G54D10*
G54D24*
G54D31*
X1968504Y1653543D02*
X2039370D01*
Y1574803*
X1968504*
Y1653543*
X0Y0D02*
M02*
