*
*
G04 PADS 9.5 Build Number: 522968 generated Gerber (RS-274-X) file*
G04 PC Version=2.1*
*
%IN "WIFI_FLASH_MODULE_UPDAT"*%
*
%MOIN*%
*
%FSLAX35Y35*%
*
*
*
*
G04 PC Standard Apertures*
*
*
G04 Thermal Relief Aperture macro.*
%AMTER*
1,1,$1,0,0*
1,0,$1-$2,0,0*
21,0,$3,$4,0,0,45*
21,0,$3,$4,0,0,135*
%
*
*
G04 Annular Aperture macro.*
%AMANN*
1,1,$1,0,0*
1,0,$2,0,0*
%
*
*
G04 Odd Aperture macro.*
%AMODD*
1,1,$1,0,0*
1,0,$1-0.005,0,0*
%
*
*
G04 PC Custom Aperture Macros*
*
*
*
*
*
*
G04 PC Aperture Table*
*
%ADD010C,0.001*%
%ADD019O,0.03937X0.01969*%
%ADD022C,0.04724*%
%ADD024C,0.005*%
%ADD025C,0.006*%
%ADD030C,0.01575*%
%ADD031C,0.00394*%
%ADD037O,0.05118X0.05118*%
%ADD038O,0.04724X0.04724*%
*
*
*
*
G04 PC Circuitry*
G04 Layer Name WIFI_FLASH_MODULE_UPDAT - circuitry*
%LPD*%
*
G54D10*
G01X2382519Y1734374D02*
X2382476Y1734675D01*
X2382352Y1734923*
X2382150Y1735044*
X2381856Y1735086*
X2381642Y1735043*
X2381475Y1735001*
X2381312Y1734879*
X2381183Y1734665*
X2381095Y1734668*
X2381010Y1734839*
X2380889Y1734960*
X2380679Y1735044*
X2380472Y1735086*
X2380307Y1735044*
X2380097Y1734960*
X2379836Y1734700*
X2379751Y1734735*
Y1735042*
X2379449*
Y1732821*
X2379751*
Y1734244*
X2379752Y1734256*
X2379797Y1734435*
X2379807Y1734454*
X2380030Y1734722*
X2380055Y1734738*
X2380367Y1734828*
X2380393*
X2380572Y1734783*
X2380588Y1734777*
X2380721Y1734687*
X2380738Y1734668*
X2380828Y1734489*
X2380833Y1734467*
Y1732821*
X2381135*
Y1734110*
Y1734117*
X2381180Y1734430*
X2381189Y1734452*
X2381323Y1734631*
X2381333Y1734641*
X2381512Y1734775*
X2381532Y1734784*
X2381755Y1734829*
X2381775*
X2381998Y1734784*
X2382028Y1734765*
X2382162Y1734586*
X2382170Y1734572*
X2382214Y1734438*
X2382217Y1734422*
Y1732821*
X2382519*
Y1734374*
X2378769D02*
X2378726Y1734675D01*
X2378602Y1734923*
X2378400Y1735044*
X2378106Y1735086*
X2377892Y1735043*
X2377725Y1735001*
X2377562Y1734879*
X2377433Y1734665*
X2377345Y1734668*
X2377260Y1734839*
X2377139Y1734960*
X2376929Y1735044*
X2376722Y1735086*
X2376557Y1735044*
X2376347Y1734960*
X2376086Y1734700*
X2376001Y1734735*
Y1735042*
X2375699*
Y1732821*
X2376001*
Y1734244*
X2376002Y1734256*
X2376047Y1734435*
X2376057Y1734454*
X2376280Y1734722*
X2376305Y1734738*
X2376617Y1734828*
X2376643*
X2376822Y1734783*
X2376838Y1734777*
X2376971Y1734687*
X2376988Y1734668*
X2377078Y1734489*
X2377083Y1734467*
Y1732821*
X2377385*
Y1734110*
Y1734117*
X2377430Y1734430*
X2377439Y1734452*
X2377573Y1734631*
X2377583Y1734641*
X2377762Y1734775*
X2377782Y1734784*
X2378005Y1734829*
X2378025*
X2378248Y1734784*
X2378278Y1734765*
X2378412Y1734586*
X2378420Y1734572*
X2378464Y1734438*
X2378467Y1734422*
Y1732821*
X2378769*
Y1734374*
X2375063Y1733122D02*
X2373551D01*
X2373512Y1733204*
X2373690Y1733427*
X2373699Y1733436*
X2373877Y1733569*
X2374143Y1733791*
X2374497Y1734100*
X2374717Y1734364*
X2374846Y1734536*
X2374932Y1734750*
X2375018Y1735095*
X2374976Y1735428*
X2374768Y1735678*
X2374470Y1735849*
X2374470D02*
X2374084Y1735934D01*
X2373701Y1735892*
X2373407Y1735724*
X2373195Y1735428*
X2373122Y1735135*
X2373422Y1735102*
X2373457Y1735280*
X2373466Y1735301*
X2373600Y1735479*
X2373610Y1735489*
X2373789Y1735623*
X2373810Y1735632*
X2374078Y1735677*
X2374096*
X2374320Y1735632*
X2374340Y1735623*
X2374518Y1735489*
X2374524Y1735485*
X2374658Y1735351*
X2374671Y1735325*
X2374716Y1735102*
Y1735082*
X2374671Y1734859*
X2374665Y1734843*
X2374531Y1734620*
X2374526Y1734613*
X2374258Y1734301*
X2374254Y1734296*
X2373851Y1733938*
X2373542Y1733673*
X2373193Y1733236*
X2373108Y1733025*
X2373074Y1732821*
X2375063*
Y1733122*
X2372385D02*
X2372083D01*
Y1732821*
X2372385*
Y1733122*
X2370778Y1735935D02*
X2370588D01*
X2370469Y1735736*
X2370461Y1735726*
X2370238Y1735503*
X2370230Y1735497*
X2369963Y1735318*
X2369960Y1735317*
X2369672Y1735152*
Y1734860*
X2369672D02*
X2370042Y1735046D01*
X2370396Y1735311*
X2370476Y1735271*
Y1732821*
X2370778*
Y1735935*
X2368857Y1733710D02*
X2368815Y1733962D01*
X2368731Y1734171*
X2368566Y1734337*
X2368305Y1734467*
X2368302Y1734555*
X2368520Y1734685*
X2368644Y1734809*
X2368727Y1734976*
X2368768Y1735140*
X2368726Y1735473*
X2368517Y1735724*
X2368265Y1735892*
X2367881Y1735935*
X2367497Y1735892*
X2367245Y1735724*
X2367036Y1735473*
X2366994Y1735183*
X2367036Y1734975*
X2367119Y1734809*
X2367243Y1734685*
X2367461Y1734555*
X2367451Y1734464*
X2367194Y1734379*
X2367032Y1734217*
X2366948Y1733964*
X2366905Y1733710*
X2366991Y1733325*
X2367159Y1733030*
X2367496Y1732819*
X2367881Y1732776*
X2368266Y1732819*
X2368603Y1733030*
X2368772Y1733325*
X2368857Y1733710*
X2368465Y1735125D02*
X2368421Y1734946D01*
X2368414Y1734930*
X2368325Y1734797*
X2368305Y1734780*
X2368127Y1734690*
X2368114Y1734686*
X2367891Y1734641*
X2367871*
X2367648Y1734686*
X2367636Y1734690*
X2367457Y1734780*
X2367438Y1734797*
X2367349Y1734930*
X2367341Y1734948*
X2367296Y1735172*
X2367297Y1735194*
X2367342Y1735372*
X2367349Y1735388*
X2367438Y1735522*
X2367457Y1735539*
X2367636Y1735628*
X2367648Y1735632*
X2367871Y1735677*
X2367891*
X2368114Y1735632*
X2368127Y1735628*
X2368305Y1735539*
X2368328Y1735516*
X2368417Y1735338*
X2368421Y1735327*
X2368465Y1735149*
Y1735125*
X2368556Y1733708D02*
Y1733700D01*
X2368511Y1733432*
X2368502Y1733410*
X2368368Y1733232*
X2368358Y1733222*
X2368179Y1733088*
X2368157Y1733078*
X2367889Y1733034*
X2367881Y1733033*
X2367703*
X2367675Y1733042*
X2367544Y1733129*
X2367368Y1733217*
X2367349Y1733234*
X2367259Y1733368*
X2367251Y1733389*
X2367207Y1733701*
X2367206Y1733708*
X2367207Y1733718*
X2367252Y1733941*
X2367258Y1733957*
X2367392Y1734180*
X2367405Y1734195*
X2367583Y1734329*
X2367605Y1734338*
X2367873Y1734382*
X2367889*
X2368157Y1734338*
X2368179Y1734329*
X2368358Y1734195*
X2368371Y1734180*
X2368504Y1733957*
X2368511Y1733941*
X2368555Y1733718*
X2368556Y1733708*
X2153871Y1920532D02*
X2153828Y1920833D01*
X2153704Y1921080*
X2153502Y1921202*
X2153208Y1921244*
X2152994Y1921201*
X2152827Y1921159*
X2152664Y1921037*
X2152535Y1920822*
X2152448Y1920825*
X2152362Y1920997*
X2152241Y1921118*
X2152032Y1921201*
X2151824Y1921243*
X2151660Y1921202*
X2151449Y1921118*
X2151188Y1920857*
X2151103Y1920892*
Y1921200*
X2150801*
Y1918978*
X2151103*
Y1920401*
X2151105Y1920413*
X2151149Y1920592*
X2151159Y1920612*
X2151383Y1920880*
X2151407Y1920896*
X2151720Y1920985*
X2151746Y1920986*
X2151924Y1920941*
X2151940Y1920934*
X2152074Y1920845*
X2152091Y1920826*
X2152180Y1920647*
X2152185Y1920625*
Y1918978*
X2152487*
Y1920267*
X2152488Y1920275*
X2152532Y1920587*
X2152542Y1920610*
X2152676Y1920789*
X2152686Y1920799*
X2152864Y1920932*
X2152884Y1920941*
X2153108Y1920986*
X2153127*
X2153350Y1920941*
X2153381Y1920922*
X2153515Y1920744*
X2153522Y1920730*
X2153567Y1920596*
X2153569Y1920580*
Y1918978*
X2153871*
Y1920532*
X2150121D02*
X2150078Y1920833D01*
X2149954Y1921080*
X2149752Y1921202*
X2149458Y1921244*
X2149244Y1921201*
X2149077Y1921159*
X2148914Y1921037*
X2148785Y1920822*
X2148698Y1920825*
X2148612Y1920997*
X2148491Y1921118*
X2148282Y1921201*
X2148074Y1921243*
X2147910Y1921202*
X2147699Y1921118*
X2147438Y1920857*
X2147353Y1920892*
Y1921200*
X2147051*
Y1918978*
X2147353*
Y1920401*
X2147355Y1920413*
X2147399Y1920592*
X2147409Y1920612*
X2147633Y1920880*
X2147657Y1920896*
X2147970Y1920985*
X2147996Y1920986*
X2148174Y1920941*
X2148190Y1920934*
X2148324Y1920845*
X2148341Y1920826*
X2148430Y1920647*
X2148435Y1920625*
Y1918978*
X2148737*
Y1920267*
X2148738Y1920275*
X2148782Y1920587*
X2148792Y1920610*
X2148926Y1920789*
X2148936Y1920799*
X2149114Y1920932*
X2149134Y1920941*
X2149358Y1920986*
X2149377*
X2149600Y1920941*
X2149631Y1920922*
X2149765Y1920744*
X2149772Y1920730*
X2149817Y1920596*
X2149819Y1920580*
Y1918978*
X2150121*
Y1920532*
X2146460Y1920930D02*
X2146373Y1921234D01*
X2146198Y1921717*
X2146073Y1921884*
X2145909Y1922006*
X2145482Y1922092*
X2145186Y1922049*
X2144935Y1921924*
X2144768Y1921715*
X2144638Y1921413*
X2144551Y1921019*
X2144507Y1920489*
Y1920095*
X2144594Y1919745*
X2144682Y1919439*
X2144807Y1919231*
X2145102Y1919019*
X2145485Y1918934*
X2145781Y1918977*
X2145781D02*
X2146032Y1919102D01*
X2146199Y1919311*
X2146329Y1919613*
X2146416Y1920007*
X2146460Y1920493*
Y1920930*
X2146158Y1920848D02*
Y1920134D01*
Y1920125*
X2146113Y1919857*
Y1919856*
X2146068Y1919633*
X2146064Y1919620*
X2145975Y1919442*
X2145961Y1919425*
X2145738Y1919246*
X2145717Y1919236*
X2145493Y1919192*
X2145474*
X2145250Y1919236*
X2145229Y1919246*
X2145006Y1919425*
X2144992Y1919442*
X2144903Y1919620*
X2144899Y1919633*
X2144854Y1919856*
Y1919857*
X2144809Y1920125*
X2144808Y1920134*
Y1920848*
X2144809Y1920855*
X2144854Y1921167*
Y1921170*
X2144899Y1921393*
X2144903Y1921406*
X2144992Y1921584*
X2145006Y1921601*
X2145229Y1921780*
X2145250Y1921790*
X2145474Y1921834*
X2145492Y1921835*
X2145760Y1921790*
X2145790Y1921772*
X2145969Y1921549*
X2145972Y1921545*
X2146061Y1921411*
X2146068Y1921393*
X2146113Y1921170*
Y1921167*
X2146158Y1920855*
Y1920848*
X2143737Y1919280D02*
X2143435D01*
Y1918978*
X2143737*
Y1919280*
X2142710Y1920580D02*
X2142666Y1921107D01*
X2142580Y1921454*
X2142408Y1921755*
X2142240Y1921923*
X2141986Y1922049*
X2141691Y1922092*
X2141308Y1922007*
X2141014Y1921796*
X2140843Y1921456*
X2140758Y1921070*
X2140844Y1920641*
X2141013Y1920303*
X2141307Y1920135*
X2141602Y1920051*
X2141808Y1920092*
X2142020Y1920177*
X2142326Y1920439*
X2142408Y1920401*
Y1920357*
Y1920352*
X2142364Y1919861*
X2142359Y1919843*
X2142272Y1919670*
X2142228Y1919496*
X2142211Y1919469*
X2141988Y1919291*
X2141970Y1919282*
X2141658Y1919193*
X2141632Y1919192*
X2141453Y1919237*
X2141453D02*
X2141438Y1919244D01*
X2141304Y1919333*
X2141290Y1919347*
X2141201Y1919481*
X2141195Y1919493*
X2141118Y1919722*
X2140814Y1919688*
X2140887Y1919395*
X2141055Y1919143*
X2141305Y1918976*
X2141644Y1918934*
X2141942Y1918977*
X2141942D02*
X2142195Y1919103D01*
X2142408Y1919316*
X2142579Y1919616*
X2142666Y1920051*
X2142710Y1920580*
X2142408Y1921071D02*
Y1921064D01*
X2142363Y1920751*
X2142357Y1920733*
X2142223Y1920510*
X2142210Y1920495*
X2142031Y1920361*
X2142010Y1920352*
X2141742Y1920307*
X2141725*
X2141457Y1920352*
X2141436Y1920361*
X2141257Y1920495*
X2141244Y1920510*
X2141110Y1920733*
X2141104Y1920750*
X2141059Y1921018*
X2141058Y1921026*
X2141059Y1921033*
X2141104Y1921346*
X2141110Y1921365*
X2141244Y1921588*
X2141256Y1921601*
X2141479Y1921780*
X2141500Y1921790*
X2141724Y1921834*
X2141742Y1921835*
X2142010Y1921790*
X2142031Y1921781*
X2142210Y1921647*
X2142225Y1921629*
X2142359Y1921361*
X2142363Y1921347*
X2142408Y1921079*
Y1921071*
X2140210Y1920580D02*
X2140166Y1921107D01*
X2140080Y1921454*
X2139908Y1921755*
X2139740Y1921923*
X2139486Y1922049*
X2139191Y1922092*
X2138808Y1922007*
X2138514Y1921796*
X2138343Y1921456*
X2138258Y1921070*
X2138344Y1920641*
X2138513Y1920303*
X2138807Y1920135*
X2139102Y1920051*
X2139308Y1920092*
X2139520Y1920177*
X2139826Y1920439*
X2139908Y1920401*
Y1920357*
Y1920352*
X2139864Y1919861*
X2139859Y1919843*
X2139772Y1919670*
X2139728Y1919496*
X2139711Y1919469*
X2139488Y1919291*
X2139470Y1919282*
X2139158Y1919193*
X2139132Y1919192*
X2138953Y1919237*
X2138953D02*
X2138938Y1919244D01*
X2138804Y1919333*
X2138790Y1919347*
X2138701Y1919481*
X2138695Y1919493*
X2138618Y1919722*
X2138314Y1919688*
X2138387Y1919395*
X2138555Y1919143*
X2138805Y1918976*
X2139144Y1918934*
X2139442Y1918977*
X2139442D02*
X2139695Y1919103D01*
X2139908Y1919316*
X2140079Y1919616*
X2140166Y1920051*
X2140210Y1920580*
X2139908Y1921071D02*
Y1921064D01*
X2139863Y1920751*
X2139857Y1920733*
X2139723Y1920510*
X2139710Y1920495*
X2139531Y1920361*
X2139510Y1920352*
X2139242Y1920307*
X2139225*
X2138957Y1920352*
X2138936Y1920361*
X2138757Y1920495*
X2138744Y1920510*
X2138610Y1920733*
X2138604Y1920750*
X2138559Y1921018*
X2138558Y1921026*
X2138559Y1921033*
X2138604Y1921346*
X2138610Y1921365*
X2138744Y1921588*
X2138756Y1921601*
X2138979Y1921780*
X2139000Y1921790*
X2139224Y1921834*
X2139242Y1921835*
X2139510Y1921790*
X2139531Y1921781*
X2139710Y1921647*
X2139725Y1921629*
X2139859Y1921361*
X2139863Y1921347*
X2139908Y1921079*
Y1921071*
X2138300Y1920859D02*
Y1921260D01*
X2138400Y1919376D02*
Y1919698D01*
Y1920528D02*
Y1921569D01*
X2138500Y1919226D02*
Y1919709D01*
Y1920328D02*
Y1921769D01*
X2138600Y1919113D02*
Y1919720D01*
Y1920253D02*
Y1920773D01*
Y1921321D02*
Y1921858D01*
X2138700Y1919046D02*
Y1919482D01*
Y1920196D02*
Y1920583D01*
Y1921514D02*
Y1921930D01*
X2138800Y1918980D02*
Y1919336D01*
Y1920139D02*
Y1920463D01*
Y1921636D02*
Y1922001D01*
X2138900Y1918964D02*
Y1919269D01*
Y1920109D02*
Y1920388D01*
Y1921716D02*
Y1922027D01*
X2139000Y1918952D02*
Y1919225D01*
Y1920080D02*
Y1920345D01*
Y1921790D02*
Y1922049D01*
X2139100Y1918939D02*
Y1919200D01*
Y1920051D02*
Y1920328D01*
Y1921810D02*
Y1922071D01*
X2139200Y1918942D02*
Y1919205D01*
Y1920071D02*
Y1920312D01*
Y1921830D02*
Y1922090D01*
X2139300Y1918956D02*
Y1919233D01*
Y1920091D02*
Y1920317D01*
Y1921825D02*
Y1922076D01*
X2139400Y1918971D02*
Y1919262D01*
Y1920129D02*
Y1920334D01*
Y1921808D02*
Y1922062D01*
X2139500Y1919006D02*
Y1919301D01*
Y1920169D02*
Y1920350D01*
Y1921792D02*
Y1922043D01*
X2139600Y1919056D02*
Y1919381D01*
Y1920246D02*
Y1920413D01*
Y1921729D02*
Y1921993D01*
X2139700Y1919108D02*
Y1919461D01*
Y1920331D02*
Y1920488D01*
Y1921654D02*
Y1921943D01*
X2139800Y1919208D02*
Y1919726D01*
Y1920417D02*
Y1920638D01*
Y1921478D02*
Y1921862D01*
X2139900Y1919308D02*
Y1920261D01*
Y1920429D02*
Y1921008D01*
Y1921126D02*
Y1921762D01*
X2140000Y1919477D02*
Y1921593D01*
X2140100Y1919721D02*
Y1921372D01*
X2140200Y1920459D02*
Y1920701D01*
X2140800Y1920859D02*
Y1921260D01*
X2140900Y1919376D02*
Y1919698D01*
Y1920528D02*
Y1921569D01*
X2141000Y1919226D02*
Y1919709D01*
Y1920328D02*
Y1921769D01*
X2141100Y1919113D02*
Y1919720D01*
Y1920253D02*
Y1920773D01*
Y1921321D02*
Y1921858D01*
X2141200Y1919046D02*
Y1919482D01*
Y1920196D02*
Y1920583D01*
Y1921514D02*
Y1921930D01*
X2141300Y1918980D02*
Y1919336D01*
Y1920139D02*
Y1920463D01*
Y1921636D02*
Y1922001D01*
X2141400Y1918964D02*
Y1919269D01*
Y1920109D02*
Y1920388D01*
Y1921716D02*
Y1922027D01*
X2141500Y1918952D02*
Y1919225D01*
Y1920080D02*
Y1920345D01*
Y1921790D02*
Y1922049D01*
X2141600Y1918939D02*
Y1919200D01*
Y1920051D02*
Y1920328D01*
Y1921810D02*
Y1922071D01*
X2141700Y1918942D02*
Y1919205D01*
Y1920071D02*
Y1920312D01*
Y1921830D02*
Y1922090D01*
X2141800Y1918956D02*
Y1919233D01*
Y1920091D02*
Y1920317D01*
Y1921825D02*
Y1922076D01*
X2141900Y1918971D02*
Y1919262D01*
Y1920129D02*
Y1920334D01*
Y1921808D02*
Y1922062D01*
X2142000Y1919006D02*
Y1919301D01*
Y1920169D02*
Y1920350D01*
Y1921792D02*
Y1922043D01*
X2142100Y1919056D02*
Y1919381D01*
Y1920246D02*
Y1920413D01*
Y1921729D02*
Y1921993D01*
X2142200Y1919108D02*
Y1919461D01*
Y1920331D02*
Y1920488D01*
Y1921654D02*
Y1921943D01*
X2142300Y1919208D02*
Y1919726D01*
Y1920417D02*
Y1920638D01*
Y1921478D02*
Y1921862D01*
X2142400Y1919308D02*
Y1920261D01*
Y1920429D02*
Y1921008D01*
Y1921126D02*
Y1921762D01*
X2142500Y1919477D02*
Y1921593D01*
X2142600Y1919721D02*
Y1921372D01*
X2142700Y1920459D02*
Y1920701D01*
X2143500Y1918978D02*
Y1919280D01*
X2143600Y1918978D02*
Y1919280D01*
X2143700Y1918978D02*
Y1919280D01*
X2144600Y1919725D02*
Y1921240D01*
X2144700Y1919409D02*
Y1921556D01*
X2144800Y1919242D02*
Y1921755D01*
X2144900Y1919164D02*
Y1919628D01*
Y1921398D02*
Y1921880D01*
X2145000Y1919093D02*
Y1919430D01*
Y1921596D02*
Y1921956D01*
X2145100Y1919021D02*
Y1919349D01*
Y1921676D02*
Y1922006D01*
X2145200Y1918998D02*
Y1919269D01*
Y1921756D02*
Y1922051D01*
X2145300Y1918976D02*
Y1919226D01*
Y1921800D02*
Y1922066D01*
X2145400Y1918953D02*
Y1919206D01*
Y1921820D02*
Y1922080D01*
X2145500Y1918936D02*
Y1919193D01*
Y1921833D02*
Y1922088D01*
X2145600Y1918951D02*
Y1919213D01*
Y1921817D02*
Y1922068D01*
X2145700Y1918965D02*
Y1919233D01*
Y1921800D02*
Y1922048D01*
X2145800Y1918986D02*
Y1919296D01*
Y1921760D02*
Y1922028D01*
X2145900Y1919036D02*
Y1919376D01*
Y1921635D02*
Y1922008D01*
X2146000Y1919086D02*
Y1919492D01*
Y1921502D02*
Y1921938D01*
X2146100Y1919187D02*
Y1919792D01*
Y1921234D02*
Y1921847D01*
X2146200Y1919313D02*
Y1921711D01*
X2146300Y1919547D02*
Y1921436D01*
X2146400Y1919935D02*
Y1921141D01*
X2147100Y1918978D02*
Y1921200D01*
X2147200Y1918978D02*
Y1921200D01*
X2147300Y1918978D02*
Y1921200D01*
X2147400Y1920595D02*
Y1920843D01*
X2147500Y1920721D02*
Y1920919D01*
X2147600Y1920841D02*
Y1921019D01*
X2147700Y1920908D02*
Y1921118D01*
X2147800Y1920937D02*
Y1921158D01*
X2147900Y1920965D02*
Y1921198D01*
X2148000Y1920984D02*
Y1921224D01*
X2148100Y1920959D02*
Y1921238D01*
X2148200Y1920927D02*
Y1921218D01*
X2148300Y1920861D02*
Y1921194D01*
X2148400Y1920707D02*
Y1921154D01*
X2148500Y1918978D02*
Y1921109D01*
X2148600Y1918978D02*
Y1921009D01*
X2148700Y1918978D02*
Y1920821D01*
X2148800Y1920621D02*
Y1920847D01*
X2148900Y1920754D02*
Y1921013D01*
X2149000Y1920847D02*
Y1921101D01*
X2149100Y1920922D02*
Y1921165D01*
X2149200Y1920955D02*
Y1921190D01*
X2149300Y1920975D02*
Y1921212D01*
X2149400Y1920982D02*
Y1921232D01*
X2149500Y1920962D02*
Y1921238D01*
X2149600Y1920942D02*
Y1921223D01*
X2149700Y1920830D02*
Y1921209D01*
X2149800Y1920646D02*
Y1921173D01*
X2149900Y1918978D02*
Y1921113D01*
X2150000Y1918978D02*
Y1920989D01*
X2150100Y1918978D02*
Y1920679D01*
X2150900Y1918978D02*
Y1921200D01*
X2151000Y1918978D02*
Y1921200D01*
X2151100Y1918978D02*
Y1921200D01*
X2151200Y1920661D02*
Y1920869D01*
X2151300Y1920781D02*
Y1920969D01*
X2151400Y1920893D02*
Y1921069D01*
X2151500Y1920922D02*
Y1921138D01*
X2151600Y1920951D02*
Y1921178D01*
X2151700Y1920980D02*
Y1921212D01*
X2151800Y1920972D02*
Y1921237D01*
X2151900Y1920947D02*
Y1921228D01*
X2152000Y1920894D02*
Y1921208D01*
X2152100Y1920807D02*
Y1921174D01*
X2152200Y1918978D02*
Y1921134D01*
X2152300Y1918978D02*
Y1921059D01*
X2152400Y1918978D02*
Y1920921D01*
X2152500Y1920362D02*
Y1920798D01*
X2152600Y1920688D02*
Y1920930D01*
X2152700Y1920809D02*
Y1921064D01*
X2152800Y1920884D02*
Y1921139D01*
X2152900Y1920945D02*
Y1921177D01*
X2153000Y1920965D02*
Y1921202D01*
X2153100Y1920985D02*
Y1921222D01*
X2153200Y1920972D02*
Y1921242D01*
X2153300Y1920952D02*
Y1921230D01*
X2153400Y1920897D02*
Y1921216D01*
X2153500Y1920763D02*
Y1921202D01*
X2153600Y1918978D02*
Y1921143D01*
X2153700Y1918978D02*
Y1921083D01*
X2153800Y1918978D02*
Y1920889D01*
X2367000Y1733309D02*
Y1734121D01*
Y1735155D02*
Y1735222D01*
X2367100Y1733134D02*
Y1734285D01*
Y1734847D02*
Y1735550D01*
X2367200Y1733004D02*
Y1734381D01*
Y1734728D02*
Y1735670D01*
X2367300Y1732942D02*
Y1733307D01*
Y1734027D02*
Y1734414D01*
Y1734651D02*
Y1735154D01*
Y1735206D02*
Y1735761D01*
X2367400Y1732879D02*
Y1733201D01*
Y1734191D02*
Y1734447D01*
Y1734591D02*
Y1734853D01*
Y1735465D02*
Y1735827D01*
X2367500Y1732819D02*
Y1733151D01*
Y1734266D02*
Y1734758D01*
Y1735560D02*
Y1735892D01*
X2367600Y1732808D02*
Y1733092D01*
Y1734337D02*
Y1734708D01*
Y1735610D02*
Y1735903D01*
X2367700Y1732796D02*
Y1733033D01*
Y1734354D02*
Y1734676D01*
Y1735643D02*
Y1735915D01*
X2367800Y1732785D02*
Y1733033D01*
Y1734370D02*
Y1734656D01*
Y1735663D02*
Y1735926D01*
X2367900Y1732778D02*
Y1733036D01*
Y1734381D02*
Y1734643D01*
Y1735675D02*
Y1735933D01*
X2368000Y1732790D02*
Y1733052D01*
Y1734364D02*
Y1734663D01*
Y1735655D02*
Y1735921D01*
X2368100Y1732801D02*
Y1733069D01*
Y1734347D02*
Y1734683D01*
Y1735635D02*
Y1735910D01*
X2368200Y1732812D02*
Y1733104D01*
Y1734313D02*
Y1734727D01*
Y1735591D02*
Y1735899D01*
X2368300Y1732840D02*
Y1733179D01*
Y1734238D02*
Y1734470D01*
Y1734553D02*
Y1734777D01*
Y1735541D02*
Y1735869D01*
X2368400Y1732903D02*
Y1733275D01*
Y1734131D02*
Y1734420D01*
Y1734613D02*
Y1734910D01*
Y1735372D02*
Y1735802D01*
X2368500Y1732965D02*
Y1733408D01*
Y1733965D02*
Y1734370D01*
Y1734673D02*
Y1735736D01*
X2368600Y1733028D02*
Y1734303D01*
Y1734766D02*
Y1735625D01*
X2368700Y1733199D02*
Y1734203D01*
Y1734922D02*
Y1735505D01*
X2368800Y1733453D02*
Y1734000D01*
X2369700Y1734874D02*
Y1735168D01*
X2369800Y1734924D02*
Y1735225D01*
X2369900Y1734974D02*
Y1735282D01*
X2370000Y1735024D02*
Y1735343D01*
X2370100Y1735089D02*
Y1735410D01*
X2370200Y1735164D02*
Y1735477D01*
X2370300Y1735239D02*
Y1735565D01*
X2370400Y1735313D02*
Y1735665D01*
X2370500Y1732821D02*
Y1735788D01*
X2370600Y1732821D02*
Y1735935D01*
X2370700Y1732821D02*
Y1735935D01*
X2372100Y1732821D02*
Y1733122D01*
X2372200Y1732821D02*
Y1733122D01*
X2372300Y1732821D02*
Y1733122D01*
X2373100Y1732821D02*
Y1732976D01*
X2373200Y1732821D02*
Y1733245D01*
Y1735127D02*
Y1735435D01*
X2373300Y1732821D02*
Y1733370D01*
Y1735116D02*
Y1735575D01*
X2373400Y1732821D02*
Y1733495D01*
Y1735105D02*
Y1735715D01*
X2373500Y1732821D02*
Y1733620D01*
Y1735346D02*
Y1735777D01*
X2373600Y1732821D02*
Y1733122D01*
Y1733314D02*
Y1733723D01*
Y1735479D02*
Y1735834D01*
X2373700Y1732821D02*
Y1733122D01*
Y1733436D02*
Y1733808D01*
Y1735557D02*
Y1735891D01*
X2373800Y1732821D02*
Y1733122D01*
Y1733511D02*
Y1733894D01*
Y1735630D02*
Y1735903D01*
X2373900Y1732821D02*
Y1733122D01*
Y1733588D02*
Y1733981D01*
Y1735647D02*
Y1735914D01*
X2374000Y1732821D02*
Y1733122D01*
Y1733671D02*
Y1734070D01*
Y1735664D02*
Y1735925D01*
X2374100Y1732821D02*
Y1733122D01*
Y1733755D02*
Y1734159D01*
Y1735676D02*
Y1735931D01*
X2374200Y1732821D02*
Y1733122D01*
Y1733840D02*
Y1734248D01*
Y1735656D02*
Y1735909D01*
X2374300Y1732821D02*
Y1733122D01*
Y1733928D02*
Y1734349D01*
Y1735636D02*
Y1735886D01*
X2374400Y1732821D02*
Y1733122D01*
Y1734015D02*
Y1734466D01*
Y1735578D02*
Y1735864D01*
X2374500Y1732821D02*
Y1733122D01*
Y1734104D02*
Y1734582D01*
Y1735503D02*
Y1735831D01*
X2374600Y1732821D02*
Y1733122D01*
Y1734224D02*
Y1734735D01*
Y1735408D02*
Y1735774D01*
X2374700Y1732821D02*
Y1733122D01*
Y1734344D02*
Y1735003D01*
Y1735182D02*
Y1735717D01*
X2374800Y1732821D02*
Y1733122D01*
Y1734475D02*
Y1735640D01*
X2374900Y1732821D02*
Y1733122D01*
Y1734671D02*
Y1735520D01*
X2375000Y1732821D02*
Y1733122D01*
Y1735023D02*
Y1735239D01*
X2375700Y1732821D02*
Y1735042D01*
X2375800Y1732821D02*
Y1735042D01*
X2375900Y1732821D02*
Y1735042D01*
X2376000Y1732821D02*
Y1735042D01*
X2376100Y1734506D02*
Y1734713D01*
X2376200Y1734626D02*
Y1734813D01*
X2376300Y1734737D02*
Y1734913D01*
X2376400Y1734766D02*
Y1734981D01*
X2376500Y1734794D02*
Y1735021D01*
X2376600Y1734823D02*
Y1735055D01*
X2376700Y1734814D02*
Y1735080D01*
X2376800Y1734789D02*
Y1735070D01*
X2376900Y1734735D02*
Y1735050D01*
X2377000Y1734645D02*
Y1735016D01*
X2377100Y1732821D02*
Y1734976D01*
X2377200Y1732821D02*
Y1734899D01*
X2377300Y1732821D02*
Y1734759D01*
X2377400Y1734220D02*
Y1734641D01*
X2377500Y1734533D02*
Y1734776D01*
X2377600Y1734654D02*
Y1734908D01*
X2377700Y1734729D02*
Y1734983D01*
X2377800Y1734788D02*
Y1735020D01*
X2377900Y1734808D02*
Y1735045D01*
X2378000Y1734828D02*
Y1735065D01*
X2378100Y1734814D02*
Y1735085D01*
X2378200Y1734794D02*
Y1735073D01*
X2378300Y1734736D02*
Y1735058D01*
X2378400Y1734603D02*
Y1735044D01*
X2378500Y1732821D02*
Y1734984D01*
X2378600Y1732821D02*
Y1734924D01*
X2378700Y1732821D02*
Y1734727D01*
X2379500Y1732821D02*
Y1735042D01*
X2379600Y1732821D02*
Y1735042D01*
X2379700Y1732821D02*
Y1735042D01*
X2379800Y1734443D02*
Y1734685D01*
X2379900Y1734566D02*
Y1734763D01*
X2380000Y1734686D02*
Y1734863D01*
X2380100Y1734751D02*
Y1734961D01*
X2380200Y1734780D02*
Y1735001D01*
X2380300Y1734808D02*
Y1735041D01*
X2380400Y1734826D02*
Y1735068D01*
X2380500Y1734801D02*
Y1735080D01*
X2380600Y1734768D02*
Y1735060D01*
X2380700Y1734702D02*
Y1735036D01*
X2380800Y1734545D02*
Y1734996D01*
X2380900Y1732821D02*
Y1734949D01*
X2381000Y1732821D02*
Y1734849D01*
X2381100Y1732821D02*
Y1734660D01*
X2381200Y1734467D02*
Y1734693D01*
X2381300Y1734600D02*
Y1734860D01*
X2381400Y1734691D02*
Y1734945D01*
X2381500Y1734766D02*
Y1735008D01*
X2381600Y1734798D02*
Y1735033D01*
X2381700Y1734818D02*
Y1735055D01*
X2381800Y1734824D02*
Y1735075D01*
X2381900Y1734804D02*
Y1735080D01*
X2382000Y1734784D02*
Y1735065D01*
X2382100Y1734669D02*
Y1735051D01*
X2382200Y1734481D02*
Y1735014D01*
X2382300Y1732821D02*
Y1734954D01*
X2382400Y1732821D02*
Y1734827D01*
X2382500Y1732821D02*
Y1734505D01*
*
G04 PC Custom Flashes*
G04 Layer Name WIFI_FLASH_MODULE_UPDAT - flashes*
%LPD*%
*
*
G04 PC Circuitry*
G04 Layer Name WIFI_FLASH_MODULE_UPDAT - circuitry*
%LPD*%
*
G54D10*
X1950804Y1894403D02*
X1950807D01*
X2340504Y1893903D02*
X2340507D01*
X2340551Y1574803D02*
X2340554D01*
X2340551Y1894488D02*
X2340554D01*
G54D19*
X2036420Y1644961D03*
G54D22*
X1980318Y1586614D03*
X1988192D03*
X1996066D03*
X2003940D03*
X2011814D03*
X2019688D03*
X2027562D03*
X2035436D03*
X1972444Y1578740D03*
X1980318D03*
X1988192D03*
X1996066D03*
X2003940D03*
X2011814D03*
X2019688D03*
X2027562D03*
X2035436D03*
G54D24*
X2030774Y1586614D02*
G75*
G03X2030774I-3212J0D01*
G01X2022900D02*
G03X2022900I-3212J0D01*
G01X2022341Y1614503D02*
G03X2022341I-1637J0D01*
G01X2024841Y1625603D02*
G03X2024841I-1637J0D01*
G01X2020341Y1621403D02*
G03X2020341I-1637J0D01*
G01X2011441Y1625303D02*
G03X2011441I-1637J0D01*
G01X2007152Y1586614D02*
G03X2007152I-3212J0D01*
G01X1999278D02*
G03X1999278I-3212J0D01*
G01X1991404D02*
G03X1991404I-3212J0D01*
G01X1997441Y1617603D02*
G03X1997441I-1637J0D01*
G01X1983530Y1586614D02*
G03X1983530I-3212J0D01*
G01X1985041Y1614803D02*
G03X1985041I-1637J0D01*
G01Y1620103D02*
G03X1985041I-1637J0D01*
G01X2015026Y1586614D02*
G03X2015026I-3212J0D01*
G01X2038520Y1646694D02*
Y1648606D01*
G03X2038370Y1648756I-150J0*
G01X2006529*
G03X2006452Y1648478I0J-150*
G01X2002955D02*
G03X2006452I1749J-2927D01*
G01X2002955D02*
G03X2002878Y1648756I-77J128D01*
G01X1993704*
G03X1993554Y1648606I-0J-150*
G01Y1642520*
X1992704Y1641670D02*
G03X1993554Y1642520I-0J850D01*
G01X1992704Y1641670D02*
X1969504D01*
G03X1969354Y1641520I-0J-150*
G01Y1588245*
G03X1969635Y1588172I150J0*
G01Y1585056D02*
G03Y1588172I2809J1558D01*
G01Y1585056D02*
G03X1969354Y1584983I-131J-73D01*
G01Y1580371*
G03X1969635Y1580298I150J0*
G01X1974008Y1575934D02*
G03X1969635Y1580298I-1564J2806D01*
G01X1974008Y1575934D02*
G03X1974081Y1575653I73J-131D01*
G01X1978681*
G03X1978754Y1575934I0J150*
G01X1981882D02*
G03X1978754I-1564J2806D01*
G01X1981882D02*
G03X1981955Y1575653I73J-131D01*
G01X1986555*
G03X1986628Y1575934I0J150*
G01X1989756D02*
G03X1986628I-1564J2806D01*
G01X1989756D02*
G03X1989829Y1575653I73J-131D01*
G01X1994429*
G03X1994502Y1575934I0J150*
G01X1997630D02*
G03X1994502I-1564J2806D01*
G01X1997630D02*
G03X1997703Y1575653I73J-131D01*
G01X2002303*
G03X2002377Y1575934I0J150*
G01X2005504D02*
G03X2002377I-1564J2806D01*
G01X2005504D02*
G03X2005577Y1575653I73J-131D01*
G01X2010178*
G03X2010251Y1575934I-0J150*
G01X2013378D02*
G03X2010251I-1564J2806D01*
G01X2013378D02*
G03X2013451Y1575653I73J-131D01*
G01X2018052*
G03X2018125Y1575934I-0J150*
G01X2021252D02*
G03X2018125I-1564J2806D01*
G01X2021252D02*
G03X2021325Y1575653I73J-131D01*
G01X2038370*
G03X2038520Y1575803I0J150*
G01Y1643227*
G03X2038297Y1643358I-150J0*
G01X2037405Y1643126D02*
G03X2038297Y1643358I-0J1835D01*
G01X2037405Y1643126D02*
X2035436D01*
Y1646795D02*
G03Y1643126I0J-1834D01*
G01Y1646795D02*
X2037405D01*
X2038297Y1646563D02*
G03X2037405Y1646795I-892J-1602D01*
G01X2038297Y1646563D02*
G03X2038520Y1646694I73J131D01*
G01X2030774Y1586614D02*
G03X2030774I-3212J0D01*
G01X2022900D02*
G03X2022900I-3212J0D01*
G01X2019888Y1595231D02*
G03X2019030Y1596252I716J1472D01*
G01X2019888Y1595231D02*
G03X2019678Y1595054I-66J-135D01*
G01X2016492Y1594890D02*
G03X2019678Y1595054I1612J-287D01*
G01X2016492Y1594890D02*
G03X2016341Y1595066I-148J26D01*
G01X2017916Y1596416D02*
G03X2016341Y1595066I-1612J287D01*
G01X2017916Y1596416D02*
G03X2018067Y1596240I148J-26D01*
G01X2018820Y1596076D02*
G03X2018067Y1596240I-716J-1473D01*
G01X2018820Y1596076D02*
G03X2019030Y1596252I66J135D01*
G01X2022341Y1614503D02*
G03X2022341I-1637J0D01*
G01X2024841Y1625603D02*
G03X2024841I-1637J0D01*
G01X2020341Y1621403D02*
G03X2020341I-1637J0D01*
G01X2011441Y1625303D02*
G03X2011441I-1637J0D01*
G01X2007152Y1586614D02*
G03X2007152I-3212J0D01*
G01X1999278D02*
G03X1999278I-3212J0D01*
G01X1991404D02*
G03X1991404I-3212J0D01*
G01X1994664Y1598997D02*
G03Y1601809I840J1406D01*
G01Y1598997D02*
G03X1994628Y1599013I-77J-128D01*
G01X1993791Y1599248*
G03X1993750Y1599253I-41J-145*
G01X1990201*
G03X1989336Y1599123I-0J-2947*
X1989265Y1599077I44J-143*
G01X1988807Y1598539*
G03X1988785Y1598505I114J-98*
G01X1987216Y1600838D02*
G03X1988785Y1598505I88J-1635D01*
G01X1987216Y1600838D02*
G03X1987255Y1600846I-8J150D01*
G01X1988204Y1601159*
G03X1988214Y1601162I-47J142*
G01X1990201Y1601553D02*
G03X1988214Y1601162I-0J-5247D01*
G01X1990201Y1601553D02*
X1993750D01*
G03X1993791Y1601559I0J150*
G01X1994628Y1601793*
G03X1994664Y1601809I-41J145*
G01X1994107Y1605067D02*
G03X1996201Y1606263I1597J-364D01*
G01X1994107Y1605067D02*
G03X1994007Y1605243I-146J33D01*
G01X1993298Y1607911D02*
G03X1994007Y1605243I1206J-1108D01*
G01X1993298Y1607911D02*
G03X1993307Y1608104I-110J102D01*
G01X1993105Y1609763D02*
G03X1993307Y1608104I1499J-660D01*
G01X1993105Y1609763D02*
G03X1993038Y1609956I-137J60D01*
G01X1993307Y1612963D02*
G03X1993038Y1609956I497J-1560D01*
G01X1993307Y1612963D02*
G03X1993407Y1613139I-46J143D01*
G01X1995501Y1611943D02*
G03X1993407Y1613139I-497J1560D01*
G01X1995501Y1611943D02*
G03X1995400Y1611767I46J-143D01*
G01X1995303Y1610743D02*
G03X1995400Y1611767I-1499J660D01*
G01X1995303Y1610743D02*
G03X1995370Y1610550I137J-60D01*
G01X1995810Y1607995D02*
G03X1995370Y1610550I-1206J1108D01*
G01X1995810Y1607995D02*
G03X1995801Y1607802I110J-101D01*
G01X1996100Y1606439D02*
G03X1995801Y1607802I-1596J364D01*
G01X1996100Y1606439D02*
G03X1996201Y1606263I147J-33D01*
G01X1997441Y1617603D02*
G03X1997441I-1637J0D01*
G01X2003242Y1624365D02*
G03X2003417Y1626116I1462J738D01*
G01X2003242Y1624365D02*
G03X2002991Y1624390I-134J-67D01*
G01X2001237Y1623834D02*
G03X2002991Y1624390I467J1569D01*
G01X2001237Y1623834D02*
G03X2001069Y1623607I-43J-144D01*
G01X1999580Y1621070D02*
G03X2001069Y1623607I124J1633D01*
G01X1999580Y1621070D02*
G03X1999421Y1620945I-11J-149D01*
G01X1997928Y1622836D02*
G03X1999421Y1620945I-124J-1633D01*
G01X1997928Y1622836D02*
G03X1998087Y1622962I11J149D01*
G01X2000171Y1624273D02*
G03X1998087Y1622962I-467J-1570D01*
G01X2000171Y1624273D02*
G03X2000339Y1624499I43J143D01*
G01X2003166Y1626141D02*
G03X2000339Y1624499I-1462J-738D01*
G01X2003166Y1626141D02*
G03X2003417Y1626116I134J68D01*
G01X1994755Y1627746D02*
G03X1994654Y1630169I1049J1257D01*
G01X1994755Y1627746D02*
G03X1994554Y1627737I-96J-115D01*
G01X1992305Y1627690D02*
G03X1994554Y1627737I1099J1213D01*
G01X1992305Y1627690D02*
G03X1992103I-101J-112D01*
G01Y1630117D02*
G03Y1627690I-1099J-1214D01*
G01Y1630117D02*
G03X1992305I101J111D01*
G01X1994453Y1630161D02*
G03X1992305Y1630117I-1049J-1258D01*
G01X1994453Y1630161D02*
G03X1994654Y1630169I96J115D01*
G01X1983530Y1586614D02*
G03X1983530I-3212J0D01*
G01X1985041Y1614803D02*
G03X1985041I-1637J0D01*
G01Y1620103D02*
G03X1985041I-1637J0D01*
G01X2015026Y1586614D02*
G03X2015026I-3212J0D01*
G01X2006390Y1648552D02*
X2038520D01*
X2006965Y1648102D02*
X2038520D01*
X2007389Y1647652D02*
X2038520D01*
X2007686Y1647202D02*
X2038520D01*
X2037800Y1646752D02*
X2038520D01*
X2037710Y1643152D02*
X2038520D01*
X2006575Y1642702D02*
X2038520D01*
X2005562Y1642252D02*
X2038520D01*
X1993159Y1641802D02*
X2038520D01*
X1969354Y1641352D02*
X2038520D01*
X1969354Y1640902D02*
X2038520D01*
X1969354Y1640452D02*
X2038520D01*
X1969354Y1640002D02*
X2038520D01*
X1969354Y1639552D02*
X2038520D01*
X1969354Y1639102D02*
X2038520D01*
X1969354Y1638652D02*
X2038520D01*
X1969354Y1638202D02*
X2038520D01*
X1969354Y1637752D02*
X2038520D01*
X1969354Y1637302D02*
X2038520D01*
X1969354Y1636852D02*
X2038520D01*
X1969354Y1636402D02*
X2038520D01*
X1969354Y1635952D02*
X2038520D01*
X1969354Y1635502D02*
X2038520D01*
X1969354Y1635052D02*
X2038520D01*
X1969354Y1634602D02*
X2038520D01*
X1969354Y1634152D02*
X2038520D01*
X1969354Y1633702D02*
X2038520D01*
X1969354Y1633252D02*
X2038520D01*
X1969354Y1632802D02*
X2038520D01*
X1969354Y1632352D02*
X2038520D01*
X1969354Y1631902D02*
X2038520D01*
X1969354Y1631452D02*
X2038520D01*
X1969354Y1631002D02*
X2038520D01*
X1996336Y1630552D02*
X2038520D01*
X1997018Y1630102D02*
X2038520D01*
X1997307Y1629652D02*
X2038520D01*
X1997429Y1629202D02*
X2038520D01*
X1997422Y1628752D02*
X2038520D01*
X1997284Y1628302D02*
X2038520D01*
X1996968Y1627852D02*
X2038520D01*
X1996146Y1627402D02*
X2038520D01*
X2024132Y1626952D02*
X2038520D01*
X2024573Y1626502D02*
X2038520D01*
X2024779Y1626052D02*
X2038520D01*
X2024841Y1625602D02*
X2038520D01*
X2024778Y1625152D02*
X2038520D01*
X2024571Y1624702D02*
X2038520D01*
X2024129Y1624252D02*
X2038520D01*
X2010458Y1623802D02*
X2038520D01*
X2001207Y1623352D02*
X2038520D01*
X2019364Y1622902D02*
X2038520D01*
X2019961Y1622452D02*
X2038520D01*
X2020228Y1622002D02*
X2038520D01*
X2020335Y1621552D02*
X2038520D01*
X2020313Y1621102D02*
X2038520D01*
X2020159Y1620652D02*
X2038520D01*
X2019817Y1620202D02*
X2038520D01*
X1998562Y1619752D02*
X2038520D01*
X1984832Y1619302D02*
X2038520D01*
X1996863Y1618852D02*
X2038520D01*
X1997233Y1618402D02*
X2038520D01*
X1997404Y1617952D02*
X2038520D01*
X1997438Y1617502D02*
X2038520D01*
X1997346Y1617052D02*
X2038520D01*
X1997100Y1616602D02*
X2038520D01*
X1996562Y1616152D02*
X2038520D01*
X2021819Y1615702D02*
X2038520D01*
X2022160Y1615252D02*
X2038520D01*
X2022314Y1614802D02*
X2038520D01*
X2022334Y1614352D02*
X2038520D01*
X2022227Y1613902D02*
X2038520D01*
X2021959Y1613452D02*
X2038520D01*
X2021358Y1613002D02*
X2038520D01*
X1996337Y1612552D02*
X2038520D01*
X1995851Y1612102D02*
X2038520D01*
X1995422Y1611652D02*
X2038520D01*
X1995429Y1611202D02*
X2038520D01*
X1995306Y1610752D02*
X2038520D01*
X1995719Y1610302D02*
X2038520D01*
X1996060Y1609852D02*
X2038520D01*
X1996214Y1609402D02*
X2038520D01*
X1996234Y1608952D02*
X2038520D01*
X1996127Y1608502D02*
X2038520D01*
X1995859Y1608052D02*
X2038520D01*
X1995933Y1607602D02*
X2038520D01*
X1996104Y1607152D02*
X2038520D01*
X1996138Y1606702D02*
X2038520D01*
X1996236Y1606252D02*
X2038520D01*
X1996918Y1605802D02*
X2038520D01*
X1997207Y1605352D02*
X2038520D01*
X1997329Y1604902D02*
X2038520D01*
X1997322Y1604452D02*
X2038520D01*
X1997184Y1604002D02*
X2038520D01*
X1996868Y1603552D02*
X2038520D01*
X1996046Y1603102D02*
X2038520D01*
X1969354Y1602652D02*
X2038520D01*
X1969354Y1602202D02*
X2038520D01*
X1996432Y1601752D02*
X2038520D01*
X1996873Y1601302D02*
X2038520D01*
X1997079Y1600852D02*
X2038520D01*
X1997141Y1600402D02*
X2038520D01*
X1997078Y1599952D02*
X2038520D01*
X1996871Y1599502D02*
X2038520D01*
X1996429Y1599052D02*
X2038520D01*
X1988861Y1598602D02*
X2038520D01*
X2021367Y1598152D02*
X2038520D01*
X2021902Y1597702D02*
X2038520D01*
X2022147Y1597252D02*
X2038520D01*
X2022238Y1596802D02*
X2038520D01*
X2022203Y1596352D02*
X2038520D01*
X2022032Y1595902D02*
X2038520D01*
X2021660Y1595452D02*
X2038520D01*
X2019692Y1595002D02*
X2038520D01*
X2019741Y1594552D02*
X2038520D01*
X2019663Y1594102D02*
X2038520D01*
X2019437Y1593652D02*
X2038520D01*
X2018951Y1593202D02*
X2038520D01*
X1969354Y1592752D02*
X2038520D01*
X1969354Y1592302D02*
X2038520D01*
X1969354Y1591852D02*
X2038520D01*
X1969354Y1591402D02*
X2038520D01*
X1969354Y1590952D02*
X2038520D01*
X1969354Y1590502D02*
X2038520D01*
X1969354Y1590052D02*
X2038520D01*
X2028742Y1589602D02*
X2038520D01*
X2029532Y1589152D02*
X2038520D01*
X2030004Y1588702D02*
X2038520D01*
X2030326Y1588252D02*
X2038520D01*
X2030547Y1587802D02*
X2038520D01*
X2030689Y1587352D02*
X2038520D01*
X2030762Y1586902D02*
X2038520D01*
X2030770Y1586452D02*
X2038520D01*
X2030716Y1586002D02*
X2038520D01*
X2030594Y1585552D02*
X2038520D01*
X2030396Y1585102D02*
X2038520D01*
X2030105Y1584652D02*
X2038520D01*
X2029683Y1584202D02*
X2038520D01*
X2029020Y1583752D02*
X2038520D01*
X1969354Y1583302D02*
X2038520D01*
X1969354Y1582852D02*
X2038520D01*
X1969354Y1582402D02*
X2038520D01*
X2019746Y1581952D02*
X2038520D01*
X2021329Y1581502D02*
X2038520D01*
X2021919Y1581052D02*
X2038520D01*
X2022306Y1580602D02*
X2038520D01*
X2022574Y1580152D02*
X2038520D01*
X2022753Y1579702D02*
X2038520D01*
X2022859Y1579252D02*
X2038520D01*
X2022900Y1578802D02*
X2038520D01*
X2022877Y1578352D02*
X2038520D01*
X2022789Y1577902D02*
X2038520D01*
X2022631Y1577452D02*
X2038520D01*
X2022389Y1577002D02*
X2038520D01*
X2022040Y1576552D02*
X2038520D01*
X2021521Y1576102D02*
X2038520D01*
X2007125Y1643152D02*
X2035131D01*
X2007894Y1646752D02*
X2035041D01*
X2007500Y1643602D02*
X2034204D01*
X2008029Y1646302D02*
X2034185D01*
X2007765Y1644052D02*
X2033843D01*
X2008099Y1645852D02*
X2033833D01*
X2007947Y1644502D02*
X2033660D01*
X2008109Y1645402D02*
X2033656D01*
X2008060Y1644952D02*
X2033602D01*
X2020868Y1589602D02*
X2026382D01*
X2021146Y1583752D02*
X2026104D01*
X2021658Y1589152D02*
X2025593D01*
X2021809Y1584202D02*
X2025441D01*
X2022129Y1588702D02*
X2025121D01*
X2022231Y1584652D02*
X2025019D01*
X2022452Y1588252D02*
X2024799D01*
X2022522Y1585102D02*
X2024728D01*
X2022673Y1587802D02*
X2024578D01*
X2022720Y1585552D02*
X2024531D01*
X2022815Y1587352D02*
X2024436D01*
X2022842Y1586002D02*
X2024409D01*
X2022888Y1586902D02*
X2024363D01*
X2022896Y1586452D02*
X2024354D01*
X2011059Y1624252D02*
X2022279D01*
X2002236Y1626952D02*
X2022275D01*
X2011327Y1624702D02*
X2021837D01*
X2010919Y1626502D02*
X2021835D01*
X2011434Y1625152D02*
X2021630D01*
X2011260Y1626052D02*
X2021629D01*
X2011414Y1625602D02*
X2021567D01*
X1996563Y1613002D02*
X2020050D01*
X2017067Y1598152D02*
X2019841D01*
X2011872Y1581952D02*
X2019630D01*
X1984773Y1615702D02*
X2019588D01*
X1996641Y1613452D02*
X2019449D01*
X2017602Y1597702D02*
X2019306D01*
X1984979Y1615252D02*
X2019248D01*
X1996592Y1613902D02*
X2019181D01*
X1996001Y1614802D02*
X2019094D01*
X1996404Y1614352D02*
X2019074D01*
X2017847Y1597252D02*
X2019061D01*
X2017919Y1596352D02*
X2019005D01*
X2017938Y1596802D02*
X2018969D01*
X2012994Y1589602D02*
X2018508D01*
X2013272Y1583752D02*
X2018230D01*
X2013455Y1581502D02*
X2018048D01*
X2001329Y1622902D02*
X2018044D01*
X2013647Y1576102D02*
X2017856D01*
X2013784Y1589152D02*
X2017719D01*
X1999100Y1620202D02*
X2017591D01*
X2013935Y1584202D02*
X2017567D01*
X2014045Y1581052D02*
X2017458D01*
X2001322Y1622452D02*
X2017446D01*
X2014166Y1576552D02*
X2017337D01*
X1969354Y1593202D02*
X2017257D01*
X1999346Y1620652D02*
X2017249D01*
X2014255Y1588702D02*
X2017247D01*
X2001184Y1622002D02*
X2017180D01*
X2014357Y1584652D02*
X2017145D01*
X2000046Y1621102D02*
X2017094D01*
X2000868Y1621552D02*
X2017073D01*
X2014432Y1580602D02*
X2017070D01*
X2014515Y1577002D02*
X2016987D01*
X2014578Y1588252D02*
X2016925D01*
X2014648Y1585102D02*
X2016854D01*
X2014700Y1580152D02*
X2016803D01*
X1969354Y1593652D02*
X2016771D01*
X2014757Y1577452D02*
X2016746D01*
X2014799Y1587802D02*
X2016704D01*
X2014846Y1585552D02*
X2016657D01*
X2014879Y1579702D02*
X2016623D01*
X2014915Y1577902D02*
X2016587D01*
X2014941Y1587352D02*
X2016562D01*
X1969354Y1594102D02*
X2016545D01*
X2014967Y1586002D02*
X2016535D01*
X2014985Y1579252D02*
X2016517D01*
X2015003Y1578352D02*
X2016500D01*
X2015013Y1586902D02*
X2016489D01*
X2015022Y1586452D02*
X2016480D01*
X2015026Y1578802D02*
X2016477D01*
X1969354Y1594552D02*
X2016467D01*
X1969354Y1595002D02*
X2016467D01*
X1988559Y1598152D02*
X2015541D01*
X1969354Y1595452D02*
X2015248D01*
X1987958Y1597702D02*
X2015006D01*
X1969354Y1595902D02*
X2014876D01*
X1969354Y1597252D02*
X2014761D01*
X1969354Y1596352D02*
X2014705D01*
X1969354Y1596802D02*
X2014669D01*
X2003998Y1581952D02*
X2011756D01*
X2005120Y1589602D02*
X2010634D01*
X2005398Y1583752D02*
X2010356D01*
X2005581Y1581502D02*
X2010174D01*
X2005773Y1576102D02*
X2009982D01*
X2005910Y1589152D02*
X2009845D01*
X2006061Y1584202D02*
X2009693D01*
X2006171Y1581052D02*
X2009584D01*
X2006292Y1576552D02*
X2009463D01*
X2006381Y1588702D02*
X2009373D01*
X2006483Y1584652D02*
X2009271D01*
X2006558Y1580602D02*
X2009196D01*
X2005698Y1623802D02*
X2009150D01*
X2006641Y1577002D02*
X2009113D01*
X2006704Y1588252D02*
X2009051D01*
X2006774Y1585102D02*
X2008980D01*
X2006826Y1580152D02*
X2008929D01*
X2006883Y1577452D02*
X2008872D01*
X2006925Y1587802D02*
X2008830D01*
X2006972Y1585552D02*
X2008783D01*
X2007005Y1579702D02*
X2008749D01*
X2007041Y1577902D02*
X2008713D01*
X2005555Y1626502D02*
X2008688D01*
X2007067Y1587352D02*
X2008688D01*
X2007093Y1586002D02*
X2008661D01*
X2007111Y1579252D02*
X2008643D01*
X2007129Y1578352D02*
X2008626D01*
X2007139Y1586902D02*
X2008615D01*
X2007148Y1586452D02*
X2008606D01*
X2007152Y1578802D02*
X2008603D01*
X2006103Y1624252D02*
X2008549D01*
X2006039Y1626052D02*
X2008348D01*
X2006291Y1624702D02*
X2008281D01*
X2006264Y1625602D02*
X2008194D01*
X2006341Y1625152D02*
X2008174D01*
X1996124Y1581952D02*
X2003882D01*
X2002918Y1626502D02*
X2003853D01*
X1993511Y1642252D02*
X2003845D01*
X2002046Y1623802D02*
X2003710D01*
X2002868Y1624252D02*
X2003305D01*
X1993554Y1648552D02*
X2003018D01*
X1993554Y1642702D02*
X2002832D01*
X1997246Y1589602D02*
X2002760D01*
X1997524Y1583752D02*
X2002482D01*
X1993554Y1648102D02*
X2002442D01*
X1997707Y1581502D02*
X2002300D01*
X1993554Y1643152D02*
X2002282D01*
X1997899Y1576102D02*
X2002108D01*
X1993554Y1647652D02*
X2002019D01*
X1998036Y1589152D02*
X2001971D01*
X1993554Y1643602D02*
X2001907D01*
X1998187Y1584202D02*
X2001819D01*
X1993554Y1647202D02*
X2001721D01*
X1998296Y1581052D02*
X2001710D01*
X1993554Y1644052D02*
X2001642D01*
X1998418Y1576552D02*
X2001589D01*
X1993554Y1646752D02*
X2001513D01*
X1998507Y1588702D02*
X2001499D01*
X1993554Y1644502D02*
X2001460D01*
X1998609Y1584652D02*
X2001397D01*
X1993554Y1646302D02*
X2001378D01*
X2001094Y1623802D02*
X2001362D01*
X1993554Y1644952D02*
X2001348D01*
X1998684Y1580602D02*
X2001322D01*
X1993554Y1645852D02*
X2001308D01*
X1993554Y1645402D02*
X2001298D01*
X1998767Y1577002D02*
X2001239D01*
X1998830Y1588252D02*
X2001177D01*
X1969354Y1626952D02*
X2001172D01*
X1998900Y1585102D02*
X2001106D01*
X1998952Y1580152D02*
X2001055D01*
X1999009Y1577452D02*
X2000998D01*
X1999051Y1587802D02*
X2000956D01*
X1999098Y1585552D02*
X2000909D01*
X1999131Y1579702D02*
X2000875D01*
X1999167Y1577902D02*
X2000839D01*
X1999193Y1587352D02*
X2000814D01*
X1999219Y1586002D02*
X2000787D01*
X1999237Y1579252D02*
X2000769D01*
X1999255Y1578352D02*
X2000751D01*
X1999265Y1586902D02*
X2000741D01*
X1999274Y1586452D02*
X2000732D01*
X1999278Y1578802D02*
X2000729D01*
X1969354Y1626502D02*
X2000490D01*
X1969354Y1624702D02*
X2000224D01*
X1969354Y1626052D02*
X2000200D01*
X1969354Y1625152D02*
X2000086D01*
X1969354Y1625602D02*
X2000079D01*
X1969354Y1624252D02*
X1999172D01*
X1969354Y1623802D02*
X1998490D01*
X1969354Y1623352D02*
X1998200D01*
X1969354Y1622902D02*
X1998063D01*
X1985003Y1619752D02*
X1997046D01*
X1969354Y1622452D02*
X1996745D01*
X1985038Y1620202D02*
X1996508D01*
X1969354Y1622002D02*
X1996375D01*
X1984947Y1620652D02*
X1996262D01*
X1984167Y1621552D02*
X1996204D01*
X1984702Y1621102D02*
X1996170D01*
X1988250Y1581952D02*
X1996008D01*
X1994058Y1627402D02*
X1995462D01*
X1969354Y1603102D02*
X1995362D01*
X1969354Y1630552D02*
X1995272D01*
X1984332Y1616152D02*
X1995046D01*
X1989372Y1589602D02*
X1994886D01*
X1984460Y1618852D02*
X1994745D01*
X1989650Y1583752D02*
X1994608D01*
X1969354Y1603552D02*
X1994540D01*
X1969354Y1616602D02*
X1994508D01*
X1989244Y1599052D02*
X1994489D01*
X1969354Y1601752D02*
X1994480D01*
X1989833Y1581502D02*
X1994426D01*
X1969354Y1618402D02*
X1994375D01*
X1969354Y1617052D02*
X1994262D01*
X1990025Y1576102D02*
X1994234D01*
X1969354Y1604002D02*
X1994224D01*
X1969354Y1617952D02*
X1994204D01*
X1969354Y1617502D02*
X1994170D01*
X1990162Y1589152D02*
X1994097D01*
X1969354Y1604452D02*
X1994086D01*
X1969354Y1604902D02*
X1994079D01*
X1985041Y1614802D02*
X1994007D01*
X1990313Y1584202D02*
X1993945D01*
X1990422Y1581052D02*
X1993836D01*
X1969354Y1605352D02*
X1993746D01*
X1990544Y1576552D02*
X1993715D01*
X1990633Y1588702D02*
X1993625D01*
X1984978Y1614352D02*
X1993604D01*
X1990735Y1584652D02*
X1993523D01*
X1990810Y1580602D02*
X1993448D01*
X1984771Y1613902D02*
X1993416D01*
X1969354Y1613002D02*
X1993369D01*
X1984329Y1613452D02*
X1993367D01*
X1990893Y1577002D02*
X1993365D01*
X1969354Y1608052D02*
X1993333D01*
X1990956Y1588252D02*
X1993303D01*
X1991026Y1585102D02*
X1993232D01*
X1969354Y1605802D02*
X1993208D01*
X1991078Y1580152D02*
X1993181D01*
X1991135Y1577452D02*
X1993124D01*
X1969354Y1609852D02*
X1993115D01*
X1991177Y1587802D02*
X1993082D01*
X1969354Y1608502D02*
X1993081D01*
X1969354Y1607602D02*
X1993075D01*
X1991224Y1585552D02*
X1993035D01*
X1991257Y1579702D02*
X1993001D01*
X1969354Y1609402D02*
X1992994D01*
X1969354Y1608952D02*
X1992974D01*
X1991293Y1577902D02*
X1992965D01*
X1969354Y1606252D02*
X1992962D01*
X1991319Y1587352D02*
X1992940D01*
X1991345Y1586002D02*
X1992913D01*
X1969354Y1607152D02*
X1992904D01*
X1991363Y1579252D02*
X1992895D01*
X1991381Y1578352D02*
X1992877D01*
X1969354Y1606702D02*
X1992870D01*
X1991391Y1586902D02*
X1992867D01*
X1991400Y1586452D02*
X1992858D01*
X1991404Y1578802D02*
X1992855D01*
X1991658Y1627402D02*
X1992750D01*
X1969354Y1612552D02*
X1992637D01*
X1969354Y1610302D02*
X1992592D01*
X1969354Y1612102D02*
X1992323D01*
X1969354Y1610752D02*
X1992302D01*
X1992123Y1630102D02*
X1992285D01*
X1969354Y1611652D02*
X1992186D01*
X1969354Y1611202D02*
X1992179D01*
X1969354Y1627402D02*
X1990350D01*
X1969354Y1630102D02*
X1989888D01*
X1969354Y1627852D02*
X1989749D01*
X1969354Y1629652D02*
X1989548D01*
X1969354Y1628302D02*
X1989481D01*
X1969354Y1629202D02*
X1989394D01*
X1969354Y1628752D02*
X1989374D01*
X1969354Y1601302D02*
X1988597D01*
X1980376Y1581952D02*
X1988134D01*
X1969354Y1600852D02*
X1987274D01*
X1981498Y1589602D02*
X1987012D01*
X1981776Y1583752D02*
X1986734D01*
X1969354Y1597702D02*
X1986650D01*
X1981959Y1581502D02*
X1986552D01*
X1982151Y1576102D02*
X1986360D01*
X1982288Y1589152D02*
X1986223D01*
X1969354Y1600402D02*
X1986188D01*
X1982439Y1584202D02*
X1986071D01*
X1969354Y1598152D02*
X1986049D01*
X1982548Y1581052D02*
X1985962D01*
X1969354Y1599952D02*
X1985848D01*
X1982670Y1576552D02*
X1985841D01*
X1969354Y1598602D02*
X1985781D01*
X1982759Y1588702D02*
X1985751D01*
X1969354Y1599502D02*
X1985694D01*
X1969354Y1599052D02*
X1985674D01*
X1982861Y1584652D02*
X1985649D01*
X1982936Y1580602D02*
X1985574D01*
X1983019Y1577002D02*
X1985491D01*
X1983082Y1588252D02*
X1985429D01*
X1983152Y1585102D02*
X1985358D01*
X1983204Y1580152D02*
X1985307D01*
X1983261Y1577452D02*
X1985250D01*
X1983303Y1587802D02*
X1985208D01*
X1983350Y1585552D02*
X1985161D01*
X1983383Y1579702D02*
X1985127D01*
X1983419Y1577902D02*
X1985091D01*
X1983444Y1587352D02*
X1985066D01*
X1983471Y1586002D02*
X1985039D01*
X1983489Y1579252D02*
X1985021D01*
X1983507Y1578352D02*
X1985003D01*
X1983517Y1586902D02*
X1984993D01*
X1983526Y1586452D02*
X1984984D01*
X1983530Y1578802D02*
X1984980D01*
X1969354Y1621552D02*
X1982641D01*
X1969354Y1613452D02*
X1982479D01*
X1969354Y1616152D02*
X1982475D01*
X1969354Y1618852D02*
X1982348D01*
X1969354Y1621102D02*
X1982106D01*
X1969354Y1613902D02*
X1982037D01*
X1969354Y1615702D02*
X1982035D01*
X1969354Y1619302D02*
X1981976D01*
X1969354Y1620652D02*
X1981861D01*
X1969354Y1614352D02*
X1981830D01*
X1969354Y1615252D02*
X1981829D01*
X1969354Y1619752D02*
X1981805D01*
X1969354Y1620202D02*
X1981769D01*
X1969354Y1614802D02*
X1981767D01*
X1972502Y1581952D02*
X1980260D01*
X1973624Y1589602D02*
X1979138D01*
X1973902Y1583752D02*
X1978860D01*
X1974085Y1581502D02*
X1978678D01*
X1974277Y1576102D02*
X1978486D01*
X1974414Y1589152D02*
X1978349D01*
X1974565Y1584202D02*
X1978197D01*
X1974674Y1581052D02*
X1978088D01*
X1974796Y1576552D02*
X1977967D01*
X1974885Y1588702D02*
X1977877D01*
X1974987Y1584652D02*
X1977775D01*
X1975062Y1580602D02*
X1977700D01*
X1975145Y1577002D02*
X1977617D01*
X1975208Y1588252D02*
X1977555D01*
X1975278Y1585102D02*
X1977484D01*
X1975329Y1580152D02*
X1977433D01*
X1975387Y1577452D02*
X1977376D01*
X1975429Y1587802D02*
X1977334D01*
X1975476Y1585552D02*
X1977287D01*
X1975509Y1579702D02*
X1977253D01*
X1975545Y1577902D02*
X1977217D01*
X1975570Y1587352D02*
X1977192D01*
X1975597Y1586002D02*
X1977165D01*
X1975615Y1579252D02*
X1977147D01*
X1975633Y1578352D02*
X1977129D01*
X1975643Y1586902D02*
X1977119D01*
X1975652Y1586452D02*
X1977110D01*
X1975656Y1578802D02*
X1977106D01*
X1969354Y1581952D02*
X1972386D01*
X1969354Y1589602D02*
X1971264D01*
X1969354Y1583752D02*
X1970986D01*
X1969354Y1581502D02*
X1970804D01*
X1969354Y1589152D02*
X1970475D01*
X1969354Y1584202D02*
X1970323D01*
X1969354Y1581052D02*
X1970214D01*
X1969354Y1588702D02*
X1970003D01*
X1969354Y1584652D02*
X1969901D01*
X1969354Y1580602D02*
X1969826D01*
X1969354Y1588252D02*
X1969681D01*
X1969412Y1585102D02*
X1969596D01*
X1950804Y1920803D02*
X2134983D01*
X1950804D02*
X1955804Y1921803D01*
Y1919803*
X1950804Y1920803*
X2340504D02*
X2156324D01*
X2340504D02*
X2335504Y1919803D01*
Y1921803*
X2340504Y1920803*
X1950804Y1896403D02*
Y1922803D01*
X2340504Y1895903D02*
Y1922803D01*
X2373904Y1574803D02*
Y1729771D01*
Y1574803D02*
X2372904Y1579803D01*
X2374904*
X2373904Y1574803*
Y1894488D02*
Y1739521D01*
Y1894488D02*
X2374904Y1889488D01*
X2372904*
X2373904Y1894488*
X2342551Y1574803D02*
X2375904D01*
X2342551Y1894488D02*
X2375904D01*
G54D25*
X1993929Y1600403D02*
X1995159Y1600059D01*
X1994417Y1600403*
X1995159Y1600748*
X1993929Y1600403*
X1994643Y1600603D02*
X1994848D01*
X1994304Y1600298D02*
Y1600508D01*
X1994904Y1600130D02*
Y1600177D01*
Y1600629D02*
Y1600676D01*
X1988611Y1600082D02*
X1987398Y1599681D01*
X1988206Y1599810*
X1987782Y1599109*
X1988611Y1600082*
X1987960Y1599403D02*
X1988032D01*
X1988372Y1600003D02*
X1988544D01*
X1987704Y1599730D02*
Y1599783D01*
X1988304Y1599722D02*
Y1599981D01*
X1990201Y1600403D02*
X1995504D01*
X1990201D02*
G03X1987304Y1599203I-0J-4097D01*
G54D30*
G01X2023804Y1583003D03*
X2031504Y1582703D03*
X1983604Y1591503D03*
X1996804Y1591203D03*
X2008304Y1591303D03*
X2011704D03*
X2027404Y1591403D03*
X2034304Y1591503D03*
X2030404Y1591403D03*
X1973404Y1598503D03*
X1995504Y1600403D03*
X1987304Y1599203D03*
X2016304Y1596703D03*
X2025204Y1595103D03*
X2018104Y1594603D03*
X2023304Y1602003D03*
X2023704Y1600003D03*
X2020604Y1596703D03*
X2027304Y1597003D03*
X2030704Y1595303D03*
X2034404Y1599203D03*
X2034504Y1595103D03*
X1973404Y1611903D03*
X1973304Y1604803D03*
X1983004Y1612203D03*
X1987604Y1606903D03*
X1994504Y1606803D03*
X1993804Y1611403D03*
X1994604Y1609103D03*
X1995704Y1604703D03*
X2005704Y1612803D03*
X2005904Y1609603D03*
X2002904Y1612703D03*
X2002804Y1609603D03*
Y1606603D03*
X2006004D03*
X2009704Y1612803D03*
Y1609603D03*
X2009604Y1606603D03*
X2013904D03*
Y1609603D03*
Y1612403D03*
X2030604Y1609403D03*
X2034404Y1606203D03*
X2034504Y1612703D03*
X1973404Y1618803D03*
X1986104Y1615303D03*
X1983404Y1620103D03*
Y1614803D03*
X1995804Y1617603D03*
X1995004Y1613503D03*
X2006304Y1615803D03*
X2002904D03*
X2004504Y1617803D03*
X1997804Y1621203D03*
X1999704Y1622703D03*
X2009804Y1615603D03*
X2013904Y1615403D03*
X2010404Y1618403D03*
X2007204D03*
X2014004D03*
X2020704Y1614503D03*
X2018704Y1621403D03*
X2029804Y1620603D03*
X2034504Y1620103D03*
X2031804Y1616003D03*
Y1618103D03*
X1973304Y1632603D03*
Y1626703D03*
X1985004Y1629003D03*
X1977204Y1628503D03*
X1981204Y1631103D03*
X1995804Y1629003D03*
X1993404Y1628903D03*
X1991004D03*
X1998204Y1624903D03*
X1999504Y1631803D03*
X2005004D03*
X2001704Y1625403D03*
X2004704Y1625103D03*
X2009804Y1625303D03*
X2009204Y1628003D03*
X2007304Y1629903D03*
X2012804Y1631903D03*
X2019304Y1630903D03*
X2017704Y1628303D03*
X2023204Y1625603D03*
X2021904Y1632003D03*
X2026204D03*
X2031804Y1624403D03*
X2034504Y1626503D03*
X2034404Y1632903D03*
X2030304Y1632003D03*
X2030204Y1627503D03*
X1973504Y1638603D03*
X1985004Y1636103D03*
X1977004Y1635203D03*
X1981304Y1633403D03*
X1985304Y1639003D03*
X1978904Y1638903D03*
X1992104Y1636203D03*
X1996504Y1638903D03*
X1991604Y1638803D03*
X1994504Y1641103D03*
X1998104Y1641603D03*
X2001604D03*
X2002004Y1636903D03*
X1999804Y1634203D03*
X2001604Y1638903D03*
X2013504Y1636003D03*
X2007604Y1641903D03*
X2007704Y1639103D03*
X2016104Y1639003D03*
X2010804Y1634203D03*
X2012104Y1639003D03*
X2008504Y1636703D03*
X2025904Y1635703D03*
X2017504Y1633403D03*
X2022704Y1639003D03*
X2021904Y1635603D03*
X2034204Y1638603D03*
X2029204Y1638903D03*
X2030204Y1635803D03*
X2011204Y1645803D03*
X2025604Y1645703D03*
X2018904Y1645803D03*
X2031304Y1645703D03*
G54D31*
X1968504Y1642520D02*
X1992704D01*
Y1649606*
X2039370*
Y1574803*
X1968504*
Y1642520*
G54D37*
X2004704Y1645551D03*
X1998404D03*
G54D38*
X1972444Y1586614D03*
G74*
X0Y0D02*
M02*
