%
T1C.00984F0S0
X19968Y15912
X19836Y15915
X19734Y15985
X19873Y15992
X19955Y16004
X19957Y16047
X19733Y16048
X19945Y16068
X19876Y16069
X19946Y16091
X19938Y16114
X19734Y16119
X1983Y16122
X1995Y16135
X19834Y16148
X19861Y16153
X19958Y16176
X19734Y16188
X19834Y16201
X19733Y16267
X19772Y16285
X19934Y16289
X1991Y16289
X19958Y1629
X1985Y1629
X19812Y16311
X19733Y16326
X19813Y16334
X1977Y16352
X1985Y16361
X19921Y16362
X19735Y16386
X19916Y16388
X19965Y16389
X19789Y16389
X19853Y1639
X19945Y16411
X20112Y16458
X20189Y16458
X20076Y16419
X19981Y16416
X20016Y16416
X20077Y16391
X20161Y1639
X20121Y1639
X20016Y16389
X2002Y16369
X20085Y16367
X20135Y1636
X20219Y16356
X19998Y16342
X20108Y16342
X20175Y16334
X20219Y1632
X20128Y16319
X19995Y16318
X2005Y16318
X20193Y16309
X20073Y16299
X20177Y16283
X20092Y1628
X20017Y16254
X20098Y16253
X20047Y16251
X19982Y16249
X19997Y16227
X20187Y16214
X19978Y16212
X2014Y16184
X20104Y16184
X20072Y16184
X20045Y16178
X20029Y16158
X20063Y16158
X20098Y16156
X20139Y16154
X20207Y16145
X20097Y16128
X20057Y16128
X20029Y16127
X20139Y16124
X20059Y16096
X20139Y16096
X20028Y16096
X20097Y16096
X20028Y16066
X2006Y16066
X20139Y16066
X20096Y16066
X20163Y15967
X20206Y15967
X20181Y15946
X20083Y15913
X20117Y15913
X20315Y15827
X20238Y1583
X20274Y15914
X20304Y15914
X20343Y15915
X20345Y15951
X20252Y15951
X20307Y15953
X20273Y1597
X20344Y15992
X20237Y16
X20233Y1602
X20344Y16062
X20306Y16094
X20345Y16127
X20318Y1616
X20318Y16181
X20345Y16201
X20298Y16206
X20318Y16244
X20232Y16256
X20345Y16265
X20302Y16275
X20262Y1632
X20303Y1632
X20344Y16329
X20259Y16357
X20302Y16358
X20342Y16386
X20292Y16389
X20227Y1639
X20256Y16457
X20313Y16457
T2C.01969F0S0
X200529Y164555G85X200411Y164555
X199899Y164555G85X199781Y164555
T3C.01969F0S0
X20374Y164496G85X203544Y164496
T4C.02756F0S0
X197244Y157874
X198032Y157874
X198819Y157874
X199607Y157874
X197244Y158661
X198032Y158661
X198819Y158661
X199607Y158661
X200394Y158661
X201181Y158661
X201969Y158661
X200394Y157874
X201181Y157874
X201969Y157874
X202756Y157874
X203544Y157874
X202756Y158661
X203544Y158661
M30
