*
*
G04 PADS 9.5 Build Number: 522968 generated Gerber (RS-274-X) file*
G04 PC Version=2.1*
*
%IN "WIFI_FLASH_MODULE_UPDAT"*%
*
%MOIN*%
*
%FSLAX35Y35*%
*
*
*
*
G04 PC Standard Apertures*
*
*
G04 Thermal Relief Aperture macro.*
%AMTER*
1,1,$1,0,0*
1,0,$1-$2,0,0*
21,0,$3,$4,0,0,45*
21,0,$3,$4,0,0,135*
%
*
*
G04 Annular Aperture macro.*
%AMANN*
1,1,$1,0,0*
1,0,$2,0,0*
%
*
*
G04 Odd Aperture macro.*
%AMODD*
1,1,$1,0,0*
1,0,$1-0.005,0,0*
%
*
*
G04 PC Custom Aperture Macros*
*
*
*
*
*
*
G04 PC Aperture Table*
*
%ADD010C,0.001*%
%ADD011R,0.02X0.02*%
%ADD012C,0.01*%
%ADD013R,0.03543X0.04331*%
%ADD014R,0.01102X0.02756*%
%ADD015R,0.02756X0.01102*%
%ADD016R,0.13386X0.13386*%
%ADD018R,0.032X0.036*%
%ADD020R,0.02362X0.05512*%
%ADD021C,0.03937*%
%ADD024C,0.005*%
%ADD031C,0.00394*%
%ADD035C,0.01969*%
%ADD036C,0.02362*%
%ADD057C,0.02559*%
*
*
*
*
G04 PC Circuitry*
G04 Layer Name WIFI_FLASH_MODULE_UPDAT - circuitry*
%LPD*%
*
G54D10*
G01X2382519Y1734374D02*
X2382476Y1734675D01*
X2382352Y1734923*
X2382150Y1735044*
X2381856Y1735086*
X2381642Y1735043*
X2381475Y1735001*
X2381312Y1734879*
X2381183Y1734665*
X2381095Y1734668*
X2381010Y1734839*
X2380889Y1734960*
X2380679Y1735044*
X2380472Y1735086*
X2380307Y1735044*
X2380097Y1734960*
X2379836Y1734700*
X2379751Y1734735*
Y1735042*
X2379449*
Y1732821*
X2379751*
Y1734244*
X2379752Y1734256*
X2379797Y1734435*
X2379807Y1734454*
X2380030Y1734722*
X2380055Y1734738*
X2380367Y1734828*
X2380393*
X2380572Y1734783*
X2380588Y1734777*
X2380721Y1734687*
X2380738Y1734668*
X2380828Y1734489*
X2380833Y1734467*
Y1732821*
X2381135*
Y1734110*
Y1734117*
X2381180Y1734430*
X2381189Y1734452*
X2381323Y1734631*
X2381333Y1734641*
X2381512Y1734775*
X2381532Y1734784*
X2381755Y1734829*
X2381775*
X2381998Y1734784*
X2382028Y1734765*
X2382162Y1734586*
X2382170Y1734572*
X2382214Y1734438*
X2382217Y1734422*
Y1732821*
X2382519*
Y1734374*
X2378769D02*
X2378726Y1734675D01*
X2378602Y1734923*
X2378400Y1735044*
X2378106Y1735086*
X2377892Y1735043*
X2377725Y1735001*
X2377562Y1734879*
X2377433Y1734665*
X2377345Y1734668*
X2377260Y1734839*
X2377139Y1734960*
X2376929Y1735044*
X2376722Y1735086*
X2376557Y1735044*
X2376347Y1734960*
X2376086Y1734700*
X2376001Y1734735*
Y1735042*
X2375699*
Y1732821*
X2376001*
Y1734244*
X2376002Y1734256*
X2376047Y1734435*
X2376057Y1734454*
X2376280Y1734722*
X2376305Y1734738*
X2376617Y1734828*
X2376643*
X2376822Y1734783*
X2376838Y1734777*
X2376971Y1734687*
X2376988Y1734668*
X2377078Y1734489*
X2377083Y1734467*
Y1732821*
X2377385*
Y1734110*
Y1734117*
X2377430Y1734430*
X2377439Y1734452*
X2377573Y1734631*
X2377583Y1734641*
X2377762Y1734775*
X2377782Y1734784*
X2378005Y1734829*
X2378025*
X2378248Y1734784*
X2378278Y1734765*
X2378412Y1734586*
X2378420Y1734572*
X2378464Y1734438*
X2378467Y1734422*
Y1732821*
X2378769*
Y1734374*
X2375063Y1733122D02*
X2373551D01*
X2373512Y1733204*
X2373690Y1733427*
X2373699Y1733436*
X2373877Y1733569*
X2374143Y1733791*
X2374497Y1734100*
X2374717Y1734364*
X2374846Y1734536*
X2374932Y1734750*
X2375018Y1735095*
X2374976Y1735428*
X2374768Y1735678*
X2374470Y1735849*
X2374470D02*
X2374084Y1735934D01*
X2373701Y1735892*
X2373407Y1735724*
X2373195Y1735428*
X2373122Y1735135*
X2373422Y1735102*
X2373457Y1735280*
X2373466Y1735301*
X2373600Y1735479*
X2373610Y1735489*
X2373789Y1735623*
X2373810Y1735632*
X2374078Y1735677*
X2374096*
X2374320Y1735632*
X2374340Y1735623*
X2374518Y1735489*
X2374524Y1735485*
X2374658Y1735351*
X2374671Y1735325*
X2374716Y1735102*
Y1735082*
X2374671Y1734859*
X2374665Y1734843*
X2374531Y1734620*
X2374526Y1734613*
X2374258Y1734301*
X2374254Y1734296*
X2373851Y1733938*
X2373542Y1733673*
X2373193Y1733236*
X2373108Y1733025*
X2373074Y1732821*
X2375063*
Y1733122*
X2372385D02*
X2372083D01*
Y1732821*
X2372385*
Y1733122*
X2370778Y1735935D02*
X2370588D01*
X2370469Y1735736*
X2370461Y1735726*
X2370238Y1735503*
X2370230Y1735497*
X2369963Y1735318*
X2369960Y1735317*
X2369672Y1735152*
Y1734860*
X2369672D02*
X2370042Y1735046D01*
X2370396Y1735311*
X2370476Y1735271*
Y1732821*
X2370778*
Y1735935*
X2368857Y1733710D02*
X2368815Y1733962D01*
X2368731Y1734171*
X2368566Y1734337*
X2368305Y1734467*
X2368302Y1734555*
X2368520Y1734685*
X2368644Y1734809*
X2368727Y1734976*
X2368768Y1735140*
X2368726Y1735473*
X2368517Y1735724*
X2368265Y1735892*
X2367881Y1735935*
X2367497Y1735892*
X2367245Y1735724*
X2367036Y1735473*
X2366994Y1735183*
X2367036Y1734975*
X2367119Y1734809*
X2367243Y1734685*
X2367461Y1734555*
X2367451Y1734464*
X2367194Y1734379*
X2367032Y1734217*
X2366948Y1733964*
X2366905Y1733710*
X2366991Y1733325*
X2367159Y1733030*
X2367496Y1732819*
X2367881Y1732776*
X2368266Y1732819*
X2368603Y1733030*
X2368772Y1733325*
X2368857Y1733710*
X2368465Y1735125D02*
X2368421Y1734946D01*
X2368414Y1734930*
X2368325Y1734797*
X2368305Y1734780*
X2368127Y1734690*
X2368114Y1734686*
X2367891Y1734641*
X2367871*
X2367648Y1734686*
X2367636Y1734690*
X2367457Y1734780*
X2367438Y1734797*
X2367349Y1734930*
X2367341Y1734948*
X2367296Y1735172*
X2367297Y1735194*
X2367342Y1735372*
X2367349Y1735388*
X2367438Y1735522*
X2367457Y1735539*
X2367636Y1735628*
X2367648Y1735632*
X2367871Y1735677*
X2367891*
X2368114Y1735632*
X2368127Y1735628*
X2368305Y1735539*
X2368328Y1735516*
X2368417Y1735338*
X2368421Y1735327*
X2368465Y1735149*
Y1735125*
X2368556Y1733708D02*
Y1733700D01*
X2368511Y1733432*
X2368502Y1733410*
X2368368Y1733232*
X2368358Y1733222*
X2368179Y1733088*
X2368157Y1733078*
X2367889Y1733034*
X2367881Y1733033*
X2367703*
X2367675Y1733042*
X2367544Y1733129*
X2367368Y1733217*
X2367349Y1733234*
X2367259Y1733368*
X2367251Y1733389*
X2367207Y1733701*
X2367206Y1733708*
X2367207Y1733718*
X2367252Y1733941*
X2367258Y1733957*
X2367392Y1734180*
X2367405Y1734195*
X2367583Y1734329*
X2367605Y1734338*
X2367873Y1734382*
X2367889*
X2368157Y1734338*
X2368179Y1734329*
X2368358Y1734195*
X2368371Y1734180*
X2368504Y1733957*
X2368511Y1733941*
X2368555Y1733718*
X2368556Y1733708*
X2153871Y1920532D02*
X2153828Y1920833D01*
X2153704Y1921080*
X2153502Y1921202*
X2153208Y1921244*
X2152994Y1921201*
X2152827Y1921159*
X2152664Y1921037*
X2152535Y1920822*
X2152448Y1920825*
X2152362Y1920997*
X2152241Y1921118*
X2152032Y1921201*
X2151824Y1921243*
X2151660Y1921202*
X2151449Y1921118*
X2151188Y1920857*
X2151103Y1920892*
Y1921200*
X2150801*
Y1918978*
X2151103*
Y1920401*
X2151105Y1920413*
X2151149Y1920592*
X2151159Y1920612*
X2151383Y1920880*
X2151407Y1920896*
X2151720Y1920985*
X2151746Y1920986*
X2151924Y1920941*
X2151940Y1920934*
X2152074Y1920845*
X2152091Y1920826*
X2152180Y1920647*
X2152185Y1920625*
Y1918978*
X2152487*
Y1920267*
X2152488Y1920275*
X2152532Y1920587*
X2152542Y1920610*
X2152676Y1920789*
X2152686Y1920799*
X2152864Y1920932*
X2152884Y1920941*
X2153108Y1920986*
X2153127*
X2153350Y1920941*
X2153381Y1920922*
X2153515Y1920744*
X2153522Y1920730*
X2153567Y1920596*
X2153569Y1920580*
Y1918978*
X2153871*
Y1920532*
X2150121D02*
X2150078Y1920833D01*
X2149954Y1921080*
X2149752Y1921202*
X2149458Y1921244*
X2149244Y1921201*
X2149077Y1921159*
X2148914Y1921037*
X2148785Y1920822*
X2148698Y1920825*
X2148612Y1920997*
X2148491Y1921118*
X2148282Y1921201*
X2148074Y1921243*
X2147910Y1921202*
X2147699Y1921118*
X2147438Y1920857*
X2147353Y1920892*
Y1921200*
X2147051*
Y1918978*
X2147353*
Y1920401*
X2147355Y1920413*
X2147399Y1920592*
X2147409Y1920612*
X2147633Y1920880*
X2147657Y1920896*
X2147970Y1920985*
X2147996Y1920986*
X2148174Y1920941*
X2148190Y1920934*
X2148324Y1920845*
X2148341Y1920826*
X2148430Y1920647*
X2148435Y1920625*
Y1918978*
X2148737*
Y1920267*
X2148738Y1920275*
X2148782Y1920587*
X2148792Y1920610*
X2148926Y1920789*
X2148936Y1920799*
X2149114Y1920932*
X2149134Y1920941*
X2149358Y1920986*
X2149377*
X2149600Y1920941*
X2149631Y1920922*
X2149765Y1920744*
X2149772Y1920730*
X2149817Y1920596*
X2149819Y1920580*
Y1918978*
X2150121*
Y1920532*
X2146460Y1920930D02*
X2146373Y1921234D01*
X2146198Y1921717*
X2146073Y1921884*
X2145909Y1922006*
X2145482Y1922092*
X2145186Y1922049*
X2144935Y1921924*
X2144768Y1921715*
X2144638Y1921413*
X2144551Y1921019*
X2144507Y1920489*
Y1920095*
X2144594Y1919745*
X2144682Y1919439*
X2144807Y1919231*
X2145102Y1919019*
X2145485Y1918934*
X2145781Y1918977*
X2145781D02*
X2146032Y1919102D01*
X2146199Y1919311*
X2146329Y1919613*
X2146416Y1920007*
X2146460Y1920493*
Y1920930*
X2146158Y1920848D02*
Y1920134D01*
Y1920125*
X2146113Y1919857*
Y1919856*
X2146068Y1919633*
X2146064Y1919620*
X2145975Y1919442*
X2145961Y1919425*
X2145738Y1919246*
X2145717Y1919236*
X2145493Y1919192*
X2145474*
X2145250Y1919236*
X2145229Y1919246*
X2145006Y1919425*
X2144992Y1919442*
X2144903Y1919620*
X2144899Y1919633*
X2144854Y1919856*
Y1919857*
X2144809Y1920125*
X2144808Y1920134*
Y1920848*
X2144809Y1920855*
X2144854Y1921167*
Y1921170*
X2144899Y1921393*
X2144903Y1921406*
X2144992Y1921584*
X2145006Y1921601*
X2145229Y1921780*
X2145250Y1921790*
X2145474Y1921834*
X2145492Y1921835*
X2145760Y1921790*
X2145790Y1921772*
X2145969Y1921549*
X2145972Y1921545*
X2146061Y1921411*
X2146068Y1921393*
X2146113Y1921170*
Y1921167*
X2146158Y1920855*
Y1920848*
X2143737Y1919280D02*
X2143435D01*
Y1918978*
X2143737*
Y1919280*
X2142710Y1920580D02*
X2142666Y1921107D01*
X2142580Y1921454*
X2142408Y1921755*
X2142240Y1921923*
X2141986Y1922049*
X2141691Y1922092*
X2141308Y1922007*
X2141014Y1921796*
X2140843Y1921456*
X2140758Y1921070*
X2140844Y1920641*
X2141013Y1920303*
X2141307Y1920135*
X2141602Y1920051*
X2141808Y1920092*
X2142020Y1920177*
X2142326Y1920439*
X2142408Y1920401*
Y1920357*
Y1920352*
X2142364Y1919861*
X2142359Y1919843*
X2142272Y1919670*
X2142228Y1919496*
X2142211Y1919469*
X2141988Y1919291*
X2141970Y1919282*
X2141658Y1919193*
X2141632Y1919192*
X2141453Y1919237*
X2141453D02*
X2141438Y1919244D01*
X2141304Y1919333*
X2141290Y1919347*
X2141201Y1919481*
X2141195Y1919493*
X2141118Y1919722*
X2140814Y1919688*
X2140887Y1919395*
X2141055Y1919143*
X2141305Y1918976*
X2141644Y1918934*
X2141942Y1918977*
X2141942D02*
X2142195Y1919103D01*
X2142408Y1919316*
X2142579Y1919616*
X2142666Y1920051*
X2142710Y1920580*
X2142408Y1921071D02*
Y1921064D01*
X2142363Y1920751*
X2142357Y1920733*
X2142223Y1920510*
X2142210Y1920495*
X2142031Y1920361*
X2142010Y1920352*
X2141742Y1920307*
X2141725*
X2141457Y1920352*
X2141436Y1920361*
X2141257Y1920495*
X2141244Y1920510*
X2141110Y1920733*
X2141104Y1920750*
X2141059Y1921018*
X2141058Y1921026*
X2141059Y1921033*
X2141104Y1921346*
X2141110Y1921365*
X2141244Y1921588*
X2141256Y1921601*
X2141479Y1921780*
X2141500Y1921790*
X2141724Y1921834*
X2141742Y1921835*
X2142010Y1921790*
X2142031Y1921781*
X2142210Y1921647*
X2142225Y1921629*
X2142359Y1921361*
X2142363Y1921347*
X2142408Y1921079*
Y1921071*
X2140210Y1920580D02*
X2140166Y1921107D01*
X2140080Y1921454*
X2139908Y1921755*
X2139740Y1921923*
X2139486Y1922049*
X2139191Y1922092*
X2138808Y1922007*
X2138514Y1921796*
X2138343Y1921456*
X2138258Y1921070*
X2138344Y1920641*
X2138513Y1920303*
X2138807Y1920135*
X2139102Y1920051*
X2139308Y1920092*
X2139520Y1920177*
X2139826Y1920439*
X2139908Y1920401*
Y1920357*
Y1920352*
X2139864Y1919861*
X2139859Y1919843*
X2139772Y1919670*
X2139728Y1919496*
X2139711Y1919469*
X2139488Y1919291*
X2139470Y1919282*
X2139158Y1919193*
X2139132Y1919192*
X2138953Y1919237*
X2138953D02*
X2138938Y1919244D01*
X2138804Y1919333*
X2138790Y1919347*
X2138701Y1919481*
X2138695Y1919493*
X2138618Y1919722*
X2138314Y1919688*
X2138387Y1919395*
X2138555Y1919143*
X2138805Y1918976*
X2139144Y1918934*
X2139442Y1918977*
X2139442D02*
X2139695Y1919103D01*
X2139908Y1919316*
X2140079Y1919616*
X2140166Y1920051*
X2140210Y1920580*
X2139908Y1921071D02*
Y1921064D01*
X2139863Y1920751*
X2139857Y1920733*
X2139723Y1920510*
X2139710Y1920495*
X2139531Y1920361*
X2139510Y1920352*
X2139242Y1920307*
X2139225*
X2138957Y1920352*
X2138936Y1920361*
X2138757Y1920495*
X2138744Y1920510*
X2138610Y1920733*
X2138604Y1920750*
X2138559Y1921018*
X2138558Y1921026*
X2138559Y1921033*
X2138604Y1921346*
X2138610Y1921365*
X2138744Y1921588*
X2138756Y1921601*
X2138979Y1921780*
X2139000Y1921790*
X2139224Y1921834*
X2139242Y1921835*
X2139510Y1921790*
X2139531Y1921781*
X2139710Y1921647*
X2139725Y1921629*
X2139859Y1921361*
X2139863Y1921347*
X2139908Y1921079*
Y1921071*
X2138300Y1920859D02*
Y1921260D01*
X2138400Y1919376D02*
Y1919698D01*
Y1920528D02*
Y1921569D01*
X2138500Y1919226D02*
Y1919709D01*
Y1920328D02*
Y1921769D01*
X2138600Y1919113D02*
Y1919720D01*
Y1920253D02*
Y1920773D01*
Y1921321D02*
Y1921858D01*
X2138700Y1919046D02*
Y1919482D01*
Y1920196D02*
Y1920583D01*
Y1921514D02*
Y1921930D01*
X2138800Y1918980D02*
Y1919336D01*
Y1920139D02*
Y1920463D01*
Y1921636D02*
Y1922001D01*
X2138900Y1918964D02*
Y1919269D01*
Y1920109D02*
Y1920388D01*
Y1921716D02*
Y1922027D01*
X2139000Y1918952D02*
Y1919225D01*
Y1920080D02*
Y1920345D01*
Y1921790D02*
Y1922049D01*
X2139100Y1918939D02*
Y1919200D01*
Y1920051D02*
Y1920328D01*
Y1921810D02*
Y1922071D01*
X2139200Y1918942D02*
Y1919205D01*
Y1920071D02*
Y1920312D01*
Y1921830D02*
Y1922090D01*
X2139300Y1918956D02*
Y1919233D01*
Y1920091D02*
Y1920317D01*
Y1921825D02*
Y1922076D01*
X2139400Y1918971D02*
Y1919262D01*
Y1920129D02*
Y1920334D01*
Y1921808D02*
Y1922062D01*
X2139500Y1919006D02*
Y1919301D01*
Y1920169D02*
Y1920350D01*
Y1921792D02*
Y1922043D01*
X2139600Y1919056D02*
Y1919381D01*
Y1920246D02*
Y1920413D01*
Y1921729D02*
Y1921993D01*
X2139700Y1919108D02*
Y1919461D01*
Y1920331D02*
Y1920488D01*
Y1921654D02*
Y1921943D01*
X2139800Y1919208D02*
Y1919726D01*
Y1920417D02*
Y1920638D01*
Y1921478D02*
Y1921862D01*
X2139900Y1919308D02*
Y1920261D01*
Y1920429D02*
Y1921008D01*
Y1921126D02*
Y1921762D01*
X2140000Y1919477D02*
Y1921593D01*
X2140100Y1919721D02*
Y1921372D01*
X2140200Y1920459D02*
Y1920701D01*
X2140800Y1920859D02*
Y1921260D01*
X2140900Y1919376D02*
Y1919698D01*
Y1920528D02*
Y1921569D01*
X2141000Y1919226D02*
Y1919709D01*
Y1920328D02*
Y1921769D01*
X2141100Y1919113D02*
Y1919720D01*
Y1920253D02*
Y1920773D01*
Y1921321D02*
Y1921858D01*
X2141200Y1919046D02*
Y1919482D01*
Y1920196D02*
Y1920583D01*
Y1921514D02*
Y1921930D01*
X2141300Y1918980D02*
Y1919336D01*
Y1920139D02*
Y1920463D01*
Y1921636D02*
Y1922001D01*
X2141400Y1918964D02*
Y1919269D01*
Y1920109D02*
Y1920388D01*
Y1921716D02*
Y1922027D01*
X2141500Y1918952D02*
Y1919225D01*
Y1920080D02*
Y1920345D01*
Y1921790D02*
Y1922049D01*
X2141600Y1918939D02*
Y1919200D01*
Y1920051D02*
Y1920328D01*
Y1921810D02*
Y1922071D01*
X2141700Y1918942D02*
Y1919205D01*
Y1920071D02*
Y1920312D01*
Y1921830D02*
Y1922090D01*
X2141800Y1918956D02*
Y1919233D01*
Y1920091D02*
Y1920317D01*
Y1921825D02*
Y1922076D01*
X2141900Y1918971D02*
Y1919262D01*
Y1920129D02*
Y1920334D01*
Y1921808D02*
Y1922062D01*
X2142000Y1919006D02*
Y1919301D01*
Y1920169D02*
Y1920350D01*
Y1921792D02*
Y1922043D01*
X2142100Y1919056D02*
Y1919381D01*
Y1920246D02*
Y1920413D01*
Y1921729D02*
Y1921993D01*
X2142200Y1919108D02*
Y1919461D01*
Y1920331D02*
Y1920488D01*
Y1921654D02*
Y1921943D01*
X2142300Y1919208D02*
Y1919726D01*
Y1920417D02*
Y1920638D01*
Y1921478D02*
Y1921862D01*
X2142400Y1919308D02*
Y1920261D01*
Y1920429D02*
Y1921008D01*
Y1921126D02*
Y1921762D01*
X2142500Y1919477D02*
Y1921593D01*
X2142600Y1919721D02*
Y1921372D01*
X2142700Y1920459D02*
Y1920701D01*
X2143500Y1918978D02*
Y1919280D01*
X2143600Y1918978D02*
Y1919280D01*
X2143700Y1918978D02*
Y1919280D01*
X2144600Y1919725D02*
Y1921240D01*
X2144700Y1919409D02*
Y1921556D01*
X2144800Y1919242D02*
Y1921755D01*
X2144900Y1919164D02*
Y1919628D01*
Y1921398D02*
Y1921880D01*
X2145000Y1919093D02*
Y1919430D01*
Y1921596D02*
Y1921956D01*
X2145100Y1919021D02*
Y1919349D01*
Y1921676D02*
Y1922006D01*
X2145200Y1918998D02*
Y1919269D01*
Y1921756D02*
Y1922051D01*
X2145300Y1918976D02*
Y1919226D01*
Y1921800D02*
Y1922066D01*
X2145400Y1918953D02*
Y1919206D01*
Y1921820D02*
Y1922080D01*
X2145500Y1918936D02*
Y1919193D01*
Y1921833D02*
Y1922088D01*
X2145600Y1918951D02*
Y1919213D01*
Y1921817D02*
Y1922068D01*
X2145700Y1918965D02*
Y1919233D01*
Y1921800D02*
Y1922048D01*
X2145800Y1918986D02*
Y1919296D01*
Y1921760D02*
Y1922028D01*
X2145900Y1919036D02*
Y1919376D01*
Y1921635D02*
Y1922008D01*
X2146000Y1919086D02*
Y1919492D01*
Y1921502D02*
Y1921938D01*
X2146100Y1919187D02*
Y1919792D01*
Y1921234D02*
Y1921847D01*
X2146200Y1919313D02*
Y1921711D01*
X2146300Y1919547D02*
Y1921436D01*
X2146400Y1919935D02*
Y1921141D01*
X2147100Y1918978D02*
Y1921200D01*
X2147200Y1918978D02*
Y1921200D01*
X2147300Y1918978D02*
Y1921200D01*
X2147400Y1920595D02*
Y1920843D01*
X2147500Y1920721D02*
Y1920919D01*
X2147600Y1920841D02*
Y1921019D01*
X2147700Y1920908D02*
Y1921118D01*
X2147800Y1920937D02*
Y1921158D01*
X2147900Y1920965D02*
Y1921198D01*
X2148000Y1920984D02*
Y1921224D01*
X2148100Y1920959D02*
Y1921238D01*
X2148200Y1920927D02*
Y1921218D01*
X2148300Y1920861D02*
Y1921194D01*
X2148400Y1920707D02*
Y1921154D01*
X2148500Y1918978D02*
Y1921109D01*
X2148600Y1918978D02*
Y1921009D01*
X2148700Y1918978D02*
Y1920821D01*
X2148800Y1920621D02*
Y1920847D01*
X2148900Y1920754D02*
Y1921013D01*
X2149000Y1920847D02*
Y1921101D01*
X2149100Y1920922D02*
Y1921165D01*
X2149200Y1920955D02*
Y1921190D01*
X2149300Y1920975D02*
Y1921212D01*
X2149400Y1920982D02*
Y1921232D01*
X2149500Y1920962D02*
Y1921238D01*
X2149600Y1920942D02*
Y1921223D01*
X2149700Y1920830D02*
Y1921209D01*
X2149800Y1920646D02*
Y1921173D01*
X2149900Y1918978D02*
Y1921113D01*
X2150000Y1918978D02*
Y1920989D01*
X2150100Y1918978D02*
Y1920679D01*
X2150900Y1918978D02*
Y1921200D01*
X2151000Y1918978D02*
Y1921200D01*
X2151100Y1918978D02*
Y1921200D01*
X2151200Y1920661D02*
Y1920869D01*
X2151300Y1920781D02*
Y1920969D01*
X2151400Y1920893D02*
Y1921069D01*
X2151500Y1920922D02*
Y1921138D01*
X2151600Y1920951D02*
Y1921178D01*
X2151700Y1920980D02*
Y1921212D01*
X2151800Y1920972D02*
Y1921237D01*
X2151900Y1920947D02*
Y1921228D01*
X2152000Y1920894D02*
Y1921208D01*
X2152100Y1920807D02*
Y1921174D01*
X2152200Y1918978D02*
Y1921134D01*
X2152300Y1918978D02*
Y1921059D01*
X2152400Y1918978D02*
Y1920921D01*
X2152500Y1920362D02*
Y1920798D01*
X2152600Y1920688D02*
Y1920930D01*
X2152700Y1920809D02*
Y1921064D01*
X2152800Y1920884D02*
Y1921139D01*
X2152900Y1920945D02*
Y1921177D01*
X2153000Y1920965D02*
Y1921202D01*
X2153100Y1920985D02*
Y1921222D01*
X2153200Y1920972D02*
Y1921242D01*
X2153300Y1920952D02*
Y1921230D01*
X2153400Y1920897D02*
Y1921216D01*
X2153500Y1920763D02*
Y1921202D01*
X2153600Y1918978D02*
Y1921143D01*
X2153700Y1918978D02*
Y1921083D01*
X2153800Y1918978D02*
Y1920889D01*
X2367000Y1733309D02*
Y1734121D01*
Y1735155D02*
Y1735222D01*
X2367100Y1733134D02*
Y1734285D01*
Y1734847D02*
Y1735550D01*
X2367200Y1733004D02*
Y1734381D01*
Y1734728D02*
Y1735670D01*
X2367300Y1732942D02*
Y1733307D01*
Y1734027D02*
Y1734414D01*
Y1734651D02*
Y1735154D01*
Y1735206D02*
Y1735761D01*
X2367400Y1732879D02*
Y1733201D01*
Y1734191D02*
Y1734447D01*
Y1734591D02*
Y1734853D01*
Y1735465D02*
Y1735827D01*
X2367500Y1732819D02*
Y1733151D01*
Y1734266D02*
Y1734758D01*
Y1735560D02*
Y1735892D01*
X2367600Y1732808D02*
Y1733092D01*
Y1734337D02*
Y1734708D01*
Y1735610D02*
Y1735903D01*
X2367700Y1732796D02*
Y1733033D01*
Y1734354D02*
Y1734676D01*
Y1735643D02*
Y1735915D01*
X2367800Y1732785D02*
Y1733033D01*
Y1734370D02*
Y1734656D01*
Y1735663D02*
Y1735926D01*
X2367900Y1732778D02*
Y1733036D01*
Y1734381D02*
Y1734643D01*
Y1735675D02*
Y1735933D01*
X2368000Y1732790D02*
Y1733052D01*
Y1734364D02*
Y1734663D01*
Y1735655D02*
Y1735921D01*
X2368100Y1732801D02*
Y1733069D01*
Y1734347D02*
Y1734683D01*
Y1735635D02*
Y1735910D01*
X2368200Y1732812D02*
Y1733104D01*
Y1734313D02*
Y1734727D01*
Y1735591D02*
Y1735899D01*
X2368300Y1732840D02*
Y1733179D01*
Y1734238D02*
Y1734470D01*
Y1734553D02*
Y1734777D01*
Y1735541D02*
Y1735869D01*
X2368400Y1732903D02*
Y1733275D01*
Y1734131D02*
Y1734420D01*
Y1734613D02*
Y1734910D01*
Y1735372D02*
Y1735802D01*
X2368500Y1732965D02*
Y1733408D01*
Y1733965D02*
Y1734370D01*
Y1734673D02*
Y1735736D01*
X2368600Y1733028D02*
Y1734303D01*
Y1734766D02*
Y1735625D01*
X2368700Y1733199D02*
Y1734203D01*
Y1734922D02*
Y1735505D01*
X2368800Y1733453D02*
Y1734000D01*
X2369700Y1734874D02*
Y1735168D01*
X2369800Y1734924D02*
Y1735225D01*
X2369900Y1734974D02*
Y1735282D01*
X2370000Y1735024D02*
Y1735343D01*
X2370100Y1735089D02*
Y1735410D01*
X2370200Y1735164D02*
Y1735477D01*
X2370300Y1735239D02*
Y1735565D01*
X2370400Y1735313D02*
Y1735665D01*
X2370500Y1732821D02*
Y1735788D01*
X2370600Y1732821D02*
Y1735935D01*
X2370700Y1732821D02*
Y1735935D01*
X2372100Y1732821D02*
Y1733122D01*
X2372200Y1732821D02*
Y1733122D01*
X2372300Y1732821D02*
Y1733122D01*
X2373100Y1732821D02*
Y1732976D01*
X2373200Y1732821D02*
Y1733245D01*
Y1735127D02*
Y1735435D01*
X2373300Y1732821D02*
Y1733370D01*
Y1735116D02*
Y1735575D01*
X2373400Y1732821D02*
Y1733495D01*
Y1735105D02*
Y1735715D01*
X2373500Y1732821D02*
Y1733620D01*
Y1735346D02*
Y1735777D01*
X2373600Y1732821D02*
Y1733122D01*
Y1733314D02*
Y1733723D01*
Y1735479D02*
Y1735834D01*
X2373700Y1732821D02*
Y1733122D01*
Y1733436D02*
Y1733808D01*
Y1735557D02*
Y1735891D01*
X2373800Y1732821D02*
Y1733122D01*
Y1733511D02*
Y1733894D01*
Y1735630D02*
Y1735903D01*
X2373900Y1732821D02*
Y1733122D01*
Y1733588D02*
Y1733981D01*
Y1735647D02*
Y1735914D01*
X2374000Y1732821D02*
Y1733122D01*
Y1733671D02*
Y1734070D01*
Y1735664D02*
Y1735925D01*
X2374100Y1732821D02*
Y1733122D01*
Y1733755D02*
Y1734159D01*
Y1735676D02*
Y1735931D01*
X2374200Y1732821D02*
Y1733122D01*
Y1733840D02*
Y1734248D01*
Y1735656D02*
Y1735909D01*
X2374300Y1732821D02*
Y1733122D01*
Y1733928D02*
Y1734349D01*
Y1735636D02*
Y1735886D01*
X2374400Y1732821D02*
Y1733122D01*
Y1734015D02*
Y1734466D01*
Y1735578D02*
Y1735864D01*
X2374500Y1732821D02*
Y1733122D01*
Y1734104D02*
Y1734582D01*
Y1735503D02*
Y1735831D01*
X2374600Y1732821D02*
Y1733122D01*
Y1734224D02*
Y1734735D01*
Y1735408D02*
Y1735774D01*
X2374700Y1732821D02*
Y1733122D01*
Y1734344D02*
Y1735003D01*
Y1735182D02*
Y1735717D01*
X2374800Y1732821D02*
Y1733122D01*
Y1734475D02*
Y1735640D01*
X2374900Y1732821D02*
Y1733122D01*
Y1734671D02*
Y1735520D01*
X2375000Y1732821D02*
Y1733122D01*
Y1735023D02*
Y1735239D01*
X2375700Y1732821D02*
Y1735042D01*
X2375800Y1732821D02*
Y1735042D01*
X2375900Y1732821D02*
Y1735042D01*
X2376000Y1732821D02*
Y1735042D01*
X2376100Y1734506D02*
Y1734713D01*
X2376200Y1734626D02*
Y1734813D01*
X2376300Y1734737D02*
Y1734913D01*
X2376400Y1734766D02*
Y1734981D01*
X2376500Y1734794D02*
Y1735021D01*
X2376600Y1734823D02*
Y1735055D01*
X2376700Y1734814D02*
Y1735080D01*
X2376800Y1734789D02*
Y1735070D01*
X2376900Y1734735D02*
Y1735050D01*
X2377000Y1734645D02*
Y1735016D01*
X2377100Y1732821D02*
Y1734976D01*
X2377200Y1732821D02*
Y1734899D01*
X2377300Y1732821D02*
Y1734759D01*
X2377400Y1734220D02*
Y1734641D01*
X2377500Y1734533D02*
Y1734776D01*
X2377600Y1734654D02*
Y1734908D01*
X2377700Y1734729D02*
Y1734983D01*
X2377800Y1734788D02*
Y1735020D01*
X2377900Y1734808D02*
Y1735045D01*
X2378000Y1734828D02*
Y1735065D01*
X2378100Y1734814D02*
Y1735085D01*
X2378200Y1734794D02*
Y1735073D01*
X2378300Y1734736D02*
Y1735058D01*
X2378400Y1734603D02*
Y1735044D01*
X2378500Y1732821D02*
Y1734984D01*
X2378600Y1732821D02*
Y1734924D01*
X2378700Y1732821D02*
Y1734727D01*
X2379500Y1732821D02*
Y1735042D01*
X2379600Y1732821D02*
Y1735042D01*
X2379700Y1732821D02*
Y1735042D01*
X2379800Y1734443D02*
Y1734685D01*
X2379900Y1734566D02*
Y1734763D01*
X2380000Y1734686D02*
Y1734863D01*
X2380100Y1734751D02*
Y1734961D01*
X2380200Y1734780D02*
Y1735001D01*
X2380300Y1734808D02*
Y1735041D01*
X2380400Y1734826D02*
Y1735068D01*
X2380500Y1734801D02*
Y1735080D01*
X2380600Y1734768D02*
Y1735060D01*
X2380700Y1734702D02*
Y1735036D01*
X2380800Y1734545D02*
Y1734996D01*
X2380900Y1732821D02*
Y1734949D01*
X2381000Y1732821D02*
Y1734849D01*
X2381100Y1732821D02*
Y1734660D01*
X2381200Y1734467D02*
Y1734693D01*
X2381300Y1734600D02*
Y1734860D01*
X2381400Y1734691D02*
Y1734945D01*
X2381500Y1734766D02*
Y1735008D01*
X2381600Y1734798D02*
Y1735033D01*
X2381700Y1734818D02*
Y1735055D01*
X2381800Y1734824D02*
Y1735075D01*
X2381900Y1734804D02*
Y1735080D01*
X2382000Y1734784D02*
Y1735065D01*
X2382100Y1734669D02*
Y1735051D01*
X2382200Y1734481D02*
Y1735014D01*
X2382300Y1732821D02*
Y1734954D01*
X2382400Y1732821D02*
Y1734827D01*
X2382500Y1732821D02*
Y1734505D01*
*
G04 PC Custom Flashes*
G04 Layer Name WIFI_FLASH_MODULE_UPDAT - flashes*
%LPD*%
*
*
G04 PC Circuitry*
G04 Layer Name WIFI_FLASH_MODULE_UPDAT - circuitry*
%LPD*%
*
G54D10*
X1950804Y1894403D02*
X1950807D01*
X2340504Y1893903D02*
X2340507D01*
X2340551Y1574803D02*
X2340554D01*
X2340551Y1894488D02*
X2340554D01*
G54D11*
X2025404Y1617403D03*
X2029404D03*
X2030404Y1600503D03*
X2026404D03*
X2028704Y1622603D03*
X2024704D03*
X2010804Y1597003D03*
X2006804D03*
X1996404Y1631003D03*
Y1635003D03*
G54D12*
X2007690Y1633624D02*
X2006983Y1632917D01*
X2007690Y1632210*
X2008397Y1632917*
X2007690Y1633624*
X2007097Y1632803D02*
X2008283D01*
X2007504Y1632396D02*
Y1633439D01*
X2010518Y1630796D02*
X2009811Y1630089D01*
X2010518Y1629382*
X2011225Y1630089*
X2010518Y1630796*
X2010097Y1629803D02*
X2010939D01*
X2010504Y1629396D02*
Y1630782D01*
X2002290Y1633296D02*
X2001583Y1632589D01*
X2002290Y1631882*
X2002997Y1632589*
X2002290Y1633296*
X2001797Y1632803D02*
X2002783D01*
X2002504Y1632096D02*
Y1633082D01*
X2005118Y1636124D02*
X2004411Y1635417D01*
X2005118Y1634710*
X2005825Y1635417*
X2005118Y1636124*
X2005025Y1634803D02*
X2005211D01*
X2004797Y1635803D02*
X2005439D01*
X2004504Y1635324D02*
Y1635510D01*
X2005504Y1635096D02*
Y1635739D01*
X2016018Y1631024D02*
X2015311Y1630317D01*
X2016018Y1629610*
X2016725Y1630317*
X2016018Y1631024*
X2015825Y1629803D02*
X2016211D01*
X2015797Y1630803D02*
X2016239D01*
X2015504Y1630124D02*
Y1630510D01*
X2016504Y1630096D02*
Y1630539D01*
X2013190Y1628196D02*
X2012483Y1627489D01*
X2013190Y1626782*
X2013897Y1627489*
X2013190Y1628196*
X2013168Y1626803D02*
X2013211D01*
X2012797Y1627803D02*
X2013583D01*
X2012504Y1627468D02*
Y1627510D01*
X2013504Y1627096D02*
Y1627882D01*
G54D13*
X2024413Y1612743D03*
Y1605263D03*
X2030318D03*
Y1612743D03*
G54D14*
X2015194Y1622441D03*
X2013225D03*
X2011257D03*
X2009288D03*
X2007320D03*
X2005351D03*
X2003383D03*
X2001414D03*
Y1602756D03*
X2003383D03*
X2005351D03*
X2007320D03*
X2009288D03*
X2011257D03*
X2013225D03*
X2015194D03*
G54D15*
X1998461Y1619488D03*
Y1617520D03*
Y1615551D03*
Y1613583D03*
Y1611614D03*
Y1609646D03*
Y1607677D03*
Y1605709D03*
X2018146D03*
Y1607677D03*
Y1609646D03*
Y1611614D03*
Y1613583D03*
Y1615551D03*
Y1617520D03*
Y1619488D03*
G54D16*
X2008304Y1612598D03*
G54D18*
X1991554Y1632303D03*
X1985054D03*
X2023154Y1628203D03*
X2029654D03*
G54D20*
X1992346Y1623819D03*
X1987346D03*
X1982346D03*
X1977346D03*
Y1602559D03*
X1982346D03*
X1987346D03*
X1992346D03*
G54D21*
X1959646Y1614173D03*
X2331693D03*
Y1855118D03*
X1959646D03*
G54D24*
X1950804Y1920803D02*
X2134983D01*
X1950804D02*
X1955804Y1921803D01*
Y1919803*
X1950804Y1920803*
X2340504D02*
X2156324D01*
X2340504D02*
X2335504Y1919803D01*
Y1921803*
X2340504Y1920803*
X1950804Y1896403D02*
Y1922803D01*
X2340504Y1895903D02*
Y1922803D01*
X2373904Y1574803D02*
Y1729771D01*
Y1574803D02*
X2372904Y1579803D01*
X2374904*
X2373904Y1574803*
Y1894488D02*
Y1739521D01*
Y1894488D02*
X2374904Y1889488D01*
X2372904*
X2373904Y1894488*
X2342551Y1574803D02*
X2375904D01*
X2342551Y1894488D02*
X2375904D01*
G54D31*
X1968504Y1642520D02*
X1992704D01*
Y1649606*
X2039370*
Y1574803*
X1968504*
Y1642520*
G54D35*
X2025304Y1591339D02*
X2034452D01*
X2027759D02*
X1973428D01*
G54D36*
X2034452Y1638976D02*
X2008074D01*
X2001381D02*
X1973428D01*
G54D57*
X1973425D02*
Y1591634D01*
X2034646Y1638976D02*
Y1591339D01*
X0Y0D02*
M02*
