*
*
G04 PADS 9.5 Build Number: 522968 generated Gerber (RS-274-X) file*
G04 PC Version=2.1*
*
%IN "WIFI_FLASH_MODULE_UPDAT"*%
*
%MOIN*%
*
%FSLAX35Y35*%
*
*
*
*
G04 PC Standard Apertures*
*
*
G04 Thermal Relief Aperture macro.*
%AMTER*
1,1,$1,0,0*
1,0,$1-$2,0,0*
21,0,$3,$4,0,0,45*
21,0,$3,$4,0,0,135*
%
*
*
G04 Annular Aperture macro.*
%AMANN*
1,1,$1,0,0*
1,0,$2,0,0*
%
*
*
G04 Odd Aperture macro.*
%AMODD*
1,1,$1,0,0*
1,0,$1-0.005,0,0*
%
*
*
G04 PC Custom Aperture Macros*
*
*
*
*
*
*
G04 PC Aperture Table*
*
%ADD010C,0.001*%
%ADD024C,0.005*%
%ADD025C,0.006*%
%ADD028C,0.00984*%
%ADD031C,0.00394*%
%ADD035C,0.01969*%
%ADD054C,0.008*%
%ADD055C,0.004*%
*
*
*
*
G04 PC Circuitry*
G04 Layer Name WIFI_FLASH_MODULE_UPDAT - circuitry*
%LPD*%
*
*
G04 PC Custom Flashes*
G04 Layer Name WIFI_FLASH_MODULE_UPDAT - flashes*
%LPD*%
*
*
G04 PC Circuitry*
G04 Layer Name WIFI_FLASH_MODULE_UPDAT - circuitry*
%LPD*%
*
G54D10*
G54D24*
G01X2003350Y1634357D02*
X2004057Y1633650D01*
X2000122Y1632493D02*
X2005214Y1637585D01*
X2007295Y1635503*
X2002204Y1630412*
X2000122Y1632493*
X2014957Y1628550D02*
X2014250Y1629257D01*
X2018185Y1630413D02*
X2013094Y1625322D01*
X2011013Y1627403*
X2016104Y1632495*
X2018185Y1630413*
X2031768Y1621203D02*
X2031677Y1621453D01*
X2031495Y1621703*
X2031313Y1621828*
X2030949*
X2030768Y1621703*
X2030586Y1621453*
X2030495Y1621203*
X2030404Y1620828*
Y1620203*
X2030495Y1619828*
X2030586Y1619578*
X2030768Y1619328*
X2030949Y1619203*
X2031313*
X2031495Y1619328*
X2031677Y1619578*
X2031768Y1619828*
X2032586Y1621328D02*
X2032768Y1621453D01*
X2033040Y1621828*
Y1619203*
X2029968Y1598003D02*
X2029877Y1598253D01*
X2029695Y1598503*
X2029513Y1598628*
X2029149*
X2028968Y1598503*
X2028786Y1598253*
X2028695Y1598003*
X2028604Y1597628*
Y1597003*
X2028695Y1596628*
X2028786Y1596378*
X2028968Y1596128*
X2029149Y1596003*
X2029513*
X2029695Y1596128*
X2029877Y1596378*
X2029968Y1596628*
X2030877Y1598003D02*
Y1598128D01*
X2030968Y1598378*
X2031058Y1598503*
X2031240Y1598628*
X2031604*
X2031786Y1598503*
X2031877Y1598378*
X2031968Y1598128*
Y1597878*
X2031877Y1597628*
X2031695Y1597253*
X2030786Y1596003*
X2032058*
X2011868Y1634503D02*
X2011777Y1634753D01*
X2011595Y1635003*
X2011413Y1635128*
X2011049*
X2010868Y1635003*
X2010686Y1634753*
X2010595Y1634503*
X2010504Y1634128*
Y1633503*
X2010595Y1633128*
X2010686Y1632878*
X2010868Y1632628*
X2011049Y1632503*
X2011413*
X2011595Y1632628*
X2011777Y1632878*
X2011868Y1633128*
X2013595Y1635128D02*
X2012686Y1633378D01*
X2014049*
X2013595Y1635128D02*
Y1632503D01*
X1999304Y1637228D02*
Y1634603D01*
X2000395*
X2001213Y1636728D02*
X2001395Y1636853D01*
X2001668Y1637228*
Y1634603*
X2017304Y1634828D02*
Y1632203D01*
X2018395*
X2019304Y1634203D02*
Y1634328D01*
X2019395Y1634578*
X2019486Y1634703*
X2019668Y1634828*
X2020031*
X2020213Y1634703*
X2020304Y1634578*
X2020395Y1634328*
Y1634078*
X2020304Y1633828*
X2020122Y1633453*
X2019213Y1632203*
X2020486*
X2020004Y1623728D02*
Y1621103D01*
Y1623728D02*
X2020822D01*
X2021095Y1623603*
X2021186Y1623478*
X2021277Y1623228*
Y1622978*
X2021186Y1622728*
X2021095Y1622603*
X2020822Y1622478*
X2020004*
X2020640D02*
X2021277Y1621103D01*
X2022095Y1623228D02*
X2022277Y1623353D01*
X2022549Y1623728*
Y1621103*
X2020904Y1601928D02*
Y1600053D01*
X2020995Y1599678*
X2021177Y1599428*
X2021449Y1599303*
X2021631*
X2021904Y1599428*
X2022086Y1599678*
X2022177Y1600053*
Y1601928*
X2022995Y1601428D02*
X2023177Y1601553D01*
X2023449Y1601928*
Y1599303*
X2013904Y1600728D02*
Y1598853D01*
X2013995Y1598478*
X2014177Y1598228*
X2014449Y1598103*
X2014631*
X2014904Y1598228*
X2015086Y1598478*
X2015177Y1598853*
Y1600728*
X2016086Y1600103D02*
Y1600228D01*
X2016177Y1600478*
X2016268Y1600603*
X2016449Y1600728*
X2016813*
X2016995Y1600603*
X2017086Y1600478*
X2017177Y1600228*
Y1599978*
X2017086Y1599728*
X2016904Y1599353*
X2015995Y1598103*
X2017268*
X2009413Y1647082D02*
Y1645082D01*
X2009322Y1644707*
X2009231Y1644582*
X2009049Y1644457*
X2008868*
X2008686Y1644582*
X2008595Y1644707*
X2008504Y1645082*
Y1645332*
X2010322Y1646457D02*
Y1646582D01*
X2010413Y1646832*
X2010504Y1646957*
X2010686Y1647082*
X2011049*
X2011231Y1646957*
X2011322Y1646832*
X2011413Y1646582*
Y1646332*
X2011322Y1646082*
X2011140Y1645707*
X2010231Y1644457*
X2011504*
X2000754Y1598150D02*
Y1595853D01*
Y1598150D02*
X2001572D01*
X2001845Y1598041*
X2001936Y1597931*
X2002027Y1597713*
Y1597494*
X2001936Y1597275*
X2001845Y1597166*
X2001572Y1597056*
X2000754*
X2001390D02*
X2002027Y1595853D01*
X2003027Y1598150D02*
X2004027D01*
X2003481Y1597275*
X2003754*
X2003936Y1597166*
X2004027Y1597056*
X2004118Y1596728*
Y1596509*
X2004027Y1596181*
X2003845Y1595963*
X2003572Y1595853*
X2003299*
X2003027Y1595963*
X2002936Y1596072*
X2002845Y1596291*
X1996868Y1627903D02*
X1996777Y1628153D01*
X1996595Y1628403*
X1996413Y1628528*
X1996049*
X1995868Y1628403*
X1995686Y1628153*
X1995595Y1627903*
X1995504Y1627528*
Y1626903*
X1995595Y1626528*
X1995686Y1626278*
X1995868Y1626028*
X1996049Y1625903*
X1996413*
X1996595Y1626028*
X1996777Y1626278*
X1996868Y1626528*
X1997868Y1628528D02*
X1998868D01*
X1998322Y1627528*
X1998595*
X1998777Y1627403*
X1998868Y1627278*
X1998958Y1626903*
Y1626653*
X1998868Y1626278*
X1998686Y1626028*
X1998413Y1625903*
X1998140*
X1997868Y1626028*
X1997777Y1626153*
X1997686Y1626403*
X1979463Y1633586D02*
X1979372Y1633805D01*
X1979190Y1634023*
X1979008Y1634133*
X1978645*
X1978463Y1634023*
X1978281Y1633805*
X1978190Y1633586*
X1978099Y1633258*
Y1632711*
X1978190Y1632383*
X1978281Y1632164*
X1978463Y1631945*
X1978645Y1631836*
X1979008*
X1979190Y1631945*
X1979372Y1632164*
X1979463Y1632383*
X1981463Y1634133D02*
X1980554D01*
X1980463Y1633148*
X1980554Y1633258*
X1980827Y1633367*
X1981099*
X1981372Y1633258*
X1981554Y1633039*
X1981645Y1632711*
X1981554Y1632492*
X1981463Y1632164*
X1981281Y1631945*
X1981008Y1631836*
X1980736*
X1980463Y1631945*
X1980372Y1632055*
X1980281Y1632273*
X2026354Y1632986D02*
X2026263Y1633205D01*
X2026081Y1633423*
X2025899Y1633533*
X2025536*
X2025354Y1633423*
X2025172Y1633205*
X2025081Y1632986*
X2024990Y1632658*
Y1632111*
X2025081Y1631783*
X2025172Y1631564*
X2025354Y1631345*
X2025536Y1631236*
X2025899*
X2026081Y1631345*
X2026263Y1631564*
X2026354Y1631783*
X2028263Y1633205D02*
X2028172Y1633423D01*
X2027899Y1633533*
X2027718*
X2027445Y1633423*
X2027263Y1633095*
X2027172Y1632548*
Y1632002*
X2027263Y1631564*
X2027445Y1631345*
X2027718Y1631236*
X2027808*
X2028081Y1631345*
X2028263Y1631564*
X2028354Y1631892*
Y1632002*
X2028263Y1632330*
X2028081Y1632548*
X2027808Y1632658*
X2027718*
X2027445Y1632548*
X2027263Y1632330*
X2027172Y1632002*
G54D25*
X2019405Y1620886D02*
X2016599Y1623470D01*
Y1620886*
X2019405*
X2018540Y1604731D02*
Y1602362D01*
X2016015*
X1998068Y1604773D02*
Y1602362D01*
X2000326*
X2000539Y1622835D02*
X1998068D01*
Y1620335*
X2007554Y1642787D02*
X1995743D01*
Y1648307*
X2007554*
Y1642787*
X1990054Y1629803D02*
X1993904D01*
Y1634803*
X1990054*
X1986554D02*
X1982704D01*
Y1629803*
X1986554*
X2024654Y1630703D02*
X2020804D01*
Y1625703*
X2024654*
X2028154D02*
X2032004D01*
Y1630703*
X2028154*
G54D28*
X1993212Y1627953D02*
G75*
G03X1993212I-492J0D01*
G54D31*
G01X2032680Y1615302D02*
Y1602704D01*
X2022050*
Y1615302*
X2032680*
X1992523Y1616929D02*
G03X1992523I-1969J0D01*
G01X1975200Y1620669D02*
Y1605709D01*
X1994491*
Y1620669*
X1975200*
X1968504Y1642520D02*
X1992704D01*
Y1649606*
X2039370*
Y1574803*
X1968504*
Y1642520*
G54D35*
X1991539Y1616929D02*
G03X1991539I-985J0D01*
G54D54*
G01X2027404Y1617903D02*
Y1616903D01*
X2028404Y1600003D02*
Y1601003D01*
X2009457Y1631857D02*
X2008750Y1631150D01*
X2026704Y1622103D02*
Y1623103D01*
X2008804Y1596503D02*
Y1597503D01*
X1995904Y1633003D02*
X1996904D01*
G54D55*
X2023804Y1618868D02*
X2031004D01*
Y1615924*
X2023804*
Y1618868*
X2032004Y1599038D02*
X2024804D01*
Y1601982*
X2032004*
Y1599038*
X2007594Y1635085D02*
X2012685Y1629993D01*
X2010604Y1627912*
X2005513Y1633003*
X2007594Y1635085*
X2030304Y1621138D02*
X2023104D01*
Y1624082*
X2030304*
Y1621138*
X2012404Y1595538D02*
X2005204D01*
Y1598482*
X2012404*
Y1595538*
X1994939Y1629403D02*
Y1636603D01*
X1997883*
Y1629403*
X1994939*
G74*
X0Y0D02*
M02*
